%TF.GenerationSoftware,KiCad,Pcbnew,9.0.7*%
%TF.CreationDate,2026-02-10T00:00:13+01:00*%
%TF.ProjectId,Pi1551-III Module FB1,50693135-3531-42d4-9949-49204d6f6475,1*%
%TF.SameCoordinates,Original*%
%TF.FileFunction,Legend,Bot*%
%TF.FilePolarity,Positive*%
%FSLAX46Y46*%
G04 Gerber Fmt 4.6, Leading zero omitted, Abs format (unit mm)*
G04 Created by KiCad (PCBNEW 9.0.7) date 2026-02-10 00:00:13*
%MOMM*%
%LPD*%
G01*
G04 APERTURE LIST*
%ADD10C,0.150000*%
%ADD11C,0.500000*%
%ADD12C,0.000000*%
G04 APERTURE END LIST*
D10*
X158746428Y-58509819D02*
X159222618Y-58509819D01*
X159222618Y-58509819D02*
X159270237Y-58986009D01*
X159270237Y-58986009D02*
X159222618Y-58938390D01*
X159222618Y-58938390D02*
X159127380Y-58890771D01*
X159127380Y-58890771D02*
X158889285Y-58890771D01*
X158889285Y-58890771D02*
X158794047Y-58938390D01*
X158794047Y-58938390D02*
X158746428Y-58986009D01*
X158746428Y-58986009D02*
X158698809Y-59081247D01*
X158698809Y-59081247D02*
X158698809Y-59319342D01*
X158698809Y-59319342D02*
X158746428Y-59414580D01*
X158746428Y-59414580D02*
X158794047Y-59462200D01*
X158794047Y-59462200D02*
X158889285Y-59509819D01*
X158889285Y-59509819D02*
X159127380Y-59509819D01*
X159127380Y-59509819D02*
X159222618Y-59462200D01*
X159222618Y-59462200D02*
X159270237Y-59414580D01*
X158413094Y-58509819D02*
X158079761Y-59509819D01*
X158079761Y-59509819D02*
X157746428Y-58509819D01*
X156651189Y-59509819D02*
X156651189Y-58509819D01*
X156651189Y-58509819D02*
X156413094Y-58509819D01*
X156413094Y-58509819D02*
X156270237Y-58557438D01*
X156270237Y-58557438D02*
X156174999Y-58652676D01*
X156174999Y-58652676D02*
X156127380Y-58747914D01*
X156127380Y-58747914D02*
X156079761Y-58938390D01*
X156079761Y-58938390D02*
X156079761Y-59081247D01*
X156079761Y-59081247D02*
X156127380Y-59271723D01*
X156127380Y-59271723D02*
X156174999Y-59366961D01*
X156174999Y-59366961D02*
X156270237Y-59462200D01*
X156270237Y-59462200D02*
X156413094Y-59509819D01*
X156413094Y-59509819D02*
X156651189Y-59509819D01*
X155079761Y-59414580D02*
X155127380Y-59462200D01*
X155127380Y-59462200D02*
X155270237Y-59509819D01*
X155270237Y-59509819D02*
X155365475Y-59509819D01*
X155365475Y-59509819D02*
X155508332Y-59462200D01*
X155508332Y-59462200D02*
X155603570Y-59366961D01*
X155603570Y-59366961D02*
X155651189Y-59271723D01*
X155651189Y-59271723D02*
X155698808Y-59081247D01*
X155698808Y-59081247D02*
X155698808Y-58938390D01*
X155698808Y-58938390D02*
X155651189Y-58747914D01*
X155651189Y-58747914D02*
X155603570Y-58652676D01*
X155603570Y-58652676D02*
X155508332Y-58557438D01*
X155508332Y-58557438D02*
X155365475Y-58509819D01*
X155365475Y-58509819D02*
X155270237Y-58509819D01*
X155270237Y-58509819D02*
X155127380Y-58557438D01*
X155127380Y-58557438D02*
X155079761Y-58605057D01*
X154555951Y-56588866D02*
X153794047Y-56588866D01*
X154174999Y-56969819D02*
X154174999Y-56207914D01*
X160555951Y-56588866D02*
X159794047Y-56588866D01*
%TO.C,REF\u002A\u002A*%
X157175000Y-56590000D02*
X155175000Y-56590000D01*
X159175000Y-56590000D02*
X158275000Y-56590000D01*
X156500000Y-55840000D02*
G75*
G02*
X156425000Y-57265000I675000J-750000D01*
G01*
X155100000Y-56590000D02*
G75*
G02*
X153250000Y-56590000I-925000J0D01*
G01*
X153250000Y-56590000D02*
G75*
G02*
X155100000Y-56590000I925000J0D01*
G01*
D11*
X157350000Y-56590000D02*
G75*
G02*
X157000000Y-56590000I-175000J0D01*
G01*
X157000000Y-56590000D02*
G75*
G02*
X157350000Y-56590000I175000J0D01*
G01*
D10*
X161100000Y-56590000D02*
G75*
G02*
X159250000Y-56590000I-925000J0D01*
G01*
X159250000Y-56590000D02*
G75*
G02*
X161100000Y-56590000I925000J0D01*
G01*
D12*
%TO.C,kibuzzard-69864CDD*%
G36*
X117480000Y-95459746D02*
G01*
X114598681Y-95459746D01*
X114598681Y-86459746D01*
X117480000Y-86459746D01*
X117480000Y-95459746D01*
G37*
G36*
X121620659Y-95459746D02*
G01*
X118739341Y-95459746D01*
X118739341Y-86459746D01*
X121620659Y-86459746D01*
X121620659Y-95459746D01*
G37*
G36*
X125761319Y-95459746D02*
G01*
X122880000Y-95459746D01*
X122880000Y-86459746D01*
X125761319Y-86459746D01*
X125761319Y-95459746D01*
G37*
%TO.C,kibuzzard-69864D02*%
G36*
X128944615Y-85033592D02*
G01*
X127600000Y-85033592D01*
X127600000Y-80833592D01*
X128944615Y-80833592D01*
X128944615Y-85033592D01*
G37*
G36*
X109510769Y-82150515D02*
G01*
X108803077Y-82975131D01*
X107563077Y-81928977D01*
X107230769Y-81928977D01*
X107230769Y-85033592D01*
X105950769Y-85033592D01*
X105950769Y-80833592D01*
X107975385Y-80833592D01*
X109510769Y-82150515D01*
G37*
G36*
X126652308Y-82150515D02*
G01*
X125944615Y-82975131D01*
X124704615Y-81928977D01*
X124372308Y-81928977D01*
X124372308Y-85033592D01*
X123092308Y-85033592D01*
X123092308Y-80833592D01*
X125116923Y-80833592D01*
X126652308Y-82150515D01*
G37*
G36*
X134409231Y-85033592D02*
G01*
X133129231Y-85033592D01*
X133129231Y-84005900D01*
X131520000Y-84005900D01*
X130890769Y-83998208D01*
X130498462Y-83975131D01*
X130154615Y-83915131D01*
X129892308Y-83821284D01*
X129547692Y-83498208D01*
X129446838Y-83237353D01*
X129386325Y-82873250D01*
X129366154Y-82405900D01*
X130649231Y-82405900D01*
X130686154Y-82736669D01*
X130821538Y-82895131D01*
X130995385Y-82944361D01*
X131177308Y-82952054D01*
X131529231Y-82956669D01*
X133129231Y-82956669D01*
X133129231Y-81882823D01*
X131529231Y-81882823D01*
X131069231Y-81898208D01*
X130858462Y-81925900D01*
X130695385Y-82076669D01*
X130649231Y-82405900D01*
X129366154Y-82405900D01*
X129390598Y-81915814D01*
X129463932Y-81536840D01*
X129586154Y-81268977D01*
X129907308Y-81009361D01*
X130430769Y-80867438D01*
X130662564Y-80848635D01*
X131029744Y-80837353D01*
X131532308Y-80833592D01*
X134409231Y-80833592D01*
X134409231Y-85033592D01*
G37*
G36*
X115421538Y-83378208D02*
G01*
X114298462Y-83378208D01*
X114301538Y-83325900D01*
X114124615Y-83105900D01*
X113851923Y-83065515D01*
X113387692Y-83052054D01*
X112799316Y-83058891D01*
X112355214Y-83079404D01*
X112055385Y-83113592D01*
X111846154Y-83239746D01*
X111790769Y-83572054D01*
X111827692Y-83947438D01*
X111963077Y-84101284D01*
X112252308Y-84150515D01*
X112561538Y-84157438D01*
X113113846Y-84159746D01*
X113615000Y-84153208D01*
X113955385Y-84133592D01*
X114286154Y-84042823D01*
X114363077Y-83735131D01*
X115581538Y-83735131D01*
X115584615Y-83901284D01*
X115545769Y-84331669D01*
X115429231Y-84638208D01*
X115221154Y-84842438D01*
X114907692Y-84965900D01*
X114564615Y-85025131D01*
X114163077Y-85061284D01*
X113817094Y-85074960D01*
X113353504Y-85083165D01*
X112772308Y-85085900D01*
X112326496Y-85081797D01*
X111969573Y-85069490D01*
X111701538Y-85048977D01*
X111386923Y-84992823D01*
X111113846Y-84898208D01*
X110853077Y-84720515D01*
X110680000Y-84452054D01*
X110583077Y-84065131D01*
X110550769Y-83532054D01*
X110575000Y-83119361D01*
X110647692Y-82804361D01*
X110775000Y-82569361D01*
X110963077Y-82396669D01*
X111210577Y-82290323D01*
X111577692Y-82214361D01*
X112064423Y-82168784D01*
X112670769Y-82153592D01*
X113223932Y-82162823D01*
X113640342Y-82190515D01*
X113920000Y-82236669D01*
X114307692Y-82470515D01*
X114298462Y-82156669D01*
X114298462Y-81707438D01*
X114030000Y-81732054D01*
X113483077Y-81738208D01*
X110747692Y-81738208D01*
X110747692Y-80833592D01*
X115421538Y-80833592D01*
X115421538Y-83378208D01*
G37*
G36*
X121135385Y-83378208D02*
G01*
X120012308Y-83378208D01*
X120015385Y-83325900D01*
X119838462Y-83105900D01*
X119565769Y-83065515D01*
X119101538Y-83052054D01*
X118513162Y-83058891D01*
X118069060Y-83079404D01*
X117769231Y-83113592D01*
X117560000Y-83239746D01*
X117504615Y-83572054D01*
X117541538Y-83947438D01*
X117676923Y-84101284D01*
X117966154Y-84150515D01*
X118275385Y-84157438D01*
X118827692Y-84159746D01*
X119328846Y-84153208D01*
X119669231Y-84133592D01*
X120000000Y-84042823D01*
X120076923Y-83735131D01*
X121295385Y-83735131D01*
X121298462Y-83901284D01*
X121259615Y-84331669D01*
X121143077Y-84638208D01*
X120935000Y-84842438D01*
X120621538Y-84965900D01*
X120278462Y-85025131D01*
X119876923Y-85061284D01*
X119530940Y-85074960D01*
X119067350Y-85083165D01*
X118486154Y-85085900D01*
X118040342Y-85081797D01*
X117683419Y-85069490D01*
X117415385Y-85048977D01*
X117100769Y-84992823D01*
X116827692Y-84898208D01*
X116566923Y-84720515D01*
X116393846Y-84452054D01*
X116296923Y-84065131D01*
X116264615Y-83532054D01*
X116288846Y-83119361D01*
X116361538Y-82804361D01*
X116488846Y-82569361D01*
X116676923Y-82396669D01*
X116924423Y-82290323D01*
X117291538Y-82214361D01*
X117778269Y-82168784D01*
X118384615Y-82153592D01*
X118937778Y-82162823D01*
X119354188Y-82190515D01*
X119633846Y-82236669D01*
X120021538Y-82470515D01*
X120012308Y-82156669D01*
X120012308Y-81707438D01*
X119743846Y-81732054D01*
X119196923Y-81738208D01*
X116461538Y-81738208D01*
X116461538Y-80833592D01*
X121135385Y-80833592D01*
X121135385Y-83378208D01*
G37*
%TD*%
M02*
