%TF.GenerationSoftware,KiCad,Pcbnew,9.0.7*%
%TF.CreationDate,2026-02-10T00:00:13+01:00*%
%TF.ProjectId,Pi1551-III Module FB1,50693135-3531-42d4-9949-49204d6f6475,1*%
%TF.SameCoordinates,Original*%
%TF.FileFunction,Legend,Top*%
%TF.FilePolarity,Positive*%
%FSLAX46Y46*%
G04 Gerber Fmt 4.6, Leading zero omitted, Abs format (unit mm)*
G04 Created by KiCad (PCBNEW 9.0.7) date 2026-02-10 00:00:13*
%MOMM*%
%LPD*%
G01*
G04 APERTURE LIST*
%ADD10C,0.150000*%
%ADD11C,0.500000*%
%ADD12C,0.000000*%
G04 APERTURE END LIST*
D10*
X166353295Y-69078268D02*
X166924723Y-69078268D01*
X166924723Y-69078268D02*
X167039009Y-69116363D01*
X167039009Y-69116363D02*
X167115200Y-69192554D01*
X167115200Y-69192554D02*
X167153295Y-69306839D01*
X167153295Y-69306839D02*
X167153295Y-69383030D01*
X167153295Y-68316363D02*
X167153295Y-68697315D01*
X167153295Y-68697315D02*
X166353295Y-68697315D01*
X167077104Y-67592553D02*
X167115200Y-67630649D01*
X167115200Y-67630649D02*
X167153295Y-67744934D01*
X167153295Y-67744934D02*
X167153295Y-67821125D01*
X167153295Y-67821125D02*
X167115200Y-67935411D01*
X167115200Y-67935411D02*
X167039009Y-68011601D01*
X167039009Y-68011601D02*
X166962819Y-68049696D01*
X166962819Y-68049696D02*
X166810438Y-68087792D01*
X166810438Y-68087792D02*
X166696152Y-68087792D01*
X166696152Y-68087792D02*
X166543771Y-68049696D01*
X166543771Y-68049696D02*
X166467580Y-68011601D01*
X166467580Y-68011601D02*
X166391390Y-67935411D01*
X166391390Y-67935411D02*
X166353295Y-67821125D01*
X166353295Y-67821125D02*
X166353295Y-67744934D01*
X166353295Y-67744934D02*
X166391390Y-67630649D01*
X166391390Y-67630649D02*
X166429485Y-67592553D01*
X166353295Y-67021125D02*
X166924723Y-67021125D01*
X166924723Y-67021125D02*
X167039009Y-67059220D01*
X167039009Y-67059220D02*
X167115200Y-67135411D01*
X167115200Y-67135411D02*
X167153295Y-67249696D01*
X167153295Y-67249696D02*
X167153295Y-67325887D01*
X167153295Y-66259220D02*
X167153295Y-66640172D01*
X167153295Y-66640172D02*
X166353295Y-66640172D01*
X167077104Y-65535410D02*
X167115200Y-65573506D01*
X167115200Y-65573506D02*
X167153295Y-65687791D01*
X167153295Y-65687791D02*
X167153295Y-65763982D01*
X167153295Y-65763982D02*
X167115200Y-65878268D01*
X167115200Y-65878268D02*
X167039009Y-65954458D01*
X167039009Y-65954458D02*
X166962819Y-65992553D01*
X166962819Y-65992553D02*
X166810438Y-66030649D01*
X166810438Y-66030649D02*
X166696152Y-66030649D01*
X166696152Y-66030649D02*
X166543771Y-65992553D01*
X166543771Y-65992553D02*
X166467580Y-65954458D01*
X166467580Y-65954458D02*
X166391390Y-65878268D01*
X166391390Y-65878268D02*
X166353295Y-65763982D01*
X166353295Y-65763982D02*
X166353295Y-65687791D01*
X166353295Y-65687791D02*
X166391390Y-65573506D01*
X166391390Y-65573506D02*
X166429485Y-65535410D01*
X166353295Y-64963982D02*
X166924723Y-64963982D01*
X166924723Y-64963982D02*
X167039009Y-65002077D01*
X167039009Y-65002077D02*
X167115200Y-65078268D01*
X167115200Y-65078268D02*
X167153295Y-65192553D01*
X167153295Y-65192553D02*
X167153295Y-65268744D01*
X167153295Y-64202077D02*
X167153295Y-64583029D01*
X167153295Y-64583029D02*
X166353295Y-64583029D01*
X167077104Y-63478267D02*
X167115200Y-63516363D01*
X167115200Y-63516363D02*
X167153295Y-63630648D01*
X167153295Y-63630648D02*
X167153295Y-63706839D01*
X167153295Y-63706839D02*
X167115200Y-63821125D01*
X167115200Y-63821125D02*
X167039009Y-63897315D01*
X167039009Y-63897315D02*
X166962819Y-63935410D01*
X166962819Y-63935410D02*
X166810438Y-63973506D01*
X166810438Y-63973506D02*
X166696152Y-63973506D01*
X166696152Y-63973506D02*
X166543771Y-63935410D01*
X166543771Y-63935410D02*
X166467580Y-63897315D01*
X166467580Y-63897315D02*
X166391390Y-63821125D01*
X166391390Y-63821125D02*
X166353295Y-63706839D01*
X166353295Y-63706839D02*
X166353295Y-63630648D01*
X166353295Y-63630648D02*
X166391390Y-63516363D01*
X166391390Y-63516363D02*
X166429485Y-63478267D01*
X166353295Y-62906839D02*
X166924723Y-62906839D01*
X166924723Y-62906839D02*
X167039009Y-62944934D01*
X167039009Y-62944934D02*
X167115200Y-63021125D01*
X167115200Y-63021125D02*
X167153295Y-63135410D01*
X167153295Y-63135410D02*
X167153295Y-63211601D01*
X167153295Y-62144934D02*
X167153295Y-62525886D01*
X167153295Y-62525886D02*
X166353295Y-62525886D01*
X167077104Y-61421124D02*
X167115200Y-61459220D01*
X167115200Y-61459220D02*
X167153295Y-61573505D01*
X167153295Y-61573505D02*
X167153295Y-61649696D01*
X167153295Y-61649696D02*
X167115200Y-61763982D01*
X167115200Y-61763982D02*
X167039009Y-61840172D01*
X167039009Y-61840172D02*
X166962819Y-61878267D01*
X166962819Y-61878267D02*
X166810438Y-61916363D01*
X166810438Y-61916363D02*
X166696152Y-61916363D01*
X166696152Y-61916363D02*
X166543771Y-61878267D01*
X166543771Y-61878267D02*
X166467580Y-61840172D01*
X166467580Y-61840172D02*
X166391390Y-61763982D01*
X166391390Y-61763982D02*
X166353295Y-61649696D01*
X166353295Y-61649696D02*
X166353295Y-61573505D01*
X166353295Y-61573505D02*
X166391390Y-61459220D01*
X166391390Y-61459220D02*
X166429485Y-61421124D01*
X81613571Y-58509819D02*
X81137381Y-58509819D01*
X81137381Y-58509819D02*
X81089762Y-58986009D01*
X81089762Y-58986009D02*
X81137381Y-58938390D01*
X81137381Y-58938390D02*
X81232619Y-58890771D01*
X81232619Y-58890771D02*
X81470714Y-58890771D01*
X81470714Y-58890771D02*
X81565952Y-58938390D01*
X81565952Y-58938390D02*
X81613571Y-58986009D01*
X81613571Y-58986009D02*
X81661190Y-59081247D01*
X81661190Y-59081247D02*
X81661190Y-59319342D01*
X81661190Y-59319342D02*
X81613571Y-59414580D01*
X81613571Y-59414580D02*
X81565952Y-59462200D01*
X81565952Y-59462200D02*
X81470714Y-59509819D01*
X81470714Y-59509819D02*
X81232619Y-59509819D01*
X81232619Y-59509819D02*
X81137381Y-59462200D01*
X81137381Y-59462200D02*
X81089762Y-59414580D01*
X81946905Y-58509819D02*
X82280238Y-59509819D01*
X82280238Y-59509819D02*
X82613571Y-58509819D01*
X83708810Y-59509819D02*
X83708810Y-58509819D01*
X83708810Y-58509819D02*
X83946905Y-58509819D01*
X83946905Y-58509819D02*
X84089762Y-58557438D01*
X84089762Y-58557438D02*
X84185000Y-58652676D01*
X84185000Y-58652676D02*
X84232619Y-58747914D01*
X84232619Y-58747914D02*
X84280238Y-58938390D01*
X84280238Y-58938390D02*
X84280238Y-59081247D01*
X84280238Y-59081247D02*
X84232619Y-59271723D01*
X84232619Y-59271723D02*
X84185000Y-59366961D01*
X84185000Y-59366961D02*
X84089762Y-59462200D01*
X84089762Y-59462200D02*
X83946905Y-59509819D01*
X83946905Y-59509819D02*
X83708810Y-59509819D01*
X85280238Y-59414580D02*
X85232619Y-59462200D01*
X85232619Y-59462200D02*
X85089762Y-59509819D01*
X85089762Y-59509819D02*
X84994524Y-59509819D01*
X84994524Y-59509819D02*
X84851667Y-59462200D01*
X84851667Y-59462200D02*
X84756429Y-59366961D01*
X84756429Y-59366961D02*
X84708810Y-59271723D01*
X84708810Y-59271723D02*
X84661191Y-59081247D01*
X84661191Y-59081247D02*
X84661191Y-58938390D01*
X84661191Y-58938390D02*
X84708810Y-58747914D01*
X84708810Y-58747914D02*
X84756429Y-58652676D01*
X84756429Y-58652676D02*
X84851667Y-58557438D01*
X84851667Y-58557438D02*
X84994524Y-58509819D01*
X84994524Y-58509819D02*
X85089762Y-58509819D01*
X85089762Y-58509819D02*
X85232619Y-58557438D01*
X85232619Y-58557438D02*
X85280238Y-58605057D01*
X79804048Y-56588866D02*
X80565953Y-56588866D01*
X85804048Y-56588866D02*
X86565953Y-56588866D01*
X86185000Y-56969819D02*
X86185000Y-56207914D01*
%TO.C,REF\u002A\u002A*%
X81185000Y-56590000D02*
X82085000Y-56590000D01*
X83185000Y-56590000D02*
X85185000Y-56590000D01*
X83935000Y-57265000D02*
G75*
G02*
X83860000Y-55840000I-750000J675000D01*
G01*
X81110000Y-56590000D02*
G75*
G02*
X79260000Y-56590000I-925000J0D01*
G01*
X79260000Y-56590000D02*
G75*
G02*
X81110000Y-56590000I925000J0D01*
G01*
D11*
X83360000Y-56590000D02*
G75*
G02*
X83010000Y-56590000I-175000J0D01*
G01*
X83010000Y-56590000D02*
G75*
G02*
X83360000Y-56590000I175000J0D01*
G01*
D10*
X87110000Y-56590000D02*
G75*
G02*
X85260000Y-56590000I-925000J0D01*
G01*
X85260000Y-56590000D02*
G75*
G02*
X87110000Y-56590000I925000J0D01*
G01*
D12*
%TO.C,kibuzzard-69864E12*%
G36*
X114015147Y-147931685D02*
G01*
X113470897Y-147931685D01*
X113470897Y-146231685D01*
X114015147Y-146231685D01*
X114015147Y-147931685D01*
G37*
G36*
X116965549Y-144743407D02*
G01*
X116421300Y-144743407D01*
X116421300Y-143043407D01*
X116965549Y-143043407D01*
X116965549Y-144743407D01*
G37*
G36*
X124799249Y-147931685D02*
G01*
X124255000Y-147931685D01*
X124255000Y-146231685D01*
X124799249Y-146231685D01*
X124799249Y-147931685D01*
G37*
G36*
X118790092Y-144743407D02*
G01*
X118271996Y-144743407D01*
X118271996Y-143486777D01*
X118137491Y-143486777D01*
X117635586Y-143910220D01*
X117349139Y-143576447D01*
X117970604Y-143043407D01*
X118790092Y-143043407D01*
X118790092Y-144743407D01*
G37*
G36*
X126073315Y-147504505D02*
G01*
X126170458Y-147504505D01*
X126784451Y-146231685D01*
X127349872Y-146231685D01*
X126520421Y-147931685D01*
X125724597Y-147931685D01*
X124883938Y-146231685D01*
X125453095Y-146231685D01*
X126073315Y-147504505D01*
G37*
G36*
X125728333Y-144743407D02*
G01*
X125210238Y-144743407D01*
X125210238Y-143486777D01*
X125075733Y-143486777D01*
X124573828Y-143910220D01*
X124287381Y-143576447D01*
X124908846Y-143043407D01*
X125728333Y-143043407D01*
X125728333Y-144743407D01*
G37*
G36*
X129318883Y-146631465D02*
G01*
X127946429Y-146631465D01*
X127946429Y-146876813D01*
X129249139Y-146876813D01*
X129249139Y-147250440D01*
X127946429Y-147250440D01*
X127946429Y-147523187D01*
X129328846Y-147523187D01*
X129328846Y-147931685D01*
X127435806Y-147931685D01*
X127435806Y-146231685D01*
X129318883Y-146231685D01*
X129318883Y-146631465D01*
G37*
G36*
X117737711Y-147066117D02*
G01*
X118803791Y-147931685D01*
X118016685Y-147931685D01*
X117255733Y-147281575D01*
X116971777Y-147281575D01*
X116971777Y-147931685D01*
X116453681Y-147931685D01*
X116453681Y-146231685D01*
X116971777Y-146231685D01*
X116971777Y-146848168D01*
X117255733Y-146848168D01*
X117928260Y-146220476D01*
X118720348Y-146220476D01*
X117737711Y-147066117D01*
G37*
G36*
X115577320Y-143044929D02*
G01*
X115725940Y-143049495D01*
X115819762Y-143057106D01*
X116031639Y-143114551D01*
X116161630Y-143219634D01*
X116211101Y-143328055D01*
X116240783Y-143481449D01*
X116250678Y-143679817D01*
X116242513Y-143868982D01*
X116218020Y-144016357D01*
X116177198Y-144121941D01*
X116037711Y-144252711D01*
X115931538Y-144290696D01*
X115792363Y-144314982D01*
X115633571Y-144324322D01*
X115378883Y-144327436D01*
X114727527Y-144327436D01*
X114727527Y-144743407D01*
X114209432Y-144743407D01*
X114209432Y-143902747D01*
X114727527Y-143902747D01*
X115375147Y-143902747D01*
X115517592Y-143900879D01*
X115591227Y-143897766D01*
X115661593Y-143877839D01*
X115716392Y-143813700D01*
X115731337Y-143679817D01*
X115712656Y-143546557D01*
X115646648Y-143485531D01*
X115561337Y-143474322D01*
X115375147Y-143468095D01*
X114727527Y-143468095D01*
X114727527Y-143902747D01*
X114209432Y-143902747D01*
X114209432Y-143043407D01*
X115373901Y-143043407D01*
X115577320Y-143044929D01*
G37*
G36*
X112440381Y-146232239D02*
G01*
X112582774Y-146233899D01*
X112675073Y-146236667D01*
X112778132Y-146246007D01*
X112885549Y-146264066D01*
X113035969Y-146319418D01*
X113146811Y-146415731D01*
X113218077Y-146553004D01*
X113256685Y-146745421D01*
X113264158Y-146874478D01*
X113266648Y-147056154D01*
X113263690Y-147256355D01*
X113254817Y-147401136D01*
X113237848Y-147512912D01*
X113210604Y-147614103D01*
X113142106Y-147744457D01*
X113037906Y-147836618D01*
X112898004Y-147890586D01*
X112783425Y-147911291D01*
X112661374Y-147923590D01*
X112495421Y-147929661D01*
X112249139Y-147931685D01*
X111531777Y-147931685D01*
X111021154Y-147931685D01*
X111021154Y-147498278D01*
X111531777Y-147498278D01*
X112252875Y-147498278D01*
X112425833Y-147495009D01*
X112546172Y-147485201D01*
X112678810Y-147439744D01*
X112738590Y-147325165D01*
X112751667Y-147226777D01*
X112756026Y-147088535D01*
X112752289Y-146949982D01*
X112741081Y-146850659D01*
X112688773Y-146728608D01*
X112566099Y-146669451D01*
X112446383Y-146659643D01*
X112247894Y-146656374D01*
X111531777Y-146656374D01*
X111531777Y-147498278D01*
X111021154Y-147498278D01*
X111021154Y-146231685D01*
X112247894Y-146231685D01*
X112440381Y-146232239D01*
G37*
G36*
X120929172Y-146232239D02*
G01*
X121071565Y-146233899D01*
X121163864Y-146236667D01*
X121266923Y-146246007D01*
X121374341Y-146264066D01*
X121524760Y-146319418D01*
X121635602Y-146415731D01*
X121706868Y-146553004D01*
X121745476Y-146745421D01*
X121752949Y-146874478D01*
X121755440Y-147056154D01*
X121752482Y-147256355D01*
X121743608Y-147401136D01*
X121726639Y-147512912D01*
X121699396Y-147614103D01*
X121630897Y-147744457D01*
X121526697Y-147836618D01*
X121386795Y-147890586D01*
X121272216Y-147911291D01*
X121150165Y-147923590D01*
X120984212Y-147929661D01*
X120737930Y-147931685D01*
X120020568Y-147931685D01*
X119509945Y-147931685D01*
X119509945Y-147498278D01*
X120020568Y-147498278D01*
X120741667Y-147498278D01*
X120914625Y-147495009D01*
X121034963Y-147485201D01*
X121167601Y-147439744D01*
X121227381Y-147325165D01*
X121240458Y-147226777D01*
X121244817Y-147088535D01*
X121241081Y-146949982D01*
X121229872Y-146850659D01*
X121177564Y-146728608D01*
X121054890Y-146669451D01*
X120935174Y-146659643D01*
X120736685Y-146656374D01*
X120020568Y-146656374D01*
X120020568Y-147498278D01*
X119509945Y-147498278D01*
X119509945Y-146231685D01*
X120736685Y-146231685D01*
X120929172Y-146232239D01*
G37*
G36*
X123465956Y-146233276D02*
G01*
X123641976Y-146236390D01*
X123739396Y-146241026D01*
X123907527Y-146298938D01*
X123989414Y-146368526D01*
X124040788Y-146460220D01*
X124067875Y-146592390D01*
X124076905Y-146783407D01*
X124071145Y-146944377D01*
X124053864Y-147056154D01*
X123967308Y-147195641D01*
X123881374Y-147242967D01*
X123760568Y-147272857D01*
X123900678Y-147302436D01*
X123994707Y-147366264D01*
X124047015Y-147483956D01*
X124055421Y-147590907D01*
X124058223Y-147773516D01*
X124058223Y-147931685D01*
X123547601Y-147931685D01*
X123547601Y-147840769D01*
X123537015Y-147638388D01*
X123497784Y-147545604D01*
X123418700Y-147507619D01*
X123207601Y-147499524D01*
X122477784Y-147499524D01*
X122477784Y-147931685D01*
X121959689Y-147931685D01*
X121959689Y-147074835D01*
X122477784Y-147074835D01*
X123206355Y-147074835D01*
X123358452Y-147071255D01*
X123433645Y-147067985D01*
X123496538Y-147048681D01*
X123543864Y-146985788D01*
X123557564Y-146859377D01*
X123541996Y-146734835D01*
X123487821Y-146675055D01*
X123422436Y-146660110D01*
X123349112Y-146657930D01*
X123205110Y-146656374D01*
X122477784Y-146656374D01*
X122477784Y-147074835D01*
X121959689Y-147074835D01*
X121959689Y-146231685D01*
X123211337Y-146231685D01*
X123465956Y-146233276D01*
G37*
G36*
X121473974Y-143409560D02*
G01*
X120366795Y-143409560D01*
X120145421Y-143407070D01*
X120036758Y-143397106D01*
X120036758Y-143578938D01*
X120033022Y-143705971D01*
X120189945Y-143611319D01*
X120303140Y-143592637D01*
X120471687Y-143581429D01*
X120695586Y-143577692D01*
X120941012Y-143583842D01*
X121138022Y-143602289D01*
X121286616Y-143633036D01*
X121386795Y-143676081D01*
X121462921Y-143745980D01*
X121514451Y-143841099D01*
X121543874Y-143968599D01*
X121553681Y-144135641D01*
X121540604Y-144351410D01*
X121501374Y-144508022D01*
X121431319Y-144616685D01*
X121325769Y-144688608D01*
X121215238Y-144726905D01*
X121087894Y-144749634D01*
X120979404Y-144757937D01*
X120834935Y-144762918D01*
X120654487Y-144764579D01*
X120419241Y-144763472D01*
X120231597Y-144760151D01*
X120091557Y-144754615D01*
X119929029Y-144739982D01*
X119790165Y-144716007D01*
X119663288Y-144666035D01*
X119579066Y-144583370D01*
X119531896Y-144459295D01*
X119516172Y-144285092D01*
X119517418Y-144217839D01*
X120010604Y-144217839D01*
X120041740Y-144342381D01*
X120175623Y-144379121D01*
X120313397Y-144387060D01*
X120516245Y-144389707D01*
X120739799Y-144388773D01*
X120864963Y-144385971D01*
X120982033Y-144366044D01*
X121036832Y-144303773D01*
X121051777Y-144151832D01*
X121029359Y-144017326D01*
X120944670Y-143966264D01*
X120823311Y-143952426D01*
X120643555Y-143944123D01*
X120405403Y-143941355D01*
X120217500Y-143946804D01*
X120107125Y-143963150D01*
X120035513Y-144052198D01*
X120036758Y-144073370D01*
X119582179Y-144073370D01*
X119582179Y-143043407D01*
X121473974Y-143043407D01*
X121473974Y-143409560D01*
G37*
G36*
X123786722Y-143409560D02*
G01*
X122679542Y-143409560D01*
X122458168Y-143407070D01*
X122349505Y-143397106D01*
X122349505Y-143578938D01*
X122345769Y-143705971D01*
X122502692Y-143611319D01*
X122615887Y-143592637D01*
X122784434Y-143581429D01*
X123008333Y-143577692D01*
X123253759Y-143583842D01*
X123450769Y-143602289D01*
X123599364Y-143633036D01*
X123699542Y-143676081D01*
X123775668Y-143745980D01*
X123827198Y-143841099D01*
X123856621Y-143968599D01*
X123866429Y-144135641D01*
X123853352Y-144351410D01*
X123814121Y-144508022D01*
X123744066Y-144616685D01*
X123638516Y-144688608D01*
X123527985Y-144726905D01*
X123400641Y-144749634D01*
X123292151Y-144757937D01*
X123147682Y-144762918D01*
X122967234Y-144764579D01*
X122731988Y-144763472D01*
X122544345Y-144760151D01*
X122404304Y-144754615D01*
X122241777Y-144739982D01*
X122102912Y-144716007D01*
X121976035Y-144666035D01*
X121891813Y-144583370D01*
X121844643Y-144459295D01*
X121828919Y-144285092D01*
X121830165Y-144217839D01*
X122323352Y-144217839D01*
X122354487Y-144342381D01*
X122488370Y-144379121D01*
X122626145Y-144387060D01*
X122828993Y-144389707D01*
X123052546Y-144388773D01*
X123177711Y-144385971D01*
X123294780Y-144366044D01*
X123349579Y-144303773D01*
X123364524Y-144151832D01*
X123342106Y-144017326D01*
X123257418Y-143966264D01*
X123136058Y-143952426D01*
X122956302Y-143944123D01*
X122718150Y-143941355D01*
X122530247Y-143946804D01*
X122419872Y-143963150D01*
X122348260Y-144052198D01*
X122349505Y-144073370D01*
X121894927Y-144073370D01*
X121894927Y-143043407D01*
X123786722Y-143043407D01*
X123786722Y-143409560D01*
G37*
G36*
X115503148Y-146207884D02*
G01*
X115678753Y-146214941D01*
X115804817Y-146226703D01*
X116002216Y-146275430D01*
X116126136Y-146356850D01*
X116191520Y-146488086D01*
X116213315Y-146686264D01*
X116212070Y-146765971D01*
X115710165Y-146765971D01*
X115698333Y-146668828D01*
X115661593Y-146626484D01*
X115543278Y-146600952D01*
X115411264Y-146596749D01*
X115184597Y-146595348D01*
X114919011Y-146600485D01*
X114782326Y-146615897D01*
X114710092Y-146729853D01*
X114782326Y-146839451D01*
X114869921Y-146850106D01*
X115052998Y-146860484D01*
X115331557Y-146870586D01*
X115576005Y-146879373D01*
X115759705Y-146889129D01*
X115882656Y-146899853D01*
X116007353Y-146924295D01*
X116103718Y-146963993D01*
X116183425Y-147030467D01*
X116235733Y-147117802D01*
X116264689Y-147236896D01*
X116274341Y-147398645D01*
X116258150Y-147608187D01*
X116209579Y-147756081D01*
X116074451Y-147884359D01*
X115970302Y-147919853D01*
X115830971Y-147941648D01*
X115686640Y-147949951D01*
X115477825Y-147954933D01*
X115204524Y-147956593D01*
X114971077Y-147954379D01*
X114782188Y-147947737D01*
X114637857Y-147936667D01*
X114477509Y-147908956D01*
X114362619Y-147865678D01*
X114229982Y-147721209D01*
X114202427Y-147608187D01*
X114193242Y-147448462D01*
X114193242Y-147368755D01*
X114695147Y-147368755D01*
X114746209Y-147530659D01*
X114842729Y-147558681D01*
X114965559Y-147562573D01*
X115215733Y-147565531D01*
X115478828Y-147563819D01*
X115610531Y-147561172D01*
X115715147Y-147541868D01*
X115772436Y-147413590D01*
X115731960Y-147312088D01*
X115566941Y-147284066D01*
X115417491Y-147280330D01*
X115160934Y-147269121D01*
X114898773Y-147257289D01*
X114747454Y-147251685D01*
X114582280Y-147239698D01*
X114460385Y-147216190D01*
X114304084Y-147120916D01*
X114232161Y-146974579D01*
X114208187Y-146754762D01*
X114220364Y-146581787D01*
X114256897Y-146446451D01*
X114317784Y-146348755D01*
X114423645Y-146273251D01*
X114574341Y-146231062D01*
X114683237Y-146219892D01*
X114836813Y-146211914D01*
X115035069Y-146207127D01*
X115278004Y-146205531D01*
X115503148Y-146207884D01*
G37*
%TD*%
M02*
