%TF.GenerationSoftware,KiCad,Pcbnew,9.0.7*%
%TF.CreationDate,2026-02-10T00:00:14+01:00*%
%TF.ProjectId,Pi1551-III Module FB1,50693135-3531-42d4-9949-49204d6f6475,1*%
%TF.SameCoordinates,Original*%
%TF.FileFunction,Profile,NP*%
%FSLAX46Y46*%
G04 Gerber Fmt 4.6, Leading zero omitted, Abs format (unit mm)*
G04 Created by KiCad (PCBNEW 9.0.7) date 2026-02-10 00:00:14*
%MOMM*%
%LPD*%
G01*
G04 APERTURE LIST*
%TA.AperFunction,Profile*%
%ADD10C,0.150000*%
%TD*%
G04 APERTURE END LIST*
D10*
X70180000Y-154610000D02*
X70180000Y-55880000D01*
X170180000Y-55880000D02*
X170180000Y-154610000D01*
X70180000Y-154610000D02*
X76200000Y-154610000D01*
X163830000Y-54610000D02*
X168910000Y-54610000D01*
X112268000Y-154610000D02*
X76200000Y-154610000D01*
X112268000Y-154610000D02*
X170180000Y-154610000D01*
X91775000Y-146808000D02*
X91775000Y-144803000D01*
X142575000Y-146808000D02*
X148575000Y-146808000D01*
X148575000Y-144803000D02*
X148575000Y-146808000D01*
X142575000Y-146808000D02*
X142575000Y-144803000D01*
X142575000Y-144803000D02*
X148575000Y-144803000D01*
X80180000Y-132230000D02*
X160180000Y-132230000D01*
X80180000Y-127930000D02*
X160180000Y-127930000D01*
X160180000Y-130730000D02*
G75*
G02*
X160180000Y-132230000I0J-750000D01*
G01*
X80180000Y-130730000D02*
X160180000Y-130730000D01*
X80180000Y-127930000D02*
G75*
G02*
X80180000Y-126430000I0J750000D01*
G01*
X80180000Y-126430000D02*
X160180000Y-126430000D01*
X160180000Y-126430000D02*
G75*
G02*
X160180000Y-127930000I0J-750000D01*
G01*
X80180000Y-102130000D02*
G75*
G02*
X80180000Y-100630000I0J750000D01*
G01*
X80180000Y-100630000D02*
X160180000Y-100630000D01*
X160180000Y-100630000D02*
G75*
G02*
X160180000Y-102130000I0J-750000D01*
G01*
X80180000Y-102130000D02*
X160180000Y-102130000D01*
X160180000Y-122130000D02*
G75*
G02*
X160180000Y-123630000I0J-750000D01*
G01*
X97775000Y-144803000D02*
X97775000Y-146808000D01*
X80180000Y-119330000D02*
G75*
G02*
X80180000Y-117830000I0J750000D01*
G01*
X80180000Y-106430000D02*
G75*
G02*
X80180000Y-104930000I0J750000D01*
G01*
X80180000Y-123630000D02*
G75*
G02*
X80180000Y-122130000I0J750000D01*
G01*
X168910000Y-54610000D02*
G75*
G02*
X170180000Y-55880000I0J-1270000D01*
G01*
X80180000Y-115030000D02*
X160180000Y-115030000D01*
X80180000Y-132230000D02*
G75*
G02*
X80180000Y-130730000I0J750000D01*
G01*
X160180000Y-117830000D02*
G75*
G02*
X160180000Y-119330000I0J-750000D01*
G01*
X80180000Y-123630000D02*
X160180000Y-123630000D01*
X91775000Y-144803000D02*
X97775000Y-144803000D01*
X80180000Y-115030000D02*
G75*
G02*
X80180000Y-113530000I0J750000D01*
G01*
X80180000Y-113530000D02*
X160180000Y-113530000D01*
X80180000Y-117830000D02*
X160180000Y-117830000D01*
X80180000Y-110730000D02*
X160180000Y-110730000D01*
X70180000Y-55880000D02*
G75*
G02*
X71450000Y-54610000I1270000J0D01*
G01*
X80180000Y-122130000D02*
X160180000Y-122130000D01*
X91775000Y-146808000D02*
X97775000Y-146808000D01*
X163830000Y-54610000D02*
X71450000Y-54610000D01*
X80180000Y-106430000D02*
X160180000Y-106430000D01*
X160180000Y-113530000D02*
G75*
G02*
X160180000Y-115030000I0J-750000D01*
G01*
X160180000Y-109230000D02*
G75*
G02*
X160180000Y-110730000I0J-750000D01*
G01*
X80180000Y-104930000D02*
X160180000Y-104930000D01*
X80180000Y-119330000D02*
X160180000Y-119330000D01*
X80180000Y-109230000D02*
X160180000Y-109230000D01*
X80180000Y-110730000D02*
G75*
G02*
X80180000Y-109230000I0J750000D01*
G01*
X160180000Y-104930000D02*
G75*
G02*
X160180000Y-106430000I0J-750000D01*
G01*
M02*
