ISO-10303-21;
HEADER;

/* File generated by Alibre Version V28 */

FILE_DESCRIPTION(('HOOPS Exchange Step'),'2;1');

FILE_NAME('C:\\Users\\runds\\AppData\\Local\\Temp\\Alibre Design\\28.0.2.28126\\export-E9213E3E-BF83-42EE-8545-B911865155CF.stp',
'2025-02-06T11:21:24+01:00',
('runds'),
('Alibre'),
'HOOPS Exchange 2024.5',
'Alibre',
'Unknown authorisation');

FILE_SCHEMA( ('AP242_MANAGED_MODEL_BASED_3D_ENGINEERING_MIM_LF {1 0 10303 442 1 1 4 }') );

ENDSEC;

DATA;
#3=(NAMED_UNIT(*)PLANE_ANGLE_UNIT()SI_UNIT($,.RADIAN.));
#4=PLANE_ANGLE_MEASURE_WITH_UNIT(PLANE_ANGLE_MEASURE(0.0174532925),#3);
#5=(CONVERSION_BASED_UNIT('DEGREE',#4)NAMED_UNIT(#6)PLANE_ANGLE_UNIT());
#6=DIMENSIONAL_EXPONENTS(0.,0.,0.,0.,0.,0.,0.);
#7=(NAMED_UNIT(*)SI_UNIT($,.STERADIAN.)SOLID_ANGLE_UNIT());
#8=(LENGTH_UNIT()NAMED_UNIT(*)SI_UNIT(.MILLI.,.METRE.));
#9=UNCERTAINTY_MEASURE_WITH_UNIT(LENGTH_MEASURE(1.000000E-06),#8,'DISTANCE_ACCURACY_VALUE','Maximum Tolerance applied to model');
#10=(GEOMETRIC_REPRESENTATION_CONTEXT(3)GLOBAL_UNCERTAINTY_ASSIGNED_CONTEXT((#9))GLOBAL_UNIT_ASSIGNED_CONTEXT((#8,#5,#7))REPRESENTATION_CONTEXT('','Conn_Mini_DIN_round_3'));
#12=CARTESIAN_POINT('',(0.,0.,0.));
#13=DIRECTION('',(0.,0.,1.));
#14=DIRECTION('',(1.,0.,0.));
#15=AXIS2_PLACEMENT_3D('',#12,#13,#14);
#27=CARTESIAN_POINT('',(0.,-1.568851024,0.));
#28=DIRECTION('',(0.,1.,0.));
#29=DIRECTION('',(1.,0.,0.));
#30=AXIS2_PLACEMENT_3D('',#27,#28,#29);
#31=PLANE('',#30);
#32=CARTESIAN_POINT('',(-1.,-1.568851024,-2.5));
#33=VERTEX_POINT('',#32);
#34=CARTESIAN_POINT('',(1.,-1.568851024,-2.5));
#35=VERTEX_POINT('',#34);
#36=CARTESIAN_POINT('',(0.,-1.568851024,-2.5));
#37=DIRECTION('',(0.,-1.,-0.));
#38=DIRECTION('',(-0.707106781,0.,-0.707106781));
#39=AXIS2_PLACEMENT_3D('',#36,#37,#38);
#40=CIRCLE('',#39,1.);
#41=EDGE_CURVE('',#33,#35,#40,.T.);
#42=ORIENTED_EDGE('',*,*,#41,.F.);
#43=CARTESIAN_POINT('',(-1.,-1.568851024,0.));
#44=VERTEX_POINT('',#43);
#45=CARTESIAN_POINT('',(-1.,-1.568851024,0.));
#46=DIRECTION('',(0.,0.,-1.));
#47=VECTOR('',#46,25.);
#48=LINE('',#45,#47);
#49=EDGE_CURVE('',#44,#33,#48,.T.);
#50=ORIENTED_EDGE('',*,*,#49,.F.);
#51=CARTESIAN_POINT('',(1.,-1.568851024,0.));
#52=VERTEX_POINT('',#51);
#53=CARTESIAN_POINT('',(10.,-1.568851024,0.));
#54=DIRECTION('',(-1.,0.,0.));
#55=VECTOR('',#54,20.);
#56=LINE('',#53,#55);
#57=EDGE_CURVE('',#52,#44,#56,.T.);
#58=ORIENTED_EDGE('',*,*,#57,.F.);
#59=CARTESIAN_POINT('',(1.,-1.568851024,0.));
#60=DIRECTION('',(0.,0.,-1.));
#61=VECTOR('',#60,25.);
#62=LINE('',#59,#61);
#63=EDGE_CURVE('',#52,#35,#62,.T.);
#64=ORIENTED_EDGE('',*,*,#63,.T.);
#65=EDGE_LOOP('',(#42,#50,#58,#64));
#66=FACE_BOUND('',#65,.T.);
#67=ADVANCED_FACE('',(#66),#31,.T.);
#68=COLOUR_RGB('',0.752941191,0.752941191,0.752941191);
#69=FILL_AREA_STYLE_COLOUR('',#68);
#70=FILL_AREA_STYLE('',(#69));
#71=SURFACE_STYLE_FILL_AREA(#70);
#72=SURFACE_SIDE_STYLE('',(#71));
#73=SURFACE_STYLE_USAGE(.BOTH.,#72);
#74=PRESENTATION_STYLE_ASSIGNMENT((#73));
#75=OVER_RIDING_STYLED_ITEM('',(#74),#67,#26);
#76=CARTESIAN_POINT('',(0.,-1.818851024,-2.5));
#77=DIRECTION('',(0.,-1.,-0.));
#78=DIRECTION('',(-0.707106781,0.,-0.707106781));
#79=AXIS2_PLACEMENT_3D('',#76,#77,#78);
#80=CYLINDRICAL_SURFACE('',#79,1.);
#81=CARTESIAN_POINT('',(1.,-2.068851024,-2.5));
#82=VERTEX_POINT('',#81);
#83=CARTESIAN_POINT('',(-1.,-2.068851024,-2.5));
#84=VERTEX_POINT('',#83);
#85=CARTESIAN_POINT('',(0.,-2.068851024,-2.5));
#86=DIRECTION('',(0.,1.,0.));
#87=DIRECTION('',(0.707106781,0.,-0.707106781));
#88=AXIS2_PLACEMENT_3D('',#85,#86,#87);
#89=CIRCLE('',#88,1.);
#90=EDGE_CURVE('',#82,#84,#89,.T.);
#91=ORIENTED_EDGE('',*,*,#90,.T.);
#92=CARTESIAN_POINT('',(-1.,-4.318851024,-2.5));
#93=DIRECTION('',(0.,1.,0.));
#94=VECTOR('',#93,5.);
#95=LINE('',#92,#94);
#96=EDGE_CURVE('',#84,#33,#95,.T.);
#97=ORIENTED_EDGE('',*,*,#96,.T.);
#98=ORIENTED_EDGE('',*,*,#41,.T.);
#99=CARTESIAN_POINT('',(1.,0.681148976,-2.5));
#100=DIRECTION('',(0.,-1.,0.));
#101=VECTOR('',#100,5.);
#102=LINE('',#99,#101);
#103=EDGE_CURVE('',#35,#82,#102,.T.);
#104=ORIENTED_EDGE('',*,*,#103,.T.);
#105=EDGE_LOOP('',(#91,#97,#98,#104));
#106=FACE_BOUND('',#105,.T.);
#107=ADVANCED_FACE('',(#106),#80,.T.);
#108=COLOUR_RGB('',0.882352948,0.882352948,0.882352948);
#109=FILL_AREA_STYLE_COLOUR('',#108);
#110=FILL_AREA_STYLE('',(#109));
#111=SURFACE_STYLE_FILL_AREA(#110);
#112=SURFACE_SIDE_STYLE('',(#111));
#113=SURFACE_STYLE_USAGE(.BOTH.,#112);
#114=PRESENTATION_STYLE_ASSIGNMENT((#113));
#115=OVER_RIDING_STYLED_ITEM('',(#114),#107,#26);
#116=CARTESIAN_POINT('',(-3.4,2.,0.));
#117=DIRECTION('',(0.,0.,-1.));
#118=DIRECTION('',(-1.,0.,0.));
#119=AXIS2_PLACEMENT_3D('',#116,#117,#118);
#120=CYLINDRICAL_SURFACE('',#119,0.35);
#121=CARTESIAN_POINT('',(-3.05,2.,-3.5));
#122=VERTEX_POINT('',#121);
#123=CARTESIAN_POINT('',(-3.05,2.,0.));
#124=VERTEX_POINT('',#123);
#125=CARTESIAN_POINT('',(-3.05,2.,-3.5));
#126=DIRECTION('',(-0.,-0.,1.));
#127=VECTOR('',#126,3.5);
#128=LINE('',#125,#127);
#129=EDGE_CURVE('',#122,#124,#128,.T.);
#130=ORIENTED_EDGE('',*,*,#129,.T.);
#131=CARTESIAN_POINT('',(-3.75,2.,0.));
#132=VERTEX_POINT('',#131);
#133=CARTESIAN_POINT('',(-3.4,2.,0.));
#134=DIRECTION('',(0.,0.,1.));
#135=DIRECTION('',(-1.,0.,0.));
#136=AXIS2_PLACEMENT_3D('',#133,#134,#135);
#137=CIRCLE('',#136,0.35);
#138=EDGE_CURVE('',#132,#124,#137,.T.);
#139=ORIENTED_EDGE('',*,*,#138,.F.);
#140=CARTESIAN_POINT('',(-3.4,2.,0.));
#141=DIRECTION('',(0.,0.,1.));
#142=DIRECTION('',(-1.,0.,0.));
#143=AXIS2_PLACEMENT_3D('',#140,#141,#142);
#144=CIRCLE('',#143,0.35);
#145=EDGE_CURVE('',#124,#132,#144,.T.);
#146=ORIENTED_EDGE('',*,*,#145,.F.);
#147=ORIENTED_EDGE('',*,*,#129,.F.);
#148=CARTESIAN_POINT('',(-3.75,2.,-3.5));
#149=VERTEX_POINT('',#148);
#150=CARTESIAN_POINT('',(-3.4,2.,-3.5));
#151=DIRECTION('',(0.,0.,1.));
#152=DIRECTION('',(-1.,0.,0.));
#153=AXIS2_PLACEMENT_3D('',#150,#151,#152);
#154=CIRCLE('',#153,0.35);
#155=EDGE_CURVE('',#122,#149,#154,.T.);
#156=ORIENTED_EDGE('',*,*,#155,.T.);
#157=CARTESIAN_POINT('',(-3.4,2.,-3.5));
#158=DIRECTION('',(0.,0.,1.));
#159=DIRECTION('',(-1.,0.,0.));
#160=AXIS2_PLACEMENT_3D('',#157,#158,#159);
#161=CIRCLE('',#160,0.35);
#162=EDGE_CURVE('',#149,#122,#161,.T.);
#163=ORIENTED_EDGE('',*,*,#162,.T.);
#164=EDGE_LOOP('',(#130,#139,#146,#147,#156,#163));
#165=FACE_BOUND('',#164,.T.);
#166=ADVANCED_FACE('',(#165),#120,.T.);
#167=OVER_RIDING_STYLED_ITEM('',(#74),#166,#26);
#168=CARTESIAN_POINT('',(-3.4,2.,-3.5));
#169=DIRECTION('',(0.,0.,-1.));
#170=DIRECTION('',(-1.,0.,0.));
#171=AXIS2_PLACEMENT_3D('',#168,#169,#170);
#172=PLANE('',#171);
#173=ORIENTED_EDGE('',*,*,#155,.F.);
#174=ORIENTED_EDGE('',*,*,#162,.F.);
#175=EDGE_LOOP('',(#173,#174));
#176=FACE_BOUND('',#175,.T.);
#177=ADVANCED_FACE('',(#176),#172,.T.);
#178=OVER_RIDING_STYLED_ITEM('',(#74),#177,#26);
#179=CARTESIAN_POINT('',(-1.,-1.818851024,0.));
#180=DIRECTION('',(-1.,0.,0.));
#181=DIRECTION('',(0.,1.,0.));
#182=AXIS2_PLACEMENT_3D('',#179,#180,#181);
#183=PLANE('',#182);
#184=ORIENTED_EDGE('',*,*,#96,.F.);
#185=CARTESIAN_POINT('',(-1.,-2.068851024,0.));
#186=VERTEX_POINT('',#185);
#187=CARTESIAN_POINT('',(-1.,-2.068851024,0.));
#188=DIRECTION('',(0.,0.,-1.));
#189=VECTOR('',#188,25.);
#190=LINE('',#187,#189);
#191=EDGE_CURVE('',#186,#84,#190,.T.);
#192=ORIENTED_EDGE('',*,*,#191,.F.);
#193=CARTESIAN_POINT('',(-1.,-5.470190065,0.));
#194=DIRECTION('',(0.,-1.,0.));
#195=VECTOR('',#194,5.);
#196=LINE('',#193,#195);
#197=EDGE_CURVE('',#44,#186,#196,.T.);
#198=ORIENTED_EDGE('',*,*,#197,.F.);
#199=ORIENTED_EDGE('',*,*,#49,.T.);
#200=EDGE_LOOP('',(#184,#192,#198,#199));
#201=FACE_BOUND('',#200,.T.);
#202=ADVANCED_FACE('',(#201),#183,.T.);
#203=OVER_RIDING_STYLED_ITEM('',(#74),#202,#26);
#204=CARTESIAN_POINT('',(0.,-2.068851024,0.));
#205=DIRECTION('',(0.,-1.,0.));
#206=DIRECTION('',(-1.,0.,0.));
#207=AXIS2_PLACEMENT_3D('',#204,#205,#206);
#208=PLANE('',#207);
#209=ORIENTED_EDGE('',*,*,#90,.F.);
#210=CARTESIAN_POINT('',(1.,-2.068851024,0.));
#211=VERTEX_POINT('',#210);
#212=CARTESIAN_POINT('',(1.,-2.068851024,0.));
#213=DIRECTION('',(0.,0.,-1.));
#214=VECTOR('',#213,25.);
#215=LINE('',#212,#214);
#216=EDGE_CURVE('',#211,#82,#215,.T.);
#217=ORIENTED_EDGE('',*,*,#216,.F.);
#218=CARTESIAN_POINT('',(-10.,-2.068851024,0.));
#219=DIRECTION('',(1.,0.,-0.));
#220=VECTOR('',#219,20.);
#221=LINE('',#218,#220);
#222=EDGE_CURVE('',#186,#211,#221,.T.);
#223=ORIENTED_EDGE('',*,*,#222,.F.);
#224=ORIENTED_EDGE('',*,*,#191,.T.);
#225=EDGE_LOOP('',(#209,#217,#223,#224));
#226=FACE_BOUND('',#225,.T.);
#227=ADVANCED_FACE('',(#226),#208,.T.);
#228=OVER_RIDING_STYLED_ITEM('',(#74),#227,#26);
#229=CARTESIAN_POINT('',(1.,-1.818851024,0.));
#230=DIRECTION('',(1.,0.,0.));
#231=DIRECTION('',(0.,-1.,0.));
#232=AXIS2_PLACEMENT_3D('',#229,#230,#231);
#233=PLANE('',#232);
#234=ORIENTED_EDGE('',*,*,#103,.F.);
#235=ORIENTED_EDGE('',*,*,#63,.F.);
#236=CARTESIAN_POINT('',(1.,-10.470190065,0.));
#237=DIRECTION('',(0.,1.,0.));
#238=VECTOR('',#237,5.);
#239=LINE('',#236,#238);
#240=EDGE_CURVE('',#211,#52,#239,.T.);
#241=ORIENTED_EDGE('',*,*,#240,.F.);
#242=ORIENTED_EDGE('',*,*,#216,.T.);
#243=EDGE_LOOP('',(#234,#235,#241,#242));
#244=FACE_BOUND('',#243,.T.);
#245=ADVANCED_FACE('',(#244),#233,.T.);
#246=OVER_RIDING_STYLED_ITEM('',(#74),#245,#26);
#247=CARTESIAN_POINT('',(0.9,4.5,0.));
#248=DIRECTION('',(0.,0.,-1.));
#249=DIRECTION('',(-1.,0.,0.));
#250=AXIS2_PLACEMENT_3D('',#247,#248,#249);
#251=CYLINDRICAL_SURFACE('',#250,0.35);
#252=CARTESIAN_POINT('',(1.25,4.5,-3.5));
#253=VERTEX_POINT('',#252);
#254=CARTESIAN_POINT('',(1.25,4.5,0.));
#255=VERTEX_POINT('',#254);
#256=CARTESIAN_POINT('',(1.25,4.5,-3.5));
#257=DIRECTION('',(-0.,-0.,1.));
#258=VECTOR('',#257,3.5);
#259=LINE('',#256,#258);
#260=EDGE_CURVE('',#253,#255,#259,.T.);
#261=ORIENTED_EDGE('',*,*,#260,.T.);
#262=CARTESIAN_POINT('',(0.55,4.5,0.));
#263=VERTEX_POINT('',#262);
#264=CARTESIAN_POINT('',(0.9,4.5,0.));
#265=DIRECTION('',(0.,0.,1.));
#266=DIRECTION('',(-1.,0.,0.));
#267=AXIS2_PLACEMENT_3D('',#264,#265,#266);
#268=CIRCLE('',#267,0.35);
#269=EDGE_CURVE('',#263,#255,#268,.T.);
#270=ORIENTED_EDGE('',*,*,#269,.F.);
#271=CARTESIAN_POINT('',(0.9,4.5,0.));
#272=DIRECTION('',(0.,0.,1.));
#273=DIRECTION('',(-1.,0.,0.));
#274=AXIS2_PLACEMENT_3D('',#271,#272,#273);
#275=CIRCLE('',#274,0.35);
#276=EDGE_CURVE('',#255,#263,#275,.T.);
#277=ORIENTED_EDGE('',*,*,#276,.F.);
#278=ORIENTED_EDGE('',*,*,#260,.F.);
#279=CARTESIAN_POINT('',(0.55,4.5,-3.5));
#280=VERTEX_POINT('',#279);
#281=CARTESIAN_POINT('',(0.9,4.5,-3.5));
#282=DIRECTION('',(0.,0.,1.));
#283=DIRECTION('',(-1.,0.,0.));
#284=AXIS2_PLACEMENT_3D('',#281,#282,#283);
#285=CIRCLE('',#284,0.35);
#286=EDGE_CURVE('',#253,#280,#285,.T.);
#287=ORIENTED_EDGE('',*,*,#286,.T.);
#288=CARTESIAN_POINT('',(0.9,4.5,-3.5));
#289=DIRECTION('',(0.,0.,1.));
#290=DIRECTION('',(-1.,0.,0.));
#291=AXIS2_PLACEMENT_3D('',#288,#289,#290);
#292=CIRCLE('',#291,0.35);
#293=EDGE_CURVE('',#280,#253,#292,.T.);
#294=ORIENTED_EDGE('',*,*,#293,.T.);
#295=EDGE_LOOP('',(#261,#270,#277,#278,#287,#294));
#296=FACE_BOUND('',#295,.T.);
#297=ADVANCED_FACE('',(#296),#251,.T.);
#298=OVER_RIDING_STYLED_ITEM('',(#74),#297,#26);
#299=CARTESIAN_POINT('',(0.9,4.5,-3.5));
#300=DIRECTION('',(0.,0.,-1.));
#301=DIRECTION('',(-1.,0.,0.));
#302=AXIS2_PLACEMENT_3D('',#299,#300,#301);
#303=PLANE('',#302);
#304=ORIENTED_EDGE('',*,*,#286,.F.);
#305=ORIENTED_EDGE('',*,*,#293,.F.);
#306=EDGE_LOOP('',(#304,#305));
#307=FACE_BOUND('',#306,.T.);
#308=ADVANCED_FACE('',(#307),#303,.T.);
#309=OVER_RIDING_STYLED_ITEM('',(#74),#308,#26);
#310=CARTESIAN_POINT('',(3.400006082,2.,0.));
#311=DIRECTION('',(0.,0.,-1.));
#312=DIRECTION('',(-1.,0.,0.));
#313=AXIS2_PLACEMENT_3D('',#310,#311,#312);
#314=CYLINDRICAL_SURFACE('',#313,0.35);
#315=CARTESIAN_POINT('',(3.750006082,2.,-3.5));
#316=VERTEX_POINT('',#315);
#317=CARTESIAN_POINT('',(3.750006082,2.,0.));
#318=VERTEX_POINT('',#317);
#319=CARTESIAN_POINT('',(3.750006082,2.,-3.5));
#320=DIRECTION('',(-0.,-0.,1.));
#321=VECTOR('',#320,3.5);
#322=LINE('',#319,#321);
#323=EDGE_CURVE('',#316,#318,#322,.T.);
#324=ORIENTED_EDGE('',*,*,#323,.T.);
#325=CARTESIAN_POINT('',(3.050006082,2.,0.));
#326=VERTEX_POINT('',#325);
#327=CARTESIAN_POINT('',(3.400006082,2.,0.));
#328=DIRECTION('',(0.,0.,1.));
#329=DIRECTION('',(-1.,0.,0.));
#330=AXIS2_PLACEMENT_3D('',#327,#328,#329);
#331=CIRCLE('',#330,0.35);
#332=EDGE_CURVE('',#326,#318,#331,.T.);
#333=ORIENTED_EDGE('',*,*,#332,.F.);
#334=CARTESIAN_POINT('',(3.400006082,2.,0.));
#335=DIRECTION('',(0.,0.,1.));
#336=DIRECTION('',(-1.,0.,0.));
#337=AXIS2_PLACEMENT_3D('',#334,#335,#336);
#338=CIRCLE('',#337,0.35);
#339=EDGE_CURVE('',#318,#326,#338,.T.);
#340=ORIENTED_EDGE('',*,*,#339,.F.);
#341=ORIENTED_EDGE('',*,*,#323,.F.);
#342=CARTESIAN_POINT('',(3.050006082,2.,-3.5));
#343=VERTEX_POINT('',#342);
#344=CARTESIAN_POINT('',(3.400006082,2.,-3.5));
#345=DIRECTION('',(0.,0.,1.));
#346=DIRECTION('',(-1.,0.,0.));
#347=AXIS2_PLACEMENT_3D('',#344,#345,#346);
#348=CIRCLE('',#347,0.35);
#349=EDGE_CURVE('',#316,#343,#348,.T.);
#350=ORIENTED_EDGE('',*,*,#349,.T.);
#351=CARTESIAN_POINT('',(3.400006082,2.,-3.5));
#352=DIRECTION('',(0.,0.,1.));
#353=DIRECTION('',(-1.,0.,0.));
#354=AXIS2_PLACEMENT_3D('',#351,#352,#353);
#355=CIRCLE('',#354,0.35);
#356=EDGE_CURVE('',#343,#316,#355,.T.);
#357=ORIENTED_EDGE('',*,*,#356,.T.);
#358=EDGE_LOOP('',(#324,#333,#340,#341,#350,#357));
#359=FACE_BOUND('',#358,.T.);
#360=ADVANCED_FACE('',(#359),#314,.T.);
#361=OVER_RIDING_STYLED_ITEM('',(#74),#360,#26);
#362=CARTESIAN_POINT('',(3.400006082,2.,-3.5));
#363=DIRECTION('',(0.,0.,-1.));
#364=DIRECTION('',(-1.,0.,0.));
#365=AXIS2_PLACEMENT_3D('',#362,#363,#364);
#366=PLANE('',#365);
#367=ORIENTED_EDGE('',*,*,#349,.F.);
#368=ORIENTED_EDGE('',*,*,#356,.F.);
#369=EDGE_LOOP('',(#367,#368));
#370=FACE_BOUND('',#369,.T.);
#371=ADVANCED_FACE('',(#370),#366,.T.);
#372=OVER_RIDING_STYLED_ITEM('',(#74),#371,#26);
#373=CARTESIAN_POINT('',(0.,-0.451886792,0.));
#374=DIRECTION('',(0.,0.,1.));
#375=DIRECTION('',(1.,0.,0.));
#376=AXIS2_PLACEMENT_3D('',#373,#374,#375);
#377=PLANE('',#376);
#378=CARTESIAN_POINT('',(-7.,-6.5,0.));
#379=VERTEX_POINT('',#378);
#380=CARTESIAN_POINT('',(7.,-6.5,0.));
#381=VERTEX_POINT('',#380);
#382=CARTESIAN_POINT('',(-7.,-6.5,0.));
#383=DIRECTION('',(1.,0.,-0.));
#384=VECTOR('',#383,140.);
#385=LINE('',#382,#384);
#386=EDGE_CURVE('',#379,#381,#385,.T.);
#387=ORIENTED_EDGE('',*,*,#386,.F.);
#388=CARTESIAN_POINT('',(-7.,-4.7,0.));
#389=VERTEX_POINT('',#388);
#390=CARTESIAN_POINT('',(-7.,-4.7,0.));
#391=DIRECTION('',(0.,-1.,0.));
#392=VECTOR('',#391,18.);
#393=LINE('',#390,#392);
#394=EDGE_CURVE('',#389,#379,#393,.T.);
#395=ORIENTED_EDGE('',*,*,#394,.F.);
#396=CARTESIAN_POINT('',(-6.5,-4.7,0.));
#397=VERTEX_POINT('',#396);
#398=CARTESIAN_POINT('',(-6.5,-4.7,0.));
#399=DIRECTION('',(-1.,0.,0.));
#400=VECTOR('',#399,5.);
#401=LINE('',#398,#400);
#402=EDGE_CURVE('',#397,#389,#401,.T.);
#403=ORIENTED_EDGE('',*,*,#402,.F.);
#404=CARTESIAN_POINT('',(-6.5,6.,0.));
#405=VERTEX_POINT('',#404);
#406=CARTESIAN_POINT('',(-6.5,6.,0.));
#407=DIRECTION('',(0.,-1.,0.));
#408=VECTOR('',#407,107.);
#409=LINE('',#406,#408);
#410=EDGE_CURVE('',#405,#397,#409,.T.);
#411=ORIENTED_EDGE('',*,*,#410,.F.);
#412=CARTESIAN_POINT('',(6.5,6.,0.));
#413=VERTEX_POINT('',#412);
#414=CARTESIAN_POINT('',(6.5,6.,0.));
#415=DIRECTION('',(-1.,0.,0.));
#416=VECTOR('',#415,130.);
#417=LINE('',#414,#416);
#418=EDGE_CURVE('',#413,#405,#417,.T.);
#419=ORIENTED_EDGE('',*,*,#418,.F.);
#420=CARTESIAN_POINT('',(6.5,-4.7,0.));
#421=VERTEX_POINT('',#420);
#422=CARTESIAN_POINT('',(6.5,-4.7,0.));
#423=DIRECTION('',(0.,1.,0.));
#424=VECTOR('',#423,107.);
#425=LINE('',#422,#424);
#426=EDGE_CURVE('',#421,#413,#425,.T.);
#427=ORIENTED_EDGE('',*,*,#426,.F.);
#428=CARTESIAN_POINT('',(7.,-4.7,0.));
#429=VERTEX_POINT('',#428);
#430=CARTESIAN_POINT('',(7.,-4.7,0.));
#431=DIRECTION('',(-1.,0.,0.));
#432=VECTOR('',#431,5.);
#433=LINE('',#430,#432);
#434=EDGE_CURVE('',#429,#421,#433,.T.);
#435=ORIENTED_EDGE('',*,*,#434,.F.);
#436=CARTESIAN_POINT('',(7.,-6.5,0.));
#437=DIRECTION('',(0.,1.,0.));
#438=VECTOR('',#437,18.);
#439=LINE('',#436,#438);
#440=EDGE_CURVE('',#381,#429,#439,.T.);
#441=ORIENTED_EDGE('',*,*,#440,.F.);
#442=EDGE_LOOP('',(#387,#395,#403,#411,#419,#427,#435,#441));
#443=FACE_BOUND('',#442,.T.);
#444=ORIENTED_EDGE('',*,*,#332,.T.);
#445=ORIENTED_EDGE('',*,*,#339,.T.);
#446=EDGE_LOOP('',(#444,#445));
#447=FACE_BOUND('',#446,.T.);
#448=ORIENTED_EDGE('',*,*,#269,.T.);
#449=ORIENTED_EDGE('',*,*,#276,.T.);
#450=EDGE_LOOP('',(#448,#449));
#451=FACE_BOUND('',#450,.T.);
#452=ORIENTED_EDGE('',*,*,#57,.T.);
#453=ORIENTED_EDGE('',*,*,#197,.T.);
#454=ORIENTED_EDGE('',*,*,#222,.T.);
#455=ORIENTED_EDGE('',*,*,#240,.T.);
#456=EDGE_LOOP('',(#452,#453,#454,#455));
#457=FACE_BOUND('',#456,.T.);
#458=ORIENTED_EDGE('',*,*,#138,.T.);
#459=ORIENTED_EDGE('',*,*,#145,.T.);
#460=EDGE_LOOP('',(#458,#459));
#461=FACE_BOUND('',#460,.T.);
#462=ADVANCED_FACE('',(#443,#447,#451,#457,#461),#377,.F.);
#463=DRAUGHTING_PRE_DEFINED_COLOUR('black');
#464=FILL_AREA_STYLE_COLOUR('',#463);
#465=FILL_AREA_STYLE('',(#464));
#466=SURFACE_STYLE_FILL_AREA(#465);
#467=SURFACE_SIDE_STYLE('',(#466));
#468=SURFACE_STYLE_USAGE(.BOTH.,#467);
#469=PRESENTATION_STYLE_ASSIGNMENT((#468));
#470=OVER_RIDING_STYLED_ITEM('',(#469),#462,#26);
#471=CARTESIAN_POINT('',(-0.038262546,-6.4,7.483524227));
#472=DIRECTION('',(0.,-0.707106781,0.707106781));
#473=DIRECTION('',(1.,0.,0.));
#474=AXIS2_PLACEMENT_3D('',#471,#472,#473);
#475=PLANE('',#474);
#476=CARTESIAN_POINT('',(-0.776525092,-6.5,7.383524227));
#477=VERTEX_POINT('',#476);
#478=CARTESIAN_POINT('',(0.623474908,-6.5,7.383524227));
#479=VERTEX_POINT('',#478);
#480=CARTESIAN_POINT('',(-7.420888007,-6.5,7.383524227));
#481=DIRECTION('',(1.,0.,-0.));
#482=VECTOR('',#481,14.);
#483=LINE('',#480,#482);
#484=EDGE_CURVE('',#477,#479,#483,.T.);
#485=ORIENTED_EDGE('',*,*,#484,.T.);
#486=CARTESIAN_POINT('',(0.423474908,-6.3,7.583524227));
#487=VERTEX_POINT('',#486);
#488=CARTESIAN_POINT('',(0.623474908,-6.5,7.383524227));
#489=DIRECTION('',(-0.577350269,0.577350269,0.577350269));
#490=VECTOR('',#489,3.464101615);
#491=LINE('',#488,#490);
#492=EDGE_CURVE('',#479,#487,#491,.T.);
#493=ORIENTED_EDGE('',*,*,#492,.T.);
#494=CARTESIAN_POINT('',(-0.576525092,-6.3,7.583524227));
#495=VERTEX_POINT('',#494);
#496=CARTESIAN_POINT('',(4.579111993,-6.3,7.583524227));
#497=DIRECTION('',(-1.,0.,0.));
#498=VECTOR('',#497,10.);
#499=LINE('',#496,#498);
#500=EDGE_CURVE('',#487,#495,#499,.T.);
#501=ORIENTED_EDGE('',*,*,#500,.T.);
#502=CARTESIAN_POINT('',(-0.576525092,-6.3,7.583524227));
#503=DIRECTION('',(-0.577350269,-0.577350269,-0.577350269));
#504=VECTOR('',#503,3.464101615);
#505=LINE('',#502,#504);
#506=EDGE_CURVE('',#495,#477,#505,.T.);
#507=ORIENTED_EDGE('',*,*,#506,.T.);
#508=EDGE_LOOP('',(#485,#493,#501,#507));
#509=FACE_BOUND('',#508,.T.);
#510=ADVANCED_FACE('',(#509),#475,.T.);
#511=OVER_RIDING_STYLED_ITEM('',(#114),#510,#26);
#512=CARTESIAN_POINT('',(0.523474908,-6.4,4.041762114));
#513=DIRECTION('',(-0.707106781,-0.707106781,0.));
#514=DIRECTION('',(0.,0.,1.));
#515=AXIS2_PLACEMENT_3D('',#512,#513,#514);
#516=PLANE('',#515);
#517=CARTESIAN_POINT('',(0.623474908,-6.5,8.783524227));
#518=VERTEX_POINT('',#517);
#519=CARTESIAN_POINT('',(0.623474908,-6.5,37.459383249));
#520=DIRECTION('',(0.,0.,1.));
#521=VECTOR('',#520,14.);
#522=LINE('',#519,#521);
#523=EDGE_CURVE('',#479,#518,#522,.T.);
#524=ORIENTED_EDGE('',*,*,#523,.T.);
#525=CARTESIAN_POINT('',(0.423474908,-6.3,8.583524227));
#526=VERTEX_POINT('',#525);
#527=CARTESIAN_POINT('',(0.623474908,-6.5,8.783524227));
#528=DIRECTION('',(-0.577350269,0.577350269,-0.577350269));
#529=VECTOR('',#528,3.464101615);
#530=LINE('',#527,#529);
#531=EDGE_CURVE('',#518,#526,#530,.T.);
#532=ORIENTED_EDGE('',*,*,#531,.T.);
#533=CARTESIAN_POINT('',(0.423474908,-6.3,49.459383249));
#534=DIRECTION('',(0.,0.,-1.));
#535=VECTOR('',#534,10.);
#536=LINE('',#533,#535);
#537=EDGE_CURVE('',#526,#487,#536,.T.);
#538=ORIENTED_EDGE('',*,*,#537,.T.);
#539=ORIENTED_EDGE('',*,*,#492,.F.);
#540=EDGE_LOOP('',(#524,#532,#538,#539));
#541=FACE_BOUND('',#540,.T.);
#542=ADVANCED_FACE('',(#541),#516,.T.);
#543=OVER_RIDING_STYLED_ITEM('',(#114),#542,#26);
#544=CARTESIAN_POINT('',(-0.038262546,-6.4,8.683524227));
#545=DIRECTION('',(-0.,-0.707106781,-0.707106781));
#546=DIRECTION('',(-1.,0.,0.));
#547=AXIS2_PLACEMENT_3D('',#544,#545,#546);
#548=PLANE('',#547);
#549=CARTESIAN_POINT('',(-0.776525092,-6.5,8.783524227));
#550=VERTEX_POINT('',#549);
#551=CARTESIAN_POINT('',(6.579111993,-6.5,8.783524227));
#552=DIRECTION('',(-1.,0.,0.));
#553=VECTOR('',#552,14.);
#554=LINE('',#551,#553);
#555=EDGE_CURVE('',#518,#550,#554,.T.);
#556=ORIENTED_EDGE('',*,*,#555,.T.);
#557=CARTESIAN_POINT('',(-0.576525092,-6.3,8.583524227));
#558=VERTEX_POINT('',#557);
#559=CARTESIAN_POINT('',(-0.776525092,-6.5,8.783524227));
#560=DIRECTION('',(0.577350269,0.577350269,-0.577350269));
#561=VECTOR('',#560,3.464101615);
#562=LINE('',#559,#561);
#563=EDGE_CURVE('',#550,#558,#562,.T.);
#564=ORIENTED_EDGE('',*,*,#563,.T.);
#565=CARTESIAN_POINT('',(-5.420888007,-6.3,8.583524227));
#566=DIRECTION('',(1.,0.,-0.));
#567=VECTOR('',#566,10.);
#568=LINE('',#565,#567);
#569=EDGE_CURVE('',#558,#526,#568,.T.);
#570=ORIENTED_EDGE('',*,*,#569,.T.);
#571=ORIENTED_EDGE('',*,*,#531,.F.);
#572=EDGE_LOOP('',(#556,#564,#570,#571));
#573=FACE_BOUND('',#572,.T.);
#574=ADVANCED_FACE('',(#573),#548,.T.);
#575=OVER_RIDING_STYLED_ITEM('',(#114),#574,#26);
#576=CARTESIAN_POINT('',(-0.676525092,-6.4,4.041762114));
#577=DIRECTION('',(0.707106781,-0.707106781,0.));
#578=DIRECTION('',(0.,0.,-1.));
#579=AXIS2_PLACEMENT_3D('',#576,#577,#578);
#580=PLANE('',#579);
#581=CARTESIAN_POINT('',(-0.776525092,-6.5,51.459383249));
#582=DIRECTION('',(0.,0.,-1.));
#583=VECTOR('',#582,14.);
#584=LINE('',#581,#583);
#585=EDGE_CURVE('',#550,#477,#584,.T.);
#586=ORIENTED_EDGE('',*,*,#585,.T.);
#587=ORIENTED_EDGE('',*,*,#506,.F.);
#588=CARTESIAN_POINT('',(-0.576525092,-6.3,39.459383249));
#589=DIRECTION('',(0.,0.,1.));
#590=VECTOR('',#589,10.);
#591=LINE('',#588,#590);
#592=EDGE_CURVE('',#495,#558,#591,.T.);
#593=ORIENTED_EDGE('',*,*,#592,.T.);
#594=ORIENTED_EDGE('',*,*,#563,.F.);
#595=EDGE_LOOP('',(#586,#587,#593,#594));
#596=FACE_BOUND('',#595,.T.);
#597=ADVANCED_FACE('',(#596),#580,.T.);
#598=OVER_RIDING_STYLED_ITEM('',(#114),#597,#26);
#599=CARTESIAN_POINT('',(-0.576525092,-6.5,8.083524227));
#600=DIRECTION('',(-1.,-0.,0.));
#601=DIRECTION('',(0.,0.,1.));
#602=AXIS2_PLACEMENT_3D('',#599,#600,#601);
#603=PLANE('',#602);
#604=ORIENTED_EDGE('',*,*,#592,.F.);
#605=CARTESIAN_POINT('',(-0.576525092,-1.5,7.583524227));
#606=VERTEX_POINT('',#605);
#607=CARTESIAN_POINT('',(-0.576525092,-4.5,7.583524227));
#608=DIRECTION('',(-0.,1.,0.));
#609=VECTOR('',#608,48.);
#610=LINE('',#607,#609);
#611=EDGE_CURVE('',#495,#606,#610,.T.);
#612=ORIENTED_EDGE('',*,*,#611,.T.);
#613=CARTESIAN_POINT('',(-0.576525092,-1.5,8.583524227));
#614=VERTEX_POINT('',#613);
#615=CARTESIAN_POINT('',(-0.576525092,-1.5,8.583524227));
#616=DIRECTION('',(0.,0.,-1.));
#617=VECTOR('',#616,10.);
#618=LINE('',#615,#617);
#619=EDGE_CURVE('',#614,#606,#618,.T.);
#620=ORIENTED_EDGE('',*,*,#619,.F.);
#621=CARTESIAN_POINT('',(-0.576525092,-4.5,8.583524227));
#622=DIRECTION('',(-0.,1.,0.));
#623=VECTOR('',#622,48.);
#624=LINE('',#621,#623);
#625=EDGE_CURVE('',#558,#614,#624,.T.);
#626=ORIENTED_EDGE('',*,*,#625,.F.);
#627=EDGE_LOOP('',(#604,#612,#620,#626));
#628=FACE_BOUND('',#627,.T.);
#629=ADVANCED_FACE('',(#628),#603,.F.);
#630=CARTESIAN_POINT('',(-0.076525092,-6.5,7.583524227));
#631=DIRECTION('',(0.,0.,-1.));
#632=DIRECTION('',(-1.,0.,0.));
#633=AXIS2_PLACEMENT_3D('',#630,#631,#632);
#634=PLANE('',#633);
#635=ORIENTED_EDGE('',*,*,#500,.F.);
#636=CARTESIAN_POINT('',(0.423474908,-1.5,7.583524227));
#637=VERTEX_POINT('',#636);
#638=CARTESIAN_POINT('',(0.423474908,-4.5,7.583524227));
#639=DIRECTION('',(-0.,1.,0.));
#640=VECTOR('',#639,48.);
#641=LINE('',#638,#640);
#642=EDGE_CURVE('',#487,#637,#641,.T.);
#643=ORIENTED_EDGE('',*,*,#642,.T.);
#644=CARTESIAN_POINT('',(-0.576525092,-1.5,7.583524227));
#645=DIRECTION('',(1.,0.,-0.));
#646=VECTOR('',#645,10.);
#647=LINE('',#644,#646);
#648=EDGE_CURVE('',#606,#637,#647,.T.);
#649=ORIENTED_EDGE('',*,*,#648,.F.);
#650=ORIENTED_EDGE('',*,*,#611,.F.);
#651=EDGE_LOOP('',(#635,#643,#649,#650));
#652=FACE_BOUND('',#651,.T.);
#653=ADVANCED_FACE('',(#652),#634,.F.);
#654=CARTESIAN_POINT('',(0.,-6.5,0.));
#655=DIRECTION('',(0.,-1.,0.));
#656=DIRECTION('',(1.,0.,0.));
#657=AXIS2_PLACEMENT_3D('',#654,#655,#656);
#658=PLANE('',#657);
#659=CARTESIAN_POINT('',(1.962955999,-6.5,4.869689989));
#660=VERTEX_POINT('',#659);
#661=CARTESIAN_POINT('',(3.362955999,-6.5,4.869689989));
#662=VERTEX_POINT('',#661);
#663=CARTESIAN_POINT('',(7.646257997,-6.5,4.869689989));
#664=DIRECTION('',(1.,0.,-0.));
#665=VECTOR('',#664,14.);
#666=LINE('',#663,#665);
#667=EDGE_CURVE('',#660,#662,#666,.T.);
#668=ORIENTED_EDGE('',*,*,#667,.F.);
#669=CARTESIAN_POINT('',(1.962955999,-6.5,6.269689989));
#670=VERTEX_POINT('',#669);
#671=CARTESIAN_POINT('',(1.962955999,-6.5,37.63329494));
#672=DIRECTION('',(0.,0.,-1.));
#673=VECTOR('',#672,14.);
#674=LINE('',#671,#673);
#675=EDGE_CURVE('',#670,#660,#674,.T.);
#676=ORIENTED_EDGE('',*,*,#675,.F.);
#677=CARTESIAN_POINT('',(3.362955999,-6.5,6.269689989));
#678=VERTEX_POINT('',#677);
#679=CARTESIAN_POINT('',(21.646257997,-6.5,6.269689989));
#680=DIRECTION('',(-1.,0.,0.));
#681=VECTOR('',#680,14.);
#682=LINE('',#679,#681);
#683=EDGE_CURVE('',#678,#670,#682,.T.);
#684=ORIENTED_EDGE('',*,*,#683,.F.);
#685=CARTESIAN_POINT('',(3.362955999,-6.5,23.63329494));
#686=DIRECTION('',(0.,0.,1.));
#687=VECTOR('',#686,14.);
#688=LINE('',#685,#687);
#689=EDGE_CURVE('',#662,#678,#688,.T.);
#690=ORIENTED_EDGE('',*,*,#689,.F.);
#691=EDGE_LOOP('',(#668,#676,#684,#690));
#692=FACE_BOUND('',#691,.T.);
#693=CARTESIAN_POINT('',(0.75,-6.5,10.429058411));
#694=VERTEX_POINT('',#693);
#695=CARTESIAN_POINT('',(0.75,-6.5,9.406855703));
#696=VERTEX_POINT('',#695);
#697=CARTESIAN_POINT('',(0.75,-6.5,59.659777357));
#698=DIRECTION('',(0.,0.,-1.));
#699=VECTOR('',#698,10.222027086);
#700=LINE('',#697,#699);
#701=EDGE_CURVE('',#694,#696,#700,.T.);
#702=ORIENTED_EDGE('',*,*,#701,.T.);
#703=CARTESIAN_POINT('',(-0.75,-6.5,9.406855703));
#704=VERTEX_POINT('',#703);
#705=CARTESIAN_POINT('',(7.5,-6.5,9.406855703));
#706=DIRECTION('',(-1.,0.,0.));
#707=VECTOR('',#706,15.);
#708=LINE('',#705,#707);
#709=EDGE_CURVE('',#696,#704,#708,.T.);
#710=ORIENTED_EDGE('',*,*,#709,.T.);
#711=CARTESIAN_POINT('',(-0.75,-6.5,10.429058411));
#712=VERTEX_POINT('',#711);
#713=CARTESIAN_POINT('',(-0.75,-6.5,49.437750271));
#714=DIRECTION('',(0.,0.,1.));
#715=VECTOR('',#714,10.222027086);
#716=LINE('',#713,#715);
#717=EDGE_CURVE('',#704,#712,#716,.T.);
#718=ORIENTED_EDGE('',*,*,#717,.T.);
#719=CARTESIAN_POINT('',(-4.,-6.5,6.5));
#720=VERTEX_POINT('',#719);
#721=CARTESIAN_POINT('',(0.,-6.5,6.5));
#722=DIRECTION('',(0.,-1.,0.));
#723=DIRECTION('',(1.,0.,0.));
#724=AXIS2_PLACEMENT_3D('',#721,#722,#723);
#725=CIRCLE('',#724,4.);
#726=EDGE_CURVE('',#712,#720,#725,.T.);
#727=ORIENTED_EDGE('',*,*,#726,.T.);
#728=CARTESIAN_POINT('',(-3.422737317,-6.5,4.430007426));
#729=VERTEX_POINT('',#728);
#730=CARTESIAN_POINT('',(0.,-6.5,6.5));
#731=DIRECTION('',(0.,-1.,0.));
#732=DIRECTION('',(1.,0.,0.));
#733=AXIS2_PLACEMENT_3D('',#730,#731,#732);
#734=CIRCLE('',#733,4.);
#735=EDGE_CURVE('',#720,#729,#734,.T.);
#736=ORIENTED_EDGE('',*,*,#735,.T.);
#737=CARTESIAN_POINT('',(-2.684192287,-6.5,4.430007426));
#738=VERTEX_POINT('',#737);
#739=CARTESIAN_POINT('',(-20.486781566,-6.5,4.430007426));
#740=DIRECTION('',(1.,0.,-0.));
#741=VECTOR('',#740,7.38545031);
#742=LINE('',#739,#741);
#743=EDGE_CURVE('',#729,#738,#742,.T.);
#744=ORIENTED_EDGE('',*,*,#743,.T.);
#745=CARTESIAN_POINT('',(-2.684192287,-6.5,3.534344631));
#746=VERTEX_POINT('',#745);
#747=CARTESIAN_POINT('',(-2.684192287,-6.5,26.380282134));
#748=DIRECTION('',(0.,0.,-1.));
#749=VECTOR('',#748,8.956627954);
#750=LINE('',#747,#749);
#751=EDGE_CURVE('',#738,#746,#750,.T.);
#752=ORIENTED_EDGE('',*,*,#751,.T.);
#753=CARTESIAN_POINT('',(2.684192287,-6.5,3.534344631));
#754=VERTEX_POINT('',#753);
#755=CARTESIAN_POINT('',(0.,-6.5,6.5));
#756=DIRECTION('',(0.,-1.,0.));
#757=DIRECTION('',(1.,0.,0.));
#758=AXIS2_PLACEMENT_3D('',#755,#756,#757);
#759=CIRCLE('',#758,4.);
#760=EDGE_CURVE('',#746,#754,#759,.T.);
#761=ORIENTED_EDGE('',*,*,#760,.T.);
#762=CARTESIAN_POINT('',(2.684192287,-6.5,4.430007426));
#763=VERTEX_POINT('',#762);
#764=CARTESIAN_POINT('',(2.684192287,-6.5,17.42365418));
#765=DIRECTION('',(0.,0.,1.));
#766=VECTOR('',#765,8.956627954);
#767=LINE('',#764,#766);
#768=EDGE_CURVE('',#754,#763,#767,.T.);
#769=ORIENTED_EDGE('',*,*,#768,.T.);
#770=CARTESIAN_POINT('',(3.422737317,-6.5,4.430007426));
#771=VERTEX_POINT('',#770);
#772=CARTESIAN_POINT('',(13.101331256,-6.5,4.430007426));
#773=DIRECTION('',(1.,0.,-0.));
#774=VECTOR('',#773,7.38545031);
#775=LINE('',#772,#774);
#776=EDGE_CURVE('',#763,#771,#775,.T.);
#777=ORIENTED_EDGE('',*,*,#776,.T.);
#778=CARTESIAN_POINT('',(0.,-6.5,6.5));
#779=DIRECTION('',(0.,-1.,0.));
#780=DIRECTION('',(1.,0.,0.));
#781=AXIS2_PLACEMENT_3D('',#778,#779,#780);
#782=CIRCLE('',#781,4.);
#783=EDGE_CURVE('',#771,#694,#782,.T.);
#784=ORIENTED_EDGE('',*,*,#783,.T.);
#785=EDGE_LOOP('',(#702,#710,#718,#727,#736,#744,#752,#761,#769,#777,#784));
#786=FACE_BOUND('',#785,.T.);
#787=CARTESIAN_POINT('',(0.5,-6.5,3.642479062));
#788=VERTEX_POINT('',#787);
#789=CARTESIAN_POINT('',(-0.5,-6.5,3.642479062));
#790=VERTEX_POINT('',#789);
#791=CARTESIAN_POINT('',(5.,-6.5,3.642479062));
#792=DIRECTION('',(-1.,0.,0.));
#793=VECTOR('',#792,10.);
#794=LINE('',#791,#793);
#795=EDGE_CURVE('',#788,#790,#794,.T.);
#796=ORIENTED_EDGE('',*,*,#795,.T.);
#797=CARTESIAN_POINT('',(-0.5,-6.5,5.642479062));
#798=VERTEX_POINT('',#797);
#799=CARTESIAN_POINT('',(-0.5,-6.5,15.533634841));
#800=DIRECTION('',(-0.,0.,1.));
#801=VECTOR('',#800,20.);
#802=LINE('',#799,#801);
#803=EDGE_CURVE('',#790,#798,#802,.T.);
#804=ORIENTED_EDGE('',*,*,#803,.T.);
#805=CARTESIAN_POINT('',(0.5,-6.5,5.642479062));
#806=VERTEX_POINT('',#805);
#807=CARTESIAN_POINT('',(-5.,-6.5,5.642479062));
#808=DIRECTION('',(1.,0.,-0.));
#809=VECTOR('',#808,10.);
#810=LINE('',#807,#809);
#811=EDGE_CURVE('',#798,#806,#810,.T.);
#812=ORIENTED_EDGE('',*,*,#811,.T.);
#813=CARTESIAN_POINT('',(0.5,-6.5,35.533634841));
#814=DIRECTION('',(0.,0.,-1.));
#815=VECTOR('',#814,20.);
#816=LINE('',#813,#815);
#817=EDGE_CURVE('',#806,#788,#816,.T.);
#818=ORIENTED_EDGE('',*,*,#817,.T.);
#819=EDGE_LOOP('',(#796,#804,#812,#818));
#820=FACE_BOUND('',#819,.T.);
#821=CARTESIAN_POINT('',(-3.362955999,-6.5,4.869689989));
#822=VERTEX_POINT('',#821);
#823=CARTESIAN_POINT('',(-1.962955999,-6.5,4.869689989));
#824=VERTEX_POINT('',#823);
#825=CARTESIAN_POINT('',(-21.646257997,-6.5,4.869689989));
#826=DIRECTION('',(1.,0.,-0.));
#827=VECTOR('',#826,14.);
#828=LINE('',#825,#827);
#829=EDGE_CURVE('',#822,#824,#828,.T.);
#830=ORIENTED_EDGE('',*,*,#829,.F.);
#831=CARTESIAN_POINT('',(-3.362955999,-6.5,6.269689989));
#832=VERTEX_POINT('',#831);
#833=CARTESIAN_POINT('',(-3.362955999,-6.5,37.63329494));
#834=DIRECTION('',(0.,0.,-1.));
#835=VECTOR('',#834,14.);
#836=LINE('',#833,#835);
#837=EDGE_CURVE('',#832,#822,#836,.T.);
#838=ORIENTED_EDGE('',*,*,#837,.F.);
#839=CARTESIAN_POINT('',(-1.962955999,-6.5,6.269689989));
#840=VERTEX_POINT('',#839);
#841=CARTESIAN_POINT('',(-7.646257997,-6.5,6.269689989));
#842=DIRECTION('',(-1.,0.,0.));
#843=VECTOR('',#842,14.);
#844=LINE('',#841,#843);
#845=EDGE_CURVE('',#840,#832,#844,.T.);
#846=ORIENTED_EDGE('',*,*,#845,.F.);
#847=CARTESIAN_POINT('',(-1.962955999,-6.5,23.63329494));
#848=DIRECTION('',(0.,0.,1.));
#849=VECTOR('',#848,14.);
#850=LINE('',#847,#849);
#851=EDGE_CURVE('',#824,#840,#850,.T.);
#852=ORIENTED_EDGE('',*,*,#851,.F.);
#853=EDGE_LOOP('',(#830,#838,#846,#852));
#854=FACE_BOUND('',#853,.T.);
#855=ORIENTED_EDGE('',*,*,#484,.F.);
#856=ORIENTED_EDGE('',*,*,#585,.F.);
#857=ORIENTED_EDGE('',*,*,#555,.F.);
#858=ORIENTED_EDGE('',*,*,#523,.F.);
#859=EDGE_LOOP('',(#855,#856,#857,#858));
#860=FACE_BOUND('',#859,.T.);
#861=ADVANCED_FACE('',(#692,#786,#820,#854,#860),#658,.T.);
#862=OVER_RIDING_STYLED_ITEM('',(#469),#861,#26);
#863=CARTESIAN_POINT('',(1.331478,-6.4,4.969689989));
#864=DIRECTION('',(0.,-0.707106781,0.707106781));
#865=DIRECTION('',(1.,0.,0.));
#866=AXIS2_PLACEMENT_3D('',#863,#864,#865);
#867=PLANE('',#866);
#868=ORIENTED_EDGE('',*,*,#667,.T.);
#869=CARTESIAN_POINT('',(3.162955999,-6.3,5.069689989));
#870=VERTEX_POINT('',#869);
#871=CARTESIAN_POINT('',(3.362955999,-6.5,4.869689989));
#872=DIRECTION('',(-0.577350269,0.577350269,0.577350269));
#873=VECTOR('',#872,3.464101615);
#874=LINE('',#871,#873);
#875=EDGE_CURVE('',#662,#870,#874,.T.);
#876=ORIENTED_EDGE('',*,*,#875,.T.);
#877=CARTESIAN_POINT('',(2.162955999,-6.3,5.069689989));
#878=VERTEX_POINT('',#877);
#879=CARTESIAN_POINT('',(19.646257997,-6.3,5.069689989));
#880=DIRECTION('',(-1.,0.,0.));
#881=VECTOR('',#880,10.);
#882=LINE('',#879,#881);
#883=EDGE_CURVE('',#870,#878,#882,.T.);
#884=ORIENTED_EDGE('',*,*,#883,.T.);
#885=CARTESIAN_POINT('',(2.162955999,-6.3,5.069689989));
#886=DIRECTION('',(-0.577350269,-0.577350269,-0.577350269));
#887=VECTOR('',#886,3.464101615);
#888=LINE('',#885,#887);
#889=EDGE_CURVE('',#878,#660,#888,.T.);
#890=ORIENTED_EDGE('',*,*,#889,.T.);
#891=EDGE_LOOP('',(#868,#876,#884,#890));
#892=FACE_BOUND('',#891,.T.);
#893=ADVANCED_FACE('',(#892),#867,.T.);
#894=OVER_RIDING_STYLED_ITEM('',(#114),#893,#26);
#895=CARTESIAN_POINT('',(3.262955999,-6.4,2.784844995));
#896=DIRECTION('',(-0.707106781,-0.707106781,0.));
#897=DIRECTION('',(0.,0.,1.));
#898=AXIS2_PLACEMENT_3D('',#895,#896,#897);
#899=PLANE('',#898);
#900=ORIENTED_EDGE('',*,*,#689,.T.);
#901=CARTESIAN_POINT('',(3.162955999,-6.3,6.069689989));
#902=VERTEX_POINT('',#901);
#903=CARTESIAN_POINT('',(3.362955999,-6.5,6.269689989));
#904=DIRECTION('',(-0.577350269,0.577350269,-0.577350269));
#905=VECTOR('',#904,3.464101615);
#906=LINE('',#903,#905);
#907=EDGE_CURVE('',#678,#902,#906,.T.);
#908=ORIENTED_EDGE('',*,*,#907,.T.);
#909=CARTESIAN_POINT('',(3.162955999,-6.3,35.63329494));
#910=DIRECTION('',(0.,0.,-1.));
#911=VECTOR('',#910,10.);
#912=LINE('',#909,#911);
#913=EDGE_CURVE('',#902,#870,#912,.T.);
#914=ORIENTED_EDGE('',*,*,#913,.T.);
#915=ORIENTED_EDGE('',*,*,#875,.F.);
#916=EDGE_LOOP('',(#900,#908,#914,#915));
#917=FACE_BOUND('',#916,.T.);
#918=ADVANCED_FACE('',(#917),#899,.T.);
#919=OVER_RIDING_STYLED_ITEM('',(#114),#918,#26);
#920=CARTESIAN_POINT('',(2.062955999,-6.4,2.784844995));
#921=DIRECTION('',(0.707106781,-0.707106781,0.));
#922=DIRECTION('',(0.,0.,-1.));
#923=AXIS2_PLACEMENT_3D('',#920,#921,#922);
#924=PLANE('',#923);
#925=ORIENTED_EDGE('',*,*,#675,.T.);
#926=ORIENTED_EDGE('',*,*,#889,.F.);
#927=CARTESIAN_POINT('',(2.162955999,-6.3,6.069689989));
#928=VERTEX_POINT('',#927);
#929=CARTESIAN_POINT('',(2.162955999,-6.3,25.63329494));
#930=DIRECTION('',(0.,0.,1.));
#931=VECTOR('',#930,10.);
#932=LINE('',#929,#931);
#933=EDGE_CURVE('',#878,#928,#932,.T.);
#934=ORIENTED_EDGE('',*,*,#933,.T.);
#935=CARTESIAN_POINT('',(1.962955999,-6.5,6.269689989));
#936=DIRECTION('',(0.577350269,0.577350269,-0.577350269));
#937=VECTOR('',#936,3.464101615);
#938=LINE('',#935,#937);
#939=EDGE_CURVE('',#670,#928,#938,.T.);
#940=ORIENTED_EDGE('',*,*,#939,.F.);
#941=EDGE_LOOP('',(#925,#926,#934,#940));
#942=FACE_BOUND('',#941,.T.);
#943=ADVANCED_FACE('',(#942),#924,.T.);
#944=OVER_RIDING_STYLED_ITEM('',(#114),#943,#26);
#945=CARTESIAN_POINT('',(1.331478,-6.4,6.169689989));
#946=DIRECTION('',(-0.,-0.707106781,-0.707106781));
#947=DIRECTION('',(-1.,0.,0.));
#948=AXIS2_PLACEMENT_3D('',#945,#946,#947);
#949=PLANE('',#948);
#950=ORIENTED_EDGE('',*,*,#683,.T.);
#951=ORIENTED_EDGE('',*,*,#939,.T.);
#952=CARTESIAN_POINT('',(9.646257997,-6.3,6.069689989));
#953=DIRECTION('',(1.,0.,-0.));
#954=VECTOR('',#953,10.);
#955=LINE('',#952,#954);
#956=EDGE_CURVE('',#928,#902,#955,.T.);
#957=ORIENTED_EDGE('',*,*,#956,.T.);
#958=ORIENTED_EDGE('',*,*,#907,.F.);
#959=EDGE_LOOP('',(#950,#951,#957,#958));
#960=FACE_BOUND('',#959,.T.);
#961=ADVANCED_FACE('',(#960),#949,.T.);
#962=OVER_RIDING_STYLED_ITEM('',(#114),#961,#26);
#963=CARTESIAN_POINT('',(2.162955999,-6.5,5.569689989));
#964=DIRECTION('',(-1.,-0.,0.));
#965=DIRECTION('',(0.,0.,1.));
#966=AXIS2_PLACEMENT_3D('',#963,#964,#965);
#967=PLANE('',#966);
#968=ORIENTED_EDGE('',*,*,#933,.F.);
#969=CARTESIAN_POINT('',(2.162955999,-1.5,5.069689989));
#970=VERTEX_POINT('',#969);
#971=CARTESIAN_POINT('',(2.162955999,-4.5,5.069689989));
#972=DIRECTION('',(-0.,1.,0.));
#973=VECTOR('',#972,48.);
#974=LINE('',#971,#973);
#975=EDGE_CURVE('',#878,#970,#974,.T.);
#976=ORIENTED_EDGE('',*,*,#975,.T.);
#977=CARTESIAN_POINT('',(2.162955999,-1.5,6.069689989));
#978=VERTEX_POINT('',#977);
#979=CARTESIAN_POINT('',(2.162955999,-1.5,6.069689989));
#980=DIRECTION('',(0.,0.,-1.));
#981=VECTOR('',#980,10.);
#982=LINE('',#979,#981);
#983=EDGE_CURVE('',#978,#970,#982,.T.);
#984=ORIENTED_EDGE('',*,*,#983,.F.);
#985=CARTESIAN_POINT('',(2.162955999,-4.5,6.069689989));
#986=DIRECTION('',(-0.,1.,0.));
#987=VECTOR('',#986,48.);
#988=LINE('',#985,#987);
#989=EDGE_CURVE('',#928,#978,#988,.T.);
#990=ORIENTED_EDGE('',*,*,#989,.F.);
#991=EDGE_LOOP('',(#968,#976,#984,#990));
#992=FACE_BOUND('',#991,.T.);
#993=ADVANCED_FACE('',(#992),#967,.F.);
#994=CARTESIAN_POINT('',(2.662955999,-6.5,5.069689989));
#995=DIRECTION('',(0.,0.,-1.));
#996=DIRECTION('',(-1.,0.,0.));
#997=AXIS2_PLACEMENT_3D('',#994,#995,#996);
#998=PLANE('',#997);
#999=ORIENTED_EDGE('',*,*,#883,.F.);
#1000=CARTESIAN_POINT('',(3.162955999,-1.5,5.069689989));
#1001=VERTEX_POINT('',#1000);
#1002=CARTESIAN_POINT('',(3.162955999,-4.5,5.069689989));
#1003=DIRECTION('',(-0.,1.,0.));
#1004=VECTOR('',#1003,48.);
#1005=LINE('',#1002,#1004);
#1006=EDGE_CURVE('',#870,#1001,#1005,.T.);
#1007=ORIENTED_EDGE('',*,*,#1006,.T.);
#1008=CARTESIAN_POINT('',(2.162955999,-1.5,5.069689989));
#1009=DIRECTION('',(1.,0.,-0.));
#1010=VECTOR('',#1009,10.);
#1011=LINE('',#1008,#1010);
#1012=EDGE_CURVE('',#970,#1001,#1011,.T.);
#1013=ORIENTED_EDGE('',*,*,#1012,.F.);
#1014=ORIENTED_EDGE('',*,*,#975,.F.);
#1015=EDGE_LOOP('',(#999,#1007,#1013,#1014));
#1016=FACE_BOUND('',#1015,.T.);
#1017=ADVANCED_FACE('',(#1016),#998,.F.);
#1018=CARTESIAN_POINT('',(-1.331478,-6.4,4.969689989));
#1019=DIRECTION('',(0.,-0.707106781,0.707106781));
#1020=DIRECTION('',(1.,0.,0.));
#1021=AXIS2_PLACEMENT_3D('',#1018,#1019,#1020);
#1022=PLANE('',#1021);
#1023=ORIENTED_EDGE('',*,*,#829,.T.);
#1024=CARTESIAN_POINT('',(-2.162955999,-6.3,5.069689989));
#1025=VERTEX_POINT('',#1024);
#1026=CARTESIAN_POINT('',(-1.962955999,-6.5,4.869689989));
#1027=DIRECTION('',(-0.577350269,0.577350269,0.577350269));
#1028=VECTOR('',#1027,3.464101615);
#1029=LINE('',#1026,#1028);
#1030=EDGE_CURVE('',#824,#1025,#1029,.T.);
#1031=ORIENTED_EDGE('',*,*,#1030,.T.);
#1032=CARTESIAN_POINT('',(-3.162955999,-6.3,5.069689989));
#1033=VERTEX_POINT('',#1032);
#1034=CARTESIAN_POINT('',(-9.646257997,-6.3,5.069689989));
#1035=DIRECTION('',(-1.,0.,0.));
#1036=VECTOR('',#1035,10.);
#1037=LINE('',#1034,#1036);
#1038=EDGE_CURVE('',#1025,#1033,#1037,.T.);
#1039=ORIENTED_EDGE('',*,*,#1038,.T.);
#1040=CARTESIAN_POINT('',(-3.162955999,-6.3,5.069689989));
#1041=DIRECTION('',(-0.577350269,-0.577350269,-0.577350269));
#1042=VECTOR('',#1041,3.464101615);
#1043=LINE('',#1040,#1042);
#1044=EDGE_CURVE('',#1033,#822,#1043,.T.);
#1045=ORIENTED_EDGE('',*,*,#1044,.T.);
#1046=EDGE_LOOP('',(#1023,#1031,#1039,#1045));
#1047=FACE_BOUND('',#1046,.T.);
#1048=ADVANCED_FACE('',(#1047),#1022,.T.);
#1049=OVER_RIDING_STYLED_ITEM('',(#114),#1048,#26);
#1050=CARTESIAN_POINT('',(-2.062955999,-6.4,2.784844995));
#1051=DIRECTION('',(-0.707106781,-0.707106781,0.));
#1052=DIRECTION('',(0.,0.,1.));
#1053=AXIS2_PLACEMENT_3D('',#1050,#1051,#1052);
#1054=PLANE('',#1053);
#1055=ORIENTED_EDGE('',*,*,#851,.T.);
#1056=CARTESIAN_POINT('',(-2.162955999,-6.3,6.069689989));
#1057=VERTEX_POINT('',#1056);
#1058=CARTESIAN_POINT('',(-1.962955999,-6.5,6.269689989));
#1059=DIRECTION('',(-0.577350269,0.577350269,-0.577350269));
#1060=VECTOR('',#1059,3.464101615);
#1061=LINE('',#1058,#1060);
#1062=EDGE_CURVE('',#840,#1057,#1061,.T.);
#1063=ORIENTED_EDGE('',*,*,#1062,.T.);
#1064=CARTESIAN_POINT('',(-2.162955999,-6.3,35.63329494));
#1065=DIRECTION('',(0.,0.,-1.));
#1066=VECTOR('',#1065,10.);
#1067=LINE('',#1064,#1066);
#1068=EDGE_CURVE('',#1057,#1025,#1067,.T.);
#1069=ORIENTED_EDGE('',*,*,#1068,.T.);
#1070=ORIENTED_EDGE('',*,*,#1030,.F.);
#1071=EDGE_LOOP('',(#1055,#1063,#1069,#1070));
#1072=FACE_BOUND('',#1071,.T.);
#1073=ADVANCED_FACE('',(#1072),#1054,.T.);
#1074=OVER_RIDING_STYLED_ITEM('',(#114),#1073,#26);
#1075=CARTESIAN_POINT('',(-3.262955999,-6.4,2.784844995));
#1076=DIRECTION('',(0.707106781,-0.707106781,0.));
#1077=DIRECTION('',(0.,0.,-1.));
#1078=AXIS2_PLACEMENT_3D('',#1075,#1076,#1077);
#1079=PLANE('',#1078);
#1080=ORIENTED_EDGE('',*,*,#837,.T.);
#1081=ORIENTED_EDGE('',*,*,#1044,.F.);
#1082=CARTESIAN_POINT('',(-3.162955999,-6.3,6.069689989));
#1083=VERTEX_POINT('',#1082);
#1084=CARTESIAN_POINT('',(-3.162955999,-6.3,25.63329494));
#1085=DIRECTION('',(0.,0.,1.));
#1086=VECTOR('',#1085,10.);
#1087=LINE('',#1084,#1086);
#1088=EDGE_CURVE('',#1033,#1083,#1087,.T.);
#1089=ORIENTED_EDGE('',*,*,#1088,.T.);
#1090=CARTESIAN_POINT('',(-3.362955999,-6.5,6.269689989));
#1091=DIRECTION('',(0.577350269,0.577350269,-0.577350269));
#1092=VECTOR('',#1091,3.464101615);
#1093=LINE('',#1090,#1092);
#1094=EDGE_CURVE('',#832,#1083,#1093,.T.);
#1095=ORIENTED_EDGE('',*,*,#1094,.F.);
#1096=EDGE_LOOP('',(#1080,#1081,#1089,#1095));
#1097=FACE_BOUND('',#1096,.T.);
#1098=ADVANCED_FACE('',(#1097),#1079,.T.);
#1099=OVER_RIDING_STYLED_ITEM('',(#114),#1098,#26);
#1100=CARTESIAN_POINT('',(-1.331478,-6.4,6.169689989));
#1101=DIRECTION('',(0.,-0.707106781,-0.707106781));
#1102=DIRECTION('',(-1.,0.,0.));
#1103=AXIS2_PLACEMENT_3D('',#1100,#1101,#1102);
#1104=PLANE('',#1103);
#1105=ORIENTED_EDGE('',*,*,#845,.T.);
#1106=ORIENTED_EDGE('',*,*,#1094,.T.);
#1107=CARTESIAN_POINT('',(-19.646257997,-6.3,6.069689989));
#1108=DIRECTION('',(1.,0.,-0.));
#1109=VECTOR('',#1108,10.);
#1110=LINE('',#1107,#1109);
#1111=EDGE_CURVE('',#1083,#1057,#1110,.T.);
#1112=ORIENTED_EDGE('',*,*,#1111,.T.);
#1113=ORIENTED_EDGE('',*,*,#1062,.F.);
#1114=EDGE_LOOP('',(#1105,#1106,#1112,#1113));
#1115=FACE_BOUND('',#1114,.T.);
#1116=ADVANCED_FACE('',(#1115),#1104,.T.);
#1117=OVER_RIDING_STYLED_ITEM('',(#114),#1116,#26);
#1118=CARTESIAN_POINT('',(-3.162955999,-6.5,5.569689989));
#1119=DIRECTION('',(-1.,-0.,0.));
#1120=DIRECTION('',(0.,0.,1.));
#1121=AXIS2_PLACEMENT_3D('',#1118,#1119,#1120);
#1122=PLANE('',#1121);
#1123=ORIENTED_EDGE('',*,*,#1088,.F.);
#1124=CARTESIAN_POINT('',(-3.162955999,-1.5,5.069689989));
#1125=VERTEX_POINT('',#1124);
#1126=CARTESIAN_POINT('',(-3.162955999,-4.5,5.069689989));
#1127=DIRECTION('',(-0.,1.,0.));
#1128=VECTOR('',#1127,48.);
#1129=LINE('',#1126,#1128);
#1130=EDGE_CURVE('',#1033,#1125,#1129,.T.);
#1131=ORIENTED_EDGE('',*,*,#1130,.T.);
#1132=CARTESIAN_POINT('',(-3.162955999,-1.5,6.069689989));
#1133=VERTEX_POINT('',#1132);
#1134=CARTESIAN_POINT('',(-3.162955999,-1.5,6.069689989));
#1135=DIRECTION('',(0.,0.,-1.));
#1136=VECTOR('',#1135,10.);
#1137=LINE('',#1134,#1136);
#1138=EDGE_CURVE('',#1133,#1125,#1137,.T.);
#1139=ORIENTED_EDGE('',*,*,#1138,.F.);
#1140=CARTESIAN_POINT('',(-3.162955999,-4.5,6.069689989));
#1141=DIRECTION('',(-0.,1.,0.));
#1142=VECTOR('',#1141,48.);
#1143=LINE('',#1140,#1142);
#1144=EDGE_CURVE('',#1083,#1133,#1143,.T.);
#1145=ORIENTED_EDGE('',*,*,#1144,.F.);
#1146=EDGE_LOOP('',(#1123,#1131,#1139,#1145));
#1147=FACE_BOUND('',#1146,.T.);
#1148=ADVANCED_FACE('',(#1147),#1122,.F.);
#1149=CARTESIAN_POINT('',(-2.662955999,-6.5,5.069689989));
#1150=DIRECTION('',(0.,0.,-1.));
#1151=DIRECTION('',(-1.,0.,0.));
#1152=AXIS2_PLACEMENT_3D('',#1149,#1150,#1151);
#1153=PLANE('',#1152);
#1154=ORIENTED_EDGE('',*,*,#1038,.F.);
#1155=CARTESIAN_POINT('',(-2.162955999,-1.5,5.069689989));
#1156=VERTEX_POINT('',#1155);
#1157=CARTESIAN_POINT('',(-2.162955999,-4.5,5.069689989));
#1158=DIRECTION('',(-0.,1.,0.));
#1159=VECTOR('',#1158,48.);
#1160=LINE('',#1157,#1159);
#1161=EDGE_CURVE('',#1025,#1156,#1160,.T.);
#1162=ORIENTED_EDGE('',*,*,#1161,.T.);
#1163=CARTESIAN_POINT('',(-3.162955999,-1.5,5.069689989));
#1164=DIRECTION('',(1.,0.,-0.));
#1165=VECTOR('',#1164,10.);
#1166=LINE('',#1163,#1165);
#1167=EDGE_CURVE('',#1125,#1156,#1166,.T.);
#1168=ORIENTED_EDGE('',*,*,#1167,.F.);
#1169=ORIENTED_EDGE('',*,*,#1130,.F.);
#1170=EDGE_LOOP('',(#1154,#1162,#1168,#1169));
#1171=FACE_BOUND('',#1170,.T.);
#1172=ADVANCED_FACE('',(#1171),#1153,.F.);
#1173=CARTESIAN_POINT('',(0.423474908,-6.5,8.083524227));
#1174=DIRECTION('',(1.,0.,0.));
#1175=DIRECTION('',(0.,0.,-1.));
#1176=AXIS2_PLACEMENT_3D('',#1173,#1174,#1175);
#1177=PLANE('',#1176);
#1178=ORIENTED_EDGE('',*,*,#537,.F.);
#1179=CARTESIAN_POINT('',(0.423474908,-1.5,8.583524227));
#1180=VERTEX_POINT('',#1179);
#1181=CARTESIAN_POINT('',(0.423474908,-4.5,8.583524227));
#1182=DIRECTION('',(-0.,1.,0.));
#1183=VECTOR('',#1182,48.);
#1184=LINE('',#1181,#1183);
#1185=EDGE_CURVE('',#526,#1180,#1184,.T.);
#1186=ORIENTED_EDGE('',*,*,#1185,.T.);
#1187=CARTESIAN_POINT('',(0.423474908,-1.5,7.583524227));
#1188=DIRECTION('',(0.,0.,1.));
#1189=VECTOR('',#1188,10.);
#1190=LINE('',#1187,#1189);
#1191=EDGE_CURVE('',#637,#1180,#1190,.T.);
#1192=ORIENTED_EDGE('',*,*,#1191,.F.);
#1193=ORIENTED_EDGE('',*,*,#642,.F.);
#1194=EDGE_LOOP('',(#1178,#1186,#1192,#1193));
#1195=FACE_BOUND('',#1194,.T.);
#1196=ADVANCED_FACE('',(#1195),#1177,.F.);
#1197=CARTESIAN_POINT('',(-0.076525092,-6.5,8.583524227));
#1198=DIRECTION('',(0.,0.,1.));
#1199=DIRECTION('',(1.,0.,-0.));
#1200=AXIS2_PLACEMENT_3D('',#1197,#1198,#1199);
#1201=PLANE('',#1200);
#1202=ORIENTED_EDGE('',*,*,#569,.F.);
#1203=ORIENTED_EDGE('',*,*,#625,.T.);
#1204=CARTESIAN_POINT('',(0.423474908,-1.5,8.583524227));
#1205=DIRECTION('',(-1.,0.,0.));
#1206=VECTOR('',#1205,10.);
#1207=LINE('',#1204,#1206);
#1208=EDGE_CURVE('',#1180,#614,#1207,.T.);
#1209=ORIENTED_EDGE('',*,*,#1208,.F.);
#1210=ORIENTED_EDGE('',*,*,#1185,.F.);
#1211=EDGE_LOOP('',(#1202,#1203,#1209,#1210));
#1212=FACE_BOUND('',#1211,.T.);
#1213=ADVANCED_FACE('',(#1212),#1201,.F.);
#1214=CARTESIAN_POINT('',(-0.076525092,-1.5,8.083524227));
#1215=DIRECTION('',(-0.,1.,-0.));
#1216=DIRECTION('',(0.,0.,1.));
#1217=AXIS2_PLACEMENT_3D('',#1214,#1215,#1216);
#1218=PLANE('',#1217);
#1219=ORIENTED_EDGE('',*,*,#648,.T.);
#1220=ORIENTED_EDGE('',*,*,#1191,.T.);
#1221=ORIENTED_EDGE('',*,*,#1208,.T.);
#1222=ORIENTED_EDGE('',*,*,#619,.T.);
#1223=EDGE_LOOP('',(#1219,#1220,#1221,#1222));
#1224=FACE_BOUND('',#1223,.T.);
#1225=ADVANCED_FACE('',(#1224),#1218,.F.);
#1226=CARTESIAN_POINT('',(3.162955999,-6.5,5.569689989));
#1227=DIRECTION('',(1.,0.,0.));
#1228=DIRECTION('',(0.,0.,-1.));
#1229=AXIS2_PLACEMENT_3D('',#1226,#1227,#1228);
#1230=PLANE('',#1229);
#1231=ORIENTED_EDGE('',*,*,#913,.F.);
#1232=CARTESIAN_POINT('',(3.162955999,-1.5,6.069689989));
#1233=VERTEX_POINT('',#1232);
#1234=CARTESIAN_POINT('',(3.162955999,-4.5,6.069689989));
#1235=DIRECTION('',(-0.,1.,0.));
#1236=VECTOR('',#1235,48.);
#1237=LINE('',#1234,#1236);
#1238=EDGE_CURVE('',#902,#1233,#1237,.T.);
#1239=ORIENTED_EDGE('',*,*,#1238,.T.);
#1240=CARTESIAN_POINT('',(3.162955999,-1.5,5.069689989));
#1241=DIRECTION('',(0.,0.,1.));
#1242=VECTOR('',#1241,10.);
#1243=LINE('',#1240,#1242);
#1244=EDGE_CURVE('',#1001,#1233,#1243,.T.);
#1245=ORIENTED_EDGE('',*,*,#1244,.F.);
#1246=ORIENTED_EDGE('',*,*,#1006,.F.);
#1247=EDGE_LOOP('',(#1231,#1239,#1245,#1246));
#1248=FACE_BOUND('',#1247,.T.);
#1249=ADVANCED_FACE('',(#1248),#1230,.F.);
#1250=CARTESIAN_POINT('',(2.662955999,-6.5,6.069689989));
#1251=DIRECTION('',(0.,0.,1.));
#1252=DIRECTION('',(1.,0.,-0.));
#1253=AXIS2_PLACEMENT_3D('',#1250,#1251,#1252);
#1254=PLANE('',#1253);
#1255=ORIENTED_EDGE('',*,*,#956,.F.);
#1256=ORIENTED_EDGE('',*,*,#989,.T.);
#1257=CARTESIAN_POINT('',(3.162955999,-1.5,6.069689989));
#1258=DIRECTION('',(-1.,0.,0.));
#1259=VECTOR('',#1258,10.);
#1260=LINE('',#1257,#1259);
#1261=EDGE_CURVE('',#1233,#978,#1260,.T.);
#1262=ORIENTED_EDGE('',*,*,#1261,.F.);
#1263=ORIENTED_EDGE('',*,*,#1238,.F.);
#1264=EDGE_LOOP('',(#1255,#1256,#1262,#1263));
#1265=FACE_BOUND('',#1264,.T.);
#1266=ADVANCED_FACE('',(#1265),#1254,.F.);
#1267=CARTESIAN_POINT('',(2.662955999,-1.5,5.569689989));
#1268=DIRECTION('',(0.,1.,0.));
#1269=DIRECTION('',(0.,-0.,1.));
#1270=AXIS2_PLACEMENT_3D('',#1267,#1268,#1269);
#1271=PLANE('',#1270);
#1272=ORIENTED_EDGE('',*,*,#1012,.T.);
#1273=ORIENTED_EDGE('',*,*,#1244,.T.);
#1274=ORIENTED_EDGE('',*,*,#1261,.T.);
#1275=ORIENTED_EDGE('',*,*,#983,.T.);
#1276=EDGE_LOOP('',(#1272,#1273,#1274,#1275));
#1277=FACE_BOUND('',#1276,.T.);
#1278=ADVANCED_FACE('',(#1277),#1271,.F.);
#1279=CARTESIAN_POINT('',(0.,-6.5,3.642479062));
#1280=DIRECTION('',(0.,0.,-1.));
#1281=DIRECTION('',(-1.,0.,0.));
#1282=AXIS2_PLACEMENT_3D('',#1279,#1280,#1281);
#1283=PLANE('',#1282);
#1284=CARTESIAN_POINT('',(-0.5,-1.5,3.642479062));
#1285=VERTEX_POINT('',#1284);
#1286=CARTESIAN_POINT('',(0.5,-1.5,3.642479062));
#1287=VERTEX_POINT('',#1286);
#1288=CARTESIAN_POINT('',(-0.5,-1.5,3.642479062));
#1289=DIRECTION('',(1.,0.,-0.));
#1290=VECTOR('',#1289,10.);
#1291=LINE('',#1288,#1290);
#1292=EDGE_CURVE('',#1285,#1287,#1291,.T.);
#1293=ORIENTED_EDGE('',*,*,#1292,.F.);
#1294=CARTESIAN_POINT('',(-0.5,-6.5,3.642479062));
#1295=DIRECTION('',(-0.,1.,0.));
#1296=VECTOR('',#1295,50.);
#1297=LINE('',#1294,#1296);
#1298=EDGE_CURVE('',#790,#1285,#1297,.T.);
#1299=ORIENTED_EDGE('',*,*,#1298,.F.);
#1300=ORIENTED_EDGE('',*,*,#795,.F.);
#1301=CARTESIAN_POINT('',(0.5,-6.5,3.642479062));
#1302=DIRECTION('',(-0.,1.,0.));
#1303=VECTOR('',#1302,50.);
#1304=LINE('',#1301,#1303);
#1305=EDGE_CURVE('',#788,#1287,#1304,.T.);
#1306=ORIENTED_EDGE('',*,*,#1305,.T.);
#1307=EDGE_LOOP('',(#1293,#1299,#1300,#1306));
#1308=FACE_BOUND('',#1307,.T.);
#1309=ADVANCED_FACE('',(#1308),#1283,.F.);
#1310=CARTESIAN_POINT('',(0.5,-6.5,4.642479062));
#1311=DIRECTION('',(1.,0.,0.));
#1312=DIRECTION('',(0.,0.,-1.));
#1313=AXIS2_PLACEMENT_3D('',#1310,#1311,#1312);
#1314=PLANE('',#1313);
#1315=CARTESIAN_POINT('',(0.5,-1.5,5.642479062));
#1316=VERTEX_POINT('',#1315);
#1317=CARTESIAN_POINT('',(0.5,-1.5,3.642479062));
#1318=DIRECTION('',(0.,0.,1.));
#1319=VECTOR('',#1318,20.);
#1320=LINE('',#1317,#1319);
#1321=EDGE_CURVE('',#1287,#1316,#1320,.T.);
#1322=ORIENTED_EDGE('',*,*,#1321,.F.);
#1323=ORIENTED_EDGE('',*,*,#1305,.F.);
#1324=ORIENTED_EDGE('',*,*,#817,.F.);
#1325=CARTESIAN_POINT('',(0.5,-6.5,5.642479062));
#1326=DIRECTION('',(-0.,1.,0.));
#1327=VECTOR('',#1326,50.);
#1328=LINE('',#1325,#1327);
#1329=EDGE_CURVE('',#806,#1316,#1328,.T.);
#1330=ORIENTED_EDGE('',*,*,#1329,.T.);
#1331=EDGE_LOOP('',(#1322,#1323,#1324,#1330));
#1332=FACE_BOUND('',#1331,.T.);
#1333=ADVANCED_FACE('',(#1332),#1314,.F.);
#1334=CARTESIAN_POINT('',(-0.,-6.5,5.642479062));
#1335=DIRECTION('',(0.,0.,1.));
#1336=DIRECTION('',(1.,0.,0.));
#1337=AXIS2_PLACEMENT_3D('',#1334,#1335,#1336);
#1338=PLANE('',#1337);
#1339=CARTESIAN_POINT('',(-0.5,-1.5,5.642479062));
#1340=VERTEX_POINT('',#1339);
#1341=CARTESIAN_POINT('',(0.5,-1.5,5.642479062));
#1342=DIRECTION('',(-1.,0.,0.));
#1343=VECTOR('',#1342,10.);
#1344=LINE('',#1341,#1343);
#1345=EDGE_CURVE('',#1316,#1340,#1344,.T.);
#1346=ORIENTED_EDGE('',*,*,#1345,.F.);
#1347=ORIENTED_EDGE('',*,*,#1329,.F.);
#1348=ORIENTED_EDGE('',*,*,#811,.F.);
#1349=CARTESIAN_POINT('',(-0.5,-6.5,5.642479062));
#1350=DIRECTION('',(-0.,1.,0.));
#1351=VECTOR('',#1350,50.);
#1352=LINE('',#1349,#1351);
#1353=EDGE_CURVE('',#798,#1340,#1352,.T.);
#1354=ORIENTED_EDGE('',*,*,#1353,.T.);
#1355=EDGE_LOOP('',(#1346,#1347,#1348,#1354));
#1356=FACE_BOUND('',#1355,.T.);
#1357=ADVANCED_FACE('',(#1356),#1338,.F.);
#1358=CARTESIAN_POINT('',(-0.5,-6.5,4.642479062));
#1359=DIRECTION('',(-1.,-0.,-0.));
#1360=DIRECTION('',(-0.,0.,1.));
#1361=AXIS2_PLACEMENT_3D('',#1358,#1359,#1360);
#1362=PLANE('',#1361);
#1363=CARTESIAN_POINT('',(-0.5,-1.5,5.642479062));
#1364=DIRECTION('',(0.,0.,-1.));
#1365=VECTOR('',#1364,20.);
#1366=LINE('',#1363,#1365);
#1367=EDGE_CURVE('',#1340,#1285,#1366,.T.);
#1368=ORIENTED_EDGE('',*,*,#1367,.F.);
#1369=ORIENTED_EDGE('',*,*,#1353,.F.);
#1370=ORIENTED_EDGE('',*,*,#803,.F.);
#1371=ORIENTED_EDGE('',*,*,#1298,.T.);
#1372=EDGE_LOOP('',(#1368,#1369,#1370,#1371));
#1373=FACE_BOUND('',#1372,.T.);
#1374=ADVANCED_FACE('',(#1373),#1362,.F.);
#1375=CARTESIAN_POINT('',(-0.,-1.5,4.642479062));
#1376=DIRECTION('',(0.,1.,-0.));
#1377=DIRECTION('',(0.,0.,1.));
#1378=AXIS2_PLACEMENT_3D('',#1375,#1376,#1377);
#1379=PLANE('',#1378);
#1380=ORIENTED_EDGE('',*,*,#1292,.T.);
#1381=ORIENTED_EDGE('',*,*,#1321,.T.);
#1382=ORIENTED_EDGE('',*,*,#1345,.T.);
#1383=ORIENTED_EDGE('',*,*,#1367,.T.);
#1384=EDGE_LOOP('',(#1380,#1381,#1382,#1383));
#1385=FACE_BOUND('',#1384,.T.);
#1386=ADVANCED_FACE('',(#1385),#1379,.F.);
#1387=CARTESIAN_POINT('',(-2.162955999,-6.5,5.569689989));
#1388=DIRECTION('',(1.,0.,0.));
#1389=DIRECTION('',(0.,0.,-1.));
#1390=AXIS2_PLACEMENT_3D('',#1387,#1388,#1389);
#1391=PLANE('',#1390);
#1392=ORIENTED_EDGE('',*,*,#1068,.F.);
#1393=CARTESIAN_POINT('',(-2.162955999,-1.5,6.069689989));
#1394=VERTEX_POINT('',#1393);
#1395=CARTESIAN_POINT('',(-2.162955999,-4.5,6.069689989));
#1396=DIRECTION('',(-0.,1.,0.));
#1397=VECTOR('',#1396,48.);
#1398=LINE('',#1395,#1397);
#1399=EDGE_CURVE('',#1057,#1394,#1398,.T.);
#1400=ORIENTED_EDGE('',*,*,#1399,.T.);
#1401=CARTESIAN_POINT('',(-2.162955999,-1.5,5.069689989));
#1402=DIRECTION('',(0.,0.,1.));
#1403=VECTOR('',#1402,10.);
#1404=LINE('',#1401,#1403);
#1405=EDGE_CURVE('',#1156,#1394,#1404,.T.);
#1406=ORIENTED_EDGE('',*,*,#1405,.F.);
#1407=ORIENTED_EDGE('',*,*,#1161,.F.);
#1408=EDGE_LOOP('',(#1392,#1400,#1406,#1407));
#1409=FACE_BOUND('',#1408,.T.);
#1410=ADVANCED_FACE('',(#1409),#1391,.F.);
#1411=CARTESIAN_POINT('',(-2.662955999,-6.5,6.069689989));
#1412=DIRECTION('',(0.,0.,1.));
#1413=DIRECTION('',(1.,0.,0.));
#1414=AXIS2_PLACEMENT_3D('',#1411,#1412,#1413);
#1415=PLANE('',#1414);
#1416=ORIENTED_EDGE('',*,*,#1111,.F.);
#1417=ORIENTED_EDGE('',*,*,#1144,.T.);
#1418=CARTESIAN_POINT('',(-2.162955999,-1.5,6.069689989));
#1419=DIRECTION('',(-1.,0.,0.));
#1420=VECTOR('',#1419,10.);
#1421=LINE('',#1418,#1420);
#1422=EDGE_CURVE('',#1394,#1133,#1421,.T.);
#1423=ORIENTED_EDGE('',*,*,#1422,.F.);
#1424=ORIENTED_EDGE('',*,*,#1399,.F.);
#1425=EDGE_LOOP('',(#1416,#1417,#1423,#1424));
#1426=FACE_BOUND('',#1425,.T.);
#1427=ADVANCED_FACE('',(#1426),#1415,.F.);
#1428=CARTESIAN_POINT('',(-2.662955999,-1.5,5.569689989));
#1429=DIRECTION('',(0.,1.,0.));
#1430=DIRECTION('',(0.,-0.,1.));
#1431=AXIS2_PLACEMENT_3D('',#1428,#1429,#1430);
#1432=PLANE('',#1431);
#1433=ORIENTED_EDGE('',*,*,#1167,.T.);
#1434=ORIENTED_EDGE('',*,*,#1405,.T.);
#1435=ORIENTED_EDGE('',*,*,#1422,.T.);
#1436=ORIENTED_EDGE('',*,*,#1138,.T.);
#1437=EDGE_LOOP('',(#1433,#1434,#1435,#1436));
#1438=FACE_BOUND('',#1437,.T.);
#1439=ADVANCED_FACE('',(#1438),#1432,.F.);
#1440=CARTESIAN_POINT('',(0.,-6.5,6.5));
#1441=DIRECTION('',(-0.,1.,0.));
#1442=DIRECTION('',(1.,0.,0.));
#1443=AXIS2_PLACEMENT_3D('',#1440,#1441,#1442);
#1444=CYLINDRICAL_SURFACE('',#1443,4.5);
#1445=CARTESIAN_POINT('',(-4.5,-1.5,6.5));
#1446=VERTEX_POINT('',#1445);
#1447=CARTESIAN_POINT('',(-4.5,-6.5,6.5));
#1448=VERTEX_POINT('',#1447);
#1449=CARTESIAN_POINT('',(-4.5,-1.5,6.5));
#1450=DIRECTION('',(0.,-1.,-0.));
#1451=VECTOR('',#1450,5.);
#1452=LINE('',#1449,#1451);
#1453=EDGE_CURVE('',#1446,#1448,#1452,.T.);
#1454=ORIENTED_EDGE('',*,*,#1453,.F.);
#1455=CARTESIAN_POINT('',(4.5,-1.5,6.5));
#1456=VERTEX_POINT('',#1455);
#1457=CARTESIAN_POINT('',(0.,-1.5,6.5));
#1458=DIRECTION('',(0.,-1.,0.));
#1459=DIRECTION('',(1.,0.,0.));
#1460=AXIS2_PLACEMENT_3D('',#1457,#1458,#1459);
#1461=CIRCLE('',#1460,4.5);
#1462=EDGE_CURVE('',#1456,#1446,#1461,.T.);
#1463=ORIENTED_EDGE('',*,*,#1462,.F.);
#1464=CARTESIAN_POINT('',(0.,-1.5,6.5));
#1465=DIRECTION('',(0.,-1.,0.));
#1466=DIRECTION('',(1.,0.,0.));
#1467=AXIS2_PLACEMENT_3D('',#1464,#1465,#1466);
#1468=CIRCLE('',#1467,4.5);
#1469=EDGE_CURVE('',#1446,#1456,#1468,.T.);
#1470=ORIENTED_EDGE('',*,*,#1469,.F.);
#1471=ORIENTED_EDGE('',*,*,#1453,.T.);
#1472=CARTESIAN_POINT('',(4.5,-6.5,6.5));
#1473=VERTEX_POINT('',#1472);
#1474=CARTESIAN_POINT('',(0.,-6.5,6.5));
#1475=DIRECTION('',(-0.,1.,0.));
#1476=DIRECTION('',(1.,0.,0.));
#1477=AXIS2_PLACEMENT_3D('',#1474,#1475,#1476);
#1478=CIRCLE('',#1477,4.5);
#1479=EDGE_CURVE('',#1473,#1448,#1478,.T.);
#1480=ORIENTED_EDGE('',*,*,#1479,.F.);
#1481=CARTESIAN_POINT('',(0.,-6.5,6.5));
#1482=DIRECTION('',(-0.,1.,0.));
#1483=DIRECTION('',(1.,0.,0.));
#1484=AXIS2_PLACEMENT_3D('',#1481,#1482,#1483);
#1485=CIRCLE('',#1484,4.5);
#1486=EDGE_CURVE('',#1448,#1473,#1485,.T.);
#1487=ORIENTED_EDGE('',*,*,#1486,.F.);
#1488=EDGE_LOOP('',(#1454,#1463,#1470,#1471,#1480,#1487));
#1489=FACE_BOUND('',#1488,.T.);
#1490=ADVANCED_FACE('',(#1489),#1444,.F.);
#1491=CARTESIAN_POINT('',(0.75,-6.5,9.917957057));
#1492=DIRECTION('',(1.,0.,0.));
#1493=DIRECTION('',(0.,0.,-1.));
#1494=AXIS2_PLACEMENT_3D('',#1491,#1492,#1493);
#1495=PLANE('',#1494);
#1496=CARTESIAN_POINT('',(0.75,-1.5,9.406855703));
#1497=VERTEX_POINT('',#1496);
#1498=CARTESIAN_POINT('',(0.75,-1.5,10.429058411));
#1499=VERTEX_POINT('',#1498);
#1500=CARTESIAN_POINT('',(0.75,-1.5,9.406855703));
#1501=DIRECTION('',(0.,0.,1.));
#1502=VECTOR('',#1501,10.222027086);
#1503=LINE('',#1500,#1502);
#1504=EDGE_CURVE('',#1497,#1499,#1503,.T.);
#1505=ORIENTED_EDGE('',*,*,#1504,.F.);
#1506=CARTESIAN_POINT('',(0.75,-6.5,9.406855703));
#1507=DIRECTION('',(-0.,1.,0.));
#1508=VECTOR('',#1507,50.);
#1509=LINE('',#1506,#1508);
#1510=EDGE_CURVE('',#696,#1497,#1509,.T.);
#1511=ORIENTED_EDGE('',*,*,#1510,.F.);
#1512=ORIENTED_EDGE('',*,*,#701,.F.);
#1513=CARTESIAN_POINT('',(0.75,-6.5,10.429058411));
#1514=DIRECTION('',(-0.,1.,0.));
#1515=VECTOR('',#1514,50.);
#1516=LINE('',#1513,#1515);
#1517=EDGE_CURVE('',#694,#1499,#1516,.T.);
#1518=ORIENTED_EDGE('',*,*,#1517,.T.);
#1519=EDGE_LOOP('',(#1505,#1511,#1512,#1518));
#1520=FACE_BOUND('',#1519,.T.);
#1521=ADVANCED_FACE('',(#1520),#1495,.F.);
#1522=CARTESIAN_POINT('',(0.,-6.5,6.5));
#1523=DIRECTION('',(-0.,1.,0.));
#1524=DIRECTION('',(1.,0.,0.));
#1525=AXIS2_PLACEMENT_3D('',#1522,#1523,#1524);
#1526=CYLINDRICAL_SURFACE('',#1525,4.);
#1527=CARTESIAN_POINT('',(3.422737317,-1.5,4.430007426));
#1528=VERTEX_POINT('',#1527);
#1529=CARTESIAN_POINT('',(0.,-1.5,6.5));
#1530=DIRECTION('',(-0.,1.,0.));
#1531=DIRECTION('',(1.,0.,0.));
#1532=AXIS2_PLACEMENT_3D('',#1529,#1530,#1531);
#1533=CIRCLE('',#1532,4.);
#1534=EDGE_CURVE('',#1499,#1528,#1533,.T.);
#1535=ORIENTED_EDGE('',*,*,#1534,.F.);
#1536=ORIENTED_EDGE('',*,*,#1517,.F.);
#1537=ORIENTED_EDGE('',*,*,#783,.F.);
#1538=CARTESIAN_POINT('',(3.422737317,-6.5,4.430007426));
#1539=DIRECTION('',(-0.,1.,0.));
#1540=VECTOR('',#1539,50.);
#1541=LINE('',#1538,#1540);
#1542=EDGE_CURVE('',#771,#1528,#1541,.T.);
#1543=ORIENTED_EDGE('',*,*,#1542,.T.);
#1544=EDGE_LOOP('',(#1535,#1536,#1537,#1543));
#1545=FACE_BOUND('',#1544,.T.);
#1546=ADVANCED_FACE('',(#1545),#1526,.T.);
#1547=CARTESIAN_POINT('',(3.053464802,-6.5,4.430007426));
#1548=DIRECTION('',(0.,0.,1.));
#1549=DIRECTION('',(1.,0.,0.));
#1550=AXIS2_PLACEMENT_3D('',#1547,#1548,#1549);
#1551=PLANE('',#1550);
#1552=CARTESIAN_POINT('',(2.684192287,-1.5,4.430007426));
#1553=VERTEX_POINT('',#1552);
#1554=CARTESIAN_POINT('',(3.422737317,-1.5,4.430007426));
#1555=DIRECTION('',(-1.,0.,0.));
#1556=VECTOR('',#1555,7.38545031);
#1557=LINE('',#1554,#1556);
#1558=EDGE_CURVE('',#1528,#1553,#1557,.T.);
#1559=ORIENTED_EDGE('',*,*,#1558,.F.);
#1560=ORIENTED_EDGE('',*,*,#1542,.F.);
#1561=ORIENTED_EDGE('',*,*,#776,.F.);
#1562=CARTESIAN_POINT('',(2.684192287,-6.5,4.430007426));
#1563=DIRECTION('',(-0.,1.,0.));
#1564=VECTOR('',#1563,50.);
#1565=LINE('',#1562,#1564);
#1566=EDGE_CURVE('',#763,#1553,#1565,.T.);
#1567=ORIENTED_EDGE('',*,*,#1566,.T.);
#1568=EDGE_LOOP('',(#1559,#1560,#1561,#1567));
#1569=FACE_BOUND('',#1568,.T.);
#1570=ADVANCED_FACE('',(#1569),#1551,.F.);
#1571=CARTESIAN_POINT('',(2.684192287,-6.5,3.982176029));
#1572=DIRECTION('',(-1.,-0.,0.));
#1573=DIRECTION('',(0.,0.,1.));
#1574=AXIS2_PLACEMENT_3D('',#1571,#1572,#1573);
#1575=PLANE('',#1574);
#1576=CARTESIAN_POINT('',(2.684192287,-1.5,3.534344631));
#1577=VERTEX_POINT('',#1576);
#1578=CARTESIAN_POINT('',(2.684192287,-1.5,4.430007426));
#1579=DIRECTION('',(0.,0.,-1.));
#1580=VECTOR('',#1579,8.956627954);
#1581=LINE('',#1578,#1580);
#1582=EDGE_CURVE('',#1553,#1577,#1581,.T.);
#1583=ORIENTED_EDGE('',*,*,#1582,.F.);
#1584=ORIENTED_EDGE('',*,*,#1566,.F.);
#1585=ORIENTED_EDGE('',*,*,#768,.F.);
#1586=CARTESIAN_POINT('',(2.684192287,-6.5,3.534344631));
#1587=DIRECTION('',(-0.,1.,0.));
#1588=VECTOR('',#1587,50.);
#1589=LINE('',#1586,#1588);
#1590=EDGE_CURVE('',#754,#1577,#1589,.T.);
#1591=ORIENTED_EDGE('',*,*,#1590,.T.);
#1592=EDGE_LOOP('',(#1583,#1584,#1585,#1591));
#1593=FACE_BOUND('',#1592,.T.);
#1594=ADVANCED_FACE('',(#1593),#1575,.F.);
#1595=CARTESIAN_POINT('',(0.,-6.5,6.5));
#1596=DIRECTION('',(-0.,1.,0.));
#1597=DIRECTION('',(1.,0.,0.));
#1598=AXIS2_PLACEMENT_3D('',#1595,#1596,#1597);
#1599=CYLINDRICAL_SURFACE('',#1598,4.);
#1600=CARTESIAN_POINT('',(-2.684192287,-1.5,3.534344631));
#1601=VERTEX_POINT('',#1600);
#1602=CARTESIAN_POINT('',(0.,-1.5,6.5));
#1603=DIRECTION('',(-0.,1.,0.));
#1604=DIRECTION('',(1.,0.,0.));
#1605=AXIS2_PLACEMENT_3D('',#1602,#1603,#1604);
#1606=CIRCLE('',#1605,4.);
#1607=EDGE_CURVE('',#1577,#1601,#1606,.T.);
#1608=ORIENTED_EDGE('',*,*,#1607,.F.);
#1609=ORIENTED_EDGE('',*,*,#1590,.F.);
#1610=ORIENTED_EDGE('',*,*,#760,.F.);
#1611=CARTESIAN_POINT('',(-2.684192287,-6.5,3.534344631));
#1612=DIRECTION('',(-0.,1.,0.));
#1613=VECTOR('',#1612,50.);
#1614=LINE('',#1611,#1613);
#1615=EDGE_CURVE('',#746,#1601,#1614,.T.);
#1616=ORIENTED_EDGE('',*,*,#1615,.T.);
#1617=EDGE_LOOP('',(#1608,#1609,#1610,#1616));
#1618=FACE_BOUND('',#1617,.T.);
#1619=ADVANCED_FACE('',(#1618),#1599,.T.);
#1620=CARTESIAN_POINT('',(-2.684192287,-6.5,3.982176029));
#1621=DIRECTION('',(1.,0.,0.));
#1622=DIRECTION('',(0.,0.,-1.));
#1623=AXIS2_PLACEMENT_3D('',#1620,#1621,#1622);
#1624=PLANE('',#1623);
#1625=CARTESIAN_POINT('',(-2.684192287,-1.5,4.430007426));
#1626=VERTEX_POINT('',#1625);
#1627=CARTESIAN_POINT('',(-2.684192287,-1.5,3.534344631));
#1628=DIRECTION('',(0.,0.,1.));
#1629=VECTOR('',#1628,8.956627954);
#1630=LINE('',#1627,#1629);
#1631=EDGE_CURVE('',#1601,#1626,#1630,.T.);
#1632=ORIENTED_EDGE('',*,*,#1631,.F.);
#1633=ORIENTED_EDGE('',*,*,#1615,.F.);
#1634=ORIENTED_EDGE('',*,*,#751,.F.);
#1635=CARTESIAN_POINT('',(-2.684192287,-6.5,4.430007426));
#1636=DIRECTION('',(-0.,1.,0.));
#1637=VECTOR('',#1636,50.);
#1638=LINE('',#1635,#1637);
#1639=EDGE_CURVE('',#738,#1626,#1638,.T.);
#1640=ORIENTED_EDGE('',*,*,#1639,.T.);
#1641=EDGE_LOOP('',(#1632,#1633,#1634,#1640));
#1642=FACE_BOUND('',#1641,.T.);
#1643=ADVANCED_FACE('',(#1642),#1624,.F.);
#1644=CARTESIAN_POINT('',(-3.053464802,-6.5,4.430007426));
#1645=DIRECTION('',(0.,0.,1.));
#1646=DIRECTION('',(1.,0.,0.));
#1647=AXIS2_PLACEMENT_3D('',#1644,#1645,#1646);
#1648=PLANE('',#1647);
#1649=CARTESIAN_POINT('',(-3.422737317,-1.5,4.430007426));
#1650=VERTEX_POINT('',#1649);
#1651=CARTESIAN_POINT('',(-2.684192287,-1.5,4.430007426));
#1652=DIRECTION('',(-1.,0.,0.));
#1653=VECTOR('',#1652,7.38545031);
#1654=LINE('',#1651,#1653);
#1655=EDGE_CURVE('',#1626,#1650,#1654,.T.);
#1656=ORIENTED_EDGE('',*,*,#1655,.F.);
#1657=ORIENTED_EDGE('',*,*,#1639,.F.);
#1658=ORIENTED_EDGE('',*,*,#743,.F.);
#1659=CARTESIAN_POINT('',(-3.422737317,-6.5,4.430007426));
#1660=DIRECTION('',(-0.,1.,0.));
#1661=VECTOR('',#1660,50.);
#1662=LINE('',#1659,#1661);
#1663=EDGE_CURVE('',#729,#1650,#1662,.T.);
#1664=ORIENTED_EDGE('',*,*,#1663,.T.);
#1665=EDGE_LOOP('',(#1656,#1657,#1658,#1664));
#1666=FACE_BOUND('',#1665,.T.);
#1667=ADVANCED_FACE('',(#1666),#1648,.F.);
#1668=CARTESIAN_POINT('',(0.,-6.5,6.5));
#1669=DIRECTION('',(-0.,1.,0.));
#1670=DIRECTION('',(1.,0.,0.));
#1671=AXIS2_PLACEMENT_3D('',#1668,#1669,#1670);
#1672=CYLINDRICAL_SURFACE('',#1671,4.);
#1673=CARTESIAN_POINT('',(-4.,-1.5,6.5));
#1674=VERTEX_POINT('',#1673);
#1675=CARTESIAN_POINT('',(-4.,-1.5,6.5));
#1676=DIRECTION('',(0.,-1.,-0.));
#1677=VECTOR('',#1676,5.);
#1678=LINE('',#1675,#1677);
#1679=EDGE_CURVE('',#1674,#720,#1678,.T.);
#1680=ORIENTED_EDGE('',*,*,#1679,.T.);
#1681=ORIENTED_EDGE('',*,*,#726,.F.);
#1682=CARTESIAN_POINT('',(-0.75,-1.5,10.429058411));
#1683=VERTEX_POINT('',#1682);
#1684=CARTESIAN_POINT('',(-0.75,-6.5,10.429058411));
#1685=DIRECTION('',(-0.,1.,0.));
#1686=VECTOR('',#1685,50.);
#1687=LINE('',#1684,#1686);
#1688=EDGE_CURVE('',#712,#1683,#1687,.T.);
#1689=ORIENTED_EDGE('',*,*,#1688,.T.);
#1690=CARTESIAN_POINT('',(0.,-1.5,6.5));
#1691=DIRECTION('',(-0.,1.,0.));
#1692=DIRECTION('',(1.,0.,0.));
#1693=AXIS2_PLACEMENT_3D('',#1690,#1691,#1692);
#1694=CIRCLE('',#1693,4.);
#1695=EDGE_CURVE('',#1674,#1683,#1694,.T.);
#1696=ORIENTED_EDGE('',*,*,#1695,.F.);
#1697=EDGE_LOOP('',(#1680,#1681,#1689,#1696));
#1698=FACE_BOUND('',#1697,.T.);
#1699=ADVANCED_FACE('',(#1698),#1672,.T.);
#1700=CARTESIAN_POINT('',(-0.75,-6.5,9.917957057));
#1701=DIRECTION('',(-1.,-0.,0.));
#1702=DIRECTION('',(0.,0.,1.));
#1703=AXIS2_PLACEMENT_3D('',#1700,#1701,#1702);
#1704=PLANE('',#1703);
#1705=CARTESIAN_POINT('',(-0.75,-1.5,9.406855703));
#1706=VERTEX_POINT('',#1705);
#1707=CARTESIAN_POINT('',(-0.75,-1.5,10.429058411));
#1708=DIRECTION('',(0.,0.,-1.));
#1709=VECTOR('',#1708,10.222027086);
#1710=LINE('',#1707,#1709);
#1711=EDGE_CURVE('',#1683,#1706,#1710,.T.);
#1712=ORIENTED_EDGE('',*,*,#1711,.F.);
#1713=ORIENTED_EDGE('',*,*,#1688,.F.);
#1714=ORIENTED_EDGE('',*,*,#717,.F.);
#1715=CARTESIAN_POINT('',(-0.75,-6.5,9.406855703));
#1716=DIRECTION('',(-0.,1.,0.));
#1717=VECTOR('',#1716,50.);
#1718=LINE('',#1715,#1717);
#1719=EDGE_CURVE('',#704,#1706,#1718,.T.);
#1720=ORIENTED_EDGE('',*,*,#1719,.T.);
#1721=EDGE_LOOP('',(#1712,#1713,#1714,#1720));
#1722=FACE_BOUND('',#1721,.T.);
#1723=ADVANCED_FACE('',(#1722),#1704,.F.);
#1724=CARTESIAN_POINT('',(0.,-6.5,9.406855703));
#1725=DIRECTION('',(0.,0.,-1.));
#1726=DIRECTION('',(-1.,0.,0.));
#1727=AXIS2_PLACEMENT_3D('',#1724,#1725,#1726);
#1728=PLANE('',#1727);
#1729=CARTESIAN_POINT('',(-0.75,-1.5,9.406855703));
#1730=DIRECTION('',(1.,0.,-0.));
#1731=VECTOR('',#1730,15.);
#1732=LINE('',#1729,#1731);
#1733=EDGE_CURVE('',#1706,#1497,#1732,.T.);
#1734=ORIENTED_EDGE('',*,*,#1733,.F.);
#1735=ORIENTED_EDGE('',*,*,#1719,.F.);
#1736=ORIENTED_EDGE('',*,*,#709,.F.);
#1737=ORIENTED_EDGE('',*,*,#1510,.T.);
#1738=EDGE_LOOP('',(#1734,#1735,#1736,#1737));
#1739=FACE_BOUND('',#1738,.T.);
#1740=ADVANCED_FACE('',(#1739),#1728,.F.);
#1741=CARTESIAN_POINT('',(0.,-1.5,6.5));
#1742=DIRECTION('',(0.,-1.,0.));
#1743=DIRECTION('',(0.,0.,-1.));
#1744=AXIS2_PLACEMENT_3D('',#1741,#1742,#1743);
#1745=PLANE('',#1744);
#1746=ORIENTED_EDGE('',*,*,#1504,.T.);
#1747=ORIENTED_EDGE('',*,*,#1534,.T.);
#1748=ORIENTED_EDGE('',*,*,#1558,.T.);
#1749=ORIENTED_EDGE('',*,*,#1582,.T.);
#1750=ORIENTED_EDGE('',*,*,#1607,.T.);
#1751=ORIENTED_EDGE('',*,*,#1631,.T.);
#1752=ORIENTED_EDGE('',*,*,#1655,.T.);
#1753=CARTESIAN_POINT('',(0.,-1.5,6.5));
#1754=DIRECTION('',(-0.,1.,0.));
#1755=DIRECTION('',(1.,0.,0.));
#1756=AXIS2_PLACEMENT_3D('',#1753,#1754,#1755);
#1757=CIRCLE('',#1756,4.);
#1758=EDGE_CURVE('',#1650,#1674,#1757,.T.);
#1759=ORIENTED_EDGE('',*,*,#1758,.T.);
#1760=ORIENTED_EDGE('',*,*,#1695,.T.);
#1761=ORIENTED_EDGE('',*,*,#1711,.T.);
#1762=ORIENTED_EDGE('',*,*,#1733,.T.);
#1763=EDGE_LOOP('',(#1746,#1747,#1748,#1749,#1750,#1751,#1752,#1759,#1760,#1761,#1762));
#1764=FACE_BOUND('',#1763,.T.);
#1765=ORIENTED_EDGE('',*,*,#1462,.T.);
#1766=ORIENTED_EDGE('',*,*,#1469,.T.);
#1767=EDGE_LOOP('',(#1765,#1766));
#1768=FACE_BOUND('',#1767,.T.);
#1769=ADVANCED_FACE('',(#1764,#1768),#1745,.T.);
#1770=CARTESIAN_POINT('',(0.,-6.5,0.));
#1771=DIRECTION('',(0.,-1.,0.));
#1772=DIRECTION('',(1.,0.,0.));
#1773=AXIS2_PLACEMENT_3D('',#1770,#1771,#1772);
#1774=PLANE('',#1773);
#1775=ORIENTED_EDGE('',*,*,#1479,.T.);
#1776=ORIENTED_EDGE('',*,*,#1486,.T.);
#1777=EDGE_LOOP('',(#1775,#1776));
#1778=FACE_BOUND('',#1777,.T.);
#1779=CARTESIAN_POINT('',(7.,-6.5,12.8));
#1780=VERTEX_POINT('',#1779);
#1781=CARTESIAN_POINT('',(-7.,-6.5,12.8));
#1782=VERTEX_POINT('',#1781);
#1783=CARTESIAN_POINT('',(133.,-6.5,12.8));
#1784=DIRECTION('',(-1.,0.,0.));
#1785=VECTOR('',#1784,140.);
#1786=LINE('',#1783,#1785);
#1787=EDGE_CURVE('',#1780,#1782,#1786,.T.);
#1788=ORIENTED_EDGE('',*,*,#1787,.T.);
#1789=CARTESIAN_POINT('',(-7.,-6.5,0.));
#1790=DIRECTION('',(0.,0.,1.));
#1791=VECTOR('',#1790,128.);
#1792=LINE('',#1789,#1791);
#1793=EDGE_CURVE('',#379,#1782,#1792,.T.);
#1794=ORIENTED_EDGE('',*,*,#1793,.F.);
#1795=ORIENTED_EDGE('',*,*,#386,.T.);
#1796=CARTESIAN_POINT('',(7.,-6.5,0.));
#1797=DIRECTION('',(0.,0.,1.));
#1798=VECTOR('',#1797,128.);
#1799=LINE('',#1796,#1798);
#1800=EDGE_CURVE('',#381,#1780,#1799,.T.);
#1801=ORIENTED_EDGE('',*,*,#1800,.T.);
#1802=EDGE_LOOP('',(#1788,#1794,#1795,#1801));
#1803=FACE_BOUND('',#1802,.T.);
#1804=ADVANCED_FACE('',(#1778,#1803),#1774,.T.);
#1805=OVER_RIDING_STYLED_ITEM('',(#469),#1804,#26);
#1806=CARTESIAN_POINT('',(0.,0.65,12.3));
#1807=DIRECTION('',(0.,-0.,1.));
#1808=DIRECTION('',(1.,0.,-0.));
#1809=AXIS2_PLACEMENT_3D('',#1806,#1807,#1808);
#1810=PLANE('',#1809);
#1811=CARTESIAN_POINT('',(-6.5,-4.7,12.3));
#1812=VERTEX_POINT('',#1811);
#1813=CARTESIAN_POINT('',(6.5,-4.7,12.3));
#1814=VERTEX_POINT('',#1813);
#1815=CARTESIAN_POINT('',(-6.5,-4.7,12.3));
#1816=DIRECTION('',(1.,0.,-0.));
#1817=VECTOR('',#1816,130.);
#1818=LINE('',#1815,#1817);
#1819=EDGE_CURVE('',#1812,#1814,#1818,.T.);
#1820=ORIENTED_EDGE('',*,*,#1819,.T.);
#1821=CARTESIAN_POINT('',(6.5,6.,12.3));
#1822=VERTEX_POINT('',#1821);
#1823=CARTESIAN_POINT('',(6.5,54.15,12.3));
#1824=DIRECTION('',(0.,-1.,-0.));
#1825=VECTOR('',#1824,107.);
#1826=LINE('',#1823,#1825);
#1827=EDGE_CURVE('',#1822,#1814,#1826,.T.);
#1828=ORIENTED_EDGE('',*,*,#1827,.F.);
#1829=CARTESIAN_POINT('',(-6.5,6.,12.3));
#1830=VERTEX_POINT('',#1829);
#1831=CARTESIAN_POINT('',(-65.,6.,12.3));
#1832=DIRECTION('',(1.,0.,-0.));
#1833=VECTOR('',#1832,130.);
#1834=LINE('',#1831,#1833);
#1835=EDGE_CURVE('',#1830,#1822,#1834,.T.);
#1836=ORIENTED_EDGE('',*,*,#1835,.F.);
#1837=CARTESIAN_POINT('',(-6.5,-52.85,12.3));
#1838=DIRECTION('',(0.,1.,0.));
#1839=VECTOR('',#1838,107.);
#1840=LINE('',#1837,#1839);
#1841=EDGE_CURVE('',#1812,#1830,#1840,.T.);
#1842=ORIENTED_EDGE('',*,*,#1841,.F.);
#1843=EDGE_LOOP('',(#1820,#1828,#1836,#1842));
#1844=FACE_BOUND('',#1843,.T.);
#1845=ADVANCED_FACE('',(#1844),#1810,.T.);
#1846=OVER_RIDING_STYLED_ITEM('',(#469),#1845,#26);
#1847=CARTESIAN_POINT('',(0.,-0.451886792,12.8));
#1848=DIRECTION('',(0.,0.,1.));
#1849=DIRECTION('',(1.,0.,0.));
#1850=AXIS2_PLACEMENT_3D('',#1847,#1848,#1849);
#1851=PLANE('',#1850);
#1852=CARTESIAN_POINT('',(-7.,-4.7,12.8));
#1853=VERTEX_POINT('',#1852);
#1854=CARTESIAN_POINT('',(7.,-4.7,12.8));
#1855=VERTEX_POINT('',#1854);
#1856=CARTESIAN_POINT('',(-11.5,-4.7,12.8));
#1857=DIRECTION('',(1.,0.,-0.));
#1858=VECTOR('',#1857,140.);
#1859=LINE('',#1856,#1858);
#1860=EDGE_CURVE('',#1853,#1855,#1859,.T.);
#1861=ORIENTED_EDGE('',*,*,#1860,.F.);
#1862=CARTESIAN_POINT('',(-7.,-22.7,12.8));
#1863=DIRECTION('',(0.,1.,0.));
#1864=VECTOR('',#1863,18.);
#1865=LINE('',#1862,#1864);
#1866=EDGE_CURVE('',#1782,#1853,#1865,.T.);
#1867=ORIENTED_EDGE('',*,*,#1866,.F.);
#1868=ORIENTED_EDGE('',*,*,#1787,.F.);
#1869=CARTESIAN_POINT('',(7.,11.5,12.8));
#1870=DIRECTION('',(0.,-1.,0.));
#1871=VECTOR('',#1870,18.);
#1872=LINE('',#1869,#1871);
#1873=EDGE_CURVE('',#1855,#1780,#1872,.T.);
#1874=ORIENTED_EDGE('',*,*,#1873,.F.);
#1875=EDGE_LOOP('',(#1861,#1867,#1868,#1874));
#1876=FACE_BOUND('',#1875,.T.);
#1877=ADVANCED_FACE('',(#1876),#1851,.T.);
#1878=OVER_RIDING_STYLED_ITEM('',(#469),#1877,#26);
#1879=CARTESIAN_POINT('',(-6.5,0.65,0.));
#1880=DIRECTION('',(-1.,0.,0.));
#1881=DIRECTION('',(0.,-1.,0.));
#1882=AXIS2_PLACEMENT_3D('',#1879,#1880,#1881);
#1883=PLANE('',#1882);
#1884=ORIENTED_EDGE('',*,*,#1841,.T.);
#1885=CARTESIAN_POINT('',(-6.5,6.,0.));
#1886=DIRECTION('',(0.,0.,1.));
#1887=VECTOR('',#1886,123.);
#1888=LINE('',#1885,#1887);
#1889=EDGE_CURVE('',#405,#1830,#1888,.T.);
#1890=ORIENTED_EDGE('',*,*,#1889,.F.);
#1891=ORIENTED_EDGE('',*,*,#410,.T.);
#1892=CARTESIAN_POINT('',(-6.5,-4.7,0.));
#1893=DIRECTION('',(0.,0.,1.));
#1894=VECTOR('',#1893,123.);
#1895=LINE('',#1892,#1894);
#1896=EDGE_CURVE('',#397,#1812,#1895,.T.);
#1897=ORIENTED_EDGE('',*,*,#1896,.T.);
#1898=EDGE_LOOP('',(#1884,#1890,#1891,#1897));
#1899=FACE_BOUND('',#1898,.T.);
#1900=ADVANCED_FACE('',(#1899),#1883,.T.);
#1901=OVER_RIDING_STYLED_ITEM('',(#469),#1900,#26);
#1902=CARTESIAN_POINT('',(-7.,-5.6,0.));
#1903=DIRECTION('',(-1.,0.,0.));
#1904=DIRECTION('',(0.,-1.,0.));
#1905=AXIS2_PLACEMENT_3D('',#1902,#1903,#1904);
#1906=PLANE('',#1905);
#1907=ORIENTED_EDGE('',*,*,#1866,.T.);
#1908=CARTESIAN_POINT('',(-7.,-4.7,0.));
#1909=DIRECTION('',(0.,0.,1.));
#1910=VECTOR('',#1909,128.);
#1911=LINE('',#1908,#1910);
#1912=EDGE_CURVE('',#389,#1853,#1911,.T.);
#1913=ORIENTED_EDGE('',*,*,#1912,.F.);
#1914=ORIENTED_EDGE('',*,*,#394,.T.);
#1915=ORIENTED_EDGE('',*,*,#1793,.T.);
#1916=EDGE_LOOP('',(#1907,#1913,#1914,#1915));
#1917=FACE_BOUND('',#1916,.T.);
#1918=ADVANCED_FACE('',(#1917),#1906,.T.);
#1919=OVER_RIDING_STYLED_ITEM('',(#469),#1918,#26);
#1920=CARTESIAN_POINT('',(0.,6.,0.));
#1921=DIRECTION('',(0.,1.,0.));
#1922=DIRECTION('',(-1.,0.,0.));
#1923=AXIS2_PLACEMENT_3D('',#1920,#1921,#1922);
#1924=PLANE('',#1923);
#1925=ORIENTED_EDGE('',*,*,#1835,.T.);
#1926=CARTESIAN_POINT('',(6.5,6.,0.));
#1927=DIRECTION('',(0.,0.,1.));
#1928=VECTOR('',#1927,123.);
#1929=LINE('',#1926,#1928);
#1930=EDGE_CURVE('',#413,#1822,#1929,.T.);
#1931=ORIENTED_EDGE('',*,*,#1930,.F.);
#1932=ORIENTED_EDGE('',*,*,#418,.T.);
#1933=ORIENTED_EDGE('',*,*,#1889,.T.);
#1934=EDGE_LOOP('',(#1925,#1931,#1932,#1933));
#1935=FACE_BOUND('',#1934,.T.);
#1936=ADVANCED_FACE('',(#1935),#1924,.T.);
#1937=OVER_RIDING_STYLED_ITEM('',(#469),#1936,#26);
#1938=CARTESIAN_POINT('',(6.5,0.65,0.));
#1939=DIRECTION('',(1.,0.,0.));
#1940=DIRECTION('',(0.,1.,0.));
#1941=AXIS2_PLACEMENT_3D('',#1938,#1939,#1940);
#1942=PLANE('',#1941);
#1943=ORIENTED_EDGE('',*,*,#1827,.T.);
#1944=CARTESIAN_POINT('',(6.5,-4.7,0.));
#1945=DIRECTION('',(0.,0.,1.));
#1946=VECTOR('',#1945,123.);
#1947=LINE('',#1944,#1946);
#1948=EDGE_CURVE('',#421,#1814,#1947,.T.);
#1949=ORIENTED_EDGE('',*,*,#1948,.F.);
#1950=ORIENTED_EDGE('',*,*,#426,.T.);
#1951=ORIENTED_EDGE('',*,*,#1930,.T.);
#1952=EDGE_LOOP('',(#1943,#1949,#1950,#1951));
#1953=FACE_BOUND('',#1952,.T.);
#1954=ADVANCED_FACE('',(#1953),#1942,.T.);
#1955=OVER_RIDING_STYLED_ITEM('',(#469),#1954,#26);
#1956=CARTESIAN_POINT('',(6.75,-4.7,0.));
#1957=DIRECTION('',(0.,1.,0.));
#1958=DIRECTION('',(-1.,0.,0.));
#1959=AXIS2_PLACEMENT_3D('',#1956,#1957,#1958);
#1960=PLANE('',#1959);
#1961=ORIENTED_EDGE('',*,*,#1860,.T.);
#1962=CARTESIAN_POINT('',(7.,-4.7,0.));
#1963=DIRECTION('',(0.,0.,1.));
#1964=VECTOR('',#1963,128.);
#1965=LINE('',#1962,#1964);
#1966=EDGE_CURVE('',#429,#1855,#1965,.T.);
#1967=ORIENTED_EDGE('',*,*,#1966,.F.);
#1968=ORIENTED_EDGE('',*,*,#434,.T.);
#1969=ORIENTED_EDGE('',*,*,#1948,.T.);
#1970=ORIENTED_EDGE('',*,*,#1819,.F.);
#1971=ORIENTED_EDGE('',*,*,#1896,.F.);
#1972=ORIENTED_EDGE('',*,*,#402,.T.);
#1973=ORIENTED_EDGE('',*,*,#1912,.T.);
#1974=EDGE_LOOP('',(#1961,#1967,#1968,#1969,#1970,#1971,#1972,#1973));
#1975=FACE_BOUND('',#1974,.T.);
#1976=ADVANCED_FACE('',(#1975),#1960,.T.);
#1977=OVER_RIDING_STYLED_ITEM('',(#469),#1976,#26);
#1978=CARTESIAN_POINT('',(7.,-5.6,0.));
#1979=DIRECTION('',(1.,0.,0.));
#1980=DIRECTION('',(0.,1.,0.));
#1981=AXIS2_PLACEMENT_3D('',#1978,#1979,#1980);
#1982=PLANE('',#1981);
#1983=ORIENTED_EDGE('',*,*,#1873,.T.);
#1984=ORIENTED_EDGE('',*,*,#1800,.F.);
#1985=ORIENTED_EDGE('',*,*,#440,.T.);
#1986=ORIENTED_EDGE('',*,*,#1966,.T.);
#1987=EDGE_LOOP('',(#1983,#1984,#1985,#1986));
#1988=FACE_BOUND('',#1987,.T.);
#1989=ADVANCED_FACE('',(#1988),#1982,.T.);
#1990=OVER_RIDING_STYLED_ITEM('',(#469),#1989,#26);
#1991=CARTESIAN_POINT('',(0.,-6.5,6.5));
#1992=DIRECTION('',(-0.,1.,0.));
#1993=DIRECTION('',(1.,0.,0.));
#1994=AXIS2_PLACEMENT_3D('',#1991,#1992,#1993);
#1995=CYLINDRICAL_SURFACE('',#1994,4.);
#1996=ORIENTED_EDGE('',*,*,#1679,.F.);
#1997=ORIENTED_EDGE('',*,*,#1758,.F.);
#1998=ORIENTED_EDGE('',*,*,#1663,.F.);
#1999=ORIENTED_EDGE('',*,*,#735,.F.);
#2000=EDGE_LOOP('',(#1996,#1997,#1998,#1999));
#2001=FACE_BOUND('',#2000,.T.);
#2002=ADVANCED_FACE('',(#2001),#1995,.T.);
#2003=CLOSED_SHELL('',(#67,#107,#166,#177,#202,#227,#245,#297,#308,#360,#371,#462,#510,#542,#574,#597,#629,#653,#861,#893,#918,#943,#961,#993,#1017,#1048,
#1073,#1098,#1116,#1148,#1172,#1196,#1213,#1225,#1249,#1266,#1278,#1309,#1333,#1357,#1374,#1386,#1410,#1427,#1439,#1490,#1521,#1546,#1570,#1594,#1619,
#1643,#1667,#1699,#1723,#1740,#1769,#1804,#1845,#1877,#1900,#1918,#1936,#1954,#1976,#1989,#2002));
#2004=MANIFOLD_SOLID_BREP('alibrePartClosedBody',#2003);
#2005=COLOUR_RGB('',0.501960814,0.501960814,0.501960814);
#2006=FILL_AREA_STYLE_COLOUR('',#2005);
#2007=FILL_AREA_STYLE('',(#2006));
#2008=SURFACE_STYLE_FILL_AREA(#2007);
#2009=SURFACE_SIDE_STYLE('',(#2008));
#2010=SURFACE_STYLE_USAGE(.BOTH.,#2009);
#2011=PRESENTATION_STYLE_ASSIGNMENT((#2010));
#26=STYLED_ITEM('',(#2011),#2004);
#16=SHAPE_REPRESENTATION('Conn_Mini_DIN_round_3',(#15),#10);
#17=ADVANCED_BREP_SHAPE_REPRESENTATION('Conn_Mini_DIN_round_3',(#2004),#10);
#2019=SHAPE_REPRESENTATION_RELATIONSHIP('','',#16,#17);
#2020=CARTESIAN_POINT('',(0.,0.,0.));
#2021=DIRECTION('',(0.,0.,1.));
#2022=DIRECTION('',(1.,0.,0.));
#2023=AXIS2_PLACEMENT_3D('',#2020,#2021,#2022);
#2025=MAPPED_ITEM('',#2024,#2023);
#2024=REPRESENTATION_MAP(#2023,#16);
#2026=APPLICATION_CONTEXT('Managed model based 3d engineering');
#2027=APPLICATION_PROTOCOL_DEFINITION('international standard','ap242_managed_model_based_3d_engineering',2013,#2026);
#2028=PRODUCT_CONTEXT('',#2026,'mechanical');
#2029=PRODUCT_DEFINITION_CONTEXT('part definition',#2026,'design');
#24=PRODUCT('Conn_Mini_DIN_round_3','Conn_Mini_DIN_round_3','',(#2028));
#2030=PRODUCT_RELATED_PRODUCT_CATEGORY('part','',(#24));
#2031=PRODUCT_DEFINITION_FORMATION_WITH_SPECIFIED_SOURCE('','',#24,.NOT_KNOWN.);
#25=PRODUCT_DEFINITION('design','',#2031,#2029);
#23=PRODUCT_DEFINITION_SHAPE('','',#25);
#2032=SHAPE_DEFINITION_REPRESENTATION(#23,#16);
#11=DRAUGHTING_MODEL('',(#2025),#10);
#1=MECHANICAL_DESIGN_GEOMETRIC_PRESENTATION_REPRESENTATION('',(#75,#115,#167,#178,#203,#228,#246,#298,#309,#361,#372,#470,#511,#543,#575,#598,#862,#894,#919,#944,#962,#1049,#1074,#1099,#1117,#1805,
#1846,#1878,#1901,#1919,#1937,#1955,#1977,#1990,#26),#10);
ENDSEC;
END-ISO-10303-21;
