%TF.GenerationSoftware,KiCad,Pcbnew,9.0.7*%
%TF.CreationDate,2026-02-09T23:56:37+01:00*%
%TF.ProjectId,Pi1551-III Module FB2,50693135-3531-42d4-9949-49204d6f6475,1*%
%TF.SameCoordinates,Original*%
%TF.FileFunction,Legend,Bot*%
%TF.FilePolarity,Positive*%
%FSLAX46Y46*%
G04 Gerber Fmt 4.6, Leading zero omitted, Abs format (unit mm)*
G04 Created by KiCad (PCBNEW 9.0.7) date 2026-02-09 23:56:37*
%MOMM*%
%LPD*%
G01*
G04 APERTURE LIST*
%ADD10C,0.150000*%
%ADD11C,0.500000*%
%ADD12C,0.000000*%
G04 APERTURE END LIST*
D10*
X84756428Y-58509819D02*
X85232618Y-58509819D01*
X85232618Y-58509819D02*
X85280237Y-58986009D01*
X85280237Y-58986009D02*
X85232618Y-58938390D01*
X85232618Y-58938390D02*
X85137380Y-58890771D01*
X85137380Y-58890771D02*
X84899285Y-58890771D01*
X84899285Y-58890771D02*
X84804047Y-58938390D01*
X84804047Y-58938390D02*
X84756428Y-58986009D01*
X84756428Y-58986009D02*
X84708809Y-59081247D01*
X84708809Y-59081247D02*
X84708809Y-59319342D01*
X84708809Y-59319342D02*
X84756428Y-59414580D01*
X84756428Y-59414580D02*
X84804047Y-59462200D01*
X84804047Y-59462200D02*
X84899285Y-59509819D01*
X84899285Y-59509819D02*
X85137380Y-59509819D01*
X85137380Y-59509819D02*
X85232618Y-59462200D01*
X85232618Y-59462200D02*
X85280237Y-59414580D01*
X84423094Y-58509819D02*
X84089761Y-59509819D01*
X84089761Y-59509819D02*
X83756428Y-58509819D01*
X82661189Y-59509819D02*
X82661189Y-58509819D01*
X82661189Y-58509819D02*
X82423094Y-58509819D01*
X82423094Y-58509819D02*
X82280237Y-58557438D01*
X82280237Y-58557438D02*
X82184999Y-58652676D01*
X82184999Y-58652676D02*
X82137380Y-58747914D01*
X82137380Y-58747914D02*
X82089761Y-58938390D01*
X82089761Y-58938390D02*
X82089761Y-59081247D01*
X82089761Y-59081247D02*
X82137380Y-59271723D01*
X82137380Y-59271723D02*
X82184999Y-59366961D01*
X82184999Y-59366961D02*
X82280237Y-59462200D01*
X82280237Y-59462200D02*
X82423094Y-59509819D01*
X82423094Y-59509819D02*
X82661189Y-59509819D01*
X81089761Y-59414580D02*
X81137380Y-59462200D01*
X81137380Y-59462200D02*
X81280237Y-59509819D01*
X81280237Y-59509819D02*
X81375475Y-59509819D01*
X81375475Y-59509819D02*
X81518332Y-59462200D01*
X81518332Y-59462200D02*
X81613570Y-59366961D01*
X81613570Y-59366961D02*
X81661189Y-59271723D01*
X81661189Y-59271723D02*
X81708808Y-59081247D01*
X81708808Y-59081247D02*
X81708808Y-58938390D01*
X81708808Y-58938390D02*
X81661189Y-58747914D01*
X81661189Y-58747914D02*
X81613570Y-58652676D01*
X81613570Y-58652676D02*
X81518332Y-58557438D01*
X81518332Y-58557438D02*
X81375475Y-58509819D01*
X81375475Y-58509819D02*
X81280237Y-58509819D01*
X81280237Y-58509819D02*
X81137380Y-58557438D01*
X81137380Y-58557438D02*
X81089761Y-58605057D01*
X80565951Y-56588866D02*
X79804047Y-56588866D01*
X80184999Y-56969819D02*
X80184999Y-56207914D01*
X86565951Y-56588866D02*
X85804047Y-56588866D01*
%TO.C,REF\u002A\u002A*%
X83185000Y-56590000D02*
X81185000Y-56590000D01*
X85185000Y-56590000D02*
X84285000Y-56590000D01*
X82510000Y-55840000D02*
G75*
G02*
X82435000Y-57265000I675000J-750000D01*
G01*
X81110000Y-56590000D02*
G75*
G02*
X79260000Y-56590000I-925000J0D01*
G01*
X79260000Y-56590000D02*
G75*
G02*
X81110000Y-56590000I925000J0D01*
G01*
D11*
X83360000Y-56590000D02*
G75*
G02*
X83010000Y-56590000I-175000J0D01*
G01*
X83010000Y-56590000D02*
G75*
G02*
X83360000Y-56590000I175000J0D01*
G01*
D10*
X87110000Y-56590000D02*
G75*
G02*
X85260000Y-56590000I-925000J0D01*
G01*
X85260000Y-56590000D02*
G75*
G02*
X87110000Y-56590000I925000J0D01*
G01*
D12*
%TO.C,kibuzzard-69864CDD*%
G36*
X117300000Y-84500000D02*
G01*
X114418681Y-84500000D01*
X114418681Y-75500000D01*
X117300000Y-75500000D01*
X117300000Y-84500000D01*
G37*
G36*
X121440659Y-84500000D02*
G01*
X118559341Y-84500000D01*
X118559341Y-75500000D01*
X121440659Y-75500000D01*
X121440659Y-84500000D01*
G37*
G36*
X125581319Y-84500000D02*
G01*
X122700000Y-84500000D01*
X122700000Y-75500000D01*
X125581319Y-75500000D01*
X125581319Y-84500000D01*
G37*
%TO.C,kibuzzard-69864D02*%
G36*
X128764615Y-74073846D02*
G01*
X127420000Y-74073846D01*
X127420000Y-69873846D01*
X128764615Y-69873846D01*
X128764615Y-74073846D01*
G37*
G36*
X109330769Y-71190769D02*
G01*
X108623077Y-72015385D01*
X107383077Y-70969231D01*
X107050769Y-70969231D01*
X107050769Y-74073846D01*
X105770769Y-74073846D01*
X105770769Y-69873846D01*
X107795385Y-69873846D01*
X109330769Y-71190769D01*
G37*
G36*
X126472308Y-71190769D02*
G01*
X125764615Y-72015385D01*
X124524615Y-70969231D01*
X124192308Y-70969231D01*
X124192308Y-74073846D01*
X122912308Y-74073846D01*
X122912308Y-69873846D01*
X124936923Y-69873846D01*
X126472308Y-71190769D01*
G37*
G36*
X134229231Y-74073846D02*
G01*
X132949231Y-74073846D01*
X132949231Y-73046154D01*
X131340000Y-73046154D01*
X130710769Y-73038462D01*
X130318462Y-73015385D01*
X129974615Y-72955385D01*
X129712308Y-72861538D01*
X129367692Y-72538462D01*
X129266838Y-72277607D01*
X129206325Y-71913504D01*
X129186154Y-71446154D01*
X130469231Y-71446154D01*
X130506154Y-71776923D01*
X130641538Y-71935385D01*
X130815385Y-71984615D01*
X130997308Y-71992308D01*
X131349231Y-71996923D01*
X132949231Y-71996923D01*
X132949231Y-70923077D01*
X131349231Y-70923077D01*
X130889231Y-70938462D01*
X130678462Y-70966154D01*
X130515385Y-71116923D01*
X130469231Y-71446154D01*
X129186154Y-71446154D01*
X129210598Y-70956068D01*
X129283932Y-70577094D01*
X129406154Y-70309231D01*
X129727308Y-70049615D01*
X130250769Y-69907692D01*
X130482564Y-69888889D01*
X130849744Y-69877607D01*
X131352308Y-69873846D01*
X134229231Y-69873846D01*
X134229231Y-74073846D01*
G37*
G36*
X115241538Y-72418462D02*
G01*
X114118462Y-72418462D01*
X114121538Y-72366154D01*
X113944615Y-72146154D01*
X113671923Y-72105769D01*
X113207692Y-72092308D01*
X112619316Y-72099145D01*
X112175214Y-72119658D01*
X111875385Y-72153846D01*
X111666154Y-72280000D01*
X111610769Y-72612308D01*
X111647692Y-72987692D01*
X111783077Y-73141538D01*
X112072308Y-73190769D01*
X112381538Y-73197692D01*
X112933846Y-73200000D01*
X113435000Y-73193462D01*
X113775385Y-73173846D01*
X114106154Y-73083077D01*
X114183077Y-72775385D01*
X115401538Y-72775385D01*
X115404615Y-72941538D01*
X115365769Y-73371923D01*
X115249231Y-73678462D01*
X115041154Y-73882692D01*
X114727692Y-74006154D01*
X114384615Y-74065385D01*
X113983077Y-74101538D01*
X113637094Y-74115214D01*
X113173504Y-74123419D01*
X112592308Y-74126154D01*
X112146496Y-74122051D01*
X111789573Y-74109744D01*
X111521538Y-74089231D01*
X111206923Y-74033077D01*
X110933846Y-73938462D01*
X110673077Y-73760769D01*
X110500000Y-73492308D01*
X110403077Y-73105385D01*
X110370769Y-72572308D01*
X110395000Y-72159615D01*
X110467692Y-71844615D01*
X110595000Y-71609615D01*
X110783077Y-71436923D01*
X111030577Y-71330577D01*
X111397692Y-71254615D01*
X111884423Y-71209038D01*
X112490769Y-71193846D01*
X113043932Y-71203077D01*
X113460342Y-71230769D01*
X113740000Y-71276923D01*
X114127692Y-71510769D01*
X114118462Y-71196923D01*
X114118462Y-70747692D01*
X113850000Y-70772308D01*
X113303077Y-70778462D01*
X110567692Y-70778462D01*
X110567692Y-69873846D01*
X115241538Y-69873846D01*
X115241538Y-72418462D01*
G37*
G36*
X120955385Y-72418462D02*
G01*
X119832308Y-72418462D01*
X119835385Y-72366154D01*
X119658462Y-72146154D01*
X119385769Y-72105769D01*
X118921538Y-72092308D01*
X118333162Y-72099145D01*
X117889060Y-72119658D01*
X117589231Y-72153846D01*
X117380000Y-72280000D01*
X117324615Y-72612308D01*
X117361538Y-72987692D01*
X117496923Y-73141538D01*
X117786154Y-73190769D01*
X118095385Y-73197692D01*
X118647692Y-73200000D01*
X119148846Y-73193462D01*
X119489231Y-73173846D01*
X119820000Y-73083077D01*
X119896923Y-72775385D01*
X121115385Y-72775385D01*
X121118462Y-72941538D01*
X121079615Y-73371923D01*
X120963077Y-73678462D01*
X120755000Y-73882692D01*
X120441538Y-74006154D01*
X120098462Y-74065385D01*
X119696923Y-74101538D01*
X119350940Y-74115214D01*
X118887350Y-74123419D01*
X118306154Y-74126154D01*
X117860342Y-74122051D01*
X117503419Y-74109744D01*
X117235385Y-74089231D01*
X116920769Y-74033077D01*
X116647692Y-73938462D01*
X116386923Y-73760769D01*
X116213846Y-73492308D01*
X116116923Y-73105385D01*
X116084615Y-72572308D01*
X116108846Y-72159615D01*
X116181538Y-71844615D01*
X116308846Y-71609615D01*
X116496923Y-71436923D01*
X116744423Y-71330577D01*
X117111538Y-71254615D01*
X117598269Y-71209038D01*
X118204615Y-71193846D01*
X118757778Y-71203077D01*
X119174188Y-71230769D01*
X119453846Y-71276923D01*
X119841538Y-71510769D01*
X119832308Y-71196923D01*
X119832308Y-70747692D01*
X119563846Y-70772308D01*
X119016923Y-70778462D01*
X116281538Y-70778462D01*
X116281538Y-69873846D01*
X120955385Y-69873846D01*
X120955385Y-72418462D01*
G37*
%TO.C,kibuzzard-69864E12*%
G36*
X116100000Y-148232535D02*
G01*
X115555751Y-148232535D01*
X115555751Y-146532535D01*
X116100000Y-146532535D01*
X116100000Y-148232535D01*
G37*
G36*
X123933700Y-145044257D02*
G01*
X123389451Y-145044257D01*
X123389451Y-143344257D01*
X123933700Y-143344257D01*
X123933700Y-145044257D01*
G37*
G36*
X126884103Y-148232535D02*
G01*
X126339853Y-148232535D01*
X126339853Y-146532535D01*
X126884103Y-146532535D01*
X126884103Y-148232535D01*
G37*
G36*
X116067619Y-143877297D02*
G01*
X115781172Y-144211070D01*
X115279267Y-143787627D01*
X115144762Y-143787627D01*
X115144762Y-145044257D01*
X114626667Y-145044257D01*
X114626667Y-143344257D01*
X115446154Y-143344257D01*
X116067619Y-143877297D01*
G37*
G36*
X114184542Y-147805355D02*
G01*
X114281685Y-147805355D01*
X114901905Y-146532535D01*
X115471062Y-146532535D01*
X114630403Y-148232535D01*
X113834579Y-148232535D01*
X113005128Y-146532535D01*
X113570549Y-146532535D01*
X114184542Y-147805355D01*
G37*
G36*
X123005861Y-143877297D02*
G01*
X122719414Y-144211070D01*
X122217509Y-143787627D01*
X122083004Y-143787627D01*
X122083004Y-145044257D01*
X121564908Y-145044257D01*
X121564908Y-143344257D01*
X122384396Y-143344257D01*
X123005861Y-143877297D01*
G37*
G36*
X112919194Y-148232535D02*
G01*
X111026154Y-148232535D01*
X111026154Y-147824037D01*
X112408571Y-147824037D01*
X112408571Y-147551290D01*
X111105861Y-147551290D01*
X111105861Y-147177663D01*
X112408571Y-147177663D01*
X112408571Y-146932315D01*
X111036117Y-146932315D01*
X111036117Y-146532535D01*
X112919194Y-146532535D01*
X112919194Y-148232535D01*
G37*
G36*
X123099267Y-147149018D02*
G01*
X123383223Y-147149018D01*
X123383223Y-146532535D01*
X123901319Y-146532535D01*
X123901319Y-148232535D01*
X123383223Y-148232535D01*
X123383223Y-147582425D01*
X123099267Y-147582425D01*
X122338315Y-148232535D01*
X121551209Y-148232535D01*
X122617289Y-147366967D01*
X121634652Y-146521326D01*
X122426740Y-146521326D01*
X123099267Y-147149018D01*
G37*
G36*
X126145568Y-145044257D02*
G01*
X125627473Y-145044257D01*
X125627473Y-144628286D01*
X124976117Y-144628286D01*
X124721429Y-144625172D01*
X124562637Y-144615832D01*
X124423462Y-144591546D01*
X124317289Y-144553561D01*
X124177802Y-144422791D01*
X124136980Y-144317207D01*
X124112487Y-144169832D01*
X124104322Y-143980667D01*
X124623663Y-143980667D01*
X124638608Y-144114550D01*
X124693407Y-144178689D01*
X124763773Y-144198616D01*
X124837408Y-144201729D01*
X124979853Y-144203597D01*
X125627473Y-144203597D01*
X125627473Y-143768945D01*
X124979853Y-143768945D01*
X124793663Y-143775172D01*
X124708352Y-143786381D01*
X124642344Y-143847407D01*
X124623663Y-143980667D01*
X124104322Y-143980667D01*
X124114217Y-143782299D01*
X124143899Y-143628905D01*
X124193370Y-143520484D01*
X124323361Y-143415401D01*
X124535238Y-143357956D01*
X124629060Y-143350345D01*
X124777680Y-143345779D01*
X124981099Y-143344257D01*
X126145568Y-143344257D01*
X126145568Y-145044257D01*
G37*
G36*
X120845055Y-148232535D02*
G01*
X120334432Y-148232535D01*
X119617070Y-148232535D01*
X119370788Y-148230511D01*
X119204835Y-148224440D01*
X119082784Y-148212141D01*
X118968205Y-148191436D01*
X118828303Y-148137468D01*
X118724103Y-148045307D01*
X118655604Y-147914953D01*
X118628361Y-147813762D01*
X118611392Y-147701986D01*
X118602518Y-147557205D01*
X118600038Y-147389385D01*
X119110183Y-147389385D01*
X119114542Y-147527627D01*
X119127619Y-147626015D01*
X119187399Y-147740594D01*
X119320037Y-147786051D01*
X119440375Y-147795859D01*
X119613333Y-147799128D01*
X120334432Y-147799128D01*
X120334432Y-146957224D01*
X119618315Y-146957224D01*
X119419826Y-146960493D01*
X119300110Y-146970301D01*
X119177436Y-147029458D01*
X119125128Y-147151509D01*
X119113919Y-147250832D01*
X119110183Y-147389385D01*
X118600038Y-147389385D01*
X118599560Y-147357004D01*
X118602051Y-147175328D01*
X118609524Y-147046271D01*
X118648132Y-146853854D01*
X118719398Y-146716581D01*
X118830240Y-146620268D01*
X118980659Y-146564916D01*
X119088077Y-146546857D01*
X119191136Y-146537517D01*
X119283435Y-146534749D01*
X119425828Y-146533089D01*
X119618315Y-146532535D01*
X120845055Y-146532535D01*
X120845055Y-148232535D01*
G37*
G36*
X129333846Y-148232535D02*
G01*
X128823223Y-148232535D01*
X128105861Y-148232535D01*
X127859579Y-148230511D01*
X127693626Y-148224440D01*
X127571575Y-148212141D01*
X127456996Y-148191436D01*
X127317094Y-148137468D01*
X127212894Y-148045307D01*
X127144396Y-147914953D01*
X127117152Y-147813762D01*
X127100183Y-147701986D01*
X127091310Y-147557205D01*
X127088830Y-147389385D01*
X127598974Y-147389385D01*
X127603333Y-147527627D01*
X127616410Y-147626015D01*
X127676190Y-147740594D01*
X127808828Y-147786051D01*
X127929167Y-147795859D01*
X128102125Y-147799128D01*
X128823223Y-147799128D01*
X128823223Y-146957224D01*
X128107106Y-146957224D01*
X127908617Y-146960493D01*
X127788901Y-146970301D01*
X127666227Y-147029458D01*
X127613919Y-147151509D01*
X127602711Y-147250832D01*
X127598974Y-147389385D01*
X127088830Y-147389385D01*
X127088352Y-147357004D01*
X127090842Y-147175328D01*
X127098315Y-147046271D01*
X127136923Y-146853854D01*
X127208189Y-146716581D01*
X127319031Y-146620268D01*
X127469451Y-146564916D01*
X127576868Y-146546857D01*
X127679927Y-146537517D01*
X127772226Y-146534749D01*
X127914619Y-146533089D01*
X128107106Y-146532535D01*
X129333846Y-146532535D01*
X129333846Y-148232535D01*
G37*
G36*
X118395311Y-148232535D02*
G01*
X117877216Y-148232535D01*
X117877216Y-147800374D01*
X117147399Y-147800374D01*
X116936300Y-147808469D01*
X116857216Y-147846454D01*
X116817985Y-147939238D01*
X116807399Y-148141619D01*
X116807399Y-148232535D01*
X116296777Y-148232535D01*
X116296777Y-148074366D01*
X116299579Y-147891757D01*
X116307985Y-147784806D01*
X116360293Y-147667114D01*
X116454322Y-147603286D01*
X116594432Y-147573707D01*
X116473626Y-147543817D01*
X116387692Y-147496491D01*
X116301136Y-147357004D01*
X116283855Y-147245227D01*
X116280813Y-147160227D01*
X116797436Y-147160227D01*
X116811136Y-147286638D01*
X116858462Y-147349531D01*
X116921355Y-147368835D01*
X116996548Y-147372105D01*
X117148645Y-147375685D01*
X117877216Y-147375685D01*
X117877216Y-146957224D01*
X117149890Y-146957224D01*
X117005888Y-146958780D01*
X116932564Y-146960960D01*
X116867179Y-146975905D01*
X116813004Y-147035685D01*
X116797436Y-147160227D01*
X116280813Y-147160227D01*
X116278095Y-147084257D01*
X116287125Y-146893240D01*
X116314212Y-146761070D01*
X116365586Y-146669376D01*
X116447473Y-146599788D01*
X116615604Y-146541876D01*
X116713024Y-146537240D01*
X116889044Y-146534126D01*
X117143663Y-146532535D01*
X118395311Y-146532535D01*
X118395311Y-148232535D01*
G37*
G36*
X118460073Y-144374220D02*
G01*
X118005495Y-144374220D01*
X118006740Y-144353048D01*
X117935128Y-144264000D01*
X117824753Y-144247654D01*
X117636850Y-144242205D01*
X117398698Y-144244973D01*
X117218942Y-144253276D01*
X117097582Y-144267114D01*
X117012894Y-144318176D01*
X116990476Y-144452682D01*
X117005421Y-144604623D01*
X117060220Y-144666894D01*
X117177289Y-144686821D01*
X117302454Y-144689623D01*
X117526007Y-144690557D01*
X117728855Y-144687910D01*
X117866630Y-144679971D01*
X118000513Y-144643231D01*
X118031648Y-144518689D01*
X118524835Y-144518689D01*
X118526081Y-144585942D01*
X118510357Y-144760145D01*
X118463187Y-144884220D01*
X118378965Y-144966885D01*
X118252088Y-145016857D01*
X118113223Y-145040832D01*
X117950696Y-145055465D01*
X117810655Y-145061001D01*
X117623012Y-145064322D01*
X117387766Y-145065429D01*
X117207318Y-145063768D01*
X117062849Y-145058787D01*
X116954359Y-145050484D01*
X116827015Y-145027755D01*
X116716484Y-144989458D01*
X116610934Y-144917535D01*
X116540879Y-144808872D01*
X116501648Y-144652260D01*
X116488571Y-144436491D01*
X116498379Y-144269449D01*
X116527802Y-144141949D01*
X116579332Y-144046830D01*
X116655458Y-143976931D01*
X116755636Y-143933886D01*
X116904231Y-143903139D01*
X117101241Y-143884692D01*
X117346667Y-143878542D01*
X117570566Y-143882279D01*
X117739113Y-143893487D01*
X117852308Y-143912169D01*
X118009231Y-144006821D01*
X118005495Y-143879788D01*
X118005495Y-143697956D01*
X117896832Y-143707920D01*
X117675458Y-143710410D01*
X116568278Y-143710410D01*
X116568278Y-143344257D01*
X118460073Y-143344257D01*
X118460073Y-144374220D01*
G37*
G36*
X120772821Y-144374220D02*
G01*
X120318242Y-144374220D01*
X120319487Y-144353048D01*
X120247875Y-144264000D01*
X120137500Y-144247654D01*
X119949597Y-144242205D01*
X119711445Y-144244973D01*
X119531689Y-144253276D01*
X119410330Y-144267114D01*
X119325641Y-144318176D01*
X119303223Y-144452682D01*
X119318168Y-144604623D01*
X119372967Y-144666894D01*
X119490037Y-144686821D01*
X119615201Y-144689623D01*
X119838755Y-144690557D01*
X120041603Y-144687910D01*
X120179377Y-144679971D01*
X120313260Y-144643231D01*
X120344396Y-144518689D01*
X120837582Y-144518689D01*
X120838828Y-144585942D01*
X120823104Y-144760145D01*
X120775934Y-144884220D01*
X120691712Y-144966885D01*
X120564835Y-145016857D01*
X120425971Y-145040832D01*
X120263443Y-145055465D01*
X120123403Y-145061001D01*
X119935759Y-145064322D01*
X119700513Y-145065429D01*
X119520065Y-145063768D01*
X119375596Y-145058787D01*
X119267106Y-145050484D01*
X119139762Y-145027755D01*
X119029231Y-144989458D01*
X118923681Y-144917535D01*
X118853626Y-144808872D01*
X118814396Y-144652260D01*
X118801319Y-144436491D01*
X118811126Y-144269449D01*
X118840549Y-144141949D01*
X118892079Y-144046830D01*
X118968205Y-143976931D01*
X119068384Y-143933886D01*
X119216978Y-143903139D01*
X119413988Y-143884692D01*
X119659414Y-143878542D01*
X119883313Y-143882279D01*
X120051860Y-143893487D01*
X120165055Y-143912169D01*
X120321978Y-144006821D01*
X120318242Y-143879788D01*
X120318242Y-143697956D01*
X120209579Y-143707920D01*
X119988205Y-143710410D01*
X118881026Y-143710410D01*
X118881026Y-143344257D01*
X120772821Y-143344257D01*
X120772821Y-144374220D01*
G37*
G36*
X125319931Y-146507977D02*
G01*
X125518187Y-146512764D01*
X125671763Y-146520742D01*
X125780659Y-146531912D01*
X125931355Y-146574101D01*
X126037216Y-146649605D01*
X126098103Y-146747301D01*
X126134636Y-146882637D01*
X126146813Y-147055612D01*
X126122839Y-147275429D01*
X126050916Y-147421766D01*
X125894615Y-147517040D01*
X125772720Y-147540548D01*
X125607546Y-147552535D01*
X125456227Y-147558139D01*
X125194066Y-147569971D01*
X124937509Y-147581180D01*
X124788059Y-147584916D01*
X124623040Y-147612938D01*
X124582564Y-147714440D01*
X124639853Y-147842718D01*
X124744469Y-147862022D01*
X124876172Y-147864669D01*
X125139267Y-147866381D01*
X125389441Y-147863423D01*
X125512271Y-147859531D01*
X125608791Y-147831509D01*
X125659853Y-147669605D01*
X126161758Y-147669605D01*
X126161758Y-147749312D01*
X126152573Y-147909037D01*
X126125018Y-148022059D01*
X125992381Y-148166528D01*
X125877491Y-148209806D01*
X125717143Y-148237517D01*
X125572812Y-148248587D01*
X125383923Y-148255229D01*
X125150476Y-148257443D01*
X124877175Y-148255783D01*
X124668360Y-148250801D01*
X124524029Y-148242498D01*
X124384698Y-148220703D01*
X124280549Y-148185209D01*
X124145421Y-148056931D01*
X124096850Y-147909037D01*
X124080659Y-147699495D01*
X124090311Y-147537746D01*
X124119267Y-147418652D01*
X124171575Y-147331317D01*
X124251282Y-147264843D01*
X124347647Y-147225145D01*
X124472344Y-147200703D01*
X124595295Y-147189979D01*
X124778995Y-147180223D01*
X125023443Y-147171436D01*
X125302002Y-147161334D01*
X125485079Y-147150956D01*
X125572674Y-147140301D01*
X125644908Y-147030703D01*
X125572674Y-146916747D01*
X125435989Y-146901335D01*
X125170403Y-146896198D01*
X124943736Y-146897599D01*
X124811722Y-146901802D01*
X124693407Y-146927334D01*
X124656667Y-146969678D01*
X124644835Y-147066821D01*
X124142930Y-147066821D01*
X124141685Y-146987114D01*
X124163480Y-146788936D01*
X124228864Y-146657700D01*
X124352784Y-146576280D01*
X124550183Y-146527553D01*
X124676247Y-146515791D01*
X124851852Y-146508734D01*
X125076996Y-146506381D01*
X125319931Y-146507977D01*
G37*
%TD*%
M02*
