%TF.GenerationSoftware,KiCad,Pcbnew,9.0.7*%
%TF.CreationDate,2026-03-03T22:15:48+01:00*%
%TF.ProjectId,Pi1551-III Module Panel,50693135-3531-42d4-9949-49204d6f6475,2*%
%TF.SameCoordinates,Original*%
%TF.FileFunction,Legend,Top*%
%TF.FilePolarity,Positive*%
%FSLAX46Y46*%
G04 Gerber Fmt 4.6, Leading zero omitted, Abs format (unit mm)*
G04 Created by KiCad (PCBNEW 9.0.7) date 2026-03-03 22:15:48*
%MOMM*%
%LPD*%
G01*
G04 APERTURE LIST*
%ADD10C,0.150000*%
%ADD11C,0.100000*%
%ADD12C,0.120000*%
G04 APERTURE END LIST*
D10*
X172770714Y-128710009D02*
X173104047Y-128710009D01*
X173246904Y-129233819D02*
X172770714Y-129233819D01*
X172770714Y-129233819D02*
X172770714Y-128233819D01*
X172770714Y-128233819D02*
X173246904Y-128233819D01*
X173675476Y-129233819D02*
X173675476Y-128233819D01*
X173675476Y-128233819D02*
X174246904Y-129233819D01*
X174246904Y-129233819D02*
X174246904Y-128233819D01*
X175294523Y-129138580D02*
X175246904Y-129186200D01*
X175246904Y-129186200D02*
X175104047Y-129233819D01*
X175104047Y-129233819D02*
X175008809Y-129233819D01*
X175008809Y-129233819D02*
X174865952Y-129186200D01*
X174865952Y-129186200D02*
X174770714Y-129090961D01*
X174770714Y-129090961D02*
X174723095Y-128995723D01*
X174723095Y-128995723D02*
X174675476Y-128805247D01*
X174675476Y-128805247D02*
X174675476Y-128662390D01*
X174675476Y-128662390D02*
X174723095Y-128471914D01*
X174723095Y-128471914D02*
X174770714Y-128376676D01*
X174770714Y-128376676D02*
X174865952Y-128281438D01*
X174865952Y-128281438D02*
X175008809Y-128233819D01*
X175008809Y-128233819D02*
X175104047Y-128233819D01*
X175104047Y-128233819D02*
X175246904Y-128281438D01*
X175246904Y-128281438D02*
X175294523Y-128329057D01*
X176246904Y-129233819D02*
X175675476Y-129233819D01*
X175961190Y-129233819D02*
X175961190Y-128233819D01*
X175961190Y-128233819D02*
X175865952Y-128376676D01*
X175865952Y-128376676D02*
X175770714Y-128471914D01*
X175770714Y-128471914D02*
X175675476Y-128519533D01*
X140113810Y-118223819D02*
X140113810Y-117223819D01*
X141161428Y-118128580D02*
X141113809Y-118176200D01*
X141113809Y-118176200D02*
X140970952Y-118223819D01*
X140970952Y-118223819D02*
X140875714Y-118223819D01*
X140875714Y-118223819D02*
X140732857Y-118176200D01*
X140732857Y-118176200D02*
X140637619Y-118080961D01*
X140637619Y-118080961D02*
X140590000Y-117985723D01*
X140590000Y-117985723D02*
X140542381Y-117795247D01*
X140542381Y-117795247D02*
X140542381Y-117652390D01*
X140542381Y-117652390D02*
X140590000Y-117461914D01*
X140590000Y-117461914D02*
X140637619Y-117366676D01*
X140637619Y-117366676D02*
X140732857Y-117271438D01*
X140732857Y-117271438D02*
X140875714Y-117223819D01*
X140875714Y-117223819D02*
X140970952Y-117223819D01*
X140970952Y-117223819D02*
X141113809Y-117271438D01*
X141113809Y-117271438D02*
X141161428Y-117319057D01*
X142113809Y-118223819D02*
X141542381Y-118223819D01*
X141828095Y-118223819D02*
X141828095Y-117223819D01*
X141828095Y-117223819D02*
X141732857Y-117366676D01*
X141732857Y-117366676D02*
X141637619Y-117461914D01*
X141637619Y-117461914D02*
X141542381Y-117509533D01*
X139637619Y-115826819D02*
X139828095Y-115826819D01*
X139828095Y-115826819D02*
X139923333Y-115874438D01*
X139923333Y-115874438D02*
X140018571Y-115969676D01*
X140018571Y-115969676D02*
X140066190Y-116160152D01*
X140066190Y-116160152D02*
X140066190Y-116493485D01*
X140066190Y-116493485D02*
X140018571Y-116683961D01*
X140018571Y-116683961D02*
X139923333Y-116779200D01*
X139923333Y-116779200D02*
X139828095Y-116826819D01*
X139828095Y-116826819D02*
X139637619Y-116826819D01*
X139637619Y-116826819D02*
X139542381Y-116779200D01*
X139542381Y-116779200D02*
X139447143Y-116683961D01*
X139447143Y-116683961D02*
X139399524Y-116493485D01*
X139399524Y-116493485D02*
X139399524Y-116160152D01*
X139399524Y-116160152D02*
X139447143Y-115969676D01*
X139447143Y-115969676D02*
X139542381Y-115874438D01*
X139542381Y-115874438D02*
X139637619Y-115826819D01*
X140970952Y-116826819D02*
X140494762Y-116826819D01*
X140494762Y-116826819D02*
X140494762Y-115826819D01*
X141304286Y-116303009D02*
X141637619Y-116303009D01*
X141780476Y-116826819D02*
X141304286Y-116826819D01*
X141304286Y-116826819D02*
X141304286Y-115826819D01*
X141304286Y-115826819D02*
X141780476Y-115826819D01*
X142209048Y-116826819D02*
X142209048Y-115826819D01*
X142209048Y-115826819D02*
X142447143Y-115826819D01*
X142447143Y-115826819D02*
X142590000Y-115874438D01*
X142590000Y-115874438D02*
X142685238Y-115969676D01*
X142685238Y-115969676D02*
X142732857Y-116064914D01*
X142732857Y-116064914D02*
X142780476Y-116255390D01*
X142780476Y-116255390D02*
X142780476Y-116398247D01*
X142780476Y-116398247D02*
X142732857Y-116588723D01*
X142732857Y-116588723D02*
X142685238Y-116683961D01*
X142685238Y-116683961D02*
X142590000Y-116779200D01*
X142590000Y-116779200D02*
X142447143Y-116826819D01*
X142447143Y-116826819D02*
X142209048Y-116826819D01*
D11*
X115478333Y-127531895D02*
X115478333Y-126731895D01*
X115859285Y-127531895D02*
X115859285Y-126731895D01*
X115859285Y-126731895D02*
X116316428Y-127531895D01*
X116316428Y-127531895D02*
X116316428Y-126731895D01*
X116659284Y-127493800D02*
X116773570Y-127531895D01*
X116773570Y-127531895D02*
X116964046Y-127531895D01*
X116964046Y-127531895D02*
X117040237Y-127493800D01*
X117040237Y-127493800D02*
X117078332Y-127455704D01*
X117078332Y-127455704D02*
X117116427Y-127379514D01*
X117116427Y-127379514D02*
X117116427Y-127303323D01*
X117116427Y-127303323D02*
X117078332Y-127227133D01*
X117078332Y-127227133D02*
X117040237Y-127189038D01*
X117040237Y-127189038D02*
X116964046Y-127150942D01*
X116964046Y-127150942D02*
X116811665Y-127112847D01*
X116811665Y-127112847D02*
X116735475Y-127074752D01*
X116735475Y-127074752D02*
X116697380Y-127036657D01*
X116697380Y-127036657D02*
X116659284Y-126960466D01*
X116659284Y-126960466D02*
X116659284Y-126884276D01*
X116659284Y-126884276D02*
X116697380Y-126808085D01*
X116697380Y-126808085D02*
X116735475Y-126769990D01*
X116735475Y-126769990D02*
X116811665Y-126731895D01*
X116811665Y-126731895D02*
X117002142Y-126731895D01*
X117002142Y-126731895D02*
X117116427Y-126769990D01*
X117459285Y-127112847D02*
X117725951Y-127112847D01*
X117840237Y-127531895D02*
X117459285Y-127531895D01*
X117459285Y-127531895D02*
X117459285Y-126731895D01*
X117459285Y-126731895D02*
X117840237Y-126731895D01*
X118640238Y-127531895D02*
X118373571Y-127150942D01*
X118183095Y-127531895D02*
X118183095Y-126731895D01*
X118183095Y-126731895D02*
X118487857Y-126731895D01*
X118487857Y-126731895D02*
X118564047Y-126769990D01*
X118564047Y-126769990D02*
X118602142Y-126808085D01*
X118602142Y-126808085D02*
X118640238Y-126884276D01*
X118640238Y-126884276D02*
X118640238Y-126998561D01*
X118640238Y-126998561D02*
X118602142Y-127074752D01*
X118602142Y-127074752D02*
X118564047Y-127112847D01*
X118564047Y-127112847D02*
X118487857Y-127150942D01*
X118487857Y-127150942D02*
X118183095Y-127150942D01*
X118868809Y-126731895D02*
X119325952Y-126731895D01*
X119097380Y-127531895D02*
X119097380Y-126731895D01*
X117671800Y-122645667D02*
X117709895Y-122531381D01*
X117709895Y-122531381D02*
X117709895Y-122340905D01*
X117709895Y-122340905D02*
X117671800Y-122264714D01*
X117671800Y-122264714D02*
X117633704Y-122226619D01*
X117633704Y-122226619D02*
X117557514Y-122188524D01*
X117557514Y-122188524D02*
X117481323Y-122188524D01*
X117481323Y-122188524D02*
X117405133Y-122226619D01*
X117405133Y-122226619D02*
X117367038Y-122264714D01*
X117367038Y-122264714D02*
X117328942Y-122340905D01*
X117328942Y-122340905D02*
X117290847Y-122493286D01*
X117290847Y-122493286D02*
X117252752Y-122569476D01*
X117252752Y-122569476D02*
X117214657Y-122607571D01*
X117214657Y-122607571D02*
X117138466Y-122645667D01*
X117138466Y-122645667D02*
X117062276Y-122645667D01*
X117062276Y-122645667D02*
X116986085Y-122607571D01*
X116986085Y-122607571D02*
X116947990Y-122569476D01*
X116947990Y-122569476D02*
X116909895Y-122493286D01*
X116909895Y-122493286D02*
X116909895Y-122302809D01*
X116909895Y-122302809D02*
X116947990Y-122188524D01*
X116909895Y-121921857D02*
X117709895Y-121731381D01*
X117709895Y-121731381D02*
X117138466Y-121579000D01*
X117138466Y-121579000D02*
X117709895Y-121426619D01*
X117709895Y-121426619D02*
X116909895Y-121236143D01*
X116986085Y-120969476D02*
X116947990Y-120931380D01*
X116947990Y-120931380D02*
X116909895Y-120855190D01*
X116909895Y-120855190D02*
X116909895Y-120664714D01*
X116909895Y-120664714D02*
X116947990Y-120588523D01*
X116947990Y-120588523D02*
X116986085Y-120550428D01*
X116986085Y-120550428D02*
X117062276Y-120512333D01*
X117062276Y-120512333D02*
X117138466Y-120512333D01*
X117138466Y-120512333D02*
X117252752Y-120550428D01*
X117252752Y-120550428D02*
X117709895Y-121007571D01*
X117709895Y-121007571D02*
X117709895Y-120512333D01*
X107492285Y-127112847D02*
X107606571Y-127150942D01*
X107606571Y-127150942D02*
X107644666Y-127189038D01*
X107644666Y-127189038D02*
X107682762Y-127265228D01*
X107682762Y-127265228D02*
X107682762Y-127379514D01*
X107682762Y-127379514D02*
X107644666Y-127455704D01*
X107644666Y-127455704D02*
X107606571Y-127493800D01*
X107606571Y-127493800D02*
X107530381Y-127531895D01*
X107530381Y-127531895D02*
X107225619Y-127531895D01*
X107225619Y-127531895D02*
X107225619Y-126731895D01*
X107225619Y-126731895D02*
X107492285Y-126731895D01*
X107492285Y-126731895D02*
X107568476Y-126769990D01*
X107568476Y-126769990D02*
X107606571Y-126808085D01*
X107606571Y-126808085D02*
X107644666Y-126884276D01*
X107644666Y-126884276D02*
X107644666Y-126960466D01*
X107644666Y-126960466D02*
X107606571Y-127036657D01*
X107606571Y-127036657D02*
X107568476Y-127074752D01*
X107568476Y-127074752D02*
X107492285Y-127112847D01*
X107492285Y-127112847D02*
X107225619Y-127112847D01*
X107987523Y-127303323D02*
X108368476Y-127303323D01*
X107911333Y-127531895D02*
X108178000Y-126731895D01*
X108178000Y-126731895D02*
X108444666Y-127531895D01*
X109168476Y-127455704D02*
X109130380Y-127493800D01*
X109130380Y-127493800D02*
X109016095Y-127531895D01*
X109016095Y-127531895D02*
X108939904Y-127531895D01*
X108939904Y-127531895D02*
X108825618Y-127493800D01*
X108825618Y-127493800D02*
X108749428Y-127417609D01*
X108749428Y-127417609D02*
X108711333Y-127341419D01*
X108711333Y-127341419D02*
X108673237Y-127189038D01*
X108673237Y-127189038D02*
X108673237Y-127074752D01*
X108673237Y-127074752D02*
X108711333Y-126922371D01*
X108711333Y-126922371D02*
X108749428Y-126846180D01*
X108749428Y-126846180D02*
X108825618Y-126769990D01*
X108825618Y-126769990D02*
X108939904Y-126731895D01*
X108939904Y-126731895D02*
X109016095Y-126731895D01*
X109016095Y-126731895D02*
X109130380Y-126769990D01*
X109130380Y-126769990D02*
X109168476Y-126808085D01*
X109511333Y-127531895D02*
X109511333Y-126731895D01*
X109968476Y-127531895D02*
X109625618Y-127074752D01*
X109968476Y-126731895D02*
X109511333Y-127189038D01*
X108904800Y-122645667D02*
X108942895Y-122531381D01*
X108942895Y-122531381D02*
X108942895Y-122340905D01*
X108942895Y-122340905D02*
X108904800Y-122264714D01*
X108904800Y-122264714D02*
X108866704Y-122226619D01*
X108866704Y-122226619D02*
X108790514Y-122188524D01*
X108790514Y-122188524D02*
X108714323Y-122188524D01*
X108714323Y-122188524D02*
X108638133Y-122226619D01*
X108638133Y-122226619D02*
X108600038Y-122264714D01*
X108600038Y-122264714D02*
X108561942Y-122340905D01*
X108561942Y-122340905D02*
X108523847Y-122493286D01*
X108523847Y-122493286D02*
X108485752Y-122569476D01*
X108485752Y-122569476D02*
X108447657Y-122607571D01*
X108447657Y-122607571D02*
X108371466Y-122645667D01*
X108371466Y-122645667D02*
X108295276Y-122645667D01*
X108295276Y-122645667D02*
X108219085Y-122607571D01*
X108219085Y-122607571D02*
X108180990Y-122569476D01*
X108180990Y-122569476D02*
X108142895Y-122493286D01*
X108142895Y-122493286D02*
X108142895Y-122302809D01*
X108142895Y-122302809D02*
X108180990Y-122188524D01*
X108142895Y-121921857D02*
X108942895Y-121731381D01*
X108942895Y-121731381D02*
X108371466Y-121579000D01*
X108371466Y-121579000D02*
X108942895Y-121426619D01*
X108942895Y-121426619D02*
X108142895Y-121236143D01*
X108942895Y-120512333D02*
X108942895Y-120969476D01*
X108942895Y-120740904D02*
X108142895Y-120740904D01*
X108142895Y-120740904D02*
X108257180Y-120817095D01*
X108257180Y-120817095D02*
X108333371Y-120893285D01*
X108333371Y-120893285D02*
X108371466Y-120969476D01*
D10*
X102893905Y-121104819D02*
X102893905Y-120104819D01*
X102893905Y-120104819D02*
X103132000Y-120104819D01*
X103132000Y-120104819D02*
X103274857Y-120152438D01*
X103274857Y-120152438D02*
X103370095Y-120247676D01*
X103370095Y-120247676D02*
X103417714Y-120342914D01*
X103417714Y-120342914D02*
X103465333Y-120533390D01*
X103465333Y-120533390D02*
X103465333Y-120676247D01*
X103465333Y-120676247D02*
X103417714Y-120866723D01*
X103417714Y-120866723D02*
X103370095Y-120961961D01*
X103370095Y-120961961D02*
X103274857Y-121057200D01*
X103274857Y-121057200D02*
X103132000Y-121104819D01*
X103132000Y-121104819D02*
X102893905Y-121104819D01*
X104417714Y-121104819D02*
X103846286Y-121104819D01*
X104132000Y-121104819D02*
X104132000Y-120104819D01*
X104132000Y-120104819D02*
X104036762Y-120247676D01*
X104036762Y-120247676D02*
X103941524Y-120342914D01*
X103941524Y-120342914D02*
X103846286Y-120390533D01*
D11*
X92767381Y-121014895D02*
X92767381Y-120214895D01*
X92767381Y-120214895D02*
X93072143Y-120214895D01*
X93072143Y-120214895D02*
X93148333Y-120252990D01*
X93148333Y-120252990D02*
X93186428Y-120291085D01*
X93186428Y-120291085D02*
X93224524Y-120367276D01*
X93224524Y-120367276D02*
X93224524Y-120481561D01*
X93224524Y-120481561D02*
X93186428Y-120557752D01*
X93186428Y-120557752D02*
X93148333Y-120595847D01*
X93148333Y-120595847D02*
X93072143Y-120633942D01*
X93072143Y-120633942D02*
X92767381Y-120633942D01*
X93719762Y-120214895D02*
X93872143Y-120214895D01*
X93872143Y-120214895D02*
X93948333Y-120252990D01*
X93948333Y-120252990D02*
X94024524Y-120329180D01*
X94024524Y-120329180D02*
X94062619Y-120481561D01*
X94062619Y-120481561D02*
X94062619Y-120748228D01*
X94062619Y-120748228D02*
X94024524Y-120900609D01*
X94024524Y-120900609D02*
X93948333Y-120976800D01*
X93948333Y-120976800D02*
X93872143Y-121014895D01*
X93872143Y-121014895D02*
X93719762Y-121014895D01*
X93719762Y-121014895D02*
X93643571Y-120976800D01*
X93643571Y-120976800D02*
X93567381Y-120900609D01*
X93567381Y-120900609D02*
X93529285Y-120748228D01*
X93529285Y-120748228D02*
X93529285Y-120481561D01*
X93529285Y-120481561D02*
X93567381Y-120329180D01*
X93567381Y-120329180D02*
X93643571Y-120252990D01*
X93643571Y-120252990D02*
X93719762Y-120214895D01*
X94329285Y-120214895D02*
X94519761Y-121014895D01*
X94519761Y-121014895D02*
X94672142Y-120443466D01*
X94672142Y-120443466D02*
X94824523Y-121014895D01*
X94824523Y-121014895D02*
X95015000Y-120214895D01*
X95319762Y-120595847D02*
X95586428Y-120595847D01*
X95700714Y-121014895D02*
X95319762Y-121014895D01*
X95319762Y-121014895D02*
X95319762Y-120214895D01*
X95319762Y-120214895D02*
X95700714Y-120214895D01*
X96500715Y-121014895D02*
X96234048Y-120633942D01*
X96043572Y-121014895D02*
X96043572Y-120214895D01*
X96043572Y-120214895D02*
X96348334Y-120214895D01*
X96348334Y-120214895D02*
X96424524Y-120252990D01*
X96424524Y-120252990D02*
X96462619Y-120291085D01*
X96462619Y-120291085D02*
X96500715Y-120367276D01*
X96500715Y-120367276D02*
X96500715Y-120481561D01*
X96500715Y-120481561D02*
X96462619Y-120557752D01*
X96462619Y-120557752D02*
X96424524Y-120595847D01*
X96424524Y-120595847D02*
X96348334Y-120633942D01*
X96348334Y-120633942D02*
X96043572Y-120633942D01*
D10*
X102893905Y-124914819D02*
X102893905Y-123914819D01*
X102893905Y-123914819D02*
X103132000Y-123914819D01*
X103132000Y-123914819D02*
X103274857Y-123962438D01*
X103274857Y-123962438D02*
X103370095Y-124057676D01*
X103370095Y-124057676D02*
X103417714Y-124152914D01*
X103417714Y-124152914D02*
X103465333Y-124343390D01*
X103465333Y-124343390D02*
X103465333Y-124486247D01*
X103465333Y-124486247D02*
X103417714Y-124676723D01*
X103417714Y-124676723D02*
X103370095Y-124771961D01*
X103370095Y-124771961D02*
X103274857Y-124867200D01*
X103274857Y-124867200D02*
X103132000Y-124914819D01*
X103132000Y-124914819D02*
X102893905Y-124914819D01*
X103846286Y-124010057D02*
X103893905Y-123962438D01*
X103893905Y-123962438D02*
X103989143Y-123914819D01*
X103989143Y-123914819D02*
X104227238Y-123914819D01*
X104227238Y-123914819D02*
X104322476Y-123962438D01*
X104322476Y-123962438D02*
X104370095Y-124010057D01*
X104370095Y-124010057D02*
X104417714Y-124105295D01*
X104417714Y-124105295D02*
X104417714Y-124200533D01*
X104417714Y-124200533D02*
X104370095Y-124343390D01*
X104370095Y-124343390D02*
X103798667Y-124914819D01*
X103798667Y-124914819D02*
X104417714Y-124914819D01*
D11*
X93230238Y-124824895D02*
X93230238Y-124024895D01*
X93230238Y-124024895D02*
X93420714Y-124024895D01*
X93420714Y-124024895D02*
X93535000Y-124062990D01*
X93535000Y-124062990D02*
X93611190Y-124139180D01*
X93611190Y-124139180D02*
X93649285Y-124215371D01*
X93649285Y-124215371D02*
X93687381Y-124367752D01*
X93687381Y-124367752D02*
X93687381Y-124482038D01*
X93687381Y-124482038D02*
X93649285Y-124634419D01*
X93649285Y-124634419D02*
X93611190Y-124710609D01*
X93611190Y-124710609D02*
X93535000Y-124786800D01*
X93535000Y-124786800D02*
X93420714Y-124824895D01*
X93420714Y-124824895D02*
X93230238Y-124824895D01*
X94487381Y-124824895D02*
X94220714Y-124443942D01*
X94030238Y-124824895D02*
X94030238Y-124024895D01*
X94030238Y-124024895D02*
X94335000Y-124024895D01*
X94335000Y-124024895D02*
X94411190Y-124062990D01*
X94411190Y-124062990D02*
X94449285Y-124101085D01*
X94449285Y-124101085D02*
X94487381Y-124177276D01*
X94487381Y-124177276D02*
X94487381Y-124291561D01*
X94487381Y-124291561D02*
X94449285Y-124367752D01*
X94449285Y-124367752D02*
X94411190Y-124405847D01*
X94411190Y-124405847D02*
X94335000Y-124443942D01*
X94335000Y-124443942D02*
X94030238Y-124443942D01*
X94830238Y-124824895D02*
X94830238Y-124024895D01*
X95096904Y-124024895D02*
X95363571Y-124824895D01*
X95363571Y-124824895D02*
X95630237Y-124024895D01*
X95896904Y-124405847D02*
X96163570Y-124405847D01*
X96277856Y-124824895D02*
X95896904Y-124824895D01*
X95896904Y-124824895D02*
X95896904Y-124024895D01*
X95896904Y-124024895D02*
X96277856Y-124024895D01*
D12*
%TO.C,ENC1*%
X163685000Y-115679000D02*
X167785000Y-115679000D01*
X163685000Y-118079000D02*
X163685000Y-115679000D01*
X163685000Y-122879000D02*
X163685000Y-120279000D01*
X163685000Y-127479000D02*
X163685000Y-125079000D01*
X167785000Y-127479000D02*
X163685000Y-127479000D01*
X169785000Y-122079000D02*
X169785000Y-121079000D01*
X170285000Y-121579000D02*
X169285000Y-121579000D01*
X171785000Y-115679000D02*
X175885000Y-115679000D01*
X171785000Y-127479000D02*
X175885000Y-127479000D01*
X175885000Y-127479000D02*
X175885000Y-115679000D01*
X176985000Y-125679000D02*
X177285000Y-125379000D01*
X177285000Y-125379000D02*
X177585000Y-125679000D01*
X177585000Y-125679000D02*
X176985000Y-125679000D01*
X172785000Y-121579000D02*
G75*
G02*
X166785000Y-121579000I-3000000J0D01*
G01*
X166785000Y-121579000D02*
G75*
G02*
X172785000Y-121579000I3000000J0D01*
G01*
%TO.C,SW2*%
X114095000Y-119329000D02*
X114095000Y-123829000D01*
X116595000Y-125079000D02*
X118095000Y-125079000D01*
X118095000Y-118079000D02*
X116595000Y-118079000D01*
X120595000Y-123829000D02*
X120595000Y-119329000D01*
%TO.C,SW1*%
X105328000Y-119329000D02*
X105328000Y-123829000D01*
X107828000Y-125079000D02*
X109328000Y-125079000D01*
X109328000Y-118079000D02*
X107828000Y-118079000D01*
X111828000Y-123829000D02*
X111828000Y-119329000D01*
%TO.C,D1*%
X100005000Y-119590000D02*
X99274000Y-119590000D01*
X100005000Y-121710000D02*
X99274000Y-121710000D01*
%TO.C,D2*%
X100005000Y-123400000D02*
X99274000Y-123400000D01*
X100005000Y-125520000D02*
X99274000Y-125520000D01*
%TD*%
M02*
