%TF.GenerationSoftware,KiCad,Pcbnew,9.0.7*%
%TF.CreationDate,2026-02-09T23:45:37+01:00*%
%TF.ProjectId,Pi1551-III Module Panel,50693135-3531-42d4-9949-49204d6f6475,1*%
%TF.SameCoordinates,Original*%
%TF.FileFunction,Copper,L2,Bot*%
%TF.FilePolarity,Positive*%
%FSLAX46Y46*%
G04 Gerber Fmt 4.6, Leading zero omitted, Abs format (unit mm)*
G04 Created by KiCad (PCBNEW 9.0.7) date 2026-02-09 23:45:37*
%MOMM*%
%LPD*%
G01*
G04 APERTURE LIST*
G04 Aperture macros list*
%AMFreePoly0*
4,1,23,0.550000,-0.750000,0.000000,-0.750000,0.000000,-0.745722,-0.065263,-0.745722,-0.191342,-0.711940,-0.304381,-0.646677,-0.396677,-0.554381,-0.461940,-0.441342,-0.495722,-0.315263,-0.495722,-0.250000,-0.500000,-0.250000,-0.500000,0.250000,-0.495722,0.250000,-0.495722,0.315263,-0.461940,0.441342,-0.396677,0.554381,-0.304381,0.646677,-0.191342,0.711940,-0.065263,0.745722,0.000000,0.745722,
0.000000,0.750000,0.550000,0.750000,0.550000,-0.750000,0.550000,-0.750000,$1*%
%AMFreePoly1*
4,1,23,0.000000,0.745722,0.065263,0.745722,0.191342,0.711940,0.304381,0.646677,0.396677,0.554381,0.461940,0.441342,0.495722,0.315263,0.495722,0.250000,0.500000,0.250000,0.500000,-0.250000,0.495722,-0.250000,0.495722,-0.315263,0.461940,-0.441342,0.396677,-0.554381,0.304381,-0.646677,0.191342,-0.711940,0.065263,-0.745722,0.000000,-0.745722,0.000000,-0.750000,-0.550000,-0.750000,
-0.550000,0.750000,0.000000,0.750000,0.000000,0.745722,0.000000,0.745722,$1*%
G04 Aperture macros list end*
%TA.AperFunction,EtchedComponent*%
%ADD10C,0.000000*%
%TD*%
%TA.AperFunction,ComponentPad*%
%ADD11C,3.500000*%
%TD*%
%TA.AperFunction,ComponentPad*%
%ADD12R,2.000000X2.000000*%
%TD*%
%TA.AperFunction,ComponentPad*%
%ADD13C,2.000000*%
%TD*%
%TA.AperFunction,ComponentPad*%
%ADD14C,3.200000*%
%TD*%
%TA.AperFunction,ComponentPad*%
%ADD15R,1.727200X1.727200*%
%TD*%
%TA.AperFunction,ComponentPad*%
%ADD16C,1.727200*%
%TD*%
%TA.AperFunction,ComponentPad*%
%ADD17R,1.800000X1.800000*%
%TD*%
%TA.AperFunction,ComponentPad*%
%ADD18C,1.800000*%
%TD*%
%TA.AperFunction,ComponentPad*%
%ADD19R,1.700000X1.700000*%
%TD*%
%TA.AperFunction,ComponentPad*%
%ADD20O,1.700000X1.700000*%
%TD*%
%TA.AperFunction,SMDPad,CuDef*%
%ADD21FreePoly0,270.000000*%
%TD*%
%TA.AperFunction,SMDPad,CuDef*%
%ADD22R,1.500000X1.000000*%
%TD*%
%TA.AperFunction,SMDPad,CuDef*%
%ADD23FreePoly1,270.000000*%
%TD*%
%TA.AperFunction,SMDPad,CuDef*%
%ADD24FreePoly0,90.000000*%
%TD*%
%TA.AperFunction,SMDPad,CuDef*%
%ADD25FreePoly1,90.000000*%
%TD*%
%TA.AperFunction,ViaPad*%
%ADD26C,0.800000*%
%TD*%
%TA.AperFunction,Conductor*%
%ADD27C,0.381000*%
%TD*%
%TA.AperFunction,Conductor*%
%ADD28C,0.250000*%
%TD*%
G04 APERTURE END LIST*
D10*
%TA.AperFunction,EtchedComponent*%
%TO.C,JP3*%
G36*
X142540000Y-120758000D02*
G01*
X141940000Y-120758000D01*
X141940000Y-120258000D01*
X142540000Y-120258000D01*
X142540000Y-120758000D01*
G37*
%TD.AperFunction*%
%TA.AperFunction,EtchedComponent*%
%TO.C,JP4*%
G36*
X136190000Y-122058000D02*
G01*
X135590000Y-122058000D01*
X135590000Y-121558000D01*
X136190000Y-121558000D01*
X136190000Y-122058000D01*
G37*
%TD.AperFunction*%
%TD*%
D11*
%TO.P,M1,1*%
%TO.N,GND*%
X99815000Y-129199000D03*
%TD*%
%TO.P,M2,1*%
%TO.N,GND*%
X182365000Y-129199000D03*
%TD*%
%TO.P,M3,1*%
%TO.N,GND*%
X182365000Y-115949000D03*
%TD*%
%TO.P,M4,1*%
%TO.N,GND*%
X99815000Y-115949000D03*
%TD*%
D12*
%TO.P,ENC1,A,A*%
%TO.N,SW_DOWN*%
X177285000Y-124079000D03*
D13*
%TO.P,ENC1,B,B*%
%TO.N,SW_UP*%
X177285000Y-119079000D03*
%TO.P,ENC1,C,C*%
%TO.N,GND*%
X177285000Y-121579000D03*
D14*
%TO.P,ENC1,MP*%
%TO.N,N/C*%
X169785000Y-127179000D03*
X169785000Y-115979000D03*
D13*
%TO.P,ENC1,S1,S1*%
%TO.N,SW_ENTER*%
X162785000Y-119079000D03*
%TO.P,ENC1,S2,S2*%
%TO.N,GND*%
X162785000Y-124079000D03*
%TD*%
D15*
%TO.P,IC1,1,GND*%
%TO.N,Net-(IC1-GND)*%
X137280000Y-114467000D03*
D16*
%TO.P,IC1,2,VCC*%
%TO.N,Net-(IC1-VCC)*%
X139820000Y-114467000D03*
%TO.P,IC1,3,SCL*%
%TO.N,I2C_SCL*%
X142360000Y-114467000D03*
%TO.P,IC1,4,SDA*%
%TO.N,I2C_SDA*%
X144900000Y-114467000D03*
%TD*%
D13*
%TO.P,SW2,1,1*%
%TO.N,SW_INSERT*%
X115095000Y-124829000D03*
X115095000Y-118329000D03*
%TO.P,SW2,2,2*%
%TO.N,GND*%
X119595000Y-124829000D03*
X119595000Y-118329000D03*
%TD*%
%TO.P,SW1,1,1*%
%TO.N,SW_BACK*%
X106328000Y-124829000D03*
X106328000Y-118329000D03*
%TO.P,SW1,2,2*%
%TO.N,GND*%
X110828000Y-124829000D03*
X110828000Y-118329000D03*
%TD*%
D17*
%TO.P,D1,1,K*%
%TO.N,GND*%
X101085000Y-120650000D03*
D18*
%TO.P,D1,2,A*%
%TO.N,LED_PWR*%
X98545000Y-120650000D03*
%TD*%
D17*
%TO.P,D2,1,K*%
%TO.N,GND*%
X101085000Y-124460000D03*
D18*
%TO.P,D2,2,A*%
%TO.N,LED_ACT*%
X98545000Y-124460000D03*
%TD*%
D19*
%TO.P,J1,1,GND*%
%TO.N,GND*%
X133470000Y-130723000D03*
D20*
%TO.P,J1,2,LED_PWR*%
%TO.N,LED_PWR*%
X136010000Y-130723000D03*
%TO.P,J1,3,LED_ACT*%
%TO.N,LED_ACT*%
X138550000Y-130723000D03*
%TO.P,J1,4,SCL*%
%TO.N,I2C_SCL*%
X141090000Y-130723000D03*
%TO.P,J1,5,SDA*%
%TO.N,I2C_SDA*%
X143630000Y-130723000D03*
%TO.P,J1,6,ENTER*%
%TO.N,SW_ENTER*%
X146170000Y-130723000D03*
%TO.P,J1,7,UP*%
%TO.N,SW_UP*%
X148710000Y-130723000D03*
%TO.P,J1,8,DOWN*%
%TO.N,SW_DOWN*%
X151250000Y-130723000D03*
%TO.P,J1,9,BACK*%
%TO.N,SW_BACK*%
X153790000Y-130723000D03*
%TO.P,J1,10,INSERT*%
%TO.N,SW_INSERT*%
X156330000Y-130723000D03*
%TO.P,J1,11,GND*%
%TO.N,GND*%
X158870000Y-130723000D03*
%TO.P,J1,12,VCC*%
%TO.N,VCC*%
X161410000Y-130723000D03*
%TD*%
D21*
%TO.P,JP3,1,A*%
%TO.N,VCC*%
X142240000Y-119858000D03*
D22*
%TO.P,JP3,2,C*%
%TO.N,Net-(IC1-VCC)*%
X142240000Y-121158000D03*
D23*
%TO.P,JP3,3,B*%
%TO.N,GND*%
X142240000Y-122458000D03*
%TD*%
D24*
%TO.P,JP4,1,A*%
%TO.N,GND*%
X135890000Y-122458000D03*
D22*
%TO.P,JP4,2,C*%
%TO.N,Net-(IC1-GND)*%
X135890000Y-121158000D03*
D25*
%TO.P,JP4,3,B*%
%TO.N,VCC*%
X135890000Y-119858000D03*
%TD*%
D26*
%TO.N,VCC*%
X142240000Y-116409000D03*
X135890000Y-116409000D03*
%TO.N,I2C_SDA*%
X143637000Y-117221000D03*
%TO.N,I2C_SCL*%
X141097000Y-117221000D03*
%TO.N,SW_BACK*%
X140335000Y-127635000D03*
X151975000Y-127635000D03*
%TO.N,SW_INSERT*%
X152531210Y-126803956D03*
X139065000Y-126803956D03*
%TD*%
D27*
%TO.N,GND*%
X101085000Y-124961000D02*
X99815000Y-126231000D01*
X99815000Y-115949000D02*
X99815000Y-119380000D01*
X177285000Y-121579000D02*
X182365000Y-116499000D01*
X162785000Y-124079000D02*
X161164000Y-122458000D01*
X99815000Y-126231000D02*
X99815000Y-129199000D01*
X182365000Y-125244787D02*
X182365000Y-129199000D01*
X99815000Y-115949000D02*
X108448000Y-115949000D01*
X135890000Y-122458000D02*
X142240000Y-122458000D01*
X115225000Y-129199000D02*
X99815000Y-129199000D01*
X178699213Y-121579000D02*
X182365000Y-125244787D01*
X133470000Y-125610000D02*
X133470000Y-130723000D01*
X110828000Y-124829000D02*
X106458000Y-129199000D01*
X125489000Y-130723000D02*
X133470000Y-130723000D01*
X119595000Y-118329000D02*
X117215000Y-115949000D01*
X119595000Y-118329000D02*
X119595000Y-124829000D01*
X161164000Y-122458000D02*
X142240000Y-122458000D01*
X101085000Y-124460000D02*
X101085000Y-124961000D01*
X165285000Y-121579000D02*
X177285000Y-121579000D01*
X99815000Y-119380000D02*
X101085000Y-120650000D01*
X135890000Y-122458000D02*
X135890000Y-123190000D01*
X117215000Y-115949000D02*
X108448000Y-115949000D01*
X106458000Y-129199000D02*
X99815000Y-129199000D01*
X182365000Y-116499000D02*
X182365000Y-115949000D01*
X119595000Y-124829000D02*
X125489000Y-130723000D01*
X177285000Y-121579000D02*
X178699213Y-121579000D01*
X110828000Y-118329000D02*
X110828000Y-124829000D01*
X101085000Y-120650000D02*
X101085000Y-124460000D01*
X108448000Y-115949000D02*
X110828000Y-118329000D01*
X135890000Y-123190000D02*
X133470000Y-125610000D01*
X162785000Y-124079000D02*
X165285000Y-121579000D01*
X119595000Y-124829000D02*
X115225000Y-129199000D01*
%TO.N,VCC*%
X135890000Y-116409000D02*
X135890000Y-119858000D01*
X142240000Y-116409000D02*
X142240000Y-119858000D01*
D28*
%TO.N,I2C_SDA*%
X143637000Y-117221000D02*
X143637000Y-115730000D01*
X143637000Y-115730000D02*
X144900000Y-114467000D01*
%TO.N,I2C_SCL*%
X141097000Y-117221000D02*
X141097000Y-115730000D01*
X141097000Y-115730000D02*
X142360000Y-114467000D01*
%TO.N,SW_DOWN*%
X177245000Y-124119000D02*
X177285000Y-124079000D01*
%TO.N,SW_BACK*%
X140335000Y-127635000D02*
X151975000Y-127635000D01*
%TO.N,SW_INSERT*%
X139065000Y-126803956D02*
X139733936Y-126803956D01*
X139733936Y-126803956D02*
X152531210Y-126803956D01*
D27*
%TO.N,Net-(IC1-GND)*%
X137280000Y-114467000D02*
X137112976Y-114467000D01*
D28*
X135890000Y-121158000D02*
X136890000Y-121158000D01*
X137280000Y-120768000D02*
X137280000Y-114467000D01*
X136890000Y-121158000D02*
X137280000Y-120768000D01*
D27*
%TO.N,Net-(IC1-VCC)*%
X139820000Y-114467000D02*
X139820000Y-114975000D01*
D28*
X142240000Y-121158000D02*
X141478000Y-121158000D01*
X141478000Y-121158000D02*
X139820000Y-119500000D01*
X139820000Y-119500000D02*
X139820000Y-114467000D01*
%TD*%
%TA.AperFunction,Conductor*%
%TO.N,GND*%
G36*
X118146621Y-111019502D02*
G01*
X118193114Y-111073158D01*
X118204500Y-111125500D01*
X118204500Y-112784563D01*
X118219436Y-112799499D01*
X118219438Y-112799500D01*
X163960562Y-112799500D01*
X163975500Y-112784562D01*
X163975500Y-111125500D01*
X163995502Y-111057379D01*
X164049158Y-111010886D01*
X164101500Y-110999500D01*
X168878500Y-110999500D01*
X168946621Y-111019502D01*
X168993114Y-111073158D01*
X169004500Y-111125500D01*
X169004500Y-112784563D01*
X169019436Y-112799499D01*
X169019438Y-112799500D01*
X190938500Y-112799500D01*
X191006621Y-112819502D01*
X191053114Y-112873158D01*
X191064500Y-112925500D01*
X191064500Y-132222500D01*
X191044498Y-132290621D01*
X190990842Y-132337114D01*
X190938500Y-132348500D01*
X169019436Y-132348500D01*
X169004500Y-132363436D01*
X169004500Y-134022500D01*
X168984498Y-134090621D01*
X168930842Y-134137114D01*
X168878500Y-134148500D01*
X164101500Y-134148500D01*
X164033379Y-134128498D01*
X163986886Y-134074842D01*
X163975500Y-134022500D01*
X163975500Y-132363438D01*
X163975499Y-132363436D01*
X163960563Y-132348500D01*
X163960562Y-132348500D01*
X141100562Y-132348500D01*
X118240562Y-132348500D01*
X118219438Y-132348500D01*
X118219436Y-132348500D01*
X118204500Y-132363436D01*
X118204500Y-134022500D01*
X118184498Y-134090621D01*
X118130842Y-134137114D01*
X118078500Y-134148500D01*
X113301500Y-134148500D01*
X113233379Y-134128498D01*
X113186886Y-134074842D01*
X113175500Y-134022500D01*
X113175500Y-132363438D01*
X113175499Y-132363436D01*
X113160563Y-132348500D01*
X113160562Y-132348500D01*
X91241500Y-132348500D01*
X91173379Y-132328498D01*
X91126886Y-132274842D01*
X91115500Y-132222500D01*
X91115500Y-129051000D01*
X97557000Y-129051000D01*
X97557000Y-129346999D01*
X97595633Y-129640451D01*
X97672244Y-129926367D01*
X97785517Y-130199832D01*
X97785522Y-130199843D01*
X97933510Y-130456165D01*
X98048615Y-130606174D01*
X98572777Y-130082011D01*
X98652558Y-130191820D01*
X98822180Y-130361442D01*
X98931986Y-130441221D01*
X98407824Y-130965383D01*
X98557834Y-131080489D01*
X98814156Y-131228477D01*
X98814167Y-131228482D01*
X99087632Y-131341755D01*
X99373548Y-131418366D01*
X99667000Y-131456999D01*
X99667010Y-131457000D01*
X99962990Y-131457000D01*
X99962999Y-131456999D01*
X100256451Y-131418366D01*
X100542367Y-131341755D01*
X100815832Y-131228482D01*
X100815843Y-131228477D01*
X101072174Y-131080484D01*
X101222174Y-130965384D01*
X101222174Y-130965383D01*
X100698012Y-130441221D01*
X100807820Y-130361442D01*
X100977442Y-130191820D01*
X101057221Y-130082012D01*
X101581383Y-130606174D01*
X101581384Y-130606173D01*
X101696484Y-130456174D01*
X101844477Y-130199843D01*
X101844482Y-130199832D01*
X101957755Y-129926367D01*
X101985077Y-129824402D01*
X132112000Y-129824402D01*
X132112000Y-130469000D01*
X133039297Y-130469000D01*
X133004075Y-130530007D01*
X132970000Y-130657174D01*
X132970000Y-130788826D01*
X133004075Y-130915993D01*
X133039297Y-130977000D01*
X132112000Y-130977000D01*
X132112000Y-131621597D01*
X132118505Y-131682093D01*
X132169555Y-131818964D01*
X132169555Y-131818965D01*
X132257095Y-131935904D01*
X132374034Y-132023444D01*
X132510906Y-132074494D01*
X132571402Y-132080999D01*
X132571415Y-132081000D01*
X133216000Y-132081000D01*
X133216000Y-131153702D01*
X133277007Y-131188925D01*
X133404174Y-131223000D01*
X133535826Y-131223000D01*
X133662993Y-131188925D01*
X133724000Y-131153702D01*
X133724000Y-132081000D01*
X134368585Y-132081000D01*
X134368597Y-132080999D01*
X134429093Y-132074494D01*
X134565964Y-132023444D01*
X134565965Y-132023444D01*
X134682904Y-131935904D01*
X134770444Y-131818965D01*
X134814478Y-131700903D01*
X134857024Y-131644067D01*
X134923544Y-131619256D01*
X134992918Y-131634347D01*
X135021629Y-131655840D01*
X135124990Y-131759201D01*
X135124993Y-131759203D01*
X135124996Y-131759206D01*
X135297991Y-131884894D01*
X135488517Y-131981972D01*
X135691878Y-132048047D01*
X135691879Y-132048047D01*
X135691884Y-132048049D01*
X135903084Y-132081500D01*
X135903087Y-132081500D01*
X136116913Y-132081500D01*
X136116916Y-132081500D01*
X136328116Y-132048049D01*
X136531483Y-131981972D01*
X136722009Y-131884894D01*
X136895004Y-131759206D01*
X137046206Y-131608004D01*
X137171894Y-131435009D01*
X137171899Y-131434997D01*
X137172561Y-131433920D01*
X137172924Y-131433591D01*
X137174804Y-131431004D01*
X137175347Y-131431398D01*
X137225204Y-131386283D01*
X137295244Y-131374670D01*
X137360445Y-131402766D01*
X137385021Y-131431130D01*
X137385196Y-131431004D01*
X137386668Y-131433030D01*
X137387439Y-131433920D01*
X137388104Y-131435006D01*
X137388106Y-131435009D01*
X137513794Y-131608004D01*
X137513796Y-131608006D01*
X137513798Y-131608009D01*
X137664990Y-131759201D01*
X137664993Y-131759203D01*
X137664996Y-131759206D01*
X137837991Y-131884894D01*
X138028517Y-131981972D01*
X138231878Y-132048047D01*
X138231879Y-132048047D01*
X138231884Y-132048049D01*
X138443084Y-132081500D01*
X138443087Y-132081500D01*
X138656913Y-132081500D01*
X138656916Y-132081500D01*
X138868116Y-132048049D01*
X139071483Y-131981972D01*
X139262009Y-131884894D01*
X139435004Y-131759206D01*
X139586206Y-131608004D01*
X139711894Y-131435009D01*
X139711899Y-131434997D01*
X139712561Y-131433920D01*
X139712924Y-131433591D01*
X139714804Y-131431004D01*
X139715347Y-131431398D01*
X139765204Y-131386283D01*
X139835244Y-131374670D01*
X139900445Y-131402766D01*
X139925021Y-131431130D01*
X139925196Y-131431004D01*
X139926668Y-131433030D01*
X139927439Y-131433920D01*
X139928104Y-131435006D01*
X139928106Y-131435009D01*
X140053794Y-131608004D01*
X140053796Y-131608006D01*
X140053798Y-131608009D01*
X140204990Y-131759201D01*
X140204993Y-131759203D01*
X140204996Y-131759206D01*
X140377991Y-131884894D01*
X140568517Y-131981972D01*
X140771878Y-132048047D01*
X140771879Y-132048047D01*
X140771884Y-132048049D01*
X140983084Y-132081500D01*
X140983087Y-132081500D01*
X141196913Y-132081500D01*
X141196916Y-132081500D01*
X141408116Y-132048049D01*
X141611483Y-131981972D01*
X141802009Y-131884894D01*
X141975004Y-131759206D01*
X142126206Y-131608004D01*
X142251894Y-131435009D01*
X142251899Y-131434997D01*
X142252561Y-131433920D01*
X142252924Y-131433591D01*
X142254804Y-131431004D01*
X142255347Y-131431398D01*
X142305204Y-131386283D01*
X142375244Y-131374670D01*
X142440445Y-131402766D01*
X142465021Y-131431130D01*
X142465196Y-131431004D01*
X142466668Y-131433030D01*
X142467439Y-131433920D01*
X142468104Y-131435006D01*
X142468106Y-131435009D01*
X142593794Y-131608004D01*
X142593796Y-131608006D01*
X142593798Y-131608009D01*
X142744990Y-131759201D01*
X142744993Y-131759203D01*
X142744996Y-131759206D01*
X142917991Y-131884894D01*
X143108517Y-131981972D01*
X143311878Y-132048047D01*
X143311879Y-132048047D01*
X143311884Y-132048049D01*
X143523084Y-132081500D01*
X143523087Y-132081500D01*
X143736913Y-132081500D01*
X143736916Y-132081500D01*
X143948116Y-132048049D01*
X144151483Y-131981972D01*
X144342009Y-131884894D01*
X144515004Y-131759206D01*
X144666206Y-131608004D01*
X144791894Y-131435009D01*
X144791899Y-131434997D01*
X144792561Y-131433920D01*
X144792924Y-131433591D01*
X144794804Y-131431004D01*
X144795347Y-131431398D01*
X144845204Y-131386283D01*
X144915244Y-131374670D01*
X144980445Y-131402766D01*
X145005021Y-131431130D01*
X145005196Y-131431004D01*
X145006668Y-131433030D01*
X145007439Y-131433920D01*
X145008104Y-131435006D01*
X145008106Y-131435009D01*
X145133794Y-131608004D01*
X145133796Y-131608006D01*
X145133798Y-131608009D01*
X145284990Y-131759201D01*
X145284993Y-131759203D01*
X145284996Y-131759206D01*
X145457991Y-131884894D01*
X145648517Y-131981972D01*
X145851878Y-132048047D01*
X145851879Y-132048047D01*
X145851884Y-132048049D01*
X146063084Y-132081500D01*
X146063087Y-132081500D01*
X146276913Y-132081500D01*
X146276916Y-132081500D01*
X146488116Y-132048049D01*
X146691483Y-131981972D01*
X146882009Y-131884894D01*
X147055004Y-131759206D01*
X147206206Y-131608004D01*
X147331894Y-131435009D01*
X147331899Y-131434997D01*
X147332561Y-131433920D01*
X147332924Y-131433591D01*
X147334804Y-131431004D01*
X147335347Y-131431398D01*
X147385204Y-131386283D01*
X147455244Y-131374670D01*
X147520445Y-131402766D01*
X147545021Y-131431130D01*
X147545196Y-131431004D01*
X147546668Y-131433030D01*
X147547439Y-131433920D01*
X147548104Y-131435006D01*
X147548106Y-131435009D01*
X147673794Y-131608004D01*
X147673796Y-131608006D01*
X147673798Y-131608009D01*
X147824990Y-131759201D01*
X147824993Y-131759203D01*
X147824996Y-131759206D01*
X147997991Y-131884894D01*
X148188517Y-131981972D01*
X148391878Y-132048047D01*
X148391879Y-132048047D01*
X148391884Y-132048049D01*
X148603084Y-132081500D01*
X148603087Y-132081500D01*
X148816913Y-132081500D01*
X148816916Y-132081500D01*
X149028116Y-132048049D01*
X149231483Y-131981972D01*
X149422009Y-131884894D01*
X149595004Y-131759206D01*
X149746206Y-131608004D01*
X149871894Y-131435009D01*
X149871899Y-131434997D01*
X149872561Y-131433920D01*
X149872924Y-131433591D01*
X149874804Y-131431004D01*
X149875347Y-131431398D01*
X149925204Y-131386283D01*
X149995244Y-131374670D01*
X150060445Y-131402766D01*
X150085021Y-131431130D01*
X150085196Y-131431004D01*
X150086668Y-131433030D01*
X150087439Y-131433920D01*
X150088104Y-131435006D01*
X150088106Y-131435009D01*
X150213794Y-131608004D01*
X150213796Y-131608006D01*
X150213798Y-131608009D01*
X150364990Y-131759201D01*
X150364993Y-131759203D01*
X150364996Y-131759206D01*
X150537991Y-131884894D01*
X150728517Y-131981972D01*
X150931878Y-132048047D01*
X150931879Y-132048047D01*
X150931884Y-132048049D01*
X151143084Y-132081500D01*
X151143087Y-132081500D01*
X151356913Y-132081500D01*
X151356916Y-132081500D01*
X151568116Y-132048049D01*
X151771483Y-131981972D01*
X151962009Y-131884894D01*
X152135004Y-131759206D01*
X152286206Y-131608004D01*
X152411894Y-131435009D01*
X152411899Y-131434997D01*
X152412561Y-131433920D01*
X152412924Y-131433591D01*
X152414804Y-131431004D01*
X152415347Y-131431398D01*
X152465204Y-131386283D01*
X152535244Y-131374670D01*
X152600445Y-131402766D01*
X152625021Y-131431130D01*
X152625196Y-131431004D01*
X152626668Y-131433030D01*
X152627439Y-131433920D01*
X152628104Y-131435006D01*
X152628106Y-131435009D01*
X152753794Y-131608004D01*
X152753796Y-131608006D01*
X152753798Y-131608009D01*
X152904990Y-131759201D01*
X152904993Y-131759203D01*
X152904996Y-131759206D01*
X153077991Y-131884894D01*
X153268517Y-131981972D01*
X153471878Y-132048047D01*
X153471879Y-132048047D01*
X153471884Y-132048049D01*
X153683084Y-132081500D01*
X153683087Y-132081500D01*
X153896913Y-132081500D01*
X153896916Y-132081500D01*
X154108116Y-132048049D01*
X154311483Y-131981972D01*
X154502009Y-131884894D01*
X154675004Y-131759206D01*
X154826206Y-131608004D01*
X154951894Y-131435009D01*
X154951899Y-131434997D01*
X154952561Y-131433920D01*
X154952924Y-131433591D01*
X154954804Y-131431004D01*
X154955347Y-131431398D01*
X155005204Y-131386283D01*
X155075244Y-131374670D01*
X155140445Y-131402766D01*
X155165021Y-131431130D01*
X155165196Y-131431004D01*
X155166668Y-131433030D01*
X155167439Y-131433920D01*
X155168104Y-131435006D01*
X155168106Y-131435009D01*
X155293794Y-131608004D01*
X155293796Y-131608006D01*
X155293798Y-131608009D01*
X155444990Y-131759201D01*
X155444993Y-131759203D01*
X155444996Y-131759206D01*
X155617991Y-131884894D01*
X155808517Y-131981972D01*
X156011878Y-132048047D01*
X156011879Y-132048047D01*
X156011884Y-132048049D01*
X156223084Y-132081500D01*
X156223087Y-132081500D01*
X156436913Y-132081500D01*
X156436916Y-132081500D01*
X156648116Y-132048049D01*
X156851483Y-131981972D01*
X157042009Y-131884894D01*
X157215004Y-131759206D01*
X157366206Y-131608004D01*
X157491894Y-131435009D01*
X157491902Y-131434992D01*
X157492854Y-131433441D01*
X157493377Y-131432967D01*
X157494804Y-131431004D01*
X157495216Y-131431303D01*
X157545497Y-131385804D01*
X157615537Y-131374189D01*
X157680738Y-131402285D01*
X157705484Y-131430843D01*
X157705624Y-131430742D01*
X157706801Y-131432362D01*
X157707729Y-131433433D01*
X157708535Y-131434749D01*
X157834177Y-131607679D01*
X157985320Y-131758822D01*
X158158249Y-131884463D01*
X158348707Y-131981506D01*
X158348713Y-131981509D01*
X158551998Y-132047560D01*
X158616000Y-132057696D01*
X158616000Y-131153702D01*
X158677007Y-131188925D01*
X158804174Y-131223000D01*
X158935826Y-131223000D01*
X159062993Y-131188925D01*
X159124000Y-131153702D01*
X159124000Y-132057696D01*
X159188001Y-132047560D01*
X159391286Y-131981509D01*
X159391292Y-131981506D01*
X159581750Y-131884463D01*
X159754679Y-131758822D01*
X159905822Y-131607679D01*
X160031460Y-131434754D01*
X160032261Y-131433448D01*
X160032695Y-131433054D01*
X160034376Y-131430742D01*
X160034861Y-131431094D01*
X160084900Y-131385807D01*
X160154940Y-131374188D01*
X160220142Y-131402280D01*
X160245097Y-131431075D01*
X160245196Y-131431004D01*
X160246025Y-131432145D01*
X160247136Y-131433427D01*
X160248103Y-131435006D01*
X160264083Y-131457000D01*
X160373794Y-131608004D01*
X160373796Y-131608006D01*
X160373798Y-131608009D01*
X160524990Y-131759201D01*
X160524993Y-131759203D01*
X160524996Y-131759206D01*
X160697991Y-131884894D01*
X160888517Y-131981972D01*
X161091878Y-132048047D01*
X161091879Y-132048047D01*
X161091884Y-132048049D01*
X161303084Y-132081500D01*
X161303087Y-132081500D01*
X161516913Y-132081500D01*
X161516916Y-132081500D01*
X161728116Y-132048049D01*
X161931483Y-131981972D01*
X162122009Y-131884894D01*
X162295004Y-131759206D01*
X162446206Y-131608004D01*
X162571894Y-131435009D01*
X162668972Y-131244483D01*
X162735049Y-131041116D01*
X162768500Y-130829916D01*
X162768500Y-130616084D01*
X162735049Y-130404884D01*
X162668972Y-130201517D01*
X162571894Y-130010991D01*
X162446206Y-129837996D01*
X162446203Y-129837993D01*
X162446201Y-129837990D01*
X162295009Y-129686798D01*
X162295006Y-129686796D01*
X162295004Y-129686794D01*
X162122009Y-129561106D01*
X161931483Y-129464028D01*
X161931480Y-129464027D01*
X161931478Y-129464026D01*
X161728120Y-129397952D01*
X161728123Y-129397952D01*
X161667195Y-129388302D01*
X161516916Y-129364500D01*
X161303084Y-129364500D01*
X161091884Y-129397951D01*
X161091878Y-129397952D01*
X160888521Y-129464026D01*
X160888515Y-129464029D01*
X160697987Y-129561108D01*
X160524993Y-129686796D01*
X160524990Y-129686798D01*
X160373798Y-129837990D01*
X160373796Y-129837993D01*
X160248100Y-130010998D01*
X160247131Y-130012580D01*
X160246606Y-130013054D01*
X160245196Y-130014996D01*
X160244787Y-130014699D01*
X160194479Y-130060206D01*
X160124437Y-130071807D01*
X160059242Y-130043697D01*
X160034515Y-130015156D01*
X160034376Y-130015258D01*
X160033194Y-130013631D01*
X160032266Y-130012560D01*
X160031460Y-130011244D01*
X159905822Y-129838320D01*
X159754679Y-129687177D01*
X159581750Y-129561536D01*
X159391292Y-129464493D01*
X159391286Y-129464490D01*
X159188004Y-129398440D01*
X159124000Y-129388302D01*
X159124000Y-130292297D01*
X159062993Y-130257075D01*
X158935826Y-130223000D01*
X158804174Y-130223000D01*
X158677007Y-130257075D01*
X158616000Y-130292297D01*
X158616000Y-129388302D01*
X158551995Y-129398440D01*
X158348713Y-129464490D01*
X158348707Y-129464493D01*
X158158249Y-129561536D01*
X157985320Y-129687177D01*
X157834177Y-129838320D01*
X157708532Y-130011255D01*
X157707724Y-130012574D01*
X157707286Y-130012969D01*
X157705624Y-130015258D01*
X157705143Y-130014908D01*
X157655075Y-130060203D01*
X157585033Y-130071807D01*
X157519836Y-130043702D01*
X157494901Y-130014924D01*
X157494804Y-130014996D01*
X157493975Y-130013855D01*
X157492859Y-130012567D01*
X157491899Y-130011001D01*
X157491894Y-130010991D01*
X157366206Y-129837996D01*
X157366203Y-129837993D01*
X157366201Y-129837990D01*
X157215009Y-129686798D01*
X157215006Y-129686796D01*
X157215004Y-129686794D01*
X157042009Y-129561106D01*
X156851483Y-129464028D01*
X156851480Y-129464027D01*
X156851478Y-129464026D01*
X156648120Y-129397952D01*
X156648123Y-129397952D01*
X156587195Y-129388302D01*
X156436916Y-129364500D01*
X156223084Y-129364500D01*
X156011884Y-129397951D01*
X156011878Y-129397952D01*
X155808521Y-129464026D01*
X155808515Y-129464029D01*
X155617987Y-129561108D01*
X155444993Y-129686796D01*
X155444990Y-129686798D01*
X155293798Y-129837990D01*
X155293796Y-129837993D01*
X155168108Y-130010987D01*
X155167434Y-130012088D01*
X155167068Y-130012418D01*
X155165196Y-130014996D01*
X155164654Y-130014602D01*
X155114787Y-130059721D01*
X155044745Y-130071328D01*
X154979547Y-130043226D01*
X154954976Y-130014870D01*
X154954804Y-130014996D01*
X154953341Y-130012982D01*
X154952566Y-130012088D01*
X154951896Y-130010996D01*
X154951894Y-130010991D01*
X154826206Y-129837996D01*
X154826203Y-129837993D01*
X154826201Y-129837990D01*
X154675009Y-129686798D01*
X154675006Y-129686796D01*
X154675004Y-129686794D01*
X154502009Y-129561106D01*
X154311483Y-129464028D01*
X154311480Y-129464027D01*
X154311478Y-129464026D01*
X154108120Y-129397952D01*
X154108123Y-129397952D01*
X154047195Y-129388302D01*
X153896916Y-129364500D01*
X153683084Y-129364500D01*
X153471884Y-129397951D01*
X153471878Y-129397952D01*
X153268521Y-129464026D01*
X153268515Y-129464029D01*
X153077987Y-129561108D01*
X152904993Y-129686796D01*
X152904990Y-129686798D01*
X152753798Y-129837990D01*
X152753796Y-129837993D01*
X152628108Y-130010987D01*
X152627434Y-130012088D01*
X152627068Y-130012418D01*
X152625196Y-130014996D01*
X152624654Y-130014602D01*
X152574787Y-130059721D01*
X152504745Y-130071328D01*
X152439547Y-130043226D01*
X152414976Y-130014870D01*
X152414804Y-130014996D01*
X152413341Y-130012982D01*
X152412566Y-130012088D01*
X152411896Y-130010996D01*
X152411894Y-130010991D01*
X152286206Y-129837996D01*
X152286203Y-129837993D01*
X152286201Y-129837990D01*
X152135009Y-129686798D01*
X152135006Y-129686796D01*
X152135004Y-129686794D01*
X151962009Y-129561106D01*
X151771483Y-129464028D01*
X151771480Y-129464027D01*
X151771478Y-129464026D01*
X151568120Y-129397952D01*
X151568123Y-129397952D01*
X151507195Y-129388302D01*
X151356916Y-129364500D01*
X151143084Y-129364500D01*
X150931884Y-129397951D01*
X150931878Y-129397952D01*
X150728521Y-129464026D01*
X150728515Y-129464029D01*
X150537987Y-129561108D01*
X150364993Y-129686796D01*
X150364990Y-129686798D01*
X150213798Y-129837990D01*
X150213796Y-129837993D01*
X150088108Y-130010987D01*
X150087434Y-130012088D01*
X150087068Y-130012418D01*
X150085196Y-130014996D01*
X150084654Y-130014602D01*
X150034787Y-130059721D01*
X149964745Y-130071328D01*
X149899547Y-130043226D01*
X149874976Y-130014870D01*
X149874804Y-130014996D01*
X149873341Y-130012982D01*
X149872566Y-130012088D01*
X149871896Y-130010996D01*
X149871894Y-130010991D01*
X149746206Y-129837996D01*
X149746203Y-129837993D01*
X149746201Y-129837990D01*
X149595009Y-129686798D01*
X149595006Y-129686796D01*
X149595004Y-129686794D01*
X149422009Y-129561106D01*
X149231483Y-129464028D01*
X149231480Y-129464027D01*
X149231478Y-129464026D01*
X149028120Y-129397952D01*
X149028123Y-129397952D01*
X148967195Y-129388302D01*
X148816916Y-129364500D01*
X148603084Y-129364500D01*
X148391884Y-129397951D01*
X148391878Y-129397952D01*
X148188521Y-129464026D01*
X148188515Y-129464029D01*
X147997987Y-129561108D01*
X147824993Y-129686796D01*
X147824990Y-129686798D01*
X147673798Y-129837990D01*
X147673796Y-129837993D01*
X147548108Y-130010987D01*
X147547434Y-130012088D01*
X147547068Y-130012418D01*
X147545196Y-130014996D01*
X147544654Y-130014602D01*
X147494787Y-130059721D01*
X147424745Y-130071328D01*
X147359547Y-130043226D01*
X147334976Y-130014870D01*
X147334804Y-130014996D01*
X147333341Y-130012982D01*
X147332566Y-130012088D01*
X147331896Y-130010996D01*
X147331894Y-130010991D01*
X147206206Y-129837996D01*
X147206203Y-129837993D01*
X147206201Y-129837990D01*
X147055009Y-129686798D01*
X147055006Y-129686796D01*
X147055004Y-129686794D01*
X146882009Y-129561106D01*
X146691483Y-129464028D01*
X146691480Y-129464027D01*
X146691478Y-129464026D01*
X146488120Y-129397952D01*
X146488123Y-129397952D01*
X146427195Y-129388302D01*
X146276916Y-129364500D01*
X146063084Y-129364500D01*
X145851884Y-129397951D01*
X145851878Y-129397952D01*
X145648521Y-129464026D01*
X145648515Y-129464029D01*
X145457987Y-129561108D01*
X145284993Y-129686796D01*
X145284990Y-129686798D01*
X145133798Y-129837990D01*
X145133796Y-129837993D01*
X145008108Y-130010987D01*
X145007434Y-130012088D01*
X145007068Y-130012418D01*
X145005196Y-130014996D01*
X145004654Y-130014602D01*
X144954787Y-130059721D01*
X144884745Y-130071328D01*
X144819547Y-130043226D01*
X144794976Y-130014870D01*
X144794804Y-130014996D01*
X144793341Y-130012982D01*
X144792566Y-130012088D01*
X144791896Y-130010996D01*
X144791894Y-130010991D01*
X144666206Y-129837996D01*
X144666203Y-129837993D01*
X144666201Y-129837990D01*
X144515009Y-129686798D01*
X144515006Y-129686796D01*
X144515004Y-129686794D01*
X144342009Y-129561106D01*
X144151483Y-129464028D01*
X144151480Y-129464027D01*
X144151478Y-129464026D01*
X143948120Y-129397952D01*
X143948123Y-129397952D01*
X143887195Y-129388302D01*
X143736916Y-129364500D01*
X143523084Y-129364500D01*
X143311884Y-129397951D01*
X143311878Y-129397952D01*
X143108521Y-129464026D01*
X143108515Y-129464029D01*
X142917987Y-129561108D01*
X142744993Y-129686796D01*
X142744990Y-129686798D01*
X142593798Y-129837990D01*
X142593796Y-129837993D01*
X142468108Y-130010987D01*
X142467434Y-130012088D01*
X142467068Y-130012418D01*
X142465196Y-130014996D01*
X142464654Y-130014602D01*
X142414787Y-130059721D01*
X142344745Y-130071328D01*
X142279547Y-130043226D01*
X142254976Y-130014870D01*
X142254804Y-130014996D01*
X142253341Y-130012982D01*
X142252566Y-130012088D01*
X142251896Y-130010996D01*
X142251894Y-130010991D01*
X142126206Y-129837996D01*
X142126203Y-129837993D01*
X142126201Y-129837990D01*
X141975009Y-129686798D01*
X141975006Y-129686796D01*
X141975004Y-129686794D01*
X141802009Y-129561106D01*
X141611483Y-129464028D01*
X141611480Y-129464027D01*
X141611478Y-129464026D01*
X141408120Y-129397952D01*
X141408123Y-129397952D01*
X141347195Y-129388302D01*
X141196916Y-129364500D01*
X140983084Y-129364500D01*
X140771884Y-129397951D01*
X140771878Y-129397952D01*
X140568521Y-129464026D01*
X140568515Y-129464029D01*
X140377987Y-129561108D01*
X140204993Y-129686796D01*
X140204990Y-129686798D01*
X140053798Y-129837990D01*
X140053796Y-129837993D01*
X139928108Y-130010987D01*
X139927434Y-130012088D01*
X139927068Y-130012418D01*
X139925196Y-130014996D01*
X139924654Y-130014602D01*
X139874787Y-130059721D01*
X139804745Y-130071328D01*
X139739547Y-130043226D01*
X139714976Y-130014870D01*
X139714804Y-130014996D01*
X139713341Y-130012982D01*
X139712566Y-130012088D01*
X139711896Y-130010996D01*
X139711894Y-130010991D01*
X139586206Y-129837996D01*
X139586203Y-129837993D01*
X139586201Y-129837990D01*
X139435009Y-129686798D01*
X139435006Y-129686796D01*
X139435004Y-129686794D01*
X139262009Y-129561106D01*
X139071483Y-129464028D01*
X139071480Y-129464027D01*
X139071478Y-129464026D01*
X138868120Y-129397952D01*
X138868123Y-129397952D01*
X138807195Y-129388302D01*
X138656916Y-129364500D01*
X138443084Y-129364500D01*
X138231884Y-129397951D01*
X138231878Y-129397952D01*
X138028521Y-129464026D01*
X138028515Y-129464029D01*
X137837987Y-129561108D01*
X137664993Y-129686796D01*
X137664990Y-129686798D01*
X137513798Y-129837990D01*
X137513796Y-129837993D01*
X137388108Y-130010987D01*
X137387434Y-130012088D01*
X137387068Y-130012418D01*
X137385196Y-130014996D01*
X137384654Y-130014602D01*
X137334787Y-130059721D01*
X137264745Y-130071328D01*
X137199547Y-130043226D01*
X137174976Y-130014870D01*
X137174804Y-130014996D01*
X137173341Y-130012982D01*
X137172566Y-130012088D01*
X137171896Y-130010996D01*
X137171894Y-130010991D01*
X137046206Y-129837996D01*
X137046203Y-129837993D01*
X137046201Y-129837990D01*
X136895009Y-129686798D01*
X136895006Y-129686796D01*
X136895004Y-129686794D01*
X136722009Y-129561106D01*
X136531483Y-129464028D01*
X136531480Y-129464027D01*
X136531478Y-129464026D01*
X136328120Y-129397952D01*
X136328123Y-129397952D01*
X136267195Y-129388302D01*
X136116916Y-129364500D01*
X135903084Y-129364500D01*
X135691884Y-129397951D01*
X135691878Y-129397952D01*
X135488521Y-129464026D01*
X135488515Y-129464029D01*
X135297987Y-129561108D01*
X135124995Y-129686794D01*
X135021629Y-129790160D01*
X134959317Y-129824185D01*
X134888501Y-129819119D01*
X134831665Y-129776573D01*
X134814478Y-129745096D01*
X134770444Y-129627034D01*
X134682904Y-129510095D01*
X134565965Y-129422555D01*
X134429093Y-129371505D01*
X134368597Y-129365000D01*
X133724000Y-129365000D01*
X133724000Y-130292297D01*
X133662993Y-130257075D01*
X133535826Y-130223000D01*
X133404174Y-130223000D01*
X133277007Y-130257075D01*
X133216000Y-130292297D01*
X133216000Y-129365000D01*
X132571402Y-129365000D01*
X132510906Y-129371505D01*
X132374035Y-129422555D01*
X132374034Y-129422555D01*
X132257095Y-129510095D01*
X132169555Y-129627034D01*
X132169555Y-129627035D01*
X132118505Y-129763906D01*
X132112000Y-129824402D01*
X101985077Y-129824402D01*
X101994717Y-129788424D01*
X102034366Y-129640451D01*
X102072999Y-129346999D01*
X102073000Y-129346990D01*
X102073000Y-129051010D01*
X102072999Y-129051000D01*
X102034366Y-128757548D01*
X101957755Y-128471632D01*
X101844482Y-128198167D01*
X101844477Y-128198156D01*
X101696489Y-127941834D01*
X101581383Y-127791824D01*
X101057220Y-128315986D01*
X100977442Y-128206180D01*
X100807820Y-128036558D01*
X100698011Y-127956777D01*
X101222174Y-127432615D01*
X101072165Y-127317510D01*
X100815843Y-127169522D01*
X100815832Y-127169517D01*
X100542367Y-127056244D01*
X100256451Y-126979633D01*
X99962999Y-126941000D01*
X99667000Y-126941000D01*
X99373548Y-126979633D01*
X99087632Y-127056244D01*
X98814167Y-127169517D01*
X98814156Y-127169522D01*
X98557830Y-127317512D01*
X98407825Y-127432614D01*
X98407824Y-127432615D01*
X98931987Y-127956778D01*
X98822180Y-128036558D01*
X98652558Y-128206180D01*
X98572778Y-128315987D01*
X98048615Y-127791824D01*
X98048614Y-127791825D01*
X97933512Y-127941830D01*
X97785522Y-128198156D01*
X97785517Y-128198167D01*
X97672244Y-128471632D01*
X97595633Y-128757548D01*
X97557000Y-129051000D01*
X91115500Y-129051000D01*
X91115500Y-126714474D01*
X138156500Y-126714474D01*
X138156500Y-126714477D01*
X138156500Y-126893435D01*
X138191413Y-127068956D01*
X138259898Y-127234292D01*
X138359322Y-127383091D01*
X138485865Y-127509634D01*
X138634664Y-127609058D01*
X138800000Y-127677543D01*
X138975521Y-127712456D01*
X138975522Y-127712456D01*
X139154478Y-127712456D01*
X139154479Y-127712456D01*
X139290270Y-127685445D01*
X139360979Y-127691773D01*
X139417047Y-127735326D01*
X139438427Y-127784442D01*
X139439896Y-127791825D01*
X139461413Y-127900000D01*
X139529898Y-128065336D01*
X139629322Y-128214135D01*
X139755865Y-128340678D01*
X139904664Y-128440102D01*
X140070000Y-128508587D01*
X140245521Y-128543500D01*
X140245522Y-128543500D01*
X140424478Y-128543500D01*
X140424479Y-128543500D01*
X140600000Y-128508587D01*
X140765336Y-128440102D01*
X140914135Y-128340678D01*
X140949408Y-128305405D01*
X141011720Y-128271379D01*
X141038503Y-128268500D01*
X151271497Y-128268500D01*
X151339618Y-128288502D01*
X151360592Y-128305405D01*
X151395865Y-128340678D01*
X151544664Y-128440102D01*
X151710000Y-128508587D01*
X151885521Y-128543500D01*
X151885522Y-128543500D01*
X152064478Y-128543500D01*
X152064479Y-128543500D01*
X152240000Y-128508587D01*
X152405336Y-128440102D01*
X152554135Y-128340678D01*
X152680678Y-128214135D01*
X152780102Y-128065336D01*
X152848587Y-127900000D01*
X152883500Y-127724479D01*
X152883500Y-127724470D01*
X152884106Y-127718323D01*
X152885586Y-127718468D01*
X152903502Y-127657454D01*
X152957158Y-127610961D01*
X152961222Y-127609192D01*
X152961546Y-127609058D01*
X153110345Y-127509634D01*
X153236888Y-127383091D01*
X153336312Y-127234292D01*
X153404797Y-127068956D01*
X153410398Y-127040799D01*
X167676500Y-127040799D01*
X167676500Y-127317200D01*
X167712575Y-127591223D01*
X167784112Y-127858204D01*
X167784113Y-127858206D01*
X167784114Y-127858209D01*
X167889886Y-128113567D01*
X167889887Y-128113568D01*
X167889892Y-128113578D01*
X168028082Y-128352929D01*
X168196344Y-128572214D01*
X168196353Y-128572224D01*
X168391775Y-128767646D01*
X168391785Y-128767655D01*
X168611070Y-128935917D01*
X168614266Y-128937762D01*
X168850433Y-129074114D01*
X169105791Y-129179886D01*
X169372769Y-129251423D01*
X169372775Y-129251423D01*
X169372776Y-129251424D01*
X169404222Y-129255563D01*
X169646802Y-129287500D01*
X169646809Y-129287500D01*
X169923191Y-129287500D01*
X169923198Y-129287500D01*
X170197231Y-129251423D01*
X170464209Y-129179886D01*
X170719567Y-129074114D01*
X170759601Y-129051000D01*
X180107000Y-129051000D01*
X180107000Y-129346999D01*
X180145633Y-129640451D01*
X180222244Y-129926367D01*
X180335517Y-130199832D01*
X180335522Y-130199843D01*
X180483510Y-130456165D01*
X180598615Y-130606174D01*
X181122777Y-130082011D01*
X181202558Y-130191820D01*
X181372180Y-130361442D01*
X181481986Y-130441221D01*
X180957824Y-130965383D01*
X181107834Y-131080489D01*
X181364156Y-131228477D01*
X181364167Y-131228482D01*
X181637632Y-131341755D01*
X181923548Y-131418366D01*
X182217000Y-131456999D01*
X182217010Y-131457000D01*
X182512990Y-131457000D01*
X182512999Y-131456999D01*
X182806451Y-131418366D01*
X183092367Y-131341755D01*
X183365832Y-131228482D01*
X183365843Y-131228477D01*
X183622174Y-131080484D01*
X183772173Y-130965384D01*
X183772174Y-130965383D01*
X183248012Y-130441221D01*
X183357820Y-130361442D01*
X183527442Y-130191820D01*
X183607221Y-130082012D01*
X184131383Y-130606174D01*
X184131384Y-130606173D01*
X184246484Y-130456174D01*
X184394477Y-130199843D01*
X184394482Y-130199832D01*
X184507755Y-129926367D01*
X184584366Y-129640451D01*
X184622999Y-129346999D01*
X184623000Y-129346990D01*
X184623000Y-129051010D01*
X184622999Y-129051000D01*
X184584366Y-128757548D01*
X184507755Y-128471632D01*
X184394482Y-128198167D01*
X184394477Y-128198156D01*
X184246489Y-127941834D01*
X184131383Y-127791824D01*
X183607220Y-128315986D01*
X183527442Y-128206180D01*
X183357820Y-128036558D01*
X183248011Y-127956777D01*
X183772174Y-127432615D01*
X183622165Y-127317510D01*
X183365843Y-127169522D01*
X183365832Y-127169517D01*
X183092367Y-127056244D01*
X182806451Y-126979633D01*
X182512999Y-126941000D01*
X182217000Y-126941000D01*
X181923548Y-126979633D01*
X181637632Y-127056244D01*
X181364167Y-127169517D01*
X181364156Y-127169522D01*
X181107830Y-127317512D01*
X180957825Y-127432614D01*
X180957824Y-127432615D01*
X181481987Y-127956778D01*
X181372180Y-128036558D01*
X181202558Y-128206180D01*
X181122778Y-128315987D01*
X180598615Y-127791824D01*
X180598614Y-127791825D01*
X180483512Y-127941830D01*
X180335522Y-128198156D01*
X180335517Y-128198167D01*
X180222244Y-128471632D01*
X180145633Y-128757548D01*
X180107000Y-129051000D01*
X170759601Y-129051000D01*
X170958933Y-128935915D01*
X171178214Y-128767656D01*
X171373656Y-128572214D01*
X171541915Y-128352933D01*
X171680114Y-128113567D01*
X171785886Y-127858209D01*
X171857423Y-127591231D01*
X171893500Y-127317198D01*
X171893500Y-127040802D01*
X171857423Y-126766769D01*
X171785886Y-126499791D01*
X171680114Y-126244433D01*
X171607800Y-126119182D01*
X171541917Y-126005070D01*
X171537147Y-125998854D01*
X171373656Y-125785786D01*
X171373655Y-125785785D01*
X171373646Y-125785775D01*
X171178224Y-125590353D01*
X171178214Y-125590344D01*
X171020195Y-125469093D01*
X170958933Y-125422085D01*
X170958932Y-125422084D01*
X170958929Y-125422082D01*
X170719578Y-125283892D01*
X170719573Y-125283889D01*
X170719567Y-125283886D01*
X170464209Y-125178114D01*
X170464206Y-125178113D01*
X170464204Y-125178112D01*
X170244918Y-125119355D01*
X170197231Y-125106577D01*
X170197229Y-125106576D01*
X170197223Y-125106575D01*
X169923200Y-125070500D01*
X169923198Y-125070500D01*
X169646802Y-125070500D01*
X169646799Y-125070500D01*
X169372776Y-125106575D01*
X169105795Y-125178112D01*
X169105791Y-125178114D01*
X168997890Y-125222808D01*
X168850431Y-125283887D01*
X168850421Y-125283892D01*
X168611070Y-125422082D01*
X168391785Y-125590344D01*
X168391775Y-125590353D01*
X168196353Y-125785775D01*
X168196344Y-125785785D01*
X168028082Y-126005070D01*
X167889892Y-126244421D01*
X167889887Y-126244431D01*
X167784114Y-126499791D01*
X167784112Y-126499795D01*
X167712575Y-126766776D01*
X167676500Y-127040799D01*
X153410398Y-127040799D01*
X153439710Y-126893435D01*
X153439710Y-126714477D01*
X153404797Y-126538956D01*
X153336312Y-126373620D01*
X153236888Y-126224821D01*
X153110345Y-126098278D01*
X152961546Y-125998854D01*
X152844639Y-125950429D01*
X152796213Y-125930370D01*
X152796211Y-125930369D01*
X152796210Y-125930369D01*
X152707855Y-125912794D01*
X152620691Y-125895456D01*
X152620689Y-125895456D01*
X152441731Y-125895456D01*
X152441728Y-125895456D01*
X152310981Y-125921463D01*
X152266210Y-125930369D01*
X152266209Y-125930369D01*
X152266206Y-125930370D01*
X152100872Y-125998855D01*
X151952079Y-126098275D01*
X151952072Y-126098280D01*
X151916802Y-126133551D01*
X151854490Y-126167577D01*
X151827707Y-126170456D01*
X139768503Y-126170456D01*
X139700382Y-126150454D01*
X139679408Y-126133551D01*
X139644137Y-126098280D01*
X139644135Y-126098278D01*
X139495336Y-125998854D01*
X139378429Y-125950429D01*
X139330003Y-125930370D01*
X139330001Y-125930369D01*
X139330000Y-125930369D01*
X139241645Y-125912794D01*
X139154481Y-125895456D01*
X139154479Y-125895456D01*
X138975521Y-125895456D01*
X138975518Y-125895456D01*
X138844771Y-125921463D01*
X138800000Y-125930369D01*
X138799999Y-125930369D01*
X138799996Y-125930370D01*
X138634662Y-125998855D01*
X138485869Y-126098275D01*
X138485862Y-126098280D01*
X138359324Y-126224818D01*
X138359319Y-126224825D01*
X138259899Y-126373618D01*
X138191414Y-126538952D01*
X138156500Y-126714474D01*
X91115500Y-126714474D01*
X91115500Y-124349149D01*
X97136500Y-124349149D01*
X97136500Y-124570851D01*
X97171182Y-124789824D01*
X97171183Y-124789829D01*
X97222486Y-124947722D01*
X97239692Y-125000676D01*
X97340343Y-125198215D01*
X97340345Y-125198218D01*
X97470658Y-125377578D01*
X97627421Y-125534341D01*
X97627424Y-125534343D01*
X97806785Y-125664657D01*
X98004324Y-125765308D01*
X98215176Y-125833818D01*
X98434149Y-125868500D01*
X98434152Y-125868500D01*
X98655848Y-125868500D01*
X98655851Y-125868500D01*
X98874824Y-125833818D01*
X99085676Y-125765308D01*
X99283215Y-125664657D01*
X99462576Y-125534343D01*
X99502577Y-125494342D01*
X99564888Y-125460316D01*
X99635704Y-125465380D01*
X99692540Y-125507926D01*
X99709728Y-125539403D01*
X99734553Y-125605960D01*
X99734555Y-125605965D01*
X99822095Y-125722904D01*
X99939034Y-125810444D01*
X100075906Y-125861494D01*
X100136402Y-125867999D01*
X100136415Y-125868000D01*
X100831000Y-125868000D01*
X100831000Y-124832968D01*
X100911306Y-124879333D01*
X101025756Y-124910000D01*
X101144244Y-124910000D01*
X101258694Y-124879333D01*
X101339000Y-124832968D01*
X101339000Y-125868000D01*
X102033585Y-125868000D01*
X102033597Y-125867999D01*
X102094093Y-125861494D01*
X102230964Y-125810444D01*
X102230965Y-125810444D01*
X102347904Y-125722904D01*
X102435444Y-125605965D01*
X102435444Y-125605964D01*
X102486494Y-125469093D01*
X102492999Y-125408597D01*
X102493000Y-125408585D01*
X102493000Y-124714000D01*
X101457968Y-124714000D01*
X101460117Y-124710278D01*
X104819500Y-124710278D01*
X104819500Y-124947722D01*
X104856626Y-125182129D01*
X104856645Y-125182246D01*
X104929954Y-125407867D01*
X104930018Y-125408063D01*
X105037815Y-125619627D01*
X105177380Y-125811722D01*
X105177382Y-125811724D01*
X105177384Y-125811727D01*
X105345272Y-125979615D01*
X105345275Y-125979617D01*
X105345278Y-125979620D01*
X105537373Y-126119185D01*
X105748937Y-126226982D01*
X105974759Y-126300356D01*
X106209278Y-126337500D01*
X106209281Y-126337500D01*
X106446719Y-126337500D01*
X106446722Y-126337500D01*
X106681241Y-126300356D01*
X106907063Y-126226982D01*
X107118627Y-126119185D01*
X107310722Y-125979620D01*
X107310727Y-125979615D01*
X107367693Y-125922650D01*
X107478615Y-125811727D01*
X107478620Y-125811722D01*
X107618185Y-125619627D01*
X107725982Y-125408063D01*
X107799356Y-125182241D01*
X107836500Y-124947722D01*
X107836500Y-124710321D01*
X109320000Y-124710321D01*
X109320000Y-124947678D01*
X109357133Y-125182129D01*
X109430480Y-125407867D01*
X109538246Y-125619368D01*
X109597230Y-125700556D01*
X109597232Y-125700556D01*
X110303016Y-124994771D01*
X110315482Y-125041292D01*
X110387890Y-125166708D01*
X110490292Y-125269110D01*
X110615708Y-125341518D01*
X110662226Y-125353982D01*
X109956442Y-126059766D01*
X110037636Y-126118756D01*
X110037637Y-126118757D01*
X110249132Y-126226519D01*
X110474870Y-126299866D01*
X110709321Y-126337000D01*
X110946679Y-126337000D01*
X111181129Y-126299866D01*
X111406867Y-126226519D01*
X111618367Y-126118754D01*
X111699556Y-126059767D01*
X111699556Y-126059765D01*
X110993773Y-125353982D01*
X111040292Y-125341518D01*
X111165708Y-125269110D01*
X111268110Y-125166708D01*
X111340518Y-125041292D01*
X111352982Y-124994773D01*
X112058765Y-125700556D01*
X112058767Y-125700556D01*
X112117754Y-125619367D01*
X112225519Y-125407867D01*
X112298866Y-125182129D01*
X112336000Y-124947678D01*
X112336000Y-124710321D01*
X112335993Y-124710278D01*
X113586500Y-124710278D01*
X113586500Y-124947722D01*
X113623626Y-125182129D01*
X113623645Y-125182246D01*
X113696954Y-125407867D01*
X113697018Y-125408063D01*
X113804815Y-125619627D01*
X113944380Y-125811722D01*
X113944382Y-125811724D01*
X113944384Y-125811727D01*
X114112272Y-125979615D01*
X114112275Y-125979617D01*
X114112278Y-125979620D01*
X114304373Y-126119185D01*
X114515937Y-126226982D01*
X114741759Y-126300356D01*
X114976278Y-126337500D01*
X114976281Y-126337500D01*
X115213719Y-126337500D01*
X115213722Y-126337500D01*
X115448241Y-126300356D01*
X115674063Y-126226982D01*
X115885627Y-126119185D01*
X116077722Y-125979620D01*
X116077727Y-125979615D01*
X116134693Y-125922650D01*
X116245615Y-125811727D01*
X116245620Y-125811722D01*
X116385185Y-125619627D01*
X116492982Y-125408063D01*
X116566356Y-125182241D01*
X116603500Y-124947722D01*
X116603500Y-124710321D01*
X118087000Y-124710321D01*
X118087000Y-124947678D01*
X118124133Y-125182129D01*
X118197480Y-125407867D01*
X118305246Y-125619368D01*
X118364230Y-125700556D01*
X118364232Y-125700556D01*
X119070016Y-124994771D01*
X119082482Y-125041292D01*
X119154890Y-125166708D01*
X119257292Y-125269110D01*
X119382708Y-125341518D01*
X119429226Y-125353982D01*
X118723442Y-126059766D01*
X118804636Y-126118756D01*
X118804637Y-126118757D01*
X119016132Y-126226519D01*
X119241870Y-126299866D01*
X119476321Y-126337000D01*
X119713679Y-126337000D01*
X119948129Y-126299866D01*
X120173867Y-126226519D01*
X120385367Y-126118754D01*
X120466556Y-126059767D01*
X120466556Y-126059765D01*
X119760773Y-125353982D01*
X119807292Y-125341518D01*
X119932708Y-125269110D01*
X120035110Y-125166708D01*
X120107518Y-125041292D01*
X120119982Y-124994773D01*
X120825765Y-125700556D01*
X120825767Y-125700556D01*
X120884754Y-125619367D01*
X120992518Y-125407869D01*
X121052649Y-125222808D01*
X121052649Y-125222807D01*
X121065866Y-125182129D01*
X121103000Y-124947678D01*
X121103000Y-124710321D01*
X121065866Y-124475870D01*
X120992519Y-124250132D01*
X120884757Y-124038637D01*
X120884753Y-124038631D01*
X120878065Y-124029425D01*
X120827858Y-123960321D01*
X161277000Y-123960321D01*
X161277000Y-124197678D01*
X161314133Y-124432129D01*
X161387480Y-124657867D01*
X161495246Y-124869368D01*
X161554230Y-124950556D01*
X161554232Y-124950556D01*
X162300841Y-124203946D01*
X162319075Y-124271993D01*
X162384901Y-124386007D01*
X162477993Y-124479099D01*
X162592007Y-124544925D01*
X162660051Y-124563157D01*
X161913442Y-125309766D01*
X161994636Y-125368756D01*
X161994637Y-125368757D01*
X162206132Y-125476519D01*
X162431870Y-125549866D01*
X162666321Y-125587000D01*
X162903679Y-125587000D01*
X163138129Y-125549866D01*
X163363867Y-125476519D01*
X163575367Y-125368754D01*
X163656556Y-125309767D01*
X163656556Y-125309765D01*
X162909948Y-124563157D01*
X162977993Y-124544925D01*
X163092007Y-124479099D01*
X163185099Y-124386007D01*
X163250925Y-124271993D01*
X163269157Y-124203948D01*
X164015765Y-124950556D01*
X164015767Y-124950556D01*
X164074754Y-124869367D01*
X164182519Y-124657867D01*
X164255866Y-124432129D01*
X164293000Y-124197678D01*
X164293000Y-123960321D01*
X164255866Y-123725870D01*
X164182519Y-123500132D01*
X164074757Y-123288637D01*
X164074756Y-123288636D01*
X164015766Y-123207442D01*
X163269157Y-123954051D01*
X163250925Y-123886007D01*
X163185099Y-123771993D01*
X163092007Y-123678901D01*
X162977993Y-123613075D01*
X162909946Y-123594841D01*
X163566896Y-122937893D01*
X163656556Y-122848233D01*
X163656556Y-122848230D01*
X163575368Y-122789246D01*
X163363867Y-122681480D01*
X163138129Y-122608133D01*
X162903679Y-122571000D01*
X162666321Y-122571000D01*
X162431870Y-122608133D01*
X162206132Y-122681480D01*
X161994634Y-122789243D01*
X161913442Y-122848231D01*
X162660052Y-123594841D01*
X162592007Y-123613075D01*
X162477993Y-123678901D01*
X162384901Y-123771993D01*
X162319075Y-123886007D01*
X162300841Y-123954052D01*
X161554231Y-123207442D01*
X161495243Y-123288634D01*
X161387480Y-123500132D01*
X161314133Y-123725870D01*
X161277000Y-123960321D01*
X120827858Y-123960321D01*
X120825766Y-123957442D01*
X120119982Y-124663226D01*
X120107518Y-124616708D01*
X120035110Y-124491292D01*
X119932708Y-124388890D01*
X119807292Y-124316482D01*
X119760771Y-124304016D01*
X120466556Y-123598232D01*
X120466556Y-123598230D01*
X120385368Y-123539246D01*
X120173867Y-123431480D01*
X119948129Y-123358133D01*
X119713679Y-123321000D01*
X119476321Y-123321000D01*
X119241870Y-123358133D01*
X119016132Y-123431480D01*
X118804634Y-123539243D01*
X118723442Y-123598231D01*
X119429227Y-124304017D01*
X119382708Y-124316482D01*
X119257292Y-124388890D01*
X119154890Y-124491292D01*
X119082482Y-124616708D01*
X119070017Y-124663227D01*
X118364231Y-123957442D01*
X118305243Y-124038634D01*
X118197480Y-124250132D01*
X118124133Y-124475870D01*
X118087000Y-124710321D01*
X116603500Y-124710321D01*
X116603500Y-124710278D01*
X116566356Y-124475759D01*
X116492982Y-124249937D01*
X116385185Y-124038373D01*
X116245620Y-123846278D01*
X116245617Y-123846275D01*
X116245615Y-123846272D01*
X116077727Y-123678384D01*
X116077724Y-123678382D01*
X116077722Y-123678380D01*
X115933121Y-123573322D01*
X115885630Y-123538817D01*
X115885629Y-123538816D01*
X115885627Y-123538815D01*
X115674063Y-123431018D01*
X115674060Y-123431017D01*
X115674058Y-123431016D01*
X115448246Y-123357645D01*
X115448242Y-123357644D01*
X115448241Y-123357644D01*
X115213722Y-123320500D01*
X114976278Y-123320500D01*
X114741759Y-123357644D01*
X114741753Y-123357645D01*
X114515941Y-123431016D01*
X114515935Y-123431019D01*
X114304369Y-123538817D01*
X114112275Y-123678382D01*
X114112272Y-123678384D01*
X113944384Y-123846272D01*
X113944382Y-123846275D01*
X113804817Y-124038369D01*
X113697019Y-124249935D01*
X113697016Y-124249941D01*
X113623645Y-124475753D01*
X113623644Y-124475758D01*
X113623644Y-124475759D01*
X113586500Y-124710278D01*
X112335993Y-124710278D01*
X112298866Y-124475870D01*
X112225519Y-124250132D01*
X112117757Y-124038637D01*
X112117756Y-124038636D01*
X112058766Y-123957442D01*
X111352982Y-124663226D01*
X111340518Y-124616708D01*
X111268110Y-124491292D01*
X111165708Y-124388890D01*
X111040292Y-124316482D01*
X110993771Y-124304016D01*
X111699556Y-123598232D01*
X111699556Y-123598230D01*
X111618368Y-123539246D01*
X111406867Y-123431480D01*
X111181129Y-123358133D01*
X110946679Y-123321000D01*
X110709321Y-123321000D01*
X110474870Y-123358133D01*
X110249132Y-123431480D01*
X110037634Y-123539243D01*
X109956442Y-123598231D01*
X110662227Y-124304017D01*
X110615708Y-124316482D01*
X110490292Y-124388890D01*
X110387890Y-124491292D01*
X110315482Y-124616708D01*
X110303017Y-124663227D01*
X109597231Y-123957442D01*
X109538243Y-124038634D01*
X109430480Y-124250132D01*
X109357133Y-124475870D01*
X109320000Y-124710321D01*
X107836500Y-124710321D01*
X107836500Y-124710278D01*
X107799356Y-124475759D01*
X107725982Y-124249937D01*
X107618185Y-124038373D01*
X107478620Y-123846278D01*
X107478617Y-123846275D01*
X107478615Y-123846272D01*
X107310727Y-123678384D01*
X107310724Y-123678382D01*
X107310722Y-123678380D01*
X107166121Y-123573322D01*
X107118630Y-123538817D01*
X107118629Y-123538816D01*
X107118627Y-123538815D01*
X106907063Y-123431018D01*
X106907060Y-123431017D01*
X106907058Y-123431016D01*
X106681246Y-123357645D01*
X106681242Y-123357644D01*
X106681241Y-123357644D01*
X106446722Y-123320500D01*
X106209278Y-123320500D01*
X105974759Y-123357644D01*
X105974753Y-123357645D01*
X105748941Y-123431016D01*
X105748935Y-123431019D01*
X105537369Y-123538817D01*
X105345275Y-123678382D01*
X105345272Y-123678384D01*
X105177384Y-123846272D01*
X105177382Y-123846275D01*
X105037817Y-124038369D01*
X104930019Y-124249935D01*
X104930016Y-124249941D01*
X104856645Y-124475753D01*
X104856644Y-124475758D01*
X104856644Y-124475759D01*
X104819500Y-124710278D01*
X101460117Y-124710278D01*
X101504333Y-124633694D01*
X101535000Y-124519244D01*
X101535000Y-124400756D01*
X101504333Y-124286306D01*
X101457968Y-124206000D01*
X102493000Y-124206000D01*
X102493000Y-123511414D01*
X102492999Y-123511402D01*
X102486494Y-123450906D01*
X102435444Y-123314035D01*
X102435444Y-123314034D01*
X102347904Y-123197095D01*
X102230965Y-123109555D01*
X102094093Y-123058505D01*
X102033597Y-123052000D01*
X101339000Y-123052000D01*
X101339000Y-124087031D01*
X101258694Y-124040667D01*
X101144244Y-124010000D01*
X101025756Y-124010000D01*
X100911306Y-124040667D01*
X100831000Y-124087031D01*
X100831000Y-123052000D01*
X100136402Y-123052000D01*
X100075906Y-123058505D01*
X99939035Y-123109555D01*
X99939034Y-123109555D01*
X99822095Y-123197095D01*
X99734555Y-123314034D01*
X99734554Y-123314037D01*
X99709728Y-123380597D01*
X99667181Y-123437432D01*
X99600660Y-123462242D01*
X99531286Y-123447150D01*
X99502578Y-123425658D01*
X99462578Y-123385658D01*
X99283218Y-123255345D01*
X99283217Y-123255344D01*
X99283215Y-123255343D01*
X99085676Y-123154692D01*
X99085673Y-123154691D01*
X99085671Y-123154690D01*
X98874829Y-123086183D01*
X98874825Y-123086182D01*
X98874824Y-123086182D01*
X98655851Y-123051500D01*
X98434149Y-123051500D01*
X98215176Y-123086182D01*
X98215170Y-123086183D01*
X98004328Y-123154690D01*
X98004322Y-123154693D01*
X97806781Y-123255345D01*
X97627421Y-123385658D01*
X97470658Y-123542421D01*
X97340345Y-123721781D01*
X97239693Y-123919322D01*
X97239690Y-123919328D01*
X97171183Y-124130170D01*
X97171182Y-124130175D01*
X97171182Y-124130176D01*
X97136500Y-124349149D01*
X91115500Y-124349149D01*
X91115500Y-120539149D01*
X97136500Y-120539149D01*
X97136500Y-120760851D01*
X97166900Y-120952787D01*
X97171183Y-120979829D01*
X97233570Y-121171835D01*
X97239692Y-121190676D01*
X97339218Y-121386007D01*
X97340345Y-121388218D01*
X97470658Y-121567578D01*
X97627421Y-121724341D01*
X97627424Y-121724343D01*
X97806785Y-121854657D01*
X98004324Y-121955308D01*
X98215176Y-122023818D01*
X98434149Y-122058500D01*
X98434152Y-122058500D01*
X98655848Y-122058500D01*
X98655851Y-122058500D01*
X98874824Y-122023818D01*
X99085676Y-121955308D01*
X99283215Y-121854657D01*
X99462576Y-121724343D01*
X99502577Y-121684342D01*
X99564888Y-121650316D01*
X99635704Y-121655380D01*
X99692540Y-121697926D01*
X99709728Y-121729403D01*
X99734553Y-121795960D01*
X99734555Y-121795965D01*
X99822095Y-121912904D01*
X99939034Y-122000444D01*
X100075906Y-122051494D01*
X100136402Y-122057999D01*
X100136415Y-122058000D01*
X100831000Y-122058000D01*
X100831000Y-121022968D01*
X100911306Y-121069333D01*
X101025756Y-121100000D01*
X101144244Y-121100000D01*
X101258694Y-121069333D01*
X101339000Y-121022968D01*
X101339000Y-122058000D01*
X102033585Y-122058000D01*
X102033597Y-122057999D01*
X102094093Y-122051494D01*
X102230964Y-122000444D01*
X102230965Y-122000444D01*
X102347904Y-121912904D01*
X102435444Y-121795965D01*
X102435444Y-121795964D01*
X102486494Y-121659093D01*
X102492999Y-121598597D01*
X102493000Y-121598585D01*
X102493000Y-120904000D01*
X101457968Y-120904000D01*
X101504333Y-120823694D01*
X101535000Y-120709244D01*
X101535000Y-120590756D01*
X101504333Y-120476306D01*
X101457968Y-120396000D01*
X102493000Y-120396000D01*
X102493000Y-119701414D01*
X102492999Y-119701402D01*
X102486494Y-119640906D01*
X102435444Y-119504035D01*
X102435444Y-119504034D01*
X102347904Y-119387095D01*
X102230965Y-119299555D01*
X102094093Y-119248505D01*
X102033597Y-119242000D01*
X101339000Y-119242000D01*
X101339000Y-120277031D01*
X101258694Y-120230667D01*
X101144244Y-120200000D01*
X101025756Y-120200000D01*
X100911306Y-120230667D01*
X100831000Y-120277031D01*
X100831000Y-119242000D01*
X100136402Y-119242000D01*
X100075906Y-119248505D01*
X99939035Y-119299555D01*
X99939034Y-119299555D01*
X99822095Y-119387095D01*
X99734555Y-119504034D01*
X99734554Y-119504037D01*
X99709728Y-119570597D01*
X99667181Y-119627432D01*
X99600660Y-119652242D01*
X99531286Y-119637150D01*
X99502578Y-119615658D01*
X99462578Y-119575658D01*
X99283218Y-119445345D01*
X99283217Y-119445344D01*
X99283215Y-119445343D01*
X99085676Y-119344692D01*
X99085673Y-119344691D01*
X99085671Y-119344690D01*
X98874829Y-119276183D01*
X98874825Y-119276182D01*
X98874824Y-119276182D01*
X98655851Y-119241500D01*
X98434149Y-119241500D01*
X98215176Y-119276182D01*
X98215170Y-119276183D01*
X98004328Y-119344690D01*
X98004322Y-119344693D01*
X97806781Y-119445345D01*
X97627421Y-119575658D01*
X97470658Y-119732421D01*
X97340345Y-119911781D01*
X97239693Y-120109322D01*
X97239690Y-120109328D01*
X97171183Y-120320170D01*
X97171182Y-120320175D01*
X97171182Y-120320176D01*
X97136500Y-120539149D01*
X91115500Y-120539149D01*
X91115500Y-118210278D01*
X104819500Y-118210278D01*
X104819500Y-118447722D01*
X104827771Y-118499941D01*
X104856645Y-118682246D01*
X104929954Y-118907867D01*
X104930018Y-118908063D01*
X105037815Y-119119627D01*
X105177380Y-119311722D01*
X105177382Y-119311724D01*
X105177384Y-119311727D01*
X105345272Y-119479615D01*
X105345275Y-119479617D01*
X105345278Y-119479620D01*
X105537373Y-119619185D01*
X105748937Y-119726982D01*
X105974759Y-119800356D01*
X106209278Y-119837500D01*
X106209281Y-119837500D01*
X106446719Y-119837500D01*
X106446722Y-119837500D01*
X106681241Y-119800356D01*
X106907063Y-119726982D01*
X107118627Y-119619185D01*
X107310722Y-119479620D01*
X107310727Y-119479615D01*
X107367693Y-119422650D01*
X107478615Y-119311727D01*
X107478620Y-119311722D01*
X107618185Y-119119627D01*
X107725982Y-118908063D01*
X107799356Y-118682241D01*
X107836500Y-118447722D01*
X107836500Y-118210321D01*
X109320000Y-118210321D01*
X109320000Y-118447678D01*
X109357133Y-118682129D01*
X109430480Y-118907867D01*
X109538246Y-119119368D01*
X109597230Y-119200556D01*
X109597232Y-119200556D01*
X110303016Y-118494771D01*
X110315482Y-118541292D01*
X110387890Y-118666708D01*
X110490292Y-118769110D01*
X110615708Y-118841518D01*
X110662226Y-118853982D01*
X109956442Y-119559766D01*
X110037636Y-119618756D01*
X110037637Y-119618757D01*
X110249132Y-119726519D01*
X110474870Y-119799866D01*
X110709321Y-119837000D01*
X110946679Y-119837000D01*
X111181129Y-119799866D01*
X111406867Y-119726519D01*
X111618367Y-119618754D01*
X111699556Y-119559767D01*
X111699556Y-119559765D01*
X110993773Y-118853982D01*
X111040292Y-118841518D01*
X111165708Y-118769110D01*
X111268110Y-118666708D01*
X111340518Y-118541292D01*
X111352982Y-118494773D01*
X112058765Y-119200556D01*
X112058767Y-119200556D01*
X112117754Y-119119367D01*
X112225519Y-118907867D01*
X112298866Y-118682129D01*
X112336000Y-118447678D01*
X112336000Y-118210321D01*
X112335993Y-118210278D01*
X113586500Y-118210278D01*
X113586500Y-118447722D01*
X113594771Y-118499941D01*
X113623645Y-118682246D01*
X113696954Y-118907867D01*
X113697018Y-118908063D01*
X113804815Y-119119627D01*
X113944380Y-119311722D01*
X113944382Y-119311724D01*
X113944384Y-119311727D01*
X114112272Y-119479615D01*
X114112275Y-119479617D01*
X114112278Y-119479620D01*
X114304373Y-119619185D01*
X114515937Y-119726982D01*
X114741759Y-119800356D01*
X114976278Y-119837500D01*
X114976281Y-119837500D01*
X115213719Y-119837500D01*
X115213722Y-119837500D01*
X115448241Y-119800356D01*
X115674063Y-119726982D01*
X115885627Y-119619185D01*
X116077722Y-119479620D01*
X116077727Y-119479615D01*
X116134693Y-119422650D01*
X116245615Y-119311727D01*
X116245620Y-119311722D01*
X116385185Y-119119627D01*
X116492982Y-118908063D01*
X116566356Y-118682241D01*
X116603500Y-118447722D01*
X116603500Y-118210321D01*
X118087000Y-118210321D01*
X118087000Y-118447678D01*
X118124133Y-118682129D01*
X118197480Y-118907867D01*
X118305246Y-119119368D01*
X118364230Y-119200556D01*
X118364232Y-119200556D01*
X119070016Y-118494771D01*
X119082482Y-118541292D01*
X119154890Y-118666708D01*
X119257292Y-118769110D01*
X119382708Y-118841518D01*
X119429226Y-118853982D01*
X118723442Y-119559766D01*
X118804636Y-119618756D01*
X118804637Y-119618757D01*
X119016132Y-119726519D01*
X119241870Y-119799866D01*
X119476321Y-119837000D01*
X119713679Y-119837000D01*
X119948129Y-119799866D01*
X119971812Y-119792171D01*
X134626500Y-119792171D01*
X134626500Y-120407994D01*
X134631727Y-120481078D01*
X134634678Y-120491130D01*
X134636031Y-120540659D01*
X134638853Y-120540963D01*
X134631500Y-120609350D01*
X134631500Y-121706649D01*
X134638009Y-121767196D01*
X134638011Y-121767204D01*
X134689110Y-121904202D01*
X134689112Y-121904207D01*
X134776738Y-122021261D01*
X134893792Y-122108887D01*
X134893794Y-122108888D01*
X134893796Y-122108889D01*
X134952875Y-122130924D01*
X135030795Y-122159988D01*
X135030803Y-122159990D01*
X135091350Y-122166499D01*
X135091355Y-122166499D01*
X135091362Y-122166500D01*
X135091368Y-122166500D01*
X136688632Y-122166500D01*
X136688638Y-122166500D01*
X136688645Y-122166499D01*
X136688649Y-122166499D01*
X136749196Y-122159990D01*
X136749199Y-122159989D01*
X136749201Y-122159989D01*
X136886204Y-122108889D01*
X137003261Y-122021261D01*
X137052633Y-121955308D01*
X137090887Y-121904207D01*
X137090887Y-121904206D01*
X137090889Y-121904204D01*
X137135637Y-121784229D01*
X137178182Y-121727397D01*
X137185054Y-121723027D01*
X137184928Y-121722839D01*
X137209158Y-121706649D01*
X137293833Y-121650071D01*
X137772071Y-121171833D01*
X137841400Y-121068075D01*
X137889155Y-120952785D01*
X137913500Y-120830394D01*
X137913500Y-120705607D01*
X137913500Y-115965100D01*
X137933502Y-115896979D01*
X137987158Y-115850486D01*
X138039500Y-115839100D01*
X138192232Y-115839100D01*
X138192238Y-115839100D01*
X138192245Y-115839099D01*
X138192249Y-115839099D01*
X138252796Y-115832590D01*
X138252799Y-115832589D01*
X138252801Y-115832589D01*
X138389804Y-115781489D01*
X138416679Y-115761371D01*
X138506861Y-115693861D01*
X138594486Y-115576808D01*
X138594485Y-115576808D01*
X138594489Y-115576804D01*
X138633244Y-115472896D01*
X138675790Y-115416064D01*
X138742311Y-115391253D01*
X138811685Y-115406345D01*
X138840394Y-115427837D01*
X138926131Y-115513574D01*
X138926134Y-115513576D01*
X138926137Y-115513579D01*
X139100863Y-115640525D01*
X139117702Y-115649104D01*
X139169316Y-115697849D01*
X139186500Y-115761371D01*
X139186500Y-119562396D01*
X139189138Y-119575657D01*
X139210845Y-119684785D01*
X139258600Y-119800075D01*
X139327929Y-119903833D01*
X139327931Y-119903835D01*
X140944595Y-121520499D01*
X140978621Y-121582811D01*
X140981500Y-121609594D01*
X140981500Y-121706649D01*
X140988009Y-121767196D01*
X140988011Y-121767204D01*
X141039110Y-121904202D01*
X141039112Y-121904207D01*
X141126738Y-122021261D01*
X141243792Y-122108887D01*
X141243794Y-122108888D01*
X141243796Y-122108889D01*
X141302875Y-122130924D01*
X141380795Y-122159988D01*
X141380803Y-122159990D01*
X141441350Y-122166499D01*
X141441355Y-122166499D01*
X141441362Y-122166500D01*
X141441368Y-122166500D01*
X143038632Y-122166500D01*
X143038638Y-122166500D01*
X143038645Y-122166499D01*
X143038649Y-122166499D01*
X143099196Y-122159990D01*
X143099199Y-122159989D01*
X143099201Y-122159989D01*
X143236204Y-122108889D01*
X143353261Y-122021261D01*
X143402633Y-121955308D01*
X143440887Y-121904207D01*
X143440887Y-121904206D01*
X143440889Y-121904204D01*
X143491989Y-121767201D01*
X143495127Y-121738018D01*
X143498499Y-121706649D01*
X143498500Y-121706632D01*
X143498500Y-120609367D01*
X143498499Y-120609350D01*
X143491147Y-120540962D01*
X143491691Y-120540903D01*
X143489960Y-120502172D01*
X143503500Y-120407997D01*
X143503500Y-119792181D01*
X143503500Y-119792174D01*
X143489362Y-119684787D01*
X143486003Y-119659274D01*
X143486000Y-119659261D01*
X143475261Y-119619185D01*
X143451927Y-119532101D01*
X143400629Y-119408257D01*
X143363929Y-119344690D01*
X143334805Y-119294246D01*
X143334800Y-119294239D01*
X143253205Y-119187902D01*
X143253186Y-119187881D01*
X143160118Y-119094813D01*
X143160110Y-119094806D01*
X143160106Y-119094802D01*
X143140221Y-119079544D01*
X143111666Y-119057632D01*
X143111661Y-119057628D01*
X143053757Y-119013197D01*
X142998199Y-118981121D01*
X142994556Y-118978664D01*
X142979322Y-118960278D01*
X161276500Y-118960278D01*
X161276500Y-119197722D01*
X161312125Y-119422650D01*
X161313645Y-119432246D01*
X161387016Y-119658058D01*
X161387018Y-119658063D01*
X161459519Y-119800354D01*
X161494817Y-119869630D01*
X161525442Y-119911781D01*
X161634380Y-120061722D01*
X161634382Y-120061724D01*
X161634384Y-120061727D01*
X161802272Y-120229615D01*
X161802275Y-120229617D01*
X161802278Y-120229620D01*
X161994373Y-120369185D01*
X162205937Y-120476982D01*
X162431759Y-120550356D01*
X162666278Y-120587500D01*
X162666281Y-120587500D01*
X162903719Y-120587500D01*
X162903722Y-120587500D01*
X163138241Y-120550356D01*
X163364063Y-120476982D01*
X163575627Y-120369185D01*
X163767722Y-120229620D01*
X163935620Y-120061722D01*
X164075185Y-119869627D01*
X164182982Y-119658063D01*
X164256356Y-119432241D01*
X164293500Y-119197722D01*
X164293500Y-118960278D01*
X175776500Y-118960278D01*
X175776500Y-119197722D01*
X175812125Y-119422650D01*
X175813645Y-119432246D01*
X175887016Y-119658058D01*
X175887018Y-119658063D01*
X175959519Y-119800354D01*
X175994817Y-119869630D01*
X176025442Y-119911781D01*
X176134380Y-120061722D01*
X176134382Y-120061724D01*
X176134384Y-120061727D01*
X176302272Y-120229615D01*
X176302275Y-120229617D01*
X176302278Y-120229620D01*
X176359171Y-120270955D01*
X176402525Y-120327177D01*
X176404278Y-120339069D01*
X177160051Y-121094842D01*
X177092007Y-121113075D01*
X176977993Y-121178901D01*
X176884901Y-121271993D01*
X176819075Y-121386007D01*
X176800842Y-121454052D01*
X176054232Y-120707442D01*
X176054231Y-120707442D01*
X175995243Y-120788634D01*
X175887480Y-121000132D01*
X175814133Y-121225870D01*
X175777000Y-121460321D01*
X175777000Y-121697678D01*
X175814133Y-121932129D01*
X175887480Y-122157867D01*
X175995245Y-122369367D01*
X176059339Y-122457585D01*
X176083198Y-122524453D01*
X176067117Y-122593604D01*
X176032913Y-122632514D01*
X175921737Y-122715740D01*
X175834112Y-122832792D01*
X175834110Y-122832797D01*
X175783011Y-122969795D01*
X175783009Y-122969803D01*
X175776500Y-123030350D01*
X175776500Y-125127649D01*
X175783009Y-125188196D01*
X175783011Y-125188204D01*
X175834110Y-125325202D01*
X175834112Y-125325207D01*
X175921738Y-125442261D01*
X176038792Y-125529887D01*
X176038794Y-125529888D01*
X176038796Y-125529889D01*
X176050738Y-125534343D01*
X176175795Y-125580988D01*
X176175803Y-125580990D01*
X176236350Y-125587499D01*
X176236355Y-125587499D01*
X176236362Y-125587500D01*
X176236368Y-125587500D01*
X178333632Y-125587500D01*
X178333638Y-125587500D01*
X178333645Y-125587499D01*
X178333649Y-125587499D01*
X178394196Y-125580990D01*
X178394199Y-125580989D01*
X178394201Y-125580989D01*
X178531204Y-125529889D01*
X178648261Y-125442261D01*
X178703288Y-125368754D01*
X178735887Y-125325207D01*
X178735887Y-125325206D01*
X178735889Y-125325204D01*
X178786989Y-125188201D01*
X178787630Y-125182246D01*
X178793499Y-125127649D01*
X178793500Y-125127632D01*
X178793500Y-123030367D01*
X178793499Y-123030350D01*
X178786990Y-122969803D01*
X178786988Y-122969795D01*
X178757924Y-122891875D01*
X178735889Y-122832796D01*
X178735888Y-122832794D01*
X178735887Y-122832792D01*
X178648261Y-122715738D01*
X178537087Y-122632514D01*
X178494540Y-122575678D01*
X178489476Y-122504862D01*
X178510660Y-122457584D01*
X178574756Y-122369363D01*
X178682519Y-122157867D01*
X178755866Y-121932129D01*
X178793000Y-121697678D01*
X178793000Y-121460321D01*
X178755866Y-121225870D01*
X178682519Y-121000132D01*
X178574757Y-120788637D01*
X178574756Y-120788636D01*
X178515766Y-120707442D01*
X178515765Y-120707442D01*
X177769157Y-121454050D01*
X177750925Y-121386007D01*
X177685099Y-121271993D01*
X177592007Y-121178901D01*
X177477993Y-121113075D01*
X177409947Y-121094841D01*
X178169186Y-120335602D01*
X178173871Y-120313300D01*
X178210829Y-120270955D01*
X178267718Y-120229624D01*
X178435615Y-120061727D01*
X178435620Y-120061722D01*
X178575185Y-119869627D01*
X178682982Y-119658063D01*
X178756356Y-119432241D01*
X178793500Y-119197722D01*
X178793500Y-118960278D01*
X178756356Y-118725759D01*
X178682982Y-118499937D01*
X178575185Y-118288373D01*
X178435620Y-118096278D01*
X178435617Y-118096275D01*
X178435615Y-118096272D01*
X178267727Y-117928384D01*
X178267724Y-117928382D01*
X178267722Y-117928380D01*
X178101776Y-117807813D01*
X178075630Y-117788817D01*
X178075629Y-117788816D01*
X178075627Y-117788815D01*
X177864063Y-117681018D01*
X177864060Y-117681017D01*
X177864058Y-117681016D01*
X177638246Y-117607645D01*
X177638242Y-117607644D01*
X177638241Y-117607644D01*
X177403722Y-117570500D01*
X177166278Y-117570500D01*
X176931759Y-117607644D01*
X176931753Y-117607645D01*
X176705941Y-117681016D01*
X176705935Y-117681019D01*
X176494369Y-117788817D01*
X176302275Y-117928382D01*
X176302272Y-117928384D01*
X176134384Y-118096272D01*
X176134382Y-118096275D01*
X175994817Y-118288369D01*
X175887019Y-118499935D01*
X175887016Y-118499941D01*
X175813645Y-118725753D01*
X175813644Y-118725758D01*
X175813644Y-118725759D01*
X175776500Y-118960278D01*
X164293500Y-118960278D01*
X164256356Y-118725759D01*
X164182982Y-118499937D01*
X164075185Y-118288373D01*
X163935620Y-118096278D01*
X163935617Y-118096275D01*
X163935615Y-118096272D01*
X163767727Y-117928384D01*
X163767724Y-117928382D01*
X163767722Y-117928380D01*
X163601776Y-117807813D01*
X163575630Y-117788817D01*
X163575629Y-117788816D01*
X163575627Y-117788815D01*
X163364063Y-117681018D01*
X163364060Y-117681017D01*
X163364058Y-117681016D01*
X163138246Y-117607645D01*
X163138242Y-117607644D01*
X163138241Y-117607644D01*
X162903722Y-117570500D01*
X162666278Y-117570500D01*
X162431759Y-117607644D01*
X162431753Y-117607645D01*
X162205941Y-117681016D01*
X162205935Y-117681019D01*
X161994369Y-117788817D01*
X161802275Y-117928382D01*
X161802272Y-117928384D01*
X161634384Y-118096272D01*
X161634382Y-118096275D01*
X161494817Y-118288369D01*
X161387019Y-118499935D01*
X161387016Y-118499941D01*
X161313645Y-118725753D01*
X161313644Y-118725758D01*
X161313644Y-118725759D01*
X161276500Y-118960278D01*
X142979322Y-118960278D01*
X142974598Y-118954577D01*
X142953007Y-118931933D01*
X142951835Y-118927104D01*
X142949259Y-118923995D01*
X142947436Y-118908970D01*
X142939000Y-118874196D01*
X142939000Y-118082984D01*
X142959002Y-118014863D01*
X143012658Y-117968370D01*
X143082932Y-117958266D01*
X143135001Y-117978218D01*
X143206664Y-118026102D01*
X143372000Y-118094587D01*
X143547521Y-118129500D01*
X143547522Y-118129500D01*
X143726478Y-118129500D01*
X143726479Y-118129500D01*
X143902000Y-118094587D01*
X144067336Y-118026102D01*
X144216135Y-117926678D01*
X144342678Y-117800135D01*
X144442102Y-117651336D01*
X144510587Y-117486000D01*
X144545500Y-117310479D01*
X144545500Y-117131521D01*
X144510587Y-116956000D01*
X144442102Y-116790664D01*
X144342678Y-116641865D01*
X144307405Y-116606592D01*
X144273379Y-116544280D01*
X144270500Y-116517497D01*
X144270500Y-116044594D01*
X144279283Y-116014678D01*
X144285912Y-115984209D01*
X144289726Y-115979112D01*
X144290502Y-115976473D01*
X144307399Y-115955504D01*
X144422104Y-115840799D01*
X167676500Y-115840799D01*
X167676500Y-116117200D01*
X167712575Y-116391223D01*
X167784112Y-116658204D01*
X167784113Y-116658206D01*
X167784114Y-116658209D01*
X167889886Y-116913567D01*
X167889887Y-116913568D01*
X167889892Y-116913578D01*
X168028082Y-117152929D01*
X168196344Y-117372214D01*
X168196353Y-117372224D01*
X168391775Y-117567646D01*
X168391785Y-117567655D01*
X168391786Y-117567656D01*
X168584310Y-117715384D01*
X168611070Y-117735917D01*
X168722302Y-117800137D01*
X168850433Y-117874114D01*
X169105791Y-117979886D01*
X169372769Y-118051423D01*
X169372775Y-118051423D01*
X169372776Y-118051424D01*
X169404222Y-118055563D01*
X169646802Y-118087500D01*
X169646809Y-118087500D01*
X169923191Y-118087500D01*
X169923198Y-118087500D01*
X170197231Y-118051423D01*
X170464209Y-117979886D01*
X170719567Y-117874114D01*
X170958933Y-117735915D01*
X171178214Y-117567656D01*
X171373656Y-117372214D01*
X171541915Y-117152933D01*
X171680114Y-116913567D01*
X171785886Y-116658209D01*
X171857423Y-116391231D01*
X171893500Y-116117198D01*
X171893500Y-115840802D01*
X171888260Y-115801000D01*
X180107000Y-115801000D01*
X180107000Y-116096999D01*
X180145633Y-116390451D01*
X180222244Y-116676367D01*
X180335517Y-116949832D01*
X180335522Y-116949843D01*
X180483510Y-117206165D01*
X180598615Y-117356174D01*
X181122777Y-116832011D01*
X181202558Y-116941820D01*
X181372180Y-117111442D01*
X181481986Y-117191221D01*
X180957824Y-117715383D01*
X181107834Y-117830489D01*
X181364156Y-117978477D01*
X181364167Y-117978482D01*
X181637632Y-118091755D01*
X181923548Y-118168366D01*
X182217000Y-118206999D01*
X182217010Y-118207000D01*
X182512990Y-118207000D01*
X182512999Y-118206999D01*
X182806451Y-118168366D01*
X183092367Y-118091755D01*
X183365832Y-117978482D01*
X183365843Y-117978477D01*
X183622174Y-117830484D01*
X183772173Y-117715384D01*
X183772174Y-117715383D01*
X183248012Y-117191221D01*
X183357820Y-117111442D01*
X183527442Y-116941820D01*
X183607221Y-116832012D01*
X184131383Y-117356174D01*
X184131384Y-117356173D01*
X184246484Y-117206174D01*
X184394477Y-116949843D01*
X184394482Y-116949832D01*
X184507755Y-116676367D01*
X184584366Y-116390451D01*
X184622999Y-116096999D01*
X184623000Y-116096990D01*
X184623000Y-115801010D01*
X184622999Y-115801000D01*
X184584366Y-115507548D01*
X184507755Y-115221632D01*
X184394482Y-114948167D01*
X184394477Y-114948156D01*
X184246489Y-114691834D01*
X184131383Y-114541824D01*
X183607220Y-115065986D01*
X183527442Y-114956180D01*
X183357820Y-114786558D01*
X183248011Y-114706777D01*
X183772174Y-114182615D01*
X183622165Y-114067510D01*
X183365843Y-113919522D01*
X183365832Y-113919517D01*
X183092367Y-113806244D01*
X182806451Y-113729633D01*
X182512999Y-113691000D01*
X182217000Y-113691000D01*
X181923548Y-113729633D01*
X181637632Y-113806244D01*
X181364167Y-113919517D01*
X181364156Y-113919522D01*
X181107830Y-114067512D01*
X180957825Y-114182614D01*
X180957824Y-114182615D01*
X181481987Y-114706778D01*
X181372180Y-114786558D01*
X181202558Y-114956180D01*
X181122778Y-115065987D01*
X180598615Y-114541824D01*
X180598614Y-114541825D01*
X180483512Y-114691830D01*
X180335522Y-114948156D01*
X180335517Y-114948167D01*
X180222244Y-115221632D01*
X180145633Y-115507548D01*
X180107000Y-115801000D01*
X171888260Y-115801000D01*
X171857423Y-115566769D01*
X171785886Y-115299791D01*
X171680114Y-115044433D01*
X171541915Y-114805067D01*
X171373656Y-114585786D01*
X171373655Y-114585785D01*
X171373646Y-114585775D01*
X171178224Y-114390353D01*
X171178214Y-114390344D01*
X171101272Y-114331305D01*
X170958929Y-114222082D01*
X170719578Y-114083892D01*
X170719573Y-114083889D01*
X170719567Y-114083886D01*
X170464209Y-113978114D01*
X170464206Y-113978113D01*
X170464204Y-113978112D01*
X170244918Y-113919355D01*
X170197231Y-113906577D01*
X170197229Y-113906576D01*
X170197223Y-113906575D01*
X169923200Y-113870500D01*
X169923198Y-113870500D01*
X169646802Y-113870500D01*
X169646799Y-113870500D01*
X169372776Y-113906575D01*
X169105795Y-113978112D01*
X169105791Y-113978114D01*
X168889969Y-114067510D01*
X168850431Y-114083887D01*
X168850421Y-114083892D01*
X168611070Y-114222082D01*
X168391785Y-114390344D01*
X168391775Y-114390353D01*
X168196353Y-114585775D01*
X168196344Y-114585785D01*
X168028082Y-114805070D01*
X167889892Y-115044421D01*
X167889887Y-115044431D01*
X167889886Y-115044433D01*
X167827984Y-115193879D01*
X167784114Y-115299791D01*
X167784112Y-115299795D01*
X167712575Y-115566776D01*
X167676500Y-115840799D01*
X144422104Y-115840799D01*
X144432694Y-115830209D01*
X144495002Y-115796187D01*
X144560722Y-115799473D01*
X144578699Y-115805315D01*
X144792013Y-115839100D01*
X144792015Y-115839100D01*
X145007985Y-115839100D01*
X145007987Y-115839100D01*
X145221301Y-115805315D01*
X145426704Y-115738575D01*
X145619137Y-115640525D01*
X145793863Y-115513579D01*
X145946579Y-115360863D01*
X146073525Y-115186137D01*
X146171575Y-114993704D01*
X146238315Y-114788301D01*
X146272100Y-114574987D01*
X146272100Y-114359013D01*
X146238315Y-114145699D01*
X146171575Y-113940296D01*
X146073525Y-113747863D01*
X145946579Y-113573137D01*
X145946576Y-113573134D01*
X145946574Y-113573131D01*
X145793868Y-113420425D01*
X145793865Y-113420423D01*
X145793863Y-113420421D01*
X145619137Y-113293475D01*
X145426704Y-113195425D01*
X145426703Y-113195424D01*
X145426702Y-113195424D01*
X145221303Y-113128685D01*
X145114644Y-113111792D01*
X145007987Y-113094900D01*
X144792013Y-113094900D01*
X144706687Y-113108414D01*
X144578696Y-113128685D01*
X144373297Y-113195424D01*
X144180859Y-113293477D01*
X144006134Y-113420423D01*
X144006131Y-113420425D01*
X143853422Y-113573134D01*
X143731936Y-113740346D01*
X143675713Y-113783700D01*
X143604977Y-113789775D01*
X143542186Y-113756643D01*
X143528064Y-113740346D01*
X143406577Y-113573134D01*
X143253868Y-113420425D01*
X143253865Y-113420423D01*
X143253863Y-113420421D01*
X143079137Y-113293475D01*
X142886704Y-113195425D01*
X142886703Y-113195424D01*
X142886702Y-113195424D01*
X142681303Y-113128685D01*
X142574644Y-113111792D01*
X142467987Y-113094900D01*
X142252013Y-113094900D01*
X142166687Y-113108414D01*
X142038696Y-113128685D01*
X141833297Y-113195424D01*
X141640859Y-113293477D01*
X141466134Y-113420423D01*
X141466131Y-113420425D01*
X141313422Y-113573134D01*
X141191936Y-113740346D01*
X141135713Y-113783700D01*
X141064977Y-113789775D01*
X141002186Y-113756643D01*
X140988064Y-113740346D01*
X140866577Y-113573134D01*
X140713868Y-113420425D01*
X140713865Y-113420423D01*
X140713863Y-113420421D01*
X140539137Y-113293475D01*
X140346704Y-113195425D01*
X140346703Y-113195424D01*
X140346702Y-113195424D01*
X140141303Y-113128685D01*
X140034644Y-113111792D01*
X139927987Y-113094900D01*
X139712013Y-113094900D01*
X139626687Y-113108414D01*
X139498696Y-113128685D01*
X139293297Y-113195424D01*
X139100859Y-113293477D01*
X138926136Y-113420421D01*
X138840394Y-113506163D01*
X138778082Y-113540188D01*
X138707266Y-113535122D01*
X138650430Y-113492575D01*
X138633244Y-113461100D01*
X138594489Y-113357197D01*
X138594487Y-113357192D01*
X138506861Y-113240138D01*
X138389807Y-113152512D01*
X138389802Y-113152510D01*
X138252804Y-113101411D01*
X138252796Y-113101409D01*
X138192249Y-113094900D01*
X138192238Y-113094900D01*
X136367762Y-113094900D01*
X136367750Y-113094900D01*
X136307203Y-113101409D01*
X136307195Y-113101411D01*
X136170197Y-113152510D01*
X136170192Y-113152512D01*
X136053138Y-113240138D01*
X135965512Y-113357192D01*
X135965510Y-113357197D01*
X135914411Y-113494195D01*
X135914409Y-113494203D01*
X135907900Y-113554750D01*
X135907900Y-115375735D01*
X135887898Y-115443856D01*
X135834242Y-115490349D01*
X135806482Y-115499314D01*
X135699493Y-115520595D01*
X135625000Y-115535413D01*
X135624999Y-115535413D01*
X135624996Y-115535414D01*
X135459662Y-115603899D01*
X135310869Y-115703319D01*
X135310862Y-115703324D01*
X135184324Y-115829862D01*
X135184319Y-115829869D01*
X135104719Y-115949000D01*
X135084898Y-115978664D01*
X135082601Y-115984209D01*
X135016414Y-116143996D01*
X134981500Y-116319518D01*
X134981500Y-116319521D01*
X134981500Y-116498479D01*
X135016413Y-116674000D01*
X135084898Y-116839336D01*
X135169765Y-116966349D01*
X135190980Y-117034101D01*
X135191000Y-117036350D01*
X135191000Y-118874196D01*
X135170998Y-118942317D01*
X135128000Y-118983315D01*
X135076246Y-119013194D01*
X135076239Y-119013199D01*
X134969902Y-119094794D01*
X134969881Y-119094813D01*
X134876813Y-119187881D01*
X134876794Y-119187902D01*
X134795199Y-119294239D01*
X134795194Y-119294246D01*
X134729377Y-119408245D01*
X134729371Y-119408255D01*
X134678071Y-119532105D01*
X134643999Y-119659261D01*
X134643996Y-119659274D01*
X134626500Y-119792171D01*
X119971812Y-119792171D01*
X120173867Y-119726519D01*
X120273445Y-119675782D01*
X120385367Y-119618754D01*
X120466556Y-119559767D01*
X120466556Y-119559765D01*
X119760773Y-118853982D01*
X119807292Y-118841518D01*
X119932708Y-118769110D01*
X120035110Y-118666708D01*
X120107518Y-118541292D01*
X120119982Y-118494773D01*
X120825765Y-119200556D01*
X120825767Y-119200556D01*
X120884754Y-119119367D01*
X120992519Y-118907867D01*
X121065866Y-118682129D01*
X121103000Y-118447678D01*
X121103000Y-118210321D01*
X121065866Y-117975870D01*
X120992519Y-117750132D01*
X120884757Y-117538637D01*
X120884756Y-117538636D01*
X120825766Y-117457442D01*
X120119982Y-118163226D01*
X120107518Y-118116708D01*
X120035110Y-117991292D01*
X119932708Y-117888890D01*
X119807292Y-117816482D01*
X119760771Y-117804016D01*
X120466556Y-117098232D01*
X120466556Y-117098230D01*
X120385368Y-117039246D01*
X120173867Y-116931480D01*
X119948129Y-116858133D01*
X119713679Y-116821000D01*
X119476321Y-116821000D01*
X119241870Y-116858133D01*
X119016132Y-116931480D01*
X118804634Y-117039243D01*
X118723442Y-117098231D01*
X119429227Y-117804017D01*
X119382708Y-117816482D01*
X119257292Y-117888890D01*
X119154890Y-117991292D01*
X119082482Y-118116708D01*
X119070017Y-118163227D01*
X118364231Y-117457442D01*
X118305243Y-117538634D01*
X118197480Y-117750132D01*
X118124133Y-117975870D01*
X118087000Y-118210321D01*
X116603500Y-118210321D01*
X116603500Y-118210278D01*
X116566356Y-117975759D01*
X116492982Y-117749937D01*
X116385185Y-117538373D01*
X116245620Y-117346278D01*
X116245617Y-117346275D01*
X116245615Y-117346272D01*
X116077727Y-117178384D01*
X116077724Y-117178382D01*
X116077722Y-117178380D01*
X115885627Y-117038815D01*
X115674063Y-116931018D01*
X115674060Y-116931017D01*
X115674058Y-116931016D01*
X115448246Y-116857645D01*
X115448242Y-116857644D01*
X115448241Y-116857644D01*
X115213722Y-116820500D01*
X114976278Y-116820500D01*
X114741759Y-116857644D01*
X114741753Y-116857645D01*
X114515941Y-116931016D01*
X114515935Y-116931019D01*
X114304369Y-117038817D01*
X114112275Y-117178382D01*
X114112272Y-117178384D01*
X113944384Y-117346272D01*
X113944382Y-117346275D01*
X113804817Y-117538369D01*
X113697019Y-117749935D01*
X113697016Y-117749941D01*
X113623645Y-117975753D01*
X113623644Y-117975758D01*
X113623644Y-117975759D01*
X113586500Y-118210278D01*
X112335993Y-118210278D01*
X112298866Y-117975870D01*
X112225519Y-117750132D01*
X112117757Y-117538637D01*
X112117756Y-117538636D01*
X112058766Y-117457442D01*
X111352982Y-118163226D01*
X111340518Y-118116708D01*
X111268110Y-117991292D01*
X111165708Y-117888890D01*
X111040292Y-117816482D01*
X110993771Y-117804016D01*
X111699556Y-117098232D01*
X111699556Y-117098230D01*
X111618368Y-117039246D01*
X111406867Y-116931480D01*
X111181129Y-116858133D01*
X110946679Y-116821000D01*
X110709321Y-116821000D01*
X110474870Y-116858133D01*
X110249132Y-116931480D01*
X110037634Y-117039243D01*
X109956442Y-117098231D01*
X110662227Y-117804017D01*
X110615708Y-117816482D01*
X110490292Y-117888890D01*
X110387890Y-117991292D01*
X110315482Y-118116708D01*
X110303017Y-118163227D01*
X109597231Y-117457442D01*
X109538243Y-117538634D01*
X109430480Y-117750132D01*
X109357133Y-117975870D01*
X109320000Y-118210321D01*
X107836500Y-118210321D01*
X107836500Y-118210278D01*
X107799356Y-117975759D01*
X107725982Y-117749937D01*
X107618185Y-117538373D01*
X107478620Y-117346278D01*
X107478617Y-117346275D01*
X107478615Y-117346272D01*
X107310727Y-117178384D01*
X107310724Y-117178382D01*
X107310722Y-117178380D01*
X107118627Y-117038815D01*
X106907063Y-116931018D01*
X106907060Y-116931017D01*
X106907058Y-116931016D01*
X106681246Y-116857645D01*
X106681242Y-116857644D01*
X106681241Y-116857644D01*
X106446722Y-116820500D01*
X106209278Y-116820500D01*
X105974759Y-116857644D01*
X105974753Y-116857645D01*
X105748941Y-116931016D01*
X105748935Y-116931019D01*
X105537369Y-117038817D01*
X105345275Y-117178382D01*
X105345272Y-117178384D01*
X105177384Y-117346272D01*
X105177382Y-117346275D01*
X105037817Y-117538369D01*
X104930019Y-117749935D01*
X104930016Y-117749941D01*
X104856645Y-117975753D01*
X104856644Y-117975758D01*
X104856644Y-117975759D01*
X104819500Y-118210278D01*
X91115500Y-118210278D01*
X91115500Y-115801000D01*
X97557000Y-115801000D01*
X97557000Y-116096999D01*
X97595633Y-116390451D01*
X97672244Y-116676367D01*
X97785517Y-116949832D01*
X97785522Y-116949843D01*
X97933510Y-117206165D01*
X98048615Y-117356174D01*
X98572777Y-116832011D01*
X98652558Y-116941820D01*
X98822180Y-117111442D01*
X98931986Y-117191221D01*
X98407824Y-117715383D01*
X98557834Y-117830489D01*
X98814156Y-117978477D01*
X98814167Y-117978482D01*
X99087632Y-118091755D01*
X99373548Y-118168366D01*
X99667000Y-118206999D01*
X99667010Y-118207000D01*
X99962990Y-118207000D01*
X99962999Y-118206999D01*
X100256451Y-118168366D01*
X100542364Y-118091756D01*
X100549217Y-118088918D01*
X100549218Y-118088917D01*
X100815832Y-117978482D01*
X100815843Y-117978477D01*
X101072174Y-117830484D01*
X101222173Y-117715384D01*
X101222174Y-117715383D01*
X100698012Y-117191221D01*
X100807820Y-117111442D01*
X100977442Y-116941820D01*
X101057221Y-116832012D01*
X101581383Y-117356174D01*
X101581384Y-117356173D01*
X101696484Y-117206174D01*
X101844477Y-116949843D01*
X101844482Y-116949832D01*
X101957755Y-116676367D01*
X102034366Y-116390451D01*
X102072999Y-116096999D01*
X102073000Y-116096990D01*
X102073000Y-115801010D01*
X102072999Y-115801000D01*
X102034366Y-115507548D01*
X101957755Y-115221632D01*
X101844482Y-114948167D01*
X101844477Y-114948156D01*
X101696489Y-114691834D01*
X101581383Y-114541824D01*
X101057220Y-115065986D01*
X100977442Y-114956180D01*
X100807820Y-114786558D01*
X100698011Y-114706777D01*
X101222174Y-114182615D01*
X101072165Y-114067510D01*
X100815843Y-113919522D01*
X100815832Y-113919517D01*
X100542367Y-113806244D01*
X100256451Y-113729633D01*
X99962999Y-113691000D01*
X99667000Y-113691000D01*
X99373548Y-113729633D01*
X99087632Y-113806244D01*
X98814167Y-113919517D01*
X98814156Y-113919522D01*
X98557830Y-114067512D01*
X98407825Y-114182614D01*
X98407824Y-114182615D01*
X98931987Y-114706778D01*
X98822180Y-114786558D01*
X98652558Y-114956180D01*
X98572778Y-115065987D01*
X98048615Y-114541824D01*
X98048614Y-114541825D01*
X97933512Y-114691830D01*
X97785522Y-114948156D01*
X97785517Y-114948167D01*
X97672244Y-115221632D01*
X97595633Y-115507548D01*
X97557000Y-115801000D01*
X91115500Y-115801000D01*
X91115500Y-112925500D01*
X91135502Y-112857379D01*
X91189158Y-112810886D01*
X91241500Y-112799500D01*
X113160562Y-112799500D01*
X113175500Y-112784562D01*
X113175500Y-111125500D01*
X113195502Y-111057379D01*
X113249158Y-111010886D01*
X113301500Y-110999500D01*
X118078500Y-110999500D01*
X118146621Y-111019502D01*
G37*
%TD.AperFunction*%
%TD*%
M02*
