M48
; DRILL file {KiCad 9.0.7} date 2026-02-09T23:45:48+0100
; FORMAT={-:-/ absolute / metric / decimal}
; #@! TF.CreationDate,2026-02-09T23:45:48+01:00
; #@! TF.GenerationSoftware,Kicad,Pcbnew,9.0.7
; #@! TF.FileFunction,Plated,1,2,PTH
FMAT,2
METRIC
; #@! TA.AperFunction,Plated,PTH,ViaDrill
T1C0.400
; #@! TA.AperFunction,Plated,PTH,ComponentDrill
T2C0.900
; #@! TA.AperFunction,Plated,PTH,ComponentDrill
T3C1.000
; #@! TA.AperFunction,Plated,PTH,ComponentDrill
T4C1.016
; #@! TA.AperFunction,Plated,PTH,ComponentDrill
T5C1.100
; #@! TA.AperFunction,Plated,PTH,ComponentDrill
T6C2.600
; #@! TA.AperFunction,Plated,PTH,ComponentDrill
T7C3.048
%
G90
G05
T1
X135.89Y-116.409
X139.065Y-126.804
X140.335Y-127.635
X141.097Y-117.221
X142.24Y-116.409
X143.637Y-117.221
X151.975Y-127.635
X152.531Y-126.804
T2
X98.545Y-120.65
X98.545Y-124.46
X101.085Y-120.65
X101.085Y-124.46
T3
X133.47Y-130.723
X136.01Y-130.723
X138.55Y-130.723
X141.09Y-130.723
X143.63Y-130.723
X146.17Y-130.723
X148.71Y-130.723
X151.25Y-130.723
X153.79Y-130.723
X156.33Y-130.723
X158.87Y-130.723
X161.41Y-130.723
X162.785Y-119.079
X162.785Y-124.079
X177.285Y-119.079
X177.285Y-121.579
X177.285Y-124.079
T4
X137.28Y-114.467
X139.82Y-114.467
X142.36Y-114.467
X144.9Y-114.467
T5
X106.328Y-118.329
X106.328Y-124.829
X110.828Y-118.329
X110.828Y-124.829
X115.095Y-118.329
X115.095Y-124.829
X119.595Y-118.329
X119.595Y-124.829
T6
X169.785Y-115.979
X169.785Y-127.179
T7
X99.815Y-115.949
X99.815Y-129.199
X182.365Y-115.949
X182.365Y-129.199
M30
