%TF.GenerationSoftware,KiCad,Pcbnew,9.0.7*%
%TF.CreationDate,2026-02-09T23:45:38+01:00*%
%TF.ProjectId,Pi1551-III Module Panel,50693135-3531-42d4-9949-49204d6f6475,1*%
%TF.SameCoordinates,Original*%
%TF.FileFunction,Soldermask,Bot*%
%TF.FilePolarity,Negative*%
%FSLAX46Y46*%
G04 Gerber Fmt 4.6, Leading zero omitted, Abs format (unit mm)*
G04 Created by KiCad (PCBNEW 9.0.7) date 2026-02-09 23:45:38*
%MOMM*%
%LPD*%
G01*
G04 APERTURE LIST*
G04 Aperture macros list*
%AMFreePoly0*
4,1,23,0.550000,-0.750000,0.000000,-0.750000,0.000000,-0.745722,-0.065263,-0.745722,-0.191342,-0.711940,-0.304381,-0.646677,-0.396677,-0.554381,-0.461940,-0.441342,-0.495722,-0.315263,-0.495722,-0.250000,-0.500000,-0.250000,-0.500000,0.250000,-0.495722,0.250000,-0.495722,0.315263,-0.461940,0.441342,-0.396677,0.554381,-0.304381,0.646677,-0.191342,0.711940,-0.065263,0.745722,0.000000,0.745722,
0.000000,0.750000,0.550000,0.750000,0.550000,-0.750000,0.550000,-0.750000,$1*%
%AMFreePoly1*
4,1,23,0.000000,0.745722,0.065263,0.745722,0.191342,0.711940,0.304381,0.646677,0.396677,0.554381,0.461940,0.441342,0.495722,0.315263,0.495722,0.250000,0.500000,0.250000,0.500000,-0.250000,0.495722,-0.250000,0.495722,-0.315263,0.461940,-0.441342,0.396677,-0.554381,0.304381,-0.646677,0.191342,-0.711940,0.065263,-0.745722,0.000000,-0.745722,0.000000,-0.750000,-0.550000,-0.750000,
-0.550000,0.750000,0.000000,0.750000,0.000000,0.745722,0.000000,0.745722,$1*%
G04 Aperture macros list end*
%ADD10C,5.100000*%
%ADD11R,2.000000X2.000000*%
%ADD12C,2.000000*%
%ADD13C,3.200000*%
%ADD14R,1.727200X1.727200*%
%ADD15C,1.727200*%
%ADD16R,1.800000X1.800000*%
%ADD17C,1.800000*%
%ADD18R,1.700000X1.700000*%
%ADD19O,1.700000X1.700000*%
%ADD20FreePoly0,270.000000*%
%ADD21R,1.500000X1.000000*%
%ADD22FreePoly1,270.000000*%
%ADD23FreePoly0,90.000000*%
%ADD24FreePoly1,90.000000*%
G04 APERTURE END LIST*
%TO.C,JP3*%
G36*
X141490000Y-120408000D02*
G01*
X142990000Y-120408000D01*
X142990000Y-121908000D01*
X141490000Y-121908000D01*
X141490000Y-120408000D01*
G37*
%TO.C,JP4*%
G36*
X136640000Y-121908000D02*
G01*
X135140000Y-121908000D01*
X135140000Y-120408000D01*
X136640000Y-120408000D01*
X136640000Y-121908000D01*
G37*
%TD*%
D10*
%TO.C,M1*%
X99815000Y-129199000D03*
%TD*%
%TO.C,M2*%
X182365000Y-129199000D03*
%TD*%
%TO.C,M3*%
X182365000Y-115949000D03*
%TD*%
%TO.C,M4*%
X99815000Y-115949000D03*
%TD*%
D11*
%TO.C,ENC1*%
X177285000Y-124079000D03*
D12*
X177285000Y-119079000D03*
X177285000Y-121579000D03*
D13*
X169785000Y-127179000D03*
X169785000Y-115979000D03*
D12*
X162785000Y-119079000D03*
X162785000Y-124079000D03*
%TD*%
D14*
%TO.C,IC1*%
X137280000Y-114467000D03*
D15*
X139820000Y-114467000D03*
X142360000Y-114467000D03*
X144900000Y-114467000D03*
%TD*%
D12*
%TO.C,SW2*%
X115095000Y-124829000D03*
X115095000Y-118329000D03*
X119595000Y-124829000D03*
X119595000Y-118329000D03*
%TD*%
%TO.C,SW1*%
X106328000Y-124829000D03*
X106328000Y-118329000D03*
X110828000Y-124829000D03*
X110828000Y-118329000D03*
%TD*%
D16*
%TO.C,D1*%
X101085000Y-120650000D03*
D17*
X98545000Y-120650000D03*
%TD*%
D16*
%TO.C,D2*%
X101085000Y-124460000D03*
D17*
X98545000Y-124460000D03*
%TD*%
D18*
%TO.C,J1*%
X133470000Y-130723000D03*
D19*
X136010000Y-130723000D03*
X138550000Y-130723000D03*
X141090000Y-130723000D03*
X143630000Y-130723000D03*
X146170000Y-130723000D03*
X148710000Y-130723000D03*
X151250000Y-130723000D03*
X153790000Y-130723000D03*
X156330000Y-130723000D03*
X158870000Y-130723000D03*
X161410000Y-130723000D03*
%TD*%
D20*
%TO.C,JP3*%
X142240000Y-119858000D03*
D21*
X142240000Y-121158000D03*
D22*
X142240000Y-122458000D03*
%TD*%
D23*
%TO.C,JP4*%
X135890000Y-122458000D03*
D21*
X135890000Y-121158000D03*
D24*
X135890000Y-119858000D03*
%TD*%
M02*
