%TF.GenerationSoftware,KiCad,Pcbnew,9.0.7*%
%TF.CreationDate,2026-02-09T23:50:31+01:00*%
%TF.ProjectId,Pi1551-III Module FP1,50693135-3531-42d4-9949-49204d6f6475,1*%
%TF.SameCoordinates,Original*%
%TF.FileFunction,Legend,Top*%
%TF.FilePolarity,Positive*%
%FSLAX46Y46*%
G04 Gerber Fmt 4.6, Leading zero omitted, Abs format (unit mm)*
G04 Created by KiCad (PCBNEW 9.0.7) date 2026-02-09 23:50:31*
%MOMM*%
%LPD*%
G01*
G04 APERTURE LIST*
%ADD10C,0.120000*%
%ADD11C,0.000000*%
G04 APERTURE END LIST*
D10*
X187340000Y-137579000D02*
X161840000Y-137579000D01*
X161090000Y-138329000D02*
G75*
G02*
X161840000Y-137579000I750000J0D01*
G01*
X161840000Y-143079000D02*
X187340000Y-143079000D01*
X187340000Y-137579000D02*
G75*
G02*
X188090000Y-138329000I0J-750000D01*
G01*
X188090000Y-142329000D02*
G75*
G02*
X187340000Y-143079000I-750000J0D01*
G01*
X161090000Y-138329000D02*
X161090000Y-142329000D01*
X161840000Y-143079000D02*
G75*
G02*
X161090000Y-142329000I0J750000D01*
G01*
X188090000Y-142329000D02*
X188090000Y-138329000D01*
D11*
%TO.C,kibuzzard-69865524*%
G36*
X169879524Y-141863444D02*
G01*
X169463333Y-141863444D01*
X169463333Y-140563444D01*
X169879524Y-140563444D01*
X169879524Y-141863444D01*
G37*
G36*
X170672857Y-140075508D02*
G01*
X170256667Y-140075508D01*
X170256667Y-138775508D01*
X170672857Y-138775508D01*
X170672857Y-140075508D01*
G37*
G36*
X178126190Y-141863444D02*
G01*
X177710000Y-141863444D01*
X177710000Y-140563444D01*
X178126190Y-140563444D01*
X178126190Y-141863444D01*
G37*
G36*
X178660476Y-139739317D02*
G01*
X177837619Y-139739317D01*
X177840476Y-139475508D01*
X178660476Y-139475508D01*
X178660476Y-139739317D01*
G37*
G36*
X179168095Y-140075508D02*
G01*
X178751905Y-140075508D01*
X178751905Y-138775508D01*
X179168095Y-138775508D01*
X179168095Y-140075508D01*
G37*
G36*
X179766190Y-140075508D02*
G01*
X179350000Y-140075508D01*
X179350000Y-138775508D01*
X179766190Y-138775508D01*
X179766190Y-140075508D01*
G37*
G36*
X180364286Y-140075508D02*
G01*
X179948095Y-140075508D01*
X179948095Y-138775508D01*
X180364286Y-138775508D01*
X180364286Y-140075508D01*
G37*
G36*
X172068095Y-140075508D02*
G01*
X171671905Y-140075508D01*
X171671905Y-139114556D01*
X171569048Y-139114556D01*
X171185238Y-139438365D01*
X170966190Y-139183127D01*
X171441429Y-138775508D01*
X172068095Y-138775508D01*
X172068095Y-140075508D01*
G37*
G36*
X177373810Y-140075508D02*
G01*
X176977619Y-140075508D01*
X176977619Y-139114556D01*
X176874762Y-139114556D01*
X176490952Y-139438365D01*
X176271905Y-139183127D01*
X176747143Y-138775508D01*
X177373810Y-138775508D01*
X177373810Y-140075508D01*
G37*
G36*
X179100476Y-141536778D02*
G01*
X179174762Y-141536778D01*
X179644286Y-140563444D01*
X180076667Y-140563444D01*
X179442381Y-141863444D01*
X178833810Y-141863444D01*
X178190952Y-140563444D01*
X178626190Y-140563444D01*
X179100476Y-141536778D01*
G37*
G36*
X181582381Y-140869159D02*
G01*
X180532857Y-140869159D01*
X180532857Y-141056778D01*
X181529048Y-141056778D01*
X181529048Y-141342492D01*
X180532857Y-141342492D01*
X180532857Y-141551063D01*
X181590000Y-141551063D01*
X181590000Y-141863444D01*
X180142381Y-141863444D01*
X180142381Y-140563444D01*
X181582381Y-140563444D01*
X181582381Y-140869159D01*
G37*
G36*
X172726190Y-141201540D02*
G01*
X173541429Y-141863444D01*
X172939524Y-141863444D01*
X172357619Y-141366302D01*
X172140476Y-141366302D01*
X172140476Y-141863444D01*
X171744286Y-141863444D01*
X171744286Y-140563444D01*
X172140476Y-140563444D01*
X172140476Y-141034873D01*
X172357619Y-141034873D01*
X172871905Y-140554873D01*
X173477619Y-140554873D01*
X172726190Y-141201540D01*
G37*
G36*
X169611270Y-138776672D02*
G01*
X169724921Y-138780164D01*
X169796667Y-138785984D01*
X169958690Y-138829913D01*
X170058095Y-138910270D01*
X170095926Y-138993180D01*
X170118624Y-139110481D01*
X170126190Y-139262175D01*
X170119947Y-139406831D01*
X170101217Y-139519529D01*
X170070000Y-139600270D01*
X169963333Y-139700270D01*
X169882143Y-139729317D01*
X169775714Y-139747889D01*
X169654286Y-139755032D01*
X169459524Y-139757413D01*
X168961429Y-139757413D01*
X168961429Y-140075508D01*
X168565238Y-140075508D01*
X168565238Y-139432651D01*
X168961429Y-139432651D01*
X169456667Y-139432651D01*
X169565595Y-139431222D01*
X169621905Y-139428841D01*
X169675714Y-139413603D01*
X169717619Y-139364556D01*
X169729048Y-139262175D01*
X169714762Y-139160270D01*
X169664286Y-139113603D01*
X169599048Y-139105032D01*
X169456667Y-139100270D01*
X168961429Y-139100270D01*
X168961429Y-139432651D01*
X168565238Y-139432651D01*
X168565238Y-138775508D01*
X169455714Y-138775508D01*
X169611270Y-138776672D01*
G37*
G36*
X168675291Y-140563868D02*
G01*
X168784180Y-140565138D01*
X168854762Y-140567254D01*
X168933571Y-140574397D01*
X169015714Y-140588206D01*
X169130741Y-140630534D01*
X169215503Y-140704185D01*
X169270000Y-140809159D01*
X169299524Y-140956302D01*
X169305238Y-141054992D01*
X169307143Y-141193921D01*
X169304881Y-141347016D01*
X169298095Y-141457730D01*
X169285119Y-141543206D01*
X169264286Y-141620587D01*
X169211905Y-141720270D01*
X169132222Y-141790746D01*
X169025238Y-141832016D01*
X168937619Y-141847849D01*
X168844286Y-141857254D01*
X168717381Y-141861897D01*
X168529048Y-141863444D01*
X167980476Y-141863444D01*
X167590000Y-141863444D01*
X167590000Y-141532016D01*
X167980476Y-141532016D01*
X168531905Y-141532016D01*
X168664167Y-141529516D01*
X168756190Y-141522016D01*
X168857619Y-141487254D01*
X168903333Y-141399635D01*
X168913333Y-141324397D01*
X168916667Y-141218683D01*
X168913810Y-141112730D01*
X168905238Y-141036778D01*
X168865238Y-140943444D01*
X168771429Y-140898206D01*
X168679881Y-140890706D01*
X168528095Y-140888206D01*
X167980476Y-140888206D01*
X167980476Y-141532016D01*
X167590000Y-141532016D01*
X167590000Y-140563444D01*
X168528095Y-140563444D01*
X168675291Y-140563868D01*
G37*
G36*
X175166720Y-140563868D02*
G01*
X175275608Y-140565138D01*
X175346190Y-140567254D01*
X175425000Y-140574397D01*
X175507143Y-140588206D01*
X175622169Y-140630534D01*
X175706931Y-140704185D01*
X175761429Y-140809159D01*
X175790952Y-140956302D01*
X175796667Y-141054992D01*
X175798571Y-141193921D01*
X175796310Y-141347016D01*
X175789524Y-141457730D01*
X175776548Y-141543206D01*
X175755714Y-141620587D01*
X175703333Y-141720270D01*
X175623651Y-141790746D01*
X175516667Y-141832016D01*
X175429048Y-141847849D01*
X175335714Y-141857254D01*
X175208810Y-141861897D01*
X175020476Y-141863444D01*
X174471905Y-141863444D01*
X174081429Y-141863444D01*
X174081429Y-141532016D01*
X174471905Y-141532016D01*
X175023333Y-141532016D01*
X175155595Y-141529516D01*
X175247619Y-141522016D01*
X175349048Y-141487254D01*
X175394762Y-141399635D01*
X175404762Y-141324397D01*
X175408095Y-141218683D01*
X175405238Y-141112730D01*
X175396667Y-141036778D01*
X175356667Y-140943444D01*
X175262857Y-140898206D01*
X175171310Y-140890706D01*
X175019524Y-140888206D01*
X174471905Y-140888206D01*
X174471905Y-141532016D01*
X174081429Y-141532016D01*
X174081429Y-140563444D01*
X175019524Y-140563444D01*
X175166720Y-140563868D01*
G37*
G36*
X177106614Y-140564661D02*
G01*
X177241217Y-140567042D01*
X177315714Y-140570587D01*
X177444286Y-140614873D01*
X177506905Y-140668087D01*
X177546190Y-140738206D01*
X177566905Y-140839278D01*
X177573810Y-140985349D01*
X177569405Y-141108444D01*
X177556190Y-141193921D01*
X177490000Y-141300587D01*
X177424286Y-141336778D01*
X177331905Y-141359635D01*
X177439048Y-141382254D01*
X177510952Y-141431063D01*
X177550952Y-141521063D01*
X177557381Y-141602849D01*
X177559524Y-141742492D01*
X177559524Y-141863444D01*
X177169048Y-141863444D01*
X177169048Y-141793921D01*
X177160952Y-141639159D01*
X177130952Y-141568206D01*
X177070476Y-141539159D01*
X176909048Y-141532968D01*
X176350952Y-141532968D01*
X176350952Y-141863444D01*
X175954762Y-141863444D01*
X175954762Y-141208206D01*
X176350952Y-141208206D01*
X176908095Y-141208206D01*
X177024405Y-141205468D01*
X177081905Y-141202968D01*
X177130000Y-141188206D01*
X177166190Y-141140111D01*
X177176667Y-141043444D01*
X177164762Y-140948206D01*
X177123333Y-140902492D01*
X177073333Y-140891063D01*
X177017262Y-140889397D01*
X176907143Y-140888206D01*
X176350952Y-140888206D01*
X176350952Y-141208206D01*
X175954762Y-141208206D01*
X175954762Y-140563444D01*
X176911905Y-140563444D01*
X177106614Y-140564661D01*
G37*
G36*
X174120476Y-139055508D02*
G01*
X173273810Y-139055508D01*
X173104524Y-139053603D01*
X173021429Y-139045984D01*
X173021429Y-139185032D01*
X173018571Y-139282175D01*
X173138571Y-139209794D01*
X173225132Y-139195508D01*
X173354021Y-139186937D01*
X173525238Y-139184079D01*
X173712917Y-139188782D01*
X173863571Y-139202889D01*
X173977202Y-139226401D01*
X174053810Y-139259317D01*
X174112024Y-139312770D01*
X174151429Y-139385508D01*
X174173929Y-139483008D01*
X174181429Y-139610746D01*
X174171429Y-139775746D01*
X174141429Y-139895508D01*
X174087857Y-139978603D01*
X174007143Y-140033603D01*
X173922619Y-140062889D01*
X173825238Y-140080270D01*
X173742275Y-140086619D01*
X173631799Y-140090429D01*
X173493810Y-140091698D01*
X173313915Y-140090852D01*
X173170423Y-140088312D01*
X173063333Y-140084079D01*
X172939048Y-140072889D01*
X172832857Y-140054556D01*
X172735833Y-140016341D01*
X172671429Y-139953127D01*
X172635357Y-139858246D01*
X172623333Y-139725032D01*
X172624286Y-139673603D01*
X173001429Y-139673603D01*
X173025238Y-139768841D01*
X173127619Y-139796937D01*
X173232976Y-139803008D01*
X173388095Y-139805032D01*
X173559048Y-139804317D01*
X173654762Y-139802175D01*
X173744286Y-139786937D01*
X173786190Y-139739317D01*
X173797619Y-139623127D01*
X173780476Y-139520270D01*
X173715714Y-139481222D01*
X173622910Y-139470640D01*
X173485450Y-139464291D01*
X173303333Y-139462175D01*
X173159643Y-139466341D01*
X173075238Y-139478841D01*
X173020476Y-139546937D01*
X173021429Y-139563127D01*
X172673810Y-139563127D01*
X172673810Y-138775508D01*
X174120476Y-138775508D01*
X174120476Y-139055508D01*
G37*
G36*
X175889048Y-139055508D02*
G01*
X175042381Y-139055508D01*
X174873095Y-139053603D01*
X174790000Y-139045984D01*
X174790000Y-139185032D01*
X174787143Y-139282175D01*
X174907143Y-139209794D01*
X174993704Y-139195508D01*
X175122593Y-139186937D01*
X175293810Y-139184079D01*
X175481488Y-139188782D01*
X175632143Y-139202889D01*
X175745774Y-139226401D01*
X175822381Y-139259317D01*
X175880595Y-139312770D01*
X175920000Y-139385508D01*
X175942500Y-139483008D01*
X175950000Y-139610746D01*
X175940000Y-139775746D01*
X175910000Y-139895508D01*
X175856429Y-139978603D01*
X175775714Y-140033603D01*
X175691190Y-140062889D01*
X175593810Y-140080270D01*
X175510847Y-140086619D01*
X175400370Y-140090429D01*
X175262381Y-140091698D01*
X175082487Y-140090852D01*
X174938995Y-140088312D01*
X174831905Y-140084079D01*
X174707619Y-140072889D01*
X174601429Y-140054556D01*
X174504405Y-140016341D01*
X174440000Y-139953127D01*
X174403929Y-139858246D01*
X174391905Y-139725032D01*
X174392857Y-139673603D01*
X174770000Y-139673603D01*
X174793810Y-139768841D01*
X174896190Y-139796937D01*
X175001548Y-139803008D01*
X175156667Y-139805032D01*
X175327619Y-139804317D01*
X175423333Y-139802175D01*
X175512857Y-139786937D01*
X175554762Y-139739317D01*
X175566190Y-139623127D01*
X175549048Y-139520270D01*
X175484286Y-139481222D01*
X175391481Y-139470640D01*
X175254021Y-139464291D01*
X175071905Y-139462175D01*
X174928214Y-139466341D01*
X174843810Y-139478841D01*
X174789048Y-139546937D01*
X174790000Y-139563127D01*
X174442381Y-139563127D01*
X174442381Y-138775508D01*
X175889048Y-138775508D01*
X175889048Y-139055508D01*
G37*
G36*
X171017407Y-140545243D02*
G01*
X171151693Y-140550640D01*
X171248095Y-140559635D01*
X171399048Y-140596897D01*
X171493810Y-140659159D01*
X171543810Y-140759516D01*
X171560476Y-140911063D01*
X171559524Y-140972016D01*
X171175714Y-140972016D01*
X171166667Y-140897730D01*
X171138571Y-140865349D01*
X171048095Y-140845825D01*
X170947143Y-140842611D01*
X170773810Y-140841540D01*
X170570714Y-140845468D01*
X170466190Y-140857254D01*
X170410952Y-140944397D01*
X170466190Y-141028206D01*
X170533175Y-141036354D01*
X170673175Y-141044291D01*
X170886190Y-141052016D01*
X171073122Y-141058735D01*
X171213598Y-141066196D01*
X171307619Y-141074397D01*
X171402976Y-141093087D01*
X171476667Y-141123444D01*
X171537619Y-141174278D01*
X171577619Y-141241063D01*
X171599762Y-141332135D01*
X171607143Y-141455825D01*
X171594762Y-141616063D01*
X171557619Y-141729159D01*
X171454286Y-141827254D01*
X171374643Y-141854397D01*
X171268095Y-141871063D01*
X171157725Y-141877413D01*
X170998042Y-141881222D01*
X170789048Y-141882492D01*
X170610529Y-141880799D01*
X170466085Y-141875720D01*
X170355714Y-141867254D01*
X170233095Y-141846063D01*
X170145238Y-141812968D01*
X170043810Y-141702492D01*
X170022738Y-141616063D01*
X170015714Y-141493921D01*
X170015714Y-141432968D01*
X170399524Y-141432968D01*
X170438571Y-141556778D01*
X170512381Y-141578206D01*
X170606310Y-141581183D01*
X170797619Y-141583444D01*
X170998810Y-141582135D01*
X171099524Y-141580111D01*
X171179524Y-141565349D01*
X171223333Y-141467254D01*
X171192381Y-141389635D01*
X171066190Y-141368206D01*
X170951905Y-141365349D01*
X170755714Y-141356778D01*
X170555238Y-141347730D01*
X170439524Y-141343444D01*
X170313214Y-141334278D01*
X170220000Y-141316302D01*
X170100476Y-141243444D01*
X170045476Y-141131540D01*
X170027143Y-140963444D01*
X170036455Y-140831169D01*
X170064392Y-140727677D01*
X170110952Y-140652968D01*
X170191905Y-140595230D01*
X170307143Y-140562968D01*
X170390417Y-140554427D01*
X170507857Y-140548325D01*
X170659464Y-140544665D01*
X170845238Y-140543444D01*
X171017407Y-140545243D01*
G37*
%TO.C,kibuzzard-69865582*%
G36*
X110371810Y-124597095D02*
G01*
X110446095Y-124597095D01*
X110762286Y-124294238D01*
X111225143Y-124294238D01*
X110746095Y-124725667D01*
X111288000Y-125217095D01*
X110830857Y-125217095D01*
X110459429Y-124847571D01*
X110371810Y-124847571D01*
X110371810Y-125217095D01*
X110027048Y-125217095D01*
X110027048Y-123917095D01*
X110371810Y-123917095D01*
X110371810Y-124597095D01*
G37*
G36*
X109408476Y-124272757D02*
G01*
X109523873Y-124279741D01*
X109614190Y-124291381D01*
X109718119Y-124320190D01*
X109796571Y-124364714D01*
X109874190Y-124474714D01*
X109892167Y-124556024D01*
X109901333Y-124669476D01*
X109549905Y-124669476D01*
X109479905Y-124560429D01*
X109395976Y-124537929D01*
X109267048Y-124530429D01*
X109136810Y-124537571D01*
X109052762Y-124559000D01*
X108998476Y-124624238D01*
X108982286Y-124760905D01*
X108999429Y-124891381D01*
X109060381Y-124952333D01*
X109145619Y-124973762D01*
X109271810Y-124980905D01*
X109400262Y-124974000D01*
X109480857Y-124953286D01*
X109548952Y-124846619D01*
X109900381Y-124846619D01*
X109892167Y-124948167D01*
X109877048Y-125022333D01*
X109813714Y-125128524D01*
X109735619Y-125184833D01*
X109634667Y-125218524D01*
X109542074Y-125230958D01*
X109414138Y-125238418D01*
X109250857Y-125240905D01*
X109064310Y-125236381D01*
X108931333Y-125222810D01*
X108834310Y-125197095D01*
X108755619Y-125156143D01*
X108699190Y-125098405D01*
X108663238Y-125020429D01*
X108643952Y-124908643D01*
X108637524Y-124749476D01*
X108643476Y-124603286D01*
X108661333Y-124498048D01*
X108694429Y-124422095D01*
X108746095Y-124363762D01*
X108823714Y-124318762D01*
X108923238Y-124290429D01*
X109010646Y-124279317D01*
X109125566Y-124272651D01*
X109268000Y-124270429D01*
X109408476Y-124272757D01*
G37*
G36*
X106212762Y-124418048D02*
G01*
X106228000Y-124418048D01*
X106287524Y-124346024D01*
X106361333Y-124301381D01*
X106465143Y-124278167D01*
X106614667Y-124270429D01*
X106768357Y-124275429D01*
X106888476Y-124290429D01*
X106980976Y-124316857D01*
X107051810Y-124356143D01*
X107108714Y-124414952D01*
X107144190Y-124490429D01*
X107162762Y-124598048D01*
X107168952Y-124753286D01*
X107167167Y-124855786D01*
X107161810Y-124930905D01*
X107134667Y-125044714D01*
X107076095Y-125137095D01*
X106980381Y-125197095D01*
X106890011Y-125221434D01*
X106771280Y-125236037D01*
X106624190Y-125240905D01*
X106526095Y-125236740D01*
X106479640Y-125234767D01*
X106368529Y-125216354D01*
X106290857Y-125185667D01*
X106211810Y-125096143D01*
X106192762Y-125096143D01*
X106192762Y-125217095D01*
X105868000Y-125217095D01*
X105868000Y-124759952D01*
X106212762Y-124759952D01*
X106230381Y-124897571D01*
X106298476Y-124955190D01*
X106390619Y-124974476D01*
X106526095Y-124980905D01*
X106677524Y-124971381D01*
X106768000Y-124942810D01*
X106811810Y-124879000D01*
X106824190Y-124747571D01*
X106807524Y-124616143D01*
X106745143Y-124558048D01*
X106654667Y-124537333D01*
X106520381Y-124530429D01*
X106371571Y-124538524D01*
X106281333Y-124562810D01*
X106227524Y-124626619D01*
X106212762Y-124759952D01*
X105868000Y-124759952D01*
X105868000Y-123917095D01*
X106212762Y-123917095D01*
X106212762Y-124418048D01*
G37*
G36*
X108174667Y-124273762D02*
G01*
X108293714Y-124286619D01*
X108370381Y-124314000D01*
X108434667Y-124361857D01*
X108497048Y-124471857D01*
X108509548Y-124551500D01*
X108513714Y-124661857D01*
X108513714Y-125217095D01*
X108182286Y-125217095D01*
X108182286Y-125091381D01*
X108166095Y-125091381D01*
X108116810Y-125160429D01*
X108045143Y-125207571D01*
X107922286Y-125233762D01*
X107851810Y-125237450D01*
X107819905Y-125239119D01*
X107670857Y-125240905D01*
X107547762Y-125236500D01*
X107456571Y-125223286D01*
X107335619Y-125162810D01*
X107285619Y-125078762D01*
X107268952Y-124954238D01*
X107273298Y-124923762D01*
X107613714Y-124923762D01*
X107663238Y-124999952D01*
X107735143Y-125014952D01*
X107851810Y-125019952D01*
X108003714Y-125014476D01*
X108097524Y-124998048D01*
X108162286Y-124915190D01*
X108106095Y-124839000D01*
X108036810Y-124831381D01*
X107880381Y-124827571D01*
X107739190Y-124832810D01*
X107664190Y-124848524D01*
X107613714Y-124923762D01*
X107273298Y-124923762D01*
X107288714Y-124815667D01*
X107348000Y-124721857D01*
X107420857Y-124675429D01*
X107513714Y-124648524D01*
X107601545Y-124639000D01*
X107727894Y-124633286D01*
X107892762Y-124631381D01*
X107994786Y-124634833D01*
X108062762Y-124645190D01*
X108153714Y-124703762D01*
X108168952Y-124703762D01*
X108168952Y-124655190D01*
X108128952Y-124519000D01*
X108059667Y-124498286D01*
X107931810Y-124491381D01*
X107781571Y-124494952D01*
X107702286Y-124505667D01*
X107649905Y-124583762D01*
X107306095Y-124583762D01*
X107320857Y-124489238D01*
X107351810Y-124420905D01*
X107430738Y-124346619D01*
X107543714Y-124300905D01*
X107650328Y-124283444D01*
X107796836Y-124272968D01*
X107983238Y-124269476D01*
X108174667Y-124273762D01*
G37*
%TO.C,kibuzzard-6986560D*%
G36*
X93469341Y-120877462D02*
G01*
X93537033Y-120877462D01*
X93808681Y-119979000D01*
X94250000Y-119979000D01*
X94523407Y-120877462D01*
X94591978Y-120877462D01*
X94915495Y-119979000D01*
X95303187Y-119979000D01*
X94836374Y-121179000D01*
X94271978Y-121179000D01*
X94031099Y-120299000D01*
X93792857Y-121179000D01*
X93226703Y-121179000D01*
X92774835Y-119979000D01*
X93147582Y-119979000D01*
X93469341Y-120877462D01*
G37*
G36*
X92287216Y-119980074D02*
G01*
X92392125Y-119983298D01*
X92458352Y-119988670D01*
X92607912Y-120029220D01*
X92699670Y-120103396D01*
X92734591Y-120179928D01*
X92755543Y-120288206D01*
X92762527Y-120428231D01*
X92756764Y-120561759D01*
X92739475Y-120665789D01*
X92710659Y-120740319D01*
X92612198Y-120832626D01*
X92537253Y-120859440D01*
X92439011Y-120876582D01*
X92326923Y-120883176D01*
X92147143Y-120885374D01*
X91687363Y-120885374D01*
X91687363Y-121179000D01*
X91321648Y-121179000D01*
X91321648Y-120585593D01*
X91687363Y-120585593D01*
X92144505Y-120585593D01*
X92245055Y-120584275D01*
X92297033Y-120582077D01*
X92346703Y-120568011D01*
X92385385Y-120522736D01*
X92395934Y-120428231D01*
X92382747Y-120334165D01*
X92336154Y-120291088D01*
X92275934Y-120283176D01*
X92144505Y-120278780D01*
X91687363Y-120278780D01*
X91687363Y-120585593D01*
X91321648Y-120585593D01*
X91321648Y-119979000D01*
X92143626Y-119979000D01*
X92287216Y-119980074D01*
G37*
G36*
X96427094Y-119980123D02*
G01*
X96551343Y-119982321D01*
X96620110Y-119985593D01*
X96738791Y-120026473D01*
X96796593Y-120075593D01*
X96832857Y-120140319D01*
X96851978Y-120233615D01*
X96858352Y-120368451D01*
X96854286Y-120482077D01*
X96842088Y-120560978D01*
X96780989Y-120659440D01*
X96720330Y-120692846D01*
X96635055Y-120713945D01*
X96733956Y-120734824D01*
X96800330Y-120779879D01*
X96837253Y-120862956D01*
X96843187Y-120938451D01*
X96845165Y-121067352D01*
X96845165Y-121179000D01*
X96484725Y-121179000D01*
X96484725Y-121114824D01*
X96477253Y-120971967D01*
X96449560Y-120906473D01*
X96393736Y-120879659D01*
X96244725Y-120873945D01*
X95729560Y-120873945D01*
X95729560Y-121179000D01*
X95363846Y-121179000D01*
X95363846Y-120574165D01*
X95729560Y-120574165D01*
X96243846Y-120574165D01*
X96351209Y-120571637D01*
X96404286Y-120569330D01*
X96448681Y-120555703D01*
X96482088Y-120511308D01*
X96491758Y-120422077D01*
X96480769Y-120334165D01*
X96442527Y-120291967D01*
X96396374Y-120281418D01*
X96344615Y-120279879D01*
X96242967Y-120278780D01*
X95729560Y-120278780D01*
X95729560Y-120574165D01*
X95363846Y-120574165D01*
X95363846Y-119979000D01*
X96247363Y-119979000D01*
X96427094Y-119980123D01*
G37*
%TO.C,kibuzzard-6986556E*%
G36*
X114269429Y-124176143D02*
G01*
X113924667Y-124176143D01*
X113924667Y-123917095D01*
X114269429Y-123917095D01*
X114269429Y-124176143D01*
G37*
G36*
X114269429Y-125217095D02*
G01*
X113924667Y-125217095D01*
X113924667Y-124294238D01*
X114269429Y-124294238D01*
X114269429Y-125217095D01*
G37*
G36*
X119427286Y-124290905D02*
G01*
X119540857Y-124352333D01*
X119602286Y-124465905D01*
X119622762Y-124642810D01*
X119620857Y-124704714D01*
X119296095Y-124704714D01*
X119278952Y-124591381D01*
X119221095Y-124545667D01*
X119114190Y-124530429D01*
X119009190Y-124547095D01*
X118939905Y-124597095D01*
X118905143Y-124679476D01*
X118896095Y-124834238D01*
X118896095Y-125217095D01*
X118551333Y-125217095D01*
X118551333Y-124294238D01*
X118876095Y-124294238D01*
X118876095Y-124433286D01*
X118893238Y-124433286D01*
X118950024Y-124357571D01*
X119023238Y-124307571D01*
X119120738Y-124279714D01*
X119250381Y-124270429D01*
X119427286Y-124290905D01*
G37*
G36*
X115307881Y-124276976D02*
G01*
X115420381Y-124296619D01*
X115506690Y-124332214D01*
X115576095Y-124386619D01*
X115628714Y-124454714D01*
X115658952Y-124529476D01*
X115673238Y-124635667D01*
X115678000Y-124798048D01*
X115678000Y-125217095D01*
X115333238Y-125217095D01*
X115333238Y-124798048D01*
X115325143Y-124647095D01*
X115289429Y-124579952D01*
X115206333Y-124542810D01*
X115058000Y-124530429D01*
X114909190Y-124545667D01*
X114820857Y-124591381D01*
X114779905Y-124673286D01*
X114772762Y-124741381D01*
X114770381Y-124848524D01*
X114770381Y-125217095D01*
X114425619Y-125217095D01*
X114425619Y-124294238D01*
X114750381Y-124294238D01*
X114750381Y-124435190D01*
X114768476Y-124435190D01*
X114825738Y-124358048D01*
X114904190Y-124307571D01*
X115012643Y-124279714D01*
X115159905Y-124270429D01*
X115307881Y-124276976D01*
G37*
G36*
X120161810Y-124294238D02*
G01*
X120707524Y-124294238D01*
X120707524Y-124540905D01*
X120161810Y-124540905D01*
X120161810Y-124809476D01*
X120177048Y-124945667D01*
X120298952Y-124993286D01*
X120422762Y-124947571D01*
X120434190Y-124911857D01*
X120436095Y-124821857D01*
X120751333Y-124821857D01*
X120746452Y-124935905D01*
X120735619Y-125013286D01*
X120681810Y-125122810D01*
X120620500Y-125178643D01*
X120539429Y-125214714D01*
X120426452Y-125234357D01*
X120269429Y-125240905D01*
X120125024Y-125236381D01*
X120023238Y-125222810D01*
X119892286Y-125155190D01*
X119838952Y-125076143D01*
X119818952Y-124958048D01*
X119817048Y-124809476D01*
X119817048Y-124540905D01*
X119635143Y-124540905D01*
X119635143Y-124294238D01*
X119817048Y-124294238D01*
X119817048Y-124081857D01*
X120161810Y-124081857D01*
X120161810Y-124294238D01*
G37*
G36*
X117942233Y-124272228D02*
G01*
X118050487Y-124277624D01*
X118128476Y-124286619D01*
X118269905Y-124332214D01*
X118358952Y-124411857D01*
X118393873Y-124490958D01*
X118414825Y-124599370D01*
X118421810Y-124737095D01*
X118419905Y-124830429D01*
X118075143Y-124830429D01*
X117518000Y-124830429D01*
X117527048Y-124931381D01*
X117562762Y-124981857D01*
X117646571Y-125010429D01*
X117795143Y-125019952D01*
X117895976Y-125017690D01*
X117968000Y-125010905D01*
X118046571Y-124980905D01*
X118070381Y-124921857D01*
X118414190Y-124921857D01*
X118384190Y-125051143D01*
X118322762Y-125138048D01*
X118242286Y-125187214D01*
X118134190Y-125218524D01*
X118039376Y-125230958D01*
X117917471Y-125238418D01*
X117768476Y-125240905D01*
X117590857Y-125236024D01*
X117459905Y-125221381D01*
X117363476Y-125194833D01*
X117289429Y-125154238D01*
X117233238Y-125095310D01*
X117198000Y-125019476D01*
X117179429Y-124912452D01*
X117173238Y-124759952D01*
X117175619Y-124644833D01*
X117175877Y-124641857D01*
X117518000Y-124641857D01*
X118075143Y-124641857D01*
X118068000Y-124567095D01*
X118047524Y-124530429D01*
X117965381Y-124496143D01*
X117808476Y-124484714D01*
X117663714Y-124492333D01*
X117578000Y-124515190D01*
X117518000Y-124641857D01*
X117175877Y-124641857D01*
X117182762Y-124562333D01*
X117218952Y-124442810D01*
X117296571Y-124351619D01*
X117418952Y-124299000D01*
X117516730Y-124283127D01*
X117644984Y-124273603D01*
X117803714Y-124270429D01*
X117942233Y-124272228D01*
G37*
G36*
X116584349Y-124272386D02*
G01*
X116698317Y-124278259D01*
X116783714Y-124288048D01*
X116878476Y-124313643D01*
X116949429Y-124355190D01*
X117001333Y-124428524D01*
X117023714Y-124555190D01*
X116672286Y-124555190D01*
X116648476Y-124511381D01*
X116572762Y-124491381D01*
X116431333Y-124484714D01*
X116294905Y-124488762D01*
X116209429Y-124500905D01*
X116149429Y-124559952D01*
X116232286Y-124621857D01*
X116313344Y-124624820D01*
X116470169Y-124627360D01*
X116702762Y-124629476D01*
X116870143Y-124646381D01*
X116983714Y-124695190D01*
X117049429Y-124782571D01*
X117071333Y-124917095D01*
X117062762Y-125011976D01*
X117037048Y-125087095D01*
X116929429Y-125184714D01*
X116851452Y-125209298D01*
X116739429Y-125226857D01*
X116593357Y-125237393D01*
X116413238Y-125240905D01*
X116260857Y-125238735D01*
X116140222Y-125232228D01*
X116051333Y-125221381D01*
X115953476Y-125192452D01*
X115878952Y-125144714D01*
X115819667Y-125054238D01*
X115798000Y-124923762D01*
X116149429Y-124923762D01*
X116215143Y-125004714D01*
X116301333Y-125021143D01*
X116438000Y-125026619D01*
X116578833Y-125022095D01*
X116666095Y-125008524D01*
X116726571Y-124940905D01*
X116668476Y-124877095D01*
X116581571Y-124870667D01*
X116374190Y-124866619D01*
X116172524Y-124864476D01*
X116066571Y-124858048D01*
X115930857Y-124820667D01*
X115847524Y-124752333D01*
X115815381Y-124678524D01*
X115804667Y-124582810D01*
X115821386Y-124462704D01*
X115871545Y-124374132D01*
X115955143Y-124317095D01*
X116028060Y-124296679D01*
X116133476Y-124282095D01*
X116271393Y-124273345D01*
X116441810Y-124270429D01*
X116584349Y-124272386D01*
G37*
%TO.C,kibuzzard-69865656*%
G36*
X95679890Y-124877462D02*
G01*
X95748462Y-124877462D01*
X96181868Y-123979000D01*
X96580989Y-123979000D01*
X95995495Y-125179000D01*
X95433736Y-125179000D01*
X94840330Y-123979000D01*
X95242088Y-123979000D01*
X95679890Y-124877462D01*
G37*
G36*
X92600818Y-123979391D02*
G01*
X92701331Y-123980563D01*
X92766484Y-123982516D01*
X92839231Y-123989110D01*
X92915055Y-124001857D01*
X93021233Y-124040929D01*
X93099475Y-124108915D01*
X93149780Y-124205813D01*
X93177033Y-124341637D01*
X93182308Y-124432736D01*
X93184066Y-124560978D01*
X93181978Y-124702297D01*
X93175714Y-124804495D01*
X93163736Y-124883396D01*
X93144505Y-124954824D01*
X93096154Y-125046839D01*
X93022601Y-125111894D01*
X92923846Y-125149989D01*
X92842967Y-125164604D01*
X92756813Y-125173286D01*
X92639670Y-125177571D01*
X92465824Y-125179000D01*
X91959451Y-125179000D01*
X91599011Y-125179000D01*
X91599011Y-124873066D01*
X91959451Y-124873066D01*
X92468462Y-124873066D01*
X92590549Y-124870758D01*
X92675495Y-124863835D01*
X92769121Y-124831747D01*
X92811319Y-124750868D01*
X92820549Y-124681418D01*
X92823626Y-124583835D01*
X92820989Y-124486033D01*
X92813077Y-124415923D01*
X92776154Y-124329769D01*
X92689560Y-124288011D01*
X92605055Y-124281088D01*
X92464945Y-124278780D01*
X91959451Y-124278780D01*
X91959451Y-124873066D01*
X91599011Y-124873066D01*
X91599011Y-123979000D01*
X92464945Y-123979000D01*
X92600818Y-123979391D01*
G37*
G36*
X94391490Y-123980123D02*
G01*
X94515739Y-123982321D01*
X94584505Y-123985593D01*
X94703187Y-124026473D01*
X94760989Y-124075593D01*
X94797253Y-124140319D01*
X94816374Y-124233615D01*
X94822747Y-124368451D01*
X94818681Y-124482077D01*
X94806484Y-124560978D01*
X94745385Y-124659440D01*
X94684725Y-124692846D01*
X94599451Y-124713945D01*
X94698352Y-124734824D01*
X94764725Y-124779879D01*
X94801648Y-124862956D01*
X94807582Y-124938451D01*
X94809560Y-125067352D01*
X94809560Y-125179000D01*
X94449121Y-125179000D01*
X94449121Y-125114824D01*
X94441648Y-124971967D01*
X94413956Y-124906473D01*
X94358132Y-124879659D01*
X94209121Y-124873945D01*
X93693956Y-124873945D01*
X93693956Y-125179000D01*
X93328242Y-125179000D01*
X93328242Y-124574165D01*
X93693956Y-124574165D01*
X94208242Y-124574165D01*
X94315604Y-124571637D01*
X94368681Y-124569330D01*
X94413077Y-124555703D01*
X94446484Y-124511308D01*
X94456154Y-124422077D01*
X94445165Y-124334165D01*
X94406923Y-124291967D01*
X94360769Y-124281418D01*
X94309011Y-124279879D01*
X94207363Y-124278780D01*
X93693956Y-124278780D01*
X93693956Y-124574165D01*
X93328242Y-124574165D01*
X93328242Y-123979000D01*
X94211758Y-123979000D01*
X94391490Y-123980123D01*
G37*
%TD*%
M02*
