%TF.GenerationSoftware,KiCad,Pcbnew,9.0.7*%
%TF.CreationDate,2026-03-10T19:04:45+01:00*%
%TF.ProjectId,Pi1551-III Module-rotated,50693135-3531-42d4-9949-49204d6f6475,2*%
%TF.SameCoordinates,Original*%
%TF.FileFunction,Soldermask,Top*%
%TF.FilePolarity,Negative*%
%FSLAX46Y46*%
G04 Gerber Fmt 4.6, Leading zero omitted, Abs format (unit mm)*
G04 Created by KiCad (PCBNEW 9.0.7) date 2026-03-10 19:04:45*
%MOMM*%
%LPD*%
G01*
G04 APERTURE LIST*
G04 Aperture macros list*
%AMRoundRect*
0 Rectangle with rounded corners*
0 $1 Rounding radius*
0 $2 $3 $4 $5 $6 $7 $8 $9 X,Y pos of 4 corners*
0 Add a 4 corners polygon primitive as box body*
4,1,4,$2,$3,$4,$5,$6,$7,$8,$9,$2,$3,0*
0 Add four circle primitives for the rounded corners*
1,1,$1+$1,$2,$3*
1,1,$1+$1,$4,$5*
1,1,$1+$1,$6,$7*
1,1,$1+$1,$8,$9*
0 Add four rect primitives between the rounded corners*
20,1,$1+$1,$2,$3,$4,$5,0*
20,1,$1+$1,$4,$5,$6,$7,0*
20,1,$1+$1,$6,$7,$8,$9,0*
20,1,$1+$1,$8,$9,$2,$3,0*%
%AMFreePoly0*
4,1,23,0.550000,-0.750000,0.000000,-0.750000,0.000000,-0.745722,-0.065263,-0.745722,-0.191342,-0.711940,-0.304381,-0.646677,-0.396677,-0.554381,-0.461940,-0.441342,-0.495722,-0.315263,-0.495722,-0.250000,-0.500000,-0.250000,-0.500000,0.250000,-0.495722,0.250000,-0.495722,0.315263,-0.461940,0.441342,-0.396677,0.554381,-0.304381,0.646677,-0.191342,0.711940,-0.065263,0.745722,0.000000,0.745722,
0.000000,0.750000,0.550000,0.750000,0.550000,-0.750000,0.550000,-0.750000,$1*%
%AMFreePoly1*
4,1,23,0.000000,0.745722,0.065263,0.745722,0.191342,0.711940,0.304381,0.646677,0.396677,0.554381,0.461940,0.441342,0.495722,0.315263,0.495722,0.250000,0.500000,0.250000,0.500000,-0.250000,0.495722,-0.250000,0.495722,-0.315263,0.461940,-0.441342,0.396677,-0.554381,0.304381,-0.646677,0.191342,-0.711940,0.065263,-0.745722,0.000000,-0.745722,0.000000,-0.750000,-0.550000,-0.750000,
-0.550000,0.750000,0.000000,0.750000,0.000000,0.745722,0.000000,0.745722,$1*%
G04 Aperture macros list end*
%ADD10RoundRect,0.250000X-0.450000X0.350000X-0.450000X-0.350000X0.450000X-0.350000X0.450000X0.350000X0*%
%ADD11C,5.100000*%
%ADD12R,1.600000X1.600000*%
%ADD13C,1.600000*%
%ADD14R,3.500000X3.500000*%
%ADD15R,1.700000X1.700000*%
%ADD16O,1.700000X1.700000*%
%ADD17R,3.000000X2.000000*%
%ADD18R,2.000000X2.000000*%
%ADD19C,2.000000*%
%ADD20O,3.000000X2.000000*%
%ADD21RoundRect,0.250000X-0.350000X-0.450000X0.350000X-0.450000X0.350000X0.450000X-0.350000X0.450000X0*%
%ADD22RoundRect,0.225000X0.375000X-0.225000X0.375000X0.225000X-0.375000X0.225000X-0.375000X-0.225000X0*%
%ADD23RoundRect,0.250000X0.600000X-0.600000X0.600000X0.600000X-0.600000X0.600000X-0.600000X-0.600000X0*%
%ADD24C,1.700000*%
%ADD25RoundRect,0.250000X0.350000X0.450000X-0.350000X0.450000X-0.350000X-0.450000X0.350000X-0.450000X0*%
%ADD26C,1.200000*%
%ADD27RoundRect,0.600000X0.000010X-0.700000X0.000010X0.700000X-0.000010X0.700000X-0.000010X-0.700000X0*%
%ADD28RoundRect,0.600000X-0.700000X-0.000010X0.700000X-0.000010X0.700000X0.000010X-0.700000X0.000010X0*%
%ADD29FreePoly0,270.000000*%
%ADD30R,1.500000X1.000000*%
%ADD31FreePoly1,270.000000*%
%ADD32FreePoly0,90.000000*%
%ADD33FreePoly1,90.000000*%
%ADD34RoundRect,0.250000X0.450000X-0.350000X0.450000X0.350000X-0.450000X0.350000X-0.450000X-0.350000X0*%
%ADD35RoundRect,0.200000X-0.750000X-0.200000X0.750000X-0.200000X0.750000X0.200000X-0.750000X0.200000X0*%
%ADD36RoundRect,0.200000X0.750000X0.200000X-0.750000X0.200000X-0.750000X-0.200000X0.750000X-0.200000X0*%
G04 APERTURE END LIST*
%TO.C,JP1*%
G36*
X111250000Y-70857000D02*
G01*
X109750000Y-70857000D01*
X109750000Y-72357000D01*
X111250000Y-72357000D01*
X111250000Y-70857000D01*
G37*
%TO.C,JP2*%
G36*
X125250000Y-72364000D02*
G01*
X126750000Y-72364000D01*
X126750000Y-70864000D01*
X125250000Y-70864000D01*
X125250000Y-72364000D01*
G37*
%TD*%
D10*
%TO.C,R24*%
X99187000Y-120428000D03*
X99187000Y-122428000D03*
%TD*%
%TO.C,R23*%
X109601000Y-120428000D03*
X109601000Y-122428000D03*
%TD*%
%TO.C,R22*%
X102616000Y-120428000D03*
X102616000Y-122428000D03*
%TD*%
%TO.C,R21*%
X113030000Y-120428000D03*
X113030000Y-122428000D03*
%TD*%
%TO.C,R20*%
X106045000Y-120428000D03*
X106045000Y-122428000D03*
%TD*%
%TO.C,R19*%
X118237000Y-96933000D03*
X118237000Y-98933000D03*
%TD*%
%TO.C,R18*%
X114808000Y-96933000D03*
X114808000Y-98933000D03*
%TD*%
%TO.C,R17*%
X111379000Y-96949000D03*
X111379000Y-98949000D03*
%TD*%
%TO.C,R16*%
X107950000Y-96949000D03*
X107950000Y-98949000D03*
%TD*%
%TO.C,R15*%
X104521000Y-96917000D03*
X104521000Y-98917000D03*
%TD*%
%TO.C,R14*%
X101092000Y-96933000D03*
X101092000Y-98933000D03*
%TD*%
%TO.C,R13*%
X97663000Y-96933000D03*
X97663000Y-98933000D03*
%TD*%
%TO.C,R12*%
X94234000Y-96933000D03*
X94234000Y-98933000D03*
%TD*%
D11*
%TO.C,M1*%
X73355000Y-151435000D03*
%TD*%
D12*
%TO.C,C6*%
X88500000Y-77000000D03*
D13*
X92000000Y-77000000D03*
%TD*%
D14*
%TO.C,J1*%
X90000000Y-68500000D03*
X90000000Y-62500000D03*
X85300000Y-65500000D03*
%TD*%
D15*
%TO.C,J8*%
X112560000Y-140970000D03*
D16*
X115100000Y-140970000D03*
X117640000Y-140970000D03*
X120180000Y-140970000D03*
X122720000Y-140970000D03*
X125260000Y-140970000D03*
X127800000Y-140970000D03*
X130340000Y-140970000D03*
X132880000Y-140970000D03*
X135420000Y-140970000D03*
X137960000Y-140970000D03*
X140500000Y-140970000D03*
%TD*%
D11*
%TO.C,M2*%
X167005000Y-151435000D03*
%TD*%
%TO.C,M3*%
X167005000Y-57785000D03*
%TD*%
%TO.C,M4*%
X73355000Y-57785000D03*
%TD*%
D17*
%TO.C,BZ1*%
X159210000Y-75000000D03*
D18*
X161020000Y-75000000D03*
D19*
X165000000Y-75000000D03*
D20*
X166810000Y-75000000D03*
%TD*%
D11*
%TO.C,A1*%
X74250000Y-86380000D03*
X132250000Y-86380000D03*
D15*
X79120000Y-134110000D03*
D16*
X79120000Y-136650000D03*
X81660000Y-134110000D03*
X81660000Y-136650000D03*
X84200000Y-134110000D03*
X84200000Y-136650000D03*
X86740000Y-134110000D03*
X86740000Y-136650000D03*
X89280000Y-134110000D03*
X89280000Y-136650000D03*
X91820000Y-134110000D03*
X91820000Y-136650000D03*
X94360000Y-134110000D03*
X94360000Y-136650000D03*
X96900000Y-134110000D03*
X96900000Y-136650000D03*
X99440000Y-134110000D03*
X99440000Y-136650000D03*
X101980000Y-134110000D03*
X101980000Y-136650000D03*
X104520000Y-134110000D03*
X104520000Y-136650000D03*
X107060000Y-134110000D03*
X107060000Y-136650000D03*
X109600000Y-134110000D03*
X109600000Y-136650000D03*
X112140000Y-134110000D03*
X112140000Y-136650000D03*
X114680000Y-134110000D03*
X114680000Y-136650000D03*
X117220000Y-134110000D03*
X117220000Y-136650000D03*
X119760000Y-134110000D03*
X119760000Y-136650000D03*
X122300000Y-134110000D03*
X122300000Y-136650000D03*
X124840000Y-134110000D03*
X124840000Y-136650000D03*
X127380000Y-134110000D03*
X127380000Y-136650000D03*
%TD*%
D21*
%TO.C,R7*%
X98000000Y-79742000D03*
X100000000Y-79742000D03*
%TD*%
%TO.C,R6*%
X98008000Y-76440000D03*
X100008000Y-76440000D03*
%TD*%
D10*
%TO.C,R3*%
X120142000Y-127000000D03*
X120142000Y-129000000D03*
%TD*%
D22*
%TO.C,D2*%
X152908000Y-80136000D03*
X152908000Y-76836000D03*
%TD*%
D23*
%TO.C,J3*%
X139610000Y-62992000D03*
D24*
X139610000Y-60452000D03*
X142150000Y-62992000D03*
X142150000Y-60452000D03*
X144690000Y-62992000D03*
X144690000Y-60452000D03*
X147230000Y-62992000D03*
X147230000Y-60452000D03*
X149770000Y-62992000D03*
X149770000Y-60452000D03*
X152310000Y-62992000D03*
X152310000Y-60452000D03*
X154850000Y-62992000D03*
X154850000Y-60452000D03*
X157390000Y-62992000D03*
X157390000Y-60452000D03*
%TD*%
D25*
%TO.C,R11*%
X138500000Y-69500000D03*
X136500000Y-69500000D03*
%TD*%
D26*
%TO.C,J4*%
X123950000Y-63500000D03*
X126550000Y-63500000D03*
X121850000Y-63500000D03*
X128650000Y-63500000D03*
X121850000Y-66000000D03*
X126150000Y-66000000D03*
X128650000Y-66000000D03*
D27*
X118500000Y-60500000D03*
D28*
X125250000Y-59700000D03*
D27*
X132000000Y-60500000D03*
%TD*%
D29*
%TO.C,JP1*%
X110500000Y-70307000D03*
D30*
X110500000Y-71607000D03*
D31*
X110500000Y-72907000D03*
%TD*%
D32*
%TO.C,JP2*%
X126000000Y-72914000D03*
D30*
X126000000Y-71614000D03*
D33*
X126000000Y-70314000D03*
%TD*%
D34*
%TO.C,R2*%
X114906000Y-129000000D03*
X114906000Y-127000000D03*
%TD*%
D21*
%TO.C,R4*%
X98008000Y-69464000D03*
X100008000Y-69464000D03*
%TD*%
D34*
%TO.C,R1*%
X147320000Y-79486000D03*
X147320000Y-77486000D03*
%TD*%
D25*
%TO.C,R9*%
X138500000Y-76500000D03*
X136500000Y-76500000D03*
%TD*%
D35*
%TO.C,Q1*%
X103500000Y-70670000D03*
X103500000Y-72570000D03*
X106500000Y-71620000D03*
%TD*%
D25*
%TO.C,R10*%
X138500000Y-73090000D03*
X136500000Y-73090000D03*
%TD*%
%TO.C,R8*%
X138500000Y-80000000D03*
X136500000Y-80000000D03*
%TD*%
D35*
%TO.C,Q2*%
X103500000Y-77014000D03*
X103500000Y-78914000D03*
X106500000Y-77964000D03*
%TD*%
D36*
%TO.C,Q4*%
X133000000Y-72450000D03*
X133000000Y-70550000D03*
X130000000Y-71500000D03*
%TD*%
%TO.C,Q3*%
X133000000Y-78974000D03*
X133000000Y-77074000D03*
X130000000Y-78024000D03*
%TD*%
D21*
%TO.C,R5*%
X98008000Y-72956000D03*
X100008000Y-72956000D03*
%TD*%
M02*
