%TF.GenerationSoftware,KiCad,Pcbnew,9.0.7*%
%TF.CreationDate,2026-03-10T19:04:45+01:00*%
%TF.ProjectId,Pi1551-III Module-rotated,50693135-3531-42d4-9949-49204d6f6475,2*%
%TF.SameCoordinates,Original*%
%TF.FileFunction,Copper,L2,Bot*%
%TF.FilePolarity,Positive*%
%FSLAX46Y46*%
G04 Gerber Fmt 4.6, Leading zero omitted, Abs format (unit mm)*
G04 Created by KiCad (PCBNEW 9.0.7) date 2026-03-10 19:04:45*
%MOMM*%
%LPD*%
G01*
G04 APERTURE LIST*
G04 Aperture macros list*
%AMRoundRect*
0 Rectangle with rounded corners*
0 $1 Rounding radius*
0 $2 $3 $4 $5 $6 $7 $8 $9 X,Y pos of 4 corners*
0 Add a 4 corners polygon primitive as box body*
4,1,4,$2,$3,$4,$5,$6,$7,$8,$9,$2,$3,0*
0 Add four circle primitives for the rounded corners*
1,1,$1+$1,$2,$3*
1,1,$1+$1,$4,$5*
1,1,$1+$1,$6,$7*
1,1,$1+$1,$8,$9*
0 Add four rect primitives between the rounded corners*
20,1,$1+$1,$2,$3,$4,$5,0*
20,1,$1+$1,$4,$5,$6,$7,0*
20,1,$1+$1,$6,$7,$8,$9,0*
20,1,$1+$1,$8,$9,$2,$3,0*%
G04 Aperture macros list end*
%TA.AperFunction,WasherPad*%
%ADD10C,3.500000*%
%TD*%
%TA.AperFunction,ComponentPad*%
%ADD11R,1.600000X1.600000*%
%TD*%
%TA.AperFunction,ComponentPad*%
%ADD12C,1.600000*%
%TD*%
%TA.AperFunction,ComponentPad*%
%ADD13R,3.500000X3.500000*%
%TD*%
%TA.AperFunction,ComponentPad*%
%ADD14R,1.700000X1.700000*%
%TD*%
%TA.AperFunction,ComponentPad*%
%ADD15O,1.700000X1.700000*%
%TD*%
%TA.AperFunction,ComponentPad*%
%ADD16R,3.000000X2.000000*%
%TD*%
%TA.AperFunction,ComponentPad*%
%ADD17R,2.000000X2.000000*%
%TD*%
%TA.AperFunction,ComponentPad*%
%ADD18C,2.000000*%
%TD*%
%TA.AperFunction,ComponentPad*%
%ADD19O,3.000000X2.000000*%
%TD*%
%TA.AperFunction,ComponentPad*%
%ADD20RoundRect,0.250000X0.600000X-0.600000X0.600000X0.600000X-0.600000X0.600000X-0.600000X-0.600000X0*%
%TD*%
%TA.AperFunction,ComponentPad*%
%ADD21C,1.700000*%
%TD*%
%TA.AperFunction,ComponentPad*%
%ADD22C,1.200000*%
%TD*%
%TA.AperFunction,ComponentPad*%
%ADD23RoundRect,0.600000X0.000010X-0.700000X0.000010X0.700000X-0.000010X0.700000X-0.000010X-0.700000X0*%
%TD*%
%TA.AperFunction,ComponentPad*%
%ADD24RoundRect,0.600000X-0.700000X-0.000010X0.700000X-0.000010X0.700000X0.000010X-0.700000X0.000010X0*%
%TD*%
%TA.AperFunction,ViaPad*%
%ADD25C,0.600000*%
%TD*%
%TA.AperFunction,Conductor*%
%ADD26C,0.250000*%
%TD*%
%TA.AperFunction,Conductor*%
%ADD27C,0.400000*%
%TD*%
%TA.AperFunction,Conductor*%
%ADD28C,1.200000*%
%TD*%
G04 APERTURE END LIST*
D10*
%TO.P,M1,*%
%TO.N,*%
X73355000Y-151435000D03*
%TD*%
D11*
%TO.P,C6,1*%
%TO.N,+5V*%
X88500000Y-77000000D03*
D12*
%TO.P,C6,2*%
%TO.N,GND*%
X92000000Y-77000000D03*
%TD*%
D13*
%TO.P,J1,1*%
%TO.N,+5V*%
X90000000Y-68500000D03*
%TO.P,J1,2*%
%TO.N,GND*%
X90000000Y-62500000D03*
%TO.P,J1,3*%
X85300000Y-65500000D03*
%TD*%
D14*
%TO.P,J8,1,GND*%
%TO.N,GND*%
X112560000Y-140970000D03*
D15*
%TO.P,J8,2,LED_PWR*%
%TO.N,LED_PWR*%
X115100000Y-140970000D03*
%TO.P,J8,3,LED_ACT*%
%TO.N,LED_ACT*%
X117640000Y-140970000D03*
%TO.P,J8,4,SCL*%
%TO.N,I2C_SCL*%
X120180000Y-140970000D03*
%TO.P,J8,5,SDA*%
%TO.N,I2C_SDA*%
X122720000Y-140970000D03*
%TO.P,J8,6,ENTER*%
%TO.N,SW1_ENTER*%
X125260000Y-140970000D03*
%TO.P,J8,7,UP*%
%TO.N,SW2_UP*%
X127800000Y-140970000D03*
%TO.P,J8,8,DOWN*%
%TO.N,SW3_DOWN*%
X130340000Y-140970000D03*
%TO.P,J8,9,BACK*%
%TO.N,SW4_BACK*%
X132880000Y-140970000D03*
%TO.P,J8,10,INSERT*%
%TO.N,SW5_INSERT*%
X135420000Y-140970000D03*
%TO.P,J8,11,GND*%
%TO.N,GND*%
X137960000Y-140970000D03*
%TO.P,J8,12,VCC*%
%TO.N,+3.3V*%
X140500000Y-140970000D03*
%TD*%
D10*
%TO.P,M2,*%
%TO.N,*%
X167005000Y-151435000D03*
%TD*%
%TO.P,M3,*%
%TO.N,*%
X167005000Y-57785000D03*
%TD*%
%TO.P,M4,*%
%TO.N,*%
X73355000Y-57785000D03*
%TD*%
D16*
%TO.P,BZ1,1,1*%
%TO.N,Net-(A1-PWM1{slash}GPIO13)*%
X159210000Y-75000000D03*
D17*
X161020000Y-75000000D03*
D18*
%TO.P,BZ1,2,2*%
%TO.N,GND*%
X165000000Y-75000000D03*
D19*
X166810000Y-75000000D03*
%TD*%
D10*
%TO.P,A1,*%
%TO.N,*%
X74250000Y-86380000D03*
X132250000Y-86380000D03*
D14*
%TO.P,A1,1,3V3*%
%TO.N,+3.3V*%
X79120000Y-134110000D03*
D15*
%TO.P,A1,2,5V*%
%TO.N,+5V*%
X79120000Y-136650000D03*
%TO.P,A1,3,SDA/GPIO2*%
%TO.N,I2C_SDA*%
X81660000Y-134110000D03*
%TO.P,A1,4,5V*%
%TO.N,+5V*%
X81660000Y-136650000D03*
%TO.P,A1,5,SCL/GPIO3*%
%TO.N,I2C_SCL*%
X84200000Y-134110000D03*
%TO.P,A1,6,GND*%
%TO.N,GND*%
X84200000Y-136650000D03*
%TO.P,A1,7,GCLK0/GPIO4*%
%TO.N,SW4_BACK*%
X86740000Y-134110000D03*
%TO.P,A1,8,GPIO14/TXD*%
%TO.N,/DIO1*%
X86740000Y-136650000D03*
%TO.P,A1,9,GND*%
%TO.N,GND*%
X89280000Y-134110000D03*
%TO.P,A1,10,GPIO15/RXD*%
%TO.N,/DIO2*%
X89280000Y-136650000D03*
%TO.P,A1,11,GPIO17*%
%TO.N,SW3_DOWN*%
X91820000Y-134110000D03*
%TO.P,A1,12,GPIO18/PWM0*%
%TO.N,/DIO3*%
X91820000Y-136650000D03*
%TO.P,A1,13,GPIO27*%
%TO.N,SW1_ENTER*%
X94360000Y-134110000D03*
%TO.P,A1,14,GND*%
%TO.N,GND*%
X94360000Y-136650000D03*
%TO.P,A1,15,GPIO22*%
%TO.N,SW2_UP*%
X96900000Y-134110000D03*
%TO.P,A1,16,GPIO23*%
%TO.N,/DIO4*%
X96900000Y-136650000D03*
%TO.P,A1,17,3V3*%
%TO.N,+3.3V*%
X99440000Y-134110000D03*
%TO.P,A1,18,GPIO24*%
%TO.N,/DIO5*%
X99440000Y-136650000D03*
%TO.P,A1,19,MOSI0/GPIO10*%
%TO.N,RPI_LED*%
X101980000Y-134110000D03*
%TO.P,A1,20,GND*%
%TO.N,GND*%
X101980000Y-136650000D03*
%TO.P,A1,21,MISO0/GPIO9*%
%TO.N,/DEV*%
X104520000Y-134110000D03*
%TO.P,A1,22,GPIO25*%
%TO.N,/DIO6*%
X104520000Y-136650000D03*
%TO.P,A1,23,SCLK0/GPIO11*%
%TO.N,/~{RESET_3V3}*%
X107060000Y-134110000D03*
%TO.P,A1,24,~{CE0}/GPIO8*%
%TO.N,/DIO7*%
X107060000Y-136650000D03*
%TO.P,A1,25,GND*%
%TO.N,GND*%
X109600000Y-134110000D03*
%TO.P,A1,26,~{CE1}/GPIO7*%
%TO.N,/DIO8*%
X109600000Y-136650000D03*
%TO.P,A1,27,ID_SD/GPIO0*%
%TO.N,/TAP_SENSE*%
X112140000Y-134110000D03*
%TO.P,A1,28,ID_SC/GPIO1*%
%TO.N,unconnected-(A1-ID_SC{slash}GPIO1-Pad28)*%
X112140000Y-136650000D03*
%TO.P,A1,29,GCLK1/GPIO5*%
%TO.N,SW5_INSERT*%
X114680000Y-134110000D03*
%TO.P,A1,30,GND*%
%TO.N,GND*%
X114680000Y-136650000D03*
%TO.P,A1,31,GCLK2/GPIO6*%
%TO.N,/TAP_MOTOR*%
X117220000Y-134110000D03*
%TO.P,A1,32,PWM0/GPIO12*%
%TO.N,/DAV*%
X117220000Y-136650000D03*
%TO.P,A1,33,PWM1/GPIO13*%
%TO.N,Net-(A1-PWM1{slash}GPIO13)*%
X119760000Y-134110000D03*
%TO.P,A1,34,GND*%
%TO.N,GND*%
X119760000Y-136650000D03*
%TO.P,A1,35,GPIO19/MISO1*%
%TO.N,/TAP_READ*%
X122300000Y-134110000D03*
%TO.P,A1,36,GPIO16*%
%TO.N,/STATUS0*%
X122300000Y-136650000D03*
%TO.P,A1,37,GPIO26*%
%TO.N,/TAP_WRITE*%
X124840000Y-134110000D03*
%TO.P,A1,38,GPIO20/MOSI1*%
%TO.N,/ACK*%
X124840000Y-136650000D03*
%TO.P,A1,39,GND*%
%TO.N,GND*%
X127380000Y-134110000D03*
%TO.P,A1,40,GPIO21/SCLK1*%
%TO.N,/STATUS1*%
X127380000Y-136650000D03*
%TD*%
D20*
%TO.P,J3,1,Pin_1*%
%TO.N,GND*%
X139610000Y-62992000D03*
D21*
%TO.P,J3,2,Pin_2*%
%TO.N,/DEV*%
X139610000Y-60452000D03*
%TO.P,J3,3,Pin_3*%
%TO.N,/DIO1*%
X142150000Y-62992000D03*
%TO.P,J3,4,Pin_4*%
%TO.N,/DIO2*%
X142150000Y-60452000D03*
%TO.P,J3,5,Pin_5*%
%TO.N,/DIO3*%
X144690000Y-62992000D03*
%TO.P,J3,6,Pin_6*%
%TO.N,/DIO4*%
X144690000Y-60452000D03*
%TO.P,J3,7,Pin_7*%
%TO.N,/DIO5*%
X147230000Y-62992000D03*
%TO.P,J3,8,Pin_8*%
%TO.N,/DIO6*%
X147230000Y-60452000D03*
%TO.P,J3,9,Pin_9*%
%TO.N,/DIO7*%
X149770000Y-62992000D03*
%TO.P,J3,10,Pin_10*%
%TO.N,/DIO8*%
X149770000Y-60452000D03*
%TO.P,J3,11,Pin_11*%
%TO.N,/DAV*%
X152310000Y-62992000D03*
%TO.P,J3,12,Pin_12*%
%TO.N,/STATUS0*%
X152310000Y-60452000D03*
%TO.P,J3,13,Pin_13*%
%TO.N,/ACK*%
X154850000Y-62992000D03*
%TO.P,J3,14,Pin_14*%
%TO.N,/STATUS1*%
X154850000Y-60452000D03*
%TO.P,J3,15,Pin_15*%
%TO.N,/~{RESET}*%
X157390000Y-62992000D03*
%TO.P,J3,16,Pin_16*%
%TO.N,GND*%
X157390000Y-60452000D03*
%TD*%
D22*
%TO.P,J4,1*%
%TO.N,GND*%
X123950000Y-63500000D03*
%TO.P,J4,2*%
%TO.N,/VCC_5V*%
X126550000Y-63500000D03*
%TO.P,J4,3*%
%TO.N,/CAS_MOTOR*%
X121850000Y-63500000D03*
%TO.P,J4,4*%
%TO.N,/CAS_READ*%
X128650000Y-63500000D03*
%TO.P,J4,5*%
%TO.N,/CAS_WRITE*%
X121850000Y-66000000D03*
%TO.P,J4,6*%
%TO.N,/CAS_SENSE*%
X126150000Y-66000000D03*
%TO.P,J4,7*%
%TO.N,GND*%
X128650000Y-66000000D03*
D23*
%TO.P,J4,SH*%
%TO.N,N/C*%
X118500000Y-60500000D03*
D24*
X125250000Y-59700000D03*
D23*
X132000000Y-60500000D03*
%TD*%
D25*
%TO.N,/CAS_MOTOR*%
X134531900Y-73001600D03*
%TO.N,/CAS_WRITE*%
X123648100Y-79754000D03*
%TO.N,/CAS_READ*%
X124601400Y-77679700D03*
%TO.N,/~{RESET}*%
X154527400Y-79558900D03*
%TO.N,/DAV*%
X117662100Y-122966100D03*
X119907600Y-84274300D03*
X149325900Y-82191400D03*
%TO.N,/DIO3*%
X98957500Y-99050900D03*
X102766100Y-82506000D03*
X128909500Y-67394000D03*
X125468500Y-77526400D03*
%TO.N,/TAP_SENSE*%
X113612300Y-67770500D03*
%TO.N,/STATUS1*%
X126171300Y-123765400D03*
X127952800Y-83557600D03*
X147583300Y-83449300D03*
%TO.N,/ACK*%
X123713500Y-124564700D03*
X129824200Y-69677300D03*
X127685500Y-126686200D03*
%TO.N,/STATUS0*%
X121654300Y-56747400D03*
X121439200Y-124964300D03*
%TO.N,/DIO7*%
X130754700Y-68614700D03*
X124792000Y-96355100D03*
X111677200Y-100606100D03*
%TO.N,/DIO5*%
X106347100Y-99132500D03*
X107022600Y-79802500D03*
X128798500Y-68469800D03*
X125222100Y-78406100D03*
%TO.N,/DEV*%
X103971700Y-126712500D03*
X113090900Y-61680000D03*
%TO.N,/DIO1*%
X86289100Y-100188600D03*
X125468700Y-88400200D03*
%TO.N,/DIO4*%
X103159100Y-99116500D03*
X115193600Y-58458800D03*
%TO.N,/TAP_MOTOR*%
X118707200Y-73663100D03*
%TO.N,/DIO8*%
X116510600Y-99240400D03*
X115760100Y-57799200D03*
%TO.N,/TAP_READ*%
X122072000Y-77161300D03*
%TO.N,/DIO2*%
X95769500Y-99021400D03*
X98027300Y-64773300D03*
%TO.N,/DIO6*%
X109664500Y-99058900D03*
X125049300Y-97241500D03*
%TO.N,/~{RESET_3V3}*%
X109867500Y-83305300D03*
%TO.N,/TAP_WRITE*%
X128341900Y-78392300D03*
%TO.N,+3.3V*%
X100953900Y-103065100D03*
X119900200Y-75418800D03*
X118255800Y-94294400D03*
%TO.N,Net-(A1-PWM1{slash}GPIO13)*%
X120965900Y-82864100D03*
%TO.N,LED_PWR*%
X116257500Y-128819900D03*
%TO.N,LED_ACT*%
X122767700Y-129616800D03*
%TO.N,SW2_UP*%
X95130400Y-143862300D03*
X127548500Y-144395100D03*
%TO.N,SW1_ENTER*%
X120787100Y-137947400D03*
%TO.N,SW5_INSERT*%
X134608500Y-137410000D03*
%TD*%
D26*
%TO.N,/CAS_MOTOR*%
X134531900Y-67997800D02*
X134531900Y-73001600D01*
X129099200Y-62565100D02*
X134531900Y-67997800D01*
X122784900Y-62565100D02*
X129099200Y-62565100D01*
X121850000Y-63500000D02*
X122784900Y-62565100D01*
%TO.N,/CAS_WRITE*%
X123648100Y-67798100D02*
X121850000Y-66000000D01*
X123648100Y-79754000D02*
X123648100Y-67798100D01*
%TO.N,/CAS_READ*%
X124601400Y-77415100D02*
X124601400Y-77679700D01*
X127400000Y-74616500D02*
X124601400Y-77415100D01*
X127400000Y-64750000D02*
X127400000Y-74616500D01*
X128650000Y-63500000D02*
X127400000Y-64750000D01*
%TO.N,/~{RESET}*%
X154527400Y-65854600D02*
X154527400Y-79558900D01*
X157390000Y-62992000D02*
X154527400Y-65854600D01*
%TO.N,/DAV*%
X119907600Y-120720600D02*
X119907600Y-84274300D01*
X117662100Y-122966100D02*
X119907600Y-120720600D01*
X149325900Y-65976100D02*
X152310000Y-62992000D01*
X149325900Y-82191400D02*
X149325900Y-65976100D01*
X118396700Y-123700700D02*
X117662100Y-122966100D01*
X118396700Y-134664400D02*
X118396700Y-123700700D01*
X117587800Y-135473300D02*
X118396700Y-134664400D01*
X117220000Y-135473300D02*
X117587800Y-135473300D01*
X117220000Y-136650000D02*
X117220000Y-135473300D01*
%TO.N,/DIO3*%
X91820000Y-136650000D02*
X91820000Y-135473300D01*
X92996700Y-105011700D02*
X98957500Y-99050900D01*
X92996700Y-134664400D02*
X92996700Y-105011700D01*
X92187800Y-135473300D02*
X92996700Y-134664400D01*
X91820000Y-135473300D02*
X92187800Y-135473300D01*
X98957500Y-86314600D02*
X102766100Y-82506000D01*
X98957500Y-99050900D02*
X98957500Y-86314600D01*
X127852600Y-68450900D02*
X128909500Y-67394000D01*
X127852600Y-75142300D02*
X127852600Y-68450900D01*
X125468500Y-77526400D02*
X127852600Y-75142300D01*
%TO.N,/TAP_SENSE*%
X113612300Y-93742100D02*
X113612300Y-67770500D01*
X113799400Y-93929200D02*
X113612300Y-93742100D01*
X112303900Y-95424700D02*
X113799400Y-93929200D01*
X112303900Y-132769400D02*
X112303900Y-95424700D01*
X112140000Y-132933300D02*
X112303900Y-132769400D01*
X112140000Y-134110000D02*
X112140000Y-132933300D01*
%TO.N,/STATUS1*%
X127380000Y-136650000D02*
X127380000Y-135473300D01*
X127012200Y-135473300D02*
X127380000Y-135473300D01*
X126171300Y-134632400D02*
X127012200Y-135473300D01*
X126171300Y-123765400D02*
X126171300Y-134632400D01*
X148980600Y-83449300D02*
X147583300Y-83449300D01*
X153580000Y-78849900D02*
X148980600Y-83449300D01*
X153580000Y-61722000D02*
X153580000Y-78849900D01*
X154850000Y-60452000D02*
X153580000Y-61722000D01*
X127952800Y-121983900D02*
X127952800Y-83557600D01*
X126171300Y-123765400D02*
X127952800Y-121983900D01*
%TO.N,/ACK*%
X129824200Y-77796300D02*
X129824200Y-69677300D01*
X123713500Y-83907000D02*
X129824200Y-77796300D01*
X123713500Y-124564700D02*
X123713500Y-83907000D01*
X128584600Y-127585300D02*
X127685500Y-126686200D01*
X128584600Y-137168300D02*
X128584600Y-127585300D01*
X127884200Y-137868700D02*
X128584600Y-137168300D01*
X126867700Y-137868700D02*
X127884200Y-137868700D01*
X126016700Y-137017700D02*
X126867700Y-137868700D01*
X126016700Y-136650000D02*
X126016700Y-137017700D01*
X124840000Y-136650000D02*
X126016700Y-136650000D01*
%TO.N,/STATUS0*%
X121070600Y-125332900D02*
X121439200Y-124964300D01*
X121070600Y-134611600D02*
X121070600Y-125332900D01*
X121932300Y-135473300D02*
X121070600Y-134611600D01*
X122300000Y-135473300D02*
X121932300Y-135473300D01*
X122300000Y-136650000D02*
X122300000Y-135473300D01*
X120891200Y-57876300D02*
X121654300Y-57113200D01*
X120891200Y-80169500D02*
X120891200Y-57876300D01*
X121598100Y-80876400D02*
X120891200Y-80169500D01*
X121598100Y-124805400D02*
X121598100Y-80876400D01*
X121439200Y-124964300D02*
X121598100Y-124805400D01*
X121654300Y-57113200D02*
X121654300Y-56747400D01*
%TO.N,/DIO7*%
X124792000Y-83625700D02*
X124792000Y-96355100D01*
X130754700Y-77663000D02*
X124792000Y-83625700D01*
X130754700Y-68614700D02*
X130754700Y-77663000D01*
X111677200Y-130335600D02*
X111677200Y-100606100D01*
X108236700Y-133776100D02*
X111677200Y-130335600D01*
X108236700Y-134664400D02*
X108236700Y-133776100D01*
X107427800Y-135473300D02*
X108236700Y-134664400D01*
X107060000Y-135473300D02*
X107427800Y-135473300D01*
X107060000Y-136650000D02*
X107060000Y-135473300D01*
%TO.N,/DIO5*%
X99440000Y-136650000D02*
X99440000Y-135473300D01*
X100618200Y-104861400D02*
X106347100Y-99132500D01*
X100618200Y-134662900D02*
X100618200Y-104861400D01*
X99807800Y-135473300D02*
X100618200Y-134662900D01*
X99440000Y-135473300D02*
X99807800Y-135473300D01*
X128798500Y-75082700D02*
X128798500Y-68469800D01*
X125475100Y-78406100D02*
X128798500Y-75082700D01*
X125222100Y-78406100D02*
X125475100Y-78406100D01*
X107022600Y-98457000D02*
X106347100Y-99132500D01*
X107022600Y-79802500D02*
X107022600Y-98457000D01*
%TO.N,/DEV*%
X104520000Y-127260800D02*
X104520000Y-134110000D01*
X103971700Y-126712500D02*
X104520000Y-127260800D01*
X103971700Y-103062400D02*
X103971700Y-126712500D01*
X109240700Y-97793400D02*
X103971700Y-103062400D01*
X109240700Y-65530200D02*
X109240700Y-97793400D01*
X113090900Y-61680000D02*
X109240700Y-65530200D01*
%TO.N,/DIO1*%
X87107800Y-135473300D02*
X86740000Y-135473300D01*
X87916700Y-134664400D02*
X87107800Y-135473300D01*
X87916700Y-101816200D02*
X87916700Y-134664400D01*
X86289100Y-100188600D02*
X87916700Y-101816200D01*
X86740000Y-136650000D02*
X86740000Y-135473300D01*
X142150000Y-67460600D02*
X142150000Y-62992000D01*
X125468700Y-84141900D02*
X142150000Y-67460600D01*
X125468700Y-88400200D02*
X125468700Y-84141900D01*
%TO.N,/DIO4*%
X96900000Y-136650000D02*
X96900000Y-135473300D01*
X98076700Y-104198900D02*
X103159100Y-99116500D01*
X98076700Y-134664400D02*
X98076700Y-104198900D01*
X97267800Y-135473300D02*
X98076700Y-134664400D01*
X96900000Y-135473300D02*
X97267800Y-135473300D01*
X115193600Y-58460400D02*
X115193600Y-58458800D01*
X103392800Y-70261200D02*
X115193600Y-58460400D01*
X103392800Y-98882800D02*
X103392800Y-70261200D01*
X103159100Y-99116500D02*
X103392800Y-98882800D01*
%TO.N,/TAP_MOTOR*%
X117032900Y-129301100D02*
X117220000Y-129488200D01*
X117220000Y-129488200D02*
X117220000Y-134110000D01*
X117248900Y-75121400D02*
X118707200Y-73663100D01*
X117248900Y-100858500D02*
X117248900Y-75121400D01*
X117032900Y-101074500D02*
X117248900Y-100858500D01*
X117032900Y-129301100D02*
X117032900Y-101074500D01*
%TO.N,/DIO8*%
X116510600Y-58549700D02*
X116510600Y-99240400D01*
X115760100Y-57799200D02*
X116510600Y-58549700D01*
X113410000Y-102341000D02*
X116510600Y-99240400D01*
X113410000Y-134540800D02*
X113410000Y-102341000D01*
X112477500Y-135473300D02*
X113410000Y-134540800D01*
X111585600Y-135473300D02*
X112477500Y-135473300D01*
X110776700Y-136282200D02*
X111585600Y-135473300D01*
X110776700Y-136650000D02*
X110776700Y-136282200D01*
X109600000Y-136650000D02*
X110776700Y-136650000D01*
%TO.N,/TAP_READ*%
X122300000Y-134110000D02*
X122300000Y-132933300D01*
X122072000Y-132705300D02*
X122300000Y-132933300D01*
X122072000Y-77161300D02*
X122072000Y-132705300D01*
%TO.N,/DIO2*%
X90470500Y-104320400D02*
X95769500Y-99021400D01*
X90470500Y-135459500D02*
X90470500Y-104320400D01*
X89280000Y-136650000D02*
X90470500Y-135459500D01*
X98027300Y-96763600D02*
X95769500Y-99021400D01*
X98027300Y-64773300D02*
X98027300Y-96763600D01*
%TO.N,/DIO6*%
X104520000Y-136650000D02*
X104520000Y-135473300D01*
X145960000Y-61722000D02*
X147230000Y-60452000D01*
X145960000Y-64663800D02*
X145960000Y-61722000D01*
X126372100Y-84251700D02*
X145960000Y-64663800D01*
X126372100Y-95918700D02*
X126372100Y-84251700D01*
X125049300Y-97241500D02*
X126372100Y-95918700D01*
X105696700Y-103026700D02*
X109664500Y-99058900D01*
X105696700Y-134664400D02*
X105696700Y-103026700D01*
X104887800Y-135473300D02*
X105696700Y-134664400D01*
X104520000Y-135473300D02*
X104887800Y-135473300D01*
%TO.N,/~{RESET_3V3}*%
X107060000Y-134110000D02*
X107060000Y-132933300D01*
X110329000Y-83766800D02*
X109867500Y-83305300D01*
X110329000Y-129664300D02*
X110329000Y-83766800D01*
X107060000Y-132933300D02*
X110329000Y-129664300D01*
%TO.N,/TAP_WRITE*%
X123079200Y-83655000D02*
X128341900Y-78392300D01*
X123079200Y-128978000D02*
X123079200Y-83655000D01*
X124840000Y-130738800D02*
X123079200Y-128978000D01*
X124840000Y-134110000D02*
X124840000Y-130738800D01*
%TO.N,+3.3V*%
X99440000Y-104579000D02*
X99440000Y-134110000D01*
X100953900Y-103065100D02*
X99440000Y-104579000D01*
X118255800Y-77063200D02*
X118255800Y-94294400D01*
X119900200Y-75418800D02*
X118255800Y-77063200D01*
%TO.N,Net-(A1-PWM1{slash}GPIO13)*%
X119760000Y-122450500D02*
X119760000Y-134110000D01*
X120965900Y-121244600D02*
X119760000Y-122450500D01*
X120965900Y-82864100D02*
X120965900Y-121244600D01*
%TO.N,LED_PWR*%
X115932100Y-129145300D02*
X116257500Y-128819900D01*
X115932100Y-138961200D02*
X115932100Y-129145300D01*
X115100000Y-139793300D02*
X115932100Y-138961200D01*
X115100000Y-140970000D02*
X115100000Y-139793300D01*
%TO.N,LED_ACT*%
X123492100Y-130341200D02*
X122767700Y-129616800D01*
X123492100Y-137491300D02*
X123492100Y-130341200D01*
X126530000Y-140529200D02*
X123492100Y-137491300D01*
X126530000Y-141386900D02*
X126530000Y-140529200D01*
X125730300Y-142186600D02*
X126530000Y-141386900D01*
X119665600Y-142186600D02*
X125730300Y-142186600D01*
X118816700Y-141337700D02*
X119665600Y-142186600D01*
X118816700Y-140970000D02*
X118816700Y-141337700D01*
X117640000Y-140970000D02*
X118816700Y-140970000D01*
%TO.N,SW2_UP*%
X93165300Y-141897200D02*
X95130400Y-143862300D01*
X93165300Y-136136500D02*
X93165300Y-141897200D01*
X94015100Y-135286700D02*
X93165300Y-136136500D01*
X94914400Y-135286700D02*
X94015100Y-135286700D01*
X95723300Y-134477800D02*
X94914400Y-135286700D01*
X95723300Y-134110000D02*
X95723300Y-134477800D01*
X127800000Y-144143600D02*
X127800000Y-140970000D01*
X127548500Y-144395100D02*
X127800000Y-144143600D01*
X96900000Y-134110000D02*
X95723300Y-134110000D01*
%TO.N,SW1_ENTER*%
X121428400Y-137947400D02*
X120787100Y-137947400D01*
X124083300Y-140602300D02*
X121428400Y-137947400D01*
X124083300Y-140970000D02*
X124083300Y-140602300D01*
X125260000Y-140970000D02*
X124083300Y-140970000D01*
%TO.N,SW5_INSERT*%
X135420000Y-140970000D02*
X135420000Y-138221500D01*
X134608500Y-137410000D02*
X135420000Y-138221500D01*
D27*
%TO.N,GND*%
X88761300Y-135361700D02*
X89280000Y-135361700D01*
X88010000Y-136113000D02*
X88761300Y-135361700D01*
X88010000Y-137185800D02*
X88010000Y-136113000D01*
X87267800Y-137928000D02*
X88010000Y-137185800D01*
X86182100Y-137928000D02*
X87267800Y-137928000D01*
X85451700Y-137197600D02*
X86182100Y-137928000D01*
X85451700Y-136650000D02*
X85451700Y-137197600D01*
X84200000Y-136650000D02*
X85451700Y-136650000D01*
X90269100Y-64651700D02*
X90000000Y-64651700D01*
X92151700Y-66534300D02*
X90269100Y-64651700D01*
X92151700Y-76848300D02*
X92151700Y-66534300D01*
X92000000Y-77000000D02*
X92151700Y-76848300D01*
X90000000Y-62500000D02*
X90000000Y-64651700D01*
X165000000Y-68062000D02*
X157390000Y-60452000D01*
X165000000Y-75000000D02*
X165000000Y-68062000D01*
X114376600Y-137901700D02*
X114680000Y-137901700D01*
X112560000Y-139718300D02*
X114376600Y-137901700D01*
X112560000Y-140970000D02*
X112560000Y-139718300D01*
X114680000Y-136650000D02*
X114680000Y-137901700D01*
X89280000Y-134735800D02*
X89280000Y-135361700D01*
X89280000Y-134735800D02*
X89280000Y-134110000D01*
X92000000Y-101800800D02*
X92000000Y-77000000D01*
X89280000Y-104520800D02*
X92000000Y-101800800D01*
X89280000Y-134110000D02*
X89280000Y-104520800D01*
X100728300Y-137168700D02*
X100728300Y-136650000D01*
X99954000Y-137943000D02*
X100728300Y-137168700D01*
X96357100Y-137943000D02*
X99954000Y-137943000D01*
X95611700Y-137197600D02*
X96357100Y-137943000D01*
X95611700Y-136650000D02*
X95611700Y-137197600D01*
X94360000Y-136650000D02*
X95611700Y-136650000D01*
X101980000Y-136650000D02*
X100728300Y-136650000D01*
D28*
%TO.N,+5V*%
X88500000Y-82000000D02*
X75500000Y-95000000D01*
X88500000Y-77000000D02*
X88500000Y-82000000D01*
X90000000Y-70651700D02*
X88500000Y-72151700D01*
X77917919Y-136650000D02*
X75500000Y-134232081D01*
X79120000Y-136650000D02*
X77917919Y-136650000D01*
X90000000Y-68500000D02*
X90000000Y-70651700D01*
X75500000Y-134232081D02*
X75500000Y-95000000D01*
X88500000Y-72151700D02*
X88500000Y-77000000D01*
%TD*%
%TA.AperFunction,Conductor*%
%TO.N,GND*%
G36*
X120010000Y-137697695D02*
G01*
X120007617Y-137721886D01*
X119978600Y-137867765D01*
X119978600Y-138027034D01*
X120009668Y-138183223D01*
X120009670Y-138183231D01*
X120070617Y-138330369D01*
X120159095Y-138462787D01*
X120159101Y-138462794D01*
X120271705Y-138575398D01*
X120271712Y-138575404D01*
X120404130Y-138663882D01*
X120404131Y-138663882D01*
X120404132Y-138663883D01*
X120551269Y-138724830D01*
X120707465Y-138755899D01*
X120707469Y-138755900D01*
X120707470Y-138755900D01*
X120866731Y-138755900D01*
X120866732Y-138755899D01*
X121022931Y-138724830D01*
X121149321Y-138672476D01*
X121218788Y-138665008D01*
X121281267Y-138696282D01*
X121284453Y-138699357D01*
X122142494Y-139557398D01*
X122175979Y-139618721D01*
X122170995Y-139688413D01*
X122129123Y-139744346D01*
X122111109Y-139755563D01*
X122007993Y-139808104D01*
X121834993Y-139933796D01*
X121683796Y-140084993D01*
X121558105Y-140257991D01*
X121555727Y-140261873D01*
X121503914Y-140308748D01*
X121434984Y-140320169D01*
X121370822Y-140292512D01*
X121344273Y-140261873D01*
X121341894Y-140257991D01*
X121341893Y-140257990D01*
X121216206Y-140084996D01*
X121065004Y-139933794D01*
X120892009Y-139808106D01*
X120827469Y-139775221D01*
X120701483Y-139711027D01*
X120701480Y-139711026D01*
X120498117Y-139644951D01*
X120380997Y-139626401D01*
X120286916Y-139611500D01*
X120073084Y-139611500D01*
X120002684Y-139622650D01*
X119861882Y-139644951D01*
X119658519Y-139711026D01*
X119658516Y-139711027D01*
X119467990Y-139808106D01*
X119294993Y-139933796D01*
X119143796Y-140084993D01*
X119018103Y-140257995D01*
X119015720Y-140261883D01*
X118963903Y-140308753D01*
X118894972Y-140320168D01*
X118830812Y-140292504D01*
X118804267Y-140261864D01*
X118801894Y-140257991D01*
X118801893Y-140257990D01*
X118676206Y-140084996D01*
X118525004Y-139933794D01*
X118352009Y-139808106D01*
X118287469Y-139775221D01*
X118161483Y-139711027D01*
X118161480Y-139711026D01*
X117958117Y-139644951D01*
X117840997Y-139626401D01*
X117746916Y-139611500D01*
X117533084Y-139611500D01*
X117462684Y-139622650D01*
X117321882Y-139644951D01*
X117118519Y-139711026D01*
X117118516Y-139711027D01*
X116927990Y-139808106D01*
X116754993Y-139933796D01*
X116603796Y-140084993D01*
X116478105Y-140257991D01*
X116475727Y-140261873D01*
X116423914Y-140308748D01*
X116354984Y-140320169D01*
X116290822Y-140292512D01*
X116264273Y-140261873D01*
X116261894Y-140257991D01*
X116261893Y-140257990D01*
X116136206Y-140084996D01*
X116007887Y-139956677D01*
X115974402Y-139895354D01*
X115979386Y-139825662D01*
X116007883Y-139781320D01*
X116424171Y-139365033D01*
X116493500Y-139261275D01*
X116541255Y-139145985D01*
X116565600Y-139023594D01*
X116565600Y-138898806D01*
X116565600Y-138036456D01*
X116585285Y-137969417D01*
X116638089Y-137923662D01*
X116707247Y-137913718D01*
X116727918Y-137918525D01*
X116749038Y-137925387D01*
X116901884Y-137975049D01*
X117113084Y-138008500D01*
X117113085Y-138008500D01*
X117326915Y-138008500D01*
X117326916Y-138008500D01*
X117538116Y-137975049D01*
X117741483Y-137908972D01*
X117932009Y-137811894D01*
X118105004Y-137686206D01*
X118256206Y-137535004D01*
X118381894Y-137362009D01*
X118384283Y-137357319D01*
X118432254Y-137306522D01*
X118500074Y-137289724D01*
X118566210Y-137312258D01*
X118602201Y-137353788D01*
X118602832Y-137353402D01*
X118605164Y-137357207D01*
X118605251Y-137357308D01*
X118605376Y-137357554D01*
X118730272Y-137529459D01*
X118730276Y-137529464D01*
X118880535Y-137679723D01*
X118880540Y-137679727D01*
X119052442Y-137804620D01*
X119241782Y-137901095D01*
X119443871Y-137966757D01*
X119510000Y-137977231D01*
X119510000Y-137083012D01*
X119567007Y-137115925D01*
X119694174Y-137150000D01*
X119825826Y-137150000D01*
X119952993Y-137115925D01*
X120010000Y-137083012D01*
X120010000Y-137697695D01*
G37*
%TD.AperFunction*%
%TA.AperFunction,Conductor*%
G36*
X88420026Y-135159491D02*
G01*
X88449577Y-135175355D01*
X88571079Y-135263630D01*
X88578287Y-135267783D01*
X88600301Y-135290827D01*
X88623479Y-135312716D01*
X88624272Y-135315918D01*
X88626551Y-135318304D01*
X88632614Y-135349603D01*
X88640275Y-135380537D01*
X88639211Y-135383658D01*
X88639839Y-135386899D01*
X88628017Y-135416507D01*
X88617739Y-135446672D01*
X88615041Y-135449009D01*
X88613932Y-135451788D01*
X88602061Y-135460258D01*
X88572693Y-135485709D01*
X88567994Y-135488103D01*
X88394993Y-135613796D01*
X88243796Y-135764993D01*
X88118105Y-135937991D01*
X88115727Y-135941873D01*
X88091212Y-135964051D01*
X88067385Y-135987005D01*
X88065407Y-135987396D01*
X88063914Y-135988748D01*
X88031292Y-135994153D01*
X87998846Y-136000579D01*
X87996971Y-135999839D01*
X87994984Y-136000169D01*
X87964607Y-135987075D01*
X87933849Y-135974944D01*
X87932208Y-135973109D01*
X87930822Y-135972512D01*
X87909363Y-135949526D01*
X87903915Y-135941958D01*
X87901894Y-135937991D01*
X87811235Y-135813209D01*
X87811121Y-135813051D01*
X87799638Y-135780416D01*
X87787960Y-135747687D01*
X87788024Y-135747410D01*
X87787930Y-135747142D01*
X87795945Y-135713345D01*
X87803785Y-135679633D01*
X87804012Y-135679333D01*
X87804054Y-135679158D01*
X87804396Y-135678827D01*
X87824073Y-135652930D01*
X88289013Y-135187990D01*
X88350334Y-135154507D01*
X88420026Y-135159491D01*
G37*
%TD.AperFunction*%
%TA.AperFunction,Conductor*%
G36*
X127010003Y-127138460D02*
G01*
X127031898Y-127163278D01*
X127057497Y-127201589D01*
X127057501Y-127201593D01*
X127057501Y-127201594D01*
X127170105Y-127314198D01*
X127170112Y-127314204D01*
X127302530Y-127402682D01*
X127302531Y-127402682D01*
X127302532Y-127402683D01*
X127449669Y-127463630D01*
X127484066Y-127470471D01*
X127559274Y-127485432D01*
X127621185Y-127517816D01*
X127622764Y-127519368D01*
X127914781Y-127811385D01*
X127948266Y-127872708D01*
X127951100Y-127899066D01*
X127951100Y-132705416D01*
X127931415Y-132772455D01*
X127878611Y-132818210D01*
X127809453Y-132828154D01*
X127788783Y-132823347D01*
X127696125Y-132793241D01*
X127630000Y-132782768D01*
X127630000Y-133676988D01*
X127572993Y-133644075D01*
X127445826Y-133610000D01*
X127314174Y-133610000D01*
X127187007Y-133644075D01*
X127130000Y-133676988D01*
X127130000Y-132782768D01*
X127129999Y-132782768D01*
X127063874Y-132793241D01*
X126967117Y-132824679D01*
X126897276Y-132826674D01*
X126837443Y-132790593D01*
X126806616Y-132727891D01*
X126804800Y-132706748D01*
X126804800Y-127232173D01*
X126824485Y-127165134D01*
X126877289Y-127119379D01*
X126946447Y-127109435D01*
X127010003Y-127138460D01*
G37*
%TD.AperFunction*%
%TA.AperFunction,Conductor*%
G36*
X129750434Y-64112256D02*
G01*
X129751696Y-64113500D01*
X133862081Y-68223885D01*
X133895566Y-68285208D01*
X133898400Y-68311566D01*
X133898400Y-72456822D01*
X133878715Y-72523861D01*
X133877503Y-72525712D01*
X133815416Y-72618633D01*
X133754470Y-72765768D01*
X133754468Y-72765776D01*
X133723400Y-72921965D01*
X133723400Y-73081234D01*
X133754468Y-73237423D01*
X133754470Y-73237431D01*
X133815417Y-73384569D01*
X133903895Y-73516987D01*
X133903901Y-73516994D01*
X134016505Y-73629598D01*
X134016512Y-73629604D01*
X134148930Y-73718082D01*
X134148931Y-73718082D01*
X134148932Y-73718083D01*
X134296069Y-73779030D01*
X134452265Y-73810099D01*
X134452269Y-73810100D01*
X134605233Y-73810100D01*
X134672272Y-73829785D01*
X134718027Y-73882589D01*
X134727971Y-73951747D01*
X134698946Y-74015303D01*
X134692914Y-74021781D01*
X131599881Y-77114814D01*
X131538558Y-77148299D01*
X131468866Y-77143315D01*
X131412933Y-77101443D01*
X131388516Y-77035979D01*
X131388200Y-77027133D01*
X131388200Y-69159477D01*
X131407885Y-69092438D01*
X131409097Y-69090587D01*
X131471184Y-68997666D01*
X131486816Y-68959926D01*
X131532130Y-68850531D01*
X131563200Y-68694330D01*
X131563200Y-68535070D01*
X131532130Y-68378869D01*
X131471183Y-68231732D01*
X131418889Y-68153468D01*
X131382704Y-68099312D01*
X131382698Y-68099305D01*
X131270094Y-67986701D01*
X131270087Y-67986695D01*
X131137669Y-67898217D01*
X130990531Y-67837270D01*
X130990523Y-67837268D01*
X130834334Y-67806200D01*
X130834330Y-67806200D01*
X130675070Y-67806200D01*
X130675065Y-67806200D01*
X130518876Y-67837268D01*
X130518868Y-67837270D01*
X130371730Y-67898217D01*
X130239312Y-67986695D01*
X130239305Y-67986701D01*
X130126701Y-68099305D01*
X130126695Y-68099312D01*
X130038217Y-68231730D01*
X129977270Y-68378868D01*
X129977268Y-68378876D01*
X129946200Y-68535065D01*
X129946200Y-68694331D01*
X129951427Y-68720608D01*
X129949871Y-68737992D01*
X129953382Y-68755090D01*
X129946822Y-68772068D01*
X129945200Y-68790199D01*
X129934492Y-68803983D01*
X129928202Y-68820265D01*
X129913504Y-68831001D01*
X129902338Y-68845377D01*
X129885724Y-68851295D01*
X129871783Y-68861480D01*
X129843093Y-68866483D01*
X129837211Y-68868579D01*
X129833515Y-68868800D01*
X129744570Y-68868800D01*
X129706344Y-68876403D01*
X129697872Y-68876910D01*
X129671756Y-68870908D01*
X129645069Y-68868520D01*
X129638225Y-68863203D01*
X129629777Y-68861262D01*
X129611050Y-68842092D01*
X129589892Y-68825656D01*
X129587008Y-68817483D01*
X129580952Y-68811283D01*
X129575562Y-68785033D01*
X129566649Y-68759766D01*
X129568342Y-68749873D01*
X129566899Y-68742841D01*
X129571655Y-68730529D01*
X129574883Y-68711676D01*
X129574162Y-68711458D01*
X129575905Y-68705712D01*
X129575911Y-68705676D01*
X129575930Y-68705631D01*
X129607000Y-68549430D01*
X129607000Y-68390170D01*
X129575930Y-68233969D01*
X129514983Y-68086832D01*
X129509464Y-68078573D01*
X129488588Y-68011900D01*
X129507072Y-67944519D01*
X129524881Y-67922009D01*
X129537503Y-67909389D01*
X129625983Y-67776968D01*
X129686930Y-67629831D01*
X129718000Y-67473630D01*
X129718000Y-67314370D01*
X129686930Y-67158169D01*
X129625983Y-67011032D01*
X129613981Y-66993070D01*
X129537504Y-66878612D01*
X129537498Y-66878605D01*
X129516142Y-66857249D01*
X129482657Y-66795926D01*
X129487641Y-66726234D01*
X129503505Y-66696683D01*
X129590801Y-66576528D01*
X129669408Y-66422257D01*
X129722914Y-66257584D01*
X129750000Y-66086571D01*
X129750000Y-65913428D01*
X129722914Y-65742415D01*
X129669408Y-65577742D01*
X129590801Y-65423471D01*
X129586290Y-65417262D01*
X129586289Y-65417261D01*
X129050000Y-65953551D01*
X129050000Y-65947339D01*
X129022741Y-65845606D01*
X128970080Y-65754394D01*
X128895606Y-65679920D01*
X128804394Y-65627259D01*
X128702661Y-65600000D01*
X128696446Y-65600000D01*
X129232737Y-65063709D01*
X129226525Y-65059196D01*
X129072259Y-64980592D01*
X128907584Y-64927085D01*
X128736571Y-64900000D01*
X128563429Y-64900000D01*
X128444262Y-64918874D01*
X128412992Y-64914832D01*
X128381531Y-64912583D01*
X128378599Y-64910388D01*
X128374968Y-64909919D01*
X128350843Y-64889611D01*
X128325597Y-64870712D01*
X128324317Y-64867281D01*
X128321516Y-64864923D01*
X128312201Y-64834798D01*
X128301180Y-64805248D01*
X128301958Y-64801668D01*
X128300877Y-64798171D01*
X128309326Y-64767795D01*
X128316031Y-64736975D01*
X128319005Y-64733000D01*
X128319602Y-64730858D01*
X128337177Y-64708726D01*
X128409870Y-64636032D01*
X128471189Y-64602550D01*
X128516941Y-64601243D01*
X128562759Y-64608500D01*
X128562762Y-64608500D01*
X128737240Y-64608500D01*
X128737241Y-64608500D01*
X128909574Y-64581205D01*
X129075516Y-64527288D01*
X129230981Y-64448074D01*
X129372139Y-64345517D01*
X129495517Y-64222139D01*
X129563698Y-64128295D01*
X129619025Y-64085630D01*
X129688639Y-64079650D01*
X129750434Y-64112256D01*
G37*
%TD.AperFunction*%
%TA.AperFunction,Conductor*%
G36*
X125348172Y-63203866D02*
G01*
X125366866Y-63204134D01*
X125381002Y-63213507D01*
X125397274Y-63218285D01*
X125409515Y-63232411D01*
X125425098Y-63242744D01*
X125431923Y-63258272D01*
X125443029Y-63271089D01*
X125445689Y-63289593D01*
X125453212Y-63306708D01*
X125452754Y-63338728D01*
X125452973Y-63340247D01*
X125452722Y-63341906D01*
X125441500Y-63412759D01*
X125441500Y-63587241D01*
X125452136Y-63654394D01*
X125468795Y-63759575D01*
X125522710Y-63925513D01*
X125522711Y-63925516D01*
X125561048Y-64000755D01*
X125600934Y-64079035D01*
X125601928Y-64080984D01*
X125704477Y-64222132D01*
X125704481Y-64222137D01*
X125827862Y-64345518D01*
X125827867Y-64345522D01*
X125899499Y-64397565D01*
X125969019Y-64448074D01*
X126070646Y-64499856D01*
X126124483Y-64527288D01*
X126124486Y-64527289D01*
X126207455Y-64554246D01*
X126290426Y-64581205D01*
X126462759Y-64608500D01*
X126462760Y-64608500D01*
X126642113Y-64608500D01*
X126642113Y-64610849D01*
X126646296Y-64611722D01*
X126660147Y-64609731D01*
X126679823Y-64618717D01*
X126700996Y-64623134D01*
X126710973Y-64632942D01*
X126723703Y-64638756D01*
X126735398Y-64656953D01*
X126750821Y-64672116D01*
X126754674Y-64686948D01*
X126761477Y-64697534D01*
X126766500Y-64732469D01*
X126766500Y-64867673D01*
X126746815Y-64934712D01*
X126694011Y-64980467D01*
X126624853Y-64990411D01*
X126586206Y-64978158D01*
X126575522Y-64972714D01*
X126575513Y-64972710D01*
X126409575Y-64918795D01*
X126316769Y-64904096D01*
X126237241Y-64891500D01*
X126062759Y-64891500D01*
X126024643Y-64897537D01*
X125890424Y-64918795D01*
X125724486Y-64972710D01*
X125724483Y-64972711D01*
X125569015Y-65051928D01*
X125427867Y-65154477D01*
X125427862Y-65154481D01*
X125304481Y-65277862D01*
X125304477Y-65277867D01*
X125201928Y-65419015D01*
X125122711Y-65574483D01*
X125122710Y-65574486D01*
X125068795Y-65740424D01*
X125060735Y-65791314D01*
X125041500Y-65912759D01*
X125041500Y-66087241D01*
X125052135Y-66154385D01*
X125068795Y-66259575D01*
X125122710Y-66425513D01*
X125122711Y-66425516D01*
X125201928Y-66580984D01*
X125304477Y-66722132D01*
X125304481Y-66722137D01*
X125427862Y-66845518D01*
X125427867Y-66845522D01*
X125473411Y-66878611D01*
X125569019Y-66948074D01*
X125657324Y-66993068D01*
X125724483Y-67027288D01*
X125724486Y-67027289D01*
X125748890Y-67035218D01*
X125890426Y-67081205D01*
X126062759Y-67108500D01*
X126062760Y-67108500D01*
X126237240Y-67108500D01*
X126237241Y-67108500D01*
X126409574Y-67081205D01*
X126575516Y-67027288D01*
X126586200Y-67021843D01*
X126654869Y-67008944D01*
X126719611Y-67035218D01*
X126759870Y-67092323D01*
X126766500Y-67132326D01*
X126766500Y-74302734D01*
X126746815Y-74369773D01*
X126730181Y-74390415D01*
X124493281Y-76627315D01*
X124431958Y-76660800D01*
X124362266Y-76655816D01*
X124306333Y-76613944D01*
X124281916Y-76548480D01*
X124281600Y-76539634D01*
X124281600Y-67735705D01*
X124281599Y-67735701D01*
X124257255Y-67613315D01*
X124209500Y-67498025D01*
X124209499Y-67498024D01*
X124209496Y-67498018D01*
X124140172Y-67394268D01*
X124103276Y-67357372D01*
X124051933Y-67306029D01*
X122986035Y-66240131D01*
X122952550Y-66178808D01*
X122951243Y-66133057D01*
X122958500Y-66087241D01*
X122958500Y-65912759D01*
X122931205Y-65740426D01*
X122904246Y-65657455D01*
X122877289Y-65574486D01*
X122877288Y-65574483D01*
X122831199Y-65484030D01*
X122798074Y-65419019D01*
X122697407Y-65280462D01*
X122695522Y-65277867D01*
X122695518Y-65277862D01*
X122572137Y-65154481D01*
X122572132Y-65154477D01*
X122430984Y-65051928D01*
X122430983Y-65051927D01*
X122430981Y-65051926D01*
X122381175Y-65026548D01*
X122275516Y-64972711D01*
X122275513Y-64972710D01*
X122109575Y-64918795D01*
X122016769Y-64904096D01*
X121937241Y-64891500D01*
X121762759Y-64891500D01*
X121668097Y-64906493D01*
X121649555Y-64904096D01*
X121631053Y-64906757D01*
X121615624Y-64899711D01*
X121598803Y-64897537D01*
X121584502Y-64885497D01*
X121567497Y-64877732D01*
X121558326Y-64863462D01*
X121545352Y-64852540D01*
X121539830Y-64834681D01*
X121529723Y-64818954D01*
X121525164Y-64787247D01*
X121524713Y-64785788D01*
X121524700Y-64784019D01*
X121524700Y-64715980D01*
X121544385Y-64648941D01*
X121597189Y-64603186D01*
X121666347Y-64593242D01*
X121668084Y-64593504D01*
X121762759Y-64608500D01*
X121762760Y-64608500D01*
X121937240Y-64608500D01*
X121937241Y-64608500D01*
X122109574Y-64581205D01*
X122275516Y-64527288D01*
X122430981Y-64448074D01*
X122572139Y-64345517D01*
X122695517Y-64222139D01*
X122798074Y-64080981D01*
X122798079Y-64080970D01*
X122799266Y-64079035D01*
X122799915Y-64078447D01*
X122800938Y-64077040D01*
X122801233Y-64077254D01*
X122851074Y-64032154D01*
X122920002Y-64020725D01*
X122984168Y-64048376D01*
X123005605Y-64073112D01*
X123006333Y-64072584D01*
X123013709Y-64082736D01*
X123013709Y-64082737D01*
X123550000Y-63546446D01*
X123550000Y-63552661D01*
X123577259Y-63654394D01*
X123629920Y-63745606D01*
X123704394Y-63820080D01*
X123795606Y-63872741D01*
X123897339Y-63900000D01*
X123903553Y-63900000D01*
X123367261Y-64436289D01*
X123367262Y-64436290D01*
X123373471Y-64440801D01*
X123527742Y-64519408D01*
X123692415Y-64572914D01*
X123863429Y-64600000D01*
X124036571Y-64600000D01*
X124207584Y-64572914D01*
X124372257Y-64519408D01*
X124526525Y-64440803D01*
X124532736Y-64436289D01*
X124532737Y-64436289D01*
X123996448Y-63900000D01*
X124002661Y-63900000D01*
X124104394Y-63872741D01*
X124195606Y-63820080D01*
X124270080Y-63745606D01*
X124322741Y-63654394D01*
X124350000Y-63552661D01*
X124350000Y-63546447D01*
X124886289Y-64082736D01*
X124890803Y-64076525D01*
X124969408Y-63922257D01*
X125022914Y-63757584D01*
X125050000Y-63586571D01*
X125050000Y-63413430D01*
X125038686Y-63341999D01*
X125047640Y-63272705D01*
X125092636Y-63219253D01*
X125159388Y-63198613D01*
X125161159Y-63198600D01*
X125330235Y-63198600D01*
X125348172Y-63203866D01*
G37*
%TD.AperFunction*%
%TA.AperFunction,Conductor*%
G36*
X156924075Y-60644993D02*
G01*
X156989901Y-60759007D01*
X157082993Y-60852099D01*
X157197007Y-60917925D01*
X157260590Y-60934962D01*
X156628282Y-61567269D01*
X156628282Y-61567270D01*
X156682449Y-61606624D01*
X156682682Y-61606743D01*
X156682755Y-61606812D01*
X156686604Y-61609171D01*
X156686108Y-61609979D01*
X156733479Y-61654716D01*
X156750275Y-61722537D01*
X156727739Y-61788672D01*
X156682693Y-61827709D01*
X156677994Y-61830103D01*
X156504993Y-61955796D01*
X156353796Y-62106993D01*
X156228105Y-62279991D01*
X156225727Y-62283873D01*
X156173914Y-62330748D01*
X156104984Y-62342169D01*
X156040822Y-62314512D01*
X156014273Y-62283873D01*
X156011894Y-62279991D01*
X155982332Y-62239302D01*
X155886206Y-62106996D01*
X155735004Y-61955794D01*
X155562009Y-61830106D01*
X155562005Y-61830103D01*
X155558132Y-61827730D01*
X155511254Y-61775920D01*
X155499829Y-61706991D01*
X155527483Y-61642827D01*
X155558132Y-61616270D01*
X155562005Y-61613896D01*
X155562004Y-61613896D01*
X155562009Y-61613894D01*
X155735004Y-61488206D01*
X155886206Y-61337004D01*
X156011894Y-61164009D01*
X156014283Y-61159319D01*
X156062254Y-61108522D01*
X156130074Y-61091724D01*
X156196210Y-61114258D01*
X156232196Y-61155783D01*
X156232829Y-61155396D01*
X156235167Y-61159211D01*
X156235251Y-61159308D01*
X156235371Y-61159545D01*
X156235372Y-61159546D01*
X156274728Y-61213716D01*
X156907036Y-60581407D01*
X156924075Y-60644993D01*
G37*
%TD.AperFunction*%
%TA.AperFunction,Conductor*%
G36*
X163943039Y-54705185D02*
G01*
X163988794Y-54757989D01*
X164000000Y-54809500D01*
X164000000Y-60639346D01*
X169980500Y-60639346D01*
X170047539Y-60659031D01*
X170093294Y-60711835D01*
X170104500Y-60763346D01*
X170104500Y-148376000D01*
X170084815Y-148443039D01*
X170032011Y-148488794D01*
X169980500Y-148500000D01*
X164000000Y-148500000D01*
X164000000Y-154410500D01*
X163980315Y-154477539D01*
X163927511Y-154523294D01*
X163876000Y-154534500D01*
X138289000Y-154534500D01*
X138221961Y-154514815D01*
X138176206Y-154462011D01*
X138165000Y-154410500D01*
X138165000Y-151394983D01*
X138165000Y-151394982D01*
X138153506Y-151367233D01*
X138132267Y-151345994D01*
X138104518Y-151334500D01*
X120195018Y-151334500D01*
X102285518Y-151334500D01*
X102255482Y-151334500D01*
X102227731Y-151345995D01*
X102206495Y-151367231D01*
X102195000Y-151394982D01*
X102195000Y-154410500D01*
X102175315Y-154477539D01*
X102122511Y-154523294D01*
X102071000Y-154534500D01*
X76624000Y-154534500D01*
X76556961Y-154514815D01*
X76511206Y-154462011D01*
X76500000Y-154410500D01*
X76500000Y-148500000D01*
X70379500Y-148500000D01*
X70312461Y-148480315D01*
X70266706Y-148427511D01*
X70255500Y-148376000D01*
X70255500Y-94912759D01*
X74391500Y-94912759D01*
X74391500Y-134319321D01*
X74418795Y-134491658D01*
X74472709Y-134657592D01*
X74472713Y-134657603D01*
X74551926Y-134813063D01*
X74654477Y-134954213D01*
X74654481Y-134954218D01*
X77195781Y-137495518D01*
X77195786Y-137495522D01*
X77336936Y-137598073D01*
X77492396Y-137677286D01*
X77492407Y-137677290D01*
X77629663Y-137721886D01*
X77651540Y-137728994D01*
X77658345Y-137731205D01*
X77830678Y-137758500D01*
X78294210Y-137758500D01*
X78361249Y-137778185D01*
X78367095Y-137782182D01*
X78397979Y-137804620D01*
X78407991Y-137811894D01*
X78526032Y-137872039D01*
X78598516Y-137908972D01*
X78598519Y-137908973D01*
X78700200Y-137942010D01*
X78801884Y-137975049D01*
X79013084Y-138008500D01*
X79013085Y-138008500D01*
X79226915Y-138008500D01*
X79226916Y-138008500D01*
X79438116Y-137975049D01*
X79641483Y-137908972D01*
X79832009Y-137811894D01*
X80005004Y-137686206D01*
X80156206Y-137535004D01*
X80281894Y-137362009D01*
X80281898Y-137362001D01*
X80284270Y-137358132D01*
X80336080Y-137311254D01*
X80405009Y-137299829D01*
X80469173Y-137327483D01*
X80495730Y-137358132D01*
X80498103Y-137362005D01*
X80498105Y-137362008D01*
X80498106Y-137362009D01*
X80623794Y-137535004D01*
X80774996Y-137686206D01*
X80947991Y-137811894D01*
X81036524Y-137857004D01*
X81138516Y-137908972D01*
X81138519Y-137908973D01*
X81240200Y-137942010D01*
X81341884Y-137975049D01*
X81553084Y-138008500D01*
X81553085Y-138008500D01*
X81766915Y-138008500D01*
X81766916Y-138008500D01*
X81978116Y-137975049D01*
X82181483Y-137908972D01*
X82372009Y-137811894D01*
X82545004Y-137686206D01*
X82696206Y-137535004D01*
X82821894Y-137362009D01*
X82824283Y-137357319D01*
X82872254Y-137306522D01*
X82940074Y-137289724D01*
X83006210Y-137312258D01*
X83042201Y-137353788D01*
X83042832Y-137353402D01*
X83045164Y-137357207D01*
X83045251Y-137357308D01*
X83045376Y-137357554D01*
X83170272Y-137529459D01*
X83170276Y-137529464D01*
X83320535Y-137679723D01*
X83320540Y-137679727D01*
X83492442Y-137804620D01*
X83681782Y-137901095D01*
X83883871Y-137966757D01*
X83950000Y-137977231D01*
X83950000Y-137083012D01*
X84007007Y-137115925D01*
X84134174Y-137150000D01*
X84265826Y-137150000D01*
X84392993Y-137115925D01*
X84450000Y-137083012D01*
X84450000Y-137977230D01*
X84516126Y-137966757D01*
X84516129Y-137966757D01*
X84718217Y-137901095D01*
X84907557Y-137804620D01*
X85079459Y-137679727D01*
X85079464Y-137679723D01*
X85229723Y-137529464D01*
X85229727Y-137529459D01*
X85354619Y-137357560D01*
X85354738Y-137357327D01*
X85354808Y-137357252D01*
X85357168Y-137353402D01*
X85357976Y-137353897D01*
X85402707Y-137306526D01*
X85470526Y-137289723D01*
X85536663Y-137312254D01*
X85575712Y-137357311D01*
X85578105Y-137362008D01*
X85578109Y-137362013D01*
X85703794Y-137535004D01*
X85854996Y-137686206D01*
X86027991Y-137811894D01*
X86116524Y-137857004D01*
X86218516Y-137908972D01*
X86218519Y-137908973D01*
X86320200Y-137942010D01*
X86421884Y-137975049D01*
X86633084Y-138008500D01*
X86633085Y-138008500D01*
X86846915Y-138008500D01*
X86846916Y-138008500D01*
X87058116Y-137975049D01*
X87261483Y-137908972D01*
X87452009Y-137811894D01*
X87625004Y-137686206D01*
X87776206Y-137535004D01*
X87901894Y-137362009D01*
X87901898Y-137362001D01*
X87904270Y-137358132D01*
X87956080Y-137311254D01*
X88025009Y-137299829D01*
X88089173Y-137327483D01*
X88115730Y-137358132D01*
X88118103Y-137362005D01*
X88118105Y-137362008D01*
X88118106Y-137362009D01*
X88243794Y-137535004D01*
X88394996Y-137686206D01*
X88567991Y-137811894D01*
X88656524Y-137857004D01*
X88758516Y-137908972D01*
X88758519Y-137908973D01*
X88860200Y-137942010D01*
X88961884Y-137975049D01*
X89173084Y-138008500D01*
X89173085Y-138008500D01*
X89386915Y-138008500D01*
X89386916Y-138008500D01*
X89598116Y-137975049D01*
X89801483Y-137908972D01*
X89992009Y-137811894D01*
X90165004Y-137686206D01*
X90316206Y-137535004D01*
X90441894Y-137362009D01*
X90441898Y-137362001D01*
X90444270Y-137358132D01*
X90496080Y-137311254D01*
X90565009Y-137299829D01*
X90629173Y-137327483D01*
X90655730Y-137358132D01*
X90658103Y-137362005D01*
X90658105Y-137362008D01*
X90658106Y-137362009D01*
X90783794Y-137535004D01*
X90934996Y-137686206D01*
X91107991Y-137811894D01*
X91196524Y-137857004D01*
X91298516Y-137908972D01*
X91298519Y-137908973D01*
X91400200Y-137942010D01*
X91501884Y-137975049D01*
X91713084Y-138008500D01*
X91713085Y-138008500D01*
X91926915Y-138008500D01*
X91926916Y-138008500D01*
X92138116Y-137975049D01*
X92341483Y-137908972D01*
X92351502Y-137903866D01*
X92420170Y-137890969D01*
X92484911Y-137917242D01*
X92525170Y-137974347D01*
X92531800Y-138014350D01*
X92531800Y-141959598D01*
X92556143Y-142081977D01*
X92556145Y-142081985D01*
X92603898Y-142197272D01*
X92603903Y-142197281D01*
X92673228Y-142301032D01*
X92673231Y-142301036D01*
X94297232Y-143925036D01*
X94330717Y-143986359D01*
X94331168Y-143988526D01*
X94352968Y-144098123D01*
X94352970Y-144098131D01*
X94413917Y-144245269D01*
X94502395Y-144377687D01*
X94502401Y-144377694D01*
X94615006Y-144490299D01*
X94615009Y-144490301D01*
X94615011Y-144490303D01*
X94630120Y-144500398D01*
X94674925Y-144554009D01*
X94683632Y-144623334D01*
X94653478Y-144686362D01*
X94594035Y-144723082D01*
X94561229Y-144727500D01*
X91759982Y-144727500D01*
X91732231Y-144738995D01*
X91710995Y-144760231D01*
X91710994Y-144760232D01*
X91710994Y-144760233D01*
X91699500Y-144787982D01*
X91699500Y-146792982D01*
X91699500Y-146823018D01*
X91710994Y-146850767D01*
X91732233Y-146872006D01*
X91759982Y-146883500D01*
X91759984Y-146883500D01*
X97790016Y-146883500D01*
X97790018Y-146883500D01*
X97817767Y-146872006D01*
X97839006Y-146850767D01*
X97850500Y-146823018D01*
X97850500Y-144787982D01*
X97839006Y-144760233D01*
X97817767Y-144738994D01*
X97790018Y-144727500D01*
X95699571Y-144727500D01*
X95632532Y-144707815D01*
X95586777Y-144655011D01*
X95576833Y-144585853D01*
X95605858Y-144522297D01*
X95630677Y-144500400D01*
X95645789Y-144490303D01*
X95758403Y-144377689D01*
X95846883Y-144245268D01*
X95907830Y-144098131D01*
X95938900Y-143941930D01*
X95938900Y-143782670D01*
X95907830Y-143626469D01*
X95846883Y-143479332D01*
X95758403Y-143346911D01*
X95758398Y-143346905D01*
X95645794Y-143234301D01*
X95645787Y-143234295D01*
X95513369Y-143145817D01*
X95366231Y-143084870D01*
X95366223Y-143084868D01*
X95256626Y-143063068D01*
X95194715Y-143030684D01*
X95193136Y-143029132D01*
X93835119Y-141671115D01*
X93801634Y-141609792D01*
X93798800Y-141583434D01*
X93798800Y-138057800D01*
X93818485Y-137990761D01*
X93871289Y-137945006D01*
X93940447Y-137935062D01*
X93961118Y-137939869D01*
X94043872Y-137966757D01*
X94110000Y-137977231D01*
X94110000Y-137083012D01*
X94167007Y-137115925D01*
X94294174Y-137150000D01*
X94425826Y-137150000D01*
X94552993Y-137115925D01*
X94610000Y-137083012D01*
X94610000Y-137977231D01*
X94676126Y-137966757D01*
X94676129Y-137966757D01*
X94878217Y-137901095D01*
X95067557Y-137804620D01*
X95239459Y-137679727D01*
X95239464Y-137679723D01*
X95389723Y-137529464D01*
X95389727Y-137529459D01*
X95514619Y-137357560D01*
X95514738Y-137357327D01*
X95514808Y-137357252D01*
X95517168Y-137353402D01*
X95517976Y-137353897D01*
X95562707Y-137306526D01*
X95630526Y-137289723D01*
X95696663Y-137312254D01*
X95735712Y-137357311D01*
X95738105Y-137362008D01*
X95738109Y-137362013D01*
X95863794Y-137535004D01*
X96014996Y-137686206D01*
X96187991Y-137811894D01*
X96276524Y-137857004D01*
X96378516Y-137908972D01*
X96378519Y-137908973D01*
X96480200Y-137942010D01*
X96581884Y-137975049D01*
X96793084Y-138008500D01*
X96793085Y-138008500D01*
X97006915Y-138008500D01*
X97006916Y-138008500D01*
X97218116Y-137975049D01*
X97421483Y-137908972D01*
X97612009Y-137811894D01*
X97785004Y-137686206D01*
X97936206Y-137535004D01*
X98061894Y-137362009D01*
X98061898Y-137362001D01*
X98064270Y-137358132D01*
X98116080Y-137311254D01*
X98185009Y-137299829D01*
X98249173Y-137327483D01*
X98275730Y-137358132D01*
X98278103Y-137362005D01*
X98278105Y-137362008D01*
X98278106Y-137362009D01*
X98403794Y-137535004D01*
X98554996Y-137686206D01*
X98727991Y-137811894D01*
X98816524Y-137857004D01*
X98918516Y-137908972D01*
X98918519Y-137908973D01*
X99020200Y-137942010D01*
X99121884Y-137975049D01*
X99333084Y-138008500D01*
X99333085Y-138008500D01*
X99546915Y-138008500D01*
X99546916Y-138008500D01*
X99758116Y-137975049D01*
X99961483Y-137908972D01*
X100152009Y-137811894D01*
X100325004Y-137686206D01*
X100476206Y-137535004D01*
X100601894Y-137362009D01*
X100604283Y-137357319D01*
X100652254Y-137306522D01*
X100720074Y-137289724D01*
X100786210Y-137312258D01*
X100822201Y-137353788D01*
X100822832Y-137353402D01*
X100825164Y-137357207D01*
X100825251Y-137357308D01*
X100825376Y-137357554D01*
X100950272Y-137529459D01*
X100950276Y-137529464D01*
X101100535Y-137679723D01*
X101100540Y-137679727D01*
X101272442Y-137804620D01*
X101461782Y-137901095D01*
X101663871Y-137966757D01*
X101730000Y-137977231D01*
X101730000Y-137083012D01*
X101787007Y-137115925D01*
X101914174Y-137150000D01*
X102045826Y-137150000D01*
X102172993Y-137115925D01*
X102230000Y-137083012D01*
X102230000Y-137977230D01*
X102296126Y-137966757D01*
X102296129Y-137966757D01*
X102498217Y-137901095D01*
X102687557Y-137804620D01*
X102859459Y-137679727D01*
X102859464Y-137679723D01*
X103009723Y-137529464D01*
X103009727Y-137529459D01*
X103134619Y-137357560D01*
X103134738Y-137357327D01*
X103134808Y-137357252D01*
X103137168Y-137353402D01*
X103137976Y-137353897D01*
X103182707Y-137306526D01*
X103250526Y-137289723D01*
X103316663Y-137312254D01*
X103355712Y-137357311D01*
X103358105Y-137362008D01*
X103358109Y-137362013D01*
X103483794Y-137535004D01*
X103634996Y-137686206D01*
X103807991Y-137811894D01*
X103896524Y-137857004D01*
X103998516Y-137908972D01*
X103998519Y-137908973D01*
X104100200Y-137942010D01*
X104201884Y-137975049D01*
X104413084Y-138008500D01*
X104413085Y-138008500D01*
X104626915Y-138008500D01*
X104626916Y-138008500D01*
X104838116Y-137975049D01*
X105041483Y-137908972D01*
X105232009Y-137811894D01*
X105405004Y-137686206D01*
X105556206Y-137535004D01*
X105681894Y-137362009D01*
X105681898Y-137362001D01*
X105684270Y-137358132D01*
X105736080Y-137311254D01*
X105805009Y-137299829D01*
X105869173Y-137327483D01*
X105895730Y-137358132D01*
X105898103Y-137362005D01*
X105898105Y-137362008D01*
X105898106Y-137362009D01*
X106023794Y-137535004D01*
X106174996Y-137686206D01*
X106347991Y-137811894D01*
X106436524Y-137857004D01*
X106538516Y-137908972D01*
X106538519Y-137908973D01*
X106640200Y-137942010D01*
X106741884Y-137975049D01*
X106953084Y-138008500D01*
X106953085Y-138008500D01*
X107166915Y-138008500D01*
X107166916Y-138008500D01*
X107378116Y-137975049D01*
X107581483Y-137908972D01*
X107772009Y-137811894D01*
X107945004Y-137686206D01*
X108096206Y-137535004D01*
X108221894Y-137362009D01*
X108221898Y-137362001D01*
X108224270Y-137358132D01*
X108276080Y-137311254D01*
X108345009Y-137299829D01*
X108409173Y-137327483D01*
X108435730Y-137358132D01*
X108438103Y-137362005D01*
X108438105Y-137362008D01*
X108438106Y-137362009D01*
X108563794Y-137535004D01*
X108714996Y-137686206D01*
X108887991Y-137811894D01*
X108976524Y-137857004D01*
X109078516Y-137908972D01*
X109078519Y-137908973D01*
X109180200Y-137942010D01*
X109281884Y-137975049D01*
X109493084Y-138008500D01*
X109493085Y-138008500D01*
X109706915Y-138008500D01*
X109706916Y-138008500D01*
X109918116Y-137975049D01*
X110121483Y-137908972D01*
X110312009Y-137811894D01*
X110485004Y-137686206D01*
X110636206Y-137535004D01*
X110761894Y-137362009D01*
X110761901Y-137361994D01*
X110764263Y-137358141D01*
X110816069Y-137311259D01*
X110884997Y-137299827D01*
X110949163Y-137327476D01*
X110975723Y-137358122D01*
X110978100Y-137362001D01*
X110978105Y-137362008D01*
X110978106Y-137362009D01*
X111103794Y-137535004D01*
X111254996Y-137686206D01*
X111427991Y-137811894D01*
X111516524Y-137857004D01*
X111618516Y-137908972D01*
X111618519Y-137908973D01*
X111720200Y-137942010D01*
X111821884Y-137975049D01*
X112033084Y-138008500D01*
X112033085Y-138008500D01*
X112246915Y-138008500D01*
X112246916Y-138008500D01*
X112458116Y-137975049D01*
X112661483Y-137908972D01*
X112852009Y-137811894D01*
X113025004Y-137686206D01*
X113176206Y-137535004D01*
X113301894Y-137362009D01*
X113304283Y-137357319D01*
X113352254Y-137306522D01*
X113420074Y-137289724D01*
X113486210Y-137312258D01*
X113522201Y-137353788D01*
X113522832Y-137353402D01*
X113525164Y-137357207D01*
X113525251Y-137357308D01*
X113525376Y-137357554D01*
X113650272Y-137529459D01*
X113650276Y-137529464D01*
X113800535Y-137679723D01*
X113800540Y-137679727D01*
X113972442Y-137804620D01*
X114161782Y-137901095D01*
X114363871Y-137966757D01*
X114430000Y-137977231D01*
X114430000Y-137083012D01*
X114487007Y-137115925D01*
X114614174Y-137150000D01*
X114745826Y-137150000D01*
X114872993Y-137115925D01*
X114930000Y-137083012D01*
X114930000Y-137977230D01*
X114996125Y-137966758D01*
X115136281Y-137921218D01*
X115206122Y-137919223D01*
X115265955Y-137955303D01*
X115296784Y-138018004D01*
X115298600Y-138039149D01*
X115298600Y-138647434D01*
X115278915Y-138714473D01*
X115262281Y-138735115D01*
X114696167Y-139301229D01*
X114652047Y-139345349D01*
X114607927Y-139389468D01*
X114538603Y-139493218D01*
X114538598Y-139493227D01*
X114490845Y-139608514D01*
X114490843Y-139608520D01*
X114469999Y-139713310D01*
X114437614Y-139775221D01*
X114404682Y-139799600D01*
X114387993Y-139808104D01*
X114214997Y-139933793D01*
X114103211Y-140045579D01*
X114041888Y-140079063D01*
X113972196Y-140074079D01*
X113916263Y-140032207D01*
X113899348Y-140001230D01*
X113853354Y-139877913D01*
X113853350Y-139877906D01*
X113767190Y-139762812D01*
X113767187Y-139762809D01*
X113652093Y-139676649D01*
X113652086Y-139676645D01*
X113517379Y-139626403D01*
X113517372Y-139626401D01*
X113457844Y-139620000D01*
X112810000Y-139620000D01*
X112810000Y-140536988D01*
X112752993Y-140504075D01*
X112625826Y-140470000D01*
X112494174Y-140470000D01*
X112367007Y-140504075D01*
X112310000Y-140536988D01*
X112310000Y-139620000D01*
X111662155Y-139620000D01*
X111602627Y-139626401D01*
X111602620Y-139626403D01*
X111467913Y-139676645D01*
X111467906Y-139676649D01*
X111352812Y-139762809D01*
X111352809Y-139762812D01*
X111266649Y-139877906D01*
X111266645Y-139877913D01*
X111216403Y-140012620D01*
X111216401Y-140012627D01*
X111210000Y-140072155D01*
X111210000Y-140720000D01*
X112126988Y-140720000D01*
X112094075Y-140777007D01*
X112060000Y-140904174D01*
X112060000Y-141035826D01*
X112094075Y-141162993D01*
X112126988Y-141220000D01*
X111210000Y-141220000D01*
X111210000Y-141867844D01*
X111216401Y-141927372D01*
X111216403Y-141927379D01*
X111266645Y-142062086D01*
X111266649Y-142062093D01*
X111352809Y-142177187D01*
X111352812Y-142177190D01*
X111467906Y-142263350D01*
X111467913Y-142263354D01*
X111602620Y-142313596D01*
X111602627Y-142313598D01*
X111662155Y-142319999D01*
X111662172Y-142320000D01*
X112310000Y-142320000D01*
X112310000Y-141403012D01*
X112367007Y-141435925D01*
X112494174Y-141470000D01*
X112625826Y-141470000D01*
X112752993Y-141435925D01*
X112810000Y-141403012D01*
X112810000Y-142320000D01*
X113457828Y-142320000D01*
X113457844Y-142319999D01*
X113517372Y-142313598D01*
X113517379Y-142313596D01*
X113652086Y-142263354D01*
X113652093Y-142263350D01*
X113767187Y-142177190D01*
X113767190Y-142177187D01*
X113853350Y-142062093D01*
X113853355Y-142062084D01*
X113899348Y-141938770D01*
X113941219Y-141882836D01*
X114006683Y-141858418D01*
X114074956Y-141873269D01*
X114103211Y-141894421D01*
X114214996Y-142006206D01*
X114387991Y-142131894D01*
X114416514Y-142146427D01*
X114578516Y-142228972D01*
X114578519Y-142228973D01*
X114680200Y-142262010D01*
X114781884Y-142295049D01*
X114993084Y-142328500D01*
X114993085Y-142328500D01*
X115206915Y-142328500D01*
X115206916Y-142328500D01*
X115418116Y-142295049D01*
X115621483Y-142228972D01*
X115812009Y-142131894D01*
X115985004Y-142006206D01*
X116136206Y-141855004D01*
X116261894Y-141682009D01*
X116261896Y-141682004D01*
X116264270Y-141678132D01*
X116316080Y-141631254D01*
X116385009Y-141619829D01*
X116449173Y-141647483D01*
X116475730Y-141678132D01*
X116478103Y-141682005D01*
X116478105Y-141682008D01*
X116478106Y-141682009D01*
X116603794Y-141855004D01*
X116754996Y-142006206D01*
X116927991Y-142131894D01*
X116956514Y-142146427D01*
X117118516Y-142228972D01*
X117118519Y-142228973D01*
X117220200Y-142262010D01*
X117321884Y-142295049D01*
X117533084Y-142328500D01*
X117533085Y-142328500D01*
X117746915Y-142328500D01*
X117746916Y-142328500D01*
X117958116Y-142295049D01*
X118161483Y-142228972D01*
X118352009Y-142131894D01*
X118476568Y-142041396D01*
X118542370Y-142017918D01*
X118610424Y-142033743D01*
X118637131Y-142054035D01*
X119261763Y-142678668D01*
X119261767Y-142678671D01*
X119365518Y-142747996D01*
X119365524Y-142747999D01*
X119365525Y-142748000D01*
X119480815Y-142795755D01*
X119603201Y-142820099D01*
X119603205Y-142820100D01*
X119603206Y-142820100D01*
X125792695Y-142820100D01*
X125792696Y-142820099D01*
X125915085Y-142795755D01*
X126030375Y-142748000D01*
X126134133Y-142678671D01*
X126777326Y-142035478D01*
X126806415Y-142019593D01*
X126835019Y-142002840D01*
X126836951Y-142002919D01*
X126838649Y-142001993D01*
X126871709Y-142004357D01*
X126904829Y-142005727D01*
X126907068Y-142006886D01*
X126908340Y-142006977D01*
X126936300Y-142021703D01*
X126937087Y-142022256D01*
X127087991Y-142131894D01*
X127106616Y-142141384D01*
X127113793Y-142146427D01*
X127130313Y-142167165D01*
X127149590Y-142185371D01*
X127152044Y-142194446D01*
X127157327Y-142201077D01*
X127159432Y-142221755D01*
X127166500Y-142247883D01*
X127166500Y-143611690D01*
X127146815Y-143678729D01*
X127111391Y-143714792D01*
X127033108Y-143767098D01*
X126920501Y-143879705D01*
X126920495Y-143879712D01*
X126832017Y-144012130D01*
X126771070Y-144159268D01*
X126771068Y-144159276D01*
X126740000Y-144315465D01*
X126740000Y-144474734D01*
X126771068Y-144630923D01*
X126771070Y-144630931D01*
X126832017Y-144778069D01*
X126920495Y-144910487D01*
X126920501Y-144910494D01*
X127033105Y-145023098D01*
X127033112Y-145023104D01*
X127165530Y-145111582D01*
X127165531Y-145111582D01*
X127165532Y-145111583D01*
X127312669Y-145172530D01*
X127468865Y-145203599D01*
X127468869Y-145203600D01*
X127468870Y-145203600D01*
X127628131Y-145203600D01*
X127628132Y-145203599D01*
X127784331Y-145172530D01*
X127931468Y-145111583D01*
X128063889Y-145023103D01*
X128176503Y-144910489D01*
X128258359Y-144787982D01*
X142499500Y-144787982D01*
X142499500Y-146792982D01*
X142499500Y-146823018D01*
X142510994Y-146850767D01*
X142532233Y-146872006D01*
X142559982Y-146883500D01*
X142559984Y-146883500D01*
X148590016Y-146883500D01*
X148590018Y-146883500D01*
X148617767Y-146872006D01*
X148639006Y-146850767D01*
X148650500Y-146823018D01*
X148650500Y-144787982D01*
X148639006Y-144760233D01*
X148617767Y-144738994D01*
X148590018Y-144727500D01*
X142590018Y-144727500D01*
X142559982Y-144727500D01*
X142532231Y-144738995D01*
X142510995Y-144760231D01*
X142510994Y-144760232D01*
X142510994Y-144760233D01*
X142499500Y-144787982D01*
X128258359Y-144787982D01*
X128264983Y-144778068D01*
X128272372Y-144760231D01*
X128285591Y-144728317D01*
X128285591Y-144728316D01*
X128309415Y-144670800D01*
X128325930Y-144630931D01*
X128357000Y-144474730D01*
X128357000Y-144474723D01*
X128357597Y-144468669D01*
X128358397Y-144468747D01*
X128359341Y-144464374D01*
X128363228Y-144440161D01*
X128364672Y-144435776D01*
X128409155Y-144328384D01*
X128421538Y-144266133D01*
X128433500Y-144205994D01*
X128433500Y-142247883D01*
X128453185Y-142180844D01*
X128501204Y-142137398D01*
X128512009Y-142131894D01*
X128685004Y-142006206D01*
X128836206Y-141855004D01*
X128961894Y-141682009D01*
X128961896Y-141682004D01*
X128964270Y-141678132D01*
X129016080Y-141631254D01*
X129085009Y-141619829D01*
X129149173Y-141647483D01*
X129175730Y-141678132D01*
X129178103Y-141682005D01*
X129178105Y-141682008D01*
X129178106Y-141682009D01*
X129303794Y-141855004D01*
X129454996Y-142006206D01*
X129627991Y-142131894D01*
X129656514Y-142146427D01*
X129818516Y-142228972D01*
X129818519Y-142228973D01*
X129920200Y-142262010D01*
X130021884Y-142295049D01*
X130233084Y-142328500D01*
X130233085Y-142328500D01*
X130446915Y-142328500D01*
X130446916Y-142328500D01*
X130658116Y-142295049D01*
X130861483Y-142228972D01*
X131052009Y-142131894D01*
X131225004Y-142006206D01*
X131376206Y-141855004D01*
X131501894Y-141682009D01*
X131501896Y-141682004D01*
X131504270Y-141678132D01*
X131556080Y-141631254D01*
X131625009Y-141619829D01*
X131689173Y-141647483D01*
X131715730Y-141678132D01*
X131718103Y-141682005D01*
X131718105Y-141682008D01*
X131718106Y-141682009D01*
X131843794Y-141855004D01*
X131994996Y-142006206D01*
X132167991Y-142131894D01*
X132196514Y-142146427D01*
X132358516Y-142228972D01*
X132358519Y-142228973D01*
X132460200Y-142262010D01*
X132561884Y-142295049D01*
X132773084Y-142328500D01*
X132773085Y-142328500D01*
X132986915Y-142328500D01*
X132986916Y-142328500D01*
X133198116Y-142295049D01*
X133401483Y-142228972D01*
X133592009Y-142131894D01*
X133765004Y-142006206D01*
X133916206Y-141855004D01*
X134041894Y-141682009D01*
X134041896Y-141682004D01*
X134044270Y-141678132D01*
X134096080Y-141631254D01*
X134165009Y-141619829D01*
X134229173Y-141647483D01*
X134255730Y-141678132D01*
X134258103Y-141682005D01*
X134258105Y-141682008D01*
X134258106Y-141682009D01*
X134383794Y-141855004D01*
X134534996Y-142006206D01*
X134707991Y-142131894D01*
X134736514Y-142146427D01*
X134898516Y-142228972D01*
X134898519Y-142228973D01*
X135000200Y-142262010D01*
X135101884Y-142295049D01*
X135313084Y-142328500D01*
X135313085Y-142328500D01*
X135526915Y-142328500D01*
X135526916Y-142328500D01*
X135738116Y-142295049D01*
X135941483Y-142228972D01*
X136132009Y-142131894D01*
X136305004Y-142006206D01*
X136456206Y-141855004D01*
X136581894Y-141682009D01*
X136584283Y-141677319D01*
X136632254Y-141626522D01*
X136700074Y-141609724D01*
X136766210Y-141632258D01*
X136802201Y-141673788D01*
X136802832Y-141673402D01*
X136805164Y-141677207D01*
X136805251Y-141677308D01*
X136805376Y-141677554D01*
X136930272Y-141849459D01*
X136930276Y-141849464D01*
X137080535Y-141999723D01*
X137080540Y-141999727D01*
X137252442Y-142124620D01*
X137441782Y-142221095D01*
X137643871Y-142286757D01*
X137710000Y-142297231D01*
X137710000Y-141403012D01*
X137767007Y-141435925D01*
X137894174Y-141470000D01*
X138025826Y-141470000D01*
X138152993Y-141435925D01*
X138210000Y-141403012D01*
X138210000Y-142297230D01*
X138276126Y-142286757D01*
X138276129Y-142286757D01*
X138478217Y-142221095D01*
X138667557Y-142124620D01*
X138839459Y-141999727D01*
X138839464Y-141999723D01*
X138989723Y-141849464D01*
X138989727Y-141849459D01*
X139114619Y-141677560D01*
X139114738Y-141677327D01*
X139114808Y-141677252D01*
X139117168Y-141673402D01*
X139117976Y-141673897D01*
X139162707Y-141626526D01*
X139230526Y-141609723D01*
X139296663Y-141632254D01*
X139335712Y-141677311D01*
X139338105Y-141682008D01*
X139380002Y-141739674D01*
X139463794Y-141855004D01*
X139614996Y-142006206D01*
X139787991Y-142131894D01*
X139816514Y-142146427D01*
X139978516Y-142228972D01*
X139978519Y-142228973D01*
X140080200Y-142262010D01*
X140181884Y-142295049D01*
X140393084Y-142328500D01*
X140393085Y-142328500D01*
X140606915Y-142328500D01*
X140606916Y-142328500D01*
X140818116Y-142295049D01*
X141021483Y-142228972D01*
X141212009Y-142131894D01*
X141385004Y-142006206D01*
X141536206Y-141855004D01*
X141661894Y-141682009D01*
X141758972Y-141491483D01*
X141825049Y-141288116D01*
X141858500Y-141076916D01*
X141858500Y-140863084D01*
X141825049Y-140651884D01*
X141758972Y-140448517D01*
X141758972Y-140448516D01*
X141701896Y-140336500D01*
X141661894Y-140257991D01*
X141536206Y-140084996D01*
X141385004Y-139933794D01*
X141212009Y-139808106D01*
X141147469Y-139775221D01*
X141021483Y-139711027D01*
X141021480Y-139711026D01*
X140818117Y-139644951D01*
X140700997Y-139626401D01*
X140606916Y-139611500D01*
X140393084Y-139611500D01*
X140322684Y-139622650D01*
X140181882Y-139644951D01*
X139978519Y-139711026D01*
X139978516Y-139711027D01*
X139787990Y-139808106D01*
X139614993Y-139933796D01*
X139463796Y-140084993D01*
X139338103Y-140257994D01*
X139335709Y-140262693D01*
X139287731Y-140313485D01*
X139219908Y-140330275D01*
X139153775Y-140307732D01*
X139117800Y-140266210D01*
X139117168Y-140266598D01*
X139114829Y-140262781D01*
X139114743Y-140262682D01*
X139114620Y-140262441D01*
X138989727Y-140090540D01*
X138989723Y-140090535D01*
X138839464Y-139940276D01*
X138839459Y-139940272D01*
X138667557Y-139815379D01*
X138478215Y-139718903D01*
X138276124Y-139653241D01*
X138210000Y-139642768D01*
X138210000Y-140536988D01*
X138152993Y-140504075D01*
X138025826Y-140470000D01*
X137894174Y-140470000D01*
X137767007Y-140504075D01*
X137710000Y-140536988D01*
X137710000Y-139642768D01*
X137709999Y-139642768D01*
X137643875Y-139653241D01*
X137441784Y-139718903D01*
X137252442Y-139815379D01*
X137080540Y-139940272D01*
X137080535Y-139940276D01*
X136930276Y-140090535D01*
X136930272Y-140090540D01*
X136805376Y-140262446D01*
X136805374Y-140262448D01*
X136805246Y-140262701D01*
X136805172Y-140262779D01*
X136802832Y-140266598D01*
X136802029Y-140266106D01*
X136757264Y-140313489D01*
X136689441Y-140330274D01*
X136623309Y-140307727D01*
X136584285Y-140262683D01*
X136581895Y-140257992D01*
X136550472Y-140214742D01*
X136456206Y-140084996D01*
X136305004Y-139933794D01*
X136132009Y-139808106D01*
X136132008Y-139808105D01*
X136132006Y-139808104D01*
X136121204Y-139802600D01*
X136070408Y-139754625D01*
X136053500Y-139692116D01*
X136053500Y-138159105D01*
X136053499Y-138159101D01*
X136047011Y-138126482D01*
X136029155Y-138036715D01*
X136029150Y-138036704D01*
X136027387Y-138030888D01*
X136029453Y-138030260D01*
X136023027Y-137970485D01*
X136054301Y-137908005D01*
X136114390Y-137872352D01*
X136145057Y-137868500D01*
X159137016Y-137868500D01*
X159137018Y-137868500D01*
X159164767Y-137857006D01*
X159186006Y-137835767D01*
X159197500Y-137808018D01*
X159197500Y-84191982D01*
X159186006Y-84164233D01*
X159164767Y-84142994D01*
X159137018Y-84131500D01*
X159137017Y-84131500D01*
X149493667Y-84131500D01*
X149426628Y-84111815D01*
X149380873Y-84059011D01*
X149370929Y-83989853D01*
X149399954Y-83926297D01*
X149405986Y-83919819D01*
X152223319Y-81102485D01*
X153554634Y-79771169D01*
X153615955Y-79737686D01*
X153685647Y-79742670D01*
X153741580Y-79784542D01*
X153756874Y-79811399D01*
X153810917Y-79941869D01*
X153899395Y-80074287D01*
X153899401Y-80074294D01*
X154012005Y-80186898D01*
X154012012Y-80186904D01*
X154144430Y-80275382D01*
X154144431Y-80275382D01*
X154144432Y-80275383D01*
X154291569Y-80336330D01*
X154447765Y-80367399D01*
X154447769Y-80367400D01*
X154447770Y-80367400D01*
X154607031Y-80367400D01*
X154607032Y-80367399D01*
X154763231Y-80336330D01*
X154910368Y-80275383D01*
X155042789Y-80186903D01*
X155155403Y-80074289D01*
X155243883Y-79941868D01*
X155304830Y-79794731D01*
X155335900Y-79638530D01*
X155335900Y-79479270D01*
X155304830Y-79323069D01*
X155243883Y-79175932D01*
X155181797Y-79083012D01*
X155160920Y-79016334D01*
X155160900Y-79014122D01*
X155160900Y-73951345D01*
X157201500Y-73951345D01*
X157201500Y-76048654D01*
X157208011Y-76109202D01*
X157208011Y-76109204D01*
X157259111Y-76246204D01*
X157346739Y-76363261D01*
X157463796Y-76450889D01*
X157578949Y-76493839D01*
X157598061Y-76500968D01*
X157600799Y-76501989D01*
X157628050Y-76504918D01*
X157661345Y-76508499D01*
X157661362Y-76508500D01*
X162068638Y-76508500D01*
X162068654Y-76508499D01*
X162095692Y-76505591D01*
X162129201Y-76501989D01*
X162131939Y-76500968D01*
X162143768Y-76496555D01*
X162266204Y-76450889D01*
X162383261Y-76363261D01*
X162470889Y-76246204D01*
X162521989Y-76109201D01*
X162525591Y-76075692D01*
X162528499Y-76048654D01*
X162528500Y-76048637D01*
X162528500Y-74881947D01*
X163500000Y-74881947D01*
X163500000Y-75118052D01*
X163536934Y-75351247D01*
X163609897Y-75575802D01*
X163717087Y-75786174D01*
X163777338Y-75869104D01*
X163777340Y-75869105D01*
X164517037Y-75129408D01*
X164534075Y-75192993D01*
X164599901Y-75307007D01*
X164692993Y-75400099D01*
X164807007Y-75465925D01*
X164870589Y-75482962D01*
X164130893Y-76222658D01*
X164213828Y-76282914D01*
X164424197Y-76390102D01*
X164648752Y-76463065D01*
X164648751Y-76463065D01*
X164881948Y-76500000D01*
X165118052Y-76500000D01*
X165351247Y-76463065D01*
X165575799Y-76390103D01*
X165598704Y-76378433D01*
X165667373Y-76365536D01*
X165711296Y-76378433D01*
X165734200Y-76390103D01*
X165958752Y-76463065D01*
X165958751Y-76463065D01*
X166191948Y-76500000D01*
X166560000Y-76500000D01*
X166560000Y-75500000D01*
X167060000Y-75500000D01*
X167060000Y-76500000D01*
X167428052Y-76500000D01*
X167661247Y-76463065D01*
X167885802Y-76390102D01*
X168096171Y-76282914D01*
X168287186Y-76144133D01*
X168454133Y-75977186D01*
X168592914Y-75786171D01*
X168700102Y-75575802D01*
X168773065Y-75351247D01*
X168789102Y-75250000D01*
X167743012Y-75250000D01*
X167775925Y-75192993D01*
X167810000Y-75065826D01*
X167810000Y-74934174D01*
X167775925Y-74807007D01*
X167743012Y-74750000D01*
X168789102Y-74750000D01*
X168773065Y-74648752D01*
X168700102Y-74424197D01*
X168592914Y-74213828D01*
X168454133Y-74022813D01*
X168287186Y-73855866D01*
X168096171Y-73717085D01*
X167885802Y-73609897D01*
X167661247Y-73536934D01*
X167661248Y-73536934D01*
X167428052Y-73500000D01*
X167060000Y-73500000D01*
X167060000Y-74500000D01*
X166560000Y-74500000D01*
X166560000Y-73500000D01*
X166191948Y-73500000D01*
X165958752Y-73536934D01*
X165734196Y-73609897D01*
X165711293Y-73621567D01*
X165642624Y-73634462D01*
X165598707Y-73621567D01*
X165575803Y-73609897D01*
X165351247Y-73536934D01*
X165351248Y-73536934D01*
X165118052Y-73500000D01*
X164881948Y-73500000D01*
X164648752Y-73536934D01*
X164424197Y-73609897D01*
X164213830Y-73717084D01*
X164130894Y-73777340D01*
X164870591Y-74517037D01*
X164807007Y-74534075D01*
X164692993Y-74599901D01*
X164599901Y-74692993D01*
X164534075Y-74807007D01*
X164517037Y-74870591D01*
X163777340Y-74130894D01*
X163717084Y-74213830D01*
X163609897Y-74424197D01*
X163536934Y-74648752D01*
X163500000Y-74881947D01*
X162528500Y-74881947D01*
X162528500Y-73951362D01*
X162528499Y-73951345D01*
X162521989Y-73890798D01*
X162513461Y-73867935D01*
X162513460Y-73867932D01*
X162470889Y-73753796D01*
X162462605Y-73742730D01*
X162383261Y-73636739D01*
X162266204Y-73549111D01*
X162233557Y-73536934D01*
X162129203Y-73498011D01*
X162068654Y-73491500D01*
X162068638Y-73491500D01*
X160758638Y-73491500D01*
X157661362Y-73491500D01*
X157661345Y-73491500D01*
X157600797Y-73498011D01*
X157600795Y-73498011D01*
X157463795Y-73549111D01*
X157346739Y-73636739D01*
X157259111Y-73753795D01*
X157208011Y-73890795D01*
X157208011Y-73890797D01*
X157201500Y-73951345D01*
X155160900Y-73951345D01*
X155160900Y-66168366D01*
X155180585Y-66101327D01*
X155197219Y-66080685D01*
X156028717Y-65249187D01*
X156934353Y-64343550D01*
X156995674Y-64310067D01*
X157060348Y-64313301D01*
X157070505Y-64316601D01*
X157071884Y-64317049D01*
X157283084Y-64350500D01*
X157283085Y-64350500D01*
X157496915Y-64350500D01*
X157496916Y-64350500D01*
X157708116Y-64317049D01*
X157911483Y-64250972D01*
X158102009Y-64153894D01*
X158275004Y-64028206D01*
X158426206Y-63877004D01*
X158551894Y-63704009D01*
X158648972Y-63513483D01*
X158715049Y-63310116D01*
X158748500Y-63098916D01*
X158748500Y-62885084D01*
X158715049Y-62673884D01*
X158648972Y-62470517D01*
X158648972Y-62470516D01*
X158566420Y-62308500D01*
X158551894Y-62279991D01*
X158426206Y-62106996D01*
X158275004Y-61955794D01*
X158102009Y-61830106D01*
X158102010Y-61830106D01*
X158102008Y-61830105D01*
X158097311Y-61827712D01*
X158046517Y-61779735D01*
X158029724Y-61711914D01*
X158052264Y-61645780D01*
X158093790Y-61609801D01*
X158093402Y-61609168D01*
X158097229Y-61606822D01*
X158097327Y-61606738D01*
X158097556Y-61606621D01*
X158151716Y-61567270D01*
X158151717Y-61567270D01*
X157519408Y-60934962D01*
X157582993Y-60917925D01*
X157697007Y-60852099D01*
X157790099Y-60759007D01*
X157855925Y-60644993D01*
X157872962Y-60581408D01*
X158505270Y-61213717D01*
X158505270Y-61213716D01*
X158544622Y-61159554D01*
X158641095Y-60970217D01*
X158706757Y-60768130D01*
X158706757Y-60768127D01*
X158740000Y-60558246D01*
X158740000Y-60345753D01*
X158706757Y-60135872D01*
X158706757Y-60135869D01*
X158641095Y-59933782D01*
X158544624Y-59744449D01*
X158505270Y-59690282D01*
X158505269Y-59690282D01*
X157872962Y-60322590D01*
X157855925Y-60259007D01*
X157790099Y-60144993D01*
X157697007Y-60051901D01*
X157582993Y-59986075D01*
X157519409Y-59969037D01*
X158151716Y-59336728D01*
X158097550Y-59297375D01*
X157908217Y-59200904D01*
X157706129Y-59135242D01*
X157496246Y-59102000D01*
X157283754Y-59102000D01*
X157073872Y-59135242D01*
X157073869Y-59135242D01*
X156871782Y-59200904D01*
X156682439Y-59297380D01*
X156628282Y-59336727D01*
X156628282Y-59336728D01*
X157260591Y-59969037D01*
X157197007Y-59986075D01*
X157082993Y-60051901D01*
X156989901Y-60144993D01*
X156924075Y-60259007D01*
X156907037Y-60322591D01*
X156274728Y-59690282D01*
X156274727Y-59690282D01*
X156235380Y-59744440D01*
X156235374Y-59744449D01*
X156235246Y-59744702D01*
X156235172Y-59744780D01*
X156232838Y-59748590D01*
X156232036Y-59748099D01*
X156187264Y-59795490D01*
X156119441Y-59812275D01*
X156053309Y-59789728D01*
X156014283Y-59744680D01*
X156011894Y-59739991D01*
X155886206Y-59566996D01*
X155735004Y-59415794D01*
X155562009Y-59290106D01*
X155512681Y-59264972D01*
X155371483Y-59193027D01*
X155371480Y-59193026D01*
X155168117Y-59126951D01*
X155019169Y-59103360D01*
X154956916Y-59093500D01*
X154743084Y-59093500D01*
X154680831Y-59103360D01*
X154531882Y-59126951D01*
X154328519Y-59193026D01*
X154328516Y-59193027D01*
X154137990Y-59290106D01*
X153964993Y-59415796D01*
X153813796Y-59566993D01*
X153688105Y-59739991D01*
X153685727Y-59743873D01*
X153633914Y-59790748D01*
X153564984Y-59802169D01*
X153500822Y-59774512D01*
X153474273Y-59743873D01*
X153471894Y-59739991D01*
X153454007Y-59715372D01*
X153346206Y-59566996D01*
X153195004Y-59415794D01*
X153022009Y-59290106D01*
X152972681Y-59264972D01*
X152831483Y-59193027D01*
X152831480Y-59193026D01*
X152628117Y-59126951D01*
X152479169Y-59103360D01*
X152416916Y-59093500D01*
X152203084Y-59093500D01*
X152140831Y-59103360D01*
X151991882Y-59126951D01*
X151788519Y-59193026D01*
X151788516Y-59193027D01*
X151597990Y-59290106D01*
X151424993Y-59415796D01*
X151273796Y-59566993D01*
X151148105Y-59739991D01*
X151145727Y-59743873D01*
X151093914Y-59790748D01*
X151024984Y-59802169D01*
X150960822Y-59774512D01*
X150934273Y-59743873D01*
X150931894Y-59739991D01*
X150914007Y-59715372D01*
X150806206Y-59566996D01*
X150655004Y-59415794D01*
X150482009Y-59290106D01*
X150432681Y-59264972D01*
X150291483Y-59193027D01*
X150291480Y-59193026D01*
X150088117Y-59126951D01*
X149939169Y-59103360D01*
X149876916Y-59093500D01*
X149663084Y-59093500D01*
X149600831Y-59103360D01*
X149451882Y-59126951D01*
X149248519Y-59193026D01*
X149248516Y-59193027D01*
X149057990Y-59290106D01*
X148884993Y-59415796D01*
X148733796Y-59566993D01*
X148608105Y-59739991D01*
X148605727Y-59743873D01*
X148553914Y-59790748D01*
X148484984Y-59802169D01*
X148420822Y-59774512D01*
X148394273Y-59743873D01*
X148391894Y-59739991D01*
X148374007Y-59715372D01*
X148266206Y-59566996D01*
X148115004Y-59415794D01*
X147942009Y-59290106D01*
X147892681Y-59264972D01*
X147751483Y-59193027D01*
X147751480Y-59193026D01*
X147548117Y-59126951D01*
X147399169Y-59103360D01*
X147336916Y-59093500D01*
X147123084Y-59093500D01*
X147060831Y-59103360D01*
X146911882Y-59126951D01*
X146708519Y-59193026D01*
X146708516Y-59193027D01*
X146517990Y-59290106D01*
X146344993Y-59415796D01*
X146193796Y-59566993D01*
X146068105Y-59739991D01*
X146065727Y-59743873D01*
X146013914Y-59790748D01*
X145944984Y-59802169D01*
X145880822Y-59774512D01*
X145854273Y-59743873D01*
X145851894Y-59739991D01*
X145834007Y-59715372D01*
X145726206Y-59566996D01*
X145575004Y-59415794D01*
X145402009Y-59290106D01*
X145352681Y-59264972D01*
X145211483Y-59193027D01*
X145211480Y-59193026D01*
X145008117Y-59126951D01*
X144859169Y-59103360D01*
X144796916Y-59093500D01*
X144583084Y-59093500D01*
X144520831Y-59103360D01*
X144371882Y-59126951D01*
X144168519Y-59193026D01*
X144168516Y-59193027D01*
X143977990Y-59290106D01*
X143804993Y-59415796D01*
X143653796Y-59566993D01*
X143528105Y-59739991D01*
X143525727Y-59743873D01*
X143473914Y-59790748D01*
X143404984Y-59802169D01*
X143340822Y-59774512D01*
X143314273Y-59743873D01*
X143311894Y-59739991D01*
X143294007Y-59715372D01*
X143186206Y-59566996D01*
X143035004Y-59415794D01*
X142862009Y-59290106D01*
X142812681Y-59264972D01*
X142671483Y-59193027D01*
X142671480Y-59193026D01*
X142468117Y-59126951D01*
X142319169Y-59103360D01*
X142256916Y-59093500D01*
X142043084Y-59093500D01*
X141980831Y-59103360D01*
X141831882Y-59126951D01*
X141628519Y-59193026D01*
X141628516Y-59193027D01*
X141437990Y-59290106D01*
X141264993Y-59415796D01*
X141113796Y-59566993D01*
X140988105Y-59739991D01*
X140985727Y-59743873D01*
X140933914Y-59790748D01*
X140864984Y-59802169D01*
X140800822Y-59774512D01*
X140774273Y-59743873D01*
X140771894Y-59739991D01*
X140754007Y-59715372D01*
X140646206Y-59566996D01*
X140495004Y-59415794D01*
X140322009Y-59290106D01*
X140272681Y-59264972D01*
X140131483Y-59193027D01*
X140131480Y-59193026D01*
X139928117Y-59126951D01*
X139779169Y-59103360D01*
X139716916Y-59093500D01*
X139503084Y-59093500D01*
X139440831Y-59103360D01*
X139291882Y-59126951D01*
X139088519Y-59193026D01*
X139088516Y-59193027D01*
X138897990Y-59290106D01*
X138724993Y-59415796D01*
X138573796Y-59566993D01*
X138448106Y-59739990D01*
X138351027Y-59930516D01*
X138351026Y-59930519D01*
X138284951Y-60133882D01*
X138251500Y-60345084D01*
X138251500Y-60558916D01*
X138264759Y-60642627D01*
X138284951Y-60770117D01*
X138351026Y-60973480D01*
X138351027Y-60973483D01*
X138427720Y-61124000D01*
X138448106Y-61164009D01*
X138573794Y-61337004D01*
X138724996Y-61488206D01*
X138725002Y-61488210D01*
X138726263Y-61489127D01*
X138726625Y-61489597D01*
X138728701Y-61491370D01*
X138728328Y-61491806D01*
X138768925Y-61544459D01*
X138774900Y-61614073D01*
X138742290Y-61675866D01*
X138697201Y-61704122D01*
X138697421Y-61704592D01*
X138693636Y-61706356D01*
X138692380Y-61707144D01*
X138690885Y-61707639D01*
X138690875Y-61707643D01*
X138541654Y-61799684D01*
X138417684Y-61923654D01*
X138325643Y-62072875D01*
X138325641Y-62072880D01*
X138270494Y-62239302D01*
X138270493Y-62239309D01*
X138260000Y-62342013D01*
X138260000Y-62742000D01*
X139176988Y-62742000D01*
X139144075Y-62799007D01*
X139110000Y-62926174D01*
X139110000Y-63057826D01*
X139144075Y-63184993D01*
X139176988Y-63242000D01*
X138260001Y-63242000D01*
X138260001Y-63641986D01*
X138270494Y-63744697D01*
X138325641Y-63911119D01*
X138325643Y-63911124D01*
X138417684Y-64060345D01*
X138541654Y-64184315D01*
X138690875Y-64276356D01*
X138690880Y-64276358D01*
X138857302Y-64331505D01*
X138857309Y-64331506D01*
X138960019Y-64341999D01*
X139359999Y-64341999D01*
X139360000Y-64341998D01*
X139360000Y-63425012D01*
X139417007Y-63457925D01*
X139544174Y-63492000D01*
X139675826Y-63492000D01*
X139802993Y-63457925D01*
X139860000Y-63425012D01*
X139860000Y-64341999D01*
X140259972Y-64341999D01*
X140259986Y-64341998D01*
X140362697Y-64331505D01*
X140529119Y-64276358D01*
X140529124Y-64276356D01*
X140678345Y-64184315D01*
X140802315Y-64060345D01*
X140894355Y-63911124D01*
X140894849Y-63909636D01*
X140895464Y-63908746D01*
X140897408Y-63904579D01*
X140898119Y-63904910D01*
X140934616Y-63852187D01*
X140999129Y-63825357D01*
X141067906Y-63837666D01*
X141110313Y-63873568D01*
X141110630Y-63873299D01*
X141112288Y-63875240D01*
X141112870Y-63875733D01*
X141113668Y-63876830D01*
X141113794Y-63877004D01*
X141264996Y-64028206D01*
X141437991Y-64153894D01*
X141448794Y-64159398D01*
X141499590Y-64207371D01*
X141516500Y-64269883D01*
X141516500Y-67146833D01*
X141496815Y-67213872D01*
X141480181Y-67234514D01*
X135552081Y-73162614D01*
X135490758Y-73196099D01*
X135421066Y-73191115D01*
X135365133Y-73149243D01*
X135340716Y-73083779D01*
X135340400Y-73074933D01*
X135340400Y-72921969D01*
X135340399Y-72921965D01*
X135309330Y-72765769D01*
X135248383Y-72618632D01*
X135186297Y-72525712D01*
X135165420Y-72459034D01*
X135165400Y-72456822D01*
X135165400Y-67935405D01*
X135165399Y-67935401D01*
X135148438Y-67850131D01*
X135141055Y-67813015D01*
X135093300Y-67697725D01*
X135093299Y-67697724D01*
X135093296Y-67697718D01*
X135023972Y-67593968D01*
X135023971Y-67593967D01*
X134935733Y-67505729D01*
X132847265Y-65417261D01*
X130708324Y-63278319D01*
X129503036Y-62073031D01*
X129503032Y-62073028D01*
X129399281Y-62003703D01*
X129399272Y-62003698D01*
X129283985Y-61955945D01*
X129283977Y-61955943D01*
X129161598Y-61931600D01*
X129161594Y-61931600D01*
X122847294Y-61931600D01*
X122722506Y-61931600D01*
X122722501Y-61931600D01*
X122600122Y-61955943D01*
X122600114Y-61955945D01*
X122484827Y-62003698D01*
X122484818Y-62003703D01*
X122381067Y-62073028D01*
X122381063Y-62073031D01*
X122090131Y-62363963D01*
X122028808Y-62397448D01*
X121983052Y-62398755D01*
X121937245Y-62391500D01*
X121937241Y-62391500D01*
X121762759Y-62391500D01*
X121668097Y-62406493D01*
X121598803Y-62397537D01*
X121545352Y-62352540D01*
X121524713Y-62285788D01*
X121524700Y-62284019D01*
X121524700Y-59615359D01*
X123441500Y-59615359D01*
X123441500Y-59615369D01*
X123441500Y-59615371D01*
X123441500Y-59784627D01*
X123441500Y-59784629D01*
X123441501Y-59784640D01*
X123444333Y-59832199D01*
X123444334Y-59832203D01*
X123489330Y-60039048D01*
X123489335Y-60039063D01*
X123572664Y-60233657D01*
X123572666Y-60233661D01*
X123572668Y-60233664D01*
X123691326Y-60408981D01*
X123841019Y-60558674D01*
X124016336Y-60677332D01*
X124016340Y-60677333D01*
X124016342Y-60677335D01*
X124074303Y-60702155D01*
X124210942Y-60760667D01*
X124417801Y-60805667D01*
X124465359Y-60808500D01*
X126034640Y-60808499D01*
X126082199Y-60805667D01*
X126289058Y-60760667D01*
X126483664Y-60677332D01*
X126658981Y-60558674D01*
X126808674Y-60408981D01*
X126927332Y-60233664D01*
X127010667Y-60039058D01*
X127055667Y-59832199D01*
X127058500Y-59784641D01*
X127058499Y-59715359D01*
X130891500Y-59715359D01*
X130891500Y-59715369D01*
X130891500Y-59715371D01*
X130891500Y-61284627D01*
X130891500Y-61284629D01*
X130891501Y-61284640D01*
X130894333Y-61332199D01*
X130894334Y-61332203D01*
X130939330Y-61539048D01*
X130939335Y-61539063D01*
X131022664Y-61733657D01*
X131022666Y-61733661D01*
X131022668Y-61733664D01*
X131141326Y-61908981D01*
X131291019Y-62058674D01*
X131466336Y-62177332D01*
X131466340Y-62177333D01*
X131466342Y-62177335D01*
X131563639Y-62218999D01*
X131660942Y-62260667D01*
X131867801Y-62305667D01*
X131915359Y-62308500D01*
X132084640Y-62308499D01*
X132132199Y-62305667D01*
X132339058Y-62260667D01*
X132533664Y-62177332D01*
X132708981Y-62058674D01*
X132858674Y-61908981D01*
X132977332Y-61733664D01*
X133060667Y-61539058D01*
X133105667Y-61332199D01*
X133108500Y-61284641D01*
X133108499Y-59715360D01*
X133105667Y-59667801D01*
X133060667Y-59460942D01*
X132990624Y-59297375D01*
X132977335Y-59266342D01*
X132977333Y-59266340D01*
X132977332Y-59266336D01*
X132858674Y-59091019D01*
X132708981Y-58941326D01*
X132533664Y-58822668D01*
X132533661Y-58822666D01*
X132533657Y-58822664D01*
X132339063Y-58739335D01*
X132339061Y-58739334D01*
X132339058Y-58739333D01*
X132339053Y-58739331D01*
X132339047Y-58739330D01*
X132132204Y-58694334D01*
X132132203Y-58694333D01*
X132132199Y-58694333D01*
X132084641Y-58691500D01*
X132084628Y-58691500D01*
X131915372Y-58691500D01*
X131915369Y-58691500D01*
X131915360Y-58691501D01*
X131867801Y-58694333D01*
X131867796Y-58694333D01*
X131867796Y-58694334D01*
X131660951Y-58739330D01*
X131660936Y-58739335D01*
X131466342Y-58822664D01*
X131291021Y-58941324D01*
X131291016Y-58941328D01*
X131141328Y-59091016D01*
X131141324Y-59091021D01*
X131022664Y-59266342D01*
X130939335Y-59460936D01*
X130939330Y-59460952D01*
X130905738Y-59615372D01*
X130894333Y-59667801D01*
X130891500Y-59715359D01*
X127058499Y-59715359D01*
X127058499Y-59690282D01*
X127058499Y-59615372D01*
X127058499Y-59615371D01*
X127058499Y-59615360D01*
X127055667Y-59567801D01*
X127010667Y-59360942D01*
X126938762Y-59193027D01*
X126927335Y-59166342D01*
X126927333Y-59166340D01*
X126927332Y-59166336D01*
X126808674Y-58991019D01*
X126658981Y-58841326D01*
X126483664Y-58722668D01*
X126483661Y-58722666D01*
X126483657Y-58722664D01*
X126289063Y-58639335D01*
X126289061Y-58639334D01*
X126289058Y-58639333D01*
X126289053Y-58639331D01*
X126289047Y-58639330D01*
X126082204Y-58594334D01*
X126082203Y-58594333D01*
X126082199Y-58594333D01*
X126034641Y-58591500D01*
X126034628Y-58591500D01*
X124465372Y-58591500D01*
X124465369Y-58591500D01*
X124465360Y-58591501D01*
X124417801Y-58594333D01*
X124417796Y-58594333D01*
X124417796Y-58594334D01*
X124210951Y-58639330D01*
X124210936Y-58639335D01*
X124016342Y-58722664D01*
X123841021Y-58841324D01*
X123841016Y-58841328D01*
X123691328Y-58991016D01*
X123691324Y-58991021D01*
X123572664Y-59166342D01*
X123489335Y-59360936D01*
X123489330Y-59360952D01*
X123444508Y-59566996D01*
X123444333Y-59567801D01*
X123441500Y-59615359D01*
X121524700Y-59615359D01*
X121524700Y-58190066D01*
X121544385Y-58123027D01*
X121561019Y-58102385D01*
X122146368Y-57517036D01*
X122146371Y-57517033D01*
X122215700Y-57413275D01*
X122263455Y-57297985D01*
X122263455Y-57297984D01*
X122265786Y-57292357D01*
X122267145Y-57292920D01*
X122280115Y-57268654D01*
X122278918Y-57267855D01*
X122282303Y-57262789D01*
X122370783Y-57130368D01*
X122431730Y-56983231D01*
X122462800Y-56827030D01*
X122462800Y-56667770D01*
X122431730Y-56511569D01*
X122370783Y-56364432D01*
X122282303Y-56232011D01*
X122282298Y-56232005D01*
X122169694Y-56119401D01*
X122169687Y-56119395D01*
X122037269Y-56030917D01*
X121890131Y-55969970D01*
X121890123Y-55969968D01*
X121733934Y-55938900D01*
X121733930Y-55938900D01*
X121574670Y-55938900D01*
X121574665Y-55938900D01*
X121418476Y-55969968D01*
X121418468Y-55969970D01*
X121271330Y-56030917D01*
X121138912Y-56119395D01*
X121138905Y-56119401D01*
X121026301Y-56232005D01*
X121026295Y-56232012D01*
X120937817Y-56364430D01*
X120876870Y-56511568D01*
X120876868Y-56511576D01*
X120845800Y-56667765D01*
X120845800Y-56827034D01*
X120865846Y-56927812D01*
X120859619Y-56997404D01*
X120831910Y-57039684D01*
X120487367Y-57384229D01*
X120458328Y-57413268D01*
X120399127Y-57472468D01*
X120329803Y-57576218D01*
X120329798Y-57576227D01*
X120282045Y-57691514D01*
X120282043Y-57691522D01*
X120257700Y-57813901D01*
X120257700Y-74514477D01*
X120238015Y-74581516D01*
X120185211Y-74627271D01*
X120116053Y-74637215D01*
X120109509Y-74636094D01*
X119979834Y-74610300D01*
X119979830Y-74610300D01*
X119820570Y-74610300D01*
X119820565Y-74610300D01*
X119664376Y-74641368D01*
X119664368Y-74641370D01*
X119517230Y-74702317D01*
X119384812Y-74790795D01*
X119384805Y-74790801D01*
X119272201Y-74903405D01*
X119272195Y-74903412D01*
X119183717Y-75035830D01*
X119122770Y-75182968D01*
X119122768Y-75182974D01*
X119100968Y-75292572D01*
X119068583Y-75354482D01*
X119067032Y-75356061D01*
X118094081Y-76329013D01*
X118032758Y-76362498D01*
X117963067Y-76357514D01*
X117907133Y-76315642D01*
X117882716Y-76250178D01*
X117882400Y-76241332D01*
X117882400Y-75435166D01*
X117902085Y-75368127D01*
X117918719Y-75347485D01*
X118332030Y-74934174D01*
X118769937Y-74496266D01*
X118831258Y-74462783D01*
X118833425Y-74462332D01*
X118891198Y-74450839D01*
X118943031Y-74440530D01*
X119090168Y-74379583D01*
X119222589Y-74291103D01*
X119335203Y-74178489D01*
X119423683Y-74046068D01*
X119484630Y-73898931D01*
X119515700Y-73742730D01*
X119515700Y-73583470D01*
X119484630Y-73427269D01*
X119423683Y-73280132D01*
X119395151Y-73237431D01*
X119335204Y-73147712D01*
X119335198Y-73147705D01*
X119222594Y-73035101D01*
X119222587Y-73035095D01*
X119090169Y-72946617D01*
X118943031Y-72885670D01*
X118943023Y-72885668D01*
X118786834Y-72854600D01*
X118786830Y-72854600D01*
X118627570Y-72854600D01*
X118627565Y-72854600D01*
X118471376Y-72885668D01*
X118471368Y-72885670D01*
X118324230Y-72946617D01*
X118191812Y-73035095D01*
X118191805Y-73035101D01*
X118079201Y-73147705D01*
X118079195Y-73147712D01*
X117990717Y-73280130D01*
X117929770Y-73427268D01*
X117929768Y-73427274D01*
X117907968Y-73536872D01*
X117875583Y-73598782D01*
X117874032Y-73600361D01*
X117355781Y-74118613D01*
X117294458Y-74152098D01*
X117224767Y-74147114D01*
X117168833Y-74105243D01*
X117144416Y-74039778D01*
X117144100Y-74030932D01*
X117144100Y-61298381D01*
X117163785Y-61231342D01*
X117216589Y-61185587D01*
X117285747Y-61175643D01*
X117349303Y-61204668D01*
X117387077Y-61263446D01*
X117391879Y-61291004D01*
X117394333Y-61332199D01*
X117394334Y-61332203D01*
X117439330Y-61539048D01*
X117439335Y-61539063D01*
X117522664Y-61733657D01*
X117522666Y-61733661D01*
X117522668Y-61733664D01*
X117641326Y-61908981D01*
X117791019Y-62058674D01*
X117966336Y-62177332D01*
X117966340Y-62177333D01*
X117966342Y-62177335D01*
X118063639Y-62218999D01*
X118160942Y-62260667D01*
X118367801Y-62305667D01*
X118415359Y-62308500D01*
X118584640Y-62308499D01*
X118632199Y-62305667D01*
X118839058Y-62260667D01*
X119033664Y-62177332D01*
X119208981Y-62058674D01*
X119358674Y-61908981D01*
X119477332Y-61733664D01*
X119560667Y-61539058D01*
X119605667Y-61332199D01*
X119608500Y-61284641D01*
X119608499Y-59715360D01*
X119605667Y-59667801D01*
X119560667Y-59460942D01*
X119490624Y-59297375D01*
X119477335Y-59266342D01*
X119477333Y-59266340D01*
X119477332Y-59266336D01*
X119358674Y-59091019D01*
X119208981Y-58941326D01*
X119033664Y-58822668D01*
X119033661Y-58822666D01*
X119033657Y-58822664D01*
X118839063Y-58739335D01*
X118839061Y-58739334D01*
X118839058Y-58739333D01*
X118839053Y-58739331D01*
X118839047Y-58739330D01*
X118632204Y-58694334D01*
X118632203Y-58694333D01*
X118632199Y-58694333D01*
X118584641Y-58691500D01*
X118584628Y-58691500D01*
X118415372Y-58691500D01*
X118415369Y-58691500D01*
X118415360Y-58691501D01*
X118367801Y-58694333D01*
X118367796Y-58694333D01*
X118367796Y-58694334D01*
X118160951Y-58739330D01*
X118160936Y-58739335D01*
X117966342Y-58822664D01*
X117791021Y-58941324D01*
X117791016Y-58941328D01*
X117641328Y-59091016D01*
X117641324Y-59091021D01*
X117522664Y-59266342D01*
X117439335Y-59460936D01*
X117439330Y-59460952D01*
X117405738Y-59615372D01*
X117394333Y-59667801D01*
X117391880Y-59708977D01*
X117368244Y-59774725D01*
X117312813Y-59817259D01*
X117243186Y-59823072D01*
X117181468Y-59790319D01*
X117147256Y-59729399D01*
X117144100Y-59701601D01*
X117144100Y-58487305D01*
X117144099Y-58487301D01*
X117119755Y-58364915D01*
X117072000Y-58249625D01*
X117071999Y-58249624D01*
X117071996Y-58249618D01*
X117002672Y-58145868D01*
X116959189Y-58102385D01*
X116914433Y-58057629D01*
X116593268Y-57736464D01*
X116559783Y-57675141D01*
X116559332Y-57672974D01*
X116544371Y-57597766D01*
X116537530Y-57563369D01*
X116476583Y-57416232D01*
X116474611Y-57413281D01*
X116388104Y-57283812D01*
X116388098Y-57283805D01*
X116275494Y-57171201D01*
X116275487Y-57171195D01*
X116143069Y-57082717D01*
X115995931Y-57021770D01*
X115995923Y-57021768D01*
X115839734Y-56990700D01*
X115839730Y-56990700D01*
X115680470Y-56990700D01*
X115680465Y-56990700D01*
X115524276Y-57021768D01*
X115524268Y-57021770D01*
X115377130Y-57082717D01*
X115244712Y-57171195D01*
X115244705Y-57171201D01*
X115132101Y-57283805D01*
X115132095Y-57283812D01*
X115043617Y-57416230D01*
X114982670Y-57563368D01*
X114982668Y-57563374D01*
X114972256Y-57615720D01*
X114939871Y-57677631D01*
X114898092Y-57706089D01*
X114810630Y-57742317D01*
X114678212Y-57830795D01*
X114678205Y-57830801D01*
X114565601Y-57943405D01*
X114565595Y-57943412D01*
X114477117Y-58075830D01*
X114416170Y-58222968D01*
X114416168Y-58222976D01*
X114393971Y-58334569D01*
X114361586Y-58396480D01*
X114360035Y-58398059D01*
X105813700Y-66944396D01*
X102988967Y-69769129D01*
X102944847Y-69813249D01*
X102900727Y-69857368D01*
X102831403Y-69961118D01*
X102831398Y-69961127D01*
X102783645Y-70076414D01*
X102783643Y-70076422D01*
X102759300Y-70198801D01*
X102759300Y-81581248D01*
X102739615Y-81648287D01*
X102686811Y-81694042D01*
X102659492Y-81702865D01*
X102530274Y-81728568D01*
X102530268Y-81728570D01*
X102383130Y-81789517D01*
X102250712Y-81877995D01*
X102250705Y-81878001D01*
X102138101Y-81990605D01*
X102138095Y-81990612D01*
X102049617Y-82123030D01*
X101988670Y-82270168D01*
X101988668Y-82270174D01*
X101966868Y-82379772D01*
X101934483Y-82441682D01*
X101932932Y-82443261D01*
X98872481Y-85503713D01*
X98811158Y-85537198D01*
X98741466Y-85532214D01*
X98685533Y-85490342D01*
X98661116Y-85424878D01*
X98660800Y-85416032D01*
X98660800Y-65318077D01*
X98680485Y-65251038D01*
X98681697Y-65249187D01*
X98743784Y-65156266D01*
X98769410Y-65094399D01*
X98804730Y-65009131D01*
X98835800Y-64852930D01*
X98835800Y-64693670D01*
X98804730Y-64537469D01*
X98743783Y-64390332D01*
X98735866Y-64378484D01*
X98655304Y-64257912D01*
X98655298Y-64257905D01*
X98542694Y-64145301D01*
X98542687Y-64145295D01*
X98410269Y-64056817D01*
X98263131Y-63995870D01*
X98263123Y-63995868D01*
X98106934Y-63964800D01*
X98106930Y-63964800D01*
X97947670Y-63964800D01*
X97947665Y-63964800D01*
X97791476Y-63995868D01*
X97791468Y-63995870D01*
X97644330Y-64056817D01*
X97511912Y-64145295D01*
X97511905Y-64145301D01*
X97399301Y-64257905D01*
X97399295Y-64257912D01*
X97310817Y-64390330D01*
X97249870Y-64537468D01*
X97249868Y-64537476D01*
X97218800Y-64693665D01*
X97218800Y-64852934D01*
X97249868Y-65009123D01*
X97249870Y-65009131D01*
X97310815Y-65156266D01*
X97372903Y-65249187D01*
X97393780Y-65315864D01*
X97393800Y-65318077D01*
X97393800Y-96449833D01*
X97374115Y-96516872D01*
X97357481Y-96537514D01*
X95706762Y-98188232D01*
X95645439Y-98221717D01*
X95643272Y-98222168D01*
X95533676Y-98243968D01*
X95533668Y-98243970D01*
X95386530Y-98304917D01*
X95254112Y-98393395D01*
X95254105Y-98393401D01*
X95141501Y-98506005D01*
X95141495Y-98506012D01*
X95053017Y-98638430D01*
X94992070Y-98785568D01*
X94992068Y-98785574D01*
X94970268Y-98895172D01*
X94937883Y-98957082D01*
X94936332Y-98958661D01*
X90857692Y-103037304D01*
X90066667Y-103828329D01*
X90022547Y-103872449D01*
X89978427Y-103916568D01*
X89909103Y-104020318D01*
X89909098Y-104020327D01*
X89861345Y-104135614D01*
X89861343Y-104135622D01*
X89837000Y-104258001D01*
X89837000Y-132700835D01*
X89817315Y-132767874D01*
X89764511Y-132813629D01*
X89695353Y-132823573D01*
X89674683Y-132818766D01*
X89596124Y-132793241D01*
X89530000Y-132782768D01*
X89530000Y-133676988D01*
X89472993Y-133644075D01*
X89345826Y-133610000D01*
X89214174Y-133610000D01*
X89087007Y-133644075D01*
X89030000Y-133676988D01*
X89030000Y-132782768D01*
X89029999Y-132782768D01*
X88963875Y-132793241D01*
X88761783Y-132858903D01*
X88761779Y-132858905D01*
X88730494Y-132874846D01*
X88661825Y-132887742D01*
X88597084Y-132861465D01*
X88556828Y-132804358D01*
X88550200Y-132764361D01*
X88550200Y-101753805D01*
X88550199Y-101753801D01*
X88546363Y-101734515D01*
X88525855Y-101631415D01*
X88478100Y-101516125D01*
X88478099Y-101516124D01*
X88478096Y-101516118D01*
X88408772Y-101412368D01*
X88384670Y-101388266D01*
X88320533Y-101324129D01*
X87122268Y-100125864D01*
X87088783Y-100064541D01*
X87088332Y-100062374D01*
X87072241Y-99981481D01*
X87066530Y-99952769D01*
X87005583Y-99805632D01*
X87001037Y-99798829D01*
X86917104Y-99673212D01*
X86917098Y-99673205D01*
X86804494Y-99560601D01*
X86804487Y-99560595D01*
X86672069Y-99472117D01*
X86524931Y-99411170D01*
X86524923Y-99411168D01*
X86368734Y-99380100D01*
X86368730Y-99380100D01*
X86209470Y-99380100D01*
X86209465Y-99380100D01*
X86053276Y-99411168D01*
X86053268Y-99411170D01*
X85906130Y-99472117D01*
X85773712Y-99560595D01*
X85773705Y-99560601D01*
X85661101Y-99673205D01*
X85661095Y-99673212D01*
X85572617Y-99805630D01*
X85511670Y-99952768D01*
X85511668Y-99952776D01*
X85480600Y-100108965D01*
X85480600Y-100268234D01*
X85511668Y-100424423D01*
X85511670Y-100424431D01*
X85572617Y-100571569D01*
X85661095Y-100703987D01*
X85661101Y-100703994D01*
X85773705Y-100816598D01*
X85773712Y-100816604D01*
X85906130Y-100905082D01*
X85906131Y-100905082D01*
X85906132Y-100905083D01*
X86053269Y-100966030D01*
X86087666Y-100972871D01*
X86162874Y-100987832D01*
X86224785Y-101020216D01*
X86226364Y-101021768D01*
X87246881Y-102042285D01*
X87280366Y-102103608D01*
X87283200Y-102129966D01*
X87283200Y-132687413D01*
X87263515Y-132754452D01*
X87210711Y-132800207D01*
X87141553Y-132810151D01*
X87120883Y-132805344D01*
X87058118Y-132784951D01*
X87058119Y-132784951D01*
X86899716Y-132759862D01*
X86846916Y-132751500D01*
X86633084Y-132751500D01*
X86562684Y-132762650D01*
X86421882Y-132784951D01*
X86218519Y-132851026D01*
X86218516Y-132851027D01*
X86027990Y-132948106D01*
X85854993Y-133073796D01*
X85703796Y-133224993D01*
X85578105Y-133397991D01*
X85575727Y-133401873D01*
X85523914Y-133448748D01*
X85454984Y-133460169D01*
X85390822Y-133432512D01*
X85364273Y-133401873D01*
X85361894Y-133397991D01*
X85236206Y-133224996D01*
X85085004Y-133073794D01*
X84912009Y-132948106D01*
X84836500Y-132909632D01*
X84721483Y-132851027D01*
X84721480Y-132851026D01*
X84518117Y-132784951D01*
X84410297Y-132767874D01*
X84306916Y-132751500D01*
X84093084Y-132751500D01*
X84022684Y-132762650D01*
X83881882Y-132784951D01*
X83678519Y-132851026D01*
X83678516Y-132851027D01*
X83487990Y-132948106D01*
X83314993Y-133073796D01*
X83163796Y-133224993D01*
X83038105Y-133397991D01*
X83035727Y-133401873D01*
X82983914Y-133448748D01*
X82914984Y-133460169D01*
X82850822Y-133432512D01*
X82824273Y-133401873D01*
X82821894Y-133397991D01*
X82696206Y-133224996D01*
X82545004Y-133073794D01*
X82372009Y-132948106D01*
X82296500Y-132909632D01*
X82181483Y-132851027D01*
X82181480Y-132851026D01*
X81978117Y-132784951D01*
X81870297Y-132767874D01*
X81766916Y-132751500D01*
X81553084Y-132751500D01*
X81482684Y-132762650D01*
X81341882Y-132784951D01*
X81138519Y-132851026D01*
X81138516Y-132851027D01*
X80947990Y-132948106D01*
X80774997Y-133073793D01*
X80669818Y-133178972D01*
X80608495Y-133212456D01*
X80538803Y-133207472D01*
X80482870Y-133165600D01*
X80465958Y-133134629D01*
X80420889Y-133013796D01*
X80333261Y-132896739D01*
X80216204Y-132809111D01*
X80079203Y-132758011D01*
X80018654Y-132751500D01*
X80018638Y-132751500D01*
X78221362Y-132751500D01*
X78221345Y-132751500D01*
X78160797Y-132758011D01*
X78160795Y-132758011D01*
X78023795Y-132809111D01*
X77906739Y-132896739D01*
X77819111Y-133013795D01*
X77768011Y-133150795D01*
X77768011Y-133150797D01*
X77761500Y-133211345D01*
X77761500Y-134626563D01*
X77741815Y-134693602D01*
X77689011Y-134739357D01*
X77619853Y-134749301D01*
X77556297Y-134720276D01*
X77549819Y-134714244D01*
X76644819Y-133809244D01*
X76611334Y-133747921D01*
X76608500Y-133721563D01*
X76608500Y-95510516D01*
X76628185Y-95443477D01*
X76644814Y-95422840D01*
X89215070Y-82852583D01*
X89215077Y-82852578D01*
X89222137Y-82845518D01*
X89222139Y-82845517D01*
X89345517Y-82722139D01*
X89448074Y-82580981D01*
X89527288Y-82425516D01*
X89581205Y-82259574D01*
X89608500Y-82087241D01*
X89608500Y-78266324D01*
X89628185Y-78199285D01*
X89658195Y-78167053D01*
X89663261Y-78163261D01*
X89750889Y-78046204D01*
X89764642Y-78009332D01*
X89772270Y-77988881D01*
X89772270Y-77988880D01*
X89801988Y-77909204D01*
X89801988Y-77909203D01*
X89801989Y-77909201D01*
X89805591Y-77875692D01*
X89808499Y-77848654D01*
X89808500Y-77848637D01*
X89808500Y-76897682D01*
X90700000Y-76897682D01*
X90700000Y-77102317D01*
X90732009Y-77304417D01*
X90795244Y-77499031D01*
X90888141Y-77681350D01*
X90888147Y-77681359D01*
X90920523Y-77725921D01*
X90920524Y-77725922D01*
X91600000Y-77046446D01*
X91600000Y-77052661D01*
X91627259Y-77154394D01*
X91679920Y-77245606D01*
X91754394Y-77320080D01*
X91845606Y-77372741D01*
X91947339Y-77400000D01*
X91953553Y-77400000D01*
X91274076Y-78079474D01*
X91318650Y-78111859D01*
X91500968Y-78204755D01*
X91695582Y-78267990D01*
X91897683Y-78300000D01*
X92102317Y-78300000D01*
X92304417Y-78267990D01*
X92499031Y-78204755D01*
X92681349Y-78111859D01*
X92725921Y-78079474D01*
X92046447Y-77400000D01*
X92052661Y-77400000D01*
X92154394Y-77372741D01*
X92245606Y-77320080D01*
X92320080Y-77245606D01*
X92372741Y-77154394D01*
X92400000Y-77052661D01*
X92400000Y-77046447D01*
X93079474Y-77725921D01*
X93111859Y-77681349D01*
X93204755Y-77499031D01*
X93267990Y-77304417D01*
X93300000Y-77102317D01*
X93300000Y-76897682D01*
X93267990Y-76695582D01*
X93204755Y-76500968D01*
X93111859Y-76318650D01*
X93079474Y-76274077D01*
X93079474Y-76274076D01*
X92400000Y-76953551D01*
X92400000Y-76947339D01*
X92372741Y-76845606D01*
X92320080Y-76754394D01*
X92245606Y-76679920D01*
X92154394Y-76627259D01*
X92052661Y-76600000D01*
X92046446Y-76600000D01*
X92725922Y-75920524D01*
X92725921Y-75920523D01*
X92681359Y-75888147D01*
X92681350Y-75888141D01*
X92499031Y-75795244D01*
X92304417Y-75732009D01*
X92102317Y-75700000D01*
X91897683Y-75700000D01*
X91695582Y-75732009D01*
X91500968Y-75795244D01*
X91318644Y-75888143D01*
X91274077Y-75920523D01*
X91274077Y-75920524D01*
X91953554Y-76600000D01*
X91947339Y-76600000D01*
X91845606Y-76627259D01*
X91754394Y-76679920D01*
X91679920Y-76754394D01*
X91627259Y-76845606D01*
X91600000Y-76947339D01*
X91600000Y-76953553D01*
X90920524Y-76274077D01*
X90920523Y-76274077D01*
X90888143Y-76318644D01*
X90795244Y-76500968D01*
X90732009Y-76695582D01*
X90700000Y-76897682D01*
X89808500Y-76897682D01*
X89808500Y-76151362D01*
X89808499Y-76151345D01*
X89805157Y-76120270D01*
X89801989Y-76090799D01*
X89750889Y-75953796D01*
X89663261Y-75836739D01*
X89658185Y-75832939D01*
X89616316Y-75777003D01*
X89608500Y-75733675D01*
X89608500Y-72662216D01*
X89628185Y-72595177D01*
X89644814Y-72574539D01*
X90715070Y-71504283D01*
X90715077Y-71504278D01*
X90722137Y-71497218D01*
X90722139Y-71497217D01*
X90845517Y-71373839D01*
X90948074Y-71232681D01*
X91027288Y-71077216D01*
X91081205Y-70911274D01*
X91088835Y-70863102D01*
X91118764Y-70799967D01*
X91178076Y-70763036D01*
X91211308Y-70758500D01*
X91798638Y-70758500D01*
X91798654Y-70758499D01*
X91825692Y-70755591D01*
X91859201Y-70751989D01*
X91996204Y-70700889D01*
X92113261Y-70613261D01*
X92200889Y-70496204D01*
X92251989Y-70359201D01*
X92255591Y-70325692D01*
X92258499Y-70298654D01*
X92258500Y-70298637D01*
X92258500Y-66701362D01*
X92258499Y-66701345D01*
X92252444Y-66645034D01*
X92251989Y-66640799D01*
X92200889Y-66503796D01*
X92113261Y-66386739D01*
X91996204Y-66299111D01*
X91859203Y-66248011D01*
X91798654Y-66241500D01*
X91798638Y-66241500D01*
X88201362Y-66241500D01*
X88201345Y-66241500D01*
X88140797Y-66248011D01*
X88140795Y-66248011D01*
X88003795Y-66299111D01*
X87886739Y-66386739D01*
X87799111Y-66503795D01*
X87790181Y-66527738D01*
X87748309Y-66583671D01*
X87682845Y-66608087D01*
X87614572Y-66593235D01*
X87565167Y-66543829D01*
X87550000Y-66484403D01*
X87550000Y-65750000D01*
X85800000Y-65750000D01*
X85800000Y-65250000D01*
X87550000Y-65250000D01*
X87550000Y-64491278D01*
X87569685Y-64424239D01*
X87622489Y-64378484D01*
X87691647Y-64368540D01*
X87755203Y-64397565D01*
X87790182Y-64447945D01*
X87806645Y-64492086D01*
X87806649Y-64492093D01*
X87892809Y-64607187D01*
X87892812Y-64607190D01*
X88007906Y-64693350D01*
X88007913Y-64693354D01*
X88142620Y-64743596D01*
X88142627Y-64743598D01*
X88202155Y-64749999D01*
X88202172Y-64750000D01*
X89750000Y-64750000D01*
X89750000Y-63000000D01*
X90250000Y-63000000D01*
X90250000Y-64750000D01*
X91797828Y-64750000D01*
X91797844Y-64749999D01*
X91857372Y-64743598D01*
X91857379Y-64743596D01*
X91992086Y-64693354D01*
X91992093Y-64693350D01*
X92107187Y-64607190D01*
X92107190Y-64607187D01*
X92193350Y-64492093D01*
X92193354Y-64492086D01*
X92243596Y-64357379D01*
X92243598Y-64357372D01*
X92249999Y-64297844D01*
X92250000Y-64297827D01*
X92250000Y-62750000D01*
X91433012Y-62750000D01*
X91465925Y-62692993D01*
X91500000Y-62565826D01*
X91500000Y-62434174D01*
X91465925Y-62307007D01*
X91433012Y-62250000D01*
X92250000Y-62250000D01*
X92250000Y-60702172D01*
X92249999Y-60702155D01*
X92243598Y-60642627D01*
X92243596Y-60642620D01*
X92193354Y-60507913D01*
X92193350Y-60507906D01*
X92107190Y-60392812D01*
X92107187Y-60392809D01*
X91992093Y-60306649D01*
X91992086Y-60306645D01*
X91857379Y-60256403D01*
X91857372Y-60256401D01*
X91797844Y-60250000D01*
X90250000Y-60250000D01*
X90250000Y-62000000D01*
X89750000Y-62000000D01*
X89750000Y-60250000D01*
X88202155Y-60250000D01*
X88142627Y-60256401D01*
X88142620Y-60256403D01*
X88007913Y-60306645D01*
X88007906Y-60306649D01*
X87892812Y-60392809D01*
X87892809Y-60392812D01*
X87806649Y-60507906D01*
X87806645Y-60507913D01*
X87756403Y-60642620D01*
X87756401Y-60642627D01*
X87750000Y-60702155D01*
X87750000Y-62250000D01*
X88566988Y-62250000D01*
X88534075Y-62307007D01*
X88500000Y-62434174D01*
X88500000Y-62565826D01*
X88534075Y-62692993D01*
X88566988Y-62750000D01*
X87750000Y-62750000D01*
X87750000Y-63508721D01*
X87730315Y-63575760D01*
X87677511Y-63621515D01*
X87608353Y-63631459D01*
X87544797Y-63602434D01*
X87509818Y-63552055D01*
X87493353Y-63507911D01*
X87493350Y-63507906D01*
X87407190Y-63392812D01*
X87407187Y-63392809D01*
X87292093Y-63306649D01*
X87292086Y-63306645D01*
X87157379Y-63256403D01*
X87157372Y-63256401D01*
X87097844Y-63250000D01*
X85550000Y-63250000D01*
X85550000Y-64066988D01*
X85492993Y-64034075D01*
X85365826Y-64000000D01*
X85234174Y-64000000D01*
X85107007Y-64034075D01*
X85050000Y-64066988D01*
X85050000Y-63250000D01*
X83502155Y-63250000D01*
X83442627Y-63256401D01*
X83442620Y-63256403D01*
X83307913Y-63306645D01*
X83307906Y-63306649D01*
X83192812Y-63392809D01*
X83192809Y-63392812D01*
X83106649Y-63507906D01*
X83106645Y-63507913D01*
X83056403Y-63642620D01*
X83056401Y-63642627D01*
X83050000Y-63702155D01*
X83050000Y-65250000D01*
X84800000Y-65250000D01*
X84800000Y-65750000D01*
X83050000Y-65750000D01*
X83050000Y-67297844D01*
X83056401Y-67357372D01*
X83056403Y-67357379D01*
X83106645Y-67492086D01*
X83106649Y-67492093D01*
X83192809Y-67607187D01*
X83192812Y-67607190D01*
X83307906Y-67693350D01*
X83307913Y-67693354D01*
X83442620Y-67743596D01*
X83442627Y-67743598D01*
X83502155Y-67749999D01*
X83502172Y-67750000D01*
X85050000Y-67750000D01*
X85050000Y-66933012D01*
X85107007Y-66965925D01*
X85234174Y-67000000D01*
X85365826Y-67000000D01*
X85492993Y-66965925D01*
X85550000Y-66933012D01*
X85550000Y-67750000D01*
X87097828Y-67750000D01*
X87097844Y-67749999D01*
X87157372Y-67743598D01*
X87157379Y-67743596D01*
X87292086Y-67693354D01*
X87292093Y-67693350D01*
X87407187Y-67607190D01*
X87407190Y-67607187D01*
X87493350Y-67492093D01*
X87493355Y-67492084D01*
X87501318Y-67470735D01*
X87543188Y-67414801D01*
X87608652Y-67390383D01*
X87676925Y-67405234D01*
X87726331Y-67454639D01*
X87741500Y-67514067D01*
X87741500Y-70298654D01*
X87748011Y-70359202D01*
X87748011Y-70359204D01*
X87795784Y-70487285D01*
X87799111Y-70496204D01*
X87886739Y-70613261D01*
X88003796Y-70700889D01*
X88099319Y-70736517D01*
X88155250Y-70778388D01*
X88179667Y-70843852D01*
X88164815Y-70912125D01*
X88143664Y-70940379D01*
X87654481Y-71429562D01*
X87654477Y-71429567D01*
X87551926Y-71570717D01*
X87472713Y-71726177D01*
X87472709Y-71726188D01*
X87418795Y-71892122D01*
X87391500Y-72064459D01*
X87391500Y-75733675D01*
X87371815Y-75800714D01*
X87341815Y-75832939D01*
X87336740Y-75836738D01*
X87249111Y-75953795D01*
X87198011Y-76090795D01*
X87198011Y-76090797D01*
X87191500Y-76151345D01*
X87191500Y-77848654D01*
X87198011Y-77909202D01*
X87198011Y-77909204D01*
X87235358Y-78009332D01*
X87249111Y-78046204D01*
X87336739Y-78163261D01*
X87341805Y-78167053D01*
X87383679Y-78222984D01*
X87391500Y-78266324D01*
X87391500Y-81489482D01*
X87371815Y-81556521D01*
X87355181Y-81577163D01*
X74654481Y-94277862D01*
X74654477Y-94277867D01*
X74551928Y-94419015D01*
X74472707Y-94574492D01*
X74439283Y-94677368D01*
X74439283Y-94677369D01*
X74418795Y-94740424D01*
X74391500Y-94912759D01*
X70255500Y-94912759D01*
X70255500Y-89733916D01*
X71000000Y-89733916D01*
X77500000Y-89733916D01*
X77500000Y-83233916D01*
X71000000Y-83233916D01*
X71000000Y-89733916D01*
X70255500Y-89733916D01*
X70255500Y-61124000D01*
X70275185Y-61056961D01*
X70327989Y-61011206D01*
X70379500Y-61000000D01*
X76500000Y-61000000D01*
X76500000Y-54809500D01*
X76519685Y-54742461D01*
X76572489Y-54696706D01*
X76624000Y-54685500D01*
X163876000Y-54685500D01*
X163943039Y-54705185D01*
G37*
%TD.AperFunction*%
%TD*%
M02*
