%TF.GenerationSoftware,KiCad,Pcbnew,9.0.7*%
%TF.CreationDate,2026-02-09T23:32:56+01:00*%
%TF.ProjectId,Pi1551-III Module-rotated,50693135-3531-42d4-9949-49204d6f6475,1*%
%TF.SameCoordinates,Original*%
%TF.FileFunction,Soldermask,Bot*%
%TF.FilePolarity,Negative*%
%FSLAX46Y46*%
G04 Gerber Fmt 4.6, Leading zero omitted, Abs format (unit mm)*
G04 Created by KiCad (PCBNEW 9.0.7) date 2026-02-09 23:32:56*
%MOMM*%
%LPD*%
G01*
G04 APERTURE LIST*
G04 Aperture macros list*
%AMRoundRect*
0 Rectangle with rounded corners*
0 $1 Rounding radius*
0 $2 $3 $4 $5 $6 $7 $8 $9 X,Y pos of 4 corners*
0 Add a 4 corners polygon primitive as box body*
4,1,4,$2,$3,$4,$5,$6,$7,$8,$9,$2,$3,0*
0 Add four circle primitives for the rounded corners*
1,1,$1+$1,$2,$3*
1,1,$1+$1,$4,$5*
1,1,$1+$1,$6,$7*
1,1,$1+$1,$8,$9*
0 Add four rect primitives between the rounded corners*
20,1,$1+$1,$2,$3,$4,$5,0*
20,1,$1+$1,$4,$5,$6,$7,0*
20,1,$1+$1,$6,$7,$8,$9,0*
20,1,$1+$1,$8,$9,$2,$3,0*%
G04 Aperture macros list end*
%ADD10C,5.100000*%
%ADD11R,1.600000X1.600000*%
%ADD12C,1.600000*%
%ADD13R,3.500000X3.500000*%
%ADD14R,1.700000X1.700000*%
%ADD15O,1.700000X1.700000*%
%ADD16R,3.000000X2.000000*%
%ADD17R,2.000000X2.000000*%
%ADD18C,2.000000*%
%ADD19O,3.000000X2.000000*%
%ADD20RoundRect,0.250000X0.600000X-0.600000X0.600000X0.600000X-0.600000X0.600000X-0.600000X-0.600000X0*%
%ADD21C,1.700000*%
%ADD22C,1.200000*%
%ADD23RoundRect,0.600000X0.000010X-0.700000X0.000010X0.700000X-0.000010X0.700000X-0.000010X-0.700000X0*%
%ADD24RoundRect,0.600000X-0.700000X-0.000010X0.700000X-0.000010X0.700000X0.000010X-0.700000X0.000010X0*%
G04 APERTURE END LIST*
D10*
%TO.C,M1*%
X73355000Y-151435000D03*
%TD*%
D11*
%TO.C,C6*%
X88500000Y-77000000D03*
D12*
X92000000Y-77000000D03*
%TD*%
D13*
%TO.C,J1*%
X90000000Y-68500000D03*
X90000000Y-62500000D03*
X85300000Y-65500000D03*
%TD*%
D14*
%TO.C,J8*%
X112560000Y-140970000D03*
D15*
X115100000Y-140970000D03*
X117640000Y-140970000D03*
X120180000Y-140970000D03*
X122720000Y-140970000D03*
X125260000Y-140970000D03*
X127800000Y-140970000D03*
X130340000Y-140970000D03*
X132880000Y-140970000D03*
X135420000Y-140970000D03*
X137960000Y-140970000D03*
X140500000Y-140970000D03*
%TD*%
D10*
%TO.C,M2*%
X167005000Y-151435000D03*
%TD*%
%TO.C,M3*%
X167005000Y-57785000D03*
%TD*%
%TO.C,M4*%
X73355000Y-57785000D03*
%TD*%
D16*
%TO.C,BZ1*%
X159210000Y-75000000D03*
D17*
X161020000Y-75000000D03*
D18*
X165000000Y-75000000D03*
D19*
X166810000Y-75000000D03*
%TD*%
D10*
%TO.C,A1*%
X74250000Y-86380000D03*
X132250000Y-86380000D03*
D14*
X79120000Y-134110000D03*
D15*
X79120000Y-136650000D03*
X81660000Y-134110000D03*
X81660000Y-136650000D03*
X84200000Y-134110000D03*
X84200000Y-136650000D03*
X86740000Y-134110000D03*
X86740000Y-136650000D03*
X89280000Y-134110000D03*
X89280000Y-136650000D03*
X91820000Y-134110000D03*
X91820000Y-136650000D03*
X94360000Y-134110000D03*
X94360000Y-136650000D03*
X96900000Y-134110000D03*
X96900000Y-136650000D03*
X99440000Y-134110000D03*
X99440000Y-136650000D03*
X101980000Y-134110000D03*
X101980000Y-136650000D03*
X104520000Y-134110000D03*
X104520000Y-136650000D03*
X107060000Y-134110000D03*
X107060000Y-136650000D03*
X109600000Y-134110000D03*
X109600000Y-136650000D03*
X112140000Y-134110000D03*
X112140000Y-136650000D03*
X114680000Y-134110000D03*
X114680000Y-136650000D03*
X117220000Y-134110000D03*
X117220000Y-136650000D03*
X119760000Y-134110000D03*
X119760000Y-136650000D03*
X122300000Y-134110000D03*
X122300000Y-136650000D03*
X124840000Y-134110000D03*
X124840000Y-136650000D03*
X127380000Y-134110000D03*
X127380000Y-136650000D03*
%TD*%
D20*
%TO.C,J3*%
X139610000Y-62992000D03*
D21*
X139610000Y-60452000D03*
X142150000Y-62992000D03*
X142150000Y-60452000D03*
X144690000Y-62992000D03*
X144690000Y-60452000D03*
X147230000Y-62992000D03*
X147230000Y-60452000D03*
X149770000Y-62992000D03*
X149770000Y-60452000D03*
X152310000Y-62992000D03*
X152310000Y-60452000D03*
X154850000Y-62992000D03*
X154850000Y-60452000D03*
X157390000Y-62992000D03*
X157390000Y-60452000D03*
%TD*%
D22*
%TO.C,J4*%
X123950000Y-63500000D03*
X126550000Y-63500000D03*
X121850000Y-63500000D03*
X128650000Y-63500000D03*
X121850000Y-66000000D03*
X126150000Y-66000000D03*
X128650000Y-66000000D03*
D23*
X118500000Y-60500000D03*
D24*
X125250000Y-59700000D03*
D23*
X132000000Y-60500000D03*
%TD*%
M02*
