M48
; DRILL file {KiCad 9.0.7} date 2026-02-09T23:32:58+0100
; FORMAT={-:-/ absolute / metric / decimal}
; #@! TF.CreationDate,2026-02-09T23:32:58+01:00
; #@! TF.GenerationSoftware,Kicad,Pcbnew,9.0.7
; #@! TF.FileFunction,Plated,1,2,PTH
FMAT,2
METRIC
; #@! TA.AperFunction,Plated,PTH,ViaDrill
T1C0.400
; #@! TA.AperFunction,Plated,PTH,ComponentDrill
T2C0.800
; #@! TA.AperFunction,Plated,PTH,ComponentDrill
T3C1.000
%
G90
G05
T1
X83.342Y-141.448
X83.906Y-140.414
X86.289Y-61.876
X86.289Y-144.395
X88.421Y-88.4
X88.481Y-135.309
X90.233Y-132.977
X91.884Y-81.735
X91.884Y-131.602
X95.13Y-58.929
X95.443Y-132.977
X96.893Y-79.559
X98.005Y-74.398
X98.05Y-135.824
X98.078Y-143.596
X98.928Y-74.431
X99.44Y-132.195
X101.025Y-58.032
X101.025Y-81.735
X101.025Y-126.712
X101.434Y-73.663
X101.498Y-67.585
X101.55Y-79.559
X103.102Y-69.563
X103.291Y-135.297
X103.97Y-129.66
X103.972Y-139.064
X104.948Y-77.524
X105.004Y-129.219
X106.919Y-67.77
X107.337Y-130.462
X107.74Y-66.949
X108.075Y-84.654
X109.301Y-73.663
X109.644Y-130.239
X109.937Y-66.895
X109.937Y-85.453
X110.869Y-137.954
X111.416Y-129.831
X112.813Y-58.045
X112.813Y-70.363
X113.065Y-79.826
X113.285Y-135.38
X115.76Y-73.366
X116.42Y-128.82
X117.817Y-130.546
X118.339Y-129.66
X118.349Y-126.513
X118.475Y-82.506
X120.859Y-81.937
X121.011Y-125.962
X121.397Y-73.021
X121.663Y-76.823
X123.663Y-135.473
X123.922Y-71.694
X124.221Y-70.749
X124.518Y-76.487
X124.601Y-143.596
X125.44Y-126.712
X125.526Y-77.536
X126.728Y-75.791
X127.862Y-68.3
X128.006Y-70.716
X128.402Y-137.725
X128.654Y-82.859
X129.078Y-132.522
X130.21Y-59.286
X130.496Y-135.554
X131.029Y-70.172
X131.043Y-62.802
X131.416Y-76.425
X132.556Y-66.669
X133.003Y-131.602
X133.375Y-80.207
X133.443Y-66.971
X133.472Y-71.497
X133.639Y-61.366
X134.389Y-69.741
X135.106Y-138.819
X135.24Y-78.125
X135.382Y-80.202
X139.956Y-69.649
X140.055Y-80.005
X140.349Y-76.612
X142.284Y-68.57
X144.41Y-74.371
X145.231Y-56.038
X145.642Y-73.197
X146.395Y-67.77
X148.178Y-82.411
X150.805Y-58.527
X151.925Y-73.533
X154.072Y-83.021
X154.526Y-79.559
X159.967Y-79.559
X162.72Y-60.521
X162.72Y-64.823
T2
X88.5Y-77.0
X92.0Y-77.0
X121.85Y-63.5
X121.85Y-66.0
X123.95Y-63.5
X126.15Y-66.0
X126.55Y-63.5
X128.65Y-63.5
X128.65Y-66.0
T3
X79.12Y-134.11
X79.12Y-136.65
X81.66Y-134.11
X81.66Y-136.65
X84.2Y-134.11
X84.2Y-136.65
X86.74Y-134.11
X86.74Y-136.65
X89.28Y-134.11
X89.28Y-136.65
X91.82Y-134.11
X91.82Y-136.65
X94.36Y-134.11
X94.36Y-136.65
X96.9Y-134.11
X96.9Y-136.65
X99.44Y-134.11
X99.44Y-136.65
X101.98Y-134.11
X101.98Y-136.65
X104.52Y-134.11
X104.52Y-136.65
X107.06Y-134.11
X107.06Y-136.65
X109.6Y-134.11
X109.6Y-136.65
X112.14Y-134.11
X112.14Y-136.65
X112.56Y-140.97
X114.68Y-134.11
X114.68Y-136.65
X115.1Y-140.97
X117.22Y-134.11
X117.22Y-136.65
X117.64Y-140.97
X119.76Y-134.11
X119.76Y-136.65
X120.18Y-140.97
X122.3Y-134.11
X122.3Y-136.65
X122.72Y-140.97
X124.84Y-134.11
X124.84Y-136.65
X125.26Y-140.97
X127.38Y-134.11
X127.38Y-136.65
X127.8Y-140.97
X130.34Y-140.97
X132.88Y-140.97
X135.42Y-140.97
X137.96Y-140.97
X139.61Y-60.452
X139.61Y-62.992
X140.5Y-140.97
X142.15Y-60.452
X142.15Y-62.992
X144.69Y-60.452
X144.69Y-62.992
X147.23Y-60.452
X147.23Y-62.992
X149.77Y-60.452
X149.77Y-62.992
X152.31Y-60.452
X152.31Y-62.992
X154.85Y-60.452
X154.85Y-62.992
X157.39Y-60.452
X157.39Y-62.992
X161.02Y-75.0
X165.0Y-75.0
T2
X118.5Y-61.2G85X118.5Y-59.8
G05
X124.55Y-59.7G85X125.95Y-59.7
G05
X132.0Y-61.2G85X132.0Y-59.8
G05
T3
X85.3Y-64.5G85X85.3Y-66.5
G05
X91.0Y-62.5G85X89.0Y-62.5
G05
X91.0Y-68.5G85X89.0Y-68.5
G05
X158.71Y-75.0G85X159.71Y-75.0
G05
X166.31Y-75.0G85X167.31Y-75.0
G05
M30
