%TF.GenerationSoftware,KiCad,Pcbnew,9.0.7*%
%TF.CreationDate,2026-03-10T19:04:45+01:00*%
%TF.ProjectId,Pi1551-III Module-rotated,50693135-3531-42d4-9949-49204d6f6475,2*%
%TF.SameCoordinates,Original*%
%TF.FileFunction,Legend,Bot*%
%TF.FilePolarity,Positive*%
%FSLAX46Y46*%
G04 Gerber Fmt 4.6, Leading zero omitted, Abs format (unit mm)*
G04 Created by KiCad (PCBNEW 9.0.7) date 2026-03-10 19:04:45*
%MOMM*%
%LPD*%
G01*
G04 APERTURE LIST*
%ADD10C,0.150000*%
%ADD11C,0.500000*%
%ADD12C,0.010000*%
G04 APERTURE END LIST*
D10*
X91571428Y-58429819D02*
X92047618Y-58429819D01*
X92047618Y-58429819D02*
X92095237Y-58906009D01*
X92095237Y-58906009D02*
X92047618Y-58858390D01*
X92047618Y-58858390D02*
X91952380Y-58810771D01*
X91952380Y-58810771D02*
X91714285Y-58810771D01*
X91714285Y-58810771D02*
X91619047Y-58858390D01*
X91619047Y-58858390D02*
X91571428Y-58906009D01*
X91571428Y-58906009D02*
X91523809Y-59001247D01*
X91523809Y-59001247D02*
X91523809Y-59239342D01*
X91523809Y-59239342D02*
X91571428Y-59334580D01*
X91571428Y-59334580D02*
X91619047Y-59382200D01*
X91619047Y-59382200D02*
X91714285Y-59429819D01*
X91714285Y-59429819D02*
X91952380Y-59429819D01*
X91952380Y-59429819D02*
X92047618Y-59382200D01*
X92047618Y-59382200D02*
X92095237Y-59334580D01*
X91238094Y-58429819D02*
X90904761Y-59429819D01*
X90904761Y-59429819D02*
X90571428Y-58429819D01*
X89476189Y-59429819D02*
X89476189Y-58429819D01*
X89476189Y-58429819D02*
X89238094Y-58429819D01*
X89238094Y-58429819D02*
X89095237Y-58477438D01*
X89095237Y-58477438D02*
X88999999Y-58572676D01*
X88999999Y-58572676D02*
X88952380Y-58667914D01*
X88952380Y-58667914D02*
X88904761Y-58858390D01*
X88904761Y-58858390D02*
X88904761Y-59001247D01*
X88904761Y-59001247D02*
X88952380Y-59191723D01*
X88952380Y-59191723D02*
X88999999Y-59286961D01*
X88999999Y-59286961D02*
X89095237Y-59382200D01*
X89095237Y-59382200D02*
X89238094Y-59429819D01*
X89238094Y-59429819D02*
X89476189Y-59429819D01*
X87904761Y-59334580D02*
X87952380Y-59382200D01*
X87952380Y-59382200D02*
X88095237Y-59429819D01*
X88095237Y-59429819D02*
X88190475Y-59429819D01*
X88190475Y-59429819D02*
X88333332Y-59382200D01*
X88333332Y-59382200D02*
X88428570Y-59286961D01*
X88428570Y-59286961D02*
X88476189Y-59191723D01*
X88476189Y-59191723D02*
X88523808Y-59001247D01*
X88523808Y-59001247D02*
X88523808Y-58858390D01*
X88523808Y-58858390D02*
X88476189Y-58667914D01*
X88476189Y-58667914D02*
X88428570Y-58572676D01*
X88428570Y-58572676D02*
X88333332Y-58477438D01*
X88333332Y-58477438D02*
X88190475Y-58429819D01*
X88190475Y-58429819D02*
X88095237Y-58429819D01*
X88095237Y-58429819D02*
X87952380Y-58477438D01*
X87952380Y-58477438D02*
X87904761Y-58525057D01*
X86619048Y-56508866D02*
X87380953Y-56508866D01*
X87000000Y-56889819D02*
X87000000Y-56127914D01*
X92619048Y-56508866D02*
X93380953Y-56508866D01*
%TO.C,SYM1*%
X90000000Y-56498500D02*
X88000000Y-56498500D01*
X91068500Y-56498500D02*
X91968500Y-56498500D01*
X89250000Y-55823500D02*
G75*
G02*
X89325000Y-57248500I750000J-675000D01*
G01*
X87940500Y-56498500D02*
G75*
G02*
X86090500Y-56498500I-925000J0D01*
G01*
X86090500Y-56498500D02*
G75*
G02*
X87940500Y-56498500I925000J0D01*
G01*
D11*
X90175000Y-56498500D02*
G75*
G02*
X89825000Y-56498500I-175000J0D01*
G01*
X89825000Y-56498500D02*
G75*
G02*
X90175000Y-56498500I175000J0D01*
G01*
D10*
X93909500Y-56498500D02*
G75*
G02*
X92059500Y-56498500I-925000J0D01*
G01*
X92059500Y-56498500D02*
G75*
G02*
X93909500Y-56498500I925000J0D01*
G01*
D12*
%TO.C,REF2*%
X80056406Y-129655949D02*
X80082127Y-129671647D01*
X80108778Y-129693227D01*
X80108778Y-130340684D01*
X80082127Y-130362264D01*
X80050767Y-130379739D01*
X80014966Y-130380575D01*
X79983528Y-130360082D01*
X79979652Y-130355416D01*
X79974186Y-130345949D01*
X79969979Y-130332267D01*
X79966867Y-130311748D01*
X79964687Y-130281768D01*
X79963276Y-130239704D01*
X79962471Y-130182932D01*
X79962107Y-130108830D01*
X79962022Y-130014773D01*
X79962022Y-129693227D01*
X79988673Y-129671647D01*
X80012386Y-129656877D01*
X80035400Y-129650067D01*
X80056406Y-129655949D01*
G36*
X80056406Y-129655949D02*
G01*
X80082127Y-129671647D01*
X80108778Y-129693227D01*
X80108778Y-130340684D01*
X80082127Y-130362264D01*
X80050767Y-130379739D01*
X80014966Y-130380575D01*
X79983528Y-130360082D01*
X79979652Y-130355416D01*
X79974186Y-130345949D01*
X79969979Y-130332267D01*
X79966867Y-130311748D01*
X79964687Y-130281768D01*
X79963276Y-130239704D01*
X79962471Y-130182932D01*
X79962107Y-130108830D01*
X79962022Y-130014773D01*
X79962022Y-129693227D01*
X79988673Y-129671647D01*
X80012386Y-129656877D01*
X80035400Y-129650067D01*
X80056406Y-129655949D01*
G37*
X87187137Y-129654463D02*
X87221291Y-129677776D01*
X87249000Y-129705485D01*
X87249000Y-130018537D01*
X87248959Y-130102567D01*
X87248701Y-130176789D01*
X87248030Y-130233541D01*
X87246752Y-130275512D01*
X87244673Y-130305389D01*
X87241599Y-130325861D01*
X87237334Y-130339614D01*
X87231684Y-130349337D01*
X87224455Y-130357717D01*
X87192991Y-130379181D01*
X87157826Y-130380947D01*
X87124822Y-130361267D01*
X87119516Y-130355398D01*
X87114066Y-130346314D01*
X87109900Y-130332973D01*
X87106846Y-130312757D01*
X87104732Y-130283049D01*
X87103386Y-130241232D01*
X87102638Y-130184689D01*
X87102314Y-130110802D01*
X87102245Y-130016956D01*
X87102284Y-129941294D01*
X87102539Y-129863385D01*
X87103183Y-129803375D01*
X87104387Y-129758648D01*
X87106324Y-129726585D01*
X87109164Y-129704571D01*
X87113079Y-129689987D01*
X87118242Y-129680218D01*
X87124822Y-129672645D01*
X87154006Y-129653623D01*
X87187137Y-129654463D01*
G36*
X87187137Y-129654463D02*
G01*
X87221291Y-129677776D01*
X87249000Y-129705485D01*
X87249000Y-130018537D01*
X87248959Y-130102567D01*
X87248701Y-130176789D01*
X87248030Y-130233541D01*
X87246752Y-130275512D01*
X87244673Y-130305389D01*
X87241599Y-130325861D01*
X87237334Y-130339614D01*
X87231684Y-130349337D01*
X87224455Y-130357717D01*
X87192991Y-130379181D01*
X87157826Y-130380947D01*
X87124822Y-130361267D01*
X87119516Y-130355398D01*
X87114066Y-130346314D01*
X87109900Y-130332973D01*
X87106846Y-130312757D01*
X87104732Y-130283049D01*
X87103386Y-130241232D01*
X87102638Y-130184689D01*
X87102314Y-130110802D01*
X87102245Y-130016956D01*
X87102284Y-129941294D01*
X87102539Y-129863385D01*
X87103183Y-129803375D01*
X87104387Y-129758648D01*
X87106324Y-129726585D01*
X87109164Y-129704571D01*
X87113079Y-129689987D01*
X87118242Y-129680218D01*
X87124822Y-129672645D01*
X87154006Y-129653623D01*
X87187137Y-129654463D01*
G37*
X86655562Y-124413850D02*
X86738313Y-124441053D01*
X86813406Y-124486484D01*
X86885298Y-124552302D01*
X86923846Y-124596567D01*
X86963256Y-124654961D01*
X86988446Y-124715586D01*
X87001861Y-124784865D01*
X87005948Y-124869222D01*
X87005669Y-124915307D01*
X87003460Y-124956450D01*
X86997894Y-124988582D01*
X86987586Y-125019122D01*
X86971148Y-125055489D01*
X86957200Y-125082728D01*
X86898665Y-125168429D01*
X86826619Y-125237617D01*
X86742947Y-125288741D01*
X86649531Y-125320250D01*
X86616434Y-125327225D01*
X86575960Y-125334094D01*
X86542999Y-125335919D01*
X86508698Y-125332947D01*
X86464200Y-125325426D01*
X86412934Y-125313002D01*
X86322434Y-125275112D01*
X86243345Y-125220836D01*
X86177528Y-125152770D01*
X86126840Y-125073511D01*
X86093140Y-124985654D01*
X86078286Y-124891795D01*
X86084136Y-124794530D01*
X86110399Y-124698220D01*
X86155418Y-124609494D01*
X86216373Y-124534419D01*
X86291184Y-124474641D01*
X86377768Y-124431809D01*
X86474043Y-124407571D01*
X86577928Y-124403576D01*
X86655562Y-124413850D01*
G36*
X86655562Y-124413850D02*
G01*
X86738313Y-124441053D01*
X86813406Y-124486484D01*
X86885298Y-124552302D01*
X86923846Y-124596567D01*
X86963256Y-124654961D01*
X86988446Y-124715586D01*
X87001861Y-124784865D01*
X87005948Y-124869222D01*
X87005669Y-124915307D01*
X87003460Y-124956450D01*
X86997894Y-124988582D01*
X86987586Y-125019122D01*
X86971148Y-125055489D01*
X86957200Y-125082728D01*
X86898665Y-125168429D01*
X86826619Y-125237617D01*
X86742947Y-125288741D01*
X86649531Y-125320250D01*
X86616434Y-125327225D01*
X86575960Y-125334094D01*
X86542999Y-125335919D01*
X86508698Y-125332947D01*
X86464200Y-125325426D01*
X86412934Y-125313002D01*
X86322434Y-125275112D01*
X86243345Y-125220836D01*
X86177528Y-125152770D01*
X86126840Y-125073511D01*
X86093140Y-124985654D01*
X86078286Y-124891795D01*
X86084136Y-124794530D01*
X86110399Y-124698220D01*
X86155418Y-124609494D01*
X86216373Y-124534419D01*
X86291184Y-124474641D01*
X86377768Y-124431809D01*
X86474043Y-124407571D01*
X86577928Y-124403576D01*
X86655562Y-124413850D01*
G37*
X79356767Y-129650068D02*
X79450890Y-129650158D01*
X79525405Y-129650498D01*
X79582811Y-129651239D01*
X79625611Y-129652535D01*
X79656304Y-129654537D01*
X79677391Y-129657396D01*
X79691373Y-129661266D01*
X79700750Y-129666298D01*
X79708022Y-129672645D01*
X79726828Y-129705362D01*
X79728275Y-129742939D01*
X79711917Y-129776178D01*
X79710557Y-129777631D01*
X79699354Y-129785992D01*
X79682252Y-129791547D01*
X79655082Y-129794840D01*
X79613678Y-129796418D01*
X79553873Y-129796822D01*
X79414511Y-129796822D01*
X79414511Y-130060589D01*
X79414436Y-130136417D01*
X79414028Y-130203083D01*
X79413046Y-130252867D01*
X79411250Y-130288784D01*
X79408399Y-130313850D01*
X79404253Y-130331081D01*
X79398571Y-130343492D01*
X79391114Y-130354100D01*
X79388824Y-130356906D01*
X79357646Y-130379548D01*
X79323266Y-130381112D01*
X79290334Y-130361267D01*
X79283355Y-130353191D01*
X79277883Y-130342593D01*
X79273863Y-130326749D01*
X79271072Y-130302773D01*
X79269288Y-130267774D01*
X79268289Y-130218864D01*
X79267852Y-130153154D01*
X79267756Y-130067756D01*
X79267756Y-129796822D01*
X79121820Y-129796822D01*
X79110720Y-129796821D01*
X79054202Y-129796596D01*
X79015358Y-129795457D01*
X78989965Y-129792657D01*
X78973804Y-129787450D01*
X78962652Y-129779089D01*
X78952289Y-129766826D01*
X78936441Y-129736138D01*
X78939543Y-129702358D01*
X78965187Y-129669822D01*
X78970129Y-129666105D01*
X78980338Y-129661269D01*
X78995764Y-129657506D01*
X79018886Y-129654683D01*
X79052183Y-129652670D01*
X79098137Y-129651333D01*
X79159228Y-129650542D01*
X79237935Y-129650163D01*
X79336740Y-129650067D01*
X79356767Y-129650068D01*
G36*
X79356767Y-129650068D02*
G01*
X79450890Y-129650158D01*
X79525405Y-129650498D01*
X79582811Y-129651239D01*
X79625611Y-129652535D01*
X79656304Y-129654537D01*
X79677391Y-129657396D01*
X79691373Y-129661266D01*
X79700750Y-129666298D01*
X79708022Y-129672645D01*
X79726828Y-129705362D01*
X79728275Y-129742939D01*
X79711917Y-129776178D01*
X79710557Y-129777631D01*
X79699354Y-129785992D01*
X79682252Y-129791547D01*
X79655082Y-129794840D01*
X79613678Y-129796418D01*
X79553873Y-129796822D01*
X79414511Y-129796822D01*
X79414511Y-130060589D01*
X79414436Y-130136417D01*
X79414028Y-130203083D01*
X79413046Y-130252867D01*
X79411250Y-130288784D01*
X79408399Y-130313850D01*
X79404253Y-130331081D01*
X79398571Y-130343492D01*
X79391114Y-130354100D01*
X79388824Y-130356906D01*
X79357646Y-130379548D01*
X79323266Y-130381112D01*
X79290334Y-130361267D01*
X79283355Y-130353191D01*
X79277883Y-130342593D01*
X79273863Y-130326749D01*
X79271072Y-130302773D01*
X79269288Y-130267774D01*
X79268289Y-130218864D01*
X79267852Y-130153154D01*
X79267756Y-130067756D01*
X79267756Y-129796822D01*
X79121820Y-129796822D01*
X79110720Y-129796821D01*
X79054202Y-129796596D01*
X79015358Y-129795457D01*
X78989965Y-129792657D01*
X78973804Y-129787450D01*
X78962652Y-129779089D01*
X78952289Y-129766826D01*
X78936441Y-129736138D01*
X78939543Y-129702358D01*
X78965187Y-129669822D01*
X78970129Y-129666105D01*
X78980338Y-129661269D01*
X78995764Y-129657506D01*
X79018886Y-129654683D01*
X79052183Y-129652670D01*
X79098137Y-129651333D01*
X79159228Y-129650542D01*
X79237935Y-129650163D01*
X79336740Y-129650067D01*
X79356767Y-129650068D01*
G37*
X78680734Y-129672645D02*
X78686366Y-129678835D01*
X78691456Y-129687041D01*
X78695543Y-129698817D01*
X78698721Y-129716276D01*
X78701087Y-129741530D01*
X78702738Y-129776690D01*
X78703769Y-129823869D01*
X78704277Y-129885177D01*
X78704359Y-129962727D01*
X78704109Y-130058631D01*
X78703625Y-130175000D01*
X78703557Y-130189175D01*
X78702971Y-130250937D01*
X78701648Y-130294620D01*
X78699103Y-130324001D01*
X78694848Y-130342855D01*
X78688396Y-130354959D01*
X78679262Y-130364089D01*
X78645804Y-130381506D01*
X78610856Y-130378604D01*
X78579953Y-130354100D01*
X78570944Y-130340897D01*
X78563492Y-130322361D01*
X78559124Y-130296333D01*
X78557069Y-130257787D01*
X78556556Y-130201700D01*
X78556556Y-130079045D01*
X78059845Y-130079045D01*
X78059845Y-130213871D01*
X78059772Y-130249662D01*
X78059009Y-130295992D01*
X78056833Y-130326526D01*
X78052536Y-130345557D01*
X78045412Y-130357374D01*
X78034755Y-130366271D01*
X78002504Y-130381341D01*
X77967217Y-130378673D01*
X77936486Y-130354100D01*
X77931831Y-130347845D01*
X77925895Y-130337321D01*
X77921364Y-130323391D01*
X77918048Y-130303317D01*
X77915759Y-130274360D01*
X77914308Y-130233780D01*
X77913505Y-130178840D01*
X77913162Y-130106799D01*
X77913089Y-130014920D01*
X77913089Y-129705485D01*
X77940798Y-129677776D01*
X77972177Y-129655533D01*
X78005406Y-129652844D01*
X78037267Y-129672645D01*
X78045553Y-129682415D01*
X78052965Y-129698307D01*
X78057302Y-129722275D01*
X78059338Y-129759148D01*
X78059845Y-129813756D01*
X78059845Y-129932289D01*
X78556556Y-129932289D01*
X78556556Y-129816776D01*
X78556994Y-129765078D01*
X78558958Y-129730554D01*
X78563474Y-129707978D01*
X78571567Y-129692126D01*
X78584265Y-129677776D01*
X78615643Y-129655533D01*
X78648872Y-129652844D01*
X78680734Y-129672645D01*
G36*
X78680734Y-129672645D02*
G01*
X78686366Y-129678835D01*
X78691456Y-129687041D01*
X78695543Y-129698817D01*
X78698721Y-129716276D01*
X78701087Y-129741530D01*
X78702738Y-129776690D01*
X78703769Y-129823869D01*
X78704277Y-129885177D01*
X78704359Y-129962727D01*
X78704109Y-130058631D01*
X78703625Y-130175000D01*
X78703557Y-130189175D01*
X78702971Y-130250937D01*
X78701648Y-130294620D01*
X78699103Y-130324001D01*
X78694848Y-130342855D01*
X78688396Y-130354959D01*
X78679262Y-130364089D01*
X78645804Y-130381506D01*
X78610856Y-130378604D01*
X78579953Y-130354100D01*
X78570944Y-130340897D01*
X78563492Y-130322361D01*
X78559124Y-130296333D01*
X78557069Y-130257787D01*
X78556556Y-130201700D01*
X78556556Y-130079045D01*
X78059845Y-130079045D01*
X78059845Y-130213871D01*
X78059772Y-130249662D01*
X78059009Y-130295992D01*
X78056833Y-130326526D01*
X78052536Y-130345557D01*
X78045412Y-130357374D01*
X78034755Y-130366271D01*
X78002504Y-130381341D01*
X77967217Y-130378673D01*
X77936486Y-130354100D01*
X77931831Y-130347845D01*
X77925895Y-130337321D01*
X77921364Y-130323391D01*
X77918048Y-130303317D01*
X77915759Y-130274360D01*
X77914308Y-130233780D01*
X77913505Y-130178840D01*
X77913162Y-130106799D01*
X77913089Y-130014920D01*
X77913089Y-129705485D01*
X77940798Y-129677776D01*
X77972177Y-129655533D01*
X78005406Y-129652844D01*
X78037267Y-129672645D01*
X78045553Y-129682415D01*
X78052965Y-129698307D01*
X78057302Y-129722275D01*
X78059338Y-129759148D01*
X78059845Y-129813756D01*
X78059845Y-129932289D01*
X78556556Y-129932289D01*
X78556556Y-129816776D01*
X78556994Y-129765078D01*
X78558958Y-129730554D01*
X78563474Y-129707978D01*
X78571567Y-129692126D01*
X78584265Y-129677776D01*
X78615643Y-129655533D01*
X78648872Y-129652844D01*
X78680734Y-129672645D01*
G37*
X83386133Y-130261396D02*
X83384163Y-130294175D01*
X83381235Y-130317095D01*
X83377158Y-130332897D01*
X83371743Y-130344319D01*
X83364803Y-130354100D01*
X83341406Y-130383845D01*
X83175714Y-130383251D01*
X83140918Y-130382953D01*
X83042435Y-130379522D01*
X82961473Y-130371839D01*
X82894379Y-130359282D01*
X82837496Y-130341227D01*
X82787169Y-130317052D01*
X82783810Y-130315135D01*
X82725998Y-130278417D01*
X82683644Y-130241451D01*
X82650828Y-130197966D01*
X82621628Y-130141689D01*
X82617346Y-130132073D01*
X82594769Y-130068887D01*
X82589034Y-130023333D01*
X82738279Y-130023333D01*
X82743892Y-130048061D01*
X82749618Y-130063939D01*
X82782548Y-130123847D01*
X82829886Y-130169600D01*
X82893652Y-130202736D01*
X82975861Y-130224790D01*
X82978655Y-130225292D01*
X83024940Y-130231255D01*
X83081336Y-130235483D01*
X83136274Y-130237089D01*
X83230156Y-130237089D01*
X83230156Y-129796822D01*
X83142667Y-129797270D01*
X83075747Y-129799746D01*
X82983349Y-129810998D01*
X82904034Y-129830537D01*
X82842060Y-129857511D01*
X82811120Y-129878240D01*
X82783000Y-129908006D01*
X82759660Y-129950434D01*
X82752533Y-129966400D01*
X82740709Y-129998902D01*
X82738279Y-130023333D01*
X82589034Y-130023333D01*
X82587797Y-130013509D01*
X82596399Y-129958483D01*
X82620541Y-129896351D01*
X82621337Y-129894658D01*
X82661788Y-129825236D01*
X82712473Y-129768638D01*
X82775198Y-129724070D01*
X82851774Y-129690741D01*
X82944009Y-129667861D01*
X83053712Y-129654636D01*
X83182691Y-129650275D01*
X83186263Y-129650270D01*
X83246283Y-129650410D01*
X83288214Y-129651446D01*
X83316328Y-129654040D01*
X83334897Y-129658853D01*
X83348194Y-129666544D01*
X83360491Y-129677776D01*
X83388200Y-129705485D01*
X83388200Y-130014920D01*
X83388175Y-130076526D01*
X83387950Y-130155311D01*
X83387332Y-130216021D01*
X83386775Y-130237089D01*
X83386133Y-130261396D01*
G36*
X83386133Y-130261396D02*
G01*
X83384163Y-130294175D01*
X83381235Y-130317095D01*
X83377158Y-130332897D01*
X83371743Y-130344319D01*
X83364803Y-130354100D01*
X83341406Y-130383845D01*
X83175714Y-130383251D01*
X83140918Y-130382953D01*
X83042435Y-130379522D01*
X82961473Y-130371839D01*
X82894379Y-130359282D01*
X82837496Y-130341227D01*
X82787169Y-130317052D01*
X82783810Y-130315135D01*
X82725998Y-130278417D01*
X82683644Y-130241451D01*
X82650828Y-130197966D01*
X82621628Y-130141689D01*
X82617346Y-130132073D01*
X82594769Y-130068887D01*
X82589034Y-130023333D01*
X82738279Y-130023333D01*
X82743892Y-130048061D01*
X82749618Y-130063939D01*
X82782548Y-130123847D01*
X82829886Y-130169600D01*
X82893652Y-130202736D01*
X82975861Y-130224790D01*
X82978655Y-130225292D01*
X83024940Y-130231255D01*
X83081336Y-130235483D01*
X83136274Y-130237089D01*
X83230156Y-130237089D01*
X83230156Y-129796822D01*
X83142667Y-129797270D01*
X83075747Y-129799746D01*
X82983349Y-129810998D01*
X82904034Y-129830537D01*
X82842060Y-129857511D01*
X82811120Y-129878240D01*
X82783000Y-129908006D01*
X82759660Y-129950434D01*
X82752533Y-129966400D01*
X82740709Y-129998902D01*
X82738279Y-130023333D01*
X82589034Y-130023333D01*
X82587797Y-130013509D01*
X82596399Y-129958483D01*
X82620541Y-129896351D01*
X82621337Y-129894658D01*
X82661788Y-129825236D01*
X82712473Y-129768638D01*
X82775198Y-129724070D01*
X82851774Y-129690741D01*
X82944009Y-129667861D01*
X83053712Y-129654636D01*
X83182691Y-129650275D01*
X83186263Y-129650270D01*
X83246283Y-129650410D01*
X83288214Y-129651446D01*
X83316328Y-129654040D01*
X83334897Y-129658853D01*
X83348194Y-129666544D01*
X83360491Y-129677776D01*
X83388200Y-129705485D01*
X83388200Y-130014920D01*
X83388175Y-130076526D01*
X83387950Y-130155311D01*
X83387332Y-130216021D01*
X83386775Y-130237089D01*
X83386133Y-130261396D01*
G37*
X90477817Y-129835427D02*
X90477870Y-129916041D01*
X90477622Y-130016956D01*
X90477583Y-130092617D01*
X90477328Y-130170526D01*
X90476684Y-130230536D01*
X90475480Y-130275264D01*
X90473543Y-130307326D01*
X90470703Y-130329340D01*
X90466788Y-130343924D01*
X90461626Y-130353694D01*
X90455045Y-130361267D01*
X90448077Y-130367501D01*
X90435079Y-130374801D01*
X90415931Y-130379554D01*
X90386528Y-130382292D01*
X90342762Y-130383545D01*
X90280528Y-130383845D01*
X90231582Y-130383469D01*
X90124722Y-130379041D01*
X90035494Y-130368953D01*
X89960696Y-130352365D01*
X89897125Y-130328435D01*
X89841579Y-130296321D01*
X89790854Y-130255182D01*
X89784866Y-130249330D01*
X89747999Y-130200821D01*
X89716899Y-130140013D01*
X89695417Y-130075769D01*
X89690136Y-130037026D01*
X89837353Y-130037026D01*
X89855635Y-130087961D01*
X89885305Y-130133878D01*
X89932002Y-130176287D01*
X89993392Y-130206090D01*
X90072538Y-130225226D01*
X90074028Y-130225464D01*
X90122999Y-130231256D01*
X90181693Y-130235396D01*
X90237734Y-130237004D01*
X90330867Y-130237089D01*
X90330867Y-129796822D01*
X90254667Y-129796808D01*
X90251639Y-129796817D01*
X90200519Y-129798782D01*
X90140416Y-129803507D01*
X90083708Y-129810035D01*
X90033750Y-129819331D01*
X89958998Y-129845600D01*
X89901489Y-129884899D01*
X89859988Y-129937933D01*
X89838771Y-129989200D01*
X89837353Y-130037026D01*
X89690136Y-130037026D01*
X89687400Y-130016956D01*
X89688679Y-129995739D01*
X89700991Y-129938323D01*
X89723520Y-129878413D01*
X89752750Y-129824363D01*
X89785167Y-129784532D01*
X89804708Y-129767510D01*
X89859420Y-129728322D01*
X89919723Y-129698193D01*
X89988919Y-129676232D01*
X90070311Y-129661550D01*
X90167200Y-129653259D01*
X90282889Y-129650467D01*
X90322371Y-129650066D01*
X90368082Y-129649653D01*
X90403883Y-129651457D01*
X90430974Y-129657739D01*
X90450556Y-129670759D01*
X90463830Y-129692778D01*
X90471998Y-129726055D01*
X90476260Y-129772851D01*
X90476857Y-129796822D01*
X90477817Y-129835427D01*
G36*
X90477817Y-129835427D02*
G01*
X90477870Y-129916041D01*
X90477622Y-130016956D01*
X90477583Y-130092617D01*
X90477328Y-130170526D01*
X90476684Y-130230536D01*
X90475480Y-130275264D01*
X90473543Y-130307326D01*
X90470703Y-130329340D01*
X90466788Y-130343924D01*
X90461626Y-130353694D01*
X90455045Y-130361267D01*
X90448077Y-130367501D01*
X90435079Y-130374801D01*
X90415931Y-130379554D01*
X90386528Y-130382292D01*
X90342762Y-130383545D01*
X90280528Y-130383845D01*
X90231582Y-130383469D01*
X90124722Y-130379041D01*
X90035494Y-130368953D01*
X89960696Y-130352365D01*
X89897125Y-130328435D01*
X89841579Y-130296321D01*
X89790854Y-130255182D01*
X89784866Y-130249330D01*
X89747999Y-130200821D01*
X89716899Y-130140013D01*
X89695417Y-130075769D01*
X89690136Y-130037026D01*
X89837353Y-130037026D01*
X89855635Y-130087961D01*
X89885305Y-130133878D01*
X89932002Y-130176287D01*
X89993392Y-130206090D01*
X90072538Y-130225226D01*
X90074028Y-130225464D01*
X90122999Y-130231256D01*
X90181693Y-130235396D01*
X90237734Y-130237004D01*
X90330867Y-130237089D01*
X90330867Y-129796822D01*
X90254667Y-129796808D01*
X90251639Y-129796817D01*
X90200519Y-129798782D01*
X90140416Y-129803507D01*
X90083708Y-129810035D01*
X90033750Y-129819331D01*
X89958998Y-129845600D01*
X89901489Y-129884899D01*
X89859988Y-129937933D01*
X89838771Y-129989200D01*
X89837353Y-130037026D01*
X89690136Y-130037026D01*
X89687400Y-130016956D01*
X89688679Y-129995739D01*
X89700991Y-129938323D01*
X89723520Y-129878413D01*
X89752750Y-129824363D01*
X89785167Y-129784532D01*
X89804708Y-129767510D01*
X89859420Y-129728322D01*
X89919723Y-129698193D01*
X89988919Y-129676232D01*
X90070311Y-129661550D01*
X90167200Y-129653259D01*
X90282889Y-129650467D01*
X90322371Y-129650066D01*
X90368082Y-129649653D01*
X90403883Y-129651457D01*
X90430974Y-129657739D01*
X90450556Y-129670759D01*
X90463830Y-129692778D01*
X90471998Y-129726055D01*
X90476260Y-129772851D01*
X90476857Y-129796822D01*
X90477817Y-129835427D01*
G37*
X85532893Y-129648892D02*
X85544301Y-129655029D01*
X85554850Y-129665691D01*
X85566136Y-129679811D01*
X85570589Y-129685772D01*
X85576588Y-129696268D01*
X85581167Y-129710093D01*
X85584519Y-129729998D01*
X85586833Y-129758732D01*
X85588301Y-129799045D01*
X85589113Y-129853687D01*
X85589460Y-129925407D01*
X85589534Y-130016956D01*
X85589511Y-130075486D01*
X85589292Y-130154573D01*
X85588683Y-130215516D01*
X85587492Y-130261062D01*
X85585529Y-130293963D01*
X85582603Y-130316968D01*
X85578523Y-130332826D01*
X85573097Y-130344286D01*
X85566136Y-130354100D01*
X85535708Y-130378493D01*
X85500765Y-130381372D01*
X85463784Y-130362282D01*
X85459600Y-130358807D01*
X85451424Y-130350279D01*
X85445364Y-130338728D01*
X85440981Y-130320896D01*
X85437839Y-130293524D01*
X85435502Y-130253354D01*
X85433531Y-130197128D01*
X85431489Y-130121589D01*
X85425845Y-129902458D01*
X85160556Y-130143099D01*
X85086722Y-130209875D01*
X85021542Y-130267991D01*
X84969348Y-130312949D01*
X84928273Y-130345871D01*
X84896455Y-130367879D01*
X84872026Y-130380094D01*
X84853124Y-130383639D01*
X84837883Y-130379636D01*
X84824439Y-130369207D01*
X84810927Y-130353474D01*
X84804682Y-130344991D01*
X84799050Y-130334413D01*
X84794839Y-130320255D01*
X84791887Y-130299803D01*
X84790032Y-130270342D01*
X84789113Y-130229161D01*
X84788968Y-130173544D01*
X84789435Y-130100779D01*
X84790352Y-130008151D01*
X84793667Y-129693199D01*
X84820318Y-129671633D01*
X84846383Y-129655441D01*
X84879241Y-129652670D01*
X84913772Y-129671623D01*
X84918084Y-129675208D01*
X84926216Y-129683737D01*
X84932245Y-129695329D01*
X84936606Y-129713235D01*
X84939734Y-129740706D01*
X84942063Y-129780994D01*
X84944029Y-129837351D01*
X84946067Y-129913029D01*
X84951711Y-130132878D01*
X85132334Y-129969084D01*
X85219072Y-129890451D01*
X85294843Y-129822058D01*
X85356980Y-129766708D01*
X85407078Y-129723338D01*
X85446735Y-129690881D01*
X85477548Y-129668273D01*
X85501114Y-129654448D01*
X85519030Y-129648343D01*
X85532893Y-129648892D01*
G36*
X85532893Y-129648892D02*
G01*
X85544301Y-129655029D01*
X85554850Y-129665691D01*
X85566136Y-129679811D01*
X85570589Y-129685772D01*
X85576588Y-129696268D01*
X85581167Y-129710093D01*
X85584519Y-129729998D01*
X85586833Y-129758732D01*
X85588301Y-129799045D01*
X85589113Y-129853687D01*
X85589460Y-129925407D01*
X85589534Y-130016956D01*
X85589511Y-130075486D01*
X85589292Y-130154573D01*
X85588683Y-130215516D01*
X85587492Y-130261062D01*
X85585529Y-130293963D01*
X85582603Y-130316968D01*
X85578523Y-130332826D01*
X85573097Y-130344286D01*
X85566136Y-130354100D01*
X85535708Y-130378493D01*
X85500765Y-130381372D01*
X85463784Y-130362282D01*
X85459600Y-130358807D01*
X85451424Y-130350279D01*
X85445364Y-130338728D01*
X85440981Y-130320896D01*
X85437839Y-130293524D01*
X85435502Y-130253354D01*
X85433531Y-130197128D01*
X85431489Y-130121589D01*
X85425845Y-129902458D01*
X85160556Y-130143099D01*
X85086722Y-130209875D01*
X85021542Y-130267991D01*
X84969348Y-130312949D01*
X84928273Y-130345871D01*
X84896455Y-130367879D01*
X84872026Y-130380094D01*
X84853124Y-130383639D01*
X84837883Y-130379636D01*
X84824439Y-130369207D01*
X84810927Y-130353474D01*
X84804682Y-130344991D01*
X84799050Y-130334413D01*
X84794839Y-130320255D01*
X84791887Y-130299803D01*
X84790032Y-130270342D01*
X84789113Y-130229161D01*
X84788968Y-130173544D01*
X84789435Y-130100779D01*
X84790352Y-130008151D01*
X84793667Y-129693199D01*
X84820318Y-129671633D01*
X84846383Y-129655441D01*
X84879241Y-129652670D01*
X84913772Y-129671623D01*
X84918084Y-129675208D01*
X84926216Y-129683737D01*
X84932245Y-129695329D01*
X84936606Y-129713235D01*
X84939734Y-129740706D01*
X84942063Y-129780994D01*
X84944029Y-129837351D01*
X84946067Y-129913029D01*
X84951711Y-130132878D01*
X85132334Y-129969084D01*
X85219072Y-129890451D01*
X85294843Y-129822058D01*
X85356980Y-129766708D01*
X85407078Y-129723338D01*
X85446735Y-129690881D01*
X85477548Y-129668273D01*
X85501114Y-129654448D01*
X85519030Y-129648343D01*
X85532893Y-129648892D01*
G37*
X86330150Y-129655179D02*
X86436157Y-129671494D01*
X86529969Y-129699545D01*
X86608765Y-129738452D01*
X86669719Y-129787334D01*
X86695789Y-129820195D01*
X86725297Y-129869394D01*
X86750568Y-129923252D01*
X86768218Y-129974419D01*
X86774858Y-130015544D01*
X86773298Y-130035259D01*
X86760357Y-130086592D01*
X86737194Y-130143118D01*
X86707302Y-130197035D01*
X86674173Y-130240539D01*
X86663977Y-130250887D01*
X86596892Y-130302662D01*
X86516766Y-130342554D01*
X86430556Y-130366956D01*
X86375592Y-130375068D01*
X86282139Y-130381673D01*
X86192358Y-130379586D01*
X86109869Y-130369340D01*
X86038286Y-130351470D01*
X85981228Y-130326508D01*
X85942311Y-130294988D01*
X85940936Y-130293012D01*
X85933848Y-130267786D01*
X85929609Y-130220535D01*
X85928200Y-130151071D01*
X85929060Y-130088838D01*
X85933780Y-130041456D01*
X85945470Y-130009353D01*
X85967239Y-129989800D01*
X86002198Y-129980070D01*
X86053456Y-129977433D01*
X86124123Y-129979161D01*
X86172743Y-129982173D01*
X86222939Y-129990366D01*
X86255433Y-130004419D01*
X86272892Y-130025654D01*
X86277983Y-130055394D01*
X86277877Y-130059936D01*
X86269175Y-130094730D01*
X86245165Y-130118147D01*
X86203900Y-130131347D01*
X86143431Y-130135489D01*
X86074956Y-130135489D01*
X86074956Y-130173841D01*
X86075006Y-130182976D01*
X86077227Y-130200227D01*
X86086494Y-130210521D01*
X86107875Y-130217459D01*
X86146436Y-130224641D01*
X86151910Y-130225575D01*
X86248860Y-130235478D01*
X86338852Y-130232559D01*
X86419760Y-130217829D01*
X86489459Y-130192299D01*
X86545824Y-130156978D01*
X86586729Y-130112879D01*
X86610051Y-130061012D01*
X86613663Y-130002388D01*
X86608145Y-129973494D01*
X86581461Y-129917604D01*
X86535273Y-129871945D01*
X86470291Y-129837108D01*
X86387229Y-129813690D01*
X86362555Y-129809241D01*
X86273226Y-129798742D01*
X86193419Y-129799971D01*
X86115326Y-129812906D01*
X86080183Y-129819696D01*
X86034745Y-129820713D01*
X86003430Y-129808182D01*
X85983277Y-129781395D01*
X85976893Y-129753148D01*
X85986379Y-129721924D01*
X85995708Y-129708499D01*
X86029943Y-129684967D01*
X86082565Y-129667095D01*
X86151081Y-129655599D01*
X86233000Y-129651192D01*
X86330150Y-129655179D01*
G36*
X86330150Y-129655179D02*
G01*
X86436157Y-129671494D01*
X86529969Y-129699545D01*
X86608765Y-129738452D01*
X86669719Y-129787334D01*
X86695789Y-129820195D01*
X86725297Y-129869394D01*
X86750568Y-129923252D01*
X86768218Y-129974419D01*
X86774858Y-130015544D01*
X86773298Y-130035259D01*
X86760357Y-130086592D01*
X86737194Y-130143118D01*
X86707302Y-130197035D01*
X86674173Y-130240539D01*
X86663977Y-130250887D01*
X86596892Y-130302662D01*
X86516766Y-130342554D01*
X86430556Y-130366956D01*
X86375592Y-130375068D01*
X86282139Y-130381673D01*
X86192358Y-130379586D01*
X86109869Y-130369340D01*
X86038286Y-130351470D01*
X85981228Y-130326508D01*
X85942311Y-130294988D01*
X85940936Y-130293012D01*
X85933848Y-130267786D01*
X85929609Y-130220535D01*
X85928200Y-130151071D01*
X85929060Y-130088838D01*
X85933780Y-130041456D01*
X85945470Y-130009353D01*
X85967239Y-129989800D01*
X86002198Y-129980070D01*
X86053456Y-129977433D01*
X86124123Y-129979161D01*
X86172743Y-129982173D01*
X86222939Y-129990366D01*
X86255433Y-130004419D01*
X86272892Y-130025654D01*
X86277983Y-130055394D01*
X86277877Y-130059936D01*
X86269175Y-130094730D01*
X86245165Y-130118147D01*
X86203900Y-130131347D01*
X86143431Y-130135489D01*
X86074956Y-130135489D01*
X86074956Y-130173841D01*
X86075006Y-130182976D01*
X86077227Y-130200227D01*
X86086494Y-130210521D01*
X86107875Y-130217459D01*
X86146436Y-130224641D01*
X86151910Y-130225575D01*
X86248860Y-130235478D01*
X86338852Y-130232559D01*
X86419760Y-130217829D01*
X86489459Y-130192299D01*
X86545824Y-130156978D01*
X86586729Y-130112879D01*
X86610051Y-130061012D01*
X86613663Y-130002388D01*
X86608145Y-129973494D01*
X86581461Y-129917604D01*
X86535273Y-129871945D01*
X86470291Y-129837108D01*
X86387229Y-129813690D01*
X86362555Y-129809241D01*
X86273226Y-129798742D01*
X86193419Y-129799971D01*
X86115326Y-129812906D01*
X86080183Y-129819696D01*
X86034745Y-129820713D01*
X86003430Y-129808182D01*
X85983277Y-129781395D01*
X85976893Y-129753148D01*
X85986379Y-129721924D01*
X85995708Y-129708499D01*
X86029943Y-129684967D01*
X86082565Y-129667095D01*
X86151081Y-129655599D01*
X86233000Y-129651192D01*
X86330150Y-129655179D01*
G37*
X84380803Y-129679811D02*
X84385752Y-129686495D01*
X84391596Y-129697066D01*
X84396057Y-129711153D01*
X84399321Y-129731478D01*
X84401574Y-129760765D01*
X84403002Y-129801737D01*
X84403792Y-129857117D01*
X84404129Y-129929628D01*
X84404200Y-130021994D01*
X84404171Y-130087911D01*
X84403939Y-130166228D01*
X84403319Y-130226496D01*
X84402126Y-130271393D01*
X84400179Y-130303602D01*
X84397294Y-130325800D01*
X84393288Y-130340669D01*
X84387979Y-130350889D01*
X84381183Y-130359138D01*
X84376668Y-130363795D01*
X84368438Y-130370282D01*
X84357078Y-130375194D01*
X84339810Y-130378749D01*
X84313855Y-130381167D01*
X84276436Y-130382667D01*
X84224773Y-130383467D01*
X84156089Y-130383787D01*
X84067606Y-130383845D01*
X84047931Y-130383838D01*
X83960906Y-130383572D01*
X83893254Y-130382806D01*
X83842299Y-130381392D01*
X83805367Y-130379180D01*
X83779783Y-130376022D01*
X83762871Y-130371769D01*
X83751957Y-130366271D01*
X83741464Y-130356285D01*
X83728203Y-130325168D01*
X83729386Y-130289280D01*
X83745550Y-130257733D01*
X83747739Y-130255457D01*
X83756427Y-130249189D01*
X83769769Y-130244523D01*
X83790752Y-130241227D01*
X83822363Y-130239068D01*
X83867590Y-130237814D01*
X83929420Y-130237231D01*
X84010839Y-130237089D01*
X84257445Y-130237089D01*
X84257445Y-130079045D01*
X84095006Y-130079045D01*
X84059338Y-130078964D01*
X84003568Y-130078167D01*
X83964430Y-130076162D01*
X83937976Y-130072521D01*
X83920259Y-130066812D01*
X83907329Y-130058607D01*
X83903686Y-130055423D01*
X83885278Y-130024448D01*
X83884644Y-129988112D01*
X83902183Y-129954493D01*
X83902245Y-129954424D01*
X83911916Y-129945798D01*
X83925209Y-129939742D01*
X83945917Y-129935811D01*
X83977828Y-129933556D01*
X84024734Y-129932531D01*
X84090424Y-129932289D01*
X84258571Y-129932289D01*
X84255186Y-129867378D01*
X84251800Y-129802467D01*
X84009723Y-129799414D01*
X83984707Y-129799086D01*
X83903087Y-129797606D01*
X83840768Y-129795222D01*
X83795154Y-129791227D01*
X83763652Y-129784913D01*
X83743667Y-129775574D01*
X83732604Y-129762503D01*
X83727869Y-129744992D01*
X83726867Y-129722335D01*
X83726873Y-129719970D01*
X83728027Y-129699939D01*
X83732824Y-129684146D01*
X83743632Y-129672090D01*
X83762817Y-129663267D01*
X83792745Y-129657175D01*
X83835783Y-129653311D01*
X83894299Y-129651174D01*
X83970657Y-129650260D01*
X84067226Y-129650067D01*
X84357406Y-129650067D01*
X84380803Y-129679811D01*
G36*
X84380803Y-129679811D02*
G01*
X84385752Y-129686495D01*
X84391596Y-129697066D01*
X84396057Y-129711153D01*
X84399321Y-129731478D01*
X84401574Y-129760765D01*
X84403002Y-129801737D01*
X84403792Y-129857117D01*
X84404129Y-129929628D01*
X84404200Y-130021994D01*
X84404171Y-130087911D01*
X84403939Y-130166228D01*
X84403319Y-130226496D01*
X84402126Y-130271393D01*
X84400179Y-130303602D01*
X84397294Y-130325800D01*
X84393288Y-130340669D01*
X84387979Y-130350889D01*
X84381183Y-130359138D01*
X84376668Y-130363795D01*
X84368438Y-130370282D01*
X84357078Y-130375194D01*
X84339810Y-130378749D01*
X84313855Y-130381167D01*
X84276436Y-130382667D01*
X84224773Y-130383467D01*
X84156089Y-130383787D01*
X84067606Y-130383845D01*
X84047931Y-130383838D01*
X83960906Y-130383572D01*
X83893254Y-130382806D01*
X83842299Y-130381392D01*
X83805367Y-130379180D01*
X83779783Y-130376022D01*
X83762871Y-130371769D01*
X83751957Y-130366271D01*
X83741464Y-130356285D01*
X83728203Y-130325168D01*
X83729386Y-130289280D01*
X83745550Y-130257733D01*
X83747739Y-130255457D01*
X83756427Y-130249189D01*
X83769769Y-130244523D01*
X83790752Y-130241227D01*
X83822363Y-130239068D01*
X83867590Y-130237814D01*
X83929420Y-130237231D01*
X84010839Y-130237089D01*
X84257445Y-130237089D01*
X84257445Y-130079045D01*
X84095006Y-130079045D01*
X84059338Y-130078964D01*
X84003568Y-130078167D01*
X83964430Y-130076162D01*
X83937976Y-130072521D01*
X83920259Y-130066812D01*
X83907329Y-130058607D01*
X83903686Y-130055423D01*
X83885278Y-130024448D01*
X83884644Y-129988112D01*
X83902183Y-129954493D01*
X83902245Y-129954424D01*
X83911916Y-129945798D01*
X83925209Y-129939742D01*
X83945917Y-129935811D01*
X83977828Y-129933556D01*
X84024734Y-129932531D01*
X84090424Y-129932289D01*
X84258571Y-129932289D01*
X84255186Y-129867378D01*
X84251800Y-129802467D01*
X84009723Y-129799414D01*
X83984707Y-129799086D01*
X83903087Y-129797606D01*
X83840768Y-129795222D01*
X83795154Y-129791227D01*
X83763652Y-129784913D01*
X83743667Y-129775574D01*
X83732604Y-129762503D01*
X83727869Y-129744992D01*
X83726867Y-129722335D01*
X83726873Y-129719970D01*
X83728027Y-129699939D01*
X83732824Y-129684146D01*
X83743632Y-129672090D01*
X83762817Y-129663267D01*
X83792745Y-129657175D01*
X83835783Y-129653311D01*
X83894299Y-129651174D01*
X83970657Y-129650260D01*
X84067226Y-129650067D01*
X84357406Y-129650067D01*
X84380803Y-129679811D01*
G37*
X89057734Y-129650083D02*
X89134831Y-129650275D01*
X89193777Y-129650860D01*
X89237364Y-129652051D01*
X89268383Y-129654064D01*
X89289625Y-129657112D01*
X89303882Y-129661409D01*
X89313945Y-129667172D01*
X89322606Y-129674612D01*
X89324391Y-129676293D01*
X89331635Y-129683832D01*
X89337277Y-129692850D01*
X89341517Y-129705984D01*
X89344556Y-129725872D01*
X89346594Y-129755151D01*
X89347830Y-129796458D01*
X89348465Y-129852431D01*
X89348700Y-129925707D01*
X89348734Y-130018923D01*
X89348697Y-130091713D01*
X89348448Y-130169889D01*
X89347812Y-130230103D01*
X89346615Y-130274982D01*
X89344684Y-130307152D01*
X89341846Y-130329239D01*
X89337927Y-130343870D01*
X89332755Y-130353670D01*
X89326156Y-130361267D01*
X89322822Y-130364444D01*
X89314300Y-130370554D01*
X89302298Y-130375229D01*
X89284087Y-130378659D01*
X89256940Y-130381036D01*
X89218129Y-130382552D01*
X89164924Y-130383398D01*
X89094598Y-130383765D01*
X89004422Y-130383845D01*
X88962314Y-130383833D01*
X88881167Y-130383651D01*
X88818675Y-130383098D01*
X88772109Y-130381982D01*
X88738741Y-130380113D01*
X88715844Y-130377298D01*
X88700688Y-130373346D01*
X88690546Y-130368066D01*
X88682689Y-130361267D01*
X88667963Y-130339667D01*
X88660111Y-130310467D01*
X88665610Y-130286560D01*
X88682689Y-130259667D01*
X88687668Y-130255059D01*
X88697443Y-130248772D01*
X88711559Y-130244146D01*
X88733054Y-130240930D01*
X88764968Y-130238870D01*
X88810342Y-130237712D01*
X88872213Y-130237202D01*
X88953622Y-130237089D01*
X89201978Y-130237089D01*
X89201978Y-130079045D01*
X89040801Y-130079045D01*
X89004983Y-130078899D01*
X88939359Y-130077176D01*
X88892118Y-130072741D01*
X88860383Y-130064637D01*
X88841277Y-130051906D01*
X88831923Y-130033592D01*
X88829445Y-130008738D01*
X88830242Y-129988482D01*
X88835494Y-129966656D01*
X88848288Y-129951304D01*
X88871628Y-129941309D01*
X88908517Y-129935553D01*
X88961959Y-129932919D01*
X89034958Y-129932289D01*
X89203105Y-129932289D01*
X89199719Y-129867378D01*
X89196334Y-129802467D01*
X88948617Y-129799418D01*
X88886026Y-129798539D01*
X88817565Y-129797095D01*
X88766661Y-129795164D01*
X88730408Y-129792514D01*
X88705901Y-129788910D01*
X88690235Y-129784121D01*
X88680506Y-129777913D01*
X88674491Y-129771510D01*
X88661482Y-129739828D01*
X88665043Y-129704142D01*
X88684818Y-129673084D01*
X88688069Y-129670161D01*
X88697049Y-129663810D01*
X88709153Y-129658957D01*
X88727159Y-129655403D01*
X88753847Y-129652946D01*
X88791997Y-129651385D01*
X88844386Y-129650518D01*
X88913794Y-129650146D01*
X89003001Y-129650067D01*
X89057734Y-129650083D01*
G36*
X89057734Y-129650083D02*
G01*
X89134831Y-129650275D01*
X89193777Y-129650860D01*
X89237364Y-129652051D01*
X89268383Y-129654064D01*
X89289625Y-129657112D01*
X89303882Y-129661409D01*
X89313945Y-129667172D01*
X89322606Y-129674612D01*
X89324391Y-129676293D01*
X89331635Y-129683832D01*
X89337277Y-129692850D01*
X89341517Y-129705984D01*
X89344556Y-129725872D01*
X89346594Y-129755151D01*
X89347830Y-129796458D01*
X89348465Y-129852431D01*
X89348700Y-129925707D01*
X89348734Y-130018923D01*
X89348697Y-130091713D01*
X89348448Y-130169889D01*
X89347812Y-130230103D01*
X89346615Y-130274982D01*
X89344684Y-130307152D01*
X89341846Y-130329239D01*
X89337927Y-130343870D01*
X89332755Y-130353670D01*
X89326156Y-130361267D01*
X89322822Y-130364444D01*
X89314300Y-130370554D01*
X89302298Y-130375229D01*
X89284087Y-130378659D01*
X89256940Y-130381036D01*
X89218129Y-130382552D01*
X89164924Y-130383398D01*
X89094598Y-130383765D01*
X89004422Y-130383845D01*
X88962314Y-130383833D01*
X88881167Y-130383651D01*
X88818675Y-130383098D01*
X88772109Y-130381982D01*
X88738741Y-130380113D01*
X88715844Y-130377298D01*
X88700688Y-130373346D01*
X88690546Y-130368066D01*
X88682689Y-130361267D01*
X88667963Y-130339667D01*
X88660111Y-130310467D01*
X88665610Y-130286560D01*
X88682689Y-130259667D01*
X88687668Y-130255059D01*
X88697443Y-130248772D01*
X88711559Y-130244146D01*
X88733054Y-130240930D01*
X88764968Y-130238870D01*
X88810342Y-130237712D01*
X88872213Y-130237202D01*
X88953622Y-130237089D01*
X89201978Y-130237089D01*
X89201978Y-130079045D01*
X89040801Y-130079045D01*
X89004983Y-130078899D01*
X88939359Y-130077176D01*
X88892118Y-130072741D01*
X88860383Y-130064637D01*
X88841277Y-130051906D01*
X88831923Y-130033592D01*
X88829445Y-130008738D01*
X88830242Y-129988482D01*
X88835494Y-129966656D01*
X88848288Y-129951304D01*
X88871628Y-129941309D01*
X88908517Y-129935553D01*
X88961959Y-129932919D01*
X89034958Y-129932289D01*
X89203105Y-129932289D01*
X89199719Y-129867378D01*
X89196334Y-129802467D01*
X88948617Y-129799418D01*
X88886026Y-129798539D01*
X88817565Y-129797095D01*
X88766661Y-129795164D01*
X88730408Y-129792514D01*
X88705901Y-129788910D01*
X88690235Y-129784121D01*
X88680506Y-129777913D01*
X88674491Y-129771510D01*
X88661482Y-129739828D01*
X88665043Y-129704142D01*
X88684818Y-129673084D01*
X88688069Y-129670161D01*
X88697049Y-129663810D01*
X88709153Y-129658957D01*
X88727159Y-129655403D01*
X88753847Y-129652946D01*
X88791997Y-129651385D01*
X88844386Y-129650518D01*
X88913794Y-129650146D01*
X89003001Y-129650067D01*
X89057734Y-129650083D01*
G37*
X80490702Y-129659478D02*
X80508663Y-129677989D01*
X80529263Y-129709071D01*
X80554095Y-129754756D01*
X80584750Y-129817078D01*
X80622820Y-129898071D01*
X80637454Y-129929454D01*
X80667203Y-129992638D01*
X80693297Y-130047244D01*
X80714292Y-130090290D01*
X80728739Y-130118793D01*
X80735191Y-130129770D01*
X80736550Y-130129189D01*
X80746542Y-130115242D01*
X80763833Y-130085704D01*
X80786430Y-130044087D01*
X80812338Y-129993903D01*
X80828311Y-129962414D01*
X80857261Y-129907061D01*
X80879749Y-129868044D01*
X80897965Y-129842566D01*
X80914096Y-129827831D01*
X80930330Y-129821042D01*
X80948857Y-129819400D01*
X80959360Y-129819875D01*
X80975476Y-129824082D01*
X80990790Y-129834946D01*
X81007388Y-129855219D01*
X81027357Y-129887654D01*
X81052783Y-129935004D01*
X81085752Y-130000022D01*
X81095485Y-130019277D01*
X81119943Y-130065946D01*
X81140178Y-130102109D01*
X81154311Y-130124497D01*
X81160460Y-130129845D01*
X81161827Y-130126573D01*
X81171202Y-130105664D01*
X81188062Y-130068725D01*
X81210979Y-130018874D01*
X81238520Y-129959226D01*
X81269255Y-129892898D01*
X81295970Y-129835677D01*
X81325593Y-129773688D01*
X81348664Y-129727949D01*
X81366643Y-129695908D01*
X81380990Y-129675014D01*
X81393166Y-129662718D01*
X81404632Y-129656466D01*
X81414042Y-129653574D01*
X81439147Y-129653425D01*
X81466290Y-129668768D01*
X81467590Y-129669753D01*
X81489674Y-129692388D01*
X81500723Y-129714613D01*
X81500769Y-129715253D01*
X81496228Y-129732915D01*
X81483364Y-129767481D01*
X81463605Y-129815826D01*
X81438381Y-129874825D01*
X81409119Y-129941355D01*
X81377250Y-130012291D01*
X81344201Y-130084507D01*
X81311401Y-130154880D01*
X81280280Y-130220285D01*
X81252265Y-130277597D01*
X81228786Y-130323692D01*
X81211272Y-130355446D01*
X81201151Y-130369733D01*
X81166743Y-130383102D01*
X81125046Y-130376741D01*
X81119681Y-130372044D01*
X81103852Y-130349893D01*
X81081650Y-130313132D01*
X81055233Y-130265415D01*
X81026760Y-130210393D01*
X80946986Y-130051150D01*
X80873799Y-130197742D01*
X80864103Y-130217032D01*
X80837125Y-130269380D01*
X80813096Y-130314170D01*
X80794332Y-130347154D01*
X80783146Y-130364089D01*
X80782000Y-130365332D01*
X80753879Y-130380619D01*
X80718817Y-130382302D01*
X80687776Y-130369733D01*
X80685350Y-130366884D01*
X80673090Y-130346259D01*
X80653352Y-130308708D01*
X80627448Y-130256880D01*
X80596685Y-130193423D01*
X80562375Y-130120985D01*
X80525825Y-130042216D01*
X80505585Y-129998093D01*
X80468812Y-129917365D01*
X80440355Y-129853687D01*
X80419331Y-129804752D01*
X80404854Y-129768257D01*
X80396039Y-129741895D01*
X80392004Y-129723361D01*
X80391862Y-129710352D01*
X80394730Y-129700561D01*
X80409387Y-129679678D01*
X80435990Y-129659377D01*
X80436745Y-129659035D01*
X80456335Y-129652034D01*
X80473790Y-129651504D01*
X80490702Y-129659478D01*
G36*
X80490702Y-129659478D02*
G01*
X80508663Y-129677989D01*
X80529263Y-129709071D01*
X80554095Y-129754756D01*
X80584750Y-129817078D01*
X80622820Y-129898071D01*
X80637454Y-129929454D01*
X80667203Y-129992638D01*
X80693297Y-130047244D01*
X80714292Y-130090290D01*
X80728739Y-130118793D01*
X80735191Y-130129770D01*
X80736550Y-130129189D01*
X80746542Y-130115242D01*
X80763833Y-130085704D01*
X80786430Y-130044087D01*
X80812338Y-129993903D01*
X80828311Y-129962414D01*
X80857261Y-129907061D01*
X80879749Y-129868044D01*
X80897965Y-129842566D01*
X80914096Y-129827831D01*
X80930330Y-129821042D01*
X80948857Y-129819400D01*
X80959360Y-129819875D01*
X80975476Y-129824082D01*
X80990790Y-129834946D01*
X81007388Y-129855219D01*
X81027357Y-129887654D01*
X81052783Y-129935004D01*
X81085752Y-130000022D01*
X81095485Y-130019277D01*
X81119943Y-130065946D01*
X81140178Y-130102109D01*
X81154311Y-130124497D01*
X81160460Y-130129845D01*
X81161827Y-130126573D01*
X81171202Y-130105664D01*
X81188062Y-130068725D01*
X81210979Y-130018874D01*
X81238520Y-129959226D01*
X81269255Y-129892898D01*
X81295970Y-129835677D01*
X81325593Y-129773688D01*
X81348664Y-129727949D01*
X81366643Y-129695908D01*
X81380990Y-129675014D01*
X81393166Y-129662718D01*
X81404632Y-129656466D01*
X81414042Y-129653574D01*
X81439147Y-129653425D01*
X81466290Y-129668768D01*
X81467590Y-129669753D01*
X81489674Y-129692388D01*
X81500723Y-129714613D01*
X81500769Y-129715253D01*
X81496228Y-129732915D01*
X81483364Y-129767481D01*
X81463605Y-129815826D01*
X81438381Y-129874825D01*
X81409119Y-129941355D01*
X81377250Y-130012291D01*
X81344201Y-130084507D01*
X81311401Y-130154880D01*
X81280280Y-130220285D01*
X81252265Y-130277597D01*
X81228786Y-130323692D01*
X81211272Y-130355446D01*
X81201151Y-130369733D01*
X81166743Y-130383102D01*
X81125046Y-130376741D01*
X81119681Y-130372044D01*
X81103852Y-130349893D01*
X81081650Y-130313132D01*
X81055233Y-130265415D01*
X81026760Y-130210393D01*
X80946986Y-130051150D01*
X80873799Y-130197742D01*
X80864103Y-130217032D01*
X80837125Y-130269380D01*
X80813096Y-130314170D01*
X80794332Y-130347154D01*
X80783146Y-130364089D01*
X80782000Y-130365332D01*
X80753879Y-130380619D01*
X80718817Y-130382302D01*
X80687776Y-130369733D01*
X80685350Y-130366884D01*
X80673090Y-130346259D01*
X80653352Y-130308708D01*
X80627448Y-130256880D01*
X80596685Y-130193423D01*
X80562375Y-130120985D01*
X80525825Y-130042216D01*
X80505585Y-129998093D01*
X80468812Y-129917365D01*
X80440355Y-129853687D01*
X80419331Y-129804752D01*
X80404854Y-129768257D01*
X80396039Y-129741895D01*
X80392004Y-129723361D01*
X80391862Y-129710352D01*
X80394730Y-129700561D01*
X80409387Y-129679678D01*
X80435990Y-129659377D01*
X80436745Y-129659035D01*
X80456335Y-129652034D01*
X80473790Y-129651504D01*
X80490702Y-129659478D01*
G37*
X88041853Y-129650936D02*
X88108100Y-129656366D01*
X88163400Y-129665964D01*
X88214283Y-129680825D01*
X88285595Y-129713958D01*
X88336752Y-129756640D01*
X88367575Y-129808705D01*
X88377889Y-129869983D01*
X88376952Y-129901232D01*
X88371160Y-129926029D01*
X88356353Y-129947699D01*
X88328380Y-129975049D01*
X88320402Y-129982378D01*
X88296692Y-130003281D01*
X88274298Y-130020251D01*
X88250265Y-130034205D01*
X88221637Y-130046056D01*
X88185460Y-130056720D01*
X88138780Y-130067111D01*
X88078641Y-130078146D01*
X88002090Y-130090738D01*
X87906171Y-130105804D01*
X87887808Y-130108838D01*
X87825478Y-130122458D01*
X87780260Y-130138192D01*
X87753976Y-130155263D01*
X87748447Y-130172897D01*
X87751068Y-130177168D01*
X87769000Y-130192233D01*
X87797126Y-130208867D01*
X87809926Y-130214857D01*
X87831224Y-130222050D01*
X87857610Y-130226827D01*
X87893454Y-130229646D01*
X87943128Y-130230964D01*
X88011000Y-130231237D01*
X88028785Y-130231164D01*
X88096406Y-130230053D01*
X88161345Y-130227828D01*
X88216970Y-130224762D01*
X88256651Y-130221127D01*
X88292162Y-130217059D01*
X88321415Y-130216276D01*
X88340315Y-130220876D01*
X88355429Y-130231551D01*
X88359085Y-130235144D01*
X88375427Y-130266918D01*
X88374107Y-130302572D01*
X88355150Y-130333190D01*
X88334780Y-130344796D01*
X88298796Y-130357491D01*
X88256372Y-130367541D01*
X88252922Y-130368140D01*
X88210252Y-130373356D01*
X88152866Y-130377730D01*
X88087849Y-130380818D01*
X88022289Y-130382177D01*
X88006057Y-130382218D01*
X87907744Y-130379741D01*
X87827692Y-130371735D01*
X87762513Y-130357203D01*
X87708817Y-130335149D01*
X87663216Y-130304576D01*
X87622323Y-130264486D01*
X87602202Y-130238259D01*
X87590576Y-130208712D01*
X87587667Y-130168995D01*
X87587808Y-130157026D01*
X87591681Y-130124345D01*
X87604065Y-130097819D01*
X87629230Y-130066971D01*
X87650442Y-130044831D01*
X87676838Y-130022285D01*
X87706555Y-130003917D01*
X87742785Y-129988661D01*
X87788717Y-129975449D01*
X87847544Y-129963214D01*
X87922456Y-129950889D01*
X88016645Y-129937406D01*
X88061957Y-129930396D01*
X88129911Y-129915837D01*
X88179047Y-129899337D01*
X88208614Y-129881439D01*
X88217864Y-129862685D01*
X88206048Y-129843615D01*
X88172416Y-129824771D01*
X88169370Y-129823557D01*
X88123011Y-129811479D01*
X88060361Y-129803279D01*
X87986927Y-129799119D01*
X87908217Y-129799161D01*
X87829739Y-129803569D01*
X87757000Y-129812505D01*
X87753073Y-129813154D01*
X87704257Y-129820861D01*
X87672005Y-129824473D01*
X87651008Y-129823876D01*
X87635954Y-129818954D01*
X87621534Y-129809596D01*
X87620364Y-129808725D01*
X87595847Y-129778351D01*
X87591054Y-129742850D01*
X87606860Y-129708269D01*
X87611406Y-129703813D01*
X87641020Y-129688673D01*
X87688002Y-129675550D01*
X87748306Y-129664750D01*
X87817888Y-129656581D01*
X87892703Y-129651351D01*
X87968706Y-129649367D01*
X88041853Y-129650936D01*
G36*
X88041853Y-129650936D02*
G01*
X88108100Y-129656366D01*
X88163400Y-129665964D01*
X88214283Y-129680825D01*
X88285595Y-129713958D01*
X88336752Y-129756640D01*
X88367575Y-129808705D01*
X88377889Y-129869983D01*
X88376952Y-129901232D01*
X88371160Y-129926029D01*
X88356353Y-129947699D01*
X88328380Y-129975049D01*
X88320402Y-129982378D01*
X88296692Y-130003281D01*
X88274298Y-130020251D01*
X88250265Y-130034205D01*
X88221637Y-130046056D01*
X88185460Y-130056720D01*
X88138780Y-130067111D01*
X88078641Y-130078146D01*
X88002090Y-130090738D01*
X87906171Y-130105804D01*
X87887808Y-130108838D01*
X87825478Y-130122458D01*
X87780260Y-130138192D01*
X87753976Y-130155263D01*
X87748447Y-130172897D01*
X87751068Y-130177168D01*
X87769000Y-130192233D01*
X87797126Y-130208867D01*
X87809926Y-130214857D01*
X87831224Y-130222050D01*
X87857610Y-130226827D01*
X87893454Y-130229646D01*
X87943128Y-130230964D01*
X88011000Y-130231237D01*
X88028785Y-130231164D01*
X88096406Y-130230053D01*
X88161345Y-130227828D01*
X88216970Y-130224762D01*
X88256651Y-130221127D01*
X88292162Y-130217059D01*
X88321415Y-130216276D01*
X88340315Y-130220876D01*
X88355429Y-130231551D01*
X88359085Y-130235144D01*
X88375427Y-130266918D01*
X88374107Y-130302572D01*
X88355150Y-130333190D01*
X88334780Y-130344796D01*
X88298796Y-130357491D01*
X88256372Y-130367541D01*
X88252922Y-130368140D01*
X88210252Y-130373356D01*
X88152866Y-130377730D01*
X88087849Y-130380818D01*
X88022289Y-130382177D01*
X88006057Y-130382218D01*
X87907744Y-130379741D01*
X87827692Y-130371735D01*
X87762513Y-130357203D01*
X87708817Y-130335149D01*
X87663216Y-130304576D01*
X87622323Y-130264486D01*
X87602202Y-130238259D01*
X87590576Y-130208712D01*
X87587667Y-130168995D01*
X87587808Y-130157026D01*
X87591681Y-130124345D01*
X87604065Y-130097819D01*
X87629230Y-130066971D01*
X87650442Y-130044831D01*
X87676838Y-130022285D01*
X87706555Y-130003917D01*
X87742785Y-129988661D01*
X87788717Y-129975449D01*
X87847544Y-129963214D01*
X87922456Y-129950889D01*
X88016645Y-129937406D01*
X88061957Y-129930396D01*
X88129911Y-129915837D01*
X88179047Y-129899337D01*
X88208614Y-129881439D01*
X88217864Y-129862685D01*
X88206048Y-129843615D01*
X88172416Y-129824771D01*
X88169370Y-129823557D01*
X88123011Y-129811479D01*
X88060361Y-129803279D01*
X87986927Y-129799119D01*
X87908217Y-129799161D01*
X87829739Y-129803569D01*
X87757000Y-129812505D01*
X87753073Y-129813154D01*
X87704257Y-129820861D01*
X87672005Y-129824473D01*
X87651008Y-129823876D01*
X87635954Y-129818954D01*
X87621534Y-129809596D01*
X87620364Y-129808725D01*
X87595847Y-129778351D01*
X87591054Y-129742850D01*
X87606860Y-129708269D01*
X87611406Y-129703813D01*
X87641020Y-129688673D01*
X87688002Y-129675550D01*
X87748306Y-129664750D01*
X87817888Y-129656581D01*
X87892703Y-129651351D01*
X87968706Y-129649367D01*
X88041853Y-129650936D01*
G37*
X84189711Y-125343033D02*
X84285268Y-125360523D01*
X84449558Y-125405564D01*
X84603589Y-125468656D01*
X84749509Y-125550915D01*
X84889466Y-125653457D01*
X85025608Y-125777399D01*
X85069473Y-125822661D01*
X85181758Y-125954865D01*
X85274972Y-126092832D01*
X85351719Y-126240750D01*
X85414603Y-126402803D01*
X85418420Y-126414391D01*
X85468507Y-126600392D01*
X85501899Y-126796521D01*
X85518584Y-126998568D01*
X85518551Y-127202325D01*
X85501791Y-127403581D01*
X85468292Y-127598128D01*
X85418044Y-127781756D01*
X85374190Y-127899053D01*
X85296348Y-128061951D01*
X85202828Y-128215866D01*
X85095822Y-128357671D01*
X84977519Y-128484239D01*
X84850111Y-128592441D01*
X84772606Y-128645120D01*
X84645725Y-128714750D01*
X84508243Y-128773468D01*
X84366716Y-128818587D01*
X84227702Y-128847422D01*
X84213597Y-128849106D01*
X84170153Y-128852434D01*
X84112723Y-128855275D01*
X84047122Y-128857373D01*
X83979167Y-128858468D01*
X83852378Y-128856140D01*
X83704673Y-128843136D01*
X83566779Y-128818133D01*
X83433014Y-128780318D01*
X83409562Y-128771889D01*
X83361612Y-128752408D01*
X83305140Y-128727473D01*
X83243379Y-128698722D01*
X83179563Y-128667790D01*
X83116926Y-128636315D01*
X83058703Y-128605934D01*
X83008127Y-128578283D01*
X82968433Y-128554999D01*
X82942854Y-128537718D01*
X82934625Y-128528079D01*
X82936076Y-128524984D01*
X82947250Y-128505079D01*
X82968134Y-128469420D01*
X82997265Y-128420459D01*
X83033181Y-128360646D01*
X83074420Y-128292433D01*
X83119517Y-128218271D01*
X83300785Y-127921008D01*
X83347315Y-127965539D01*
X83438723Y-128043865D01*
X83552334Y-128118439D01*
X83670122Y-128172474D01*
X83790559Y-128205290D01*
X83912117Y-128216211D01*
X83953585Y-128214868D01*
X84071080Y-128196612D01*
X84181089Y-128157617D01*
X84282430Y-128098670D01*
X84373921Y-128020557D01*
X84454380Y-127924064D01*
X84522627Y-127809978D01*
X84538908Y-127775724D01*
X84584982Y-127652240D01*
X84620106Y-127513918D01*
X84644197Y-127364561D01*
X84657173Y-127207973D01*
X84658949Y-127047956D01*
X84649443Y-126888314D01*
X84628572Y-126732850D01*
X84596252Y-126585366D01*
X84552399Y-126449667D01*
X84514982Y-126363076D01*
X84450185Y-126249688D01*
X84374772Y-126156070D01*
X84288418Y-126081959D01*
X84190795Y-126027094D01*
X84081577Y-125991212D01*
X83960439Y-125974051D01*
X83891038Y-125972880D01*
X83768168Y-125987141D01*
X83652664Y-126022241D01*
X83545953Y-126077682D01*
X83449464Y-126152964D01*
X83433720Y-126167440D01*
X83403150Y-126193962D01*
X83380809Y-126211138D01*
X83370691Y-126215787D01*
X83368706Y-126213597D01*
X83354241Y-126194721D01*
X83330400Y-126161397D01*
X83299029Y-126116380D01*
X83261974Y-126062425D01*
X83221083Y-126002285D01*
X83178202Y-125938718D01*
X83135178Y-125874476D01*
X83093857Y-125812315D01*
X83056086Y-125754991D01*
X83023712Y-125705257D01*
X82998582Y-125665868D01*
X82982542Y-125639580D01*
X82977439Y-125629147D01*
X82982050Y-125624941D01*
X83001267Y-125619933D01*
X83010838Y-125617386D01*
X83038809Y-125606249D01*
X83080448Y-125587802D01*
X83131995Y-125563725D01*
X83189690Y-125535699D01*
X83200957Y-125530154D01*
X83378687Y-125450889D01*
X83548490Y-125391385D01*
X83712430Y-125351245D01*
X83872571Y-125330071D01*
X84030977Y-125327466D01*
X84189711Y-125343033D01*
G36*
X84189711Y-125343033D02*
G01*
X84285268Y-125360523D01*
X84449558Y-125405564D01*
X84603589Y-125468656D01*
X84749509Y-125550915D01*
X84889466Y-125653457D01*
X85025608Y-125777399D01*
X85069473Y-125822661D01*
X85181758Y-125954865D01*
X85274972Y-126092832D01*
X85351719Y-126240750D01*
X85414603Y-126402803D01*
X85418420Y-126414391D01*
X85468507Y-126600392D01*
X85501899Y-126796521D01*
X85518584Y-126998568D01*
X85518551Y-127202325D01*
X85501791Y-127403581D01*
X85468292Y-127598128D01*
X85418044Y-127781756D01*
X85374190Y-127899053D01*
X85296348Y-128061951D01*
X85202828Y-128215866D01*
X85095822Y-128357671D01*
X84977519Y-128484239D01*
X84850111Y-128592441D01*
X84772606Y-128645120D01*
X84645725Y-128714750D01*
X84508243Y-128773468D01*
X84366716Y-128818587D01*
X84227702Y-128847422D01*
X84213597Y-128849106D01*
X84170153Y-128852434D01*
X84112723Y-128855275D01*
X84047122Y-128857373D01*
X83979167Y-128858468D01*
X83852378Y-128856140D01*
X83704673Y-128843136D01*
X83566779Y-128818133D01*
X83433014Y-128780318D01*
X83409562Y-128771889D01*
X83361612Y-128752408D01*
X83305140Y-128727473D01*
X83243379Y-128698722D01*
X83179563Y-128667790D01*
X83116926Y-128636315D01*
X83058703Y-128605934D01*
X83008127Y-128578283D01*
X82968433Y-128554999D01*
X82942854Y-128537718D01*
X82934625Y-128528079D01*
X82936076Y-128524984D01*
X82947250Y-128505079D01*
X82968134Y-128469420D01*
X82997265Y-128420459D01*
X83033181Y-128360646D01*
X83074420Y-128292433D01*
X83119517Y-128218271D01*
X83300785Y-127921008D01*
X83347315Y-127965539D01*
X83438723Y-128043865D01*
X83552334Y-128118439D01*
X83670122Y-128172474D01*
X83790559Y-128205290D01*
X83912117Y-128216211D01*
X83953585Y-128214868D01*
X84071080Y-128196612D01*
X84181089Y-128157617D01*
X84282430Y-128098670D01*
X84373921Y-128020557D01*
X84454380Y-127924064D01*
X84522627Y-127809978D01*
X84538908Y-127775724D01*
X84584982Y-127652240D01*
X84620106Y-127513918D01*
X84644197Y-127364561D01*
X84657173Y-127207973D01*
X84658949Y-127047956D01*
X84649443Y-126888314D01*
X84628572Y-126732850D01*
X84596252Y-126585366D01*
X84552399Y-126449667D01*
X84514982Y-126363076D01*
X84450185Y-126249688D01*
X84374772Y-126156070D01*
X84288418Y-126081959D01*
X84190795Y-126027094D01*
X84081577Y-125991212D01*
X83960439Y-125974051D01*
X83891038Y-125972880D01*
X83768168Y-125987141D01*
X83652664Y-126022241D01*
X83545953Y-126077682D01*
X83449464Y-126152964D01*
X83433720Y-126167440D01*
X83403150Y-126193962D01*
X83380809Y-126211138D01*
X83370691Y-126215787D01*
X83368706Y-126213597D01*
X83354241Y-126194721D01*
X83330400Y-126161397D01*
X83299029Y-126116380D01*
X83261974Y-126062425D01*
X83221083Y-126002285D01*
X83178202Y-125938718D01*
X83135178Y-125874476D01*
X83093857Y-125812315D01*
X83056086Y-125754991D01*
X83023712Y-125705257D01*
X82998582Y-125665868D01*
X82982542Y-125639580D01*
X82977439Y-125629147D01*
X82982050Y-125624941D01*
X83001267Y-125619933D01*
X83010838Y-125617386D01*
X83038809Y-125606249D01*
X83080448Y-125587802D01*
X83131995Y-125563725D01*
X83189690Y-125535699D01*
X83200957Y-125530154D01*
X83378687Y-125450889D01*
X83548490Y-125391385D01*
X83712430Y-125351245D01*
X83872571Y-125330071D01*
X84030977Y-125327466D01*
X84189711Y-125343033D01*
G37*
X80386994Y-127623711D02*
X80386268Y-127701158D01*
X80377689Y-127852594D01*
X80358833Y-127989283D01*
X80328837Y-128115276D01*
X80286836Y-128234625D01*
X80231969Y-128351381D01*
X80165167Y-128462179D01*
X80074363Y-128575739D01*
X79970708Y-128671211D01*
X79854887Y-128748073D01*
X79727586Y-128805797D01*
X79589489Y-128843858D01*
X79551793Y-128849666D01*
X79472752Y-128855396D01*
X79384629Y-128855583D01*
X79295236Y-128850539D01*
X79212384Y-128840578D01*
X79143887Y-128826012D01*
X79113035Y-128816364D01*
X79035730Y-128786123D01*
X78958679Y-128748617D01*
X78889200Y-128707614D01*
X78834615Y-128666879D01*
X78811916Y-128647505D01*
X78789201Y-128629662D01*
X78777779Y-128622778D01*
X78776537Y-128624424D01*
X78773728Y-128642205D01*
X78771776Y-128675370D01*
X78771045Y-128718733D01*
X78771045Y-128814689D01*
X77912896Y-128814689D01*
X77947161Y-128753974D01*
X77952355Y-128744868D01*
X77960715Y-128730249D01*
X77968288Y-128716173D01*
X77975112Y-128701540D01*
X77981227Y-128685249D01*
X77986673Y-128666198D01*
X77991487Y-128643286D01*
X77995708Y-128615413D01*
X77999377Y-128581478D01*
X78002531Y-128540379D01*
X78005211Y-128491015D01*
X78007454Y-128432286D01*
X78009299Y-128363090D01*
X78010787Y-128282326D01*
X78011955Y-128188894D01*
X78012844Y-128081692D01*
X78013491Y-127959620D01*
X78013936Y-127821576D01*
X78014218Y-127666459D01*
X78014375Y-127493168D01*
X78014448Y-127300603D01*
X78014474Y-127087662D01*
X78014485Y-126951530D01*
X78816200Y-126951530D01*
X78816200Y-128101721D01*
X78886756Y-128148089D01*
X78927417Y-128171791D01*
X78981546Y-128197639D01*
X79030689Y-128215829D01*
X79094165Y-128231551D01*
X79190331Y-128242541D01*
X79274900Y-128234365D01*
X79348219Y-128206805D01*
X79410637Y-128159642D01*
X79462502Y-128092658D01*
X79504160Y-128005633D01*
X79535962Y-127898350D01*
X79538545Y-127886009D01*
X79547000Y-127824772D01*
X79552663Y-127747692D01*
X79555576Y-127660002D01*
X79555783Y-127566934D01*
X79553330Y-127473720D01*
X79548261Y-127385594D01*
X79540619Y-127307788D01*
X79530448Y-127245533D01*
X79529167Y-127239666D01*
X79500126Y-127129121D01*
X79465610Y-127038575D01*
X79424456Y-126965953D01*
X79375499Y-126909181D01*
X79317574Y-126866184D01*
X79285620Y-126850615D01*
X79212784Y-126831722D01*
X79131443Y-126828465D01*
X79046319Y-126840389D01*
X78962133Y-126867040D01*
X78883608Y-126907962D01*
X78816200Y-126951530D01*
X78014485Y-126951530D01*
X78014493Y-126853245D01*
X78014689Y-125168378D01*
X78920017Y-125168378D01*
X78895585Y-125205067D01*
X78889318Y-125214647D01*
X78863208Y-125260981D01*
X78845469Y-125308102D01*
X78833908Y-125363251D01*
X78826331Y-125433667D01*
X78825839Y-125440650D01*
X78824062Y-125478641D01*
X78822444Y-125532576D01*
X78820999Y-125599703D01*
X78819740Y-125677271D01*
X78818680Y-125762528D01*
X78817829Y-125852724D01*
X78817203Y-125945107D01*
X78816812Y-126036925D01*
X78816670Y-126125427D01*
X78816790Y-126207862D01*
X78817183Y-126281479D01*
X78817862Y-126343526D01*
X78818841Y-126391251D01*
X78820132Y-126421904D01*
X78821747Y-126432733D01*
X78829957Y-126428333D01*
X78851647Y-126413362D01*
X78881014Y-126391448D01*
X78929879Y-126357236D01*
X79018125Y-126310714D01*
X79116916Y-126277046D01*
X79229510Y-126255231D01*
X79359164Y-126244265D01*
X79451670Y-126243219D01*
X79573011Y-126253014D01*
X79683099Y-126277174D01*
X79786389Y-126316785D01*
X79887338Y-126372932D01*
X79932503Y-126403883D01*
X80037911Y-126495115D01*
X80129538Y-126604106D01*
X80207332Y-126730726D01*
X80271241Y-126874845D01*
X80321214Y-127036332D01*
X80357198Y-127215059D01*
X80379143Y-127410895D01*
X80384900Y-127566934D01*
X80386994Y-127623711D01*
G36*
X80386994Y-127623711D02*
G01*
X80386268Y-127701158D01*
X80377689Y-127852594D01*
X80358833Y-127989283D01*
X80328837Y-128115276D01*
X80286836Y-128234625D01*
X80231969Y-128351381D01*
X80165167Y-128462179D01*
X80074363Y-128575739D01*
X79970708Y-128671211D01*
X79854887Y-128748073D01*
X79727586Y-128805797D01*
X79589489Y-128843858D01*
X79551793Y-128849666D01*
X79472752Y-128855396D01*
X79384629Y-128855583D01*
X79295236Y-128850539D01*
X79212384Y-128840578D01*
X79143887Y-128826012D01*
X79113035Y-128816364D01*
X79035730Y-128786123D01*
X78958679Y-128748617D01*
X78889200Y-128707614D01*
X78834615Y-128666879D01*
X78811916Y-128647505D01*
X78789201Y-128629662D01*
X78777779Y-128622778D01*
X78776537Y-128624424D01*
X78773728Y-128642205D01*
X78771776Y-128675370D01*
X78771045Y-128718733D01*
X78771045Y-128814689D01*
X77912896Y-128814689D01*
X77947161Y-128753974D01*
X77952355Y-128744868D01*
X77960715Y-128730249D01*
X77968288Y-128716173D01*
X77975112Y-128701540D01*
X77981227Y-128685249D01*
X77986673Y-128666198D01*
X77991487Y-128643286D01*
X77995708Y-128615413D01*
X77999377Y-128581478D01*
X78002531Y-128540379D01*
X78005211Y-128491015D01*
X78007454Y-128432286D01*
X78009299Y-128363090D01*
X78010787Y-128282326D01*
X78011955Y-128188894D01*
X78012844Y-128081692D01*
X78013491Y-127959620D01*
X78013936Y-127821576D01*
X78014218Y-127666459D01*
X78014375Y-127493168D01*
X78014448Y-127300603D01*
X78014474Y-127087662D01*
X78014485Y-126951530D01*
X78816200Y-126951530D01*
X78816200Y-128101721D01*
X78886756Y-128148089D01*
X78927417Y-128171791D01*
X78981546Y-128197639D01*
X79030689Y-128215829D01*
X79094165Y-128231551D01*
X79190331Y-128242541D01*
X79274900Y-128234365D01*
X79348219Y-128206805D01*
X79410637Y-128159642D01*
X79462502Y-128092658D01*
X79504160Y-128005633D01*
X79535962Y-127898350D01*
X79538545Y-127886009D01*
X79547000Y-127824772D01*
X79552663Y-127747692D01*
X79555576Y-127660002D01*
X79555783Y-127566934D01*
X79553330Y-127473720D01*
X79548261Y-127385594D01*
X79540619Y-127307788D01*
X79530448Y-127245533D01*
X79529167Y-127239666D01*
X79500126Y-127129121D01*
X79465610Y-127038575D01*
X79424456Y-126965953D01*
X79375499Y-126909181D01*
X79317574Y-126866184D01*
X79285620Y-126850615D01*
X79212784Y-126831722D01*
X79131443Y-126828465D01*
X79046319Y-126840389D01*
X78962133Y-126867040D01*
X78883608Y-126907962D01*
X78816200Y-126951530D01*
X78014485Y-126951530D01*
X78014493Y-126853245D01*
X78014689Y-125168378D01*
X78920017Y-125168378D01*
X78895585Y-125205067D01*
X78889318Y-125214647D01*
X78863208Y-125260981D01*
X78845469Y-125308102D01*
X78833908Y-125363251D01*
X78826331Y-125433667D01*
X78825839Y-125440650D01*
X78824062Y-125478641D01*
X78822444Y-125532576D01*
X78820999Y-125599703D01*
X78819740Y-125677271D01*
X78818680Y-125762528D01*
X78817829Y-125852724D01*
X78817203Y-125945107D01*
X78816812Y-126036925D01*
X78816670Y-126125427D01*
X78816790Y-126207862D01*
X78817183Y-126281479D01*
X78817862Y-126343526D01*
X78818841Y-126391251D01*
X78820132Y-126421904D01*
X78821747Y-126432733D01*
X78829957Y-126428333D01*
X78851647Y-126413362D01*
X78881014Y-126391448D01*
X78929879Y-126357236D01*
X79018125Y-126310714D01*
X79116916Y-126277046D01*
X79229510Y-126255231D01*
X79359164Y-126244265D01*
X79451670Y-126243219D01*
X79573011Y-126253014D01*
X79683099Y-126277174D01*
X79786389Y-126316785D01*
X79887338Y-126372932D01*
X79932503Y-126403883D01*
X80037911Y-126495115D01*
X80129538Y-126604106D01*
X80207332Y-126730726D01*
X80271241Y-126874845D01*
X80321214Y-127036332D01*
X80357198Y-127215059D01*
X80379143Y-127410895D01*
X80384900Y-127566934D01*
X80386994Y-127623711D01*
G37*
X82928755Y-128024467D02*
X82928261Y-128058363D01*
X82924632Y-128133202D01*
X82917022Y-128195401D01*
X82904688Y-128251984D01*
X82860313Y-128378076D01*
X82797400Y-128492679D01*
X82717238Y-128593568D01*
X82620740Y-128679924D01*
X82508822Y-128750932D01*
X82382397Y-128805776D01*
X82242378Y-128843638D01*
X82206149Y-128849351D01*
X82127155Y-128855313D01*
X82038841Y-128855646D01*
X81949075Y-128850659D01*
X81865722Y-128840666D01*
X81796651Y-128825978D01*
X81710187Y-128795749D01*
X81600286Y-128741057D01*
X81502956Y-128673543D01*
X81440867Y-128622556D01*
X81437605Y-128718622D01*
X81434343Y-128814689D01*
X81011450Y-128814689D01*
X81000543Y-128814686D01*
X80906056Y-128814380D01*
X80819331Y-128813616D01*
X80742837Y-128812451D01*
X80679043Y-128810942D01*
X80630418Y-128809147D01*
X80599433Y-128807121D01*
X80588556Y-128804922D01*
X80588578Y-128804463D01*
X80595614Y-128788910D01*
X80611434Y-128766071D01*
X80615734Y-128760638D01*
X80626777Y-128746606D01*
X80636311Y-128733186D01*
X80644461Y-128718722D01*
X80651352Y-128701556D01*
X80657111Y-128680034D01*
X80661862Y-128652498D01*
X80665731Y-128617292D01*
X80668844Y-128572760D01*
X80671325Y-128517246D01*
X80673300Y-128449093D01*
X80674894Y-128366645D01*
X80676234Y-128268246D01*
X80677444Y-128152239D01*
X80678649Y-128016968D01*
X80679595Y-127905586D01*
X81480378Y-127905586D01*
X81480378Y-128101462D01*
X81525048Y-128157973D01*
X81537785Y-128173212D01*
X81584604Y-128215844D01*
X81645255Y-128251672D01*
X81655897Y-128256850D01*
X81694676Y-128273745D01*
X81729692Y-128283909D01*
X81769722Y-128289325D01*
X81823541Y-128291978D01*
X81841648Y-128292383D01*
X81917011Y-128289540D01*
X81977743Y-128277620D01*
X82029452Y-128255037D01*
X82077746Y-128220211D01*
X82082803Y-128215798D01*
X82131272Y-128160160D01*
X82159459Y-128096333D01*
X82168752Y-128021282D01*
X82161520Y-127949693D01*
X82136796Y-127886645D01*
X82092249Y-127828758D01*
X82037319Y-127781808D01*
X81964894Y-127741961D01*
X81878340Y-127714263D01*
X81775670Y-127698096D01*
X81654894Y-127692842D01*
X81646007Y-127692857D01*
X81590660Y-127693655D01*
X81543736Y-127695488D01*
X81509953Y-127698111D01*
X81494028Y-127701274D01*
X81489943Y-127707741D01*
X81485572Y-127729875D01*
X81482604Y-127768988D01*
X81480914Y-127826939D01*
X81480378Y-127905586D01*
X80679595Y-127905586D01*
X80679975Y-127860778D01*
X80681228Y-127718012D01*
X80682651Y-127572942D01*
X80684176Y-127447027D01*
X80685933Y-127338436D01*
X80688051Y-127245334D01*
X80690660Y-127165891D01*
X80693890Y-127098273D01*
X80697869Y-127040649D01*
X80702728Y-126991185D01*
X80708597Y-126948050D01*
X80715604Y-126909410D01*
X80723880Y-126873434D01*
X80733554Y-126838289D01*
X80744756Y-126802142D01*
X80757616Y-126763161D01*
X80773090Y-126720091D01*
X80815994Y-126627871D01*
X80869735Y-126548099D01*
X80938576Y-126473965D01*
X81016185Y-126410405D01*
X81120761Y-126348725D01*
X81240244Y-126301202D01*
X81375508Y-126267567D01*
X81527426Y-126247552D01*
X81696872Y-126240889D01*
X81754890Y-126241287D01*
X81820398Y-126243335D01*
X81881693Y-126247704D01*
X81943097Y-126255035D01*
X82008932Y-126265969D01*
X82083520Y-126281147D01*
X82171184Y-126301209D01*
X82276245Y-126326797D01*
X82304806Y-126333820D01*
X82380054Y-126351776D01*
X82450388Y-126367820D01*
X82511567Y-126381028D01*
X82559354Y-126390474D01*
X82589511Y-126395231D01*
X82617783Y-126398910D01*
X82644060Y-126404187D01*
X82654059Y-126408942D01*
X82650952Y-126417781D01*
X82640194Y-126445072D01*
X82622864Y-126487906D01*
X82600126Y-126543425D01*
X82573147Y-126608772D01*
X82543090Y-126681089D01*
X82536493Y-126696879D01*
X82497907Y-126787484D01*
X82466768Y-126857217D01*
X82442917Y-126906405D01*
X82426198Y-126935374D01*
X82416454Y-126944452D01*
X82408766Y-126942405D01*
X82382415Y-126932760D01*
X82343982Y-126917190D01*
X82298822Y-126897815D01*
X82204293Y-126859814D01*
X82067480Y-126818780D01*
X81926289Y-126793612D01*
X81888314Y-126789611D01*
X81785059Y-126787447D01*
X81697952Y-126800622D01*
X81626129Y-126829756D01*
X81568731Y-126875466D01*
X81524896Y-126938372D01*
X81493762Y-127019092D01*
X81474470Y-127118245D01*
X81467050Y-127177224D01*
X81628936Y-127170445D01*
X81755495Y-127168813D01*
X81906951Y-127175194D01*
X82055396Y-127189777D01*
X82191578Y-127211882D01*
X82256245Y-127226821D01*
X82388490Y-127269741D01*
X82510762Y-127326340D01*
X82620685Y-127395017D01*
X82715883Y-127474170D01*
X82793980Y-127562196D01*
X82852599Y-127657493D01*
X82876595Y-127709864D01*
X82902232Y-127780590D01*
X82918478Y-127851812D01*
X82926822Y-127930712D01*
X82928690Y-128021282D01*
X82928755Y-128024467D01*
G36*
X82928755Y-128024467D02*
G01*
X82928261Y-128058363D01*
X82924632Y-128133202D01*
X82917022Y-128195401D01*
X82904688Y-128251984D01*
X82860313Y-128378076D01*
X82797400Y-128492679D01*
X82717238Y-128593568D01*
X82620740Y-128679924D01*
X82508822Y-128750932D01*
X82382397Y-128805776D01*
X82242378Y-128843638D01*
X82206149Y-128849351D01*
X82127155Y-128855313D01*
X82038841Y-128855646D01*
X81949075Y-128850659D01*
X81865722Y-128840666D01*
X81796651Y-128825978D01*
X81710187Y-128795749D01*
X81600286Y-128741057D01*
X81502956Y-128673543D01*
X81440867Y-128622556D01*
X81437605Y-128718622D01*
X81434343Y-128814689D01*
X81011450Y-128814689D01*
X81000543Y-128814686D01*
X80906056Y-128814380D01*
X80819331Y-128813616D01*
X80742837Y-128812451D01*
X80679043Y-128810942D01*
X80630418Y-128809147D01*
X80599433Y-128807121D01*
X80588556Y-128804922D01*
X80588578Y-128804463D01*
X80595614Y-128788910D01*
X80611434Y-128766071D01*
X80615734Y-128760638D01*
X80626777Y-128746606D01*
X80636311Y-128733186D01*
X80644461Y-128718722D01*
X80651352Y-128701556D01*
X80657111Y-128680034D01*
X80661862Y-128652498D01*
X80665731Y-128617292D01*
X80668844Y-128572760D01*
X80671325Y-128517246D01*
X80673300Y-128449093D01*
X80674894Y-128366645D01*
X80676234Y-128268246D01*
X80677444Y-128152239D01*
X80678649Y-128016968D01*
X80679595Y-127905586D01*
X81480378Y-127905586D01*
X81480378Y-128101462D01*
X81525048Y-128157973D01*
X81537785Y-128173212D01*
X81584604Y-128215844D01*
X81645255Y-128251672D01*
X81655897Y-128256850D01*
X81694676Y-128273745D01*
X81729692Y-128283909D01*
X81769722Y-128289325D01*
X81823541Y-128291978D01*
X81841648Y-128292383D01*
X81917011Y-128289540D01*
X81977743Y-128277620D01*
X82029452Y-128255037D01*
X82077746Y-128220211D01*
X82082803Y-128215798D01*
X82131272Y-128160160D01*
X82159459Y-128096333D01*
X82168752Y-128021282D01*
X82161520Y-127949693D01*
X82136796Y-127886645D01*
X82092249Y-127828758D01*
X82037319Y-127781808D01*
X81964894Y-127741961D01*
X81878340Y-127714263D01*
X81775670Y-127698096D01*
X81654894Y-127692842D01*
X81646007Y-127692857D01*
X81590660Y-127693655D01*
X81543736Y-127695488D01*
X81509953Y-127698111D01*
X81494028Y-127701274D01*
X81489943Y-127707741D01*
X81485572Y-127729875D01*
X81482604Y-127768988D01*
X81480914Y-127826939D01*
X81480378Y-127905586D01*
X80679595Y-127905586D01*
X80679975Y-127860778D01*
X80681228Y-127718012D01*
X80682651Y-127572942D01*
X80684176Y-127447027D01*
X80685933Y-127338436D01*
X80688051Y-127245334D01*
X80690660Y-127165891D01*
X80693890Y-127098273D01*
X80697869Y-127040649D01*
X80702728Y-126991185D01*
X80708597Y-126948050D01*
X80715604Y-126909410D01*
X80723880Y-126873434D01*
X80733554Y-126838289D01*
X80744756Y-126802142D01*
X80757616Y-126763161D01*
X80773090Y-126720091D01*
X80815994Y-126627871D01*
X80869735Y-126548099D01*
X80938576Y-126473965D01*
X81016185Y-126410405D01*
X81120761Y-126348725D01*
X81240244Y-126301202D01*
X81375508Y-126267567D01*
X81527426Y-126247552D01*
X81696872Y-126240889D01*
X81754890Y-126241287D01*
X81820398Y-126243335D01*
X81881693Y-126247704D01*
X81943097Y-126255035D01*
X82008932Y-126265969D01*
X82083520Y-126281147D01*
X82171184Y-126301209D01*
X82276245Y-126326797D01*
X82304806Y-126333820D01*
X82380054Y-126351776D01*
X82450388Y-126367820D01*
X82511567Y-126381028D01*
X82559354Y-126390474D01*
X82589511Y-126395231D01*
X82617783Y-126398910D01*
X82644060Y-126404187D01*
X82654059Y-126408942D01*
X82650952Y-126417781D01*
X82640194Y-126445072D01*
X82622864Y-126487906D01*
X82600126Y-126543425D01*
X82573147Y-126608772D01*
X82543090Y-126681089D01*
X82536493Y-126696879D01*
X82497907Y-126787484D01*
X82466768Y-126857217D01*
X82442917Y-126906405D01*
X82426198Y-126935374D01*
X82416454Y-126944452D01*
X82408766Y-126942405D01*
X82382415Y-126932760D01*
X82343982Y-126917190D01*
X82298822Y-126897815D01*
X82204293Y-126859814D01*
X82067480Y-126818780D01*
X81926289Y-126793612D01*
X81888314Y-126789611D01*
X81785059Y-126787447D01*
X81697952Y-126800622D01*
X81626129Y-126829756D01*
X81568731Y-126875466D01*
X81524896Y-126938372D01*
X81493762Y-127019092D01*
X81474470Y-127118245D01*
X81467050Y-127177224D01*
X81628936Y-127170445D01*
X81755495Y-127168813D01*
X81906951Y-127175194D01*
X82055396Y-127189777D01*
X82191578Y-127211882D01*
X82256245Y-127226821D01*
X82388490Y-127269741D01*
X82510762Y-127326340D01*
X82620685Y-127395017D01*
X82715883Y-127474170D01*
X82793980Y-127562196D01*
X82852599Y-127657493D01*
X82876595Y-127709864D01*
X82902232Y-127780590D01*
X82918478Y-127851812D01*
X82926822Y-127930712D01*
X82928690Y-128021282D01*
X82928755Y-128024467D01*
G37*
X90476614Y-125492792D02*
X90477059Y-125624011D01*
X90477362Y-125771216D01*
X90477548Y-125935349D01*
X90477642Y-126117352D01*
X90477671Y-126318165D01*
X90477661Y-126538732D01*
X90477636Y-126779992D01*
X90477622Y-127042889D01*
X90477622Y-127085040D01*
X90477646Y-127345668D01*
X90477685Y-127584796D01*
X90477708Y-127803360D01*
X90477687Y-128002295D01*
X90477593Y-128182535D01*
X90477395Y-128345015D01*
X90477063Y-128490670D01*
X90476569Y-128620434D01*
X90475883Y-128735243D01*
X90474976Y-128836030D01*
X90473817Y-128923730D01*
X90472378Y-128999279D01*
X90470629Y-129063611D01*
X90468540Y-129117661D01*
X90466083Y-129162363D01*
X90463227Y-129198652D01*
X90459943Y-129227463D01*
X90456202Y-129249731D01*
X90451974Y-129266390D01*
X90447229Y-129278375D01*
X90441939Y-129286621D01*
X90436073Y-129292062D01*
X90429602Y-129295634D01*
X90422497Y-129298270D01*
X90414728Y-129300906D01*
X90406266Y-129304477D01*
X90401908Y-129306145D01*
X90393395Y-129308111D01*
X90380694Y-129309911D01*
X90362885Y-129311555D01*
X90339049Y-129313047D01*
X90308266Y-129314397D01*
X90269617Y-129315611D01*
X90222182Y-129316697D01*
X90165043Y-129317661D01*
X90097279Y-129318511D01*
X90017971Y-129319253D01*
X89926199Y-129319897D01*
X89821044Y-129320447D01*
X89701587Y-129320913D01*
X89566908Y-129321300D01*
X89416088Y-129321616D01*
X89248206Y-129321869D01*
X89062345Y-129322066D01*
X88857583Y-129322213D01*
X88633002Y-129322318D01*
X88387682Y-129322389D01*
X88120704Y-129322432D01*
X88082321Y-129322437D01*
X87816922Y-129322480D01*
X87573050Y-129322525D01*
X87349783Y-129322548D01*
X87146196Y-129322524D01*
X86961367Y-129322430D01*
X86794373Y-129322243D01*
X86644290Y-129321939D01*
X86510196Y-129321494D01*
X86391166Y-129320885D01*
X86286279Y-129320089D01*
X86194610Y-129319080D01*
X86115237Y-129317837D01*
X86047237Y-129316335D01*
X85989686Y-129314551D01*
X85941662Y-129312461D01*
X85902240Y-129310042D01*
X85870499Y-129307270D01*
X85845514Y-129304121D01*
X85826364Y-129300572D01*
X85812123Y-129296598D01*
X85801871Y-129292178D01*
X85794682Y-129287286D01*
X85789635Y-129281900D01*
X85785805Y-129275996D01*
X85782271Y-129269549D01*
X85778108Y-129262537D01*
X85777025Y-129260687D01*
X85774813Y-129255180D01*
X85772786Y-129246868D01*
X85770938Y-129234809D01*
X85769261Y-129218063D01*
X85767745Y-129195687D01*
X85766383Y-129166740D01*
X85765167Y-129130280D01*
X85764089Y-129085367D01*
X85763140Y-129031057D01*
X85762312Y-128966410D01*
X85761597Y-128890484D01*
X85760987Y-128802338D01*
X85760942Y-128793493D01*
X86052378Y-128793493D01*
X86056260Y-128794765D01*
X86079520Y-128796791D01*
X86121874Y-128798626D01*
X86181132Y-128800227D01*
X86255107Y-128801549D01*
X86341610Y-128802548D01*
X86438452Y-128803180D01*
X86543445Y-128803400D01*
X87241651Y-128803400D01*
X88396090Y-128803400D01*
X88395456Y-128727200D01*
X88396574Y-128685160D01*
X88402304Y-128649334D01*
X88414890Y-128611772D01*
X88436568Y-128563577D01*
X88439789Y-128556897D01*
X88465188Y-128507359D01*
X88491996Y-128459369D01*
X88514917Y-128422466D01*
X88519485Y-128415834D01*
X88541516Y-128384593D01*
X88573693Y-128339654D01*
X88614457Y-128283147D01*
X88662245Y-128217204D01*
X88715498Y-128143957D01*
X88772655Y-128065536D01*
X88832155Y-127984072D01*
X88892437Y-127901698D01*
X88951940Y-127820544D01*
X89009105Y-127742742D01*
X89062370Y-127670423D01*
X89110174Y-127605718D01*
X89150957Y-127550759D01*
X89183158Y-127507676D01*
X89205216Y-127478602D01*
X89215571Y-127465667D01*
X89220044Y-127461351D01*
X89224236Y-127459312D01*
X89227643Y-127461926D01*
X89230325Y-127470986D01*
X89232341Y-127488285D01*
X89233748Y-127515614D01*
X89234605Y-127554765D01*
X89234970Y-127607533D01*
X89234903Y-127675707D01*
X89234460Y-127761082D01*
X89233702Y-127865449D01*
X89232685Y-127990600D01*
X89232308Y-128035300D01*
X89231169Y-128156395D01*
X89229972Y-128257688D01*
X89228636Y-128341262D01*
X89227077Y-128409204D01*
X89225215Y-128463599D01*
X89222966Y-128506532D01*
X89220248Y-128540089D01*
X89216979Y-128566355D01*
X89213078Y-128587416D01*
X89208461Y-128605357D01*
X89200192Y-128631770D01*
X89176583Y-128693772D01*
X89150685Y-128746573D01*
X89125535Y-128783645D01*
X89124339Y-128785075D01*
X89122168Y-128789424D01*
X89124328Y-128793026D01*
X89132644Y-128795951D01*
X89148940Y-128798269D01*
X89175041Y-128800051D01*
X89212771Y-128801367D01*
X89263956Y-128802286D01*
X89330420Y-128802878D01*
X89413987Y-128803215D01*
X89516483Y-128803365D01*
X89639732Y-128803400D01*
X90171296Y-128803400D01*
X90132523Y-128745783D01*
X90126432Y-128736893D01*
X90115976Y-128722069D01*
X90106579Y-128708422D01*
X90098183Y-128694765D01*
X90090733Y-128679911D01*
X90084173Y-128662670D01*
X90078446Y-128641855D01*
X90073495Y-128616280D01*
X90069266Y-128584755D01*
X90065701Y-128546093D01*
X90062744Y-128499107D01*
X90060340Y-128442608D01*
X90058431Y-128375409D01*
X90056962Y-128296322D01*
X90055876Y-128204160D01*
X90055118Y-128097734D01*
X90054630Y-127975857D01*
X90054358Y-127837341D01*
X90054243Y-127680999D01*
X90054231Y-127505642D01*
X90054265Y-127310082D01*
X90054289Y-127093133D01*
X90054280Y-126970513D01*
X90054243Y-126765447D01*
X90054227Y-126581116D01*
X90054288Y-126416334D01*
X90054484Y-126269916D01*
X90054870Y-126140674D01*
X90055505Y-126027422D01*
X90056444Y-125928975D01*
X90057745Y-125844144D01*
X90059464Y-125771744D01*
X90061659Y-125710589D01*
X90064385Y-125659492D01*
X90067701Y-125617267D01*
X90071662Y-125582727D01*
X90076325Y-125554686D01*
X90081747Y-125531958D01*
X90087986Y-125513356D01*
X90095097Y-125497693D01*
X90103138Y-125483784D01*
X90112166Y-125470441D01*
X90122236Y-125456479D01*
X90133407Y-125440711D01*
X90173197Y-125382867D01*
X89113314Y-125382867D01*
X89151311Y-125445966D01*
X89165993Y-125471005D01*
X89180531Y-125498586D01*
X89192627Y-125526700D01*
X89202532Y-125557551D01*
X89210494Y-125593344D01*
X89216761Y-125636283D01*
X89221582Y-125688574D01*
X89225206Y-125752419D01*
X89227881Y-125830025D01*
X89229857Y-125923594D01*
X89231382Y-126035333D01*
X89232704Y-126167445D01*
X89233613Y-126287434D01*
X89234020Y-126404063D01*
X89233767Y-126499531D01*
X89232857Y-126573556D01*
X89231293Y-126625855D01*
X89229079Y-126656149D01*
X89226220Y-126664156D01*
X89223161Y-126660858D01*
X89205006Y-126639408D01*
X89175275Y-126602889D01*
X89135639Y-126553442D01*
X89087771Y-126493207D01*
X89033343Y-126424327D01*
X88974027Y-126348943D01*
X88911495Y-126269196D01*
X88847421Y-126187228D01*
X88783475Y-126105180D01*
X88721331Y-126025194D01*
X88662661Y-125949411D01*
X88609137Y-125879973D01*
X88562430Y-125819021D01*
X88524214Y-125768696D01*
X88496161Y-125731140D01*
X88479943Y-125708495D01*
X88434635Y-125636212D01*
X88394661Y-125556463D01*
X88373130Y-125488188D01*
X88369827Y-125430844D01*
X88375116Y-125382867D01*
X87243356Y-125383117D01*
X87282867Y-125413722D01*
X87292248Y-125421089D01*
X87355183Y-125475438D01*
X87423997Y-125543259D01*
X87500596Y-125626516D01*
X87586888Y-125727178D01*
X87604052Y-125747847D01*
X87644833Y-125797409D01*
X87694588Y-125858326D01*
X87751955Y-125928898D01*
X87815569Y-126007424D01*
X87884069Y-126092204D01*
X87956090Y-126181537D01*
X88030270Y-126273722D01*
X88045517Y-126292702D01*
X88105246Y-126367060D01*
X88179653Y-126459848D01*
X88252131Y-126550388D01*
X88321314Y-126636978D01*
X88385841Y-126717918D01*
X88444347Y-126791506D01*
X88495470Y-126856044D01*
X88537847Y-126909829D01*
X88570115Y-126951162D01*
X88590910Y-126978342D01*
X88598869Y-126989668D01*
X88597111Y-126993771D01*
X88584230Y-127014334D01*
X88559885Y-127050561D01*
X88525247Y-127100824D01*
X88481486Y-127163492D01*
X88429775Y-127236936D01*
X88371284Y-127319527D01*
X88307184Y-127409636D01*
X88238646Y-127505631D01*
X88166843Y-127605885D01*
X88092944Y-127708768D01*
X88018121Y-127812650D01*
X87943545Y-127915901D01*
X87870387Y-128016892D01*
X87799819Y-128113994D01*
X87733011Y-128205577D01*
X87671135Y-128290011D01*
X87615361Y-128365667D01*
X87566862Y-128430916D01*
X87526807Y-128484128D01*
X87496369Y-128523673D01*
X87475944Y-128549026D01*
X87429899Y-128603295D01*
X87379612Y-128659775D01*
X87332815Y-128709669D01*
X87241651Y-128803400D01*
X86543445Y-128803400D01*
X86612356Y-128803349D01*
X86710607Y-128803091D01*
X86800030Y-128802637D01*
X86878333Y-128802010D01*
X86943223Y-128801235D01*
X86992411Y-128800335D01*
X87023604Y-128799334D01*
X87034511Y-128798257D01*
X87033322Y-128795037D01*
X87023176Y-128777452D01*
X87006040Y-128751158D01*
X86997540Y-128738691D01*
X86988329Y-128724622D01*
X86980233Y-128710351D01*
X86973185Y-128694479D01*
X86967117Y-128675609D01*
X86961961Y-128652341D01*
X86957651Y-128623278D01*
X86954119Y-128587021D01*
X86951297Y-128542170D01*
X86949118Y-128487328D01*
X86947514Y-128421097D01*
X86946419Y-128342077D01*
X86945765Y-128248871D01*
X86945484Y-128140079D01*
X86945509Y-128014303D01*
X86945772Y-127870145D01*
X86946206Y-127706207D01*
X86946745Y-127521089D01*
X86947279Y-127342232D01*
X86947805Y-127183374D01*
X86948350Y-127044316D01*
X86948945Y-126923665D01*
X86949619Y-126820028D01*
X86950403Y-126732011D01*
X86951326Y-126658223D01*
X86952419Y-126597269D01*
X86953712Y-126547757D01*
X86955235Y-126508293D01*
X86957019Y-126477484D01*
X86959092Y-126453938D01*
X86961486Y-126436260D01*
X86964230Y-126423059D01*
X86967356Y-126412940D01*
X86970892Y-126404511D01*
X86974791Y-126396375D01*
X86994438Y-126359544D01*
X87013225Y-126329391D01*
X87014272Y-126327908D01*
X87028602Y-126305659D01*
X87034511Y-126292702D01*
X87033504Y-126292249D01*
X87016305Y-126290803D01*
X86979656Y-126289480D01*
X86925962Y-126288316D01*
X86857630Y-126287347D01*
X86777064Y-126286611D01*
X86686670Y-126286142D01*
X86588853Y-126285978D01*
X86143195Y-126285978D01*
X86140120Y-127462845D01*
X86137045Y-128639711D01*
X86110407Y-128698622D01*
X86098485Y-128723183D01*
X86081246Y-128753434D01*
X86068074Y-128770560D01*
X86060076Y-128778591D01*
X86052378Y-128793493D01*
X85760942Y-128793493D01*
X85760474Y-128701029D01*
X85760050Y-128585617D01*
X85759706Y-128455160D01*
X85759434Y-128308716D01*
X85759227Y-128145344D01*
X85759076Y-127964101D01*
X85758972Y-127764048D01*
X85758908Y-127544241D01*
X85758876Y-127303739D01*
X85758867Y-127041602D01*
X85758867Y-124850031D01*
X85797249Y-124811649D01*
X85824355Y-124787911D01*
X85851253Y-124776111D01*
X85887560Y-124773267D01*
X85939489Y-124773267D01*
X85939489Y-124861206D01*
X85941427Y-124911102D01*
X85960199Y-125021523D01*
X85997217Y-125122987D01*
X86050369Y-125214152D01*
X86117546Y-125293673D01*
X86196638Y-125360205D01*
X86285534Y-125412406D01*
X86382125Y-125448930D01*
X86484300Y-125468434D01*
X86589950Y-125469573D01*
X86696964Y-125451005D01*
X86803232Y-125411384D01*
X86900219Y-125353516D01*
X86985293Y-125278684D01*
X87054015Y-125190615D01*
X87104918Y-125091616D01*
X87136535Y-124983993D01*
X87147400Y-124870054D01*
X87147400Y-124773267D01*
X88767753Y-124773267D01*
X88978897Y-124773280D01*
X89183020Y-124773330D01*
X89366686Y-124773430D01*
X89530991Y-124773592D01*
X89677029Y-124773829D01*
X89805894Y-124774153D01*
X89918683Y-124774575D01*
X90016488Y-124775109D01*
X90100404Y-124775767D01*
X90171527Y-124776561D01*
X90230950Y-124777504D01*
X90279768Y-124778608D01*
X90319077Y-124779884D01*
X90349969Y-124781347D01*
X90373541Y-124783007D01*
X90390886Y-124784878D01*
X90403099Y-124786972D01*
X90411275Y-124789300D01*
X90416508Y-124791876D01*
X90422504Y-124795445D01*
X90429279Y-124798978D01*
X90435478Y-124802488D01*
X90441126Y-124806918D01*
X90446247Y-124813208D01*
X90450869Y-124822301D01*
X90455015Y-124835139D01*
X90458713Y-124852662D01*
X90461987Y-124875813D01*
X90464863Y-124905534D01*
X90467367Y-124942765D01*
X90469524Y-124988449D01*
X90471360Y-125043527D01*
X90472900Y-125108941D01*
X90474170Y-125185633D01*
X90475195Y-125274544D01*
X90476001Y-125376617D01*
X90476034Y-125382867D01*
X90476614Y-125492792D01*
G36*
X90476614Y-125492792D02*
G01*
X90477059Y-125624011D01*
X90477362Y-125771216D01*
X90477548Y-125935349D01*
X90477642Y-126117352D01*
X90477671Y-126318165D01*
X90477661Y-126538732D01*
X90477636Y-126779992D01*
X90477622Y-127042889D01*
X90477622Y-127085040D01*
X90477646Y-127345668D01*
X90477685Y-127584796D01*
X90477708Y-127803360D01*
X90477687Y-128002295D01*
X90477593Y-128182535D01*
X90477395Y-128345015D01*
X90477063Y-128490670D01*
X90476569Y-128620434D01*
X90475883Y-128735243D01*
X90474976Y-128836030D01*
X90473817Y-128923730D01*
X90472378Y-128999279D01*
X90470629Y-129063611D01*
X90468540Y-129117661D01*
X90466083Y-129162363D01*
X90463227Y-129198652D01*
X90459943Y-129227463D01*
X90456202Y-129249731D01*
X90451974Y-129266390D01*
X90447229Y-129278375D01*
X90441939Y-129286621D01*
X90436073Y-129292062D01*
X90429602Y-129295634D01*
X90422497Y-129298270D01*
X90414728Y-129300906D01*
X90406266Y-129304477D01*
X90401908Y-129306145D01*
X90393395Y-129308111D01*
X90380694Y-129309911D01*
X90362885Y-129311555D01*
X90339049Y-129313047D01*
X90308266Y-129314397D01*
X90269617Y-129315611D01*
X90222182Y-129316697D01*
X90165043Y-129317661D01*
X90097279Y-129318511D01*
X90017971Y-129319253D01*
X89926199Y-129319897D01*
X89821044Y-129320447D01*
X89701587Y-129320913D01*
X89566908Y-129321300D01*
X89416088Y-129321616D01*
X89248206Y-129321869D01*
X89062345Y-129322066D01*
X88857583Y-129322213D01*
X88633002Y-129322318D01*
X88387682Y-129322389D01*
X88120704Y-129322432D01*
X88082321Y-129322437D01*
X87816922Y-129322480D01*
X87573050Y-129322525D01*
X87349783Y-129322548D01*
X87146196Y-129322524D01*
X86961367Y-129322430D01*
X86794373Y-129322243D01*
X86644290Y-129321939D01*
X86510196Y-129321494D01*
X86391166Y-129320885D01*
X86286279Y-129320089D01*
X86194610Y-129319080D01*
X86115237Y-129317837D01*
X86047237Y-129316335D01*
X85989686Y-129314551D01*
X85941662Y-129312461D01*
X85902240Y-129310042D01*
X85870499Y-129307270D01*
X85845514Y-129304121D01*
X85826364Y-129300572D01*
X85812123Y-129296598D01*
X85801871Y-129292178D01*
X85794682Y-129287286D01*
X85789635Y-129281900D01*
X85785805Y-129275996D01*
X85782271Y-129269549D01*
X85778108Y-129262537D01*
X85777025Y-129260687D01*
X85774813Y-129255180D01*
X85772786Y-129246868D01*
X85770938Y-129234809D01*
X85769261Y-129218063D01*
X85767745Y-129195687D01*
X85766383Y-129166740D01*
X85765167Y-129130280D01*
X85764089Y-129085367D01*
X85763140Y-129031057D01*
X85762312Y-128966410D01*
X85761597Y-128890484D01*
X85760987Y-128802338D01*
X85760942Y-128793493D01*
X86052378Y-128793493D01*
X86056260Y-128794765D01*
X86079520Y-128796791D01*
X86121874Y-128798626D01*
X86181132Y-128800227D01*
X86255107Y-128801549D01*
X86341610Y-128802548D01*
X86438452Y-128803180D01*
X86543445Y-128803400D01*
X87241651Y-128803400D01*
X88396090Y-128803400D01*
X88395456Y-128727200D01*
X88396574Y-128685160D01*
X88402304Y-128649334D01*
X88414890Y-128611772D01*
X88436568Y-128563577D01*
X88439789Y-128556897D01*
X88465188Y-128507359D01*
X88491996Y-128459369D01*
X88514917Y-128422466D01*
X88519485Y-128415834D01*
X88541516Y-128384593D01*
X88573693Y-128339654D01*
X88614457Y-128283147D01*
X88662245Y-128217204D01*
X88715498Y-128143957D01*
X88772655Y-128065536D01*
X88832155Y-127984072D01*
X88892437Y-127901698D01*
X88951940Y-127820544D01*
X89009105Y-127742742D01*
X89062370Y-127670423D01*
X89110174Y-127605718D01*
X89150957Y-127550759D01*
X89183158Y-127507676D01*
X89205216Y-127478602D01*
X89215571Y-127465667D01*
X89220044Y-127461351D01*
X89224236Y-127459312D01*
X89227643Y-127461926D01*
X89230325Y-127470986D01*
X89232341Y-127488285D01*
X89233748Y-127515614D01*
X89234605Y-127554765D01*
X89234970Y-127607533D01*
X89234903Y-127675707D01*
X89234460Y-127761082D01*
X89233702Y-127865449D01*
X89232685Y-127990600D01*
X89232308Y-128035300D01*
X89231169Y-128156395D01*
X89229972Y-128257688D01*
X89228636Y-128341262D01*
X89227077Y-128409204D01*
X89225215Y-128463599D01*
X89222966Y-128506532D01*
X89220248Y-128540089D01*
X89216979Y-128566355D01*
X89213078Y-128587416D01*
X89208461Y-128605357D01*
X89200192Y-128631770D01*
X89176583Y-128693772D01*
X89150685Y-128746573D01*
X89125535Y-128783645D01*
X89124339Y-128785075D01*
X89122168Y-128789424D01*
X89124328Y-128793026D01*
X89132644Y-128795951D01*
X89148940Y-128798269D01*
X89175041Y-128800051D01*
X89212771Y-128801367D01*
X89263956Y-128802286D01*
X89330420Y-128802878D01*
X89413987Y-128803215D01*
X89516483Y-128803365D01*
X89639732Y-128803400D01*
X90171296Y-128803400D01*
X90132523Y-128745783D01*
X90126432Y-128736893D01*
X90115976Y-128722069D01*
X90106579Y-128708422D01*
X90098183Y-128694765D01*
X90090733Y-128679911D01*
X90084173Y-128662670D01*
X90078446Y-128641855D01*
X90073495Y-128616280D01*
X90069266Y-128584755D01*
X90065701Y-128546093D01*
X90062744Y-128499107D01*
X90060340Y-128442608D01*
X90058431Y-128375409D01*
X90056962Y-128296322D01*
X90055876Y-128204160D01*
X90055118Y-128097734D01*
X90054630Y-127975857D01*
X90054358Y-127837341D01*
X90054243Y-127680999D01*
X90054231Y-127505642D01*
X90054265Y-127310082D01*
X90054289Y-127093133D01*
X90054280Y-126970513D01*
X90054243Y-126765447D01*
X90054227Y-126581116D01*
X90054288Y-126416334D01*
X90054484Y-126269916D01*
X90054870Y-126140674D01*
X90055505Y-126027422D01*
X90056444Y-125928975D01*
X90057745Y-125844144D01*
X90059464Y-125771744D01*
X90061659Y-125710589D01*
X90064385Y-125659492D01*
X90067701Y-125617267D01*
X90071662Y-125582727D01*
X90076325Y-125554686D01*
X90081747Y-125531958D01*
X90087986Y-125513356D01*
X90095097Y-125497693D01*
X90103138Y-125483784D01*
X90112166Y-125470441D01*
X90122236Y-125456479D01*
X90133407Y-125440711D01*
X90173197Y-125382867D01*
X89113314Y-125382867D01*
X89151311Y-125445966D01*
X89165993Y-125471005D01*
X89180531Y-125498586D01*
X89192627Y-125526700D01*
X89202532Y-125557551D01*
X89210494Y-125593344D01*
X89216761Y-125636283D01*
X89221582Y-125688574D01*
X89225206Y-125752419D01*
X89227881Y-125830025D01*
X89229857Y-125923594D01*
X89231382Y-126035333D01*
X89232704Y-126167445D01*
X89233613Y-126287434D01*
X89234020Y-126404063D01*
X89233767Y-126499531D01*
X89232857Y-126573556D01*
X89231293Y-126625855D01*
X89229079Y-126656149D01*
X89226220Y-126664156D01*
X89223161Y-126660858D01*
X89205006Y-126639408D01*
X89175275Y-126602889D01*
X89135639Y-126553442D01*
X89087771Y-126493207D01*
X89033343Y-126424327D01*
X88974027Y-126348943D01*
X88911495Y-126269196D01*
X88847421Y-126187228D01*
X88783475Y-126105180D01*
X88721331Y-126025194D01*
X88662661Y-125949411D01*
X88609137Y-125879973D01*
X88562430Y-125819021D01*
X88524214Y-125768696D01*
X88496161Y-125731140D01*
X88479943Y-125708495D01*
X88434635Y-125636212D01*
X88394661Y-125556463D01*
X88373130Y-125488188D01*
X88369827Y-125430844D01*
X88375116Y-125382867D01*
X87243356Y-125383117D01*
X87282867Y-125413722D01*
X87292248Y-125421089D01*
X87355183Y-125475438D01*
X87423997Y-125543259D01*
X87500596Y-125626516D01*
X87586888Y-125727178D01*
X87604052Y-125747847D01*
X87644833Y-125797409D01*
X87694588Y-125858326D01*
X87751955Y-125928898D01*
X87815569Y-126007424D01*
X87884069Y-126092204D01*
X87956090Y-126181537D01*
X88030270Y-126273722D01*
X88045517Y-126292702D01*
X88105246Y-126367060D01*
X88179653Y-126459848D01*
X88252131Y-126550388D01*
X88321314Y-126636978D01*
X88385841Y-126717918D01*
X88444347Y-126791506D01*
X88495470Y-126856044D01*
X88537847Y-126909829D01*
X88570115Y-126951162D01*
X88590910Y-126978342D01*
X88598869Y-126989668D01*
X88597111Y-126993771D01*
X88584230Y-127014334D01*
X88559885Y-127050561D01*
X88525247Y-127100824D01*
X88481486Y-127163492D01*
X88429775Y-127236936D01*
X88371284Y-127319527D01*
X88307184Y-127409636D01*
X88238646Y-127505631D01*
X88166843Y-127605885D01*
X88092944Y-127708768D01*
X88018121Y-127812650D01*
X87943545Y-127915901D01*
X87870387Y-128016892D01*
X87799819Y-128113994D01*
X87733011Y-128205577D01*
X87671135Y-128290011D01*
X87615361Y-128365667D01*
X87566862Y-128430916D01*
X87526807Y-128484128D01*
X87496369Y-128523673D01*
X87475944Y-128549026D01*
X87429899Y-128603295D01*
X87379612Y-128659775D01*
X87332815Y-128709669D01*
X87241651Y-128803400D01*
X86543445Y-128803400D01*
X86612356Y-128803349D01*
X86710607Y-128803091D01*
X86800030Y-128802637D01*
X86878333Y-128802010D01*
X86943223Y-128801235D01*
X86992411Y-128800335D01*
X87023604Y-128799334D01*
X87034511Y-128798257D01*
X87033322Y-128795037D01*
X87023176Y-128777452D01*
X87006040Y-128751158D01*
X86997540Y-128738691D01*
X86988329Y-128724622D01*
X86980233Y-128710351D01*
X86973185Y-128694479D01*
X86967117Y-128675609D01*
X86961961Y-128652341D01*
X86957651Y-128623278D01*
X86954119Y-128587021D01*
X86951297Y-128542170D01*
X86949118Y-128487328D01*
X86947514Y-128421097D01*
X86946419Y-128342077D01*
X86945765Y-128248871D01*
X86945484Y-128140079D01*
X86945509Y-128014303D01*
X86945772Y-127870145D01*
X86946206Y-127706207D01*
X86946745Y-127521089D01*
X86947279Y-127342232D01*
X86947805Y-127183374D01*
X86948350Y-127044316D01*
X86948945Y-126923665D01*
X86949619Y-126820028D01*
X86950403Y-126732011D01*
X86951326Y-126658223D01*
X86952419Y-126597269D01*
X86953712Y-126547757D01*
X86955235Y-126508293D01*
X86957019Y-126477484D01*
X86959092Y-126453938D01*
X86961486Y-126436260D01*
X86964230Y-126423059D01*
X86967356Y-126412940D01*
X86970892Y-126404511D01*
X86974791Y-126396375D01*
X86994438Y-126359544D01*
X87013225Y-126329391D01*
X87014272Y-126327908D01*
X87028602Y-126305659D01*
X87034511Y-126292702D01*
X87033504Y-126292249D01*
X87016305Y-126290803D01*
X86979656Y-126289480D01*
X86925962Y-126288316D01*
X86857630Y-126287347D01*
X86777064Y-126286611D01*
X86686670Y-126286142D01*
X86588853Y-126285978D01*
X86143195Y-126285978D01*
X86140120Y-127462845D01*
X86137045Y-128639711D01*
X86110407Y-128698622D01*
X86098485Y-128723183D01*
X86081246Y-128753434D01*
X86068074Y-128770560D01*
X86060076Y-128778591D01*
X86052378Y-128793493D01*
X85760942Y-128793493D01*
X85760474Y-128701029D01*
X85760050Y-128585617D01*
X85759706Y-128455160D01*
X85759434Y-128308716D01*
X85759227Y-128145344D01*
X85759076Y-127964101D01*
X85758972Y-127764048D01*
X85758908Y-127544241D01*
X85758876Y-127303739D01*
X85758867Y-127041602D01*
X85758867Y-124850031D01*
X85797249Y-124811649D01*
X85824355Y-124787911D01*
X85851253Y-124776111D01*
X85887560Y-124773267D01*
X85939489Y-124773267D01*
X85939489Y-124861206D01*
X85941427Y-124911102D01*
X85960199Y-125021523D01*
X85997217Y-125122987D01*
X86050369Y-125214152D01*
X86117546Y-125293673D01*
X86196638Y-125360205D01*
X86285534Y-125412406D01*
X86382125Y-125448930D01*
X86484300Y-125468434D01*
X86589950Y-125469573D01*
X86696964Y-125451005D01*
X86803232Y-125411384D01*
X86900219Y-125353516D01*
X86985293Y-125278684D01*
X87054015Y-125190615D01*
X87104918Y-125091616D01*
X87136535Y-124983993D01*
X87147400Y-124870054D01*
X87147400Y-124773267D01*
X88767753Y-124773267D01*
X88978897Y-124773280D01*
X89183020Y-124773330D01*
X89366686Y-124773430D01*
X89530991Y-124773592D01*
X89677029Y-124773829D01*
X89805894Y-124774153D01*
X89918683Y-124774575D01*
X90016488Y-124775109D01*
X90100404Y-124775767D01*
X90171527Y-124776561D01*
X90230950Y-124777504D01*
X90279768Y-124778608D01*
X90319077Y-124779884D01*
X90349969Y-124781347D01*
X90373541Y-124783007D01*
X90390886Y-124784878D01*
X90403099Y-124786972D01*
X90411275Y-124789300D01*
X90416508Y-124791876D01*
X90422504Y-124795445D01*
X90429279Y-124798978D01*
X90435478Y-124802488D01*
X90441126Y-124806918D01*
X90446247Y-124813208D01*
X90450869Y-124822301D01*
X90455015Y-124835139D01*
X90458713Y-124852662D01*
X90461987Y-124875813D01*
X90464863Y-124905534D01*
X90467367Y-124942765D01*
X90469524Y-124988449D01*
X90471360Y-125043527D01*
X90472900Y-125108941D01*
X90474170Y-125185633D01*
X90475195Y-125274544D01*
X90476001Y-125376617D01*
X90476034Y-125382867D01*
X90476614Y-125492792D01*
G37*
%TD*%
M02*
