%TF.GenerationSoftware,KiCad,Pcbnew,9.0.7*%
%TF.CreationDate,2026-02-09T23:32:56+01:00*%
%TF.ProjectId,Pi1551-III Module-rotated,50693135-3531-42d4-9949-49204d6f6475,1*%
%TF.SameCoordinates,Original*%
%TF.FileFunction,Profile,NP*%
%FSLAX46Y46*%
G04 Gerber Fmt 4.6, Leading zero omitted, Abs format (unit mm)*
G04 Created by KiCad (PCBNEW 9.0.7) date 2026-02-09 23:32:56*
%MOMM*%
%LPD*%
G01*
G04 APERTURE LIST*
%TA.AperFunction,Profile*%
%ADD10C,0.150000*%
%TD*%
%TA.AperFunction,Profile*%
%ADD11C,0.050000*%
%TD*%
G04 APERTURE END LIST*
D10*
X70180000Y-139954000D02*
X70180000Y-72390000D01*
X70180000Y-139954000D02*
X70180000Y-154610000D01*
X70180000Y-55880000D02*
X70180000Y-72390000D01*
X170180000Y-78740000D02*
X170180000Y-55880000D01*
X136016000Y-137793000D02*
X159122000Y-137793000D01*
X136016000Y-84207000D02*
X136016000Y-137793000D01*
D11*
X97775000Y-144803000D02*
X97775000Y-146808000D01*
X142575000Y-146808000D02*
X142575000Y-144803000D01*
X91775000Y-146808000D02*
X91775000Y-144803000D01*
X148575000Y-146808000D02*
X142575000Y-146808000D01*
X97775000Y-146808000D02*
X91775000Y-146808000D01*
X142575000Y-144803000D02*
X148575000Y-144803000D01*
X91775000Y-144803000D02*
X97775000Y-144803000D01*
X148575000Y-144803000D02*
X148575000Y-146808000D01*
D10*
X102270500Y-151410000D02*
X120180000Y-151410000D01*
X138089500Y-151410000D02*
X120180000Y-151410000D01*
X138089500Y-151410000D02*
X138089500Y-154610000D01*
X70180000Y-154610000D02*
X102270500Y-154610000D01*
X170180000Y-154610000D02*
X170180000Y-78740000D01*
X159122000Y-84207000D02*
X159122000Y-137793000D01*
X168910000Y-54610000D02*
X71450000Y-54610000D01*
X136016000Y-84207000D02*
X159122000Y-84207000D01*
X138089500Y-154610000D02*
X170180000Y-154610000D01*
X168910000Y-54610000D02*
G75*
G02*
X170180000Y-55880000I0J-1270000D01*
G01*
X70180000Y-55880000D02*
G75*
G02*
X71450000Y-54610000I1270000J0D01*
G01*
X102270500Y-151410000D02*
X102270500Y-154610000D01*
M02*
