M48
; DRILL file {KiCad 9.0.7} date 2026-03-10T19:04:48+0100
; FORMAT={-:-/ absolute / metric / decimal}
; #@! TF.CreationDate,2026-03-10T19:04:48+01:00
; #@! TF.GenerationSoftware,Kicad,Pcbnew,9.0.7
; #@! TF.FileFunction,Plated,1,2,PTH
FMAT,2
METRIC
; #@! TA.AperFunction,Plated,PTH,ViaDrill
T1C0.400
; #@! TA.AperFunction,Plated,PTH,ComponentDrill
T2C0.800
; #@! TA.AperFunction,Plated,PTH,ComponentDrill
T3C1.000
%
G90
G05
T1
X86.289Y-100.189
X95.13Y-143.862
X95.769Y-99.021
X98.027Y-64.773
X98.957Y-99.051
X100.954Y-103.065
X102.766Y-82.506
X103.159Y-99.117
X103.972Y-126.712
X106.347Y-99.132
X107.023Y-79.802
X109.664Y-99.059
X109.867Y-83.305
X111.677Y-100.606
X113.091Y-61.68
X113.612Y-67.77
X115.194Y-58.459
X115.76Y-57.799
X116.257Y-128.82
X116.511Y-99.24
X117.662Y-122.966
X118.256Y-94.294
X118.707Y-73.663
X119.9Y-75.419
X119.908Y-84.274
X120.787Y-137.947
X120.966Y-82.864
X121.439Y-124.964
X121.654Y-56.747
X122.072Y-77.161
X122.768Y-129.617
X123.648Y-79.754
X123.713Y-124.565
X124.601Y-77.68
X124.792Y-96.355
X125.049Y-97.242
X125.222Y-78.406
X125.468Y-77.526
X125.469Y-88.4
X126.171Y-123.765
X127.548Y-144.395
X127.685Y-126.686
X127.953Y-83.558
X128.342Y-78.392
X128.798Y-68.47
X128.909Y-67.394
X129.824Y-69.677
X130.755Y-68.615
X134.532Y-73.002
X134.608Y-137.41
X147.583Y-83.449
X149.326Y-82.191
X154.527Y-79.559
T2
X88.5Y-77.0
X92.0Y-77.0
X121.85Y-63.5
X121.85Y-66.0
X123.95Y-63.5
X126.15Y-66.0
X126.55Y-63.5
X128.65Y-63.5
X128.65Y-66.0
T3
X79.12Y-134.11
X79.12Y-136.65
X81.66Y-134.11
X81.66Y-136.65
X84.2Y-134.11
X84.2Y-136.65
X86.74Y-134.11
X86.74Y-136.65
X89.28Y-134.11
X89.28Y-136.65
X91.82Y-134.11
X91.82Y-136.65
X94.36Y-134.11
X94.36Y-136.65
X96.9Y-134.11
X96.9Y-136.65
X99.44Y-134.11
X99.44Y-136.65
X101.98Y-134.11
X101.98Y-136.65
X104.52Y-134.11
X104.52Y-136.65
X107.06Y-134.11
X107.06Y-136.65
X109.6Y-134.11
X109.6Y-136.65
X112.14Y-134.11
X112.14Y-136.65
X112.56Y-140.97
X114.68Y-134.11
X114.68Y-136.65
X115.1Y-140.97
X117.22Y-134.11
X117.22Y-136.65
X117.64Y-140.97
X119.76Y-134.11
X119.76Y-136.65
X120.18Y-140.97
X122.3Y-134.11
X122.3Y-136.65
X122.72Y-140.97
X124.84Y-134.11
X124.84Y-136.65
X125.26Y-140.97
X127.38Y-134.11
X127.38Y-136.65
X127.8Y-140.97
X130.34Y-140.97
X132.88Y-140.97
X135.42Y-140.97
X137.96Y-140.97
X139.61Y-60.452
X139.61Y-62.992
X140.5Y-140.97
X142.15Y-60.452
X142.15Y-62.992
X144.69Y-60.452
X144.69Y-62.992
X147.23Y-60.452
X147.23Y-62.992
X149.77Y-60.452
X149.77Y-62.992
X152.31Y-60.452
X152.31Y-62.992
X154.85Y-60.452
X154.85Y-62.992
X157.39Y-60.452
X157.39Y-62.992
X161.02Y-75.0
X165.0Y-75.0
T2
X118.5Y-61.2G85X118.5Y-59.8
G05
X124.55Y-59.7G85X125.95Y-59.7
G05
X132.0Y-61.2G85X132.0Y-59.8
G05
T3
X85.3Y-64.5G85X85.3Y-66.5
G05
X91.0Y-62.5G85X89.0Y-62.5
G05
X91.0Y-68.5G85X89.0Y-68.5
G05
X158.71Y-75.0G85X159.71Y-75.0
G05
X166.31Y-75.0G85X167.31Y-75.0
G05
M30
