%TF.GenerationSoftware,KiCad,Pcbnew,9.0.7*%
%TF.CreationDate,2026-02-09T23:32:55+01:00*%
%TF.ProjectId,Pi1551-III Module-rotated,50693135-3531-42d4-9949-49204d6f6475,1*%
%TF.SameCoordinates,Original*%
%TF.FileFunction,Copper,L2,Bot*%
%TF.FilePolarity,Positive*%
%FSLAX46Y46*%
G04 Gerber Fmt 4.6, Leading zero omitted, Abs format (unit mm)*
G04 Created by KiCad (PCBNEW 9.0.7) date 2026-02-09 23:32:55*
%MOMM*%
%LPD*%
G01*
G04 APERTURE LIST*
G04 Aperture macros list*
%AMRoundRect*
0 Rectangle with rounded corners*
0 $1 Rounding radius*
0 $2 $3 $4 $5 $6 $7 $8 $9 X,Y pos of 4 corners*
0 Add a 4 corners polygon primitive as box body*
4,1,4,$2,$3,$4,$5,$6,$7,$8,$9,$2,$3,0*
0 Add four circle primitives for the rounded corners*
1,1,$1+$1,$2,$3*
1,1,$1+$1,$4,$5*
1,1,$1+$1,$6,$7*
1,1,$1+$1,$8,$9*
0 Add four rect primitives between the rounded corners*
20,1,$1+$1,$2,$3,$4,$5,0*
20,1,$1+$1,$4,$5,$6,$7,0*
20,1,$1+$1,$6,$7,$8,$9,0*
20,1,$1+$1,$8,$9,$2,$3,0*%
G04 Aperture macros list end*
%TA.AperFunction,WasherPad*%
%ADD10C,3.500000*%
%TD*%
%TA.AperFunction,ComponentPad*%
%ADD11R,1.600000X1.600000*%
%TD*%
%TA.AperFunction,ComponentPad*%
%ADD12C,1.600000*%
%TD*%
%TA.AperFunction,ComponentPad*%
%ADD13R,3.500000X3.500000*%
%TD*%
%TA.AperFunction,ComponentPad*%
%ADD14R,1.700000X1.700000*%
%TD*%
%TA.AperFunction,ComponentPad*%
%ADD15O,1.700000X1.700000*%
%TD*%
%TA.AperFunction,ComponentPad*%
%ADD16R,3.000000X2.000000*%
%TD*%
%TA.AperFunction,ComponentPad*%
%ADD17R,2.000000X2.000000*%
%TD*%
%TA.AperFunction,ComponentPad*%
%ADD18C,2.000000*%
%TD*%
%TA.AperFunction,ComponentPad*%
%ADD19O,3.000000X2.000000*%
%TD*%
%TA.AperFunction,ComponentPad*%
%ADD20RoundRect,0.250000X0.600000X-0.600000X0.600000X0.600000X-0.600000X0.600000X-0.600000X-0.600000X0*%
%TD*%
%TA.AperFunction,ComponentPad*%
%ADD21C,1.700000*%
%TD*%
%TA.AperFunction,ComponentPad*%
%ADD22C,1.200000*%
%TD*%
%TA.AperFunction,ComponentPad*%
%ADD23RoundRect,0.600000X0.000010X-0.700000X0.000010X0.700000X-0.000010X0.700000X-0.000010X-0.700000X0*%
%TD*%
%TA.AperFunction,ComponentPad*%
%ADD24RoundRect,0.600000X-0.700000X-0.000010X0.700000X-0.000010X0.700000X0.000010X-0.700000X0.000010X0*%
%TD*%
%TA.AperFunction,ViaPad*%
%ADD25C,1.000000*%
%TD*%
%TA.AperFunction,ViaPad*%
%ADD26C,0.600000*%
%TD*%
%TA.AperFunction,Conductor*%
%ADD27C,0.400000*%
%TD*%
%TA.AperFunction,Conductor*%
%ADD28C,1.200000*%
%TD*%
%TA.AperFunction,Conductor*%
%ADD29C,0.250000*%
%TD*%
G04 APERTURE END LIST*
D10*
%TO.P,M1,*%
%TO.N,*%
X73355000Y-151435000D03*
%TD*%
D11*
%TO.P,C6,1*%
%TO.N,+5V*%
X88500000Y-77000000D03*
D12*
%TO.P,C6,2*%
%TO.N,GND*%
X92000000Y-77000000D03*
%TD*%
D13*
%TO.P,J1,1*%
%TO.N,+5V*%
X90000000Y-68500000D03*
%TO.P,J1,2*%
%TO.N,GND*%
X90000000Y-62500000D03*
%TO.P,J1,3*%
X85300000Y-65500000D03*
%TD*%
D14*
%TO.P,J8,1,GND*%
%TO.N,GND*%
X112560000Y-140970000D03*
D15*
%TO.P,J8,2,LED_PWR*%
%TO.N,LED_PWR*%
X115100000Y-140970000D03*
%TO.P,J8,3,LED_ACT*%
%TO.N,LED_ACT*%
X117640000Y-140970000D03*
%TO.P,J8,4,SCL*%
%TO.N,I2C_SCL*%
X120180000Y-140970000D03*
%TO.P,J8,5,SDA*%
%TO.N,I2C_SDA*%
X122720000Y-140970000D03*
%TO.P,J8,6,ENTER*%
%TO.N,SW1_ENTER*%
X125260000Y-140970000D03*
%TO.P,J8,7,UP*%
%TO.N,SW2_UP*%
X127800000Y-140970000D03*
%TO.P,J8,8,DOWN*%
%TO.N,SW3_DOWN*%
X130340000Y-140970000D03*
%TO.P,J8,9,BACK*%
%TO.N,SW4_BACK*%
X132880000Y-140970000D03*
%TO.P,J8,10,INSERT*%
%TO.N,SW5_INSERT*%
X135420000Y-140970000D03*
%TO.P,J8,11,GND*%
%TO.N,GND*%
X137960000Y-140970000D03*
%TO.P,J8,12,VCC*%
%TO.N,+3.3V*%
X140500000Y-140970000D03*
%TD*%
D10*
%TO.P,M2,*%
%TO.N,*%
X167005000Y-151435000D03*
%TD*%
%TO.P,M3,*%
%TO.N,*%
X167005000Y-57785000D03*
%TD*%
%TO.P,M4,*%
%TO.N,*%
X73355000Y-57785000D03*
%TD*%
D16*
%TO.P,BZ1,1,1*%
%TO.N,Net-(A1-PWM1{slash}GPIO13)*%
X159210000Y-75000000D03*
D17*
X161020000Y-75000000D03*
D18*
%TO.P,BZ1,2,2*%
%TO.N,GND*%
X165000000Y-75000000D03*
D19*
X166810000Y-75000000D03*
%TD*%
D10*
%TO.P,A1,*%
%TO.N,*%
X74250000Y-86380000D03*
X132250000Y-86380000D03*
D14*
%TO.P,A1,1,3V3*%
%TO.N,+3.3V*%
X79120000Y-134110000D03*
D15*
%TO.P,A1,2,5V*%
%TO.N,+5V*%
X79120000Y-136650000D03*
%TO.P,A1,3,SDA/GPIO2*%
%TO.N,I2C_SDA*%
X81660000Y-134110000D03*
%TO.P,A1,4,5V*%
%TO.N,+5V*%
X81660000Y-136650000D03*
%TO.P,A1,5,SCL/GPIO3*%
%TO.N,I2C_SCL*%
X84200000Y-134110000D03*
%TO.P,A1,6,GND*%
%TO.N,GND*%
X84200000Y-136650000D03*
%TO.P,A1,7,GCLK0/GPIO4*%
%TO.N,SW4_BACK*%
X86740000Y-134110000D03*
%TO.P,A1,8,GPIO14/TXD*%
%TO.N,/DIO1*%
X86740000Y-136650000D03*
%TO.P,A1,9,GND*%
%TO.N,GND*%
X89280000Y-134110000D03*
%TO.P,A1,10,GPIO15/RXD*%
%TO.N,/DIO2*%
X89280000Y-136650000D03*
%TO.P,A1,11,GPIO17*%
%TO.N,SW3_DOWN*%
X91820000Y-134110000D03*
%TO.P,A1,12,GPIO18/PWM0*%
%TO.N,/DIO3*%
X91820000Y-136650000D03*
%TO.P,A1,13,GPIO27*%
%TO.N,SW1_ENTER*%
X94360000Y-134110000D03*
%TO.P,A1,14,GND*%
%TO.N,GND*%
X94360000Y-136650000D03*
%TO.P,A1,15,GPIO22*%
%TO.N,SW2_UP*%
X96900000Y-134110000D03*
%TO.P,A1,16,GPIO23*%
%TO.N,/DIO4*%
X96900000Y-136650000D03*
%TO.P,A1,17,3V3*%
%TO.N,+3.3V*%
X99440000Y-134110000D03*
%TO.P,A1,18,GPIO24*%
%TO.N,/DIO5*%
X99440000Y-136650000D03*
%TO.P,A1,19,MOSI0/GPIO10*%
%TO.N,RPI_LED*%
X101980000Y-134110000D03*
%TO.P,A1,20,GND*%
%TO.N,GND*%
X101980000Y-136650000D03*
%TO.P,A1,21,MISO0/GPIO9*%
%TO.N,/DEV*%
X104520000Y-134110000D03*
%TO.P,A1,22,GPIO25*%
%TO.N,/DIO6*%
X104520000Y-136650000D03*
%TO.P,A1,23,SCLK0/GPIO11*%
%TO.N,/~{RESET_3V3}*%
X107060000Y-134110000D03*
%TO.P,A1,24,~{CE0}/GPIO8*%
%TO.N,/DIO7*%
X107060000Y-136650000D03*
%TO.P,A1,25,GND*%
%TO.N,GND*%
X109600000Y-134110000D03*
%TO.P,A1,26,~{CE1}/GPIO7*%
%TO.N,/DIO8*%
X109600000Y-136650000D03*
%TO.P,A1,27,ID_SD/GPIO0*%
%TO.N,/TAP_SENSE*%
X112140000Y-134110000D03*
%TO.P,A1,28,ID_SC/GPIO1*%
%TO.N,unconnected-(A1-ID_SC{slash}GPIO1-Pad28)*%
X112140000Y-136650000D03*
%TO.P,A1,29,GCLK1/GPIO5*%
%TO.N,SW5_INSERT*%
X114680000Y-134110000D03*
%TO.P,A1,30,GND*%
%TO.N,GND*%
X114680000Y-136650000D03*
%TO.P,A1,31,GCLK2/GPIO6*%
%TO.N,/TAP_MOTOR*%
X117220000Y-134110000D03*
%TO.P,A1,32,PWM0/GPIO12*%
%TO.N,/DAV*%
X117220000Y-136650000D03*
%TO.P,A1,33,PWM1/GPIO13*%
%TO.N,Net-(A1-PWM1{slash}GPIO13)*%
X119760000Y-134110000D03*
%TO.P,A1,34,GND*%
%TO.N,GND*%
X119760000Y-136650000D03*
%TO.P,A1,35,GPIO19/MISO1*%
%TO.N,/TAP_READ*%
X122300000Y-134110000D03*
%TO.P,A1,36,GPIO16*%
%TO.N,/STATUS0*%
X122300000Y-136650000D03*
%TO.P,A1,37,GPIO26*%
%TO.N,/TAP_WRITE*%
X124840000Y-134110000D03*
%TO.P,A1,38,GPIO20/MOSI1*%
%TO.N,/ACK*%
X124840000Y-136650000D03*
%TO.P,A1,39,GND*%
%TO.N,GND*%
X127380000Y-134110000D03*
%TO.P,A1,40,GPIO21/SCLK1*%
%TO.N,/STATUS1*%
X127380000Y-136650000D03*
%TD*%
D20*
%TO.P,J3,1,Pin_1*%
%TO.N,GND*%
X139610000Y-62992000D03*
D21*
%TO.P,J3,2,Pin_2*%
%TO.N,/DEV*%
X139610000Y-60452000D03*
%TO.P,J3,3,Pin_3*%
%TO.N,/DIO1*%
X142150000Y-62992000D03*
%TO.P,J3,4,Pin_4*%
%TO.N,/DIO2*%
X142150000Y-60452000D03*
%TO.P,J3,5,Pin_5*%
%TO.N,/DIO3*%
X144690000Y-62992000D03*
%TO.P,J3,6,Pin_6*%
%TO.N,/DIO4*%
X144690000Y-60452000D03*
%TO.P,J3,7,Pin_7*%
%TO.N,/DIO5*%
X147230000Y-62992000D03*
%TO.P,J3,8,Pin_8*%
%TO.N,/DIO6*%
X147230000Y-60452000D03*
%TO.P,J3,9,Pin_9*%
%TO.N,/DIO7*%
X149770000Y-62992000D03*
%TO.P,J3,10,Pin_10*%
%TO.N,/DIO8*%
X149770000Y-60452000D03*
%TO.P,J3,11,Pin_11*%
%TO.N,/DAV*%
X152310000Y-62992000D03*
%TO.P,J3,12,Pin_12*%
%TO.N,/STATUS0*%
X152310000Y-60452000D03*
%TO.P,J3,13,Pin_13*%
%TO.N,/ACK*%
X154850000Y-62992000D03*
%TO.P,J3,14,Pin_14*%
%TO.N,/STATUS1*%
X154850000Y-60452000D03*
%TO.P,J3,15,Pin_15*%
%TO.N,/~{RESET}*%
X157390000Y-62992000D03*
%TO.P,J3,16,Pin_16*%
%TO.N,GND*%
X157390000Y-60452000D03*
%TD*%
D22*
%TO.P,J4,1*%
%TO.N,GND*%
X123950000Y-63500000D03*
%TO.P,J4,2*%
%TO.N,/VCC_5V*%
X126550000Y-63500000D03*
%TO.P,J4,3*%
%TO.N,/CAS_MOTOR*%
X121850000Y-63500000D03*
%TO.P,J4,4*%
%TO.N,/CAS_READ*%
X128650000Y-63500000D03*
%TO.P,J4,5*%
%TO.N,/CAS_WRITE*%
X121850000Y-66000000D03*
%TO.P,J4,6*%
%TO.N,/CAS_SENSE*%
X126150000Y-66000000D03*
%TO.P,J4,7*%
%TO.N,GND*%
X128650000Y-66000000D03*
D23*
%TO.P,J4,SH*%
%TO.N,N/C*%
X118500000Y-60500000D03*
D24*
X125250000Y-59700000D03*
D23*
X132000000Y-60500000D03*
%TD*%
D25*
%TO.N,GND*%
X128006100Y-70716000D03*
X86289100Y-61876300D03*
X131029400Y-70171600D03*
X109301100Y-73663100D03*
X110868900Y-137954100D03*
X131415900Y-76424800D03*
X162720100Y-60521000D03*
X130495600Y-135553800D03*
X162720100Y-64823400D03*
X109936900Y-66895000D03*
X101549600Y-79558900D03*
X101433900Y-73663100D03*
X91884000Y-81734900D03*
X101024600Y-81734900D03*
D26*
%TO.N,I2C_SCL*%
X83342000Y-141448000D03*
%TO.N,I2C_SDA*%
X83906000Y-140414100D03*
%TO.N,SW4_BACK*%
X86289100Y-144395100D03*
%TO.N,RPI_LED*%
X103970100Y-129659600D03*
%TO.N,SW1_ENTER*%
X98050200Y-135824300D03*
X124601400Y-143595800D03*
X98077500Y-143595800D03*
%TO.N,SW3_DOWN*%
X129078300Y-132521600D03*
X91884000Y-131601600D03*
%TO.N,SW2_UP*%
X103971700Y-139064300D03*
X103291500Y-135297000D03*
%TO.N,LED_ACT*%
X118338900Y-129659600D03*
%TO.N,LED_PWR*%
X116420300Y-128819900D03*
%TO.N,Net-(A1-PWM1{slash}GPIO13)*%
X159966600Y-79558900D03*
X120859200Y-81937400D03*
%TO.N,+3.3V*%
X118475100Y-82506000D03*
X140348500Y-76611800D03*
X99440000Y-132195000D03*
X118349200Y-126513100D03*
X133003000Y-131602400D03*
X135105600Y-138818900D03*
X139955700Y-69648900D03*
X101024600Y-126712500D03*
X117816800Y-130546400D03*
X140055100Y-80005300D03*
%TO.N,/TAP_WRITE*%
X125525600Y-77536100D03*
%TO.N,/~{RESET_3V3}*%
X109643600Y-130238800D03*
X107337400Y-130462400D03*
X133375400Y-80206800D03*
X135239800Y-78125100D03*
X113064900Y-79825900D03*
%TO.N,/DIO6*%
X115760100Y-73365800D03*
X145641800Y-73197000D03*
X113285500Y-135380000D03*
%TO.N,/DIO2*%
X95130400Y-58929200D03*
%TO.N,/TAP_READ*%
X121662600Y-76823400D03*
%TO.N,/DIO8*%
X150804900Y-58527200D03*
X112813000Y-58045300D03*
%TO.N,/TAP_MOTOR*%
X123921900Y-71693700D03*
%TO.N,/DIO4*%
X145231100Y-56037800D03*
X101024600Y-58032400D03*
%TO.N,/DIO1*%
X142284000Y-68569800D03*
X112813000Y-70363000D03*
X109936900Y-85453100D03*
X88481200Y-135309500D03*
X88421300Y-88400200D03*
%TO.N,/DEV*%
X107739600Y-66949400D03*
X133639000Y-61365800D03*
X133442700Y-66971200D03*
%TO.N,/DIO5*%
X146394800Y-67770500D03*
X101498400Y-67585200D03*
%TO.N,/DIO7*%
X108074500Y-84653800D03*
X148178200Y-82411300D03*
%TO.N,/STATUS0*%
X125440400Y-126712500D03*
X121011000Y-125962500D03*
X130209900Y-59286500D03*
%TO.N,/ACK*%
X154072400Y-83021000D03*
X128401800Y-137724900D03*
X128654200Y-82859300D03*
%TO.N,/STATUS1*%
X131043000Y-62801900D03*
%TO.N,/TAP_SENSE*%
X111416200Y-129831100D03*
X105004500Y-129219500D03*
X103102000Y-69562800D03*
%TO.N,/DIO3*%
X90233100Y-132977500D03*
X144410300Y-74370900D03*
X95443300Y-132976700D03*
X98928300Y-74431300D03*
%TO.N,/DAV*%
X151924600Y-73533100D03*
X126727600Y-75791000D03*
X123663300Y-135473300D03*
%TO.N,/~{RESET}*%
X154525800Y-79558900D03*
%TO.N,/CAS_SENSE*%
X124220700Y-70749400D03*
%TO.N,Net-(JP2-A)*%
X134389400Y-69740700D03*
X133472500Y-71497200D03*
%TO.N,/CAS_READ*%
X127861800Y-68300300D03*
X106918800Y-67770500D03*
X104948000Y-77523800D03*
%TO.N,/VCC_5V*%
X124518200Y-76487400D03*
X96893400Y-79558900D03*
X98005500Y-74397600D03*
%TO.N,/CAS_WRITE*%
X135382500Y-80202000D03*
X132555900Y-66669200D03*
%TO.N,/CAS_MOTOR*%
X121397500Y-73021300D03*
%TD*%
D27*
%TO.N,GND*%
X114680000Y-136650000D02*
X114680000Y-137901700D01*
X101549600Y-73778800D02*
X101433900Y-73663100D01*
X131029400Y-76038300D02*
X131415900Y-76424800D01*
X85300000Y-63348300D02*
X86289100Y-62359200D01*
X110868900Y-137954100D02*
X110868900Y-136111900D01*
X109600000Y-134110000D02*
X109600000Y-135361700D01*
X90000000Y-62500000D02*
X90000000Y-64651700D01*
X89280000Y-84338900D02*
X91884000Y-81734900D01*
X134150000Y-141482100D02*
X134150000Y-139208200D01*
X112560000Y-140970000D02*
X112560000Y-140344100D01*
X112560000Y-139718300D02*
X114376600Y-137901700D01*
X92151700Y-81467200D02*
X91884000Y-81734900D01*
X89280000Y-134110000D02*
X89280000Y-84338900D01*
X165000000Y-75000000D02*
X162720100Y-72720100D01*
X137960000Y-140970000D02*
X136708300Y-140970000D01*
X128650000Y-66000000D02*
X128650000Y-70072100D01*
X90269100Y-64651700D02*
X92151700Y-66534300D01*
X109936900Y-66895000D02*
X109301100Y-67530800D01*
X136708300Y-141517700D02*
X136004300Y-142221700D01*
X136004300Y-142221700D02*
X134889600Y-142221700D01*
X109301100Y-67530800D02*
X109301100Y-73663100D01*
X112560000Y-140344100D02*
X112560000Y-139718300D01*
X162720100Y-64823400D02*
X162720100Y-60521000D01*
X85300000Y-65500000D02*
X85300000Y-63348300D01*
X92151700Y-71691300D02*
X92151700Y-81467200D01*
X90000000Y-64651700D02*
X90269100Y-64651700D01*
X134889600Y-142221700D02*
X134150000Y-141482100D01*
X101024600Y-81734900D02*
X101549600Y-81209900D01*
X101549600Y-81209900D02*
X101549600Y-79558900D01*
X112560000Y-140344100D02*
X110868900Y-138653000D01*
X128650000Y-70072100D02*
X128006100Y-70716000D01*
X92151700Y-66534300D02*
X92151700Y-71691300D01*
X92151700Y-71691300D02*
X92151700Y-76848300D01*
X131029400Y-70171600D02*
X131029400Y-76038300D01*
X92151700Y-76848300D02*
X92000000Y-77000000D01*
X134150000Y-139208200D02*
X130495600Y-135553800D01*
X136708300Y-140970000D02*
X136708300Y-141517700D01*
X101549600Y-79558900D02*
X101549600Y-73778800D01*
X130495600Y-134110000D02*
X130495600Y-135553800D01*
X162720100Y-72720100D02*
X162720100Y-64823400D01*
X114376600Y-137901700D02*
X114680000Y-137901700D01*
X86289100Y-62359200D02*
X86289100Y-61876300D01*
X110868900Y-138653000D02*
X110868900Y-137954100D01*
X110118700Y-135361700D02*
X109600000Y-135361700D01*
X110868900Y-136111900D02*
X110118700Y-135361700D01*
D28*
%TO.N,+5V*%
X88500000Y-82000000D02*
X75500000Y-95000000D01*
X88500000Y-77000000D02*
X88500000Y-82000000D01*
X90000000Y-70651700D02*
X88500000Y-72151700D01*
X77917919Y-136650000D02*
X75500000Y-134232081D01*
X79120000Y-136650000D02*
X77917919Y-136650000D01*
X90000000Y-68500000D02*
X90000000Y-70651700D01*
X75500000Y-134232081D02*
X75500000Y-95000000D01*
X88500000Y-72151700D02*
X88500000Y-77000000D01*
D29*
%TO.N,I2C_SCL*%
X85390600Y-139815800D02*
X85390600Y-136109600D01*
X84200000Y-134110000D02*
X84200000Y-135286700D01*
X84567700Y-135286700D02*
X84200000Y-135286700D01*
X85390600Y-136109600D02*
X84567700Y-135286700D01*
X83758400Y-141448000D02*
X85390600Y-139815800D01*
X83342000Y-141448000D02*
X83758400Y-141448000D01*
%TO.N,I2C_SDA*%
X82027800Y-135286700D02*
X81660000Y-135286700D01*
X81660000Y-134110000D02*
X81660000Y-135286700D01*
X83906000Y-140414100D02*
X82836700Y-139344800D01*
X82836700Y-136095600D02*
X82027800Y-135286700D01*
X82836700Y-139344800D02*
X82836700Y-136095600D01*
%TO.N,SW4_BACK*%
X86740000Y-135286700D02*
X87107700Y-135286700D01*
X87107700Y-135286700D02*
X87930600Y-136109600D01*
X86740000Y-134110000D02*
X86740000Y-135286700D01*
X87930600Y-136109600D02*
X87930600Y-142753600D01*
X87930600Y-142753600D02*
X86289100Y-144395100D01*
%TO.N,RPI_LED*%
X101980000Y-134110000D02*
X101980000Y-132933300D01*
X103970100Y-130943200D02*
X101980000Y-132933300D01*
X103970100Y-129659600D02*
X103970100Y-130943200D01*
%TO.N,SW1_ENTER*%
X125260000Y-142937200D02*
X125260000Y-140970000D01*
X124601400Y-143595800D02*
X125260000Y-142937200D01*
X98077500Y-135851600D02*
X98050200Y-135824300D01*
X98077500Y-143595800D02*
X98077500Y-135851600D01*
%TO.N,SW3_DOWN*%
X130340000Y-139793300D02*
X129078300Y-138531600D01*
X91884000Y-131601600D02*
X91820000Y-131665600D01*
X91820000Y-131665600D02*
X91820000Y-134110000D01*
X130340000Y-140970000D02*
X130340000Y-139793300D01*
X129078300Y-138531600D02*
X129078300Y-132521600D01*
%TO.N,SW2_UP*%
X103971700Y-139064300D02*
X103291500Y-138384100D01*
X103291500Y-138384100D02*
X103291500Y-135297000D01*
%TO.N,LED_ACT*%
X117640000Y-139793300D02*
X118443500Y-138989800D01*
X117640000Y-140970000D02*
X117640000Y-139793300D01*
X118443500Y-129764200D02*
X118338900Y-129659600D01*
X118443500Y-138989800D02*
X118443500Y-129764200D01*
%TO.N,LED_PWR*%
X115932100Y-138961200D02*
X115100000Y-139793300D01*
X115932100Y-129308100D02*
X115932100Y-138961200D01*
X116420300Y-128819900D02*
X115932100Y-129308100D01*
X115100000Y-140970000D02*
X115100000Y-139793300D01*
%TO.N,Net-(A1-PWM1{slash}GPIO13)*%
X119760000Y-134110000D02*
X119760000Y-83036600D01*
X119760000Y-83036600D02*
X120859200Y-81937400D01*
X161036700Y-75000000D02*
X161036700Y-78488800D01*
X159210000Y-75000000D02*
X161036700Y-75000000D01*
X161036700Y-78488800D02*
X159966600Y-79558900D01*
%TO.N,+3.3V*%
X118349200Y-126513100D02*
X118349200Y-82631900D01*
X140055100Y-80005300D02*
X140348500Y-79711900D01*
X140348500Y-79711900D02*
X140348500Y-76611800D01*
X99440000Y-128297100D02*
X99440000Y-132195000D01*
X139955700Y-69648900D02*
X140348500Y-70041700D01*
X133003000Y-131602400D02*
X133003000Y-136716300D01*
X140348500Y-70041700D02*
X140348500Y-76611800D01*
X101024600Y-126712500D02*
X99440000Y-128297100D01*
X99440000Y-132195000D02*
X99440000Y-134110000D01*
X118349200Y-82631900D02*
X118475100Y-82506000D01*
X117816800Y-130546400D02*
X117712100Y-130441700D01*
X117712100Y-127150200D02*
X118349200Y-126513100D01*
X133003000Y-136716300D02*
X135105600Y-138818900D01*
X117712100Y-130441700D02*
X117712100Y-127150200D01*
%TO.N,/TAP_WRITE*%
X125525600Y-77536100D02*
X124813700Y-78248000D01*
X124840000Y-134110000D02*
X124840000Y-132933300D01*
X124813700Y-132907000D02*
X124840000Y-132933300D01*
X124813700Y-78248000D02*
X124813700Y-132907000D01*
%TO.N,/~{RESET_3V3}*%
X113064900Y-79825900D02*
X112958300Y-79932500D01*
X112958300Y-79932500D02*
X112958300Y-126924100D01*
X133997400Y-80828800D02*
X133375400Y-80206800D01*
X135239800Y-78125100D02*
X136009300Y-78894600D01*
X107337400Y-132655900D02*
X107337400Y-130462400D01*
X135652300Y-80828800D02*
X133997400Y-80828800D01*
X107060000Y-134110000D02*
X107060000Y-132933300D01*
X112958300Y-126924100D02*
X109643600Y-130238800D01*
X136009300Y-80471800D02*
X135652300Y-80828800D01*
X107060000Y-132933300D02*
X107337400Y-132655900D01*
X136009300Y-78894600D02*
X136009300Y-80471800D01*
%TO.N,/DIO6*%
X115760100Y-124759000D02*
X113410000Y-127109100D01*
X113410000Y-127109100D02*
X113410000Y-135255500D01*
X145960000Y-67319100D02*
X145641800Y-67637300D01*
X115760100Y-73365800D02*
X115760100Y-124759000D01*
X147230000Y-60452000D02*
X145960000Y-61722000D01*
X145641800Y-67637300D02*
X145641800Y-73197000D01*
X113410000Y-135255500D02*
X113285500Y-135380000D01*
X145960000Y-61722000D02*
X145960000Y-67319100D01*
%TO.N,/DIO2*%
X92378200Y-137826700D02*
X91265600Y-137826700D01*
X90456700Y-137017800D02*
X90456700Y-136650000D01*
X93183300Y-137021600D02*
X92378200Y-137826700D01*
X95130400Y-58929200D02*
X93183300Y-60876300D01*
X89280000Y-136650000D02*
X90456700Y-136650000D01*
X91265600Y-137826700D02*
X90456700Y-137017800D01*
X93183300Y-60876300D02*
X93183300Y-137021600D01*
%TO.N,/TAP_READ*%
X121662600Y-132295900D02*
X121662600Y-76823400D01*
X122300000Y-134110000D02*
X122300000Y-132933300D01*
X122300000Y-132933300D02*
X121662600Y-132295900D01*
%TO.N,/DIO8*%
X109600000Y-136650000D02*
X108409400Y-135459400D01*
X150804900Y-59417100D02*
X149770000Y-60452000D01*
X108701200Y-93780100D02*
X108701200Y-84394200D01*
X108409400Y-135459400D02*
X108409400Y-94071900D01*
X108409400Y-94071900D02*
X108701200Y-93780100D01*
X108409400Y-84102400D02*
X108409400Y-62448900D01*
X150804900Y-58527200D02*
X150804900Y-59417100D01*
X108701200Y-84394200D02*
X108409400Y-84102400D01*
X108409400Y-62448900D02*
X112813000Y-58045300D01*
%TO.N,/TAP_MOTOR*%
X117190100Y-78425500D02*
X123921900Y-71693700D01*
X117220000Y-134110000D02*
X117220000Y-132933300D01*
X117190100Y-132903400D02*
X117190100Y-78425500D01*
X117220000Y-132933300D02*
X117190100Y-132903400D01*
%TO.N,/DIO4*%
X98076700Y-83142400D02*
X99890700Y-81328400D01*
X144690000Y-56578900D02*
X144690000Y-60452000D01*
X98076700Y-134664400D02*
X98076700Y-83142400D01*
X96900000Y-136650000D02*
X96900000Y-135473300D01*
X96900000Y-135473300D02*
X97267800Y-135473300D01*
X97267800Y-135473300D02*
X98076700Y-134664400D01*
X99890700Y-81328400D02*
X99890700Y-59166300D01*
X99890700Y-59166300D02*
X101024600Y-58032400D01*
X145231100Y-56037800D02*
X144690000Y-56578900D01*
%TO.N,/DIO1*%
X112438200Y-82951800D02*
X109936900Y-85453100D01*
X142284000Y-63126000D02*
X142284000Y-68569800D01*
X88103300Y-134931600D02*
X88481200Y-135309500D01*
X142150000Y-62992000D02*
X142284000Y-63126000D01*
X112438200Y-70737800D02*
X112438200Y-82951800D01*
X88103300Y-88718200D02*
X88103300Y-134931600D01*
X112813000Y-70363000D02*
X112438200Y-70737800D01*
X88421300Y-88400200D02*
X88103300Y-88718200D01*
%TO.N,/DEV*%
X133442700Y-66971200D02*
X133442700Y-61562100D01*
X107739600Y-66949400D02*
X107739600Y-84102500D01*
X106020800Y-131432500D02*
X104520000Y-132933300D01*
X104520000Y-134110000D02*
X104520000Y-132933300D01*
X107739600Y-84102500D02*
X106020800Y-85821300D01*
X133442700Y-61562100D02*
X133639000Y-61365800D01*
X106020800Y-85821300D02*
X106020800Y-131432500D01*
%TO.N,/DIO5*%
X147230000Y-66935300D02*
X146394800Y-67770500D01*
X102399800Y-128603100D02*
X100616700Y-130386200D01*
X99440000Y-136650000D02*
X99440000Y-135473300D01*
X101498400Y-67585200D02*
X102399800Y-68486600D01*
X99807800Y-135473300D02*
X99440000Y-135473300D01*
X100616700Y-134664400D02*
X99807800Y-135473300D01*
X102399800Y-68486600D02*
X102399800Y-128603100D01*
X100616700Y-130386200D02*
X100616700Y-134664400D01*
X147230000Y-62992000D02*
X147230000Y-66935300D01*
%TO.N,/DIO7*%
X149770000Y-62992000D02*
X148178200Y-64583800D01*
X105883300Y-133622500D02*
X105883300Y-134664400D01*
X108074500Y-84653800D02*
X106472500Y-86255800D01*
X107060000Y-136650000D02*
X107060000Y-135473300D01*
X106692200Y-135473300D02*
X107060000Y-135473300D01*
X106472500Y-86255800D02*
X106472500Y-133033300D01*
X105883300Y-134664400D02*
X106692200Y-135473300D01*
X106472500Y-133033300D02*
X105883300Y-133622500D01*
X148178200Y-64583800D02*
X148178200Y-82411300D01*
%TO.N,/STATUS0*%
X122300000Y-135473300D02*
X121932300Y-135473300D01*
X125440400Y-82704300D02*
X125440400Y-126712500D01*
X121011000Y-134552000D02*
X121011000Y-125962500D01*
X129644800Y-59851600D02*
X129644800Y-78499900D01*
X129644800Y-78499900D02*
X125440400Y-82704300D01*
X130209900Y-59286500D02*
X129644800Y-59851600D01*
X122300000Y-136650000D02*
X122300000Y-135473300D01*
X121932300Y-135473300D02*
X121011000Y-134552000D01*
%TO.N,/ACK*%
X153886400Y-63955600D02*
X153886400Y-82835000D01*
X128399600Y-132931600D02*
X128399600Y-83113900D01*
X154850000Y-62992000D02*
X153886400Y-63955600D01*
X128399600Y-83113900D02*
X128654200Y-82859300D01*
X128401800Y-137724900D02*
X128591200Y-137535500D01*
X153886400Y-82835000D02*
X154072400Y-83021000D01*
X128591200Y-137535500D02*
X128591200Y-133123200D01*
X128591200Y-133123200D02*
X128399600Y-132931600D01*
%TO.N,/STATUS1*%
X131043000Y-62801900D02*
X130202600Y-63642300D01*
X126203300Y-134664400D02*
X127012200Y-135473300D01*
X126203300Y-84424000D02*
X126203300Y-134664400D01*
X130202600Y-63642300D02*
X130202600Y-80424700D01*
X127380000Y-136650000D02*
X127380000Y-135473300D01*
X130202600Y-80424700D02*
X126203300Y-84424000D01*
X127012200Y-135473300D02*
X127380000Y-135473300D01*
%TO.N,/TAP_SENSE*%
X111416200Y-129831100D02*
X111416200Y-132209500D01*
X112140000Y-134110000D02*
X112140000Y-132933300D01*
X111416200Y-132209500D02*
X112140000Y-132933300D01*
X103102000Y-69562800D02*
X103102000Y-127317000D01*
X103102000Y-127317000D02*
X105004500Y-129219500D01*
%TO.N,/DIO3*%
X95443300Y-84818800D02*
X95443300Y-132976700D01*
X98928300Y-81333800D02*
X95443300Y-84818800D01*
X90233100Y-132977500D02*
X90643300Y-133387700D01*
X90643300Y-133387700D02*
X90643300Y-134664400D01*
X144410300Y-74370900D02*
X144410300Y-63271700D01*
X98928300Y-74431300D02*
X98928300Y-81333800D01*
X90643300Y-134664400D02*
X91452200Y-135473300D01*
X144410300Y-63271700D02*
X144690000Y-62992000D01*
X91452200Y-135473300D02*
X91820000Y-135473300D01*
X91820000Y-136650000D02*
X91820000Y-135473300D01*
%TO.N,/DAV*%
X123476200Y-78699300D02*
X123476200Y-127564400D01*
X126727600Y-75791000D02*
X126384500Y-75791000D01*
X152310000Y-62992000D02*
X151924600Y-63377400D01*
X151924600Y-63377400D02*
X151924600Y-73533100D01*
X123476200Y-127564400D02*
X123663300Y-127751500D01*
X126384500Y-75791000D02*
X123476200Y-78699300D01*
X123663300Y-127751500D02*
X123663300Y-135473300D01*
%TO.N,/~{RESET}*%
X154525800Y-65856200D02*
X157390000Y-62992000D01*
X154525800Y-79558900D02*
X154525800Y-65856200D01*
%TO.N,/CAS_SENSE*%
X126150000Y-66000000D02*
X126150000Y-68820100D01*
X126150000Y-68820100D02*
X124220700Y-70749400D01*
%TO.N,Net-(JP2-A)*%
X133472500Y-70657600D02*
X133472500Y-71497200D01*
X134389400Y-69740700D02*
X133472500Y-70657600D01*
%TO.N,/CAS_READ*%
X104948000Y-69741300D02*
X106918800Y-67770500D01*
X127661900Y-64488100D02*
X128650000Y-63500000D01*
X104948000Y-77523800D02*
X104948000Y-69741300D01*
X127661900Y-68100400D02*
X127661900Y-64488100D01*
X127861800Y-68300300D02*
X127661900Y-68100400D01*
%TO.N,/VCC_5V*%
X127148500Y-73857100D02*
X124518200Y-76487400D01*
X98005500Y-74397600D02*
X98005500Y-78446800D01*
X126550000Y-63500000D02*
X127148500Y-64098500D01*
X127148500Y-64098500D02*
X127148500Y-73857100D01*
X98005500Y-78446800D02*
X96893400Y-79558900D01*
%TO.N,/CAS_WRITE*%
X132555900Y-77375400D02*
X135382500Y-80202000D01*
X132555900Y-66669200D02*
X132555900Y-77375400D01*
%TO.N,/CAS_MOTOR*%
X122785500Y-71633300D02*
X121397500Y-73021300D01*
X122785500Y-64435500D02*
X122785500Y-71633300D01*
X121850000Y-63500000D02*
X122785500Y-64435500D01*
%TD*%
%TA.AperFunction,Conductor*%
%TO.N,GND*%
G36*
X120010000Y-137977230D02*
G01*
X120076126Y-137966757D01*
X120076129Y-137966757D01*
X120278217Y-137901095D01*
X120467557Y-137804620D01*
X120639459Y-137679727D01*
X120639464Y-137679723D01*
X120789723Y-137529464D01*
X120789727Y-137529459D01*
X120914619Y-137357560D01*
X120914738Y-137357327D01*
X120914808Y-137357252D01*
X120917168Y-137353402D01*
X120917976Y-137353897D01*
X120962707Y-137306526D01*
X121030526Y-137289723D01*
X121096663Y-137312254D01*
X121135712Y-137357311D01*
X121138105Y-137362008D01*
X121180002Y-137419674D01*
X121263794Y-137535004D01*
X121414996Y-137686206D01*
X121587991Y-137811894D01*
X121676524Y-137857004D01*
X121778516Y-137908972D01*
X121778519Y-137908973D01*
X121852524Y-137933018D01*
X121981884Y-137975049D01*
X122193084Y-138008500D01*
X122193085Y-138008500D01*
X122406915Y-138008500D01*
X122406916Y-138008500D01*
X122618116Y-137975049D01*
X122821483Y-137908972D01*
X123012009Y-137811894D01*
X123185004Y-137686206D01*
X123336206Y-137535004D01*
X123461894Y-137362009D01*
X123461896Y-137362004D01*
X123464270Y-137358132D01*
X123516080Y-137311254D01*
X123585009Y-137299829D01*
X123649173Y-137327483D01*
X123675730Y-137358132D01*
X123678103Y-137362005D01*
X123678105Y-137362008D01*
X123678106Y-137362009D01*
X123803794Y-137535004D01*
X123954996Y-137686206D01*
X124127991Y-137811894D01*
X124216524Y-137857004D01*
X124318516Y-137908972D01*
X124318519Y-137908973D01*
X124392524Y-137933018D01*
X124521884Y-137975049D01*
X124733084Y-138008500D01*
X124733085Y-138008500D01*
X124946915Y-138008500D01*
X124946916Y-138008500D01*
X125158116Y-137975049D01*
X125361483Y-137908972D01*
X125552009Y-137811894D01*
X125725004Y-137686206D01*
X125876206Y-137535004D01*
X126001894Y-137362009D01*
X126001896Y-137362004D01*
X126004270Y-137358132D01*
X126056080Y-137311254D01*
X126125009Y-137299829D01*
X126189173Y-137327483D01*
X126215730Y-137358132D01*
X126218103Y-137362005D01*
X126218105Y-137362008D01*
X126218106Y-137362009D01*
X126343794Y-137535004D01*
X126494996Y-137686206D01*
X126667991Y-137811894D01*
X126756524Y-137857004D01*
X126858516Y-137908972D01*
X126858519Y-137908973D01*
X126932524Y-137933018D01*
X127061884Y-137975049D01*
X127273084Y-138008500D01*
X127273085Y-138008500D01*
X127486913Y-138008500D01*
X127486916Y-138008500D01*
X127537926Y-138000420D01*
X127607217Y-138009374D01*
X127660670Y-138054369D01*
X127671883Y-138075438D01*
X127685314Y-138107862D01*
X127685320Y-138107874D01*
X127773798Y-138240291D01*
X127886405Y-138352898D01*
X127886412Y-138352904D01*
X128018830Y-138441382D01*
X128018831Y-138441382D01*
X128018832Y-138441383D01*
X128165969Y-138502330D01*
X128322165Y-138533399D01*
X128322169Y-138533400D01*
X128322170Y-138533400D01*
X128330983Y-138533400D01*
X128398022Y-138553085D01*
X128443777Y-138605889D01*
X128452600Y-138633209D01*
X128469143Y-138716377D01*
X128469145Y-138716385D01*
X128516898Y-138831672D01*
X128516903Y-138831681D01*
X128586228Y-138935432D01*
X128586231Y-138935436D01*
X129432111Y-139781315D01*
X129465596Y-139842638D01*
X129460612Y-139912329D01*
X129432112Y-139956677D01*
X129303793Y-140084996D01*
X129178105Y-140257991D01*
X129175727Y-140261873D01*
X129123914Y-140308748D01*
X129054984Y-140320169D01*
X128990822Y-140292512D01*
X128964273Y-140261873D01*
X128961894Y-140257991D01*
X128961893Y-140257990D01*
X128836206Y-140084996D01*
X128685004Y-139933794D01*
X128512009Y-139808106D01*
X128468814Y-139786097D01*
X128321483Y-139711027D01*
X128321480Y-139711026D01*
X128118117Y-139644951D01*
X128000997Y-139626401D01*
X127906916Y-139611500D01*
X127693084Y-139611500D01*
X127622684Y-139622650D01*
X127481882Y-139644951D01*
X127278519Y-139711026D01*
X127278516Y-139711027D01*
X127087990Y-139808106D01*
X126914993Y-139933796D01*
X126763796Y-140084993D01*
X126638105Y-140257991D01*
X126635727Y-140261873D01*
X126583914Y-140308748D01*
X126514984Y-140320169D01*
X126450822Y-140292512D01*
X126424273Y-140261873D01*
X126421894Y-140257991D01*
X126421893Y-140257990D01*
X126296206Y-140084996D01*
X126145004Y-139933794D01*
X125972009Y-139808106D01*
X125928814Y-139786097D01*
X125781483Y-139711027D01*
X125781480Y-139711026D01*
X125578117Y-139644951D01*
X125460997Y-139626401D01*
X125366916Y-139611500D01*
X125153084Y-139611500D01*
X125082684Y-139622650D01*
X124941882Y-139644951D01*
X124738519Y-139711026D01*
X124738516Y-139711027D01*
X124547990Y-139808106D01*
X124374993Y-139933796D01*
X124223796Y-140084993D01*
X124098105Y-140257991D01*
X124095727Y-140261873D01*
X124043914Y-140308748D01*
X123974984Y-140320169D01*
X123910822Y-140292512D01*
X123884273Y-140261873D01*
X123881894Y-140257991D01*
X123881893Y-140257990D01*
X123756206Y-140084996D01*
X123605004Y-139933794D01*
X123432009Y-139808106D01*
X123388814Y-139786097D01*
X123241483Y-139711027D01*
X123241480Y-139711026D01*
X123038117Y-139644951D01*
X122920997Y-139626401D01*
X122826916Y-139611500D01*
X122613084Y-139611500D01*
X122542684Y-139622650D01*
X122401882Y-139644951D01*
X122198519Y-139711026D01*
X122198516Y-139711027D01*
X122007990Y-139808106D01*
X121834993Y-139933796D01*
X121683796Y-140084993D01*
X121558105Y-140257991D01*
X121555727Y-140261873D01*
X121503914Y-140308748D01*
X121434984Y-140320169D01*
X121370822Y-140292512D01*
X121344273Y-140261873D01*
X121341894Y-140257991D01*
X121341893Y-140257990D01*
X121216206Y-140084996D01*
X121065004Y-139933794D01*
X120892009Y-139808106D01*
X120848814Y-139786097D01*
X120701483Y-139711027D01*
X120701480Y-139711026D01*
X120498117Y-139644951D01*
X120380997Y-139626401D01*
X120286916Y-139611500D01*
X120073084Y-139611500D01*
X120002684Y-139622650D01*
X119861882Y-139644951D01*
X119658519Y-139711026D01*
X119658516Y-139711027D01*
X119467990Y-139808106D01*
X119294993Y-139933796D01*
X119143796Y-140084993D01*
X119018105Y-140257991D01*
X119015727Y-140261873D01*
X118963914Y-140308748D01*
X118894984Y-140320169D01*
X118830822Y-140292512D01*
X118804273Y-140261873D01*
X118801894Y-140257991D01*
X118801893Y-140257990D01*
X118676206Y-140084996D01*
X118547887Y-139956677D01*
X118514403Y-139895355D01*
X118519387Y-139825663D01*
X118547888Y-139781316D01*
X118701805Y-139627400D01*
X118935572Y-139393633D01*
X119004901Y-139289875D01*
X119031827Y-139224867D01*
X119052654Y-139174587D01*
X119052655Y-139174582D01*
X119054543Y-139165097D01*
X119076999Y-139052198D01*
X119077000Y-139052195D01*
X119077000Y-138018224D01*
X119096685Y-137951185D01*
X119149489Y-137905430D01*
X119218647Y-137895486D01*
X119239319Y-137900293D01*
X119443874Y-137966757D01*
X119510000Y-137977231D01*
X119510000Y-137083012D01*
X119567007Y-137115925D01*
X119694174Y-137150000D01*
X119825826Y-137150000D01*
X119952993Y-137115925D01*
X120010000Y-137083012D01*
X120010000Y-137977230D01*
G37*
%TD.AperFunction*%
%TA.AperFunction,Conductor*%
G36*
X84450000Y-137977230D02*
G01*
X84516125Y-137966758D01*
X84594781Y-137941201D01*
X84664623Y-137939206D01*
X84724456Y-137975286D01*
X84755284Y-138037987D01*
X84757100Y-138059132D01*
X84757100Y-139502034D01*
X84748455Y-139531474D01*
X84741932Y-139561461D01*
X84738177Y-139566476D01*
X84737415Y-139569073D01*
X84720785Y-139589710D01*
X84633851Y-139676645D01*
X84555096Y-139755400D01*
X84493773Y-139788884D01*
X84424081Y-139783900D01*
X84398528Y-139770822D01*
X84320825Y-139718903D01*
X84288967Y-139697616D01*
X84141831Y-139636670D01*
X84141823Y-139636668D01*
X84032227Y-139614868D01*
X83970316Y-139582483D01*
X83968737Y-139580932D01*
X83506519Y-139118714D01*
X83473034Y-139057391D01*
X83470200Y-139031033D01*
X83470200Y-137995638D01*
X83489885Y-137928599D01*
X83542689Y-137882844D01*
X83611847Y-137872900D01*
X83650496Y-137885154D01*
X83681780Y-137901094D01*
X83883871Y-137966757D01*
X83950000Y-137977231D01*
X83950000Y-137083012D01*
X84007007Y-137115925D01*
X84134174Y-137150000D01*
X84265826Y-137150000D01*
X84392993Y-137115925D01*
X84450000Y-137083012D01*
X84450000Y-137977230D01*
G37*
%TD.AperFunction*%
%TA.AperFunction,Conductor*%
G36*
X110936663Y-134772254D02*
G01*
X110975712Y-134817311D01*
X110978105Y-134822008D01*
X111020002Y-134879674D01*
X111103794Y-134995004D01*
X111254996Y-135146206D01*
X111346347Y-135212576D01*
X111427991Y-135271894D01*
X111431873Y-135274273D01*
X111478748Y-135326086D01*
X111490169Y-135395016D01*
X111462512Y-135459178D01*
X111431873Y-135485727D01*
X111427991Y-135488105D01*
X111254993Y-135613796D01*
X111103796Y-135764993D01*
X110978105Y-135937991D01*
X110975727Y-135941873D01*
X110923914Y-135988748D01*
X110854984Y-136000169D01*
X110790822Y-135972512D01*
X110764273Y-135941873D01*
X110761894Y-135937991D01*
X110748968Y-135920200D01*
X110636206Y-135764996D01*
X110485004Y-135613794D01*
X110329799Y-135501031D01*
X110312008Y-135488105D01*
X110307311Y-135485712D01*
X110256517Y-135437735D01*
X110239724Y-135369914D01*
X110262264Y-135303780D01*
X110303790Y-135267801D01*
X110303402Y-135267168D01*
X110307229Y-135264822D01*
X110307327Y-135264738D01*
X110307560Y-135264619D01*
X110479459Y-135139727D01*
X110479464Y-135139723D01*
X110629723Y-134989464D01*
X110629727Y-134989459D01*
X110754619Y-134817560D01*
X110754738Y-134817327D01*
X110754808Y-134817252D01*
X110757168Y-134813402D01*
X110757976Y-134813897D01*
X110802707Y-134766526D01*
X110870526Y-134749723D01*
X110936663Y-134772254D01*
G37*
%TD.AperFunction*%
%TA.AperFunction,Conductor*%
G36*
X110669625Y-130211191D02*
G01*
X110725558Y-130253063D01*
X110729394Y-130258483D01*
X110761803Y-130306987D01*
X110782680Y-130373664D01*
X110782700Y-130375877D01*
X110782700Y-132271898D01*
X110807043Y-132394277D01*
X110807045Y-132394285D01*
X110854798Y-132509572D01*
X110854803Y-132509581D01*
X110924128Y-132613332D01*
X110924131Y-132613336D01*
X111232111Y-132921316D01*
X111265596Y-132982639D01*
X111260612Y-133052331D01*
X111232112Y-133096678D01*
X111103793Y-133224997D01*
X110978103Y-133397994D01*
X110975709Y-133402693D01*
X110927731Y-133453485D01*
X110859908Y-133470275D01*
X110793775Y-133447732D01*
X110757800Y-133406210D01*
X110757168Y-133406598D01*
X110754829Y-133402781D01*
X110754743Y-133402682D01*
X110754620Y-133402441D01*
X110629727Y-133230540D01*
X110629723Y-133230535D01*
X110479464Y-133080276D01*
X110479459Y-133080272D01*
X110307557Y-132955379D01*
X110118215Y-132858903D01*
X109916124Y-132793241D01*
X109850000Y-132782768D01*
X109850000Y-133676988D01*
X109792993Y-133644075D01*
X109665826Y-133610000D01*
X109534174Y-133610000D01*
X109407007Y-133644075D01*
X109350000Y-133676988D01*
X109350000Y-132782768D01*
X109349999Y-132782768D01*
X109283880Y-132793240D01*
X109205217Y-132818799D01*
X109135375Y-132820793D01*
X109075543Y-132784711D01*
X109044716Y-132722010D01*
X109042900Y-132700867D01*
X109042900Y-131041786D01*
X109062585Y-130974747D01*
X109115389Y-130928992D01*
X109184547Y-130919048D01*
X109235788Y-130938683D01*
X109260632Y-130955283D01*
X109407769Y-131016230D01*
X109536249Y-131041786D01*
X109563965Y-131047299D01*
X109563969Y-131047300D01*
X109563970Y-131047300D01*
X109723231Y-131047300D01*
X109723232Y-131047299D01*
X109879431Y-131016230D01*
X110026568Y-130955283D01*
X110158989Y-130866803D01*
X110271603Y-130754189D01*
X110360083Y-130621768D01*
X110421030Y-130474631D01*
X110442831Y-130365022D01*
X110451596Y-130348267D01*
X110455616Y-130329789D01*
X110474358Y-130304752D01*
X110475215Y-130303115D01*
X110476711Y-130301591D01*
X110538612Y-130239690D01*
X110599933Y-130206207D01*
X110669625Y-130211191D01*
G37*
%TD.AperFunction*%
%TA.AperFunction,Conductor*%
G36*
X127685434Y-83940284D02*
G01*
X127741367Y-83982156D01*
X127765784Y-84047620D01*
X127766100Y-84056466D01*
X127766100Y-132659138D01*
X127746415Y-132726177D01*
X127693611Y-132771932D01*
X127632379Y-132780736D01*
X127630000Y-132782768D01*
X127630000Y-133676988D01*
X127572993Y-133644075D01*
X127445826Y-133610000D01*
X127314174Y-133610000D01*
X127187007Y-133644075D01*
X127130000Y-133676988D01*
X127130000Y-132782768D01*
X127129999Y-132782768D01*
X127063874Y-132793241D01*
X126999117Y-132814282D01*
X126929276Y-132816277D01*
X126869443Y-132780196D01*
X126838616Y-132717494D01*
X126836800Y-132696351D01*
X126836800Y-84737766D01*
X126856485Y-84670727D01*
X126873119Y-84650085D01*
X127554419Y-83968785D01*
X127615742Y-83935300D01*
X127685434Y-83940284D01*
G37*
%TD.AperFunction*%
%TA.AperFunction,Conductor*%
G36*
X100676098Y-67851318D02*
G01*
X100687359Y-67851721D01*
X100707306Y-67865571D01*
X100729403Y-67875662D01*
X100736985Y-67886177D01*
X100744751Y-67891569D01*
X100762761Y-67921922D01*
X100781917Y-67968169D01*
X100870395Y-68100587D01*
X100870401Y-68100594D01*
X100983005Y-68213198D01*
X100983012Y-68213204D01*
X101115430Y-68301682D01*
X101115431Y-68301682D01*
X101115432Y-68301683D01*
X101262569Y-68362630D01*
X101296966Y-68369471D01*
X101372174Y-68384432D01*
X101434085Y-68416816D01*
X101435664Y-68418368D01*
X101729981Y-68712685D01*
X101763466Y-68774008D01*
X101766300Y-68800366D01*
X101766300Y-126011445D01*
X101746615Y-126078484D01*
X101693811Y-126124239D01*
X101624653Y-126134183D01*
X101561097Y-126105158D01*
X101554619Y-126099126D01*
X101539994Y-126084501D01*
X101539987Y-126084495D01*
X101407569Y-125996017D01*
X101260431Y-125935070D01*
X101260423Y-125935068D01*
X101104234Y-125904000D01*
X101104230Y-125904000D01*
X100944970Y-125904000D01*
X100944965Y-125904000D01*
X100788776Y-125935068D01*
X100788768Y-125935070D01*
X100641630Y-125996017D01*
X100509212Y-126084495D01*
X100509205Y-126084501D01*
X100396601Y-126197105D01*
X100396595Y-126197112D01*
X100308117Y-126329530D01*
X100247170Y-126476668D01*
X100247168Y-126476674D01*
X100225368Y-126586272D01*
X100192983Y-126648182D01*
X100191432Y-126649761D01*
X99037768Y-127803427D01*
X99037754Y-127803441D01*
X99036167Y-127805029D01*
X98947929Y-127893267D01*
X98931785Y-127917427D01*
X98925016Y-127924709D01*
X98903181Y-127937685D01*
X98883688Y-127953976D01*
X98873649Y-127955236D01*
X98864953Y-127960405D01*
X98839566Y-127959516D01*
X98814362Y-127962682D01*
X98805236Y-127958315D01*
X98795126Y-127957962D01*
X98774249Y-127943489D01*
X98751336Y-127932526D01*
X98746019Y-127923919D01*
X98737705Y-127918155D01*
X98727965Y-127894691D01*
X98714618Y-127873082D01*
X98712514Y-127857466D01*
X98710920Y-127853624D01*
X98711535Y-127850196D01*
X98710200Y-127840279D01*
X98710200Y-83456166D01*
X98729885Y-83389127D01*
X98746519Y-83368485D01*
X100382768Y-81732236D01*
X100382771Y-81732233D01*
X100452100Y-81628475D01*
X100499855Y-81513185D01*
X100524200Y-81390794D01*
X100524200Y-81266007D01*
X100524200Y-67969375D01*
X100527374Y-67958563D01*
X100526170Y-67947359D01*
X100537042Y-67925637D01*
X100543885Y-67902336D01*
X100552400Y-67894957D01*
X100557445Y-67884879D01*
X100578336Y-67872483D01*
X100596689Y-67856581D01*
X100607842Y-67854977D01*
X100617534Y-67849227D01*
X100641805Y-67850093D01*
X100665847Y-67846637D01*
X100676098Y-67851318D01*
G37*
%TD.AperFunction*%
%TA.AperFunction,Conductor*%
G36*
X128937195Y-67088153D02*
G01*
X128990647Y-67133150D01*
X129011287Y-67199901D01*
X129011300Y-67201672D01*
X129011300Y-78186133D01*
X128991615Y-78253172D01*
X128974981Y-78273814D01*
X125658881Y-81589914D01*
X125597558Y-81623399D01*
X125527866Y-81618415D01*
X125471933Y-81576543D01*
X125447516Y-81511079D01*
X125447200Y-81502233D01*
X125447200Y-78561766D01*
X125455845Y-78532322D01*
X125462368Y-78502340D01*
X125466122Y-78497324D01*
X125466885Y-78494727D01*
X125483514Y-78474089D01*
X125588337Y-78369265D01*
X125649658Y-78335782D01*
X125651743Y-78335347D01*
X125761431Y-78313530D01*
X125908568Y-78252583D01*
X126040989Y-78164103D01*
X126153603Y-78051489D01*
X126242083Y-77919068D01*
X126303030Y-77771931D01*
X126334100Y-77615730D01*
X126334100Y-77456470D01*
X126303030Y-77300269D01*
X126242083Y-77153132D01*
X126168918Y-77043632D01*
X126148041Y-76976956D01*
X126166526Y-76909576D01*
X126184333Y-76887070D01*
X126454249Y-76617153D01*
X126515570Y-76583670D01*
X126566118Y-76583219D01*
X126647968Y-76599499D01*
X126647969Y-76599500D01*
X126647970Y-76599500D01*
X126807231Y-76599500D01*
X126807232Y-76599499D01*
X126963431Y-76568430D01*
X127110568Y-76507483D01*
X127242989Y-76419003D01*
X127355603Y-76306389D01*
X127444083Y-76173968D01*
X127505030Y-76026831D01*
X127536100Y-75870630D01*
X127536100Y-75711370D01*
X127505030Y-75555169D01*
X127444083Y-75408032D01*
X127438782Y-75400099D01*
X127355604Y-75275612D01*
X127355598Y-75275605D01*
X127242994Y-75163001D01*
X127242987Y-75162995D01*
X127110569Y-75074517D01*
X127081497Y-75062475D01*
X127027093Y-75018633D01*
X127005029Y-74952339D01*
X127022309Y-74884640D01*
X127041264Y-74860238D01*
X127640571Y-74260933D01*
X127709900Y-74157175D01*
X127757655Y-74041885D01*
X127782000Y-73919494D01*
X127782000Y-73794706D01*
X127782000Y-69232800D01*
X127801685Y-69165761D01*
X127854489Y-69120006D01*
X127906000Y-69108800D01*
X127941431Y-69108800D01*
X127941432Y-69108799D01*
X128097631Y-69077730D01*
X128244768Y-69016783D01*
X128377189Y-68928303D01*
X128489803Y-68815689D01*
X128578283Y-68683268D01*
X128639230Y-68536131D01*
X128670300Y-68379930D01*
X128670300Y-68220670D01*
X128639230Y-68064469D01*
X128578283Y-67917332D01*
X128550440Y-67875662D01*
X128489804Y-67784912D01*
X128489798Y-67784905D01*
X128377192Y-67672299D01*
X128377186Y-67672294D01*
X128350508Y-67654468D01*
X128305703Y-67600855D01*
X128295400Y-67551367D01*
X128295400Y-67202733D01*
X128315085Y-67135694D01*
X128367889Y-67089939D01*
X128437047Y-67079995D01*
X128438798Y-67080260D01*
X128563429Y-67100000D01*
X128736571Y-67100000D01*
X128867902Y-67079199D01*
X128937195Y-67088153D01*
G37*
%TD.AperFunction*%
%TA.AperFunction,Conductor*%
G36*
X156924075Y-60644993D02*
G01*
X156989901Y-60759007D01*
X157082993Y-60852099D01*
X157197007Y-60917925D01*
X157260590Y-60934962D01*
X156628282Y-61567269D01*
X156628282Y-61567270D01*
X156682449Y-61606624D01*
X156682682Y-61606743D01*
X156682755Y-61606812D01*
X156686604Y-61609171D01*
X156686108Y-61609979D01*
X156733479Y-61654716D01*
X156750275Y-61722537D01*
X156727739Y-61788672D01*
X156682693Y-61827709D01*
X156677994Y-61830103D01*
X156504993Y-61955796D01*
X156353796Y-62106993D01*
X156228105Y-62279991D01*
X156225727Y-62283873D01*
X156173914Y-62330748D01*
X156104984Y-62342169D01*
X156040822Y-62314512D01*
X156014273Y-62283873D01*
X156011894Y-62279991D01*
X156011893Y-62279990D01*
X155886206Y-62106996D01*
X155735004Y-61955794D01*
X155562009Y-61830106D01*
X155562005Y-61830103D01*
X155558132Y-61827730D01*
X155511254Y-61775920D01*
X155499829Y-61706991D01*
X155527483Y-61642827D01*
X155558132Y-61616270D01*
X155562005Y-61613896D01*
X155562004Y-61613896D01*
X155562009Y-61613894D01*
X155735004Y-61488206D01*
X155886206Y-61337004D01*
X156011894Y-61164009D01*
X156014283Y-61159319D01*
X156062254Y-61108522D01*
X156130074Y-61091724D01*
X156196210Y-61114258D01*
X156232196Y-61155783D01*
X156232829Y-61155396D01*
X156235167Y-61159211D01*
X156235251Y-61159308D01*
X156235371Y-61159545D01*
X156235373Y-61159547D01*
X156274728Y-61213716D01*
X156907036Y-60581407D01*
X156924075Y-60644993D01*
G37*
%TD.AperFunction*%
%TA.AperFunction,Conductor*%
G36*
X163943039Y-54705185D02*
G01*
X163988794Y-54757989D01*
X164000000Y-54809500D01*
X164000000Y-60639346D01*
X169980500Y-60639346D01*
X170047539Y-60659031D01*
X170093294Y-60711835D01*
X170104500Y-60763346D01*
X170104500Y-148376000D01*
X170084815Y-148443039D01*
X170032011Y-148488794D01*
X169980500Y-148500000D01*
X164000000Y-148500000D01*
X164000000Y-154410500D01*
X163980315Y-154477539D01*
X163927511Y-154523294D01*
X163876000Y-154534500D01*
X138289000Y-154534500D01*
X138221961Y-154514815D01*
X138176206Y-154462011D01*
X138165000Y-154410500D01*
X138165000Y-151394983D01*
X138165000Y-151394982D01*
X138153506Y-151367233D01*
X138132267Y-151345994D01*
X138104518Y-151334500D01*
X120195018Y-151334500D01*
X102285518Y-151334500D01*
X102255482Y-151334500D01*
X102227731Y-151345995D01*
X102206495Y-151367231D01*
X102195000Y-151394982D01*
X102195000Y-154410500D01*
X102175315Y-154477539D01*
X102122511Y-154523294D01*
X102071000Y-154534500D01*
X76624000Y-154534500D01*
X76556961Y-154514815D01*
X76511206Y-154462011D01*
X76500000Y-154410500D01*
X76500000Y-148500000D01*
X70379500Y-148500000D01*
X70312461Y-148480315D01*
X70266706Y-148427511D01*
X70255500Y-148376000D01*
X70255500Y-94912759D01*
X74391500Y-94912759D01*
X74391500Y-94919308D01*
X74391500Y-134319321D01*
X74418795Y-134491658D01*
X74472709Y-134657592D01*
X74472713Y-134657603D01*
X74551926Y-134813063D01*
X74654477Y-134954213D01*
X74654481Y-134954218D01*
X77195781Y-137495518D01*
X77195786Y-137495522D01*
X77336936Y-137598073D01*
X77492396Y-137677286D01*
X77492407Y-137677290D01*
X77624736Y-137720285D01*
X77658345Y-137731205D01*
X77830678Y-137758500D01*
X78294210Y-137758500D01*
X78361249Y-137778185D01*
X78367095Y-137782182D01*
X78390999Y-137799549D01*
X78407991Y-137811894D01*
X78525000Y-137871513D01*
X78598516Y-137908972D01*
X78598519Y-137908973D01*
X78672524Y-137933018D01*
X78801884Y-137975049D01*
X79013084Y-138008500D01*
X79013085Y-138008500D01*
X79226915Y-138008500D01*
X79226916Y-138008500D01*
X79438116Y-137975049D01*
X79641483Y-137908972D01*
X79832009Y-137811894D01*
X80005004Y-137686206D01*
X80156206Y-137535004D01*
X80281894Y-137362009D01*
X80281896Y-137362004D01*
X80284270Y-137358132D01*
X80336080Y-137311254D01*
X80405009Y-137299829D01*
X80469173Y-137327483D01*
X80495730Y-137358132D01*
X80498103Y-137362005D01*
X80498105Y-137362008D01*
X80498106Y-137362009D01*
X80623794Y-137535004D01*
X80774996Y-137686206D01*
X80947991Y-137811894D01*
X81036524Y-137857004D01*
X81138516Y-137908972D01*
X81138519Y-137908973D01*
X81212524Y-137933018D01*
X81341884Y-137975049D01*
X81553084Y-138008500D01*
X81553085Y-138008500D01*
X81766915Y-138008500D01*
X81766916Y-138008500D01*
X81978116Y-137975049D01*
X82040883Y-137954654D01*
X82110722Y-137952660D01*
X82170555Y-137988740D01*
X82201384Y-138051441D01*
X82203200Y-138072586D01*
X82203200Y-139407198D01*
X82227543Y-139529577D01*
X82227545Y-139529585D01*
X82275298Y-139644872D01*
X82275303Y-139644881D01*
X82344628Y-139748632D01*
X82344631Y-139748636D01*
X83072832Y-140476837D01*
X83081894Y-140493433D01*
X83095027Y-140507044D01*
X83105433Y-140536541D01*
X83106317Y-140538160D01*
X83106769Y-140540328D01*
X83110805Y-140560619D01*
X83104577Y-140630210D01*
X83061713Y-140685387D01*
X83036640Y-140699370D01*
X82959030Y-140731517D01*
X82826612Y-140819995D01*
X82826605Y-140820001D01*
X82714001Y-140932605D01*
X82713995Y-140932612D01*
X82625517Y-141065030D01*
X82564570Y-141212168D01*
X82564568Y-141212176D01*
X82533500Y-141368365D01*
X82533500Y-141527634D01*
X82564568Y-141683823D01*
X82564570Y-141683831D01*
X82625517Y-141830969D01*
X82713995Y-141963387D01*
X82714001Y-141963394D01*
X82826605Y-142075998D01*
X82826612Y-142076004D01*
X82959030Y-142164482D01*
X82959031Y-142164482D01*
X82959032Y-142164483D01*
X83106169Y-142225430D01*
X83262365Y-142256499D01*
X83262369Y-142256500D01*
X83262370Y-142256500D01*
X83421631Y-142256500D01*
X83421632Y-142256499D01*
X83577831Y-142225430D01*
X83724968Y-142164483D01*
X83840682Y-142087165D01*
X83885374Y-142068653D01*
X83943185Y-142057155D01*
X84058475Y-142009400D01*
X84162233Y-141940071D01*
X85882671Y-140219633D01*
X85952000Y-140115875D01*
X85999755Y-140000585D01*
X86024100Y-139878194D01*
X86024100Y-139753407D01*
X86024100Y-138012261D01*
X86043785Y-137945222D01*
X86096589Y-137899467D01*
X86165747Y-137889523D01*
X86204398Y-137901778D01*
X86218513Y-137908970D01*
X86218519Y-137908973D01*
X86292524Y-137933018D01*
X86421884Y-137975049D01*
X86633084Y-138008500D01*
X86633085Y-138008500D01*
X86846915Y-138008500D01*
X86846916Y-138008500D01*
X87058116Y-137975049D01*
X87134782Y-137950138D01*
X87204623Y-137948144D01*
X87264456Y-137984224D01*
X87295284Y-138046925D01*
X87297100Y-138068070D01*
X87297100Y-142439833D01*
X87277415Y-142506872D01*
X87260781Y-142527514D01*
X86226362Y-143561932D01*
X86165039Y-143595417D01*
X86162872Y-143595868D01*
X86053276Y-143617668D01*
X86053268Y-143617670D01*
X85906130Y-143678617D01*
X85773712Y-143767095D01*
X85773705Y-143767101D01*
X85661101Y-143879705D01*
X85661095Y-143879712D01*
X85572617Y-144012130D01*
X85511670Y-144159268D01*
X85511668Y-144159276D01*
X85480600Y-144315465D01*
X85480600Y-144474734D01*
X85511668Y-144630923D01*
X85511670Y-144630931D01*
X85572617Y-144778069D01*
X85661095Y-144910487D01*
X85661101Y-144910494D01*
X85773705Y-145023098D01*
X85773712Y-145023104D01*
X85906130Y-145111582D01*
X85906131Y-145111582D01*
X85906132Y-145111583D01*
X86053269Y-145172530D01*
X86209465Y-145203599D01*
X86209469Y-145203600D01*
X86209470Y-145203600D01*
X86368731Y-145203600D01*
X86368732Y-145203599D01*
X86524931Y-145172530D01*
X86672068Y-145111583D01*
X86804489Y-145023103D01*
X86917103Y-144910489D01*
X86998959Y-144787982D01*
X91699500Y-144787982D01*
X91699500Y-146792982D01*
X91699500Y-146823018D01*
X91710994Y-146850767D01*
X91732233Y-146872006D01*
X91759982Y-146883500D01*
X91759984Y-146883500D01*
X97790016Y-146883500D01*
X97790018Y-146883500D01*
X97817767Y-146872006D01*
X97839006Y-146850767D01*
X97850500Y-146823018D01*
X97850500Y-144787982D01*
X142499500Y-144787982D01*
X142499500Y-146792982D01*
X142499500Y-146823018D01*
X142510994Y-146850767D01*
X142532233Y-146872006D01*
X142559982Y-146883500D01*
X142559984Y-146883500D01*
X148590016Y-146883500D01*
X148590018Y-146883500D01*
X148617767Y-146872006D01*
X148639006Y-146850767D01*
X148650500Y-146823018D01*
X148650500Y-144787982D01*
X148639006Y-144760233D01*
X148617767Y-144738994D01*
X148590018Y-144727500D01*
X142590018Y-144727500D01*
X142559982Y-144727500D01*
X142544068Y-144734092D01*
X142532231Y-144738995D01*
X142510995Y-144760231D01*
X142510994Y-144760232D01*
X142510994Y-144760233D01*
X142499500Y-144787982D01*
X97850500Y-144787982D01*
X97839006Y-144760233D01*
X97817767Y-144738994D01*
X97790018Y-144727500D01*
X91790018Y-144727500D01*
X91759982Y-144727500D01*
X91744068Y-144734092D01*
X91732231Y-144738995D01*
X91710995Y-144760231D01*
X91710994Y-144760232D01*
X91710994Y-144760233D01*
X91699500Y-144787982D01*
X86998959Y-144787982D01*
X87005583Y-144778068D01*
X87066530Y-144630931D01*
X87089488Y-144515505D01*
X87091195Y-144509828D01*
X87107159Y-144485328D01*
X87120715Y-144459415D01*
X87122209Y-144457893D01*
X88422672Y-143157433D01*
X88492001Y-143053675D01*
X88539755Y-142938384D01*
X88544501Y-142914527D01*
X88564100Y-142815994D01*
X88564100Y-138012261D01*
X88583785Y-137945222D01*
X88636589Y-137899467D01*
X88705747Y-137889523D01*
X88744398Y-137901778D01*
X88758513Y-137908970D01*
X88758519Y-137908973D01*
X88832524Y-137933018D01*
X88961884Y-137975049D01*
X89173084Y-138008500D01*
X89173085Y-138008500D01*
X89386915Y-138008500D01*
X89386916Y-138008500D01*
X89598116Y-137975049D01*
X89801483Y-137908972D01*
X89992009Y-137811894D01*
X90116510Y-137721438D01*
X90182312Y-137697960D01*
X90250366Y-137713785D01*
X90277073Y-137734077D01*
X90861763Y-138318768D01*
X90861767Y-138318771D01*
X90965518Y-138388096D01*
X90965524Y-138388099D01*
X90965525Y-138388100D01*
X91080815Y-138435855D01*
X91203201Y-138460199D01*
X91203205Y-138460200D01*
X91203206Y-138460200D01*
X92440595Y-138460200D01*
X92440596Y-138460199D01*
X92562985Y-138435855D01*
X92678275Y-138388100D01*
X92782033Y-138318771D01*
X93371214Y-137729589D01*
X93432535Y-137696106D01*
X93502226Y-137701090D01*
X93531778Y-137716954D01*
X93652442Y-137804620D01*
X93841782Y-137901095D01*
X94043871Y-137966757D01*
X94110000Y-137977231D01*
X94110000Y-137083012D01*
X94167007Y-137115925D01*
X94294174Y-137150000D01*
X94425826Y-137150000D01*
X94552993Y-137115925D01*
X94610000Y-137083012D01*
X94610000Y-137977230D01*
X94676126Y-137966757D01*
X94676129Y-137966757D01*
X94878217Y-137901095D01*
X95067557Y-137804620D01*
X95239459Y-137679727D01*
X95239464Y-137679723D01*
X95389723Y-137529464D01*
X95389727Y-137529459D01*
X95514619Y-137357560D01*
X95514738Y-137357327D01*
X95514808Y-137357252D01*
X95517168Y-137353402D01*
X95517976Y-137353897D01*
X95562707Y-137306526D01*
X95630526Y-137289723D01*
X95696663Y-137312254D01*
X95735712Y-137357311D01*
X95738105Y-137362008D01*
X95780002Y-137419674D01*
X95863794Y-137535004D01*
X96014996Y-137686206D01*
X96187991Y-137811894D01*
X96276524Y-137857004D01*
X96378516Y-137908972D01*
X96378519Y-137908973D01*
X96452524Y-137933018D01*
X96581884Y-137975049D01*
X96793084Y-138008500D01*
X96793085Y-138008500D01*
X97006915Y-138008500D01*
X97006916Y-138008500D01*
X97218116Y-137975049D01*
X97281683Y-137954394D01*
X97351522Y-137952400D01*
X97411355Y-137988480D01*
X97442184Y-138051180D01*
X97444000Y-138072326D01*
X97444000Y-143051022D01*
X97424315Y-143118061D01*
X97423103Y-143119912D01*
X97361016Y-143212833D01*
X97300070Y-143359968D01*
X97300068Y-143359976D01*
X97269000Y-143516165D01*
X97269000Y-143675434D01*
X97300068Y-143831623D01*
X97300070Y-143831631D01*
X97361017Y-143978769D01*
X97449495Y-144111187D01*
X97449501Y-144111194D01*
X97562105Y-144223798D01*
X97562112Y-144223804D01*
X97694530Y-144312282D01*
X97694531Y-144312282D01*
X97694532Y-144312283D01*
X97841669Y-144373230D01*
X97997865Y-144404299D01*
X97997869Y-144404300D01*
X97997870Y-144404300D01*
X98157131Y-144404300D01*
X98157132Y-144404299D01*
X98313331Y-144373230D01*
X98460468Y-144312283D01*
X98592889Y-144223803D01*
X98705503Y-144111189D01*
X98793983Y-143978768D01*
X98854930Y-143831631D01*
X98886000Y-143675430D01*
X98886000Y-143516170D01*
X98854930Y-143359969D01*
X98793983Y-143212832D01*
X98731897Y-143119912D01*
X98711020Y-143053234D01*
X98711000Y-143051022D01*
X98711000Y-138005586D01*
X98730685Y-137938547D01*
X98783489Y-137892792D01*
X98852647Y-137882848D01*
X98891293Y-137895100D01*
X98918517Y-137908972D01*
X98918518Y-137908972D01*
X98918519Y-137908973D01*
X98992524Y-137933018D01*
X99121884Y-137975049D01*
X99333084Y-138008500D01*
X99333085Y-138008500D01*
X99546915Y-138008500D01*
X99546916Y-138008500D01*
X99758116Y-137975049D01*
X99961483Y-137908972D01*
X100152009Y-137811894D01*
X100325004Y-137686206D01*
X100476206Y-137535004D01*
X100601894Y-137362009D01*
X100604283Y-137357319D01*
X100652254Y-137306522D01*
X100720074Y-137289724D01*
X100786210Y-137312258D01*
X100822201Y-137353788D01*
X100822832Y-137353402D01*
X100825164Y-137357207D01*
X100825251Y-137357308D01*
X100825376Y-137357554D01*
X100950272Y-137529459D01*
X100950276Y-137529464D01*
X101100535Y-137679723D01*
X101100540Y-137679727D01*
X101272442Y-137804620D01*
X101461782Y-137901095D01*
X101663871Y-137966757D01*
X101730000Y-137977231D01*
X101730000Y-137083012D01*
X101787007Y-137115925D01*
X101914174Y-137150000D01*
X102045826Y-137150000D01*
X102172993Y-137115925D01*
X102230000Y-137083012D01*
X102230000Y-137977231D01*
X102296126Y-137966757D01*
X102296129Y-137966757D01*
X102495682Y-137901918D01*
X102565523Y-137899923D01*
X102625356Y-137936003D01*
X102656184Y-137998704D01*
X102658000Y-138019849D01*
X102658000Y-138446498D01*
X102682343Y-138568877D01*
X102682345Y-138568885D01*
X102730098Y-138684172D01*
X102730103Y-138684181D01*
X102799428Y-138787932D01*
X102799431Y-138787936D01*
X103138532Y-139127036D01*
X103172017Y-139188359D01*
X103172468Y-139190526D01*
X103194268Y-139300123D01*
X103194270Y-139300131D01*
X103255217Y-139447269D01*
X103343695Y-139579687D01*
X103343701Y-139579694D01*
X103456305Y-139692298D01*
X103456312Y-139692304D01*
X103588730Y-139780782D01*
X103588731Y-139780782D01*
X103588732Y-139780783D01*
X103735869Y-139841730D01*
X103892065Y-139872799D01*
X103892069Y-139872800D01*
X103892070Y-139872800D01*
X104051331Y-139872800D01*
X104051332Y-139872799D01*
X104207531Y-139841730D01*
X104354668Y-139780783D01*
X104487089Y-139692303D01*
X104599703Y-139579689D01*
X104688183Y-139447268D01*
X104749130Y-139300131D01*
X104780200Y-139143930D01*
X104780200Y-138984670D01*
X104749130Y-138828469D01*
X104688183Y-138681332D01*
X104684642Y-138676033D01*
X104599704Y-138548912D01*
X104599698Y-138548905D01*
X104487094Y-138436301D01*
X104487087Y-138436295D01*
X104354669Y-138347817D01*
X104207531Y-138286870D01*
X104207523Y-138286868D01*
X104097926Y-138265068D01*
X104081169Y-138256302D01*
X104062690Y-138252283D01*
X104037655Y-138233542D01*
X104036015Y-138232684D01*
X104034436Y-138231132D01*
X103961319Y-138158015D01*
X103927834Y-138096692D01*
X103925000Y-138070334D01*
X103925000Y-138055756D01*
X103932616Y-138029817D01*
X103932818Y-138027000D01*
X103933847Y-138025624D01*
X103944685Y-137988717D01*
X103997489Y-137942962D01*
X104066647Y-137933018D01*
X104087318Y-137937825D01*
X104119078Y-137948144D01*
X104201884Y-137975049D01*
X104413084Y-138008500D01*
X104413085Y-138008500D01*
X104626915Y-138008500D01*
X104626916Y-138008500D01*
X104838116Y-137975049D01*
X105041483Y-137908972D01*
X105232009Y-137811894D01*
X105405004Y-137686206D01*
X105556206Y-137535004D01*
X105681894Y-137362009D01*
X105681896Y-137362004D01*
X105684270Y-137358132D01*
X105736080Y-137311254D01*
X105805009Y-137299829D01*
X105869173Y-137327483D01*
X105895730Y-137358132D01*
X105898103Y-137362005D01*
X105898105Y-137362008D01*
X105898106Y-137362009D01*
X106023794Y-137535004D01*
X106174996Y-137686206D01*
X106347991Y-137811894D01*
X106436524Y-137857004D01*
X106538516Y-137908972D01*
X106538519Y-137908973D01*
X106612524Y-137933018D01*
X106741884Y-137975049D01*
X106953084Y-138008500D01*
X106953085Y-138008500D01*
X107166915Y-138008500D01*
X107166916Y-138008500D01*
X107378116Y-137975049D01*
X107581483Y-137908972D01*
X107772009Y-137811894D01*
X107945004Y-137686206D01*
X108096206Y-137535004D01*
X108221894Y-137362009D01*
X108221896Y-137362004D01*
X108224270Y-137358132D01*
X108276080Y-137311254D01*
X108345009Y-137299829D01*
X108409173Y-137327483D01*
X108435730Y-137358132D01*
X108438103Y-137362005D01*
X108438105Y-137362008D01*
X108438106Y-137362009D01*
X108563794Y-137535004D01*
X108714996Y-137686206D01*
X108887991Y-137811894D01*
X108976524Y-137857004D01*
X109078516Y-137908972D01*
X109078519Y-137908973D01*
X109152524Y-137933018D01*
X109281884Y-137975049D01*
X109493084Y-138008500D01*
X109493085Y-138008500D01*
X109706915Y-138008500D01*
X109706916Y-138008500D01*
X109918116Y-137975049D01*
X110121483Y-137908972D01*
X110312009Y-137811894D01*
X110485004Y-137686206D01*
X110636206Y-137535004D01*
X110761894Y-137362009D01*
X110761896Y-137362004D01*
X110764270Y-137358132D01*
X110816080Y-137311254D01*
X110885009Y-137299829D01*
X110949173Y-137327483D01*
X110975730Y-137358132D01*
X110978103Y-137362005D01*
X110978105Y-137362008D01*
X110978106Y-137362009D01*
X111103794Y-137535004D01*
X111254996Y-137686206D01*
X111427991Y-137811894D01*
X111516524Y-137857004D01*
X111618516Y-137908972D01*
X111618519Y-137908973D01*
X111692524Y-137933018D01*
X111821884Y-137975049D01*
X112033084Y-138008500D01*
X112033085Y-138008500D01*
X112246915Y-138008500D01*
X112246916Y-138008500D01*
X112458116Y-137975049D01*
X112661483Y-137908972D01*
X112852009Y-137811894D01*
X113025004Y-137686206D01*
X113176206Y-137535004D01*
X113301894Y-137362009D01*
X113304283Y-137357319D01*
X113352254Y-137306522D01*
X113420074Y-137289724D01*
X113486210Y-137312258D01*
X113522201Y-137353788D01*
X113522832Y-137353402D01*
X113525164Y-137357207D01*
X113525251Y-137357308D01*
X113525376Y-137357554D01*
X113650272Y-137529459D01*
X113650276Y-137529464D01*
X113800535Y-137679723D01*
X113800540Y-137679727D01*
X113972442Y-137804620D01*
X114161782Y-137901095D01*
X114363871Y-137966757D01*
X114430000Y-137977231D01*
X114430000Y-137083012D01*
X114487007Y-137115925D01*
X114614174Y-137150000D01*
X114745826Y-137150000D01*
X114872993Y-137115925D01*
X114930000Y-137083012D01*
X114930000Y-137977231D01*
X114996125Y-137966758D01*
X115136281Y-137921218D01*
X115206122Y-137919223D01*
X115265955Y-137955303D01*
X115296784Y-138018004D01*
X115298600Y-138039149D01*
X115298600Y-138647434D01*
X115278915Y-138714473D01*
X115262281Y-138735115D01*
X114696167Y-139301229D01*
X114663109Y-139334287D01*
X114607927Y-139389468D01*
X114538603Y-139493218D01*
X114538598Y-139493227D01*
X114490845Y-139608514D01*
X114490843Y-139608520D01*
X114469999Y-139713310D01*
X114437614Y-139775221D01*
X114404682Y-139799600D01*
X114387993Y-139808104D01*
X114214997Y-139933793D01*
X114103211Y-140045579D01*
X114041888Y-140079063D01*
X113972196Y-140074079D01*
X113916263Y-140032207D01*
X113899348Y-140001230D01*
X113853354Y-139877913D01*
X113853350Y-139877906D01*
X113767190Y-139762812D01*
X113767187Y-139762809D01*
X113652093Y-139676649D01*
X113652086Y-139676645D01*
X113517379Y-139626403D01*
X113517372Y-139626401D01*
X113457844Y-139620000D01*
X112810000Y-139620000D01*
X112810000Y-140536988D01*
X112752993Y-140504075D01*
X112625826Y-140470000D01*
X112494174Y-140470000D01*
X112367007Y-140504075D01*
X112310000Y-140536988D01*
X112310000Y-139620000D01*
X111662155Y-139620000D01*
X111602627Y-139626401D01*
X111602620Y-139626403D01*
X111467913Y-139676645D01*
X111467906Y-139676649D01*
X111352812Y-139762809D01*
X111352809Y-139762812D01*
X111266649Y-139877906D01*
X111266645Y-139877913D01*
X111216403Y-140012620D01*
X111216401Y-140012627D01*
X111210000Y-140072155D01*
X111210000Y-140720000D01*
X112126988Y-140720000D01*
X112094075Y-140777007D01*
X112060000Y-140904174D01*
X112060000Y-141035826D01*
X112094075Y-141162993D01*
X112126988Y-141220000D01*
X111210000Y-141220000D01*
X111210000Y-141867844D01*
X111216401Y-141927372D01*
X111216403Y-141927379D01*
X111266645Y-142062086D01*
X111266649Y-142062093D01*
X111352809Y-142177187D01*
X111352812Y-142177190D01*
X111467906Y-142263350D01*
X111467913Y-142263354D01*
X111602620Y-142313596D01*
X111602627Y-142313598D01*
X111662155Y-142319999D01*
X111662172Y-142320000D01*
X112310000Y-142320000D01*
X112310000Y-141403012D01*
X112367007Y-141435925D01*
X112494174Y-141470000D01*
X112625826Y-141470000D01*
X112752993Y-141435925D01*
X112810000Y-141403012D01*
X112810000Y-142320000D01*
X113457828Y-142320000D01*
X113457844Y-142319999D01*
X113517372Y-142313598D01*
X113517379Y-142313596D01*
X113652086Y-142263354D01*
X113652093Y-142263350D01*
X113767187Y-142177190D01*
X113767190Y-142177187D01*
X113853350Y-142062093D01*
X113853355Y-142062084D01*
X113899348Y-141938770D01*
X113941219Y-141882836D01*
X114006683Y-141858418D01*
X114074956Y-141873269D01*
X114103211Y-141894421D01*
X114214996Y-142006206D01*
X114387991Y-142131894D01*
X114466499Y-142171896D01*
X114578516Y-142228972D01*
X114578519Y-142228973D01*
X114663241Y-142256500D01*
X114781884Y-142295049D01*
X114993084Y-142328500D01*
X114993085Y-142328500D01*
X115206915Y-142328500D01*
X115206916Y-142328500D01*
X115418116Y-142295049D01*
X115621483Y-142228972D01*
X115812009Y-142131894D01*
X115985004Y-142006206D01*
X116136206Y-141855004D01*
X116261894Y-141682009D01*
X116261896Y-141682004D01*
X116264270Y-141678132D01*
X116316080Y-141631254D01*
X116385009Y-141619829D01*
X116449173Y-141647483D01*
X116475730Y-141678132D01*
X116478103Y-141682005D01*
X116478105Y-141682008D01*
X116478106Y-141682009D01*
X116603794Y-141855004D01*
X116754996Y-142006206D01*
X116927991Y-142131894D01*
X117006499Y-142171896D01*
X117118516Y-142228972D01*
X117118519Y-142228973D01*
X117203241Y-142256500D01*
X117321884Y-142295049D01*
X117533084Y-142328500D01*
X117533085Y-142328500D01*
X117746915Y-142328500D01*
X117746916Y-142328500D01*
X117958116Y-142295049D01*
X118161483Y-142228972D01*
X118352009Y-142131894D01*
X118525004Y-142006206D01*
X118676206Y-141855004D01*
X118801894Y-141682009D01*
X118801896Y-141682004D01*
X118804270Y-141678132D01*
X118856080Y-141631254D01*
X118925009Y-141619829D01*
X118989173Y-141647483D01*
X119015730Y-141678132D01*
X119018103Y-141682005D01*
X119018105Y-141682008D01*
X119018106Y-141682009D01*
X119143794Y-141855004D01*
X119294996Y-142006206D01*
X119467991Y-142131894D01*
X119546499Y-142171896D01*
X119658516Y-142228972D01*
X119658519Y-142228973D01*
X119743241Y-142256500D01*
X119861884Y-142295049D01*
X120073084Y-142328500D01*
X120073085Y-142328500D01*
X120286915Y-142328500D01*
X120286916Y-142328500D01*
X120498116Y-142295049D01*
X120701483Y-142228972D01*
X120892009Y-142131894D01*
X121065004Y-142006206D01*
X121216206Y-141855004D01*
X121341894Y-141682009D01*
X121341896Y-141682004D01*
X121344270Y-141678132D01*
X121396080Y-141631254D01*
X121465009Y-141619829D01*
X121529173Y-141647483D01*
X121555730Y-141678132D01*
X121558103Y-141682005D01*
X121558105Y-141682008D01*
X121558106Y-141682009D01*
X121683794Y-141855004D01*
X121834996Y-142006206D01*
X122007991Y-142131894D01*
X122086499Y-142171896D01*
X122198516Y-142228972D01*
X122198519Y-142228973D01*
X122283241Y-142256500D01*
X122401884Y-142295049D01*
X122613084Y-142328500D01*
X122613085Y-142328500D01*
X122826915Y-142328500D01*
X122826916Y-142328500D01*
X123038116Y-142295049D01*
X123241483Y-142228972D01*
X123432009Y-142131894D01*
X123605004Y-142006206D01*
X123756206Y-141855004D01*
X123881894Y-141682009D01*
X123881896Y-141682004D01*
X123884270Y-141678132D01*
X123936080Y-141631254D01*
X124005009Y-141619829D01*
X124069173Y-141647483D01*
X124095730Y-141678132D01*
X124098103Y-141682005D01*
X124098105Y-141682008D01*
X124098106Y-141682009D01*
X124223794Y-141855004D01*
X124374996Y-142006206D01*
X124547991Y-142131894D01*
X124558794Y-142137398D01*
X124609590Y-142185371D01*
X124626500Y-142247883D01*
X124626500Y-142623432D01*
X124617855Y-142652869D01*
X124611332Y-142682860D01*
X124607577Y-142687875D01*
X124606815Y-142690471D01*
X124590180Y-142711114D01*
X124538660Y-142762633D01*
X124477337Y-142796117D01*
X124475172Y-142796568D01*
X124365574Y-142818368D01*
X124365568Y-142818370D01*
X124218430Y-142879317D01*
X124086012Y-142967795D01*
X124086005Y-142967801D01*
X123973401Y-143080405D01*
X123973395Y-143080412D01*
X123884917Y-143212830D01*
X123823970Y-143359968D01*
X123823968Y-143359976D01*
X123792900Y-143516165D01*
X123792900Y-143675434D01*
X123823968Y-143831623D01*
X123823970Y-143831631D01*
X123884917Y-143978769D01*
X123973395Y-144111187D01*
X123973401Y-144111194D01*
X124086005Y-144223798D01*
X124086012Y-144223804D01*
X124218430Y-144312282D01*
X124218431Y-144312282D01*
X124218432Y-144312283D01*
X124365569Y-144373230D01*
X124521765Y-144404299D01*
X124521769Y-144404300D01*
X124521770Y-144404300D01*
X124681031Y-144404300D01*
X124681032Y-144404299D01*
X124837231Y-144373230D01*
X124984368Y-144312283D01*
X125116789Y-144223803D01*
X125229403Y-144111189D01*
X125317883Y-143978768D01*
X125378830Y-143831631D01*
X125400631Y-143722022D01*
X125433015Y-143660115D01*
X125434455Y-143658647D01*
X125752071Y-143341033D01*
X125821400Y-143237275D01*
X125869155Y-143121985D01*
X125893500Y-142999594D01*
X125893500Y-142874806D01*
X125893500Y-142247883D01*
X125913185Y-142180844D01*
X125961204Y-142137398D01*
X125972009Y-142131894D01*
X126145004Y-142006206D01*
X126296206Y-141855004D01*
X126421894Y-141682009D01*
X126421896Y-141682004D01*
X126424270Y-141678132D01*
X126476080Y-141631254D01*
X126545009Y-141619829D01*
X126609173Y-141647483D01*
X126635730Y-141678132D01*
X126638103Y-141682005D01*
X126638105Y-141682008D01*
X126638106Y-141682009D01*
X126763794Y-141855004D01*
X126914996Y-142006206D01*
X127087991Y-142131894D01*
X127166499Y-142171896D01*
X127278516Y-142228972D01*
X127278519Y-142228973D01*
X127363241Y-142256500D01*
X127481884Y-142295049D01*
X127693084Y-142328500D01*
X127693085Y-142328500D01*
X127906915Y-142328500D01*
X127906916Y-142328500D01*
X128118116Y-142295049D01*
X128321483Y-142228972D01*
X128512009Y-142131894D01*
X128685004Y-142006206D01*
X128836206Y-141855004D01*
X128961894Y-141682009D01*
X128961896Y-141682004D01*
X128964270Y-141678132D01*
X129016080Y-141631254D01*
X129085009Y-141619829D01*
X129149173Y-141647483D01*
X129175730Y-141678132D01*
X129178103Y-141682005D01*
X129178105Y-141682008D01*
X129178106Y-141682009D01*
X129303794Y-141855004D01*
X129454996Y-142006206D01*
X129627991Y-142131894D01*
X129706499Y-142171896D01*
X129818516Y-142228972D01*
X129818519Y-142228973D01*
X129903241Y-142256500D01*
X130021884Y-142295049D01*
X130233084Y-142328500D01*
X130233085Y-142328500D01*
X130446915Y-142328500D01*
X130446916Y-142328500D01*
X130658116Y-142295049D01*
X130861483Y-142228972D01*
X131052009Y-142131894D01*
X131225004Y-142006206D01*
X131376206Y-141855004D01*
X131501894Y-141682009D01*
X131501896Y-141682004D01*
X131504270Y-141678132D01*
X131556080Y-141631254D01*
X131625009Y-141619829D01*
X131689173Y-141647483D01*
X131715730Y-141678132D01*
X131718103Y-141682005D01*
X131718105Y-141682008D01*
X131718106Y-141682009D01*
X131843794Y-141855004D01*
X131994996Y-142006206D01*
X132167991Y-142131894D01*
X132246499Y-142171896D01*
X132358516Y-142228972D01*
X132358519Y-142228973D01*
X132443241Y-142256500D01*
X132561884Y-142295049D01*
X132773084Y-142328500D01*
X132773085Y-142328500D01*
X132986915Y-142328500D01*
X132986916Y-142328500D01*
X133198116Y-142295049D01*
X133401483Y-142228972D01*
X133592009Y-142131894D01*
X133765004Y-142006206D01*
X133916206Y-141855004D01*
X134041894Y-141682009D01*
X134041896Y-141682004D01*
X134044270Y-141678132D01*
X134096080Y-141631254D01*
X134165009Y-141619829D01*
X134229173Y-141647483D01*
X134255730Y-141678132D01*
X134258103Y-141682005D01*
X134258105Y-141682008D01*
X134258106Y-141682009D01*
X134383794Y-141855004D01*
X134534996Y-142006206D01*
X134707991Y-142131894D01*
X134786499Y-142171896D01*
X134898516Y-142228972D01*
X134898519Y-142228973D01*
X134983241Y-142256500D01*
X135101884Y-142295049D01*
X135313084Y-142328500D01*
X135313085Y-142328500D01*
X135526915Y-142328500D01*
X135526916Y-142328500D01*
X135738116Y-142295049D01*
X135941483Y-142228972D01*
X136132009Y-142131894D01*
X136305004Y-142006206D01*
X136456206Y-141855004D01*
X136581894Y-141682009D01*
X136584283Y-141677319D01*
X136632254Y-141626522D01*
X136700074Y-141609724D01*
X136766210Y-141632258D01*
X136802201Y-141673788D01*
X136802832Y-141673402D01*
X136805164Y-141677207D01*
X136805251Y-141677308D01*
X136805376Y-141677554D01*
X136930272Y-141849459D01*
X136930276Y-141849464D01*
X137080535Y-141999723D01*
X137080540Y-141999727D01*
X137252442Y-142124620D01*
X137441782Y-142221095D01*
X137643871Y-142286757D01*
X137710000Y-142297231D01*
X137710000Y-141403012D01*
X137767007Y-141435925D01*
X137894174Y-141470000D01*
X138025826Y-141470000D01*
X138152993Y-141435925D01*
X138210000Y-141403012D01*
X138210000Y-142297230D01*
X138276126Y-142286757D01*
X138276129Y-142286757D01*
X138478217Y-142221095D01*
X138667557Y-142124620D01*
X138839459Y-141999727D01*
X138839464Y-141999723D01*
X138989723Y-141849464D01*
X138989727Y-141849459D01*
X139114619Y-141677560D01*
X139114738Y-141677327D01*
X139114808Y-141677252D01*
X139117168Y-141673402D01*
X139117976Y-141673897D01*
X139162707Y-141626526D01*
X139230526Y-141609723D01*
X139296663Y-141632254D01*
X139335712Y-141677311D01*
X139338105Y-141682008D01*
X139380002Y-141739674D01*
X139463794Y-141855004D01*
X139614996Y-142006206D01*
X139787991Y-142131894D01*
X139866499Y-142171896D01*
X139978516Y-142228972D01*
X139978519Y-142228973D01*
X140063241Y-142256500D01*
X140181884Y-142295049D01*
X140393084Y-142328500D01*
X140393085Y-142328500D01*
X140606915Y-142328500D01*
X140606916Y-142328500D01*
X140818116Y-142295049D01*
X141021483Y-142228972D01*
X141212009Y-142131894D01*
X141385004Y-142006206D01*
X141536206Y-141855004D01*
X141661894Y-141682009D01*
X141758972Y-141491483D01*
X141825049Y-141288116D01*
X141858500Y-141076916D01*
X141858500Y-140863084D01*
X141825049Y-140651884D01*
X141758972Y-140448517D01*
X141758972Y-140448516D01*
X141709507Y-140351438D01*
X141661894Y-140257991D01*
X141536206Y-140084996D01*
X141385004Y-139933794D01*
X141212009Y-139808106D01*
X141168814Y-139786097D01*
X141021483Y-139711027D01*
X141021480Y-139711026D01*
X140818117Y-139644951D01*
X140700997Y-139626401D01*
X140606916Y-139611500D01*
X140393084Y-139611500D01*
X140322684Y-139622650D01*
X140181882Y-139644951D01*
X139978519Y-139711026D01*
X139978516Y-139711027D01*
X139787990Y-139808106D01*
X139614993Y-139933796D01*
X139463796Y-140084993D01*
X139338103Y-140257994D01*
X139335709Y-140262693D01*
X139287731Y-140313485D01*
X139219908Y-140330275D01*
X139153775Y-140307732D01*
X139117800Y-140266210D01*
X139117168Y-140266598D01*
X139114829Y-140262781D01*
X139114743Y-140262682D01*
X139114620Y-140262441D01*
X138989727Y-140090540D01*
X138989723Y-140090535D01*
X138839464Y-139940276D01*
X138839459Y-139940272D01*
X138667557Y-139815379D01*
X138478215Y-139718903D01*
X138276124Y-139653241D01*
X138210000Y-139642768D01*
X138210000Y-140536988D01*
X138152993Y-140504075D01*
X138025826Y-140470000D01*
X137894174Y-140470000D01*
X137767007Y-140504075D01*
X137710000Y-140536988D01*
X137710000Y-139642768D01*
X137709999Y-139642768D01*
X137643875Y-139653241D01*
X137441784Y-139718903D01*
X137252442Y-139815379D01*
X137080540Y-139940272D01*
X137080535Y-139940276D01*
X136930276Y-140090535D01*
X136930272Y-140090540D01*
X136805376Y-140262446D01*
X136805374Y-140262448D01*
X136805246Y-140262701D01*
X136805172Y-140262779D01*
X136802832Y-140266598D01*
X136802029Y-140266106D01*
X136757264Y-140313489D01*
X136689441Y-140330274D01*
X136623309Y-140307727D01*
X136584285Y-140262683D01*
X136581895Y-140257992D01*
X136478645Y-140115881D01*
X136456206Y-140084996D01*
X136305004Y-139933794D01*
X136132009Y-139808106D01*
X136088814Y-139786097D01*
X135941483Y-139711027D01*
X135941480Y-139711026D01*
X135738119Y-139644951D01*
X135706399Y-139639927D01*
X135643265Y-139609996D01*
X135606335Y-139550684D01*
X135607335Y-139480821D01*
X135638117Y-139429774D01*
X135733603Y-139334289D01*
X135822083Y-139201868D01*
X135883030Y-139054731D01*
X135914100Y-138898530D01*
X135914100Y-138739270D01*
X135883030Y-138583069D01*
X135822083Y-138435932D01*
X135822032Y-138435856D01*
X135733604Y-138303512D01*
X135733598Y-138303505D01*
X135620994Y-138190901D01*
X135620987Y-138190895D01*
X135488569Y-138102417D01*
X135341431Y-138041470D01*
X135341423Y-138041468D01*
X135231826Y-138019668D01*
X135169915Y-137987284D01*
X135168336Y-137985732D01*
X133672819Y-136490215D01*
X133639334Y-136428892D01*
X133636500Y-136402534D01*
X133636500Y-132147177D01*
X133656185Y-132080138D01*
X133657397Y-132078287D01*
X133687326Y-132033495D01*
X133719483Y-131985368D01*
X133719815Y-131984568D01*
X133745694Y-131922090D01*
X133780430Y-131838231D01*
X133811500Y-131682030D01*
X133811500Y-131522770D01*
X133780430Y-131366569D01*
X133719483Y-131219432D01*
X133718948Y-131218632D01*
X133631004Y-131087012D01*
X133630998Y-131087005D01*
X133518394Y-130974401D01*
X133518387Y-130974395D01*
X133385969Y-130885917D01*
X133238831Y-130824970D01*
X133238823Y-130824968D01*
X133082634Y-130793900D01*
X133082630Y-130793900D01*
X132923370Y-130793900D01*
X132923365Y-130793900D01*
X132767176Y-130824968D01*
X132767168Y-130824970D01*
X132620030Y-130885917D01*
X132487612Y-130974395D01*
X132487605Y-130974401D01*
X132375001Y-131087005D01*
X132374995Y-131087012D01*
X132286517Y-131219430D01*
X132225570Y-131366568D01*
X132225568Y-131366576D01*
X132194500Y-131522765D01*
X132194500Y-131682034D01*
X132225568Y-131838223D01*
X132225570Y-131838231D01*
X132286515Y-131985366D01*
X132348603Y-132078287D01*
X132369480Y-132144964D01*
X132369500Y-132147177D01*
X132369500Y-136778698D01*
X132393843Y-136901077D01*
X132393845Y-136901085D01*
X132441598Y-137016372D01*
X132441603Y-137016381D01*
X132510928Y-137120132D01*
X132510931Y-137120136D01*
X134272432Y-138881636D01*
X134305917Y-138942959D01*
X134306368Y-138945126D01*
X134328168Y-139054723D01*
X134328170Y-139054731D01*
X134389117Y-139201869D01*
X134477595Y-139334287D01*
X134477601Y-139334294D01*
X134590205Y-139446898D01*
X134590212Y-139446904D01*
X134722630Y-139535382D01*
X134722633Y-139535384D01*
X134761290Y-139551396D01*
X134815694Y-139595236D01*
X134837759Y-139661530D01*
X134820480Y-139729230D01*
X134770134Y-139776441D01*
X134707993Y-139808104D01*
X134534993Y-139933796D01*
X134383796Y-140084993D01*
X134258105Y-140257991D01*
X134255727Y-140261873D01*
X134203914Y-140308748D01*
X134134984Y-140320169D01*
X134070822Y-140292512D01*
X134044273Y-140261873D01*
X134041894Y-140257991D01*
X134041893Y-140257990D01*
X133916206Y-140084996D01*
X133765004Y-139933794D01*
X133592009Y-139808106D01*
X133548814Y-139786097D01*
X133401483Y-139711027D01*
X133401480Y-139711026D01*
X133198117Y-139644951D01*
X133080997Y-139626401D01*
X132986916Y-139611500D01*
X132773084Y-139611500D01*
X132702684Y-139622650D01*
X132561882Y-139644951D01*
X132358519Y-139711026D01*
X132358516Y-139711027D01*
X132167990Y-139808106D01*
X131994993Y-139933796D01*
X131843796Y-140084993D01*
X131718105Y-140257991D01*
X131715727Y-140261873D01*
X131663914Y-140308748D01*
X131594984Y-140320169D01*
X131530822Y-140292512D01*
X131504273Y-140261873D01*
X131501894Y-140257991D01*
X131501893Y-140257990D01*
X131376206Y-140084996D01*
X131225004Y-139933794D01*
X131052009Y-139808106D01*
X131052008Y-139808105D01*
X131052006Y-139808104D01*
X131035319Y-139799601D01*
X130984525Y-139751626D01*
X130970000Y-139713309D01*
X130959700Y-139661530D01*
X130949155Y-139608515D01*
X130901400Y-139493225D01*
X130901399Y-139493224D01*
X130901396Y-139493218D01*
X130832072Y-139389468D01*
X130807635Y-139365031D01*
X130743833Y-139301229D01*
X129748119Y-138305515D01*
X129714634Y-138244192D01*
X129711800Y-138217834D01*
X129711800Y-133066377D01*
X129731485Y-132999338D01*
X129732697Y-132997487D01*
X129765693Y-132948104D01*
X129794783Y-132904568D01*
X129796464Y-132900511D01*
X129816015Y-132853310D01*
X129855730Y-132757431D01*
X129886800Y-132601230D01*
X129886800Y-132441970D01*
X129855730Y-132285769D01*
X129794783Y-132138632D01*
X129775359Y-132109562D01*
X129706304Y-132006212D01*
X129706298Y-132006205D01*
X129593694Y-131893601D01*
X129593687Y-131893595D01*
X129461269Y-131805117D01*
X129314131Y-131744170D01*
X129314123Y-131744168D01*
X129157934Y-131713100D01*
X129157930Y-131713100D01*
X129157100Y-131713100D01*
X129156680Y-131712976D01*
X129151869Y-131712503D01*
X129151958Y-131711590D01*
X129090061Y-131693415D01*
X129044306Y-131640611D01*
X129033100Y-131589100D01*
X129033100Y-90021101D01*
X129052785Y-89954062D01*
X129105589Y-89908307D01*
X129157100Y-89897101D01*
X135500000Y-89897101D01*
X135500000Y-84191982D01*
X135940500Y-84191982D01*
X135940500Y-137808018D01*
X135951994Y-137835767D01*
X135973233Y-137857006D01*
X136000982Y-137868500D01*
X136000984Y-137868500D01*
X159137016Y-137868500D01*
X159137018Y-137868500D01*
X159164767Y-137857006D01*
X159186006Y-137835767D01*
X159197500Y-137808018D01*
X159197500Y-84191982D01*
X159186006Y-84164233D01*
X159164767Y-84142994D01*
X159137018Y-84131500D01*
X136031018Y-84131500D01*
X136000982Y-84131500D01*
X135973231Y-84142995D01*
X135951995Y-84164231D01*
X135951994Y-84164232D01*
X135951994Y-84164233D01*
X135940500Y-84191982D01*
X135500000Y-84191982D01*
X135500000Y-83397101D01*
X129492128Y-83397101D01*
X129425089Y-83377416D01*
X129379334Y-83324612D01*
X129369390Y-83255454D01*
X129377567Y-83225648D01*
X129431630Y-83095131D01*
X129462700Y-82938930D01*
X129462700Y-82779670D01*
X129431630Y-82623469D01*
X129370683Y-82476332D01*
X129297517Y-82366831D01*
X129276641Y-82300158D01*
X129295125Y-82232777D01*
X129312936Y-82210267D01*
X130694671Y-80828533D01*
X130764000Y-80724775D01*
X130811755Y-80609485D01*
X130836100Y-80487094D01*
X130836100Y-80362307D01*
X130836100Y-63956065D01*
X130855785Y-63889026D01*
X130872415Y-63868388D01*
X131105737Y-63635065D01*
X131167058Y-63601582D01*
X131169122Y-63601151D01*
X131278831Y-63579330D01*
X131425968Y-63518383D01*
X131558389Y-63429903D01*
X131671003Y-63317289D01*
X131759483Y-63184868D01*
X131820430Y-63037731D01*
X131851500Y-62881530D01*
X131851500Y-62722270D01*
X131820430Y-62566069D01*
X131784445Y-62479196D01*
X131776977Y-62409729D01*
X131808252Y-62347250D01*
X131868340Y-62311597D01*
X131906382Y-62307965D01*
X131915359Y-62308500D01*
X132084640Y-62308499D01*
X132132199Y-62305667D01*
X132339058Y-62260667D01*
X132497092Y-62192993D01*
X132533660Y-62177334D01*
X132533660Y-62177333D01*
X132533664Y-62177332D01*
X132615698Y-62121809D01*
X132682249Y-62100535D01*
X132749738Y-62118618D01*
X132796736Y-62170318D01*
X132809200Y-62224500D01*
X132809200Y-65744150D01*
X132789515Y-65811189D01*
X132736711Y-65856944D01*
X132667553Y-65866888D01*
X132661011Y-65865768D01*
X132635530Y-65860700D01*
X132476270Y-65860700D01*
X132476265Y-65860700D01*
X132320076Y-65891768D01*
X132320068Y-65891770D01*
X132172930Y-65952717D01*
X132040512Y-66041195D01*
X132040505Y-66041201D01*
X131927901Y-66153805D01*
X131927895Y-66153812D01*
X131839417Y-66286230D01*
X131778470Y-66433368D01*
X131778468Y-66433376D01*
X131747400Y-66589565D01*
X131747400Y-66748834D01*
X131778468Y-66905023D01*
X131778470Y-66905031D01*
X131839415Y-67052166D01*
X131901503Y-67145087D01*
X131922380Y-67211764D01*
X131922400Y-67213977D01*
X131922400Y-77437798D01*
X131946743Y-77560177D01*
X131946745Y-77560185D01*
X131994498Y-77675472D01*
X131994503Y-77675481D01*
X132063828Y-77779232D01*
X132063831Y-77779236D01*
X133471215Y-79186619D01*
X133504700Y-79247942D01*
X133499716Y-79317634D01*
X133457844Y-79373567D01*
X133392380Y-79397984D01*
X133383534Y-79398300D01*
X133295765Y-79398300D01*
X133139576Y-79429368D01*
X133139568Y-79429370D01*
X132992430Y-79490317D01*
X132860012Y-79578795D01*
X132860005Y-79578801D01*
X132747401Y-79691405D01*
X132747395Y-79691412D01*
X132658917Y-79823830D01*
X132597970Y-79970968D01*
X132597968Y-79970976D01*
X132566900Y-80127165D01*
X132566900Y-80286434D01*
X132597968Y-80442623D01*
X132597970Y-80442631D01*
X132658917Y-80589769D01*
X132747395Y-80722187D01*
X132747401Y-80722194D01*
X132860005Y-80834798D01*
X132860012Y-80834804D01*
X132992430Y-80923282D01*
X132992431Y-80923282D01*
X132992432Y-80923283D01*
X133139569Y-80984230D01*
X133173966Y-80991071D01*
X133249174Y-81006032D01*
X133311085Y-81038416D01*
X133312664Y-81039968D01*
X133505329Y-81232633D01*
X133582091Y-81309395D01*
X133593568Y-81320872D01*
X133697318Y-81390196D01*
X133697327Y-81390201D01*
X133723443Y-81401018D01*
X133812615Y-81437955D01*
X133935001Y-81462299D01*
X133935005Y-81462300D01*
X133935006Y-81462300D01*
X135714695Y-81462300D01*
X135714696Y-81462299D01*
X135837085Y-81437955D01*
X135952375Y-81390200D01*
X136056133Y-81320871D01*
X136501371Y-80875633D01*
X136570700Y-80771875D01*
X136618455Y-80656585D01*
X136642800Y-80534194D01*
X136642800Y-80409406D01*
X136642800Y-78832206D01*
X136618455Y-78709815D01*
X136570700Y-78594525D01*
X136570699Y-78594524D01*
X136570696Y-78594518D01*
X136501372Y-78490768D01*
X136484689Y-78474085D01*
X136413133Y-78402529D01*
X136072968Y-78062364D01*
X136039483Y-78001041D01*
X136039032Y-77998874D01*
X136021195Y-77909202D01*
X136017230Y-77889269D01*
X135956283Y-77742132D01*
X135945451Y-77725921D01*
X135867804Y-77609712D01*
X135867798Y-77609705D01*
X135755194Y-77497101D01*
X135755187Y-77497095D01*
X135622769Y-77408617D01*
X135475631Y-77347670D01*
X135475623Y-77347668D01*
X135319434Y-77316600D01*
X135319430Y-77316600D01*
X135160170Y-77316600D01*
X135160165Y-77316600D01*
X135003976Y-77347668D01*
X135003968Y-77347670D01*
X134856830Y-77408617D01*
X134724412Y-77497095D01*
X134724405Y-77497101D01*
X134611801Y-77609705D01*
X134611795Y-77609712D01*
X134523317Y-77742130D01*
X134462370Y-77889268D01*
X134462368Y-77889276D01*
X134431300Y-78045465D01*
X134431300Y-78055534D01*
X134411615Y-78122573D01*
X134358811Y-78168328D01*
X134289653Y-78178272D01*
X134226097Y-78149247D01*
X134219619Y-78143215D01*
X133225719Y-77149315D01*
X133192234Y-77087992D01*
X133189400Y-77061634D01*
X133189400Y-72416321D01*
X133209085Y-72349282D01*
X133261889Y-72303527D01*
X133331047Y-72293583D01*
X133337562Y-72294698D01*
X133392870Y-72305700D01*
X133552131Y-72305700D01*
X133552132Y-72305699D01*
X133708331Y-72274630D01*
X133855468Y-72213683D01*
X133987889Y-72125203D01*
X134100503Y-72012589D01*
X134188983Y-71880168D01*
X134249930Y-71733031D01*
X134281000Y-71576830D01*
X134281000Y-71417570D01*
X134249930Y-71261369D01*
X134196496Y-71132369D01*
X134188984Y-71114233D01*
X134164248Y-71077213D01*
X134134483Y-71032666D01*
X134113607Y-70965991D01*
X134132092Y-70898611D01*
X134149902Y-70876101D01*
X134452137Y-70573865D01*
X134513458Y-70540382D01*
X134515522Y-70539951D01*
X134625231Y-70518130D01*
X134772368Y-70457183D01*
X134904789Y-70368703D01*
X135017403Y-70256089D01*
X135105883Y-70123668D01*
X135166830Y-69976531D01*
X135197900Y-69820330D01*
X135197900Y-69661070D01*
X135183240Y-69587368D01*
X135183240Y-69587365D01*
X135179640Y-69569265D01*
X139147200Y-69569265D01*
X139147200Y-69728534D01*
X139178268Y-69884723D01*
X139178270Y-69884731D01*
X139239217Y-70031869D01*
X139327695Y-70164287D01*
X139327701Y-70164294D01*
X139440305Y-70276898D01*
X139440312Y-70276904D01*
X139572730Y-70365382D01*
X139572732Y-70365383D01*
X139638453Y-70392605D01*
X139692856Y-70436445D01*
X139714921Y-70502739D01*
X139715000Y-70507166D01*
X139715000Y-76067022D01*
X139695315Y-76134061D01*
X139694103Y-76135912D01*
X139632016Y-76228833D01*
X139571070Y-76375968D01*
X139571068Y-76375976D01*
X139540000Y-76532165D01*
X139540000Y-76691434D01*
X139571068Y-76847623D01*
X139571070Y-76847631D01*
X139632015Y-76994766D01*
X139694103Y-77087687D01*
X139714980Y-77154364D01*
X139715000Y-77156577D01*
X139715000Y-79193893D01*
X139695315Y-79260932D01*
X139659891Y-79296995D01*
X139539708Y-79377298D01*
X139427101Y-79489905D01*
X139427095Y-79489912D01*
X139338617Y-79622330D01*
X139277670Y-79769468D01*
X139277668Y-79769476D01*
X139246600Y-79925665D01*
X139246600Y-80084934D01*
X139277668Y-80241123D01*
X139277670Y-80241131D01*
X139338617Y-80388269D01*
X139427095Y-80520687D01*
X139427101Y-80520694D01*
X139539705Y-80633298D01*
X139539712Y-80633304D01*
X139672130Y-80721782D01*
X139672131Y-80721782D01*
X139672132Y-80721783D01*
X139819269Y-80782730D01*
X139975465Y-80813799D01*
X139975469Y-80813800D01*
X139975470Y-80813800D01*
X140134731Y-80813800D01*
X140134732Y-80813799D01*
X140290931Y-80782730D01*
X140438068Y-80721783D01*
X140570489Y-80633303D01*
X140683103Y-80520689D01*
X140771583Y-80388268D01*
X140832530Y-80241131D01*
X140855199Y-80127165D01*
X140859826Y-80103905D01*
X140878339Y-80059208D01*
X140909900Y-80011975D01*
X140957655Y-79896685D01*
X140982000Y-79774294D01*
X140982000Y-79649506D01*
X140982000Y-77156577D01*
X141001685Y-77089538D01*
X141002897Y-77087687D01*
X141020305Y-77061634D01*
X141064983Y-76994768D01*
X141125930Y-76847631D01*
X141157000Y-76691430D01*
X141157000Y-76532170D01*
X141125930Y-76375969D01*
X141064983Y-76228832D01*
X141002897Y-76135912D01*
X140982020Y-76069234D01*
X140982000Y-76067022D01*
X140982000Y-69979305D01*
X140981999Y-69979301D01*
X140975329Y-69945768D01*
X140957655Y-69856915D01*
X140920718Y-69767743D01*
X140909901Y-69741627D01*
X140909896Y-69741618D01*
X140840571Y-69637867D01*
X140840568Y-69637863D01*
X140788868Y-69586164D01*
X140755382Y-69524841D01*
X140754946Y-69522750D01*
X140733130Y-69413069D01*
X140672183Y-69265932D01*
X140661023Y-69249230D01*
X140583704Y-69133512D01*
X140583698Y-69133505D01*
X140471094Y-69020901D01*
X140471087Y-69020895D01*
X140338669Y-68932417D01*
X140191531Y-68871470D01*
X140191523Y-68871468D01*
X140035334Y-68840400D01*
X140035330Y-68840400D01*
X139876070Y-68840400D01*
X139876065Y-68840400D01*
X139719876Y-68871468D01*
X139719868Y-68871470D01*
X139572730Y-68932417D01*
X139440312Y-69020895D01*
X139440305Y-69020901D01*
X139327701Y-69133505D01*
X139327695Y-69133512D01*
X139239217Y-69265930D01*
X139178270Y-69413068D01*
X139178268Y-69413076D01*
X139147200Y-69569265D01*
X135179640Y-69569265D01*
X135166831Y-69504874D01*
X135166830Y-69504873D01*
X135166830Y-69504869D01*
X135105883Y-69357732D01*
X135098865Y-69347229D01*
X135017404Y-69225312D01*
X135017398Y-69225305D01*
X134904794Y-69112701D01*
X134904787Y-69112695D01*
X134772369Y-69024217D01*
X134625231Y-68963270D01*
X134625223Y-68963268D01*
X134469034Y-68932200D01*
X134469030Y-68932200D01*
X134309770Y-68932200D01*
X134309765Y-68932200D01*
X134153576Y-68963268D01*
X134153568Y-68963270D01*
X134006430Y-69024217D01*
X133874012Y-69112695D01*
X133874005Y-69112701D01*
X133761401Y-69225305D01*
X133761395Y-69225312D01*
X133672917Y-69357730D01*
X133611970Y-69504868D01*
X133611968Y-69504876D01*
X133590168Y-69614472D01*
X133581403Y-69631228D01*
X133577383Y-69649708D01*
X133558636Y-69674750D01*
X133557783Y-69676383D01*
X133556233Y-69677962D01*
X133401080Y-69833114D01*
X133339758Y-69866599D01*
X133270067Y-69861615D01*
X133214133Y-69819744D01*
X133189716Y-69754279D01*
X133189400Y-69745433D01*
X133189400Y-67896249D01*
X133209085Y-67829210D01*
X133261889Y-67783455D01*
X133331047Y-67773511D01*
X133337579Y-67774629D01*
X133363070Y-67779700D01*
X133522331Y-67779700D01*
X133522332Y-67779699D01*
X133678531Y-67748630D01*
X133825668Y-67687683D01*
X133958089Y-67599203D01*
X134070703Y-67486589D01*
X134159183Y-67354168D01*
X134220130Y-67207031D01*
X134251200Y-67050830D01*
X134251200Y-66891570D01*
X134220130Y-66735369D01*
X134159183Y-66588232D01*
X134097097Y-66495312D01*
X134076220Y-66428634D01*
X134076200Y-66426422D01*
X134076200Y-62112326D01*
X134095885Y-62045287D01*
X134131308Y-62009224D01*
X134154389Y-61993803D01*
X134267003Y-61881189D01*
X134355483Y-61748768D01*
X134416430Y-61601631D01*
X134447500Y-61445430D01*
X134447500Y-61286170D01*
X134416430Y-61129969D01*
X134355483Y-60982832D01*
X134349236Y-60973483D01*
X134267004Y-60850412D01*
X134266998Y-60850405D01*
X134154394Y-60737801D01*
X134154387Y-60737795D01*
X134021969Y-60649317D01*
X133874831Y-60588370D01*
X133874823Y-60588368D01*
X133718634Y-60557300D01*
X133718630Y-60557300D01*
X133559370Y-60557300D01*
X133559365Y-60557300D01*
X133403176Y-60588368D01*
X133403164Y-60588371D01*
X133279951Y-60639408D01*
X133247325Y-60642915D01*
X133214852Y-60647585D01*
X133212764Y-60646631D01*
X133210482Y-60646877D01*
X133181138Y-60632188D01*
X133151296Y-60618560D01*
X133150055Y-60616629D01*
X133148003Y-60615602D01*
X133131262Y-60587386D01*
X133113522Y-60559782D01*
X133113086Y-60556752D01*
X133112351Y-60555513D01*
X133108499Y-60524847D01*
X133108499Y-60345084D01*
X138251500Y-60345084D01*
X138251500Y-60558916D01*
X138264759Y-60642627D01*
X138284951Y-60770117D01*
X138351026Y-60973480D01*
X138351027Y-60973483D01*
X138423985Y-61116669D01*
X138448106Y-61164009D01*
X138573794Y-61337004D01*
X138724996Y-61488206D01*
X138725002Y-61488210D01*
X138726263Y-61489127D01*
X138726625Y-61489597D01*
X138728701Y-61491370D01*
X138728328Y-61491806D01*
X138768925Y-61544459D01*
X138774900Y-61614073D01*
X138742290Y-61675866D01*
X138697201Y-61704122D01*
X138697421Y-61704592D01*
X138693636Y-61706356D01*
X138692380Y-61707144D01*
X138690885Y-61707639D01*
X138690875Y-61707643D01*
X138541654Y-61799684D01*
X138417684Y-61923654D01*
X138325643Y-62072875D01*
X138325641Y-62072880D01*
X138270494Y-62239302D01*
X138270493Y-62239309D01*
X138260000Y-62342013D01*
X138260000Y-62742000D01*
X139176988Y-62742000D01*
X139144075Y-62799007D01*
X139110000Y-62926174D01*
X139110000Y-63057826D01*
X139144075Y-63184993D01*
X139176988Y-63242000D01*
X138260001Y-63242000D01*
X138260001Y-63641986D01*
X138270494Y-63744697D01*
X138325641Y-63911119D01*
X138325643Y-63911124D01*
X138417684Y-64060345D01*
X138541654Y-64184315D01*
X138690875Y-64276356D01*
X138690880Y-64276358D01*
X138857302Y-64331505D01*
X138857309Y-64331506D01*
X138960019Y-64341999D01*
X139359999Y-64341999D01*
X139360000Y-64341998D01*
X139360000Y-63425012D01*
X139417007Y-63457925D01*
X139544174Y-63492000D01*
X139675826Y-63492000D01*
X139802993Y-63457925D01*
X139860000Y-63425012D01*
X139860000Y-64341999D01*
X140259972Y-64341999D01*
X140259986Y-64341998D01*
X140362697Y-64331505D01*
X140529119Y-64276358D01*
X140529124Y-64276356D01*
X140678345Y-64184315D01*
X140802315Y-64060345D01*
X140894355Y-63911124D01*
X140894849Y-63909636D01*
X140895464Y-63908746D01*
X140897408Y-63904579D01*
X140898119Y-63904910D01*
X140934616Y-63852187D01*
X140999129Y-63825357D01*
X141067906Y-63837666D01*
X141110313Y-63873568D01*
X141110630Y-63873299D01*
X141112288Y-63875240D01*
X141112870Y-63875733D01*
X141113668Y-63876830D01*
X141113794Y-63877004D01*
X141264996Y-64028206D01*
X141437991Y-64153894D01*
X141582796Y-64227675D01*
X141633591Y-64275649D01*
X141650500Y-64338160D01*
X141650500Y-68025022D01*
X141630815Y-68092061D01*
X141629603Y-68093912D01*
X141567516Y-68186833D01*
X141506570Y-68333968D01*
X141506568Y-68333976D01*
X141475500Y-68490165D01*
X141475500Y-68649434D01*
X141506568Y-68805623D01*
X141506570Y-68805631D01*
X141567517Y-68952769D01*
X141655995Y-69085187D01*
X141656001Y-69085194D01*
X141768605Y-69197798D01*
X141768612Y-69197804D01*
X141901030Y-69286282D01*
X141901031Y-69286282D01*
X141901032Y-69286283D01*
X142048169Y-69347230D01*
X142204365Y-69378299D01*
X142204369Y-69378300D01*
X142204370Y-69378300D01*
X142363631Y-69378300D01*
X142363632Y-69378299D01*
X142519831Y-69347230D01*
X142666968Y-69286283D01*
X142799389Y-69197803D01*
X142912003Y-69085189D01*
X143000483Y-68952768D01*
X143061430Y-68805631D01*
X143092500Y-68649430D01*
X143092500Y-68490170D01*
X143061430Y-68333969D01*
X143000483Y-68186832D01*
X142938397Y-68093912D01*
X142917520Y-68027234D01*
X142917500Y-68025022D01*
X142917500Y-64176758D01*
X142937185Y-64109719D01*
X142968616Y-64076439D01*
X143035000Y-64028209D01*
X143035000Y-64028208D01*
X143035004Y-64028206D01*
X143186206Y-63877004D01*
X143311894Y-63704009D01*
X143311896Y-63704004D01*
X143314270Y-63700132D01*
X143366080Y-63653254D01*
X143435009Y-63641829D01*
X143499173Y-63669483D01*
X143525730Y-63700132D01*
X143528103Y-63704005D01*
X143528106Y-63704009D01*
X143653794Y-63877004D01*
X143653796Y-63877006D01*
X143740481Y-63963691D01*
X143773966Y-64025014D01*
X143776800Y-64051372D01*
X143776800Y-73826122D01*
X143757115Y-73893161D01*
X143755903Y-73895012D01*
X143693816Y-73987933D01*
X143632870Y-74135068D01*
X143632868Y-74135076D01*
X143601800Y-74291265D01*
X143601800Y-74450534D01*
X143632868Y-74606723D01*
X143632870Y-74606731D01*
X143693817Y-74753869D01*
X143782295Y-74886287D01*
X143782301Y-74886294D01*
X143894905Y-74998898D01*
X143894912Y-74998904D01*
X144027330Y-75087382D01*
X144027331Y-75087382D01*
X144027332Y-75087383D01*
X144174469Y-75148330D01*
X144330665Y-75179399D01*
X144330669Y-75179400D01*
X144330670Y-75179400D01*
X144489931Y-75179400D01*
X144489932Y-75179399D01*
X144646131Y-75148330D01*
X144793268Y-75087383D01*
X144925689Y-74998903D01*
X145038303Y-74886289D01*
X145126783Y-74753868D01*
X145187730Y-74606731D01*
X145218800Y-74450530D01*
X145218800Y-74291270D01*
X145187730Y-74135069D01*
X145176771Y-74108614D01*
X145169303Y-74039146D01*
X145200578Y-73976667D01*
X145260666Y-73941014D01*
X145330492Y-73943507D01*
X145338764Y-73946592D01*
X145405969Y-73974430D01*
X145562165Y-74005499D01*
X145562169Y-74005500D01*
X145562170Y-74005500D01*
X145721431Y-74005500D01*
X145721432Y-74005499D01*
X145877631Y-73974430D01*
X146024768Y-73913483D01*
X146157189Y-73825003D01*
X146269803Y-73712389D01*
X146358283Y-73579968D01*
X146419230Y-73432831D01*
X146450300Y-73276630D01*
X146450300Y-73117370D01*
X146419230Y-72961169D01*
X146358283Y-72814032D01*
X146296197Y-72721112D01*
X146275320Y-72654434D01*
X146275300Y-72652222D01*
X146275300Y-68703000D01*
X146294985Y-68635961D01*
X146347789Y-68590206D01*
X146399300Y-68579000D01*
X146474431Y-68579000D01*
X146474432Y-68578999D01*
X146630631Y-68547930D01*
X146777768Y-68486983D01*
X146910189Y-68398503D01*
X147022803Y-68285889D01*
X147111283Y-68153468D01*
X147172230Y-68006331D01*
X147194031Y-67896722D01*
X147202796Y-67879967D01*
X147206816Y-67861489D01*
X147225560Y-67836449D01*
X147226415Y-67834815D01*
X147227855Y-67833347D01*
X147333022Y-67728181D01*
X147394342Y-67694699D01*
X147464034Y-67699683D01*
X147519967Y-67741555D01*
X147544384Y-67807020D01*
X147544700Y-67815865D01*
X147544700Y-81866522D01*
X147525015Y-81933561D01*
X147523803Y-81935412D01*
X147461716Y-82028333D01*
X147400770Y-82175468D01*
X147400770Y-82175469D01*
X147369700Y-82331665D01*
X147369700Y-82490934D01*
X147400768Y-82647123D01*
X147400770Y-82647131D01*
X147461717Y-82794269D01*
X147550195Y-82926687D01*
X147550201Y-82926694D01*
X147662805Y-83039298D01*
X147662812Y-83039304D01*
X147795230Y-83127782D01*
X147795231Y-83127782D01*
X147795232Y-83127783D01*
X147942369Y-83188730D01*
X148098565Y-83219799D01*
X148098569Y-83219800D01*
X148098570Y-83219800D01*
X148257831Y-83219800D01*
X148257832Y-83219799D01*
X148414031Y-83188730D01*
X148561168Y-83127783D01*
X148693589Y-83039303D01*
X148806203Y-82926689D01*
X148894683Y-82794268D01*
X148955630Y-82647131D01*
X148986700Y-82490930D01*
X148986700Y-82331670D01*
X148955630Y-82175469D01*
X148894683Y-82028332D01*
X148832597Y-81935412D01*
X148811720Y-81868734D01*
X148811700Y-81866522D01*
X148811700Y-64897565D01*
X148831385Y-64830526D01*
X148848015Y-64809888D01*
X149314353Y-64343549D01*
X149375674Y-64310066D01*
X149440348Y-64313300D01*
X149451884Y-64317049D01*
X149663084Y-64350500D01*
X149663085Y-64350500D01*
X149876915Y-64350500D01*
X149876916Y-64350500D01*
X150088116Y-64317049D01*
X150291483Y-64250972D01*
X150482009Y-64153894D01*
X150655004Y-64028206D01*
X150806206Y-63877004D01*
X150931894Y-63704009D01*
X150931896Y-63704004D01*
X150934270Y-63700132D01*
X150958750Y-63677981D01*
X150982507Y-63655051D01*
X150984541Y-63654645D01*
X150986080Y-63653254D01*
X151018653Y-63647854D01*
X151051032Y-63641409D01*
X151052962Y-63642168D01*
X151055009Y-63641829D01*
X151085322Y-63654893D01*
X151116054Y-63666979D01*
X151117744Y-63668867D01*
X151119173Y-63669483D01*
X151140566Y-63692373D01*
X151146052Y-63699978D01*
X151148106Y-63704009D01*
X151267666Y-63868569D01*
X151279236Y-63901350D01*
X151290898Y-63934034D01*
X151290909Y-63934421D01*
X151290921Y-63934455D01*
X151290911Y-63934496D01*
X151291100Y-63941113D01*
X151291100Y-72988322D01*
X151271415Y-73055361D01*
X151270203Y-73057212D01*
X151208116Y-73150133D01*
X151147170Y-73297268D01*
X151147168Y-73297276D01*
X151116100Y-73453465D01*
X151116100Y-73612734D01*
X151147168Y-73768923D01*
X151147170Y-73768931D01*
X151208117Y-73916069D01*
X151296595Y-74048487D01*
X151296601Y-74048494D01*
X151409205Y-74161098D01*
X151409212Y-74161104D01*
X151541630Y-74249582D01*
X151541631Y-74249582D01*
X151541632Y-74249583D01*
X151688769Y-74310530D01*
X151844965Y-74341599D01*
X151844969Y-74341600D01*
X151844970Y-74341600D01*
X152004231Y-74341600D01*
X152004232Y-74341599D01*
X152160431Y-74310530D01*
X152307568Y-74249583D01*
X152439989Y-74161103D01*
X152552603Y-74048489D01*
X152641083Y-73916068D01*
X152702030Y-73768931D01*
X152733100Y-73612730D01*
X152733100Y-73453470D01*
X152702030Y-73297269D01*
X152641083Y-73150132D01*
X152578997Y-73057212D01*
X152558120Y-72990534D01*
X152558100Y-72988322D01*
X152558100Y-64429890D01*
X152577785Y-64362851D01*
X152630589Y-64317096D01*
X152643783Y-64311959D01*
X152831477Y-64250974D01*
X152831483Y-64250972D01*
X152888071Y-64222139D01*
X153022009Y-64153894D01*
X153056014Y-64129187D01*
X153121819Y-64105707D01*
X153189873Y-64121532D01*
X153238569Y-64171637D01*
X153252900Y-64229505D01*
X153252900Y-82772606D01*
X153252900Y-82897394D01*
X153261162Y-82938931D01*
X153261517Y-82940713D01*
X153263900Y-82964906D01*
X153263900Y-83100634D01*
X153294968Y-83256823D01*
X153294970Y-83256831D01*
X153355917Y-83403969D01*
X153444395Y-83536387D01*
X153444401Y-83536394D01*
X153557005Y-83648998D01*
X153557012Y-83649004D01*
X153689430Y-83737482D01*
X153689431Y-83737482D01*
X153689432Y-83737483D01*
X153836569Y-83798430D01*
X153992765Y-83829499D01*
X153992769Y-83829500D01*
X153992770Y-83829500D01*
X154152031Y-83829500D01*
X154152032Y-83829499D01*
X154308231Y-83798430D01*
X154455368Y-83737483D01*
X154587789Y-83649003D01*
X154700403Y-83536389D01*
X154788883Y-83403968D01*
X154849830Y-83256831D01*
X154880900Y-83100630D01*
X154880900Y-82941370D01*
X154849830Y-82785169D01*
X154788883Y-82638032D01*
X154779152Y-82623469D01*
X154700404Y-82505612D01*
X154700398Y-82505605D01*
X154587792Y-82392999D01*
X154587786Y-82392994D01*
X154575008Y-82384456D01*
X154530203Y-82330843D01*
X154519900Y-82281355D01*
X154519900Y-80486177D01*
X154539585Y-80419138D01*
X154592389Y-80373383D01*
X154619709Y-80364560D01*
X154660837Y-80356378D01*
X154761631Y-80336330D01*
X154908768Y-80275383D01*
X155041189Y-80186903D01*
X155153803Y-80074289D01*
X155242283Y-79941868D01*
X155303230Y-79794731D01*
X155334300Y-79638530D01*
X155334300Y-79479270D01*
X155303230Y-79323069D01*
X155242283Y-79175932D01*
X155180197Y-79083012D01*
X155159320Y-79016334D01*
X155159300Y-79014122D01*
X155159300Y-73951345D01*
X157201500Y-73951345D01*
X157201500Y-76048654D01*
X157208011Y-76109202D01*
X157208011Y-76109204D01*
X157252632Y-76228833D01*
X157259111Y-76246204D01*
X157346739Y-76363261D01*
X157463796Y-76450889D01*
X157578949Y-76493839D01*
X157598061Y-76500968D01*
X157600799Y-76501989D01*
X157628050Y-76504918D01*
X157661345Y-76508499D01*
X157661362Y-76508500D01*
X159971362Y-76508500D01*
X160279200Y-76508500D01*
X160346239Y-76528185D01*
X160391994Y-76580989D01*
X160403200Y-76632500D01*
X160403200Y-78175033D01*
X160383515Y-78242072D01*
X160366881Y-78262714D01*
X159903862Y-78725732D01*
X159842539Y-78759217D01*
X159840372Y-78759668D01*
X159730776Y-78781468D01*
X159730768Y-78781470D01*
X159583630Y-78842417D01*
X159451212Y-78930895D01*
X159451205Y-78930901D01*
X159338601Y-79043505D01*
X159338595Y-79043512D01*
X159250117Y-79175930D01*
X159189170Y-79323068D01*
X159189168Y-79323076D01*
X159158100Y-79479265D01*
X159158100Y-79638534D01*
X159189168Y-79794723D01*
X159189170Y-79794731D01*
X159250117Y-79941869D01*
X159338595Y-80074287D01*
X159338601Y-80074294D01*
X159451205Y-80186898D01*
X159451212Y-80186904D01*
X159583630Y-80275382D01*
X159583631Y-80275382D01*
X159583632Y-80275383D01*
X159730769Y-80336330D01*
X159861366Y-80362307D01*
X159886965Y-80367399D01*
X159886969Y-80367400D01*
X159886970Y-80367400D01*
X160046231Y-80367400D01*
X160046232Y-80367399D01*
X160202431Y-80336330D01*
X160349568Y-80275383D01*
X160481989Y-80186903D01*
X160594603Y-80074289D01*
X160683083Y-79941868D01*
X160744030Y-79794731D01*
X160765831Y-79685122D01*
X160798215Y-79623215D01*
X160799709Y-79621693D01*
X161528771Y-78892633D01*
X161598100Y-78788875D01*
X161645855Y-78673585D01*
X161670200Y-78551194D01*
X161670200Y-78426406D01*
X161670200Y-76632500D01*
X161689885Y-76565461D01*
X161742689Y-76519706D01*
X161794200Y-76508500D01*
X162068638Y-76508500D01*
X162068654Y-76508499D01*
X162095692Y-76505591D01*
X162129201Y-76501989D01*
X162131939Y-76500968D01*
X162143768Y-76496555D01*
X162266204Y-76450889D01*
X162383261Y-76363261D01*
X162470889Y-76246204D01*
X162521989Y-76109201D01*
X162526524Y-76067022D01*
X162528499Y-76048654D01*
X162528500Y-76048637D01*
X162528500Y-74881947D01*
X163500000Y-74881947D01*
X163500000Y-75118052D01*
X163536934Y-75351247D01*
X163609897Y-75575802D01*
X163717087Y-75786174D01*
X163777338Y-75869104D01*
X163777340Y-75869105D01*
X164517037Y-75129408D01*
X164534075Y-75192993D01*
X164599901Y-75307007D01*
X164692993Y-75400099D01*
X164807007Y-75465925D01*
X164870589Y-75482962D01*
X164130893Y-76222658D01*
X164213828Y-76282914D01*
X164424197Y-76390102D01*
X164648752Y-76463065D01*
X164648751Y-76463065D01*
X164881948Y-76500000D01*
X165118052Y-76500000D01*
X165351247Y-76463065D01*
X165575799Y-76390103D01*
X165598704Y-76378433D01*
X165667373Y-76365536D01*
X165711296Y-76378433D01*
X165734200Y-76390103D01*
X165958752Y-76463065D01*
X165958751Y-76463065D01*
X166191948Y-76500000D01*
X166560000Y-76500000D01*
X166560000Y-75500000D01*
X167060000Y-75500000D01*
X167060000Y-76500000D01*
X167428052Y-76500000D01*
X167661247Y-76463065D01*
X167885802Y-76390102D01*
X168096171Y-76282914D01*
X168287186Y-76144133D01*
X168454133Y-75977186D01*
X168592914Y-75786171D01*
X168700102Y-75575802D01*
X168773065Y-75351247D01*
X168789102Y-75250000D01*
X167743012Y-75250000D01*
X167775925Y-75192993D01*
X167810000Y-75065826D01*
X167810000Y-74934174D01*
X167775925Y-74807007D01*
X167743012Y-74750000D01*
X168789102Y-74750000D01*
X168773065Y-74648752D01*
X168700102Y-74424197D01*
X168592914Y-74213828D01*
X168454133Y-74022813D01*
X168287186Y-73855866D01*
X168096171Y-73717085D01*
X167885802Y-73609897D01*
X167661247Y-73536934D01*
X167661248Y-73536934D01*
X167428052Y-73500000D01*
X167060000Y-73500000D01*
X167060000Y-74500000D01*
X166560000Y-74500000D01*
X166560000Y-73500000D01*
X166191948Y-73500000D01*
X165958752Y-73536934D01*
X165734196Y-73609897D01*
X165711293Y-73621567D01*
X165642624Y-73634462D01*
X165598707Y-73621567D01*
X165575803Y-73609897D01*
X165351247Y-73536934D01*
X165351248Y-73536934D01*
X165118052Y-73500000D01*
X164881948Y-73500000D01*
X164648752Y-73536934D01*
X164424197Y-73609897D01*
X164213830Y-73717084D01*
X164130894Y-73777340D01*
X164870591Y-74517037D01*
X164807007Y-74534075D01*
X164692993Y-74599901D01*
X164599901Y-74692993D01*
X164534075Y-74807007D01*
X164517037Y-74870591D01*
X163777340Y-74130894D01*
X163717084Y-74213830D01*
X163609897Y-74424197D01*
X163536934Y-74648752D01*
X163500000Y-74881947D01*
X162528500Y-74881947D01*
X162528500Y-73951362D01*
X162528499Y-73951345D01*
X162521989Y-73890798D01*
X162513461Y-73867935D01*
X162513460Y-73867932D01*
X162470889Y-73753796D01*
X162462352Y-73742392D01*
X162383261Y-73636739D01*
X162266204Y-73549111D01*
X162233557Y-73536934D01*
X162129203Y-73498011D01*
X162068654Y-73491500D01*
X162068638Y-73491500D01*
X160758638Y-73491500D01*
X157661362Y-73491500D01*
X157661345Y-73491500D01*
X157600797Y-73498011D01*
X157600795Y-73498011D01*
X157463795Y-73549111D01*
X157346739Y-73636739D01*
X157259111Y-73753795D01*
X157208011Y-73890795D01*
X157208011Y-73890797D01*
X157201500Y-73951345D01*
X155159300Y-73951345D01*
X155159300Y-66169965D01*
X155178985Y-66102926D01*
X155195614Y-66082289D01*
X156934353Y-64343549D01*
X156995674Y-64310066D01*
X157060348Y-64313300D01*
X157071884Y-64317049D01*
X157283084Y-64350500D01*
X157283085Y-64350500D01*
X157496915Y-64350500D01*
X157496916Y-64350500D01*
X157708116Y-64317049D01*
X157911483Y-64250972D01*
X158102009Y-64153894D01*
X158275004Y-64028206D01*
X158426206Y-63877004D01*
X158551894Y-63704009D01*
X158648972Y-63513483D01*
X158715049Y-63310116D01*
X158748500Y-63098916D01*
X158748500Y-62885084D01*
X158715049Y-62673884D01*
X158679939Y-62565826D01*
X158648973Y-62470519D01*
X158648972Y-62470516D01*
X158566420Y-62308500D01*
X158551894Y-62279991D01*
X158426206Y-62106996D01*
X158275004Y-61955794D01*
X158102009Y-61830106D01*
X158102010Y-61830106D01*
X158102008Y-61830105D01*
X158097311Y-61827712D01*
X158046517Y-61779735D01*
X158029724Y-61711914D01*
X158052264Y-61645780D01*
X158093790Y-61609801D01*
X158093402Y-61609168D01*
X158097229Y-61606822D01*
X158097327Y-61606738D01*
X158097556Y-61606621D01*
X158151716Y-61567270D01*
X158151717Y-61567270D01*
X157519408Y-60934962D01*
X157582993Y-60917925D01*
X157697007Y-60852099D01*
X157790099Y-60759007D01*
X157855925Y-60644993D01*
X157872962Y-60581408D01*
X158505270Y-61213717D01*
X158505270Y-61213716D01*
X158544622Y-61159554D01*
X158641095Y-60970217D01*
X158706757Y-60768130D01*
X158706757Y-60768127D01*
X158740000Y-60558246D01*
X158740000Y-60345753D01*
X158706757Y-60135872D01*
X158706757Y-60135869D01*
X158641095Y-59933782D01*
X158544624Y-59744449D01*
X158505270Y-59690282D01*
X158505269Y-59690282D01*
X157872962Y-60322590D01*
X157855925Y-60259007D01*
X157790099Y-60144993D01*
X157697007Y-60051901D01*
X157582993Y-59986075D01*
X157519409Y-59969037D01*
X158151716Y-59336728D01*
X158097550Y-59297375D01*
X157908217Y-59200904D01*
X157706129Y-59135242D01*
X157496246Y-59102000D01*
X157283754Y-59102000D01*
X157073872Y-59135242D01*
X157073869Y-59135242D01*
X156871782Y-59200904D01*
X156682439Y-59297380D01*
X156628282Y-59336727D01*
X156628282Y-59336728D01*
X157260591Y-59969037D01*
X157197007Y-59986075D01*
X157082993Y-60051901D01*
X156989901Y-60144993D01*
X156924075Y-60259007D01*
X156907037Y-60322591D01*
X156274728Y-59690282D01*
X156274727Y-59690282D01*
X156235380Y-59744440D01*
X156235374Y-59744449D01*
X156235246Y-59744702D01*
X156235172Y-59744780D01*
X156232838Y-59748590D01*
X156232036Y-59748099D01*
X156187264Y-59795490D01*
X156119441Y-59812275D01*
X156053309Y-59789728D01*
X156014283Y-59744680D01*
X156011894Y-59739991D01*
X155886206Y-59566996D01*
X155735004Y-59415794D01*
X155562009Y-59290106D01*
X155545835Y-59281865D01*
X155371483Y-59193027D01*
X155371480Y-59193026D01*
X155168117Y-59126951D01*
X155022585Y-59103901D01*
X154956916Y-59093500D01*
X154743084Y-59093500D01*
X154677415Y-59103901D01*
X154531882Y-59126951D01*
X154328519Y-59193026D01*
X154328516Y-59193027D01*
X154137990Y-59290106D01*
X153964993Y-59415796D01*
X153813796Y-59566993D01*
X153688105Y-59739991D01*
X153685727Y-59743873D01*
X153633914Y-59790748D01*
X153564984Y-59802169D01*
X153500822Y-59774512D01*
X153474273Y-59743873D01*
X153471894Y-59739991D01*
X153454007Y-59715372D01*
X153346206Y-59566996D01*
X153195004Y-59415794D01*
X153022009Y-59290106D01*
X153005835Y-59281865D01*
X152831483Y-59193027D01*
X152831480Y-59193026D01*
X152628117Y-59126951D01*
X152482585Y-59103901D01*
X152416916Y-59093500D01*
X152203084Y-59093500D01*
X152137415Y-59103901D01*
X151991882Y-59126951D01*
X151788519Y-59193026D01*
X151788516Y-59193028D01*
X151618695Y-59279556D01*
X151615989Y-59280064D01*
X151613911Y-59281865D01*
X151581859Y-59286473D01*
X151550025Y-59292452D01*
X151547476Y-59291417D01*
X151544753Y-59291809D01*
X151515287Y-59278352D01*
X151485285Y-59266175D01*
X151483700Y-59263927D01*
X151481197Y-59262784D01*
X151463685Y-59235535D01*
X151445028Y-59209069D01*
X151444455Y-59205612D01*
X151443423Y-59204006D01*
X151438400Y-59169071D01*
X151438400Y-59071977D01*
X151458085Y-59004938D01*
X151459297Y-59003087D01*
X151467359Y-58991021D01*
X151521383Y-58910168D01*
X151582330Y-58763031D01*
X151613400Y-58606830D01*
X151613400Y-58447570D01*
X151582330Y-58291369D01*
X151521383Y-58144232D01*
X151499869Y-58112034D01*
X151432904Y-58011812D01*
X151432898Y-58011805D01*
X151320294Y-57899201D01*
X151320287Y-57899195D01*
X151187869Y-57810717D01*
X151040731Y-57749770D01*
X151040723Y-57749768D01*
X150884534Y-57718700D01*
X150884530Y-57718700D01*
X150725270Y-57718700D01*
X150725265Y-57718700D01*
X150569076Y-57749768D01*
X150569068Y-57749770D01*
X150421930Y-57810717D01*
X150289512Y-57899195D01*
X150289505Y-57899201D01*
X150176901Y-58011805D01*
X150176895Y-58011812D01*
X150088417Y-58144230D01*
X150027470Y-58291368D01*
X150027468Y-58291376D01*
X149996400Y-58447565D01*
X149996400Y-58606834D01*
X150027468Y-58763023D01*
X150027470Y-58763031D01*
X150088416Y-58910166D01*
X150092951Y-58916954D01*
X150113826Y-58983632D01*
X150095339Y-59051011D01*
X150043359Y-59097700D01*
X149974388Y-59108874D01*
X149970448Y-59108314D01*
X149930583Y-59102000D01*
X149876916Y-59093500D01*
X149663084Y-59093500D01*
X149597415Y-59103901D01*
X149451882Y-59126951D01*
X149248519Y-59193026D01*
X149248516Y-59193027D01*
X149057990Y-59290106D01*
X148884993Y-59415796D01*
X148733796Y-59566993D01*
X148608105Y-59739991D01*
X148605727Y-59743873D01*
X148553914Y-59790748D01*
X148484984Y-59802169D01*
X148420822Y-59774512D01*
X148394273Y-59743873D01*
X148391894Y-59739991D01*
X148374007Y-59715372D01*
X148266206Y-59566996D01*
X148115004Y-59415794D01*
X147942009Y-59290106D01*
X147925835Y-59281865D01*
X147751483Y-59193027D01*
X147751480Y-59193026D01*
X147548117Y-59126951D01*
X147402585Y-59103901D01*
X147336916Y-59093500D01*
X147123084Y-59093500D01*
X147057415Y-59103901D01*
X146911882Y-59126951D01*
X146708519Y-59193026D01*
X146708516Y-59193027D01*
X146517990Y-59290106D01*
X146344993Y-59415796D01*
X146193796Y-59566993D01*
X146068105Y-59739991D01*
X146065727Y-59743873D01*
X146013914Y-59790748D01*
X145944984Y-59802169D01*
X145880822Y-59774512D01*
X145854273Y-59743873D01*
X145851894Y-59739991D01*
X145834007Y-59715372D01*
X145726206Y-59566996D01*
X145575004Y-59415794D01*
X145402009Y-59290106D01*
X145402008Y-59290105D01*
X145402006Y-59290104D01*
X145391204Y-59284600D01*
X145340408Y-59236625D01*
X145323500Y-59174116D01*
X145323500Y-56945524D01*
X145343185Y-56878485D01*
X145395989Y-56832730D01*
X145423309Y-56823907D01*
X145441158Y-56820356D01*
X145466931Y-56815230D01*
X145614068Y-56754283D01*
X145746489Y-56665803D01*
X145859103Y-56553189D01*
X145947583Y-56420768D01*
X146008530Y-56273631D01*
X146039600Y-56117430D01*
X146039600Y-55958170D01*
X146008530Y-55801969D01*
X145947583Y-55654832D01*
X145859103Y-55522411D01*
X145859098Y-55522405D01*
X145746494Y-55409801D01*
X145746487Y-55409795D01*
X145614069Y-55321317D01*
X145466931Y-55260370D01*
X145466923Y-55260368D01*
X145310734Y-55229300D01*
X145310730Y-55229300D01*
X145151470Y-55229300D01*
X145151465Y-55229300D01*
X144995276Y-55260368D01*
X144995268Y-55260370D01*
X144848130Y-55321317D01*
X144715712Y-55409795D01*
X144715705Y-55409801D01*
X144603101Y-55522405D01*
X144603095Y-55522412D01*
X144514617Y-55654830D01*
X144453670Y-55801968D01*
X144453668Y-55801974D01*
X144431868Y-55911572D01*
X144423103Y-55928326D01*
X144419084Y-55946806D01*
X144400338Y-55971846D01*
X144399483Y-55973482D01*
X144397933Y-55975060D01*
X144286167Y-56086828D01*
X144286166Y-56086829D01*
X144197931Y-56175063D01*
X144197928Y-56175067D01*
X144128603Y-56278818D01*
X144128598Y-56278827D01*
X144080845Y-56394114D01*
X144080843Y-56394122D01*
X144056500Y-56516501D01*
X144056500Y-59174116D01*
X144036815Y-59241155D01*
X143988796Y-59284600D01*
X143977993Y-59290104D01*
X143804993Y-59415796D01*
X143653796Y-59566993D01*
X143528105Y-59739991D01*
X143525727Y-59743873D01*
X143473914Y-59790748D01*
X143404984Y-59802169D01*
X143340822Y-59774512D01*
X143314273Y-59743873D01*
X143311894Y-59739991D01*
X143294007Y-59715372D01*
X143186206Y-59566996D01*
X143035004Y-59415794D01*
X142862009Y-59290106D01*
X142845835Y-59281865D01*
X142671483Y-59193027D01*
X142671480Y-59193026D01*
X142468117Y-59126951D01*
X142322585Y-59103901D01*
X142256916Y-59093500D01*
X142043084Y-59093500D01*
X141977415Y-59103901D01*
X141831882Y-59126951D01*
X141628519Y-59193026D01*
X141628516Y-59193027D01*
X141437990Y-59290106D01*
X141264993Y-59415796D01*
X141113796Y-59566993D01*
X140988105Y-59739991D01*
X140985727Y-59743873D01*
X140933914Y-59790748D01*
X140864984Y-59802169D01*
X140800822Y-59774512D01*
X140774273Y-59743873D01*
X140771894Y-59739991D01*
X140754007Y-59715372D01*
X140646206Y-59566996D01*
X140495004Y-59415794D01*
X140322009Y-59290106D01*
X140305835Y-59281865D01*
X140131483Y-59193027D01*
X140131480Y-59193026D01*
X139928117Y-59126951D01*
X139782585Y-59103901D01*
X139716916Y-59093500D01*
X139503084Y-59093500D01*
X139437415Y-59103901D01*
X139291882Y-59126951D01*
X139088519Y-59193026D01*
X139088516Y-59193027D01*
X138897990Y-59290106D01*
X138724993Y-59415796D01*
X138573796Y-59566993D01*
X138448106Y-59739990D01*
X138351027Y-59930516D01*
X138351026Y-59930519D01*
X138284951Y-60133882D01*
X138251500Y-60345084D01*
X133108499Y-60345084D01*
X133108499Y-59715372D01*
X133108499Y-59715371D01*
X133108499Y-59715360D01*
X133105667Y-59667801D01*
X133060667Y-59460942D01*
X133017240Y-59359530D01*
X132977335Y-59266342D01*
X132977333Y-59266340D01*
X132977332Y-59266336D01*
X132858674Y-59091019D01*
X132708981Y-58941326D01*
X132533664Y-58822668D01*
X132533661Y-58822666D01*
X132533657Y-58822664D01*
X132339063Y-58739335D01*
X132339061Y-58739334D01*
X132339058Y-58739333D01*
X132339053Y-58739331D01*
X132339047Y-58739330D01*
X132132204Y-58694334D01*
X132132203Y-58694333D01*
X132132199Y-58694333D01*
X132084641Y-58691500D01*
X132084628Y-58691500D01*
X131915372Y-58691500D01*
X131915369Y-58691500D01*
X131915360Y-58691501D01*
X131867801Y-58694333D01*
X131867796Y-58694333D01*
X131867796Y-58694334D01*
X131660951Y-58739330D01*
X131660936Y-58739335D01*
X131466342Y-58822664D01*
X131291021Y-58941324D01*
X131175476Y-59056869D01*
X131114153Y-59090353D01*
X131044461Y-59085369D01*
X130988528Y-59043497D01*
X130973235Y-59016643D01*
X130926383Y-58903532D01*
X130909635Y-58878467D01*
X130837904Y-58771112D01*
X130837898Y-58771105D01*
X130725294Y-58658501D01*
X130725287Y-58658495D01*
X130592869Y-58570017D01*
X130445731Y-58509070D01*
X130445723Y-58509068D01*
X130289534Y-58478000D01*
X130289530Y-58478000D01*
X130130270Y-58478000D01*
X130130265Y-58478000D01*
X129974076Y-58509068D01*
X129974068Y-58509070D01*
X129826930Y-58570017D01*
X129694512Y-58658495D01*
X129694505Y-58658501D01*
X129581901Y-58771105D01*
X129581895Y-58771112D01*
X129493417Y-58903530D01*
X129432470Y-59050668D01*
X129432468Y-59050674D01*
X129410668Y-59160272D01*
X129401903Y-59177026D01*
X129397884Y-59195506D01*
X129379136Y-59220549D01*
X129378283Y-59222182D01*
X129376733Y-59223761D01*
X129240967Y-59359529D01*
X129240964Y-59359530D01*
X129152731Y-59447763D01*
X129152728Y-59447767D01*
X129083403Y-59551518D01*
X129083398Y-59551527D01*
X129035645Y-59666814D01*
X129035643Y-59666822D01*
X129011300Y-59789201D01*
X129011300Y-62289721D01*
X128991615Y-62356760D01*
X128938811Y-62402515D01*
X128869653Y-62412459D01*
X128867903Y-62412194D01*
X128737241Y-62391500D01*
X128562759Y-62391500D01*
X128509092Y-62400000D01*
X128390424Y-62418795D01*
X128224486Y-62472710D01*
X128224483Y-62472711D01*
X128069015Y-62551928D01*
X127927867Y-62654477D01*
X127927862Y-62654481D01*
X127804481Y-62777862D01*
X127804477Y-62777867D01*
X127700318Y-62921231D01*
X127644988Y-62963897D01*
X127575375Y-62969876D01*
X127513580Y-62937271D01*
X127499682Y-62921231D01*
X127395522Y-62777867D01*
X127395518Y-62777862D01*
X127272137Y-62654481D01*
X127272132Y-62654477D01*
X127130984Y-62551928D01*
X127130983Y-62551927D01*
X127130981Y-62551926D01*
X127037821Y-62504458D01*
X126975516Y-62472711D01*
X126975513Y-62472710D01*
X126809575Y-62418795D01*
X126723407Y-62405147D01*
X126637241Y-62391500D01*
X126462759Y-62391500D01*
X126409092Y-62400000D01*
X126290424Y-62418795D01*
X126124486Y-62472710D01*
X126124483Y-62472711D01*
X125969015Y-62551928D01*
X125827867Y-62654477D01*
X125827862Y-62654481D01*
X125704481Y-62777862D01*
X125704477Y-62777867D01*
X125601928Y-62919015D01*
X125522711Y-63074483D01*
X125522710Y-63074486D01*
X125468795Y-63240424D01*
X125458307Y-63306645D01*
X125441500Y-63412759D01*
X125441500Y-63587241D01*
X125452136Y-63654394D01*
X125468795Y-63759575D01*
X125522710Y-63925513D01*
X125522711Y-63925516D01*
X125560669Y-64000010D01*
X125591411Y-64060345D01*
X125601928Y-64080984D01*
X125704477Y-64222132D01*
X125704481Y-64222137D01*
X125827862Y-64345518D01*
X125827867Y-64345522D01*
X125899499Y-64397565D01*
X125969019Y-64448074D01*
X126070646Y-64499856D01*
X126124483Y-64527288D01*
X126124486Y-64527289D01*
X126290425Y-64581205D01*
X126314431Y-64585007D01*
X126410399Y-64600206D01*
X126441161Y-64614790D01*
X126472203Y-64628966D01*
X126472701Y-64629741D01*
X126473532Y-64630135D01*
X126491544Y-64659062D01*
X126509977Y-64687744D01*
X126510148Y-64688940D01*
X126510464Y-64689446D01*
X126515000Y-64722679D01*
X126515000Y-64790307D01*
X126495315Y-64857346D01*
X126442511Y-64903101D01*
X126373353Y-64913045D01*
X126371603Y-64912780D01*
X126237241Y-64891500D01*
X126062759Y-64891500D01*
X126009092Y-64900000D01*
X125890424Y-64918795D01*
X125724486Y-64972710D01*
X125724483Y-64972711D01*
X125569015Y-65051928D01*
X125427867Y-65154477D01*
X125427862Y-65154481D01*
X125304481Y-65277862D01*
X125304477Y-65277867D01*
X125201928Y-65419015D01*
X125122711Y-65574483D01*
X125122710Y-65574486D01*
X125068795Y-65740424D01*
X125057587Y-65811189D01*
X125041500Y-65912759D01*
X125041500Y-66087241D01*
X125048255Y-66129888D01*
X125068795Y-66259575D01*
X125122710Y-66425513D01*
X125122711Y-66425516D01*
X125201928Y-66580984D01*
X125304477Y-66722132D01*
X125304481Y-66722137D01*
X125304483Y-66722139D01*
X125427861Y-66845517D01*
X125465385Y-66872779D01*
X125508050Y-66928107D01*
X125516500Y-66973097D01*
X125516500Y-68506333D01*
X125496815Y-68573372D01*
X125480181Y-68594014D01*
X124157962Y-69916232D01*
X124096639Y-69949717D01*
X124094472Y-69950168D01*
X123984876Y-69971968D01*
X123984868Y-69971970D01*
X123837730Y-70032917D01*
X123705312Y-70121395D01*
X123705305Y-70121401D01*
X123630681Y-70196026D01*
X123569358Y-70229511D01*
X123499666Y-70224527D01*
X123443733Y-70182655D01*
X123419316Y-70117191D01*
X123419000Y-70108345D01*
X123419000Y-64654747D01*
X123438685Y-64587708D01*
X123491489Y-64541953D01*
X123560647Y-64532009D01*
X123581319Y-64536816D01*
X123692415Y-64572914D01*
X123863429Y-64600000D01*
X124036571Y-64600000D01*
X124207584Y-64572914D01*
X124372257Y-64519408D01*
X124526525Y-64440803D01*
X124532736Y-64436289D01*
X123996446Y-63900000D01*
X124002661Y-63900000D01*
X124104394Y-63872741D01*
X124195606Y-63820080D01*
X124270080Y-63745606D01*
X124322741Y-63654394D01*
X124350000Y-63552661D01*
X124350000Y-63546447D01*
X124886289Y-64082736D01*
X124890803Y-64076525D01*
X124969408Y-63922257D01*
X125022914Y-63757584D01*
X125050000Y-63586571D01*
X125050000Y-63413428D01*
X125022914Y-63242415D01*
X124969408Y-63077742D01*
X124890801Y-62923471D01*
X124886290Y-62917262D01*
X124886289Y-62917261D01*
X124350000Y-63453551D01*
X124350000Y-63447339D01*
X124322741Y-63345606D01*
X124270080Y-63254394D01*
X124195606Y-63179920D01*
X124104394Y-63127259D01*
X124002661Y-63100000D01*
X123996447Y-63100000D01*
X124532737Y-62563709D01*
X124526525Y-62559196D01*
X124372259Y-62480592D01*
X124207584Y-62427085D01*
X124036571Y-62400000D01*
X123863429Y-62400000D01*
X123692415Y-62427085D01*
X123527740Y-62480592D01*
X123373480Y-62559193D01*
X123373463Y-62559203D01*
X123367261Y-62563708D01*
X123367261Y-62563709D01*
X123903554Y-63100000D01*
X123897339Y-63100000D01*
X123795606Y-63127259D01*
X123704394Y-63179920D01*
X123629920Y-63254394D01*
X123577259Y-63345606D01*
X123550000Y-63447339D01*
X123550000Y-63453553D01*
X123013709Y-62917261D01*
X123013708Y-62917261D01*
X123006335Y-62927413D01*
X123004827Y-62926317D01*
X122958899Y-62967858D01*
X122889968Y-62979270D01*
X122825809Y-62951604D01*
X122800971Y-62922935D01*
X122800938Y-62922960D01*
X122800650Y-62922564D01*
X122799271Y-62920972D01*
X122798076Y-62919024D01*
X122798074Y-62919019D01*
X122770840Y-62881534D01*
X122695522Y-62777867D01*
X122695518Y-62777862D01*
X122572137Y-62654481D01*
X122572132Y-62654477D01*
X122430984Y-62551928D01*
X122430983Y-62551927D01*
X122430981Y-62551926D01*
X122337821Y-62504458D01*
X122275516Y-62472711D01*
X122275513Y-62472710D01*
X122109575Y-62418795D01*
X122023407Y-62405147D01*
X121937241Y-62391500D01*
X121762759Y-62391500D01*
X121709092Y-62400000D01*
X121590424Y-62418795D01*
X121424486Y-62472710D01*
X121424483Y-62472711D01*
X121269015Y-62551928D01*
X121127867Y-62654477D01*
X121127862Y-62654481D01*
X121004481Y-62777862D01*
X121004477Y-62777867D01*
X120901928Y-62919015D01*
X120822711Y-63074483D01*
X120822710Y-63074486D01*
X120768795Y-63240424D01*
X120758307Y-63306645D01*
X120741500Y-63412759D01*
X120741500Y-63587241D01*
X120752136Y-63654394D01*
X120768795Y-63759575D01*
X120822710Y-63925513D01*
X120822711Y-63925516D01*
X120860669Y-64000010D01*
X120891411Y-64060345D01*
X120901928Y-64080984D01*
X121004477Y-64222132D01*
X121004481Y-64222137D01*
X121127862Y-64345518D01*
X121127867Y-64345522D01*
X121199499Y-64397565D01*
X121269019Y-64448074D01*
X121370646Y-64499856D01*
X121424483Y-64527288D01*
X121424486Y-64527289D01*
X121488698Y-64548152D01*
X121590426Y-64581205D01*
X121762759Y-64608500D01*
X121762760Y-64608500D01*
X121937240Y-64608500D01*
X121937241Y-64608500D01*
X121983051Y-64601244D01*
X121988475Y-64601944D01*
X121993601Y-64600033D01*
X122022753Y-64606374D01*
X122052344Y-64610198D01*
X122057948Y-64614030D01*
X122061874Y-64614884D01*
X122090129Y-64636034D01*
X122115680Y-64661584D01*
X122149166Y-64722907D01*
X122152000Y-64749267D01*
X122152000Y-64780329D01*
X122132315Y-64847368D01*
X122079511Y-64893123D01*
X122010353Y-64903067D01*
X122008644Y-64902809D01*
X121937241Y-64891500D01*
X121762759Y-64891500D01*
X121709092Y-64900000D01*
X121590424Y-64918795D01*
X121424486Y-64972710D01*
X121424483Y-64972711D01*
X121269015Y-65051928D01*
X121127867Y-65154477D01*
X121127862Y-65154481D01*
X121004481Y-65277862D01*
X121004477Y-65277867D01*
X120901928Y-65419015D01*
X120822711Y-65574483D01*
X120822710Y-65574486D01*
X120768795Y-65740424D01*
X120757587Y-65811189D01*
X120741500Y-65912759D01*
X120741500Y-66087241D01*
X120748255Y-66129888D01*
X120768795Y-66259575D01*
X120822710Y-66425513D01*
X120822711Y-66425516D01*
X120901928Y-66580984D01*
X121004477Y-66722132D01*
X121004481Y-66722137D01*
X121127862Y-66845518D01*
X121127867Y-66845522D01*
X121202987Y-66900099D01*
X121269019Y-66948074D01*
X121357324Y-66993068D01*
X121424483Y-67027288D01*
X121424486Y-67027289D01*
X121490932Y-67048878D01*
X121590426Y-67081205D01*
X121762759Y-67108500D01*
X121762760Y-67108500D01*
X121937240Y-67108500D01*
X121937241Y-67108500D01*
X122008603Y-67097197D01*
X122077895Y-67106151D01*
X122131347Y-67151147D01*
X122151987Y-67217899D01*
X122152000Y-67219670D01*
X122152000Y-71319533D01*
X122132315Y-71386572D01*
X122115681Y-71407214D01*
X121334762Y-72188132D01*
X121273439Y-72221617D01*
X121271272Y-72222068D01*
X121161676Y-72243868D01*
X121161668Y-72243870D01*
X121014530Y-72304817D01*
X120882112Y-72393295D01*
X120882105Y-72393301D01*
X120769501Y-72505905D01*
X120769495Y-72505912D01*
X120681017Y-72638330D01*
X120620070Y-72785468D01*
X120620068Y-72785476D01*
X120589000Y-72941665D01*
X120589000Y-73100934D01*
X120620068Y-73257123D01*
X120620070Y-73257131D01*
X120681017Y-73404269D01*
X120769495Y-73536687D01*
X120769501Y-73536694D01*
X120886418Y-73653611D01*
X120884981Y-73655047D01*
X120919090Y-73705091D01*
X120920979Y-73774935D01*
X120888782Y-73830912D01*
X117810120Y-76909576D01*
X116786267Y-77933429D01*
X116742147Y-77977549D01*
X116698027Y-78021668D01*
X116628697Y-78125427D01*
X116626957Y-78128684D01*
X116625595Y-78130069D01*
X116625315Y-78130490D01*
X116625235Y-78130436D01*
X116577994Y-78178527D01*
X116509856Y-78193987D01*
X116444177Y-78170154D01*
X116401809Y-78114596D01*
X116393600Y-78070229D01*
X116393600Y-73910577D01*
X116413285Y-73843538D01*
X116414497Y-73841687D01*
X116462663Y-73769601D01*
X116476583Y-73748768D01*
X116537530Y-73601631D01*
X116568600Y-73445430D01*
X116568600Y-73286170D01*
X116537530Y-73129969D01*
X116476583Y-72982832D01*
X116462108Y-72961169D01*
X116388104Y-72850412D01*
X116388098Y-72850405D01*
X116275494Y-72737801D01*
X116275487Y-72737795D01*
X116143069Y-72649317D01*
X115995931Y-72588370D01*
X115995923Y-72588368D01*
X115839734Y-72557300D01*
X115839730Y-72557300D01*
X115680470Y-72557300D01*
X115680465Y-72557300D01*
X115524276Y-72588368D01*
X115524268Y-72588370D01*
X115377130Y-72649317D01*
X115244712Y-72737795D01*
X115244705Y-72737801D01*
X115132101Y-72850405D01*
X115132095Y-72850412D01*
X115043617Y-72982830D01*
X114982670Y-73129968D01*
X114982668Y-73129976D01*
X114951600Y-73286165D01*
X114951600Y-73445434D01*
X114982668Y-73601623D01*
X114982670Y-73601631D01*
X115043615Y-73748766D01*
X115105703Y-73841687D01*
X115126580Y-73908364D01*
X115126600Y-73910577D01*
X115126600Y-124445234D01*
X115106915Y-124512273D01*
X115090281Y-124532915D01*
X113803481Y-125819715D01*
X113742158Y-125853200D01*
X113672466Y-125848216D01*
X113616533Y-125806344D01*
X113592116Y-125740880D01*
X113591800Y-125732034D01*
X113591800Y-80493754D01*
X113611485Y-80426715D01*
X113628114Y-80406077D01*
X113692903Y-80341289D01*
X113781383Y-80208868D01*
X113842330Y-80061731D01*
X113873400Y-79905530D01*
X113873400Y-79746270D01*
X113842330Y-79590069D01*
X113781383Y-79442932D01*
X113772321Y-79429370D01*
X113692904Y-79310512D01*
X113692898Y-79310505D01*
X113580294Y-79197901D01*
X113580287Y-79197895D01*
X113447869Y-79109417D01*
X113300731Y-79048470D01*
X113300725Y-79048468D01*
X113171508Y-79022765D01*
X113109597Y-78990380D01*
X113075023Y-78929664D01*
X113071700Y-78901148D01*
X113071700Y-71213811D01*
X113091385Y-71146772D01*
X113144189Y-71101017D01*
X113148247Y-71099250D01*
X113156311Y-71095909D01*
X113195968Y-71079483D01*
X113328389Y-70991003D01*
X113441003Y-70878389D01*
X113529483Y-70745968D01*
X113590430Y-70598831D01*
X113621500Y-70442630D01*
X113621500Y-70283370D01*
X113590430Y-70127169D01*
X113529483Y-69980032D01*
X113528997Y-69979305D01*
X113441004Y-69847612D01*
X113440998Y-69847605D01*
X113328394Y-69735001D01*
X113328387Y-69734995D01*
X113195969Y-69646517D01*
X113048831Y-69585570D01*
X113048823Y-69585568D01*
X112892634Y-69554500D01*
X112892630Y-69554500D01*
X112733370Y-69554500D01*
X112733365Y-69554500D01*
X112577176Y-69585568D01*
X112577168Y-69585570D01*
X112430030Y-69646517D01*
X112297612Y-69734995D01*
X112297605Y-69735001D01*
X112185001Y-69847605D01*
X112184995Y-69847612D01*
X112096517Y-69980030D01*
X112035570Y-70127168D01*
X112035568Y-70127176D01*
X112013768Y-70236772D01*
X111981383Y-70298683D01*
X111979835Y-70300260D01*
X111946126Y-70333970D01*
X111876803Y-70437718D01*
X111876798Y-70437727D01*
X111829045Y-70553014D01*
X111829043Y-70553022D01*
X111804700Y-70675401D01*
X111804700Y-82638033D01*
X111785015Y-82705072D01*
X111768381Y-82725714D01*
X109874162Y-84619932D01*
X109812839Y-84653417D01*
X109810672Y-84653868D01*
X109701076Y-84675668D01*
X109701068Y-84675670D01*
X109553933Y-84736616D01*
X109527590Y-84754218D01*
X109460912Y-84775095D01*
X109393532Y-84756610D01*
X109346842Y-84704630D01*
X109334700Y-84651115D01*
X109334700Y-84331805D01*
X109334699Y-84331801D01*
X109310356Y-84209422D01*
X109310355Y-84209415D01*
X109289946Y-84160144D01*
X109289946Y-84160143D01*
X109262604Y-84094131D01*
X109262602Y-84094127D01*
X109262601Y-84094125D01*
X109237438Y-84056466D01*
X109193272Y-83990366D01*
X109079219Y-83876313D01*
X109045734Y-83814990D01*
X109042900Y-83788632D01*
X109042900Y-62762665D01*
X109062585Y-62695626D01*
X109079214Y-62674989D01*
X112038843Y-59715359D01*
X117391500Y-59715359D01*
X117391500Y-59715369D01*
X117391500Y-59715371D01*
X117391500Y-61284627D01*
X117391500Y-61284629D01*
X117391501Y-61284640D01*
X117394333Y-61332199D01*
X117394334Y-61332203D01*
X117439330Y-61539048D01*
X117439335Y-61539063D01*
X117522664Y-61733657D01*
X117522666Y-61733660D01*
X117522668Y-61733664D01*
X117641326Y-61908981D01*
X117791019Y-62058674D01*
X117966336Y-62177332D01*
X117966340Y-62177333D01*
X117966342Y-62177335D01*
X118014962Y-62198155D01*
X118160942Y-62260667D01*
X118367801Y-62305667D01*
X118415359Y-62308500D01*
X118584640Y-62308499D01*
X118632199Y-62305667D01*
X118839058Y-62260667D01*
X119033664Y-62177332D01*
X119208981Y-62058674D01*
X119358674Y-61908981D01*
X119477332Y-61733664D01*
X119560667Y-61539058D01*
X119605667Y-61332199D01*
X119608500Y-61284641D01*
X119608499Y-59715360D01*
X119605667Y-59667801D01*
X119596537Y-59625833D01*
X119594258Y-59615359D01*
X123441500Y-59615359D01*
X123441500Y-59615369D01*
X123441500Y-59615371D01*
X123441500Y-59784627D01*
X123441500Y-59784629D01*
X123441501Y-59784640D01*
X123444333Y-59832199D01*
X123444334Y-59832203D01*
X123489330Y-60039048D01*
X123489335Y-60039063D01*
X123572664Y-60233657D01*
X123572666Y-60233661D01*
X123572668Y-60233664D01*
X123691326Y-60408981D01*
X123841019Y-60558674D01*
X124016336Y-60677332D01*
X124016340Y-60677333D01*
X124016342Y-60677335D01*
X124074303Y-60702155D01*
X124210942Y-60760667D01*
X124417801Y-60805667D01*
X124465359Y-60808500D01*
X126034640Y-60808499D01*
X126082199Y-60805667D01*
X126289058Y-60760667D01*
X126483664Y-60677332D01*
X126658981Y-60558674D01*
X126808674Y-60408981D01*
X126927332Y-60233664D01*
X127010667Y-60039058D01*
X127055667Y-59832199D01*
X127058500Y-59784641D01*
X127058499Y-59615360D01*
X127055667Y-59567801D01*
X127010667Y-59360942D01*
X126959371Y-59241155D01*
X126927335Y-59166342D01*
X126927333Y-59166340D01*
X126927332Y-59166336D01*
X126808674Y-58991019D01*
X126658981Y-58841326D01*
X126483664Y-58722668D01*
X126483661Y-58722666D01*
X126483657Y-58722664D01*
X126289063Y-58639335D01*
X126289061Y-58639334D01*
X126289058Y-58639333D01*
X126289053Y-58639331D01*
X126289047Y-58639330D01*
X126082204Y-58594334D01*
X126082203Y-58594333D01*
X126082199Y-58594333D01*
X126034641Y-58591500D01*
X126034628Y-58591500D01*
X124465372Y-58591500D01*
X124465369Y-58591500D01*
X124465360Y-58591501D01*
X124417801Y-58594333D01*
X124417796Y-58594333D01*
X124417796Y-58594334D01*
X124210951Y-58639330D01*
X124210936Y-58639335D01*
X124016342Y-58722664D01*
X123841021Y-58841324D01*
X123841016Y-58841328D01*
X123691328Y-58991016D01*
X123691324Y-58991021D01*
X123572664Y-59166342D01*
X123489335Y-59360936D01*
X123489330Y-59360952D01*
X123444508Y-59566996D01*
X123444333Y-59567801D01*
X123441500Y-59615359D01*
X119594258Y-59615359D01*
X119560669Y-59460952D01*
X119560669Y-59460951D01*
X119560667Y-59460942D01*
X119517240Y-59359530D01*
X119477335Y-59266342D01*
X119477333Y-59266340D01*
X119477332Y-59266336D01*
X119358674Y-59091019D01*
X119208981Y-58941326D01*
X119033664Y-58822668D01*
X119033661Y-58822666D01*
X119033657Y-58822664D01*
X118839063Y-58739335D01*
X118839061Y-58739334D01*
X118839058Y-58739333D01*
X118839053Y-58739331D01*
X118839047Y-58739330D01*
X118632204Y-58694334D01*
X118632203Y-58694333D01*
X118632199Y-58694333D01*
X118584641Y-58691500D01*
X118584628Y-58691500D01*
X118415372Y-58691500D01*
X118415369Y-58691500D01*
X118415360Y-58691501D01*
X118367801Y-58694333D01*
X118367796Y-58694333D01*
X118367796Y-58694334D01*
X118160951Y-58739330D01*
X118160936Y-58739335D01*
X117966342Y-58822664D01*
X117791021Y-58941324D01*
X117791016Y-58941328D01*
X117641328Y-59091016D01*
X117641324Y-59091021D01*
X117543515Y-59235535D01*
X117524299Y-59263927D01*
X117522664Y-59266342D01*
X117439335Y-59460936D01*
X117439330Y-59460952D01*
X117394547Y-59666815D01*
X117394333Y-59667801D01*
X117391500Y-59715359D01*
X112038843Y-59715359D01*
X112875737Y-58878465D01*
X112937058Y-58844982D01*
X112939122Y-58844551D01*
X113048831Y-58822730D01*
X113195968Y-58761783D01*
X113328389Y-58673303D01*
X113441003Y-58560689D01*
X113529483Y-58428268D01*
X113590430Y-58281131D01*
X113621500Y-58124930D01*
X113621500Y-57965670D01*
X113590430Y-57809469D01*
X113529483Y-57662332D01*
X113520862Y-57649430D01*
X113441004Y-57529912D01*
X113440998Y-57529905D01*
X113328394Y-57417301D01*
X113328387Y-57417295D01*
X113195969Y-57328817D01*
X113048831Y-57267870D01*
X113048823Y-57267868D01*
X112892634Y-57236800D01*
X112892630Y-57236800D01*
X112733370Y-57236800D01*
X112733365Y-57236800D01*
X112577176Y-57267868D01*
X112577168Y-57267870D01*
X112430030Y-57328817D01*
X112297612Y-57417295D01*
X112297605Y-57417301D01*
X112185001Y-57529905D01*
X112184995Y-57529912D01*
X112096517Y-57662330D01*
X112035570Y-57809468D01*
X112035568Y-57809476D01*
X112013768Y-57919072D01*
X111981383Y-57980983D01*
X111979832Y-57982562D01*
X108992179Y-60970217D01*
X108005567Y-61956829D01*
X107981459Y-61980937D01*
X107917327Y-62045068D01*
X107848003Y-62148818D01*
X107847998Y-62148827D01*
X107800245Y-62264114D01*
X107800243Y-62264122D01*
X107775900Y-62386501D01*
X107775900Y-66017094D01*
X107756215Y-66084133D01*
X107703411Y-66129888D01*
X107664063Y-66140496D01*
X107659970Y-66140899D01*
X107503776Y-66171968D01*
X107503768Y-66171970D01*
X107356630Y-66232917D01*
X107224212Y-66321395D01*
X107224205Y-66321401D01*
X107111601Y-66434005D01*
X107111595Y-66434012D01*
X107023117Y-66566430D01*
X106962170Y-66713568D01*
X106962168Y-66713576D01*
X106931949Y-66865497D01*
X106899564Y-66927408D01*
X106838848Y-66961982D01*
X106834524Y-66962923D01*
X106682974Y-66993068D01*
X106682968Y-66993070D01*
X106535830Y-67054017D01*
X106403412Y-67142495D01*
X106403405Y-67142501D01*
X106290801Y-67255105D01*
X106290795Y-67255112D01*
X106202317Y-67387530D01*
X106141370Y-67534668D01*
X106141368Y-67534676D01*
X106119568Y-67644272D01*
X106087183Y-67706183D01*
X106085632Y-67707762D01*
X104921928Y-68871468D01*
X104544167Y-69249229D01*
X104507114Y-69286282D01*
X104455927Y-69337468D01*
X104386603Y-69441218D01*
X104386598Y-69441227D01*
X104338845Y-69556514D01*
X104338843Y-69556522D01*
X104314500Y-69678901D01*
X104314500Y-76979022D01*
X104294815Y-77046061D01*
X104293603Y-77047912D01*
X104231516Y-77140833D01*
X104170570Y-77287968D01*
X104170568Y-77287976D01*
X104139500Y-77444165D01*
X104139500Y-77603434D01*
X104170568Y-77759623D01*
X104170570Y-77759631D01*
X104231517Y-77906769D01*
X104319995Y-78039187D01*
X104320001Y-78039194D01*
X104432605Y-78151798D01*
X104432612Y-78151804D01*
X104565030Y-78240282D01*
X104565031Y-78240282D01*
X104565032Y-78240283D01*
X104712169Y-78301230D01*
X104868365Y-78332299D01*
X104868369Y-78332300D01*
X104868370Y-78332300D01*
X105027631Y-78332300D01*
X105027632Y-78332299D01*
X105183831Y-78301230D01*
X105330968Y-78240283D01*
X105463389Y-78151803D01*
X105576003Y-78039189D01*
X105664483Y-77906768D01*
X105725430Y-77759631D01*
X105756500Y-77603430D01*
X105756500Y-77444170D01*
X105725430Y-77287969D01*
X105664483Y-77140832D01*
X105602397Y-77047912D01*
X105581520Y-76981234D01*
X105581500Y-76979022D01*
X105581500Y-70055065D01*
X105601185Y-69988026D01*
X105617814Y-69967389D01*
X106894419Y-68690783D01*
X106955742Y-68657299D01*
X107025434Y-68662283D01*
X107081367Y-68704155D01*
X107105784Y-68769619D01*
X107106100Y-68778465D01*
X107106100Y-83788734D01*
X107086415Y-83855773D01*
X107069781Y-83876415D01*
X105616967Y-85329229D01*
X105572847Y-85373349D01*
X105528727Y-85417468D01*
X105459403Y-85521218D01*
X105459398Y-85521227D01*
X105411645Y-85636514D01*
X105411643Y-85636522D01*
X105387300Y-85758901D01*
X105387300Y-128320209D01*
X105381364Y-128340423D01*
X105380237Y-128361461D01*
X105371717Y-128373274D01*
X105367615Y-128387248D01*
X105351694Y-128401043D01*
X105339371Y-128418133D01*
X105325817Y-128423465D01*
X105314811Y-128433003D01*
X105293957Y-128436001D01*
X105274353Y-128443715D01*
X105249551Y-128442386D01*
X105245653Y-128442947D01*
X105239110Y-128441827D01*
X105209820Y-128436001D01*
X105130725Y-128420268D01*
X105068815Y-128387884D01*
X105067236Y-128386332D01*
X103771819Y-127090915D01*
X103738334Y-127029592D01*
X103735500Y-127003234D01*
X103735500Y-70107577D01*
X103755185Y-70040538D01*
X103756397Y-70038687D01*
X103790247Y-69988026D01*
X103818483Y-69945768D01*
X103879430Y-69798631D01*
X103910500Y-69642430D01*
X103910500Y-69483170D01*
X103879430Y-69326969D01*
X103818483Y-69179832D01*
X103787533Y-69133512D01*
X103730004Y-69047412D01*
X103729998Y-69047405D01*
X103617394Y-68934801D01*
X103617387Y-68934795D01*
X103484969Y-68846317D01*
X103337831Y-68785370D01*
X103337823Y-68785368D01*
X103181634Y-68754300D01*
X103181630Y-68754300D01*
X103157300Y-68754300D01*
X103090261Y-68734615D01*
X103044506Y-68681811D01*
X103033300Y-68630300D01*
X103033300Y-68424205D01*
X103033299Y-68424201D01*
X103031830Y-68416816D01*
X103008955Y-68301815D01*
X102961200Y-68186525D01*
X102961199Y-68186524D01*
X102961196Y-68186518D01*
X102891872Y-68082768D01*
X102871741Y-68062637D01*
X102803633Y-67994529D01*
X102331568Y-67522464D01*
X102298083Y-67461141D01*
X102297632Y-67458974D01*
X102277422Y-67357372D01*
X102275830Y-67349369D01*
X102214883Y-67202232D01*
X102214880Y-67202228D01*
X102126404Y-67069812D01*
X102126398Y-67069805D01*
X102013794Y-66957201D01*
X102013787Y-66957195D01*
X101881369Y-66868717D01*
X101734231Y-66807770D01*
X101734223Y-66807768D01*
X101578034Y-66776700D01*
X101578030Y-66776700D01*
X101418770Y-66776700D01*
X101418765Y-66776700D01*
X101262576Y-66807768D01*
X101262568Y-66807770D01*
X101115430Y-66868717D01*
X100983012Y-66957195D01*
X100983005Y-66957201D01*
X100870401Y-67069805D01*
X100870395Y-67069812D01*
X100781918Y-67202228D01*
X100762761Y-67248478D01*
X100718919Y-67302881D01*
X100652625Y-67324945D01*
X100584926Y-67307665D01*
X100537316Y-67256528D01*
X100524200Y-67201024D01*
X100524200Y-59480066D01*
X100543885Y-59413027D01*
X100560519Y-59392385D01*
X100817662Y-59135242D01*
X101087337Y-58865566D01*
X101148658Y-58832083D01*
X101150825Y-58831632D01*
X101208598Y-58820139D01*
X101260431Y-58809830D01*
X101407568Y-58748883D01*
X101539989Y-58660403D01*
X101652603Y-58547789D01*
X101741083Y-58415368D01*
X101802030Y-58268231D01*
X101833100Y-58112030D01*
X101833100Y-57952770D01*
X101802030Y-57796569D01*
X101741083Y-57649432D01*
X101661222Y-57529911D01*
X101652604Y-57517012D01*
X101652598Y-57517005D01*
X101539994Y-57404401D01*
X101539987Y-57404395D01*
X101407569Y-57315917D01*
X101260431Y-57254970D01*
X101260423Y-57254968D01*
X101104234Y-57223900D01*
X101104230Y-57223900D01*
X100944970Y-57223900D01*
X100944965Y-57223900D01*
X100788776Y-57254968D01*
X100788768Y-57254970D01*
X100641630Y-57315917D01*
X100509212Y-57404395D01*
X100509205Y-57404401D01*
X100396601Y-57517005D01*
X100396595Y-57517012D01*
X100308117Y-57649430D01*
X100247170Y-57796568D01*
X100247168Y-57796574D01*
X100225368Y-57906172D01*
X100192983Y-57968082D01*
X100191432Y-57969661D01*
X99600409Y-58560687D01*
X99486867Y-58674229D01*
X99442747Y-58718349D01*
X99398627Y-58762468D01*
X99329303Y-58866218D01*
X99329298Y-58866227D01*
X99281545Y-58981514D01*
X99281543Y-58981522D01*
X99257200Y-59103901D01*
X99257200Y-73521288D01*
X99237515Y-73588327D01*
X99184711Y-73634082D01*
X99115553Y-73644026D01*
X99109009Y-73642905D01*
X99007934Y-73622800D01*
X99007930Y-73622800D01*
X98848670Y-73622800D01*
X98848665Y-73622800D01*
X98692476Y-73653868D01*
X98692468Y-73653870D01*
X98540866Y-73716666D01*
X98471396Y-73724135D01*
X98424523Y-73705208D01*
X98405384Y-73692420D01*
X98388468Y-73681117D01*
X98325530Y-73655047D01*
X98241331Y-73620170D01*
X98241323Y-73620168D01*
X98085134Y-73589100D01*
X98085130Y-73589100D01*
X97925870Y-73589100D01*
X97925865Y-73589100D01*
X97769676Y-73620168D01*
X97769668Y-73620170D01*
X97622530Y-73681117D01*
X97490112Y-73769595D01*
X97490105Y-73769601D01*
X97377501Y-73882205D01*
X97377495Y-73882212D01*
X97289017Y-74014630D01*
X97228070Y-74161768D01*
X97228068Y-74161776D01*
X97197000Y-74317965D01*
X97197000Y-74477234D01*
X97228068Y-74633423D01*
X97228070Y-74633431D01*
X97289015Y-74780566D01*
X97342247Y-74860233D01*
X97346472Y-74866557D01*
X97351103Y-74873487D01*
X97371980Y-74940164D01*
X97372000Y-74942377D01*
X97372000Y-78133033D01*
X97352315Y-78200072D01*
X97335681Y-78220714D01*
X96830662Y-78725732D01*
X96769339Y-78759217D01*
X96767172Y-78759668D01*
X96657576Y-78781468D01*
X96657568Y-78781470D01*
X96510430Y-78842417D01*
X96378012Y-78930895D01*
X96378005Y-78930901D01*
X96265401Y-79043505D01*
X96265395Y-79043512D01*
X96176917Y-79175930D01*
X96115970Y-79323068D01*
X96115968Y-79323076D01*
X96084900Y-79479265D01*
X96084900Y-79638534D01*
X96115968Y-79794723D01*
X96115970Y-79794731D01*
X96176917Y-79941869D01*
X96265395Y-80074287D01*
X96265401Y-80074294D01*
X96378005Y-80186898D01*
X96378012Y-80186904D01*
X96510430Y-80275382D01*
X96510431Y-80275382D01*
X96510432Y-80275383D01*
X96657569Y-80336330D01*
X96788166Y-80362307D01*
X96813765Y-80367399D01*
X96813769Y-80367400D01*
X96813770Y-80367400D01*
X96973031Y-80367400D01*
X96973032Y-80367399D01*
X97129231Y-80336330D01*
X97276368Y-80275383D01*
X97408789Y-80186903D01*
X97521403Y-80074289D01*
X97609883Y-79941868D01*
X97670830Y-79794731D01*
X97692631Y-79685122D01*
X97725015Y-79623215D01*
X97726509Y-79621693D01*
X98083120Y-79265083D01*
X98144442Y-79231599D01*
X98214134Y-79236583D01*
X98270067Y-79278455D01*
X98294484Y-79343919D01*
X98294800Y-79352765D01*
X98294800Y-81020034D01*
X98275115Y-81087073D01*
X98258481Y-81107715D01*
X95039467Y-84326729D01*
X94995347Y-84370849D01*
X94951227Y-84414968D01*
X94881903Y-84518718D01*
X94881898Y-84518727D01*
X94834145Y-84634014D01*
X94834143Y-84634022D01*
X94809800Y-84756401D01*
X94809800Y-132431922D01*
X94806229Y-132446083D01*
X94807119Y-132457567D01*
X94797694Y-132479941D01*
X94794980Y-132490708D01*
X94792181Y-132495905D01*
X94726817Y-132593732D01*
X94684496Y-132695902D01*
X94681516Y-132701437D01*
X94661194Y-132721998D01*
X94643055Y-132744508D01*
X94636935Y-132746544D01*
X94632402Y-132751132D01*
X94604190Y-132757442D01*
X94576761Y-132766572D01*
X94566239Y-132765932D01*
X94564217Y-132766385D01*
X94562333Y-132765695D01*
X94552938Y-132765124D01*
X94466921Y-132751500D01*
X94466916Y-132751500D01*
X94253084Y-132751500D01*
X94226996Y-132755632D01*
X94041880Y-132784951D01*
X93979117Y-132805344D01*
X93909276Y-132807339D01*
X93849443Y-132771258D01*
X93818616Y-132708557D01*
X93816800Y-132687413D01*
X93816800Y-61190065D01*
X93836485Y-61123026D01*
X93853114Y-61102389D01*
X95193137Y-59762365D01*
X95254458Y-59728882D01*
X95256522Y-59728451D01*
X95366231Y-59706630D01*
X95513368Y-59645683D01*
X95645789Y-59557203D01*
X95758403Y-59444589D01*
X95846883Y-59312168D01*
X95907830Y-59165031D01*
X95938900Y-59008830D01*
X95938900Y-58849570D01*
X95907830Y-58693369D01*
X95846883Y-58546232D01*
X95822052Y-58509070D01*
X95758404Y-58413812D01*
X95758398Y-58413805D01*
X95645794Y-58301201D01*
X95645787Y-58301195D01*
X95513369Y-58212717D01*
X95366231Y-58151770D01*
X95366223Y-58151768D01*
X95210034Y-58120700D01*
X95210030Y-58120700D01*
X95050770Y-58120700D01*
X95050765Y-58120700D01*
X94894576Y-58151768D01*
X94894568Y-58151770D01*
X94747430Y-58212717D01*
X94615012Y-58301195D01*
X94615005Y-58301201D01*
X94502401Y-58413805D01*
X94502395Y-58413812D01*
X94413917Y-58546230D01*
X94352970Y-58693368D01*
X94352968Y-58693376D01*
X94331168Y-58802972D01*
X94298783Y-58864883D01*
X94297232Y-58866462D01*
X93128265Y-60035431D01*
X92779467Y-60384229D01*
X92754718Y-60408978D01*
X92691227Y-60472468D01*
X92621903Y-60576218D01*
X92621898Y-60576227D01*
X92574145Y-60691514D01*
X92574143Y-60691522D01*
X92549800Y-60813901D01*
X92549800Y-75641068D01*
X92530115Y-75708107D01*
X92477311Y-75753862D01*
X92408153Y-75763806D01*
X92387482Y-75758999D01*
X92304419Y-75732010D01*
X92102317Y-75700000D01*
X91897683Y-75700000D01*
X91695582Y-75732009D01*
X91500968Y-75795244D01*
X91318644Y-75888143D01*
X91274077Y-75920523D01*
X91274077Y-75920524D01*
X91953553Y-76600000D01*
X91947339Y-76600000D01*
X91845606Y-76627259D01*
X91754394Y-76679920D01*
X91679920Y-76754394D01*
X91627259Y-76845606D01*
X91600000Y-76947339D01*
X91600000Y-76953553D01*
X90920524Y-76274077D01*
X90920523Y-76274077D01*
X90888143Y-76318644D01*
X90795244Y-76500968D01*
X90732009Y-76695582D01*
X90700000Y-76897682D01*
X90700000Y-77102317D01*
X90732009Y-77304417D01*
X90795244Y-77499031D01*
X90888141Y-77681350D01*
X90888147Y-77681359D01*
X90920523Y-77725921D01*
X90920524Y-77725922D01*
X91600000Y-77046446D01*
X91600000Y-77052661D01*
X91627259Y-77154394D01*
X91679920Y-77245606D01*
X91754394Y-77320080D01*
X91845606Y-77372741D01*
X91947339Y-77400000D01*
X91953552Y-77400000D01*
X91274076Y-78079474D01*
X91318650Y-78111859D01*
X91500968Y-78204755D01*
X91695582Y-78267990D01*
X91897683Y-78300000D01*
X92102317Y-78300000D01*
X92304415Y-78267990D01*
X92387480Y-78241000D01*
X92457322Y-78239004D01*
X92517155Y-78275084D01*
X92547984Y-78337785D01*
X92549800Y-78358931D01*
X92549800Y-130842111D01*
X92530115Y-130909150D01*
X92477311Y-130954905D01*
X92408153Y-130964849D01*
X92356910Y-130945214D01*
X92266966Y-130885115D01*
X92119831Y-130824170D01*
X92119823Y-130824168D01*
X91963634Y-130793100D01*
X91963630Y-130793100D01*
X91804370Y-130793100D01*
X91804365Y-130793100D01*
X91648176Y-130824168D01*
X91648168Y-130824170D01*
X91501030Y-130885117D01*
X91368612Y-130973595D01*
X91368605Y-130973601D01*
X91256001Y-131086205D01*
X91255995Y-131086212D01*
X91167517Y-131218630D01*
X91106570Y-131365768D01*
X91106568Y-131365776D01*
X91075500Y-131521965D01*
X91075500Y-131681234D01*
X91106568Y-131837423D01*
X91106570Y-131837431D01*
X91167516Y-131984566D01*
X91170386Y-131989935D01*
X91168494Y-131990946D01*
X91186480Y-132048365D01*
X91186500Y-132050592D01*
X91186500Y-132543109D01*
X91166815Y-132610148D01*
X91114011Y-132655903D01*
X91044853Y-132665847D01*
X90981297Y-132636822D01*
X90954056Y-132599050D01*
X90952456Y-132599906D01*
X90949582Y-132594530D01*
X90861104Y-132462112D01*
X90861098Y-132462105D01*
X90748494Y-132349501D01*
X90748487Y-132349495D01*
X90616069Y-132261017D01*
X90468931Y-132200070D01*
X90468923Y-132200068D01*
X90312734Y-132169000D01*
X90312730Y-132169000D01*
X90153470Y-132169000D01*
X90153465Y-132169000D01*
X89997276Y-132200068D01*
X89997268Y-132200070D01*
X89850130Y-132261017D01*
X89717712Y-132349495D01*
X89717705Y-132349501D01*
X89605101Y-132462105D01*
X89605095Y-132462112D01*
X89516617Y-132594530D01*
X89455670Y-132741668D01*
X89455668Y-132741676D01*
X89424600Y-132897865D01*
X89424600Y-133057134D01*
X89455668Y-133213323D01*
X89455670Y-133213331D01*
X89518948Y-133366096D01*
X89517505Y-133366693D01*
X89530000Y-133416566D01*
X89530000Y-133676988D01*
X89472993Y-133644075D01*
X89345826Y-133610000D01*
X89214174Y-133610000D01*
X89087007Y-133644075D01*
X89030000Y-133676988D01*
X89030000Y-132782768D01*
X89029999Y-132782768D01*
X88963874Y-132793241D01*
X88899117Y-132814282D01*
X88829276Y-132816277D01*
X88769443Y-132780196D01*
X88738616Y-132717494D01*
X88736800Y-132696351D01*
X88736800Y-89227067D01*
X88756485Y-89160028D01*
X88799428Y-89120406D01*
X88799203Y-89120068D01*
X88801351Y-89118632D01*
X88802361Y-89117701D01*
X88804254Y-89116688D01*
X88804268Y-89116683D01*
X88936689Y-89028203D01*
X89049303Y-88915589D01*
X89137783Y-88783168D01*
X89198730Y-88636031D01*
X89229800Y-88479830D01*
X89229800Y-88320570D01*
X89198730Y-88164369D01*
X89137783Y-88017232D01*
X89049303Y-87884811D01*
X89049298Y-87884805D01*
X88936694Y-87772201D01*
X88936687Y-87772195D01*
X88804269Y-87683717D01*
X88657131Y-87622770D01*
X88657123Y-87622768D01*
X88500934Y-87591700D01*
X88500930Y-87591700D01*
X88341670Y-87591700D01*
X88341665Y-87591700D01*
X88185476Y-87622768D01*
X88185468Y-87622770D01*
X88038330Y-87683717D01*
X87905912Y-87772195D01*
X87905905Y-87772201D01*
X87793301Y-87884805D01*
X87793295Y-87884812D01*
X87704817Y-88017230D01*
X87643870Y-88164368D01*
X87643868Y-88164376D01*
X87620034Y-88284199D01*
X87601519Y-88328899D01*
X87541903Y-88418119D01*
X87541898Y-88418127D01*
X87494145Y-88533414D01*
X87494143Y-88533422D01*
X87469800Y-88655801D01*
X87469800Y-132754820D01*
X87450115Y-132821859D01*
X87397311Y-132867614D01*
X87328153Y-132877558D01*
X87289507Y-132865306D01*
X87261484Y-132851028D01*
X87261480Y-132851026D01*
X87058117Y-132784951D01*
X86940896Y-132766385D01*
X86846916Y-132751500D01*
X86633084Y-132751500D01*
X86562684Y-132762650D01*
X86421882Y-132784951D01*
X86218519Y-132851026D01*
X86218516Y-132851027D01*
X86027990Y-132948106D01*
X85854993Y-133073796D01*
X85703796Y-133224993D01*
X85578105Y-133397991D01*
X85575727Y-133401873D01*
X85523914Y-133448748D01*
X85454984Y-133460169D01*
X85390822Y-133432512D01*
X85364273Y-133401873D01*
X85361894Y-133397991D01*
X85316443Y-133335433D01*
X85236206Y-133224996D01*
X85085004Y-133073794D01*
X84912009Y-132948106D01*
X84836500Y-132909632D01*
X84721483Y-132851027D01*
X84721480Y-132851026D01*
X84518117Y-132784951D01*
X84400896Y-132766385D01*
X84306916Y-132751500D01*
X84093084Y-132751500D01*
X84022684Y-132762650D01*
X83881882Y-132784951D01*
X83678519Y-132851026D01*
X83678516Y-132851027D01*
X83487990Y-132948106D01*
X83314993Y-133073796D01*
X83163796Y-133224993D01*
X83038105Y-133397991D01*
X83035727Y-133401873D01*
X82983914Y-133448748D01*
X82914984Y-133460169D01*
X82850822Y-133432512D01*
X82824273Y-133401873D01*
X82821894Y-133397991D01*
X82776443Y-133335433D01*
X82696206Y-133224996D01*
X82545004Y-133073794D01*
X82372009Y-132948106D01*
X82296500Y-132909632D01*
X82181483Y-132851027D01*
X82181480Y-132851026D01*
X81978117Y-132784951D01*
X81860896Y-132766385D01*
X81766916Y-132751500D01*
X81553084Y-132751500D01*
X81482684Y-132762650D01*
X81341882Y-132784951D01*
X81138519Y-132851026D01*
X81138516Y-132851027D01*
X80947990Y-132948106D01*
X80774997Y-133073793D01*
X80669818Y-133178972D01*
X80608495Y-133212456D01*
X80538803Y-133207472D01*
X80482870Y-133165600D01*
X80465958Y-133134629D01*
X80420889Y-133013796D01*
X80333261Y-132896739D01*
X80216204Y-132809111D01*
X80211453Y-132807339D01*
X80079203Y-132758011D01*
X80018654Y-132751500D01*
X80018638Y-132751500D01*
X78221362Y-132751500D01*
X78221345Y-132751500D01*
X78160797Y-132758011D01*
X78160795Y-132758011D01*
X78023795Y-132809111D01*
X77906739Y-132896739D01*
X77819111Y-133013795D01*
X77768011Y-133150795D01*
X77768011Y-133150797D01*
X77761500Y-133211345D01*
X77761500Y-134626563D01*
X77741815Y-134693602D01*
X77689011Y-134739357D01*
X77619853Y-134749301D01*
X77556297Y-134720276D01*
X77549819Y-134714244D01*
X76644819Y-133809244D01*
X76611334Y-133747921D01*
X76608500Y-133721563D01*
X76608500Y-95510516D01*
X76628185Y-95443477D01*
X76644814Y-95422840D01*
X89215070Y-82852583D01*
X89215077Y-82852578D01*
X89222137Y-82845518D01*
X89222139Y-82845517D01*
X89345517Y-82722139D01*
X89448074Y-82580981D01*
X89527288Y-82425516D01*
X89581205Y-82259574D01*
X89594526Y-82175469D01*
X89608500Y-82087242D01*
X89608500Y-81912759D01*
X89608500Y-78266324D01*
X89628185Y-78199285D01*
X89658195Y-78167053D01*
X89663261Y-78163261D01*
X89750889Y-78046204D01*
X89801989Y-77909201D01*
X89805591Y-77875692D01*
X89808499Y-77848654D01*
X89808500Y-77848637D01*
X89808500Y-76151362D01*
X89808499Y-76151345D01*
X89805157Y-76120270D01*
X89801989Y-76090799D01*
X89785268Y-76045970D01*
X89757683Y-75972012D01*
X89750889Y-75953796D01*
X89663261Y-75836739D01*
X89658185Y-75832939D01*
X89616316Y-75777003D01*
X89608500Y-75733675D01*
X89608500Y-72662216D01*
X89628185Y-72595177D01*
X89644814Y-72574539D01*
X90715070Y-71504283D01*
X90715077Y-71504278D01*
X90722137Y-71497218D01*
X90722139Y-71497217D01*
X90845517Y-71373839D01*
X90948074Y-71232681D01*
X91027288Y-71077216D01*
X91081205Y-70911274D01*
X91085335Y-70885200D01*
X91088835Y-70863102D01*
X91118764Y-70799967D01*
X91178076Y-70763036D01*
X91211308Y-70758500D01*
X91798638Y-70758500D01*
X91798654Y-70758499D01*
X91825692Y-70755591D01*
X91859201Y-70751989D01*
X91996204Y-70700889D01*
X92113261Y-70613261D01*
X92200889Y-70496204D01*
X92251989Y-70359201D01*
X92258326Y-70300260D01*
X92258499Y-70298654D01*
X92258500Y-70298637D01*
X92258500Y-66701362D01*
X92258499Y-66701345D01*
X92255157Y-66670270D01*
X92251989Y-66640799D01*
X92200889Y-66503796D01*
X92113261Y-66386739D01*
X91996204Y-66299111D01*
X91859203Y-66248011D01*
X91798654Y-66241500D01*
X91798638Y-66241500D01*
X88201362Y-66241500D01*
X88201345Y-66241500D01*
X88140797Y-66248011D01*
X88140795Y-66248011D01*
X88003795Y-66299111D01*
X87886739Y-66386739D01*
X87799111Y-66503795D01*
X87790181Y-66527738D01*
X87748309Y-66583671D01*
X87682845Y-66608087D01*
X87614572Y-66593235D01*
X87565167Y-66543829D01*
X87550000Y-66484403D01*
X87550000Y-65750000D01*
X85800000Y-65750000D01*
X85800000Y-65250000D01*
X87550000Y-65250000D01*
X87550000Y-64491278D01*
X87569685Y-64424239D01*
X87622489Y-64378484D01*
X87691647Y-64368540D01*
X87755203Y-64397565D01*
X87790182Y-64447945D01*
X87806645Y-64492086D01*
X87806649Y-64492093D01*
X87892809Y-64607187D01*
X87892812Y-64607190D01*
X88007906Y-64693350D01*
X88007913Y-64693354D01*
X88142620Y-64743596D01*
X88142627Y-64743598D01*
X88202155Y-64749999D01*
X88202172Y-64750000D01*
X89750000Y-64750000D01*
X89750000Y-63000000D01*
X90250000Y-63000000D01*
X90250000Y-64750000D01*
X91797828Y-64750000D01*
X91797844Y-64749999D01*
X91857372Y-64743598D01*
X91857379Y-64743596D01*
X91992086Y-64693354D01*
X91992093Y-64693350D01*
X92107187Y-64607190D01*
X92107190Y-64607187D01*
X92193350Y-64492093D01*
X92193354Y-64492086D01*
X92243596Y-64357379D01*
X92243598Y-64357372D01*
X92249999Y-64297844D01*
X92250000Y-64297827D01*
X92250000Y-62750000D01*
X91433012Y-62750000D01*
X91465925Y-62692993D01*
X91500000Y-62565826D01*
X91500000Y-62434174D01*
X91465925Y-62307007D01*
X91433012Y-62250000D01*
X92250000Y-62250000D01*
X92250000Y-60702172D01*
X92249999Y-60702155D01*
X92243598Y-60642627D01*
X92243596Y-60642620D01*
X92193354Y-60507913D01*
X92193350Y-60507906D01*
X92107190Y-60392812D01*
X92107187Y-60392809D01*
X91992093Y-60306649D01*
X91992086Y-60306645D01*
X91857379Y-60256403D01*
X91857372Y-60256401D01*
X91797844Y-60250000D01*
X90250000Y-60250000D01*
X90250000Y-62000000D01*
X89750000Y-62000000D01*
X89750000Y-60250000D01*
X88202155Y-60250000D01*
X88142627Y-60256401D01*
X88142620Y-60256403D01*
X88007913Y-60306645D01*
X88007906Y-60306649D01*
X87892812Y-60392809D01*
X87892809Y-60392812D01*
X87806649Y-60507906D01*
X87806645Y-60507913D01*
X87756403Y-60642620D01*
X87756401Y-60642627D01*
X87750000Y-60702155D01*
X87750000Y-62250000D01*
X88566988Y-62250000D01*
X88534075Y-62307007D01*
X88500000Y-62434174D01*
X88500000Y-62565826D01*
X88534075Y-62692993D01*
X88566988Y-62750000D01*
X87750000Y-62750000D01*
X87750000Y-63508721D01*
X87730315Y-63575760D01*
X87677511Y-63621515D01*
X87608353Y-63631459D01*
X87544797Y-63602434D01*
X87509818Y-63552055D01*
X87493353Y-63507911D01*
X87493350Y-63507906D01*
X87407190Y-63392812D01*
X87407187Y-63392809D01*
X87292093Y-63306649D01*
X87292086Y-63306645D01*
X87157379Y-63256403D01*
X87157372Y-63256401D01*
X87097844Y-63250000D01*
X85550000Y-63250000D01*
X85550000Y-64066988D01*
X85492993Y-64034075D01*
X85365826Y-64000000D01*
X85234174Y-64000000D01*
X85107007Y-64034075D01*
X85050000Y-64066988D01*
X85050000Y-63250000D01*
X83502155Y-63250000D01*
X83442627Y-63256401D01*
X83442620Y-63256403D01*
X83307913Y-63306645D01*
X83307906Y-63306649D01*
X83192812Y-63392809D01*
X83192809Y-63392812D01*
X83106649Y-63507906D01*
X83106645Y-63507913D01*
X83056403Y-63642620D01*
X83056401Y-63642627D01*
X83050000Y-63702155D01*
X83050000Y-65250000D01*
X84800000Y-65250000D01*
X84800000Y-65750000D01*
X83050000Y-65750000D01*
X83050000Y-67297844D01*
X83056401Y-67357372D01*
X83056403Y-67357379D01*
X83106645Y-67492086D01*
X83106649Y-67492093D01*
X83192809Y-67607187D01*
X83192812Y-67607190D01*
X83307906Y-67693350D01*
X83307913Y-67693354D01*
X83442620Y-67743596D01*
X83442627Y-67743598D01*
X83502155Y-67749999D01*
X83502172Y-67750000D01*
X85050000Y-67750000D01*
X85050000Y-66933012D01*
X85107007Y-66965925D01*
X85234174Y-67000000D01*
X85365826Y-67000000D01*
X85492993Y-66965925D01*
X85550000Y-66933012D01*
X85550000Y-67750000D01*
X87097828Y-67750000D01*
X87097844Y-67749999D01*
X87157372Y-67743598D01*
X87157379Y-67743596D01*
X87292086Y-67693354D01*
X87292093Y-67693350D01*
X87407187Y-67607190D01*
X87407190Y-67607187D01*
X87493350Y-67492093D01*
X87493355Y-67492084D01*
X87501318Y-67470735D01*
X87543188Y-67414801D01*
X87608652Y-67390383D01*
X87676925Y-67405234D01*
X87726331Y-67454639D01*
X87741500Y-67514067D01*
X87741500Y-70298654D01*
X87748011Y-70359202D01*
X87748011Y-70359204D01*
X87799111Y-70496204D01*
X87886739Y-70613261D01*
X88003796Y-70700889D01*
X88099319Y-70736517D01*
X88155250Y-70778388D01*
X88179667Y-70843852D01*
X88164815Y-70912125D01*
X88143664Y-70940379D01*
X87654481Y-71429562D01*
X87654477Y-71429567D01*
X87551928Y-71570715D01*
X87472708Y-71726191D01*
X87423227Y-71878485D01*
X87422680Y-71880169D01*
X87418794Y-71892128D01*
X87391500Y-72064459D01*
X87391500Y-75733675D01*
X87371815Y-75800714D01*
X87341815Y-75832939D01*
X87336740Y-75836738D01*
X87249111Y-75953795D01*
X87198011Y-76090795D01*
X87198011Y-76090797D01*
X87191500Y-76151345D01*
X87191500Y-77848654D01*
X87198011Y-77909202D01*
X87198011Y-77909204D01*
X87246496Y-78039194D01*
X87249111Y-78046204D01*
X87336739Y-78163261D01*
X87341805Y-78167053D01*
X87383679Y-78222984D01*
X87391500Y-78266324D01*
X87391500Y-81489482D01*
X87371815Y-81556521D01*
X87355181Y-81577163D01*
X74654481Y-94277862D01*
X74654477Y-94277867D01*
X74551928Y-94419015D01*
X74472708Y-94574491D01*
X74432677Y-94697697D01*
X74432675Y-94697702D01*
X74430175Y-94705400D01*
X74418795Y-94740426D01*
X74391500Y-94912759D01*
X70255500Y-94912759D01*
X70255500Y-89733916D01*
X71000000Y-89733916D01*
X77500000Y-89733916D01*
X77500000Y-83233916D01*
X71000000Y-83233916D01*
X71000000Y-89733916D01*
X70255500Y-89733916D01*
X70255500Y-61124000D01*
X70275185Y-61056961D01*
X70327989Y-61011206D01*
X70379500Y-61000000D01*
X76500000Y-61000000D01*
X76500000Y-54809500D01*
X76519685Y-54742461D01*
X76572489Y-54696706D01*
X76624000Y-54685500D01*
X163876000Y-54685500D01*
X163943039Y-54705185D01*
G37*
%TD.AperFunction*%
%TD*%
M02*
