%TF.GenerationSoftware,KiCad,Pcbnew,9.0.7*%
%TF.CreationDate,2026-03-10T19:04:44+01:00*%
%TF.ProjectId,Pi1551-III Module-rotated,50693135-3531-42d4-9949-49204d6f6475,2*%
%TF.SameCoordinates,Original*%
%TF.FileFunction,Copper,L1,Top*%
%TF.FilePolarity,Positive*%
%FSLAX46Y46*%
G04 Gerber Fmt 4.6, Leading zero omitted, Abs format (unit mm)*
G04 Created by KiCad (PCBNEW 9.0.7) date 2026-03-10 19:04:44*
%MOMM*%
%LPD*%
G01*
G04 APERTURE LIST*
G04 Aperture macros list*
%AMRoundRect*
0 Rectangle with rounded corners*
0 $1 Rounding radius*
0 $2 $3 $4 $5 $6 $7 $8 $9 X,Y pos of 4 corners*
0 Add a 4 corners polygon primitive as box body*
4,1,4,$2,$3,$4,$5,$6,$7,$8,$9,$2,$3,0*
0 Add four circle primitives for the rounded corners*
1,1,$1+$1,$2,$3*
1,1,$1+$1,$4,$5*
1,1,$1+$1,$6,$7*
1,1,$1+$1,$8,$9*
0 Add four rect primitives between the rounded corners*
20,1,$1+$1,$2,$3,$4,$5,0*
20,1,$1+$1,$4,$5,$6,$7,0*
20,1,$1+$1,$6,$7,$8,$9,0*
20,1,$1+$1,$8,$9,$2,$3,0*%
%AMFreePoly0*
4,1,23,0.550000,-0.750000,0.000000,-0.750000,0.000000,-0.745722,-0.065263,-0.745722,-0.191342,-0.711940,-0.304381,-0.646677,-0.396677,-0.554381,-0.461940,-0.441342,-0.495722,-0.315263,-0.495722,-0.250000,-0.500000,-0.250000,-0.500000,0.250000,-0.495722,0.250000,-0.495722,0.315263,-0.461940,0.441342,-0.396677,0.554381,-0.304381,0.646677,-0.191342,0.711940,-0.065263,0.745722,0.000000,0.745722,
0.000000,0.750000,0.550000,0.750000,0.550000,-0.750000,0.550000,-0.750000,$1*%
%AMFreePoly1*
4,1,23,0.000000,0.745722,0.065263,0.745722,0.191342,0.711940,0.304381,0.646677,0.396677,0.554381,0.461940,0.441342,0.495722,0.315263,0.495722,0.250000,0.500000,0.250000,0.500000,-0.250000,0.495722,-0.250000,0.495722,-0.315263,0.461940,-0.441342,0.396677,-0.554381,0.304381,-0.646677,0.191342,-0.711940,0.065263,-0.745722,0.000000,-0.745722,0.000000,-0.750000,-0.550000,-0.750000,
-0.550000,0.750000,0.000000,0.750000,0.000000,0.745722,0.000000,0.745722,$1*%
G04 Aperture macros list end*
%TA.AperFunction,EtchedComponent*%
%ADD10C,0.000000*%
%TD*%
%TA.AperFunction,SMDPad,CuDef*%
%ADD11RoundRect,0.250000X-0.450000X0.350000X-0.450000X-0.350000X0.450000X-0.350000X0.450000X0.350000X0*%
%TD*%
%TA.AperFunction,WasherPad*%
%ADD12C,3.500000*%
%TD*%
%TA.AperFunction,ComponentPad*%
%ADD13R,1.600000X1.600000*%
%TD*%
%TA.AperFunction,ComponentPad*%
%ADD14C,1.600000*%
%TD*%
%TA.AperFunction,ComponentPad*%
%ADD15R,3.500000X3.500000*%
%TD*%
%TA.AperFunction,ComponentPad*%
%ADD16R,1.700000X1.700000*%
%TD*%
%TA.AperFunction,ComponentPad*%
%ADD17O,1.700000X1.700000*%
%TD*%
%TA.AperFunction,ComponentPad*%
%ADD18R,3.000000X2.000000*%
%TD*%
%TA.AperFunction,ComponentPad*%
%ADD19R,2.000000X2.000000*%
%TD*%
%TA.AperFunction,ComponentPad*%
%ADD20C,2.000000*%
%TD*%
%TA.AperFunction,ComponentPad*%
%ADD21O,3.000000X2.000000*%
%TD*%
%TA.AperFunction,SMDPad,CuDef*%
%ADD22RoundRect,0.250000X-0.350000X-0.450000X0.350000X-0.450000X0.350000X0.450000X-0.350000X0.450000X0*%
%TD*%
%TA.AperFunction,SMDPad,CuDef*%
%ADD23RoundRect,0.225000X0.375000X-0.225000X0.375000X0.225000X-0.375000X0.225000X-0.375000X-0.225000X0*%
%TD*%
%TA.AperFunction,ComponentPad*%
%ADD24RoundRect,0.250000X0.600000X-0.600000X0.600000X0.600000X-0.600000X0.600000X-0.600000X-0.600000X0*%
%TD*%
%TA.AperFunction,ComponentPad*%
%ADD25C,1.700000*%
%TD*%
%TA.AperFunction,SMDPad,CuDef*%
%ADD26RoundRect,0.250000X0.350000X0.450000X-0.350000X0.450000X-0.350000X-0.450000X0.350000X-0.450000X0*%
%TD*%
%TA.AperFunction,ComponentPad*%
%ADD27C,1.200000*%
%TD*%
%TA.AperFunction,ComponentPad*%
%ADD28RoundRect,0.600000X0.000010X-0.700000X0.000010X0.700000X-0.000010X0.700000X-0.000010X-0.700000X0*%
%TD*%
%TA.AperFunction,ComponentPad*%
%ADD29RoundRect,0.600000X-0.700000X-0.000010X0.700000X-0.000010X0.700000X0.000010X-0.700000X0.000010X0*%
%TD*%
%TA.AperFunction,SMDPad,CuDef*%
%ADD30FreePoly0,270.000000*%
%TD*%
%TA.AperFunction,SMDPad,CuDef*%
%ADD31R,1.500000X1.000000*%
%TD*%
%TA.AperFunction,SMDPad,CuDef*%
%ADD32FreePoly1,270.000000*%
%TD*%
%TA.AperFunction,SMDPad,CuDef*%
%ADD33FreePoly0,90.000000*%
%TD*%
%TA.AperFunction,SMDPad,CuDef*%
%ADD34FreePoly1,90.000000*%
%TD*%
%TA.AperFunction,SMDPad,CuDef*%
%ADD35RoundRect,0.250000X0.450000X-0.350000X0.450000X0.350000X-0.450000X0.350000X-0.450000X-0.350000X0*%
%TD*%
%TA.AperFunction,SMDPad,CuDef*%
%ADD36RoundRect,0.200000X-0.750000X-0.200000X0.750000X-0.200000X0.750000X0.200000X-0.750000X0.200000X0*%
%TD*%
%TA.AperFunction,SMDPad,CuDef*%
%ADD37RoundRect,0.200000X0.750000X0.200000X-0.750000X0.200000X-0.750000X-0.200000X0.750000X-0.200000X0*%
%TD*%
%TA.AperFunction,ViaPad*%
%ADD38C,0.600000*%
%TD*%
%TA.AperFunction,Conductor*%
%ADD39C,0.250000*%
%TD*%
%TA.AperFunction,Conductor*%
%ADD40C,0.400000*%
%TD*%
%TA.AperFunction,Conductor*%
%ADD41C,1.200000*%
%TD*%
G04 APERTURE END LIST*
D10*
%TA.AperFunction,EtchedComponent*%
%TO.C,JP1*%
G36*
X110800000Y-71207000D02*
G01*
X110200000Y-71207000D01*
X110200000Y-70707000D01*
X110800000Y-70707000D01*
X110800000Y-71207000D01*
G37*
%TD.AperFunction*%
%TA.AperFunction,EtchedComponent*%
%TO.C,JP2*%
G36*
X126300000Y-72514000D02*
G01*
X125700000Y-72514000D01*
X125700000Y-72014000D01*
X126300000Y-72014000D01*
X126300000Y-72514000D01*
G37*
%TD.AperFunction*%
%TD*%
D11*
%TO.P,R24,1*%
%TO.N,+3.3V*%
X99187000Y-120428000D03*
%TO.P,R24,2*%
%TO.N,/DEV*%
X99187000Y-122428000D03*
%TD*%
%TO.P,R23,1*%
%TO.N,+3.3V*%
X109601000Y-120428000D03*
%TO.P,R23,2*%
%TO.N,/ACK*%
X109601000Y-122428000D03*
%TD*%
%TO.P,R22,1*%
%TO.N,+3.3V*%
X102616000Y-120428000D03*
%TO.P,R22,2*%
%TO.N,/DAV*%
X102616000Y-122428000D03*
%TD*%
%TO.P,R21,1*%
%TO.N,+3.3V*%
X113030000Y-120428000D03*
%TO.P,R21,2*%
%TO.N,/STATUS1*%
X113030000Y-122428000D03*
%TD*%
%TO.P,R20,1*%
%TO.N,+3.3V*%
X106045000Y-120428000D03*
%TO.P,R20,2*%
%TO.N,/STATUS0*%
X106045000Y-122428000D03*
%TD*%
%TO.P,R19,1*%
%TO.N,+3.3V*%
X118237000Y-96933000D03*
%TO.P,R19,2*%
%TO.N,/DIO8*%
X118237000Y-98933000D03*
%TD*%
%TO.P,R18,1*%
%TO.N,+3.3V*%
X114808000Y-96933000D03*
%TO.P,R18,2*%
%TO.N,/DIO7*%
X114808000Y-98933000D03*
%TD*%
%TO.P,R17,1*%
%TO.N,+3.3V*%
X111379000Y-96949000D03*
%TO.P,R17,2*%
%TO.N,/DIO6*%
X111379000Y-98949000D03*
%TD*%
%TO.P,R16,1*%
%TO.N,+3.3V*%
X107950000Y-96949000D03*
%TO.P,R16,2*%
%TO.N,/DIO5*%
X107950000Y-98949000D03*
%TD*%
%TO.P,R15,1*%
%TO.N,+3.3V*%
X104521000Y-96917000D03*
%TO.P,R15,2*%
%TO.N,/DIO4*%
X104521000Y-98917000D03*
%TD*%
%TO.P,R14,1*%
%TO.N,+3.3V*%
X101092000Y-96933000D03*
%TO.P,R14,2*%
%TO.N,/DIO3*%
X101092000Y-98933000D03*
%TD*%
%TO.P,R13,1*%
%TO.N,+3.3V*%
X97663000Y-96933000D03*
%TO.P,R13,2*%
%TO.N,/DIO2*%
X97663000Y-98933000D03*
%TD*%
%TO.P,R12,1*%
%TO.N,+3.3V*%
X94234000Y-96933000D03*
%TO.P,R12,2*%
%TO.N,/DIO1*%
X94234000Y-98933000D03*
%TD*%
D12*
%TO.P,M1,*%
%TO.N,*%
X73355000Y-151435000D03*
%TD*%
D13*
%TO.P,C6,1*%
%TO.N,+5V*%
X88500000Y-77000000D03*
D14*
%TO.P,C6,2*%
%TO.N,GND*%
X92000000Y-77000000D03*
%TD*%
D15*
%TO.P,J1,1*%
%TO.N,+5V*%
X90000000Y-68500000D03*
%TO.P,J1,2*%
%TO.N,GND*%
X90000000Y-62500000D03*
%TO.P,J1,3*%
X85300000Y-65500000D03*
%TD*%
D16*
%TO.P,J8,1,GND*%
%TO.N,GND*%
X112560000Y-140970000D03*
D17*
%TO.P,J8,2,LED_PWR*%
%TO.N,LED_PWR*%
X115100000Y-140970000D03*
%TO.P,J8,3,LED_ACT*%
%TO.N,LED_ACT*%
X117640000Y-140970000D03*
%TO.P,J8,4,SCL*%
%TO.N,I2C_SCL*%
X120180000Y-140970000D03*
%TO.P,J8,5,SDA*%
%TO.N,I2C_SDA*%
X122720000Y-140970000D03*
%TO.P,J8,6,ENTER*%
%TO.N,SW1_ENTER*%
X125260000Y-140970000D03*
%TO.P,J8,7,UP*%
%TO.N,SW2_UP*%
X127800000Y-140970000D03*
%TO.P,J8,8,DOWN*%
%TO.N,SW3_DOWN*%
X130340000Y-140970000D03*
%TO.P,J8,9,BACK*%
%TO.N,SW4_BACK*%
X132880000Y-140970000D03*
%TO.P,J8,10,INSERT*%
%TO.N,SW5_INSERT*%
X135420000Y-140970000D03*
%TO.P,J8,11,GND*%
%TO.N,GND*%
X137960000Y-140970000D03*
%TO.P,J8,12,VCC*%
%TO.N,+3.3V*%
X140500000Y-140970000D03*
%TD*%
D12*
%TO.P,M2,*%
%TO.N,*%
X167005000Y-151435000D03*
%TD*%
%TO.P,M3,*%
%TO.N,*%
X167005000Y-57785000D03*
%TD*%
%TO.P,M4,*%
%TO.N,*%
X73355000Y-57785000D03*
%TD*%
D18*
%TO.P,BZ1,1,1*%
%TO.N,Net-(A1-PWM1{slash}GPIO13)*%
X159210000Y-75000000D03*
D19*
X161020000Y-75000000D03*
D20*
%TO.P,BZ1,2,2*%
%TO.N,GND*%
X165000000Y-75000000D03*
D21*
X166810000Y-75000000D03*
%TD*%
D12*
%TO.P,A1,*%
%TO.N,*%
X74250000Y-86380000D03*
X132250000Y-86380000D03*
D16*
%TO.P,A1,1,3V3*%
%TO.N,+3.3V*%
X79120000Y-134110000D03*
D17*
%TO.P,A1,2,5V*%
%TO.N,+5V*%
X79120000Y-136650000D03*
%TO.P,A1,3,SDA/GPIO2*%
%TO.N,I2C_SDA*%
X81660000Y-134110000D03*
%TO.P,A1,4,5V*%
%TO.N,+5V*%
X81660000Y-136650000D03*
%TO.P,A1,5,SCL/GPIO3*%
%TO.N,I2C_SCL*%
X84200000Y-134110000D03*
%TO.P,A1,6,GND*%
%TO.N,GND*%
X84200000Y-136650000D03*
%TO.P,A1,7,GCLK0/GPIO4*%
%TO.N,SW4_BACK*%
X86740000Y-134110000D03*
%TO.P,A1,8,GPIO14/TXD*%
%TO.N,/DIO1*%
X86740000Y-136650000D03*
%TO.P,A1,9,GND*%
%TO.N,GND*%
X89280000Y-134110000D03*
%TO.P,A1,10,GPIO15/RXD*%
%TO.N,/DIO2*%
X89280000Y-136650000D03*
%TO.P,A1,11,GPIO17*%
%TO.N,SW3_DOWN*%
X91820000Y-134110000D03*
%TO.P,A1,12,GPIO18/PWM0*%
%TO.N,/DIO3*%
X91820000Y-136650000D03*
%TO.P,A1,13,GPIO27*%
%TO.N,SW1_ENTER*%
X94360000Y-134110000D03*
%TO.P,A1,14,GND*%
%TO.N,GND*%
X94360000Y-136650000D03*
%TO.P,A1,15,GPIO22*%
%TO.N,SW2_UP*%
X96900000Y-134110000D03*
%TO.P,A1,16,GPIO23*%
%TO.N,/DIO4*%
X96900000Y-136650000D03*
%TO.P,A1,17,3V3*%
%TO.N,+3.3V*%
X99440000Y-134110000D03*
%TO.P,A1,18,GPIO24*%
%TO.N,/DIO5*%
X99440000Y-136650000D03*
%TO.P,A1,19,MOSI0/GPIO10*%
%TO.N,RPI_LED*%
X101980000Y-134110000D03*
%TO.P,A1,20,GND*%
%TO.N,GND*%
X101980000Y-136650000D03*
%TO.P,A1,21,MISO0/GPIO9*%
%TO.N,/DEV*%
X104520000Y-134110000D03*
%TO.P,A1,22,GPIO25*%
%TO.N,/DIO6*%
X104520000Y-136650000D03*
%TO.P,A1,23,SCLK0/GPIO11*%
%TO.N,/~{RESET_3V3}*%
X107060000Y-134110000D03*
%TO.P,A1,24,~{CE0}/GPIO8*%
%TO.N,/DIO7*%
X107060000Y-136650000D03*
%TO.P,A1,25,GND*%
%TO.N,GND*%
X109600000Y-134110000D03*
%TO.P,A1,26,~{CE1}/GPIO7*%
%TO.N,/DIO8*%
X109600000Y-136650000D03*
%TO.P,A1,27,ID_SD/GPIO0*%
%TO.N,/TAP_SENSE*%
X112140000Y-134110000D03*
%TO.P,A1,28,ID_SC/GPIO1*%
%TO.N,unconnected-(A1-ID_SC{slash}GPIO1-Pad28)*%
X112140000Y-136650000D03*
%TO.P,A1,29,GCLK1/GPIO5*%
%TO.N,SW5_INSERT*%
X114680000Y-134110000D03*
%TO.P,A1,30,GND*%
%TO.N,GND*%
X114680000Y-136650000D03*
%TO.P,A1,31,GCLK2/GPIO6*%
%TO.N,/TAP_MOTOR*%
X117220000Y-134110000D03*
%TO.P,A1,32,PWM0/GPIO12*%
%TO.N,/DAV*%
X117220000Y-136650000D03*
%TO.P,A1,33,PWM1/GPIO13*%
%TO.N,Net-(A1-PWM1{slash}GPIO13)*%
X119760000Y-134110000D03*
%TO.P,A1,34,GND*%
%TO.N,GND*%
X119760000Y-136650000D03*
%TO.P,A1,35,GPIO19/MISO1*%
%TO.N,/TAP_READ*%
X122300000Y-134110000D03*
%TO.P,A1,36,GPIO16*%
%TO.N,/STATUS0*%
X122300000Y-136650000D03*
%TO.P,A1,37,GPIO26*%
%TO.N,/TAP_WRITE*%
X124840000Y-134110000D03*
%TO.P,A1,38,GPIO20/MOSI1*%
%TO.N,/ACK*%
X124840000Y-136650000D03*
%TO.P,A1,39,GND*%
%TO.N,GND*%
X127380000Y-134110000D03*
%TO.P,A1,40,GPIO21/SCLK1*%
%TO.N,/STATUS1*%
X127380000Y-136650000D03*
%TD*%
D22*
%TO.P,R7,1*%
%TO.N,/VCC_5V*%
X98000000Y-79742000D03*
%TO.P,R7,2*%
%TO.N,/CAS_READ*%
X100000000Y-79742000D03*
%TD*%
%TO.P,R6,1*%
%TO.N,Net-(Q2-B)*%
X98008000Y-76440000D03*
%TO.P,R6,2*%
%TO.N,/TAP_READ*%
X100008000Y-76440000D03*
%TD*%
D11*
%TO.P,R3,1*%
%TO.N,RPI_LED*%
X120142000Y-127000000D03*
%TO.P,R3,2*%
%TO.N,LED_ACT*%
X120142000Y-129000000D03*
%TD*%
D23*
%TO.P,D2,1,K*%
%TO.N,/~{RESET}*%
X152908000Y-80136000D03*
%TO.P,D2,2,A*%
%TO.N,/~{RESET_3V3}*%
X152908000Y-76836000D03*
%TD*%
D24*
%TO.P,J3,1,Pin_1*%
%TO.N,GND*%
X139610000Y-62992000D03*
D25*
%TO.P,J3,2,Pin_2*%
%TO.N,/DEV*%
X139610000Y-60452000D03*
%TO.P,J3,3,Pin_3*%
%TO.N,/DIO1*%
X142150000Y-62992000D03*
%TO.P,J3,4,Pin_4*%
%TO.N,/DIO2*%
X142150000Y-60452000D03*
%TO.P,J3,5,Pin_5*%
%TO.N,/DIO3*%
X144690000Y-62992000D03*
%TO.P,J3,6,Pin_6*%
%TO.N,/DIO4*%
X144690000Y-60452000D03*
%TO.P,J3,7,Pin_7*%
%TO.N,/DIO5*%
X147230000Y-62992000D03*
%TO.P,J3,8,Pin_8*%
%TO.N,/DIO6*%
X147230000Y-60452000D03*
%TO.P,J3,9,Pin_9*%
%TO.N,/DIO7*%
X149770000Y-62992000D03*
%TO.P,J3,10,Pin_10*%
%TO.N,/DIO8*%
X149770000Y-60452000D03*
%TO.P,J3,11,Pin_11*%
%TO.N,/DAV*%
X152310000Y-62992000D03*
%TO.P,J3,12,Pin_12*%
%TO.N,/STATUS0*%
X152310000Y-60452000D03*
%TO.P,J3,13,Pin_13*%
%TO.N,/ACK*%
X154850000Y-62992000D03*
%TO.P,J3,14,Pin_14*%
%TO.N,/STATUS1*%
X154850000Y-60452000D03*
%TO.P,J3,15,Pin_15*%
%TO.N,/~{RESET}*%
X157390000Y-62992000D03*
%TO.P,J3,16,Pin_16*%
%TO.N,GND*%
X157390000Y-60452000D03*
%TD*%
D26*
%TO.P,R11,1*%
%TO.N,+3.3V*%
X138500000Y-69500000D03*
%TO.P,R11,2*%
%TO.N,Net-(JP2-A)*%
X136500000Y-69500000D03*
%TD*%
D27*
%TO.P,J4,1*%
%TO.N,GND*%
X123950000Y-63500000D03*
%TO.P,J4,2*%
%TO.N,/VCC_5V*%
X126550000Y-63500000D03*
%TO.P,J4,3*%
%TO.N,/CAS_MOTOR*%
X121850000Y-63500000D03*
%TO.P,J4,4*%
%TO.N,/CAS_READ*%
X128650000Y-63500000D03*
%TO.P,J4,5*%
%TO.N,/CAS_WRITE*%
X121850000Y-66000000D03*
%TO.P,J4,6*%
%TO.N,/CAS_SENSE*%
X126150000Y-66000000D03*
%TO.P,J4,7*%
%TO.N,GND*%
X128650000Y-66000000D03*
D28*
%TO.P,J4,SH*%
%TO.N,N/C*%
X118500000Y-60500000D03*
D29*
X125250000Y-59700000D03*
D28*
X132000000Y-60500000D03*
%TD*%
D30*
%TO.P,JP1,1,A*%
%TO.N,Net-(JP1-A)*%
X110500000Y-70307000D03*
D31*
%TO.P,JP1,2,C*%
%TO.N,/CAS_SENSE*%
X110500000Y-71607000D03*
D32*
%TO.P,JP1,3,B*%
%TO.N,GND*%
X110500000Y-72907000D03*
%TD*%
D33*
%TO.P,JP2,1,A*%
%TO.N,Net-(JP2-A)*%
X126000000Y-72914000D03*
D31*
%TO.P,JP2,2,C*%
%TO.N,/TAP_MOTOR*%
X126000000Y-71614000D03*
D34*
%TO.P,JP2,3,B*%
%TO.N,GND*%
X126000000Y-70314000D03*
%TD*%
D35*
%TO.P,R2,1*%
%TO.N,LED_PWR*%
X114906000Y-129000000D03*
%TO.P,R2,2*%
%TO.N,+3.3V*%
X114906000Y-127000000D03*
%TD*%
D22*
%TO.P,R4,1*%
%TO.N,Net-(Q1-B)*%
X98008000Y-69464000D03*
%TO.P,R4,2*%
%TO.N,/TAP_SENSE*%
X100008000Y-69464000D03*
%TD*%
D35*
%TO.P,R1,1*%
%TO.N,+3.3V*%
X147320000Y-79486000D03*
%TO.P,R1,2*%
%TO.N,/~{RESET_3V3}*%
X147320000Y-77486000D03*
%TD*%
D26*
%TO.P,R9,1*%
%TO.N,+3.3V*%
X138500000Y-76500000D03*
%TO.P,R9,2*%
%TO.N,/TAP_WRITE*%
X136500000Y-76500000D03*
%TD*%
D36*
%TO.P,Q1,1,B*%
%TO.N,Net-(Q1-B)*%
X103500000Y-70670000D03*
%TO.P,Q1,2,E*%
%TO.N,GND*%
X103500000Y-72570000D03*
%TO.P,Q1,3,C*%
%TO.N,Net-(JP1-A)*%
X106500000Y-71620000D03*
%TD*%
D26*
%TO.P,R10,1*%
%TO.N,Net-(Q4-B)*%
X138500000Y-73090000D03*
%TO.P,R10,2*%
%TO.N,/CAS_MOTOR*%
X136500000Y-73090000D03*
%TD*%
%TO.P,R8,1*%
%TO.N,Net-(Q3-B)*%
X138500000Y-80000000D03*
%TO.P,R8,2*%
%TO.N,/CAS_WRITE*%
X136500000Y-80000000D03*
%TD*%
D36*
%TO.P,Q2,1,B*%
%TO.N,Net-(Q2-B)*%
X103500000Y-77014000D03*
%TO.P,Q2,2,E*%
%TO.N,GND*%
X103500000Y-78914000D03*
%TO.P,Q2,3,C*%
%TO.N,/CAS_READ*%
X106500000Y-77964000D03*
%TD*%
D37*
%TO.P,Q4,1,B*%
%TO.N,Net-(Q4-B)*%
X133000000Y-72450000D03*
%TO.P,Q4,2,E*%
%TO.N,GND*%
X133000000Y-70550000D03*
%TO.P,Q4,3,C*%
%TO.N,Net-(JP2-A)*%
X130000000Y-71500000D03*
%TD*%
%TO.P,Q3,1,B*%
%TO.N,Net-(Q3-B)*%
X133000000Y-78974000D03*
%TO.P,Q3,2,E*%
%TO.N,GND*%
X133000000Y-77074000D03*
%TO.P,Q3,3,C*%
%TO.N,/TAP_WRITE*%
X130000000Y-78024000D03*
%TD*%
D22*
%TO.P,R5,1*%
%TO.N,/VCC_5V*%
X98008000Y-72956000D03*
%TO.P,R5,2*%
%TO.N,Net-(JP1-A)*%
X100008000Y-72956000D03*
%TD*%
D38*
%TO.N,/CAS_MOTOR*%
X134531900Y-73001600D03*
%TO.N,/CAS_WRITE*%
X123648100Y-79754000D03*
%TO.N,/CAS_READ*%
X124601400Y-77679700D03*
%TO.N,/~{RESET}*%
X154527400Y-79558900D03*
%TO.N,/DAV*%
X117662100Y-122966100D03*
X119907600Y-84274300D03*
X149325900Y-82191400D03*
%TO.N,/DIO3*%
X98957500Y-99050900D03*
X102766100Y-82506000D03*
X128909500Y-67394000D03*
X125468500Y-77526400D03*
%TO.N,/TAP_SENSE*%
X113612300Y-67770500D03*
%TO.N,/STATUS1*%
X126171300Y-123765400D03*
X127952800Y-83557600D03*
X147583300Y-83449300D03*
%TO.N,/ACK*%
X123713500Y-124564700D03*
X129824200Y-69677300D03*
X127685500Y-126686200D03*
%TO.N,/STATUS0*%
X121654300Y-56747400D03*
X121439200Y-124964300D03*
%TO.N,/DIO7*%
X130754700Y-68614700D03*
X124792000Y-96355100D03*
X111677200Y-100606100D03*
%TO.N,/DIO5*%
X106347100Y-99132500D03*
X107022600Y-79802500D03*
X128798500Y-68469800D03*
X125222100Y-78406100D03*
%TO.N,/DEV*%
X103971700Y-126712500D03*
X113090900Y-61680000D03*
%TO.N,/DIO1*%
X86289100Y-100188600D03*
X125468700Y-88400200D03*
%TO.N,/DIO4*%
X103159100Y-99116500D03*
X115193600Y-58458800D03*
%TO.N,/TAP_MOTOR*%
X118707200Y-73663100D03*
%TO.N,/DIO8*%
X116510600Y-99240400D03*
X115760100Y-57799200D03*
%TO.N,/TAP_READ*%
X122072000Y-77161300D03*
%TO.N,/DIO2*%
X95769500Y-99021400D03*
X98027300Y-64773300D03*
%TO.N,/DIO6*%
X109664500Y-99058900D03*
X125049300Y-97241500D03*
%TO.N,/~{RESET_3V3}*%
X109867500Y-83305300D03*
%TO.N,/TAP_WRITE*%
X128341900Y-78392300D03*
%TO.N,+3.3V*%
X100953900Y-103065100D03*
X119900200Y-75418800D03*
X118255800Y-94294400D03*
%TO.N,Net-(A1-PWM1{slash}GPIO13)*%
X120965900Y-82864100D03*
%TO.N,LED_PWR*%
X116257500Y-128819900D03*
%TO.N,LED_ACT*%
X122767700Y-129616800D03*
%TO.N,SW2_UP*%
X95130400Y-143862300D03*
X127548500Y-144395100D03*
%TO.N,SW1_ENTER*%
X120787100Y-137947400D03*
%TO.N,SW5_INSERT*%
X134608500Y-137410000D03*
%TD*%
D39*
%TO.N,/CAS_MOTOR*%
X134620300Y-73090000D02*
X136500000Y-73090000D01*
X134531900Y-73001600D02*
X134620300Y-73090000D01*
%TO.N,/CAS_WRITE*%
X123648100Y-79754100D02*
X123648100Y-79754000D01*
X136254100Y-79754100D02*
X123648100Y-79754100D01*
X136500000Y-80000000D02*
X136254100Y-79754100D01*
%TO.N,/VCC_5V*%
X94408100Y-72956000D02*
X97051800Y-72956000D01*
X90847100Y-76517000D02*
X94408100Y-72956000D01*
X90847100Y-77465300D02*
X90847100Y-76517000D01*
X93123800Y-79742000D02*
X90847100Y-77465300D01*
X98000000Y-79742000D02*
X93123800Y-79742000D01*
X97051800Y-68709100D02*
X97051800Y-72956000D01*
X103189600Y-62571300D02*
X97051800Y-68709100D01*
X125621300Y-62571300D02*
X103189600Y-62571300D01*
X126550000Y-63500000D02*
X125621300Y-62571300D01*
X97051800Y-72956000D02*
X98008000Y-72956000D01*
%TO.N,Net-(Q4-B)*%
X137453900Y-74136100D02*
X138500000Y-73090000D01*
X134686100Y-74136100D02*
X137453900Y-74136100D01*
X133000000Y-72450000D02*
X134686100Y-74136100D01*
%TO.N,Net-(Q3-B)*%
X133099200Y-78874800D02*
X133000000Y-78974000D01*
X137374800Y-78874800D02*
X133099200Y-78874800D01*
X138500000Y-80000000D02*
X137374800Y-78874800D01*
%TO.N,Net-(Q2-B)*%
X103000200Y-77513800D02*
X103500000Y-77014000D01*
X99081800Y-77513800D02*
X103000200Y-77513800D01*
X98008000Y-76440000D02*
X99081800Y-77513800D01*
%TO.N,/CAS_READ*%
X104722000Y-79742000D02*
X106500000Y-77964000D01*
X100000000Y-79742000D02*
X104722000Y-79742000D01*
X106671200Y-78135200D02*
X106500000Y-77964000D01*
X120328800Y-78135200D02*
X106671200Y-78135200D01*
X120328800Y-78135200D02*
X120675900Y-77788100D01*
X124493000Y-77788100D02*
X120675900Y-77788100D01*
X124601400Y-77679700D02*
X124493000Y-77788100D01*
%TO.N,Net-(Q1-B)*%
X99214000Y-70670000D02*
X103500000Y-70670000D01*
X98008000Y-69464000D02*
X99214000Y-70670000D01*
%TO.N,Net-(JP2-A)*%
X128586000Y-72914000D02*
X130000000Y-71500000D01*
X126000000Y-72914000D02*
X128586000Y-72914000D01*
X134500000Y-71500000D02*
X136500000Y-69500000D01*
X130000000Y-71500000D02*
X134500000Y-71500000D01*
%TO.N,Net-(JP1-A)*%
X107813000Y-70307000D02*
X106500000Y-71620000D01*
X110500000Y-70307000D02*
X107813000Y-70307000D01*
X101344000Y-71620000D02*
X106500000Y-71620000D01*
X100008000Y-72956000D02*
X101344000Y-71620000D01*
%TO.N,/CAS_SENSE*%
X113126900Y-71607000D02*
X110500000Y-71607000D01*
X117534700Y-67199200D02*
X113126900Y-71607000D01*
X124950800Y-67199200D02*
X117534700Y-67199200D01*
X126150000Y-66000000D02*
X124950800Y-67199200D01*
%TO.N,/~{RESET}*%
X153485100Y-79558900D02*
X152908000Y-80136000D01*
X154527400Y-79558900D02*
X153485100Y-79558900D01*
%TO.N,/DAV*%
X116186500Y-121490500D02*
X117662100Y-122966100D01*
X103553500Y-121490500D02*
X116186500Y-121490500D01*
X102616000Y-122428000D02*
X103553500Y-121490500D01*
X119907600Y-84274300D02*
X120833300Y-84274300D01*
X122916200Y-82191400D02*
X149325900Y-82191400D01*
X120833300Y-84274300D02*
X122916200Y-82191400D01*
%TO.N,/DIO3*%
X100974100Y-99050900D02*
X101092000Y-98933000D01*
X98957500Y-99050900D02*
X100974100Y-99050900D01*
X129827300Y-66476200D02*
X128909500Y-67394000D01*
X141205800Y-66476200D02*
X129827300Y-66476200D01*
X144690000Y-62992000D02*
X141205800Y-66476200D01*
X118458300Y-82506000D02*
X102766100Y-82506000D01*
X121879000Y-79085300D02*
X118458300Y-82506000D01*
X125485800Y-79085300D02*
X121879000Y-79085300D01*
X125848900Y-78722200D02*
X125485800Y-79085300D01*
X125848900Y-77906800D02*
X125848900Y-78722200D01*
X125468500Y-77526400D02*
X125848900Y-77906800D01*
%TO.N,/TAP_SENSE*%
X101701500Y-67770500D02*
X113612300Y-67770500D01*
X100008000Y-69464000D02*
X101701500Y-67770500D01*
%TO.N,/STATUS1*%
X114367400Y-123765400D02*
X113030000Y-122428000D01*
X126171300Y-123765400D02*
X114367400Y-123765400D01*
X147199200Y-83065200D02*
X147583300Y-83449300D01*
X128445200Y-83065200D02*
X147199200Y-83065200D01*
X127952800Y-83557600D02*
X128445200Y-83065200D01*
%TO.N,/ACK*%
X134259400Y-69677300D02*
X129824200Y-69677300D01*
X135508000Y-68428700D02*
X134259400Y-69677300D01*
X149413300Y-68428700D02*
X135508000Y-68428700D01*
X154850000Y-62992000D02*
X149413300Y-68428700D01*
X111510600Y-124337600D02*
X109601000Y-122428000D01*
X123486400Y-124337600D02*
X111510600Y-124337600D01*
X123713500Y-124564700D02*
X123486400Y-124337600D01*
X125835000Y-126686200D02*
X127685500Y-126686200D01*
X123713500Y-124564700D02*
X125835000Y-126686200D01*
%TO.N,/STATUS0*%
X108581300Y-124964300D02*
X106045000Y-122428000D01*
X121439200Y-124964300D02*
X108581300Y-124964300D01*
X121654300Y-56922500D02*
X121654300Y-56747400D01*
X141366400Y-57113200D02*
X141175700Y-56922500D01*
X148971200Y-57113200D02*
X141366400Y-57113200D01*
X152310000Y-60452000D02*
X148971200Y-57113200D01*
X121654300Y-56922500D02*
X141175700Y-56922500D01*
%TO.N,/DIO7*%
X131560800Y-67808600D02*
X130754700Y-68614700D01*
X144953400Y-67808600D02*
X131560800Y-67808600D01*
X149770000Y-62992000D02*
X144953400Y-67808600D01*
X125076300Y-96355100D02*
X124792000Y-96355100D01*
X125676100Y-96954900D02*
X125076300Y-96355100D01*
X125676100Y-97510200D02*
X125676100Y-96954900D01*
X123295500Y-99890800D02*
X125676100Y-97510200D01*
X115765800Y-99890800D02*
X123295500Y-99890800D01*
X114808000Y-98933000D02*
X115765800Y-99890800D01*
X113134900Y-100606100D02*
X114808000Y-98933000D01*
X111677200Y-100606100D02*
X113134900Y-100606100D01*
%TO.N,/DIO5*%
X107766500Y-99132500D02*
X107950000Y-98949000D01*
X106347100Y-99132500D02*
X107766500Y-99132500D01*
X130249600Y-67018700D02*
X128798500Y-68469800D01*
X143203300Y-67018700D02*
X130249600Y-67018700D01*
X147230000Y-62992000D02*
X143203300Y-67018700D01*
X119300400Y-79802500D02*
X107022600Y-79802500D01*
X120696800Y-78406100D02*
X119300400Y-79802500D01*
X125222100Y-78406100D02*
X120696800Y-78406100D01*
%TO.N,/DEV*%
X103471500Y-126712500D02*
X103971700Y-126712500D01*
X99187000Y-122428000D02*
X103471500Y-126712500D01*
X114953800Y-61680000D02*
X113090900Y-61680000D01*
X117904500Y-58729300D02*
X114953800Y-61680000D01*
X137887300Y-58729300D02*
X117904500Y-58729300D01*
X139610000Y-60452000D02*
X137887300Y-58729300D01*
%TO.N,/DIO1*%
X87544700Y-98933000D02*
X86289100Y-100188600D01*
X94234000Y-98933000D02*
X87544700Y-98933000D01*
X93160200Y-97859200D02*
X94234000Y-98933000D01*
X93160200Y-96347500D02*
X93160200Y-97859200D01*
X101107500Y-88400200D02*
X93160200Y-96347500D01*
X125468700Y-88400200D02*
X101107500Y-88400200D01*
%TO.N,/DIO4*%
X104321500Y-99116500D02*
X104521000Y-98917000D01*
X103159100Y-99116500D02*
X104321500Y-99116500D01*
X116129700Y-58458800D02*
X115193600Y-58458800D01*
X116329700Y-58258800D02*
X116129700Y-58458800D01*
X116946100Y-58258800D02*
X116329700Y-58258800D01*
X117379000Y-57825900D02*
X116946100Y-58258800D01*
X140801500Y-57825900D02*
X117379000Y-57825900D01*
X141234400Y-58258800D02*
X140801500Y-57825900D01*
X142496800Y-58258800D02*
X141234400Y-58258800D01*
X144690000Y-60452000D02*
X142496800Y-58258800D01*
%TO.N,/TAP_MOTOR*%
X126000000Y-71614000D02*
X124923300Y-71614000D01*
X122874200Y-73663100D02*
X124923300Y-71614000D01*
X118707200Y-73663100D02*
X122874200Y-73663100D01*
%TO.N,/DIO8*%
X116818000Y-98933000D02*
X116510600Y-99240400D01*
X118237000Y-98933000D02*
X116818000Y-98933000D01*
X115899100Y-57938200D02*
X115760100Y-57799200D01*
X140988600Y-57374200D02*
X117191900Y-57374200D01*
X141409400Y-57795000D02*
X140988600Y-57374200D01*
X147113000Y-57795000D02*
X141409400Y-57795000D01*
X149770000Y-60452000D02*
X147113000Y-57795000D01*
X116042300Y-57795000D02*
X115899100Y-57938200D01*
X116771100Y-57795000D02*
X116042300Y-57795000D01*
X116771100Y-57795000D02*
X117191900Y-57374200D01*
%TO.N,/TAP_READ*%
X100183000Y-76265000D02*
X100008000Y-76440000D01*
X108493100Y-76265000D02*
X100183000Y-76265000D01*
X109389400Y-77161300D02*
X108493100Y-76265000D01*
X122072000Y-77161300D02*
X109389400Y-77161300D01*
%TO.N,/DIO2*%
X97574600Y-99021400D02*
X97663000Y-98933000D01*
X95769500Y-99021400D02*
X97574600Y-99021400D01*
X139975600Y-58277600D02*
X117566100Y-58277600D01*
X142150000Y-60452000D02*
X139975600Y-58277600D01*
X103713500Y-59087100D02*
X98027300Y-64773300D01*
X116756600Y-59087100D02*
X103713500Y-59087100D01*
X116756600Y-59087100D02*
X117566100Y-58277600D01*
%TO.N,/DIO6*%
X111269100Y-99058900D02*
X111379000Y-98949000D01*
X109664500Y-99058900D02*
X111269100Y-99058900D01*
X112395000Y-97933000D02*
X111379000Y-98949000D01*
X124357800Y-97933000D02*
X112395000Y-97933000D01*
X125049300Y-97241500D02*
X124357800Y-97933000D01*
%TO.N,/~{RESET_3V3}*%
X152258000Y-77486000D02*
X152908000Y-76836000D01*
X147320000Y-77486000D02*
X152258000Y-77486000D01*
X149025800Y-79191800D02*
X147320000Y-77486000D01*
X149025800Y-79473400D02*
X149025800Y-79191800D01*
X147853600Y-80645600D02*
X149025800Y-79473400D01*
X147750200Y-80645600D02*
X147853600Y-80645600D01*
X147676800Y-80572200D02*
X147750200Y-80645600D01*
X142730800Y-80572200D02*
X147676800Y-80572200D01*
X142267400Y-81035600D02*
X142730800Y-80572200D01*
X121419000Y-81035600D02*
X142267400Y-81035600D01*
X119149300Y-83305300D02*
X121419000Y-81035600D01*
X109867500Y-83305300D02*
X119149300Y-83305300D01*
%TO.N,/TAP_WRITE*%
X134976000Y-78024000D02*
X130000000Y-78024000D01*
X136500000Y-76500000D02*
X134976000Y-78024000D01*
X128710200Y-78024000D02*
X130000000Y-78024000D01*
X128341900Y-78392300D02*
X128710200Y-78024000D01*
%TO.N,+3.3V*%
X106045000Y-120428000D02*
X102616000Y-120428000D01*
X79120000Y-134110000D02*
X80296700Y-134110000D01*
X99440000Y-134110000D02*
X98263300Y-134110000D01*
X109601000Y-120428000D02*
X113030000Y-120428000D01*
X101092000Y-96933000D02*
X97663000Y-96933000D01*
X111395000Y-96933000D02*
X111379000Y-96949000D01*
X114808000Y-96933000D02*
X111395000Y-96933000D01*
X111379000Y-96949000D02*
X107950000Y-96949000D01*
X118237000Y-96933000D02*
X114808000Y-96933000D01*
X141486000Y-79486000D02*
X138500000Y-76500000D01*
X147320000Y-79486000D02*
X141486000Y-79486000D01*
X98263300Y-134110000D02*
X98263300Y-132331600D01*
X107918000Y-96917000D02*
X107950000Y-96949000D01*
X104521000Y-96917000D02*
X107918000Y-96917000D01*
X80296700Y-133742300D02*
X80296700Y-134110000D01*
X81707400Y-132331600D02*
X80296700Y-133742300D01*
X98263300Y-132331600D02*
X81707400Y-132331600D01*
X102616000Y-120428000D02*
X101544400Y-120428000D01*
X101544400Y-120428000D02*
X99187000Y-120428000D01*
X94234000Y-96933000D02*
X97663000Y-96933000D01*
X101092000Y-96933000D02*
X102173800Y-96933000D01*
X102189800Y-96917000D02*
X102173800Y-96933000D01*
X104521000Y-96917000D02*
X102189800Y-96917000D01*
X102173800Y-101845200D02*
X100953900Y-103065100D01*
X102173800Y-96933000D02*
X102173800Y-101845200D01*
X139475600Y-74444400D02*
X138500000Y-75420000D01*
X139475600Y-70475600D02*
X139475600Y-74444400D01*
X138500000Y-69500000D02*
X139475600Y-70475600D01*
X138500000Y-75420000D02*
X138500000Y-76500000D01*
X118255800Y-96914200D02*
X118237000Y-96933000D01*
X118255800Y-94294400D02*
X118255800Y-96914200D01*
X99288400Y-132331600D02*
X105090700Y-126529300D01*
X98263300Y-132331600D02*
X99288400Y-132331600D01*
X105561400Y-127000000D02*
X105090700Y-126529300D01*
X114906000Y-127000000D02*
X105561400Y-127000000D01*
X101544400Y-122983000D02*
X101544400Y-120428000D01*
X105090700Y-126529300D02*
X101544400Y-122983000D01*
X119901400Y-75420000D02*
X119900200Y-75418800D01*
X138500000Y-75420000D02*
X119901400Y-75420000D01*
X140500000Y-140970000D02*
X139323300Y-140970000D01*
X139323300Y-140602200D02*
X139323300Y-140970000D01*
X138514400Y-139793300D02*
X139323300Y-140602200D01*
X137457300Y-139793300D02*
X138514400Y-139793300D01*
X135539500Y-137875500D02*
X137457300Y-139793300D01*
X135539500Y-137395000D02*
X135539500Y-137875500D01*
X124200400Y-126055900D02*
X135539500Y-137395000D01*
X115850100Y-126055900D02*
X124200400Y-126055900D01*
X114906000Y-127000000D02*
X115850100Y-126055900D01*
X106045000Y-120428000D02*
X109601000Y-120428000D01*
%TO.N,Net-(A1-PWM1{slash}GPIO13)*%
X161020000Y-75000000D02*
X159210000Y-75000000D01*
X159210000Y-75000000D02*
X157383300Y-75000000D01*
X122342700Y-81487300D02*
X142679700Y-81487300D01*
X120965900Y-82864100D02*
X122342700Y-81487300D01*
X142679700Y-81487300D02*
X143129900Y-81037100D01*
X153361600Y-79021700D02*
X157383300Y-75000000D01*
X150116300Y-79021700D02*
X153361600Y-79021700D01*
X147989000Y-81149000D02*
X150116300Y-79021700D01*
X143241800Y-81149000D02*
X147989000Y-81149000D01*
X143129900Y-81037100D02*
X143241800Y-81149000D01*
%TO.N,LED_PWR*%
X115086100Y-128819900D02*
X116257500Y-128819900D01*
X114906000Y-129000000D02*
X115086100Y-128819900D01*
%TO.N,LED_ACT*%
X122150900Y-129000000D02*
X122767700Y-129616800D01*
X120142000Y-129000000D02*
X122150900Y-129000000D01*
%TO.N,SW2_UP*%
X127015700Y-143862300D02*
X127548500Y-144395100D01*
X95130400Y-143862300D02*
X127015700Y-143862300D01*
%TO.N,SW3_DOWN*%
X91820000Y-134110000D02*
X91820000Y-135286700D01*
X130340000Y-140970000D02*
X129163300Y-140970000D01*
X129163300Y-140602300D02*
X129163300Y-140970000D01*
X127135100Y-138574100D02*
X129163300Y-140602300D01*
X94537700Y-138574100D02*
X127135100Y-138574100D01*
X93090000Y-137126400D02*
X94537700Y-138574100D01*
X93090000Y-136197500D02*
X93090000Y-137126400D01*
X92179200Y-135286700D02*
X93090000Y-136197500D01*
X91820000Y-135286700D02*
X92179200Y-135286700D01*
%TO.N,SW1_ENTER*%
X95536700Y-134477800D02*
X95536700Y-134110000D01*
X96345600Y-135286700D02*
X95536700Y-134477800D01*
X97201500Y-135286700D02*
X96345600Y-135286700D01*
X98170000Y-136255200D02*
X97201500Y-135286700D01*
X98170000Y-137120800D02*
X98170000Y-136255200D01*
X98996600Y-137947400D02*
X98170000Y-137120800D01*
X120787100Y-137947400D02*
X98996600Y-137947400D01*
X94360000Y-134110000D02*
X95536700Y-134110000D01*
%TO.N,RPI_LED*%
X101980000Y-134110000D02*
X103156700Y-134110000D01*
X103156700Y-133742200D02*
X103156700Y-134110000D01*
X104417300Y-132481600D02*
X103156700Y-133742200D01*
X114021600Y-132481600D02*
X104417300Y-132481600D01*
X119503200Y-127000000D02*
X114021600Y-132481600D01*
X120142000Y-127000000D02*
X119503200Y-127000000D01*
%TO.N,SW4_BACK*%
X131703300Y-141335800D02*
X131703300Y-140970000D01*
X130883200Y-142155900D02*
X131703300Y-141335800D01*
X124696500Y-142155900D02*
X130883200Y-142155900D01*
X123990000Y-141449400D02*
X124696500Y-142155900D01*
X123990000Y-140554800D02*
X123990000Y-141449400D01*
X122716200Y-139281000D02*
X123990000Y-140554800D01*
X92702900Y-139281000D02*
X122716200Y-139281000D01*
X90511700Y-137089800D02*
X92702900Y-139281000D01*
X90511700Y-136152500D02*
X90511700Y-137089800D01*
X89645900Y-135286700D02*
X90511700Y-136152500D01*
X88725600Y-135286700D02*
X89645900Y-135286700D01*
X87916700Y-134477800D02*
X88725600Y-135286700D01*
X87916700Y-134110000D02*
X87916700Y-134477800D01*
X86740000Y-134110000D02*
X87916700Y-134110000D01*
X132880000Y-140970000D02*
X131703300Y-140970000D01*
%TO.N,SW5_INSERT*%
X114680000Y-134110000D02*
X115856700Y-134110000D01*
X130131800Y-132933300D02*
X134608500Y-137410000D01*
X116665600Y-132933300D02*
X130131800Y-132933300D01*
X115856700Y-133742200D02*
X116665600Y-132933300D01*
X115856700Y-134110000D02*
X115856700Y-133742200D01*
%TO.N,I2C_SDA*%
X121543300Y-141337800D02*
X121543300Y-140970000D01*
X120734400Y-142146700D02*
X121543300Y-141337800D01*
X88015600Y-142146700D02*
X120734400Y-142146700D01*
X82836700Y-136967800D02*
X88015600Y-142146700D01*
X82836700Y-136095600D02*
X82836700Y-136967800D01*
X82027800Y-135286700D02*
X82836700Y-136095600D01*
X81660000Y-135286700D02*
X82027800Y-135286700D01*
X81660000Y-134110000D02*
X81660000Y-135286700D01*
X122720000Y-140970000D02*
X121543300Y-140970000D01*
%TO.N,I2C_SCL*%
X119003300Y-140602200D02*
X119003300Y-140970000D01*
X118194400Y-139793300D02*
X119003300Y-140602200D01*
X90680700Y-139793300D02*
X118194400Y-139793300D01*
X88010000Y-137122600D02*
X90680700Y-139793300D01*
X88010000Y-136219200D02*
X88010000Y-137122600D01*
X87077500Y-135286700D02*
X88010000Y-136219200D01*
X86185600Y-135286700D02*
X87077500Y-135286700D01*
X85376700Y-134477800D02*
X86185600Y-135286700D01*
X85376700Y-134110000D02*
X85376700Y-134477800D01*
X84200000Y-134110000D02*
X85376700Y-134110000D01*
X120180000Y-140970000D02*
X119003300Y-140970000D01*
D40*
%TO.N,GND*%
X101980000Y-136650000D02*
X100728300Y-136650000D01*
X94360000Y-136650000D02*
X95611700Y-136650000D01*
X89280000Y-134110000D02*
X90531700Y-134110000D01*
X109600000Y-134110000D02*
X108348300Y-134110000D01*
X127380000Y-134110000D02*
X126128300Y-134110000D01*
X119760000Y-136650000D02*
X121011700Y-136650000D01*
X137960000Y-140970000D02*
X136708300Y-140970000D01*
X166810000Y-75000000D02*
X165000000Y-75000000D01*
X121781300Y-135361700D02*
X121011700Y-136131300D01*
X125424300Y-135361700D02*
X121781300Y-135361700D01*
X126128300Y-134657700D02*
X125424300Y-135361700D01*
X126128300Y-134110000D02*
X126128300Y-134657700D01*
X114680000Y-136650000D02*
X115931700Y-136650000D01*
X121011700Y-136131300D02*
X121011700Y-136650000D01*
X127778200Y-64585400D02*
X128650000Y-65457200D01*
X125035400Y-64585400D02*
X127778200Y-64585400D01*
X123950000Y-63500000D02*
X125035400Y-64585400D01*
X128650000Y-66000000D02*
X128650000Y-65457200D01*
X87000000Y-63348300D02*
X85300000Y-63348300D01*
X87848300Y-62500000D02*
X87000000Y-63348300D01*
X90000000Y-62500000D02*
X87848300Y-62500000D01*
X85300000Y-65500000D02*
X85300000Y-63348300D01*
X116664700Y-135398300D02*
X115931700Y-136131300D01*
X120278700Y-135398300D02*
X116664700Y-135398300D01*
X121011700Y-136131300D02*
X120278700Y-135398300D01*
X115931700Y-136131300D02*
X115931700Y-136650000D01*
X108348300Y-135380000D02*
X108348300Y-134110000D01*
X115180400Y-135380000D02*
X115931700Y-136131300D01*
X108348300Y-135380000D02*
X115180400Y-135380000D01*
X103500000Y-72570000D02*
X106831500Y-72570000D01*
X110163000Y-72570000D02*
X110500000Y-72907000D01*
X106831500Y-72570000D02*
X110163000Y-72570000D01*
X102713600Y-78127600D02*
X103500000Y-78914000D01*
X93127600Y-78127600D02*
X102713600Y-78127600D01*
X92000000Y-77000000D02*
X93127600Y-78127600D01*
X101450700Y-135380000D02*
X108348300Y-135380000D01*
X100728300Y-136102400D02*
X101450700Y-135380000D01*
X100728300Y-136650000D02*
X100728300Y-136102400D01*
X90531700Y-133628100D02*
X90531700Y-134110000D01*
X91301500Y-132858300D02*
X90531700Y-133628100D01*
X92338500Y-132858300D02*
X91301500Y-132858300D01*
X93071700Y-133591500D02*
X92338500Y-132858300D01*
X93071700Y-134628700D02*
X93071700Y-133591500D01*
X93804700Y-135361700D02*
X93071700Y-134628700D01*
X94842100Y-135361700D02*
X93804700Y-135361700D01*
X95611700Y-136131300D02*
X94842100Y-135361700D01*
X95611700Y-136650000D02*
X95611700Y-136131300D01*
X106831500Y-72570000D02*
X116658400Y-72570000D01*
X118914400Y-70314000D02*
X126000000Y-70314000D01*
X116658400Y-72570000D02*
X118914400Y-70314000D01*
X137144800Y-65457200D02*
X138377400Y-64224600D01*
X128650000Y-65457200D02*
X137144800Y-65457200D01*
X138377400Y-64224600D02*
X139610000Y-62992000D01*
X156120000Y-61722000D02*
X157390000Y-60452000D01*
X138972100Y-61722000D02*
X156120000Y-61722000D01*
X138952300Y-61741800D02*
X138972100Y-61722000D01*
X138952300Y-63649700D02*
X138952300Y-61741800D01*
X138377400Y-64224600D02*
X138952300Y-63649700D01*
X128332800Y-70550000D02*
X133000000Y-70550000D01*
X128096800Y-70314000D02*
X128332800Y-70550000D01*
X128096800Y-66553200D02*
X128096800Y-70314000D01*
X128650000Y-66000000D02*
X128096800Y-66553200D01*
X128096800Y-70314000D02*
X126000000Y-70314000D01*
X94484900Y-74515100D02*
X92000000Y-77000000D01*
X101554900Y-74515100D02*
X94484900Y-74515100D01*
X103500000Y-72570000D02*
X101554900Y-74515100D01*
X136708300Y-140424300D02*
X136708300Y-140970000D01*
X134401700Y-138117700D02*
X136708300Y-140424300D01*
X134324000Y-138117700D02*
X134401700Y-138117700D01*
X134124500Y-137918200D02*
X134324000Y-138117700D01*
X121750200Y-137918200D02*
X134124500Y-137918200D01*
X121011800Y-137179800D02*
X121750200Y-137918200D01*
X121011700Y-137179800D02*
X121011800Y-137179800D01*
X121011700Y-136650000D02*
X121011700Y-137179800D01*
X116658400Y-73169700D02*
X116658400Y-72570000D01*
X119948300Y-76459600D02*
X116658400Y-73169700D01*
X132385600Y-76459600D02*
X119948300Y-76459600D01*
X133000000Y-77074000D02*
X132385600Y-76459600D01*
D41*
%TO.N,+5V*%
X81660000Y-136650000D02*
X79120000Y-136650000D01*
%TD*%
%TA.AperFunction,Conductor*%
%TO.N,GND*%
G36*
X85536663Y-137312254D02*
G01*
X85575712Y-137357311D01*
X85578103Y-137362005D01*
X85578106Y-137362009D01*
X85703794Y-137535004D01*
X85854996Y-137686206D01*
X86027991Y-137811894D01*
X86085647Y-137841271D01*
X86218516Y-137908972D01*
X86218519Y-137908973D01*
X86305090Y-137937101D01*
X86421884Y-137975049D01*
X86633084Y-138008500D01*
X86633085Y-138008500D01*
X86846915Y-138008500D01*
X86846916Y-138008500D01*
X87058116Y-137975049D01*
X87261483Y-137908972D01*
X87452009Y-137811894D01*
X87569847Y-137726279D01*
X87635653Y-137702800D01*
X87703707Y-137718625D01*
X87730413Y-137738917D01*
X90276863Y-140285368D01*
X90276867Y-140285371D01*
X90380618Y-140354696D01*
X90380624Y-140354699D01*
X90380625Y-140354700D01*
X90495915Y-140402455D01*
X90618301Y-140426799D01*
X90618305Y-140426800D01*
X90618306Y-140426800D01*
X90743094Y-140426800D01*
X111086000Y-140426800D01*
X111153039Y-140446485D01*
X111198794Y-140499289D01*
X111210000Y-140550800D01*
X111210000Y-140720000D01*
X112126988Y-140720000D01*
X112094075Y-140777007D01*
X112060000Y-140904174D01*
X112060000Y-141035826D01*
X112094075Y-141162993D01*
X112126988Y-141220000D01*
X111210000Y-141220000D01*
X111210000Y-141389200D01*
X111190315Y-141456239D01*
X111137511Y-141501994D01*
X111086000Y-141513200D01*
X88329367Y-141513200D01*
X88262328Y-141493515D01*
X88241686Y-141476881D01*
X84804242Y-138039437D01*
X84770757Y-137978114D01*
X84775741Y-137908422D01*
X84817613Y-137852489D01*
X84835628Y-137841271D01*
X84907557Y-137804620D01*
X85079459Y-137679727D01*
X85079464Y-137679723D01*
X85229723Y-137529464D01*
X85229727Y-137529459D01*
X85354619Y-137357560D01*
X85354738Y-137357327D01*
X85354808Y-137357252D01*
X85357168Y-137353402D01*
X85357976Y-137353897D01*
X85402707Y-137306526D01*
X85470526Y-137289723D01*
X85536663Y-137312254D01*
G37*
%TD.AperFunction*%
%TA.AperFunction,Conductor*%
G36*
X129885073Y-133586485D02*
G01*
X129905715Y-133603119D01*
X133775332Y-137472736D01*
X133808817Y-137534059D01*
X133809268Y-137536226D01*
X133831068Y-137645823D01*
X133831070Y-137645831D01*
X133892017Y-137792969D01*
X133980495Y-137925387D01*
X133980501Y-137925394D01*
X134093105Y-138037998D01*
X134093112Y-138038004D01*
X134225530Y-138126482D01*
X134225531Y-138126482D01*
X134225532Y-138126483D01*
X134372669Y-138187430D01*
X134528865Y-138218499D01*
X134528869Y-138218500D01*
X134528870Y-138218500D01*
X134688131Y-138218500D01*
X134688132Y-138218499D01*
X134844331Y-138187430D01*
X134844336Y-138187427D01*
X134844339Y-138187427D01*
X134861287Y-138180407D01*
X134930756Y-138172937D01*
X134993235Y-138204211D01*
X135011843Y-138226076D01*
X135047428Y-138279332D01*
X135047431Y-138279336D01*
X136825240Y-140057145D01*
X136858725Y-140118468D01*
X136853741Y-140188160D01*
X136837879Y-140217709D01*
X136805376Y-140262447D01*
X136805369Y-140262458D01*
X136805246Y-140262701D01*
X136805174Y-140262776D01*
X136802829Y-140266604D01*
X136802024Y-140266110D01*
X136757264Y-140313489D01*
X136689441Y-140330274D01*
X136623309Y-140307727D01*
X136584285Y-140262683D01*
X136581895Y-140257992D01*
X136531159Y-140188160D01*
X136456206Y-140084996D01*
X136305004Y-139933794D01*
X136132009Y-139808106D01*
X136132005Y-139808104D01*
X135941483Y-139711027D01*
X135941480Y-139711026D01*
X135738117Y-139644951D01*
X135572507Y-139618721D01*
X135526916Y-139611500D01*
X135313084Y-139611500D01*
X135267493Y-139618721D01*
X135101882Y-139644951D01*
X134898519Y-139711026D01*
X134898516Y-139711027D01*
X134707990Y-139808106D01*
X134534993Y-139933796D01*
X134383796Y-140084993D01*
X134258105Y-140257991D01*
X134255727Y-140261873D01*
X134203914Y-140308748D01*
X134134984Y-140320169D01*
X134070822Y-140292512D01*
X134044273Y-140261873D01*
X134041894Y-140257991D01*
X133991159Y-140188160D01*
X133916206Y-140084996D01*
X133765004Y-139933794D01*
X133592009Y-139808106D01*
X133592005Y-139808104D01*
X133401483Y-139711027D01*
X133401480Y-139711026D01*
X133198117Y-139644951D01*
X133032507Y-139618721D01*
X132986916Y-139611500D01*
X132773084Y-139611500D01*
X132727493Y-139618721D01*
X132561882Y-139644951D01*
X132358519Y-139711026D01*
X132358516Y-139711027D01*
X132167990Y-139808106D01*
X131994993Y-139933796D01*
X131843796Y-140084993D01*
X131718105Y-140257991D01*
X131715727Y-140261873D01*
X131663914Y-140308748D01*
X131594984Y-140320169D01*
X131530822Y-140292512D01*
X131504273Y-140261873D01*
X131501894Y-140257991D01*
X131451159Y-140188160D01*
X131376206Y-140084996D01*
X131225004Y-139933794D01*
X131052009Y-139808106D01*
X131052005Y-139808104D01*
X130861483Y-139711027D01*
X130861480Y-139711026D01*
X130658117Y-139644951D01*
X130492507Y-139618721D01*
X130446916Y-139611500D01*
X130233084Y-139611500D01*
X130187493Y-139618721D01*
X130021882Y-139644951D01*
X129818519Y-139711026D01*
X129818516Y-139711027D01*
X129627987Y-139808108D01*
X129503434Y-139898601D01*
X129437628Y-139922081D01*
X129369574Y-139906255D01*
X129342868Y-139885964D01*
X127640048Y-138183143D01*
X127606563Y-138121820D01*
X127611547Y-138052128D01*
X127653419Y-137996195D01*
X127693716Y-137977275D01*
X127693482Y-137976555D01*
X127901480Y-137908973D01*
X127901483Y-137908972D01*
X127932372Y-137893233D01*
X128092009Y-137811894D01*
X128265004Y-137686206D01*
X128416206Y-137535004D01*
X128541894Y-137362009D01*
X128638972Y-137171483D01*
X128705049Y-136968116D01*
X128738500Y-136756916D01*
X128738500Y-136543084D01*
X128705049Y-136331884D01*
X128638972Y-136128517D01*
X128638972Y-136128516D01*
X128579968Y-136012715D01*
X128541894Y-135937991D01*
X128416206Y-135764996D01*
X128265004Y-135613794D01*
X128105389Y-135497827D01*
X128092008Y-135488105D01*
X128087311Y-135485712D01*
X128036517Y-135437735D01*
X128019724Y-135369914D01*
X128042264Y-135303780D01*
X128083790Y-135267801D01*
X128083402Y-135267168D01*
X128087229Y-135264822D01*
X128087327Y-135264738D01*
X128087560Y-135264619D01*
X128259459Y-135139727D01*
X128259464Y-135139723D01*
X128409723Y-134989464D01*
X128409727Y-134989459D01*
X128534620Y-134817557D01*
X128631095Y-134628217D01*
X128696757Y-134426129D01*
X128696757Y-134426126D01*
X128707231Y-134360000D01*
X127813012Y-134360000D01*
X127845925Y-134302993D01*
X127880000Y-134175826D01*
X127880000Y-134044174D01*
X127845925Y-133917007D01*
X127813012Y-133860000D01*
X128707231Y-133860000D01*
X128696757Y-133793873D01*
X128696757Y-133793870D01*
X128675718Y-133729118D01*
X128673723Y-133659277D01*
X128709804Y-133599444D01*
X128772505Y-133568616D01*
X128793649Y-133566800D01*
X129818034Y-133566800D01*
X129885073Y-133586485D01*
G37*
%TD.AperFunction*%
%TA.AperFunction,Conductor*%
G36*
X123649173Y-137327483D02*
G01*
X123675730Y-137358132D01*
X123678103Y-137362005D01*
X123678105Y-137362008D01*
X123678106Y-137362009D01*
X123803794Y-137535004D01*
X123954996Y-137686206D01*
X123954999Y-137686208D01*
X123996392Y-137716282D01*
X124039058Y-137771612D01*
X124045037Y-137841225D01*
X124012431Y-137903020D01*
X123951593Y-137937377D01*
X123923507Y-137940600D01*
X123216493Y-137940600D01*
X123149454Y-137920915D01*
X123103699Y-137868111D01*
X123093755Y-137798953D01*
X123122780Y-137735397D01*
X123143608Y-137716282D01*
X123162164Y-137702800D01*
X123185004Y-137686206D01*
X123336206Y-137535004D01*
X123461894Y-137362009D01*
X123461896Y-137362004D01*
X123464270Y-137358132D01*
X123516080Y-137311254D01*
X123585009Y-137299829D01*
X123649173Y-137327483D01*
G37*
%TD.AperFunction*%
%TA.AperFunction,Conductor*%
G36*
X126189173Y-137327483D02*
G01*
X126215730Y-137358132D01*
X126218103Y-137362005D01*
X126218105Y-137362008D01*
X126218106Y-137362009D01*
X126343794Y-137535004D01*
X126494996Y-137686206D01*
X126494999Y-137686208D01*
X126536392Y-137716282D01*
X126579058Y-137771612D01*
X126585037Y-137841225D01*
X126552431Y-137903020D01*
X126491593Y-137937377D01*
X126463507Y-137940600D01*
X125756493Y-137940600D01*
X125689454Y-137920915D01*
X125643699Y-137868111D01*
X125633755Y-137798953D01*
X125662780Y-137735397D01*
X125683608Y-137716282D01*
X125702164Y-137702800D01*
X125725004Y-137686206D01*
X125876206Y-137535004D01*
X126001894Y-137362009D01*
X126001896Y-137362004D01*
X126004270Y-137358132D01*
X126056080Y-137311254D01*
X126125009Y-137299829D01*
X126189173Y-137327483D01*
G37*
%TD.AperFunction*%
%TA.AperFunction,Conductor*%
G36*
X95297064Y-135166041D02*
G01*
X95330366Y-135173785D01*
X95331269Y-135174471D01*
X95331783Y-135174598D01*
X95332671Y-135175536D01*
X95357073Y-135194077D01*
X95815922Y-135652926D01*
X95849407Y-135714249D01*
X95844423Y-135783941D01*
X95828559Y-135813492D01*
X95738105Y-135937991D01*
X95735709Y-135942693D01*
X95687731Y-135993485D01*
X95619908Y-136010275D01*
X95553775Y-135987732D01*
X95517800Y-135946210D01*
X95517168Y-135946598D01*
X95514829Y-135942781D01*
X95514743Y-135942682D01*
X95514620Y-135942441D01*
X95389727Y-135770540D01*
X95389723Y-135770535D01*
X95239464Y-135620276D01*
X95239459Y-135620272D01*
X95067553Y-135495376D01*
X95067554Y-135495376D01*
X95067308Y-135495251D01*
X95067231Y-135495178D01*
X95063402Y-135492832D01*
X95063895Y-135492027D01*
X95016515Y-135447274D01*
X94999724Y-135379451D01*
X95022266Y-135313318D01*
X95052052Y-135283501D01*
X95059350Y-135278344D01*
X95072009Y-135271894D01*
X95197229Y-135180916D01*
X95197834Y-135180489D01*
X95230117Y-135169447D01*
X95262312Y-135157960D01*
X95263140Y-135158152D01*
X95263943Y-135157878D01*
X95297064Y-135166041D01*
G37*
%TD.AperFunction*%
%TA.AperFunction,Conductor*%
G36*
X103329163Y-134787476D02*
G01*
X103355723Y-134818122D01*
X103358100Y-134822001D01*
X103358105Y-134822008D01*
X103358106Y-134822009D01*
X103483794Y-134995004D01*
X103634996Y-135146206D01*
X103798248Y-135264815D01*
X103807991Y-135271894D01*
X103811873Y-135274273D01*
X103858748Y-135326086D01*
X103870169Y-135395016D01*
X103842512Y-135459178D01*
X103811873Y-135485727D01*
X103807991Y-135488105D01*
X103634993Y-135613796D01*
X103483796Y-135764993D01*
X103358103Y-135937994D01*
X103355709Y-135942693D01*
X103307731Y-135993485D01*
X103239908Y-136010275D01*
X103173775Y-135987732D01*
X103137800Y-135946210D01*
X103137168Y-135946598D01*
X103134829Y-135942781D01*
X103134743Y-135942682D01*
X103134620Y-135942441D01*
X103009727Y-135770540D01*
X103009723Y-135770535D01*
X102859464Y-135620276D01*
X102859459Y-135620272D01*
X102687553Y-135495376D01*
X102687554Y-135495376D01*
X102687308Y-135495251D01*
X102687231Y-135495178D01*
X102683402Y-135492832D01*
X102683895Y-135492027D01*
X102636515Y-135447274D01*
X102619724Y-135379451D01*
X102642266Y-135313318D01*
X102687319Y-135274283D01*
X102692009Y-135271894D01*
X102865004Y-135146206D01*
X103016206Y-134995004D01*
X103141894Y-134822009D01*
X103141901Y-134821994D01*
X103144263Y-134818141D01*
X103196069Y-134771259D01*
X103264997Y-134759827D01*
X103329163Y-134787476D01*
G37*
%TD.AperFunction*%
%TA.AperFunction,Conductor*%
G36*
X116029163Y-134787476D02*
G01*
X116055723Y-134818122D01*
X116058100Y-134822001D01*
X116058105Y-134822008D01*
X116058106Y-134822009D01*
X116183794Y-134995004D01*
X116334996Y-135146206D01*
X116498248Y-135264815D01*
X116507991Y-135271894D01*
X116511873Y-135274273D01*
X116558748Y-135326086D01*
X116570169Y-135395016D01*
X116542512Y-135459178D01*
X116511873Y-135485727D01*
X116507991Y-135488105D01*
X116334993Y-135613796D01*
X116183796Y-135764993D01*
X116058103Y-135937994D01*
X116055709Y-135942693D01*
X116007731Y-135993485D01*
X115939908Y-136010275D01*
X115873775Y-135987732D01*
X115837800Y-135946210D01*
X115837168Y-135946598D01*
X115834829Y-135942781D01*
X115834743Y-135942682D01*
X115834620Y-135942441D01*
X115709727Y-135770540D01*
X115709723Y-135770535D01*
X115559464Y-135620276D01*
X115559459Y-135620272D01*
X115387553Y-135495376D01*
X115387554Y-135495376D01*
X115387308Y-135495251D01*
X115387231Y-135495178D01*
X115383402Y-135492832D01*
X115383895Y-135492027D01*
X115336515Y-135447274D01*
X115319724Y-135379451D01*
X115342266Y-135313318D01*
X115387319Y-135274283D01*
X115392009Y-135271894D01*
X115565004Y-135146206D01*
X115716206Y-134995004D01*
X115841894Y-134822009D01*
X115841901Y-134821994D01*
X115844263Y-134818141D01*
X115896069Y-134771259D01*
X115964997Y-134759827D01*
X116029163Y-134787476D01*
G37*
%TD.AperFunction*%
%TA.AperFunction,Conductor*%
G36*
X121109173Y-134787483D02*
G01*
X121135730Y-134818132D01*
X121138103Y-134822005D01*
X121138105Y-134822008D01*
X121138106Y-134822009D01*
X121263794Y-134995004D01*
X121414996Y-135146206D01*
X121578248Y-135264815D01*
X121587991Y-135271894D01*
X121591873Y-135274273D01*
X121638748Y-135326086D01*
X121650169Y-135395016D01*
X121622512Y-135459178D01*
X121591873Y-135485727D01*
X121587991Y-135488105D01*
X121414993Y-135613796D01*
X121263796Y-135764993D01*
X121138103Y-135937994D01*
X121135709Y-135942693D01*
X121087731Y-135993485D01*
X121019908Y-136010275D01*
X120953775Y-135987732D01*
X120917800Y-135946210D01*
X120917168Y-135946598D01*
X120914829Y-135942781D01*
X120914743Y-135942682D01*
X120914620Y-135942441D01*
X120789727Y-135770540D01*
X120789723Y-135770535D01*
X120639464Y-135620276D01*
X120639459Y-135620272D01*
X120467553Y-135495376D01*
X120467554Y-135495376D01*
X120467308Y-135495251D01*
X120467231Y-135495178D01*
X120463402Y-135492832D01*
X120463895Y-135492027D01*
X120416515Y-135447274D01*
X120399724Y-135379451D01*
X120422266Y-135313318D01*
X120467319Y-135274283D01*
X120472009Y-135271894D01*
X120645004Y-135146206D01*
X120796206Y-134995004D01*
X120921894Y-134822009D01*
X120921898Y-134822001D01*
X120924270Y-134818132D01*
X120976080Y-134771254D01*
X121045009Y-134759829D01*
X121109173Y-134787483D01*
G37*
%TD.AperFunction*%
%TA.AperFunction,Conductor*%
G36*
X100789173Y-134787483D02*
G01*
X100815730Y-134818132D01*
X100818103Y-134822005D01*
X100818105Y-134822008D01*
X100818106Y-134822009D01*
X100943794Y-134995004D01*
X101094996Y-135146206D01*
X101177579Y-135206206D01*
X101267992Y-135271895D01*
X101272683Y-135274285D01*
X101323480Y-135322259D01*
X101340275Y-135390080D01*
X101317738Y-135456215D01*
X101276212Y-135492202D01*
X101276598Y-135492832D01*
X101272803Y-135495157D01*
X101272701Y-135495246D01*
X101272448Y-135495374D01*
X101272446Y-135495376D01*
X101100540Y-135620272D01*
X101100535Y-135620276D01*
X100950276Y-135770535D01*
X100950272Y-135770540D01*
X100825376Y-135942446D01*
X100825374Y-135942448D01*
X100825246Y-135942701D01*
X100825172Y-135942779D01*
X100822832Y-135946598D01*
X100822029Y-135946106D01*
X100777264Y-135993489D01*
X100709441Y-136010274D01*
X100643309Y-135987727D01*
X100604285Y-135942683D01*
X100601895Y-135937992D01*
X100503783Y-135802953D01*
X100476206Y-135764996D01*
X100325004Y-135613794D01*
X100152009Y-135488106D01*
X100152005Y-135488103D01*
X100148132Y-135485730D01*
X100101254Y-135433920D01*
X100089829Y-135364991D01*
X100117483Y-135300827D01*
X100148132Y-135274270D01*
X100152005Y-135271896D01*
X100152004Y-135271896D01*
X100152009Y-135271894D01*
X100325004Y-135146206D01*
X100476206Y-134995004D01*
X100601894Y-134822009D01*
X100601898Y-134822001D01*
X100604270Y-134818132D01*
X100656080Y-134771254D01*
X100725009Y-134759829D01*
X100789173Y-134787483D01*
G37*
%TD.AperFunction*%
%TA.AperFunction,Conductor*%
G36*
X113489173Y-134787483D02*
G01*
X113515730Y-134818132D01*
X113518103Y-134822005D01*
X113518105Y-134822008D01*
X113518106Y-134822009D01*
X113643794Y-134995004D01*
X113794996Y-135146206D01*
X113877579Y-135206206D01*
X113967992Y-135271895D01*
X113972683Y-135274285D01*
X114023480Y-135322259D01*
X114040275Y-135390080D01*
X114017738Y-135456215D01*
X113976212Y-135492202D01*
X113976598Y-135492832D01*
X113972803Y-135495157D01*
X113972701Y-135495246D01*
X113972448Y-135495374D01*
X113972446Y-135495376D01*
X113800540Y-135620272D01*
X113800535Y-135620276D01*
X113650276Y-135770535D01*
X113650272Y-135770540D01*
X113525376Y-135942446D01*
X113525374Y-135942448D01*
X113525246Y-135942701D01*
X113525172Y-135942779D01*
X113522832Y-135946598D01*
X113522029Y-135946106D01*
X113477264Y-135993489D01*
X113409441Y-136010274D01*
X113343309Y-135987727D01*
X113304285Y-135942683D01*
X113301895Y-135937992D01*
X113203783Y-135802953D01*
X113176206Y-135764996D01*
X113025004Y-135613794D01*
X112852009Y-135488106D01*
X112852005Y-135488103D01*
X112848132Y-135485730D01*
X112801254Y-135433920D01*
X112789829Y-135364991D01*
X112817483Y-135300827D01*
X112848132Y-135274270D01*
X112852005Y-135271896D01*
X112852004Y-135271896D01*
X112852009Y-135271894D01*
X113025004Y-135146206D01*
X113176206Y-134995004D01*
X113301894Y-134822009D01*
X113301898Y-134822001D01*
X113304270Y-134818132D01*
X113356080Y-134771254D01*
X113425009Y-134759829D01*
X113489173Y-134787483D01*
G37*
%TD.AperFunction*%
%TA.AperFunction,Conductor*%
G36*
X118569173Y-134787483D02*
G01*
X118595730Y-134818132D01*
X118598103Y-134822005D01*
X118598105Y-134822008D01*
X118598106Y-134822009D01*
X118723794Y-134995004D01*
X118874996Y-135146206D01*
X118957579Y-135206206D01*
X119047992Y-135271895D01*
X119052683Y-135274285D01*
X119103480Y-135322259D01*
X119120275Y-135390080D01*
X119097738Y-135456215D01*
X119056212Y-135492202D01*
X119056598Y-135492832D01*
X119052803Y-135495157D01*
X119052701Y-135495246D01*
X119052448Y-135495374D01*
X119052446Y-135495376D01*
X118880540Y-135620272D01*
X118880535Y-135620276D01*
X118730276Y-135770535D01*
X118730272Y-135770540D01*
X118605376Y-135942446D01*
X118605374Y-135942448D01*
X118605246Y-135942701D01*
X118605172Y-135942779D01*
X118602832Y-135946598D01*
X118602029Y-135946106D01*
X118557264Y-135993489D01*
X118489441Y-136010274D01*
X118423309Y-135987727D01*
X118384285Y-135942683D01*
X118381895Y-135937992D01*
X118283783Y-135802953D01*
X118256206Y-135764996D01*
X118105004Y-135613794D01*
X117932009Y-135488106D01*
X117932005Y-135488103D01*
X117928132Y-135485730D01*
X117881254Y-135433920D01*
X117869829Y-135364991D01*
X117897483Y-135300827D01*
X117928132Y-135274270D01*
X117932005Y-135271896D01*
X117932004Y-135271896D01*
X117932009Y-135271894D01*
X118105004Y-135146206D01*
X118256206Y-134995004D01*
X118381894Y-134822009D01*
X118381898Y-134822001D01*
X118384270Y-134818132D01*
X118436080Y-134771254D01*
X118505009Y-134759829D01*
X118569173Y-134787483D01*
G37*
%TD.AperFunction*%
%TA.AperFunction,Conductor*%
G36*
X105869173Y-134787483D02*
G01*
X105895730Y-134818132D01*
X105898103Y-134822005D01*
X105898105Y-134822008D01*
X105898106Y-134822009D01*
X106023794Y-134995004D01*
X106174996Y-135146206D01*
X106338248Y-135264815D01*
X106347991Y-135271894D01*
X106351873Y-135274273D01*
X106398748Y-135326086D01*
X106410169Y-135395016D01*
X106382512Y-135459178D01*
X106351873Y-135485727D01*
X106347991Y-135488105D01*
X106174993Y-135613796D01*
X106023796Y-135764993D01*
X105898105Y-135937991D01*
X105895727Y-135941873D01*
X105843914Y-135988748D01*
X105774984Y-136000169D01*
X105710822Y-135972512D01*
X105684273Y-135941873D01*
X105681894Y-135937991D01*
X105681893Y-135937990D01*
X105556206Y-135764996D01*
X105405004Y-135613794D01*
X105232009Y-135488106D01*
X105232005Y-135488103D01*
X105228132Y-135485730D01*
X105181254Y-135433920D01*
X105169829Y-135364991D01*
X105197483Y-135300827D01*
X105228132Y-135274270D01*
X105232005Y-135271896D01*
X105232004Y-135271896D01*
X105232009Y-135271894D01*
X105405004Y-135146206D01*
X105556206Y-134995004D01*
X105681894Y-134822009D01*
X105681898Y-134822001D01*
X105684270Y-134818132D01*
X105736080Y-134771254D01*
X105805009Y-134759829D01*
X105869173Y-134787483D01*
G37*
%TD.AperFunction*%
%TA.AperFunction,Conductor*%
G36*
X108406210Y-134772258D02*
G01*
X108442201Y-134813788D01*
X108442832Y-134813402D01*
X108445164Y-134817207D01*
X108445251Y-134817308D01*
X108445376Y-134817554D01*
X108570272Y-134989459D01*
X108570276Y-134989464D01*
X108720535Y-135139723D01*
X108720540Y-135139727D01*
X108892441Y-135264620D01*
X108892682Y-135264743D01*
X108892758Y-135264815D01*
X108896598Y-135267168D01*
X108896103Y-135267974D01*
X108943479Y-135312716D01*
X108960275Y-135380537D01*
X108937739Y-135446672D01*
X108892693Y-135485709D01*
X108887994Y-135488103D01*
X108714993Y-135613796D01*
X108563796Y-135764993D01*
X108438105Y-135937991D01*
X108435727Y-135941873D01*
X108383914Y-135988748D01*
X108314984Y-136000169D01*
X108250822Y-135972512D01*
X108224273Y-135941873D01*
X108221894Y-135937991D01*
X108221893Y-135937990D01*
X108096206Y-135764996D01*
X107945004Y-135613794D01*
X107772009Y-135488106D01*
X107772005Y-135488103D01*
X107768132Y-135485730D01*
X107721254Y-135433920D01*
X107709829Y-135364991D01*
X107737483Y-135300827D01*
X107768132Y-135274270D01*
X107772005Y-135271896D01*
X107772004Y-135271896D01*
X107772009Y-135271894D01*
X107945004Y-135146206D01*
X108096206Y-134995004D01*
X108221894Y-134822009D01*
X108224283Y-134817319D01*
X108272254Y-134766522D01*
X108340074Y-134749724D01*
X108406210Y-134772258D01*
G37*
%TD.AperFunction*%
%TA.AperFunction,Conductor*%
G36*
X110936663Y-134772254D02*
G01*
X110975712Y-134817311D01*
X110978105Y-134822008D01*
X110978109Y-134822013D01*
X111103794Y-134995004D01*
X111254996Y-135146206D01*
X111418248Y-135264815D01*
X111427991Y-135271894D01*
X111431873Y-135274273D01*
X111478748Y-135326086D01*
X111490169Y-135395016D01*
X111462512Y-135459178D01*
X111431873Y-135485727D01*
X111427991Y-135488105D01*
X111254993Y-135613796D01*
X111103796Y-135764993D01*
X110978105Y-135937991D01*
X110975727Y-135941873D01*
X110923914Y-135988748D01*
X110854984Y-136000169D01*
X110790822Y-135972512D01*
X110764273Y-135941873D01*
X110761894Y-135937991D01*
X110761893Y-135937990D01*
X110636206Y-135764996D01*
X110485004Y-135613794D01*
X110325389Y-135497827D01*
X110312008Y-135488105D01*
X110307311Y-135485712D01*
X110256517Y-135437735D01*
X110239724Y-135369914D01*
X110262264Y-135303780D01*
X110303790Y-135267801D01*
X110303402Y-135267168D01*
X110307229Y-135264822D01*
X110307327Y-135264738D01*
X110307560Y-135264619D01*
X110479459Y-135139727D01*
X110479464Y-135139723D01*
X110629723Y-134989464D01*
X110629727Y-134989459D01*
X110754619Y-134817560D01*
X110754738Y-134817327D01*
X110754808Y-134817252D01*
X110757168Y-134813402D01*
X110757976Y-134813897D01*
X110802707Y-134766526D01*
X110870526Y-134749723D01*
X110936663Y-134772254D01*
G37*
%TD.AperFunction*%
%TA.AperFunction,Conductor*%
G36*
X123649173Y-134787483D02*
G01*
X123675730Y-134818132D01*
X123678103Y-134822005D01*
X123678105Y-134822008D01*
X123678106Y-134822009D01*
X123803794Y-134995004D01*
X123954996Y-135146206D01*
X124118248Y-135264815D01*
X124127991Y-135271894D01*
X124131873Y-135274273D01*
X124178748Y-135326086D01*
X124190169Y-135395016D01*
X124162512Y-135459178D01*
X124131873Y-135485727D01*
X124127991Y-135488105D01*
X123954993Y-135613796D01*
X123803796Y-135764993D01*
X123678105Y-135937991D01*
X123675727Y-135941873D01*
X123623914Y-135988748D01*
X123554984Y-136000169D01*
X123490822Y-135972512D01*
X123464273Y-135941873D01*
X123461894Y-135937991D01*
X123461893Y-135937990D01*
X123336206Y-135764996D01*
X123185004Y-135613794D01*
X123012009Y-135488106D01*
X123012005Y-135488103D01*
X123008132Y-135485730D01*
X122961254Y-135433920D01*
X122949829Y-135364991D01*
X122977483Y-135300827D01*
X123008132Y-135274270D01*
X123012005Y-135271896D01*
X123012004Y-135271896D01*
X123012009Y-135271894D01*
X123185004Y-135146206D01*
X123336206Y-134995004D01*
X123461894Y-134822009D01*
X123461898Y-134822001D01*
X123464270Y-134818132D01*
X123516080Y-134771254D01*
X123585009Y-134759829D01*
X123649173Y-134787483D01*
G37*
%TD.AperFunction*%
%TA.AperFunction,Conductor*%
G36*
X126186210Y-134772258D02*
G01*
X126222201Y-134813788D01*
X126222832Y-134813402D01*
X126225164Y-134817207D01*
X126225251Y-134817308D01*
X126225376Y-134817554D01*
X126350272Y-134989459D01*
X126350276Y-134989464D01*
X126500535Y-135139723D01*
X126500540Y-135139727D01*
X126672441Y-135264620D01*
X126672682Y-135264743D01*
X126672758Y-135264815D01*
X126676598Y-135267168D01*
X126676103Y-135267974D01*
X126723479Y-135312716D01*
X126740275Y-135380537D01*
X126717739Y-135446672D01*
X126672693Y-135485709D01*
X126667994Y-135488103D01*
X126494993Y-135613796D01*
X126343796Y-135764993D01*
X126218105Y-135937991D01*
X126215727Y-135941873D01*
X126163914Y-135988748D01*
X126094984Y-136000169D01*
X126030822Y-135972512D01*
X126004273Y-135941873D01*
X126001894Y-135937991D01*
X126001893Y-135937990D01*
X125876206Y-135764996D01*
X125725004Y-135613794D01*
X125552009Y-135488106D01*
X125552005Y-135488103D01*
X125548132Y-135485730D01*
X125501254Y-135433920D01*
X125489829Y-135364991D01*
X125517483Y-135300827D01*
X125548132Y-135274270D01*
X125552005Y-135271896D01*
X125552004Y-135271896D01*
X125552009Y-135271894D01*
X125725004Y-135146206D01*
X125876206Y-134995004D01*
X126001894Y-134822009D01*
X126004283Y-134817319D01*
X126052254Y-134766522D01*
X126120074Y-134749724D01*
X126186210Y-134772258D01*
G37*
%TD.AperFunction*%
%TA.AperFunction,Conductor*%
G36*
X93169173Y-134787483D02*
G01*
X93195730Y-134818132D01*
X93198103Y-134822005D01*
X93198105Y-134822008D01*
X93198106Y-134822009D01*
X93323794Y-134995004D01*
X93474996Y-135146206D01*
X93557579Y-135206206D01*
X93647992Y-135271895D01*
X93652683Y-135274285D01*
X93703480Y-135322259D01*
X93720275Y-135390080D01*
X93697738Y-135456215D01*
X93668386Y-135485728D01*
X93523709Y-135588903D01*
X93491179Y-135600186D01*
X93458790Y-135611743D01*
X93458234Y-135611613D01*
X93457698Y-135611800D01*
X93424273Y-135603716D01*
X93390737Y-135595917D01*
X93390134Y-135595459D01*
X93389786Y-135595375D01*
X93389158Y-135594717D01*
X93364031Y-135575626D01*
X92900459Y-135112054D01*
X92866974Y-135050731D01*
X92871958Y-134981039D01*
X92887819Y-134951491D01*
X92981894Y-134822009D01*
X92981898Y-134822001D01*
X92984270Y-134818132D01*
X93036080Y-134771254D01*
X93105009Y-134759829D01*
X93169173Y-134787483D01*
G37*
%TD.AperFunction*%
%TA.AperFunction,Conductor*%
G36*
X90811367Y-132984785D02*
G01*
X90857122Y-133037589D01*
X90867066Y-133106747D01*
X90838041Y-133170303D01*
X90832009Y-133176781D01*
X90783796Y-133224993D01*
X90658103Y-133397994D01*
X90655709Y-133402693D01*
X90607731Y-133453485D01*
X90539908Y-133470275D01*
X90473775Y-133447732D01*
X90437800Y-133406210D01*
X90437168Y-133406598D01*
X90434829Y-133402781D01*
X90434743Y-133402682D01*
X90434620Y-133402441D01*
X90309727Y-133230540D01*
X90309723Y-133230535D01*
X90255969Y-133176781D01*
X90222484Y-133115458D01*
X90227468Y-133045766D01*
X90269340Y-132989833D01*
X90334804Y-132965416D01*
X90343650Y-132965100D01*
X90744328Y-132965100D01*
X90811367Y-132984785D01*
G37*
%TD.AperFunction*%
%TA.AperFunction,Conductor*%
G36*
X93351367Y-132984785D02*
G01*
X93397122Y-133037589D01*
X93407066Y-133106747D01*
X93378041Y-133170303D01*
X93372009Y-133176781D01*
X93323796Y-133224993D01*
X93198105Y-133397991D01*
X93195727Y-133401873D01*
X93143914Y-133448748D01*
X93074984Y-133460169D01*
X93010822Y-133432512D01*
X92984273Y-133401873D01*
X92981894Y-133397991D01*
X92981890Y-133397986D01*
X92856206Y-133224996D01*
X92807991Y-133176781D01*
X92774506Y-133115458D01*
X92779490Y-133045766D01*
X92821362Y-132989833D01*
X92886826Y-132965416D01*
X92895672Y-132965100D01*
X93284328Y-132965100D01*
X93351367Y-132984785D01*
G37*
%TD.AperFunction*%
%TA.AperFunction,Conductor*%
G36*
X123356299Y-59369038D02*
G01*
X123378388Y-59370618D01*
X123389172Y-59378690D01*
X123402093Y-59382485D01*
X123416591Y-59399216D01*
X123434322Y-59412490D01*
X123439029Y-59425111D01*
X123447848Y-59435289D01*
X123450999Y-59457205D01*
X123458738Y-59477955D01*
X123457158Y-59500040D01*
X123457792Y-59504447D01*
X123456220Y-59513159D01*
X123444333Y-59567796D01*
X123444333Y-59567801D01*
X123441500Y-59615359D01*
X123441500Y-59615369D01*
X123441500Y-59615371D01*
X123441500Y-59784627D01*
X123441500Y-59784629D01*
X123441501Y-59784640D01*
X123444333Y-59832199D01*
X123444334Y-59832203D01*
X123489330Y-60039048D01*
X123489335Y-60039063D01*
X123572664Y-60233657D01*
X123572666Y-60233661D01*
X123572668Y-60233664D01*
X123691326Y-60408981D01*
X123841019Y-60558674D01*
X124016336Y-60677332D01*
X124016340Y-60677333D01*
X124016342Y-60677335D01*
X124074303Y-60702155D01*
X124210942Y-60760667D01*
X124417801Y-60805667D01*
X124465359Y-60808500D01*
X126034640Y-60808499D01*
X126082199Y-60805667D01*
X126289058Y-60760667D01*
X126483664Y-60677332D01*
X126658981Y-60558674D01*
X126808674Y-60408981D01*
X126927332Y-60233664D01*
X127010667Y-60039058D01*
X127055667Y-59832199D01*
X127058500Y-59784641D01*
X127058499Y-59615360D01*
X127055667Y-59567801D01*
X127043780Y-59513158D01*
X127048764Y-59443467D01*
X127090635Y-59387533D01*
X127156100Y-59363116D01*
X127164946Y-59362800D01*
X130806807Y-59362800D01*
X130873846Y-59382485D01*
X130919601Y-59435289D01*
X130929545Y-59504447D01*
X130927973Y-59513158D01*
X130905738Y-59615372D01*
X130894333Y-59667801D01*
X130891500Y-59715359D01*
X130891500Y-59715369D01*
X130891500Y-59715371D01*
X130891500Y-61284627D01*
X130891500Y-61284629D01*
X130891501Y-61284640D01*
X130894333Y-61332199D01*
X130894334Y-61332203D01*
X130939330Y-61539048D01*
X130939335Y-61539063D01*
X131022664Y-61733657D01*
X131022666Y-61733661D01*
X131022668Y-61733664D01*
X131141326Y-61908981D01*
X131291019Y-62058674D01*
X131466336Y-62177332D01*
X131466340Y-62177333D01*
X131466342Y-62177335D01*
X131563639Y-62218999D01*
X131660942Y-62260667D01*
X131867801Y-62305667D01*
X131915359Y-62308500D01*
X132084640Y-62308499D01*
X132132199Y-62305667D01*
X132339058Y-62260667D01*
X132533664Y-62177332D01*
X132708981Y-62058674D01*
X132858674Y-61908981D01*
X132977332Y-61733664D01*
X133060667Y-61539058D01*
X133105667Y-61332199D01*
X133108500Y-61284641D01*
X133108499Y-59715360D01*
X133105667Y-59667801D01*
X133072026Y-59513157D01*
X133077010Y-59443467D01*
X133118881Y-59387533D01*
X133184346Y-59363116D01*
X133193192Y-59362800D01*
X137573534Y-59362800D01*
X137640573Y-59382485D01*
X137661215Y-59399119D01*
X138258447Y-59996351D01*
X138291932Y-60057674D01*
X138288700Y-60122342D01*
X138284950Y-60133883D01*
X138256043Y-60316398D01*
X138251500Y-60345084D01*
X138251500Y-60558916D01*
X138264759Y-60642627D01*
X138284951Y-60770117D01*
X138351026Y-60973480D01*
X138351027Y-60973483D01*
X138423985Y-61116669D01*
X138448106Y-61164009D01*
X138573794Y-61337004D01*
X138724996Y-61488206D01*
X138725002Y-61488210D01*
X138726263Y-61489127D01*
X138726625Y-61489597D01*
X138728701Y-61491370D01*
X138728328Y-61491806D01*
X138768925Y-61544459D01*
X138774900Y-61614073D01*
X138742290Y-61675866D01*
X138697201Y-61704122D01*
X138697421Y-61704592D01*
X138693636Y-61706356D01*
X138692380Y-61707144D01*
X138690885Y-61707639D01*
X138690875Y-61707643D01*
X138541654Y-61799684D01*
X138417684Y-61923654D01*
X138325643Y-62072875D01*
X138325641Y-62072880D01*
X138270494Y-62239302D01*
X138270493Y-62239309D01*
X138260000Y-62342013D01*
X138260000Y-62742000D01*
X139176988Y-62742000D01*
X139144075Y-62799007D01*
X139110000Y-62926174D01*
X139110000Y-63057826D01*
X139144075Y-63184993D01*
X139176988Y-63242000D01*
X138260001Y-63242000D01*
X138260001Y-63641986D01*
X138270494Y-63744697D01*
X138325641Y-63911119D01*
X138325643Y-63911124D01*
X138417684Y-64060345D01*
X138541654Y-64184315D01*
X138690875Y-64276356D01*
X138690880Y-64276358D01*
X138857302Y-64331505D01*
X138857309Y-64331506D01*
X138960019Y-64341999D01*
X139359999Y-64341999D01*
X139360000Y-64341998D01*
X139360000Y-63425012D01*
X139417007Y-63457925D01*
X139544174Y-63492000D01*
X139675826Y-63492000D01*
X139802993Y-63457925D01*
X139860000Y-63425012D01*
X139860000Y-64341999D01*
X140259972Y-64341999D01*
X140259986Y-64341998D01*
X140362697Y-64331505D01*
X140529119Y-64276358D01*
X140529124Y-64276356D01*
X140678345Y-64184315D01*
X140802315Y-64060345D01*
X140894355Y-63911124D01*
X140894849Y-63909636D01*
X140895464Y-63908746D01*
X140897408Y-63904579D01*
X140898119Y-63904910D01*
X140934616Y-63852187D01*
X140999129Y-63825357D01*
X141067906Y-63837666D01*
X141110313Y-63873568D01*
X141110630Y-63873299D01*
X141112288Y-63875240D01*
X141112870Y-63875733D01*
X141113668Y-63876830D01*
X141113794Y-63877004D01*
X141264996Y-64028206D01*
X141437991Y-64153894D01*
X141514727Y-64192993D01*
X141628516Y-64250972D01*
X141628519Y-64250973D01*
X141649876Y-64257912D01*
X141831884Y-64317049D01*
X142043084Y-64350500D01*
X142043085Y-64350500D01*
X142136233Y-64350500D01*
X142203272Y-64370185D01*
X142249027Y-64422989D01*
X142258971Y-64492147D01*
X142229946Y-64555703D01*
X142223914Y-64562181D01*
X140979715Y-65806381D01*
X140918392Y-65839866D01*
X140892034Y-65842700D01*
X129844703Y-65842700D01*
X129777664Y-65823015D01*
X129731909Y-65770211D01*
X129724900Y-65746939D01*
X129724049Y-65747144D01*
X129722914Y-65742415D01*
X129669408Y-65577742D01*
X129590801Y-65423471D01*
X129586290Y-65417262D01*
X129586289Y-65417261D01*
X129050000Y-65953552D01*
X129050000Y-65947339D01*
X129022741Y-65845606D01*
X128970080Y-65754394D01*
X128895606Y-65679920D01*
X128804394Y-65627259D01*
X128702661Y-65600000D01*
X128696447Y-65600000D01*
X129232737Y-65063709D01*
X129226525Y-65059196D01*
X129072259Y-64980592D01*
X128907584Y-64927085D01*
X128736571Y-64900000D01*
X128563429Y-64900000D01*
X128392415Y-64927085D01*
X128227740Y-64980592D01*
X128073480Y-65059193D01*
X128073463Y-65059203D01*
X128067261Y-65063708D01*
X128067261Y-65063709D01*
X128603554Y-65600000D01*
X128597339Y-65600000D01*
X128495606Y-65627259D01*
X128404394Y-65679920D01*
X128329920Y-65754394D01*
X128277259Y-65845606D01*
X128250000Y-65947339D01*
X128250000Y-65953552D01*
X127713709Y-65417261D01*
X127713708Y-65417261D01*
X127709203Y-65423463D01*
X127709193Y-65423480D01*
X127630592Y-65577740D01*
X127577085Y-65742415D01*
X127550000Y-65913428D01*
X127550000Y-66086571D01*
X127577085Y-66257584D01*
X127630592Y-66422259D01*
X127709196Y-66576525D01*
X127713709Y-66582736D01*
X127713709Y-66582737D01*
X128250000Y-66046446D01*
X128250000Y-66052661D01*
X128277259Y-66154394D01*
X128329920Y-66245606D01*
X128404394Y-66320080D01*
X128495606Y-66372741D01*
X128597339Y-66400000D01*
X128603553Y-66400000D01*
X128067261Y-66936289D01*
X128067262Y-66936290D01*
X128073470Y-66940801D01*
X128094070Y-66951297D01*
X128144867Y-66999271D01*
X128161663Y-67067091D01*
X128152339Y-67109234D01*
X128132070Y-67158169D01*
X128132068Y-67158176D01*
X128101000Y-67314365D01*
X128101000Y-67473634D01*
X128132068Y-67629823D01*
X128132070Y-67629831D01*
X128193015Y-67776964D01*
X128193019Y-67776972D01*
X128198533Y-67785224D01*
X128219410Y-67851902D01*
X128200925Y-67919282D01*
X128183116Y-67941790D01*
X128170502Y-67954405D01*
X128170493Y-67954416D01*
X128082017Y-68086830D01*
X128021070Y-68233968D01*
X128021068Y-68233976D01*
X127990000Y-68390165D01*
X127990000Y-68549434D01*
X128021068Y-68705623D01*
X128021070Y-68705631D01*
X128082017Y-68852769D01*
X128170495Y-68985187D01*
X128170501Y-68985194D01*
X128283105Y-69097798D01*
X128283112Y-69097804D01*
X128415530Y-69186282D01*
X128415531Y-69186282D01*
X128415532Y-69186283D01*
X128562669Y-69247230D01*
X128688962Y-69272351D01*
X128718865Y-69278299D01*
X128718869Y-69278300D01*
X128718870Y-69278300D01*
X128878130Y-69278300D01*
X128908037Y-69272351D01*
X128977626Y-69278577D01*
X129032804Y-69321440D01*
X129056050Y-69387329D01*
X129047819Y-69435424D01*
X129048538Y-69435642D01*
X129046805Y-69441353D01*
X129046797Y-69441402D01*
X129046772Y-69441459D01*
X129046768Y-69441476D01*
X129015700Y-69597665D01*
X129015700Y-69756934D01*
X129046768Y-69913123D01*
X129046770Y-69913131D01*
X129107717Y-70060269D01*
X129196195Y-70192687D01*
X129196201Y-70192694D01*
X129308806Y-70305299D01*
X129308809Y-70305301D01*
X129308811Y-70305303D01*
X129397256Y-70364399D01*
X129442059Y-70418009D01*
X129450767Y-70487334D01*
X129420613Y-70550362D01*
X129361171Y-70587081D01*
X129328365Y-70591500D01*
X129192727Y-70591500D01*
X129121355Y-70597985D01*
X129121344Y-70597988D01*
X128957090Y-70649171D01*
X128809841Y-70738186D01*
X128688186Y-70859841D01*
X128599173Y-71007086D01*
X128547986Y-71171354D01*
X128541500Y-71242737D01*
X128541500Y-71757272D01*
X128547985Y-71828645D01*
X128547986Y-71828650D01*
X128579725Y-71930504D01*
X128580875Y-72000364D01*
X128549020Y-72055074D01*
X128359913Y-72244182D01*
X128298593Y-72277666D01*
X128272234Y-72280500D01*
X127382500Y-72280500D01*
X127315461Y-72260815D01*
X127269706Y-72208011D01*
X127258500Y-72156500D01*
X127258500Y-71065362D01*
X127258499Y-71065345D01*
X127252869Y-71012989D01*
X127251989Y-71004799D01*
X127251246Y-71002808D01*
X127228006Y-70940500D01*
X127200889Y-70867796D01*
X127113261Y-70750739D01*
X126996204Y-70663111D01*
X126859203Y-70612011D01*
X126798654Y-70605500D01*
X126798638Y-70605500D01*
X125201362Y-70605500D01*
X125201345Y-70605500D01*
X125140797Y-70612011D01*
X125140795Y-70612011D01*
X125003795Y-70663111D01*
X124886739Y-70750739D01*
X124799111Y-70867795D01*
X124799109Y-70867798D01*
X124768587Y-70949630D01*
X124726715Y-71005563D01*
X124699860Y-71020856D01*
X124623225Y-71052600D01*
X124623218Y-71052603D01*
X124519467Y-71121928D01*
X124519463Y-71121931D01*
X122648115Y-72993281D01*
X122586792Y-73026766D01*
X122560434Y-73029600D01*
X119251977Y-73029600D01*
X119184938Y-73009915D01*
X119183087Y-73008703D01*
X119090166Y-72946615D01*
X118943031Y-72885670D01*
X118943023Y-72885668D01*
X118786834Y-72854600D01*
X118786830Y-72854600D01*
X118627570Y-72854600D01*
X118627565Y-72854600D01*
X118471376Y-72885668D01*
X118471368Y-72885670D01*
X118324230Y-72946617D01*
X118191812Y-73035095D01*
X118191805Y-73035101D01*
X118079201Y-73147705D01*
X118079195Y-73147712D01*
X117990717Y-73280130D01*
X117929770Y-73427268D01*
X117929768Y-73427276D01*
X117898700Y-73583465D01*
X117898700Y-73742734D01*
X117929768Y-73898923D01*
X117929770Y-73898931D01*
X117990717Y-74046069D01*
X118079195Y-74178487D01*
X118079201Y-74178494D01*
X118191805Y-74291098D01*
X118191812Y-74291104D01*
X118324230Y-74379582D01*
X118324231Y-74379582D01*
X118324232Y-74379583D01*
X118471369Y-74440530D01*
X118627565Y-74471599D01*
X118627569Y-74471600D01*
X118627570Y-74471600D01*
X118786831Y-74471600D01*
X118786832Y-74471599D01*
X118943031Y-74440530D01*
X119068619Y-74388508D01*
X119090166Y-74379584D01*
X119090166Y-74379583D01*
X119090168Y-74379583D01*
X119183087Y-74317496D01*
X119249764Y-74296620D01*
X119251977Y-74296600D01*
X122936595Y-74296600D01*
X122936596Y-74296599D01*
X123058985Y-74272255D01*
X123174275Y-74224500D01*
X123278033Y-74155171D01*
X124525764Y-72907439D01*
X124587085Y-72873956D01*
X124656776Y-72878940D01*
X124712710Y-72920811D01*
X124736382Y-72978935D01*
X124753997Y-73112729D01*
X124788074Y-73239902D01*
X124839366Y-73363734D01*
X124839374Y-73363750D01*
X124905192Y-73477749D01*
X124905204Y-73477767D01*
X124986802Y-73584106D01*
X124986810Y-73584115D01*
X125079885Y-73677190D01*
X125079893Y-73677197D01*
X125186232Y-73758795D01*
X125186236Y-73758797D01*
X125186243Y-73758803D01*
X125186250Y-73758807D01*
X125300249Y-73824625D01*
X125300265Y-73824633D01*
X125382819Y-73858827D01*
X125424101Y-73875927D01*
X125551268Y-73910002D01*
X125684174Y-73927500D01*
X125684181Y-73927500D01*
X126315819Y-73927500D01*
X126315826Y-73927500D01*
X126448732Y-73910002D01*
X126575899Y-73875927D01*
X126667006Y-73838189D01*
X126699734Y-73824633D01*
X126699737Y-73824631D01*
X126699743Y-73824629D01*
X126813757Y-73758803D01*
X126920106Y-73677198D01*
X126920110Y-73677193D01*
X126920115Y-73677190D01*
X127013486Y-73583819D01*
X127074809Y-73550334D01*
X127101167Y-73547500D01*
X128648395Y-73547500D01*
X128648396Y-73547499D01*
X128770785Y-73523155D01*
X128886075Y-73475400D01*
X128989833Y-73406071D01*
X129951085Y-72444817D01*
X130012408Y-72411333D01*
X130038766Y-72408499D01*
X130807271Y-72408499D01*
X130878644Y-72402014D01*
X130878647Y-72402013D01*
X130878649Y-72402013D01*
X131042913Y-72350827D01*
X131190155Y-72261816D01*
X131282153Y-72169817D01*
X131309084Y-72155111D01*
X131334898Y-72138523D01*
X131341097Y-72137631D01*
X131343474Y-72136334D01*
X131369833Y-72133500D01*
X131417500Y-72133500D01*
X131484539Y-72153185D01*
X131530294Y-72205989D01*
X131541500Y-72257500D01*
X131541500Y-72707272D01*
X131547985Y-72778645D01*
X131547988Y-72778655D01*
X131599171Y-72942909D01*
X131599172Y-72942911D01*
X131599173Y-72942913D01*
X131654903Y-73035101D01*
X131688186Y-73090158D01*
X131809841Y-73211813D01*
X131809843Y-73211814D01*
X131809845Y-73211816D01*
X131957087Y-73300827D01*
X132121351Y-73352013D01*
X132192735Y-73358500D01*
X132961233Y-73358499D01*
X133028272Y-73378183D01*
X133048914Y-73394818D01*
X134228915Y-74574819D01*
X134262400Y-74636142D01*
X134257416Y-74705834D01*
X134215544Y-74761767D01*
X134150080Y-74786184D01*
X134141234Y-74786500D01*
X120446773Y-74786500D01*
X120379734Y-74766815D01*
X120377883Y-74765603D01*
X120283166Y-74702315D01*
X120136031Y-74641370D01*
X120136023Y-74641368D01*
X119979834Y-74610300D01*
X119979830Y-74610300D01*
X119820570Y-74610300D01*
X119820565Y-74610300D01*
X119664376Y-74641368D01*
X119664368Y-74641370D01*
X119517230Y-74702317D01*
X119384812Y-74790795D01*
X119384805Y-74790801D01*
X119272201Y-74903405D01*
X119272195Y-74903412D01*
X119183717Y-75035830D01*
X119122770Y-75182968D01*
X119122768Y-75182976D01*
X119091700Y-75339165D01*
X119091700Y-75498434D01*
X119122768Y-75654623D01*
X119122770Y-75654631D01*
X119183717Y-75801769D01*
X119272195Y-75934187D01*
X119272201Y-75934194D01*
X119384805Y-76046798D01*
X119384812Y-76046804D01*
X119517230Y-76135282D01*
X119517231Y-76135282D01*
X119517232Y-76135283D01*
X119664369Y-76196230D01*
X119797233Y-76222658D01*
X119820565Y-76227299D01*
X119820569Y-76227300D01*
X119820570Y-76227300D01*
X119979831Y-76227300D01*
X119979832Y-76227299D01*
X120136031Y-76196230D01*
X120283168Y-76135283D01*
X120374291Y-76074396D01*
X120440968Y-76053520D01*
X120443181Y-76053500D01*
X131809383Y-76053500D01*
X131876422Y-76073185D01*
X131922177Y-76125989D01*
X131932121Y-76195147D01*
X131903096Y-76258703D01*
X131873533Y-76283617D01*
X131815122Y-76318927D01*
X131694927Y-76439122D01*
X131606980Y-76584604D01*
X131556409Y-76746893D01*
X131550000Y-76817427D01*
X131550000Y-76824000D01*
X134449999Y-76824000D01*
X134449999Y-76817417D01*
X134443591Y-76746897D01*
X134443590Y-76746892D01*
X134393018Y-76584603D01*
X134305072Y-76439122D01*
X134184877Y-76318927D01*
X134126467Y-76283617D01*
X134079279Y-76232089D01*
X134067441Y-76163229D01*
X134094710Y-76098901D01*
X134152429Y-76059527D01*
X134190617Y-76053500D01*
X135267500Y-76053500D01*
X135334539Y-76073185D01*
X135380294Y-76125989D01*
X135391500Y-76177500D01*
X135391500Y-76661233D01*
X135371815Y-76728272D01*
X135355181Y-76748914D01*
X134749915Y-77354181D01*
X134722987Y-77368884D01*
X134697169Y-77385477D01*
X134690968Y-77386368D01*
X134688592Y-77387666D01*
X134662234Y-77390500D01*
X134567862Y-77390500D01*
X134500823Y-77370815D01*
X134480181Y-77354181D01*
X134450000Y-77324000D01*
X131550001Y-77324000D01*
X131519820Y-77354181D01*
X131492892Y-77368884D01*
X131467074Y-77385477D01*
X131460873Y-77386368D01*
X131458497Y-77387666D01*
X131432139Y-77390500D01*
X131369833Y-77390500D01*
X131302794Y-77370815D01*
X131282156Y-77354185D01*
X131190155Y-77262184D01*
X131042913Y-77173173D01*
X130878649Y-77121987D01*
X130878647Y-77121986D01*
X130878645Y-77121986D01*
X130828667Y-77117444D01*
X130807265Y-77115500D01*
X130807262Y-77115500D01*
X129192727Y-77115500D01*
X129121355Y-77121985D01*
X129121344Y-77121988D01*
X128957090Y-77173171D01*
X128809841Y-77262186D01*
X128809840Y-77262187D01*
X128716500Y-77355528D01*
X128655177Y-77389013D01*
X128653010Y-77389464D01*
X128525422Y-77414843D01*
X128525414Y-77414845D01*
X128410127Y-77462598D01*
X128410118Y-77462603D01*
X128306370Y-77531926D01*
X128306367Y-77531929D01*
X128279160Y-77559134D01*
X128217838Y-77592618D01*
X128215673Y-77593068D01*
X128106076Y-77614868D01*
X128106068Y-77614870D01*
X127958930Y-77675817D01*
X127826512Y-77764295D01*
X127826505Y-77764301D01*
X127713901Y-77876905D01*
X127713895Y-77876912D01*
X127625417Y-78009330D01*
X127564470Y-78156468D01*
X127564468Y-78156476D01*
X127533400Y-78312665D01*
X127533400Y-78471934D01*
X127564468Y-78628123D01*
X127564470Y-78628131D01*
X127625417Y-78775269D01*
X127713895Y-78907687D01*
X127713901Y-78907694D01*
X127715126Y-78908919D01*
X127715562Y-78909719D01*
X127717766Y-78912404D01*
X127717257Y-78912821D01*
X127748611Y-78970242D01*
X127743627Y-79039934D01*
X127701755Y-79095867D01*
X127636291Y-79120284D01*
X127627445Y-79120600D01*
X126555152Y-79120600D01*
X126488113Y-79100915D01*
X126442358Y-79048111D01*
X126432414Y-78978953D01*
X126440591Y-78949148D01*
X126451719Y-78922280D01*
X126458055Y-78906985D01*
X126482400Y-78784594D01*
X126482400Y-78659806D01*
X126482400Y-77844406D01*
X126458055Y-77722015D01*
X126410300Y-77606725D01*
X126410299Y-77606724D01*
X126410296Y-77606718D01*
X126340971Y-77502967D01*
X126340968Y-77502963D01*
X126301668Y-77463664D01*
X126268182Y-77402341D01*
X126267746Y-77400250D01*
X126245930Y-77290569D01*
X126184983Y-77143432D01*
X126179292Y-77134915D01*
X126096504Y-77011012D01*
X126096498Y-77011005D01*
X125983894Y-76898401D01*
X125983887Y-76898395D01*
X125851469Y-76809917D01*
X125704331Y-76748970D01*
X125704323Y-76748968D01*
X125548134Y-76717900D01*
X125548130Y-76717900D01*
X125388870Y-76717900D01*
X125388865Y-76717900D01*
X125232676Y-76748968D01*
X125232668Y-76748970D01*
X125085533Y-76809916D01*
X124960296Y-76893596D01*
X124893618Y-76914473D01*
X124843958Y-76905056D01*
X124837234Y-76902271D01*
X124837232Y-76902270D01*
X124837231Y-76902270D01*
X124837228Y-76902269D01*
X124837223Y-76902268D01*
X124681034Y-76871200D01*
X124681030Y-76871200D01*
X124521770Y-76871200D01*
X124521765Y-76871200D01*
X124365576Y-76902268D01*
X124365568Y-76902270D01*
X124218430Y-76963217D01*
X124086012Y-77051695D01*
X124086011Y-77051696D01*
X124060619Y-77077089D01*
X124019425Y-77118282D01*
X123958105Y-77151766D01*
X123931746Y-77154600D01*
X122996771Y-77154600D01*
X122929732Y-77134915D01*
X122883977Y-77082111D01*
X122875154Y-77054791D01*
X122852430Y-76940553D01*
X122849430Y-76925469D01*
X122788483Y-76778332D01*
X122772488Y-76754394D01*
X122700004Y-76645912D01*
X122699998Y-76645905D01*
X122587394Y-76533301D01*
X122587387Y-76533295D01*
X122454969Y-76444817D01*
X122307831Y-76383870D01*
X122307823Y-76383868D01*
X122151634Y-76352800D01*
X122151630Y-76352800D01*
X121992370Y-76352800D01*
X121992365Y-76352800D01*
X121836176Y-76383868D01*
X121836168Y-76383870D01*
X121689033Y-76444815D01*
X121596113Y-76506903D01*
X121529436Y-76527780D01*
X121527223Y-76527800D01*
X109703167Y-76527800D01*
X109636128Y-76508115D01*
X109615486Y-76491481D01*
X108896936Y-75772931D01*
X108896932Y-75772928D01*
X108793181Y-75703603D01*
X108793172Y-75703598D01*
X108677885Y-75655845D01*
X108677877Y-75655843D01*
X108555498Y-75631500D01*
X108555494Y-75631500D01*
X101097263Y-75631500D01*
X101030224Y-75611815D01*
X100991726Y-75572599D01*
X100957030Y-75516348D01*
X100831652Y-75390970D01*
X100680738Y-75297885D01*
X100680735Y-75297884D01*
X100512427Y-75242113D01*
X100408546Y-75231500D01*
X99607462Y-75231500D01*
X99607446Y-75231501D01*
X99503572Y-75242113D01*
X99335264Y-75297884D01*
X99335259Y-75297886D01*
X99184346Y-75390971D01*
X99095681Y-75479637D01*
X99034358Y-75513122D01*
X98964666Y-75508138D01*
X98920319Y-75479637D01*
X98831653Y-75390971D01*
X98831652Y-75390970D01*
X98680738Y-75297885D01*
X98680735Y-75297884D01*
X98512427Y-75242113D01*
X98408546Y-75231500D01*
X97607462Y-75231500D01*
X97607446Y-75231501D01*
X97503572Y-75242113D01*
X97335264Y-75297884D01*
X97335259Y-75297886D01*
X97184346Y-75390971D01*
X97058971Y-75516346D01*
X96965886Y-75667259D01*
X96965884Y-75667264D01*
X96910113Y-75835572D01*
X96899500Y-75939447D01*
X96899500Y-76940537D01*
X96899501Y-76940553D01*
X96910113Y-77044427D01*
X96942919Y-77143430D01*
X96965885Y-77212738D01*
X97058970Y-77363652D01*
X97184348Y-77489030D01*
X97335262Y-77582115D01*
X97503574Y-77637887D01*
X97607455Y-77648500D01*
X98269231Y-77648499D01*
X98336270Y-77668183D01*
X98356912Y-77684818D01*
X98677963Y-78005869D01*
X98677967Y-78005872D01*
X98781721Y-78075199D01*
X98781723Y-78075199D01*
X98781725Y-78075201D01*
X98863247Y-78108968D01*
X98897015Y-78122955D01*
X98897017Y-78122955D01*
X98897022Y-78122957D01*
X99019401Y-78147299D01*
X99019405Y-78147300D01*
X102054759Y-78147300D01*
X102121798Y-78166985D01*
X102167553Y-78219789D01*
X102177497Y-78288947D01*
X102160876Y-78335450D01*
X102106980Y-78424603D01*
X102056409Y-78586893D01*
X102050000Y-78657427D01*
X102050000Y-78664000D01*
X103376000Y-78664000D01*
X103384685Y-78666550D01*
X103393647Y-78665262D01*
X103417687Y-78676240D01*
X103443039Y-78683685D01*
X103448966Y-78690525D01*
X103457203Y-78694287D01*
X103471492Y-78716521D01*
X103488794Y-78736489D01*
X103491081Y-78747003D01*
X103494977Y-78753065D01*
X103500000Y-78788000D01*
X103500000Y-78984500D01*
X103480315Y-79051539D01*
X103427511Y-79097294D01*
X103376000Y-79108500D01*
X101177795Y-79108500D01*
X101110756Y-79088815D01*
X101065001Y-79036011D01*
X101060089Y-79023503D01*
X101042117Y-78969266D01*
X101039798Y-78965506D01*
X100949030Y-78818348D01*
X100823652Y-78692970D01*
X100672738Y-78599885D01*
X100633530Y-78586893D01*
X100504427Y-78544113D01*
X100400546Y-78533500D01*
X99599462Y-78533500D01*
X99599446Y-78533501D01*
X99495572Y-78544113D01*
X99327264Y-78599884D01*
X99327259Y-78599886D01*
X99176346Y-78692971D01*
X99087681Y-78781637D01*
X99026358Y-78815122D01*
X98956666Y-78810138D01*
X98912319Y-78781637D01*
X98823653Y-78692971D01*
X98823652Y-78692970D01*
X98672738Y-78599885D01*
X98633530Y-78586893D01*
X98504427Y-78544113D01*
X98400546Y-78533500D01*
X97599462Y-78533500D01*
X97599446Y-78533501D01*
X97495572Y-78544113D01*
X97327264Y-78599884D01*
X97327259Y-78599886D01*
X97176346Y-78692971D01*
X97050971Y-78818346D01*
X96957882Y-78969266D01*
X96939911Y-79023503D01*
X96900139Y-79080948D01*
X96835624Y-79107772D01*
X96822205Y-79108500D01*
X93437566Y-79108500D01*
X93370527Y-79088815D01*
X93349885Y-79072181D01*
X92608735Y-78331031D01*
X92575250Y-78269708D01*
X92580234Y-78200016D01*
X92622106Y-78144083D01*
X92640124Y-78132864D01*
X92681347Y-78111861D01*
X92725921Y-78079474D01*
X92046447Y-77400000D01*
X92052661Y-77400000D01*
X92154394Y-77372741D01*
X92245606Y-77320080D01*
X92320080Y-77245606D01*
X92372741Y-77154394D01*
X92400000Y-77052661D01*
X92400000Y-77046447D01*
X93079474Y-77725921D01*
X93111859Y-77681349D01*
X93204755Y-77499031D01*
X93267990Y-77304417D01*
X93300000Y-77102317D01*
X93300000Y-76897682D01*
X93267990Y-76695582D01*
X93204755Y-76500968D01*
X93111859Y-76318650D01*
X93079474Y-76274077D01*
X93079474Y-76274076D01*
X92400000Y-76953551D01*
X92400000Y-76947339D01*
X92372741Y-76845606D01*
X92320080Y-76754394D01*
X92245606Y-76679920D01*
X92154394Y-76627259D01*
X92052661Y-76600000D01*
X92046446Y-76600000D01*
X92725922Y-75920524D01*
X92725921Y-75920523D01*
X92681359Y-75888147D01*
X92681350Y-75888141D01*
X92628395Y-75861159D01*
X92577599Y-75813184D01*
X92560804Y-75745363D01*
X92583342Y-75679228D01*
X92596998Y-75663005D01*
X94634185Y-73625819D01*
X94695508Y-73592334D01*
X94721866Y-73589500D01*
X96830205Y-73589500D01*
X96897244Y-73609185D01*
X96942999Y-73661989D01*
X96947911Y-73674497D01*
X96965882Y-73728733D01*
X96965884Y-73728737D01*
X96965885Y-73728738D01*
X97058970Y-73879652D01*
X97184348Y-74005030D01*
X97335262Y-74098115D01*
X97503574Y-74153887D01*
X97607455Y-74164500D01*
X98408544Y-74164499D01*
X98512426Y-74153887D01*
X98680738Y-74098115D01*
X98831652Y-74005030D01*
X98920319Y-73916363D01*
X98981642Y-73882878D01*
X99051334Y-73887862D01*
X99095681Y-73916363D01*
X99184348Y-74005030D01*
X99335262Y-74098115D01*
X99503574Y-74153887D01*
X99607455Y-74164500D01*
X100408544Y-74164499D01*
X100512426Y-74153887D01*
X100680738Y-74098115D01*
X100831652Y-74005030D01*
X100957030Y-73879652D01*
X101050115Y-73728738D01*
X101105887Y-73560426D01*
X101116500Y-73456545D01*
X101116499Y-72826582D01*
X102050001Y-72826582D01*
X102056408Y-72897102D01*
X102056409Y-72897107D01*
X102106981Y-73059396D01*
X102194927Y-73204877D01*
X102315122Y-73325072D01*
X102460604Y-73413019D01*
X102460603Y-73413019D01*
X102622894Y-73463590D01*
X102622893Y-73463590D01*
X102693427Y-73469999D01*
X103249999Y-73469999D01*
X103750000Y-73469999D01*
X104306581Y-73469999D01*
X104377102Y-73463591D01*
X104377107Y-73463590D01*
X104539396Y-73413018D01*
X104684877Y-73325072D01*
X104805072Y-73204877D01*
X104893019Y-73059395D01*
X104943590Y-72897106D01*
X104950000Y-72826572D01*
X104950000Y-72820000D01*
X103750000Y-72820000D01*
X103750000Y-73469999D01*
X103249999Y-73469999D01*
X103250000Y-73469998D01*
X103250000Y-72820000D01*
X102050001Y-72820000D01*
X102050001Y-72826582D01*
X101116499Y-72826582D01*
X101116499Y-72794765D01*
X101125145Y-72765319D01*
X101131667Y-72735339D01*
X101135419Y-72730325D01*
X101136183Y-72727727D01*
X101152818Y-72707085D01*
X101178946Y-72680957D01*
X101570085Y-72289819D01*
X101631408Y-72256334D01*
X101657766Y-72253500D01*
X101932138Y-72253500D01*
X101999177Y-72273185D01*
X102019819Y-72289819D01*
X102050000Y-72320000D01*
X104949999Y-72320000D01*
X104980180Y-72289819D01*
X105007107Y-72275115D01*
X105032926Y-72258523D01*
X105039126Y-72257631D01*
X105041503Y-72256334D01*
X105067861Y-72253500D01*
X105130167Y-72253500D01*
X105197206Y-72273185D01*
X105217843Y-72289814D01*
X105309845Y-72381816D01*
X105457087Y-72470827D01*
X105621351Y-72522013D01*
X105692735Y-72528500D01*
X107307264Y-72528499D01*
X107307271Y-72528499D01*
X107378644Y-72522014D01*
X107378647Y-72522013D01*
X107378649Y-72522013D01*
X107542913Y-72470827D01*
X107690155Y-72381816D01*
X107811816Y-72260155D01*
X107900827Y-72112913D01*
X107952013Y-71948649D01*
X107958500Y-71877265D01*
X107958499Y-71362736D01*
X107958499Y-71362727D01*
X107952014Y-71291354D01*
X107952012Y-71291347D01*
X107920274Y-71189496D01*
X107920035Y-71175017D01*
X107914975Y-71161450D01*
X107919470Y-71140783D01*
X107919122Y-71119636D01*
X107927023Y-71106066D01*
X107929827Y-71093177D01*
X107950975Y-71064928D01*
X108039086Y-70976818D01*
X108100409Y-70943333D01*
X108126766Y-70940500D01*
X109117500Y-70940500D01*
X109184539Y-70960185D01*
X109230294Y-71012989D01*
X109241500Y-71064500D01*
X109241500Y-72155654D01*
X109248011Y-72216202D01*
X109248011Y-72216204D01*
X109286726Y-72320000D01*
X109299111Y-72353204D01*
X109386739Y-72470261D01*
X109503796Y-72557889D01*
X109640799Y-72608989D01*
X109668050Y-72611918D01*
X109701345Y-72615499D01*
X109701362Y-72615500D01*
X111298638Y-72615500D01*
X111298654Y-72615499D01*
X111325692Y-72612591D01*
X111359201Y-72608989D01*
X111496204Y-72557889D01*
X111613261Y-72470261D01*
X111700889Y-72353204D01*
X111712839Y-72321166D01*
X111754710Y-72265232D01*
X111820175Y-72240816D01*
X111829020Y-72240500D01*
X113189295Y-72240500D01*
X113189296Y-72240499D01*
X113311685Y-72216155D01*
X113426975Y-72168400D01*
X113530733Y-72099071D01*
X115629623Y-70000181D01*
X117760786Y-67869019D01*
X117822109Y-67835534D01*
X117848467Y-67832700D01*
X125013195Y-67832700D01*
X125013196Y-67832699D01*
X125135585Y-67808355D01*
X125250875Y-67760600D01*
X125354633Y-67691271D01*
X125909869Y-67136033D01*
X125971190Y-67102550D01*
X126016941Y-67101243D01*
X126062759Y-67108500D01*
X126062762Y-67108500D01*
X126237240Y-67108500D01*
X126237241Y-67108500D01*
X126409574Y-67081205D01*
X126575516Y-67027288D01*
X126730981Y-66948074D01*
X126872139Y-66845517D01*
X126995517Y-66722139D01*
X127098074Y-66580981D01*
X127177288Y-66425516D01*
X127231205Y-66259574D01*
X127258500Y-66087241D01*
X127258500Y-65912759D01*
X127231205Y-65740426D01*
X127200670Y-65646446D01*
X127177289Y-65574486D01*
X127177288Y-65574483D01*
X127134130Y-65489782D01*
X127098074Y-65419019D01*
X127003388Y-65288694D01*
X126995522Y-65277867D01*
X126995518Y-65277862D01*
X126872137Y-65154481D01*
X126872132Y-65154477D01*
X126730984Y-65051928D01*
X126730983Y-65051927D01*
X126730981Y-65051926D01*
X126646992Y-65009131D01*
X126575516Y-64972711D01*
X126575513Y-64972710D01*
X126409575Y-64918795D01*
X126323407Y-64905147D01*
X126237241Y-64891500D01*
X126062759Y-64891500D01*
X126012085Y-64899526D01*
X125890424Y-64918795D01*
X125724486Y-64972710D01*
X125724483Y-64972711D01*
X125569015Y-65051928D01*
X125427867Y-65154477D01*
X125427862Y-65154481D01*
X125304481Y-65277862D01*
X125304477Y-65277867D01*
X125201928Y-65419015D01*
X125122711Y-65574483D01*
X125122710Y-65574486D01*
X125068795Y-65740424D01*
X125041500Y-65912759D01*
X125041500Y-66087245D01*
X125048755Y-66133052D01*
X125039800Y-66202346D01*
X125013963Y-66240131D01*
X124724713Y-66529382D01*
X124663393Y-66562866D01*
X124637034Y-66565700D01*
X123002411Y-66565700D01*
X122935372Y-66546015D01*
X122889617Y-66493211D01*
X122879673Y-66424053D01*
X122884480Y-66403382D01*
X122902188Y-66348881D01*
X122931205Y-66259574D01*
X122958500Y-66087241D01*
X122958500Y-65912759D01*
X122931205Y-65740426D01*
X122900670Y-65646446D01*
X122877289Y-65574486D01*
X122877288Y-65574483D01*
X122834130Y-65489782D01*
X122798074Y-65419019D01*
X122703388Y-65288694D01*
X122695522Y-65277867D01*
X122695518Y-65277862D01*
X122572137Y-65154481D01*
X122572132Y-65154477D01*
X122430984Y-65051928D01*
X122430983Y-65051927D01*
X122430981Y-65051926D01*
X122346992Y-65009131D01*
X122275516Y-64972711D01*
X122275513Y-64972710D01*
X122109575Y-64918795D01*
X122023407Y-64905147D01*
X121937241Y-64891500D01*
X121762759Y-64891500D01*
X121712085Y-64899526D01*
X121590424Y-64918795D01*
X121424486Y-64972710D01*
X121424483Y-64972711D01*
X121269015Y-65051928D01*
X121127867Y-65154477D01*
X121127862Y-65154481D01*
X121004481Y-65277862D01*
X121004477Y-65277867D01*
X120901928Y-65419015D01*
X120822711Y-65574483D01*
X120822710Y-65574486D01*
X120768795Y-65740424D01*
X120741500Y-65912759D01*
X120741500Y-66087240D01*
X120768795Y-66259575D01*
X120815520Y-66403382D01*
X120817515Y-66473224D01*
X120781434Y-66533056D01*
X120718733Y-66563884D01*
X120697589Y-66565700D01*
X117472302Y-66565700D01*
X117349919Y-66590043D01*
X117349914Y-66590045D01*
X117316148Y-66604029D01*
X117316149Y-66604030D01*
X117234626Y-66637798D01*
X117234622Y-66637800D01*
X117130871Y-66707124D01*
X117130863Y-66707130D01*
X112900815Y-70937181D01*
X112839492Y-70970666D01*
X112813134Y-70973500D01*
X111887500Y-70973500D01*
X111820461Y-70953815D01*
X111774706Y-70901011D01*
X111763500Y-70849500D01*
X111763500Y-70241180D01*
X111763499Y-70241166D01*
X111755063Y-70177090D01*
X111746002Y-70108268D01*
X111711927Y-69981101D01*
X111683770Y-69913123D01*
X111660633Y-69857265D01*
X111660625Y-69857249D01*
X111594807Y-69743250D01*
X111594803Y-69743243D01*
X111513198Y-69636894D01*
X111513197Y-69636893D01*
X111513190Y-69636885D01*
X111420115Y-69543810D01*
X111420106Y-69543802D01*
X111313767Y-69462204D01*
X111313749Y-69462192D01*
X111199750Y-69396374D01*
X111199734Y-69396366D01*
X111075902Y-69345074D01*
X111075900Y-69345073D01*
X111075899Y-69345073D01*
X110948732Y-69310998D01*
X110948731Y-69310997D01*
X110948728Y-69310997D01*
X110815833Y-69293500D01*
X110815826Y-69293500D01*
X110184174Y-69293500D01*
X110184166Y-69293500D01*
X110051271Y-69310997D01*
X109924097Y-69345074D01*
X109800265Y-69396366D01*
X109800249Y-69396374D01*
X109686250Y-69462192D01*
X109686232Y-69462204D01*
X109579893Y-69543802D01*
X109486514Y-69637181D01*
X109425191Y-69670666D01*
X109398833Y-69673500D01*
X107750601Y-69673500D01*
X107628222Y-69697843D01*
X107628214Y-69697845D01*
X107512927Y-69745598D01*
X107512918Y-69745603D01*
X107409167Y-69814928D01*
X107409163Y-69814931D01*
X106548913Y-70675181D01*
X106487590Y-70708666D01*
X106461232Y-70711500D01*
X105692727Y-70711500D01*
X105621354Y-70717985D01*
X105621344Y-70717988D01*
X105457090Y-70769171D01*
X105309843Y-70858185D01*
X105267018Y-70901011D01*
X105217846Y-70950182D01*
X105190915Y-70964888D01*
X105165102Y-70981477D01*
X105158902Y-70982368D01*
X105156526Y-70983666D01*
X105130167Y-70986500D01*
X105082500Y-70986500D01*
X105015461Y-70966815D01*
X104969706Y-70914011D01*
X104958500Y-70862500D01*
X104958499Y-70412727D01*
X104952014Y-70341354D01*
X104952011Y-70341344D01*
X104900828Y-70177090D01*
X104900827Y-70177089D01*
X104900827Y-70177087D01*
X104811816Y-70029845D01*
X104811814Y-70029843D01*
X104811813Y-70029841D01*
X104690158Y-69908186D01*
X104605911Y-69857257D01*
X104542913Y-69819173D01*
X104378649Y-69767987D01*
X104378647Y-69767986D01*
X104378645Y-69767986D01*
X104328667Y-69763444D01*
X104307265Y-69761500D01*
X104307262Y-69761500D01*
X102692727Y-69761500D01*
X102621355Y-69767985D01*
X102621344Y-69767988D01*
X102457090Y-69819171D01*
X102309843Y-69908185D01*
X102263846Y-69954183D01*
X102217846Y-70000182D01*
X102156526Y-70033666D01*
X102130167Y-70036500D01*
X101240500Y-70036500D01*
X101173461Y-70016815D01*
X101127706Y-69964011D01*
X101116500Y-69912500D01*
X101116499Y-69302766D01*
X101136183Y-69235727D01*
X101152813Y-69215090D01*
X101927586Y-68440319D01*
X101988909Y-68406834D01*
X102015267Y-68404000D01*
X113067523Y-68404000D01*
X113134562Y-68423685D01*
X113136413Y-68424897D01*
X113229333Y-68486984D01*
X113295978Y-68514589D01*
X113376469Y-68547930D01*
X113532665Y-68578999D01*
X113532669Y-68579000D01*
X113532670Y-68579000D01*
X113691931Y-68579000D01*
X113691932Y-68578999D01*
X113848131Y-68547930D01*
X113995268Y-68486983D01*
X114127689Y-68398503D01*
X114240303Y-68285889D01*
X114328783Y-68153468D01*
X114389730Y-68006331D01*
X114420800Y-67850130D01*
X114420800Y-67690870D01*
X114389730Y-67534669D01*
X114328783Y-67387532D01*
X114279898Y-67314370D01*
X114240304Y-67255112D01*
X114240298Y-67255105D01*
X114127694Y-67142501D01*
X114127687Y-67142495D01*
X113995269Y-67054017D01*
X113848131Y-66993070D01*
X113848123Y-66993068D01*
X113691934Y-66962000D01*
X113691930Y-66962000D01*
X113532670Y-66962000D01*
X113532665Y-66962000D01*
X113376476Y-66993068D01*
X113376468Y-66993070D01*
X113229333Y-67054015D01*
X113136413Y-67116103D01*
X113069736Y-67136980D01*
X113067523Y-67137000D01*
X101639101Y-67137000D01*
X101516722Y-67161343D01*
X101516715Y-67161345D01*
X101483507Y-67175100D01*
X101401428Y-67209097D01*
X101401419Y-67209102D01*
X101297666Y-67278427D01*
X101297663Y-67278430D01*
X100356913Y-68219181D01*
X100295590Y-68252666D01*
X100269232Y-68255500D01*
X99607462Y-68255500D01*
X99607446Y-68255501D01*
X99503572Y-68266113D01*
X99335264Y-68321884D01*
X99335259Y-68321886D01*
X99184346Y-68414971D01*
X99095681Y-68503637D01*
X99034358Y-68537122D01*
X98964666Y-68532138D01*
X98920319Y-68503637D01*
X98831653Y-68414971D01*
X98831652Y-68414970D01*
X98680738Y-68321885D01*
X98680736Y-68321884D01*
X98680733Y-68321883D01*
X98611819Y-68299048D01*
X98554374Y-68259276D01*
X98527550Y-68194760D01*
X98539865Y-68125984D01*
X98563138Y-68093664D01*
X103415685Y-63241119D01*
X103477008Y-63207634D01*
X103503366Y-63204800D01*
X120629253Y-63204800D01*
X120696292Y-63224485D01*
X120742047Y-63277289D01*
X120751991Y-63346447D01*
X120751739Y-63348107D01*
X120741500Y-63412759D01*
X120741500Y-63587241D01*
X120752136Y-63654394D01*
X120768795Y-63759575D01*
X120822710Y-63925513D01*
X120822711Y-63925516D01*
X120871224Y-64020725D01*
X120900934Y-64079035D01*
X120901928Y-64080984D01*
X121004477Y-64222132D01*
X121004481Y-64222137D01*
X121127862Y-64345518D01*
X121127867Y-64345522D01*
X121199499Y-64397565D01*
X121269019Y-64448074D01*
X121370646Y-64499856D01*
X121424483Y-64527288D01*
X121424486Y-64527289D01*
X121507455Y-64554246D01*
X121590426Y-64581205D01*
X121762759Y-64608500D01*
X121762760Y-64608500D01*
X121937240Y-64608500D01*
X121937241Y-64608500D01*
X122109574Y-64581205D01*
X122275516Y-64527288D01*
X122430981Y-64448074D01*
X122572139Y-64345517D01*
X122695517Y-64222139D01*
X122798074Y-64080981D01*
X122798079Y-64080970D01*
X122799266Y-64079035D01*
X122799915Y-64078447D01*
X122800938Y-64077040D01*
X122801233Y-64077254D01*
X122851074Y-64032154D01*
X122920002Y-64020725D01*
X122984168Y-64048376D01*
X123005605Y-64073112D01*
X123006333Y-64072584D01*
X123013709Y-64082736D01*
X123013709Y-64082737D01*
X123550000Y-63546446D01*
X123550000Y-63552661D01*
X123577259Y-63654394D01*
X123629920Y-63745606D01*
X123704394Y-63820080D01*
X123795606Y-63872741D01*
X123897339Y-63900000D01*
X123903553Y-63900000D01*
X123367261Y-64436289D01*
X123367262Y-64436290D01*
X123373471Y-64440801D01*
X123527742Y-64519408D01*
X123692415Y-64572914D01*
X123863429Y-64600000D01*
X124036571Y-64600000D01*
X124207584Y-64572914D01*
X124372257Y-64519408D01*
X124526525Y-64440803D01*
X124532736Y-64436289D01*
X124532737Y-64436289D01*
X123996448Y-63900000D01*
X124002661Y-63900000D01*
X124104394Y-63872741D01*
X124195606Y-63820080D01*
X124270080Y-63745606D01*
X124322741Y-63654394D01*
X124350000Y-63552661D01*
X124350000Y-63546447D01*
X124886289Y-64082736D01*
X124890803Y-64076525D01*
X124969408Y-63922257D01*
X125022914Y-63757584D01*
X125050000Y-63586571D01*
X125050000Y-63413430D01*
X125039668Y-63348199D01*
X125042063Y-63329658D01*
X125039403Y-63311153D01*
X125046448Y-63295725D01*
X125048622Y-63278905D01*
X125060661Y-63264602D01*
X125068428Y-63247597D01*
X125082695Y-63238427D01*
X125093618Y-63225453D01*
X125111478Y-63219930D01*
X125127206Y-63209823D01*
X125158909Y-63205264D01*
X125160370Y-63204813D01*
X125162141Y-63204800D01*
X125307534Y-63204800D01*
X125374573Y-63224485D01*
X125395215Y-63241119D01*
X125413963Y-63259867D01*
X125447448Y-63321190D01*
X125448755Y-63366945D01*
X125441500Y-63412753D01*
X125441500Y-63412759D01*
X125441500Y-63587241D01*
X125452136Y-63654394D01*
X125468795Y-63759575D01*
X125522710Y-63925513D01*
X125522711Y-63925516D01*
X125571224Y-64020725D01*
X125600934Y-64079035D01*
X125601928Y-64080984D01*
X125704477Y-64222132D01*
X125704481Y-64222137D01*
X125827862Y-64345518D01*
X125827867Y-64345522D01*
X125899499Y-64397565D01*
X125969019Y-64448074D01*
X126070646Y-64499856D01*
X126124483Y-64527288D01*
X126124486Y-64527289D01*
X126207455Y-64554246D01*
X126290426Y-64581205D01*
X126462759Y-64608500D01*
X126462760Y-64608500D01*
X126637240Y-64608500D01*
X126637241Y-64608500D01*
X126809574Y-64581205D01*
X126975516Y-64527288D01*
X127130981Y-64448074D01*
X127272139Y-64345517D01*
X127395517Y-64222139D01*
X127395519Y-64222135D01*
X127395522Y-64222133D01*
X127499682Y-64078768D01*
X127555011Y-64036102D01*
X127624625Y-64030123D01*
X127686420Y-64062728D01*
X127700318Y-64078768D01*
X127804477Y-64222133D01*
X127927862Y-64345518D01*
X127927867Y-64345522D01*
X127999499Y-64397565D01*
X128069019Y-64448074D01*
X128170646Y-64499856D01*
X128224483Y-64527288D01*
X128224486Y-64527289D01*
X128307455Y-64554246D01*
X128390426Y-64581205D01*
X128562759Y-64608500D01*
X128562760Y-64608500D01*
X128737240Y-64608500D01*
X128737241Y-64608500D01*
X128909574Y-64581205D01*
X129075516Y-64527288D01*
X129230981Y-64448074D01*
X129372139Y-64345517D01*
X129495517Y-64222139D01*
X129598074Y-64080981D01*
X129677288Y-63925516D01*
X129731205Y-63759574D01*
X129758500Y-63587241D01*
X129758500Y-63412759D01*
X129731205Y-63240426D01*
X129730014Y-63236761D01*
X129727478Y-63228953D01*
X129727477Y-63228952D01*
X129677289Y-63074486D01*
X129677288Y-63074483D01*
X129623987Y-62969876D01*
X129598074Y-62919019D01*
X129516693Y-62807007D01*
X129495522Y-62777867D01*
X129495518Y-62777862D01*
X129372137Y-62654481D01*
X129372132Y-62654477D01*
X129230984Y-62551928D01*
X129230983Y-62551927D01*
X129230981Y-62551926D01*
X129137821Y-62504458D01*
X129075516Y-62472711D01*
X129075513Y-62472710D01*
X128909575Y-62418795D01*
X128783047Y-62398755D01*
X128737241Y-62391500D01*
X128562759Y-62391500D01*
X128516953Y-62398755D01*
X128390424Y-62418795D01*
X128224486Y-62472710D01*
X128224483Y-62472711D01*
X128069015Y-62551928D01*
X127927867Y-62654477D01*
X127927862Y-62654481D01*
X127804481Y-62777862D01*
X127804477Y-62777867D01*
X127700318Y-62921231D01*
X127644988Y-62963897D01*
X127575375Y-62969876D01*
X127513580Y-62937271D01*
X127499682Y-62921231D01*
X127395522Y-62777867D01*
X127395518Y-62777862D01*
X127272137Y-62654481D01*
X127272132Y-62654477D01*
X127130984Y-62551928D01*
X127130983Y-62551927D01*
X127130981Y-62551926D01*
X127037821Y-62504458D01*
X126975516Y-62472711D01*
X126975513Y-62472710D01*
X126809575Y-62418795D01*
X126683047Y-62398755D01*
X126637241Y-62391500D01*
X126462759Y-62391500D01*
X126462753Y-62391500D01*
X126416945Y-62398755D01*
X126347652Y-62389800D01*
X126309867Y-62363963D01*
X126025136Y-62079231D01*
X126025132Y-62079228D01*
X125921381Y-62009903D01*
X125921372Y-62009898D01*
X125806085Y-61962145D01*
X125806077Y-61962143D01*
X125683698Y-61937800D01*
X125683694Y-61937800D01*
X119572825Y-61937800D01*
X119505786Y-61918115D01*
X119460031Y-61865311D01*
X119450087Y-61796153D01*
X119470135Y-61744297D01*
X119477332Y-61733664D01*
X119560667Y-61539058D01*
X119605667Y-61332199D01*
X119608500Y-61284641D01*
X119608499Y-59715360D01*
X119605667Y-59667801D01*
X119572026Y-59513157D01*
X119577010Y-59443467D01*
X119618881Y-59387533D01*
X119684346Y-59363116D01*
X119693192Y-59362800D01*
X123335054Y-59362800D01*
X123356299Y-59369038D01*
G37*
%TD.AperFunction*%
%TA.AperFunction,Conductor*%
G36*
X132943039Y-70330485D02*
G01*
X132988794Y-70383289D01*
X133000000Y-70434800D01*
X133000000Y-70676000D01*
X132980315Y-70743039D01*
X132927511Y-70788794D01*
X132876000Y-70800000D01*
X131550001Y-70800000D01*
X131519820Y-70830181D01*
X131492892Y-70844884D01*
X131467074Y-70861477D01*
X131460873Y-70862368D01*
X131458497Y-70863666D01*
X131432139Y-70866500D01*
X131369833Y-70866500D01*
X131302794Y-70846815D01*
X131282156Y-70830185D01*
X131190155Y-70738184D01*
X131042913Y-70649173D01*
X130878649Y-70597987D01*
X130878647Y-70597986D01*
X130878645Y-70597986D01*
X130828667Y-70593444D01*
X130807265Y-70591500D01*
X130807262Y-70591500D01*
X130320036Y-70591500D01*
X130287537Y-70581957D01*
X130254867Y-70572994D01*
X130254098Y-70572138D01*
X130252997Y-70571815D01*
X130230831Y-70546234D01*
X130208178Y-70521014D01*
X130207994Y-70519878D01*
X130207242Y-70519011D01*
X130202421Y-70485488D01*
X130197003Y-70452044D01*
X130197461Y-70450990D01*
X130197298Y-70449853D01*
X130211370Y-70419038D01*
X130224890Y-70387981D01*
X130226015Y-70386969D01*
X130226323Y-70386297D01*
X130251140Y-70364401D01*
X130300089Y-70331695D01*
X130366766Y-70310820D01*
X130368977Y-70310800D01*
X132876000Y-70310800D01*
X132943039Y-70330485D01*
G37*
%TD.AperFunction*%
%TA.AperFunction,Conductor*%
G36*
X143437539Y-61102919D02*
G01*
X143440277Y-61102586D01*
X143469441Y-61116669D01*
X143499173Y-61129483D01*
X143501471Y-61132135D01*
X143503195Y-61132968D01*
X143525730Y-61160132D01*
X143528103Y-61164005D01*
X143528106Y-61164009D01*
X143653794Y-61337004D01*
X143804996Y-61488206D01*
X143968257Y-61606822D01*
X143977991Y-61613894D01*
X143981873Y-61616273D01*
X144028748Y-61668086D01*
X144040169Y-61737016D01*
X144012512Y-61801178D01*
X143981873Y-61827727D01*
X143977991Y-61830105D01*
X143804993Y-61955796D01*
X143653796Y-62106993D01*
X143528105Y-62279991D01*
X143525727Y-62283873D01*
X143473914Y-62330748D01*
X143404984Y-62342169D01*
X143340822Y-62314512D01*
X143314273Y-62283873D01*
X143311894Y-62279991D01*
X143222461Y-62156897D01*
X143186206Y-62106996D01*
X143035004Y-61955794D01*
X142862009Y-61830106D01*
X142862005Y-61830103D01*
X142858132Y-61827730D01*
X142811254Y-61775920D01*
X142799829Y-61706991D01*
X142827483Y-61642827D01*
X142858132Y-61616270D01*
X142862005Y-61613896D01*
X142862004Y-61613896D01*
X142862009Y-61613894D01*
X143035004Y-61488206D01*
X143186206Y-61337004D01*
X143311894Y-61164009D01*
X143311896Y-61164004D01*
X143314270Y-61160132D01*
X143316313Y-61158283D01*
X143317147Y-61155654D01*
X143342077Y-61134971D01*
X143366080Y-61113254D01*
X143368799Y-61112803D01*
X143370921Y-61111043D01*
X143403070Y-61107122D01*
X143435009Y-61101829D01*
X143437539Y-61102919D01*
G37*
%TD.AperFunction*%
%TA.AperFunction,Conductor*%
G36*
X146039173Y-61129483D02*
G01*
X146065730Y-61160132D01*
X146068103Y-61164005D01*
X146068106Y-61164009D01*
X146193794Y-61337004D01*
X146344996Y-61488206D01*
X146508257Y-61606822D01*
X146517991Y-61613894D01*
X146521873Y-61616273D01*
X146568748Y-61668086D01*
X146580169Y-61737016D01*
X146552512Y-61801178D01*
X146521873Y-61827727D01*
X146517991Y-61830105D01*
X146344993Y-61955796D01*
X146193796Y-62106993D01*
X146068105Y-62279991D01*
X146065727Y-62283873D01*
X146013914Y-62330748D01*
X145944984Y-62342169D01*
X145880822Y-62314512D01*
X145854273Y-62283873D01*
X145851894Y-62279991D01*
X145762461Y-62156897D01*
X145726206Y-62106996D01*
X145575004Y-61955794D01*
X145402009Y-61830106D01*
X145402005Y-61830103D01*
X145398132Y-61827730D01*
X145351254Y-61775920D01*
X145339829Y-61706991D01*
X145367483Y-61642827D01*
X145398132Y-61616270D01*
X145402005Y-61613896D01*
X145402004Y-61613896D01*
X145402009Y-61613894D01*
X145575004Y-61488206D01*
X145726206Y-61337004D01*
X145851894Y-61164009D01*
X145851896Y-61164004D01*
X145854270Y-61160132D01*
X145906080Y-61113254D01*
X145975009Y-61101829D01*
X146039173Y-61129483D01*
G37*
%TD.AperFunction*%
%TA.AperFunction,Conductor*%
G36*
X148579173Y-61129483D02*
G01*
X148605730Y-61160132D01*
X148608103Y-61164005D01*
X148608106Y-61164009D01*
X148733794Y-61337004D01*
X148884996Y-61488206D01*
X149048257Y-61606822D01*
X149057991Y-61613894D01*
X149061873Y-61616273D01*
X149108748Y-61668086D01*
X149120169Y-61737016D01*
X149092512Y-61801178D01*
X149061873Y-61827727D01*
X149057991Y-61830105D01*
X148884993Y-61955796D01*
X148733796Y-62106993D01*
X148608105Y-62279991D01*
X148605727Y-62283873D01*
X148553914Y-62330748D01*
X148484984Y-62342169D01*
X148420822Y-62314512D01*
X148394273Y-62283873D01*
X148391894Y-62279991D01*
X148302461Y-62156897D01*
X148266206Y-62106996D01*
X148115004Y-61955794D01*
X147942009Y-61830106D01*
X147942005Y-61830103D01*
X147938132Y-61827730D01*
X147891254Y-61775920D01*
X147879829Y-61706991D01*
X147907483Y-61642827D01*
X147938132Y-61616270D01*
X147942005Y-61613896D01*
X147942004Y-61613896D01*
X147942009Y-61613894D01*
X148115004Y-61488206D01*
X148266206Y-61337004D01*
X148391894Y-61164009D01*
X148391896Y-61164004D01*
X148394270Y-61160132D01*
X148446080Y-61113254D01*
X148515009Y-61101829D01*
X148579173Y-61129483D01*
G37*
%TD.AperFunction*%
%TA.AperFunction,Conductor*%
G36*
X151119173Y-61129483D02*
G01*
X151145730Y-61160132D01*
X151148103Y-61164005D01*
X151148106Y-61164009D01*
X151273794Y-61337004D01*
X151424996Y-61488206D01*
X151588257Y-61606822D01*
X151597991Y-61613894D01*
X151601873Y-61616273D01*
X151648748Y-61668086D01*
X151660169Y-61737016D01*
X151632512Y-61801178D01*
X151601873Y-61827727D01*
X151597991Y-61830105D01*
X151424993Y-61955796D01*
X151273796Y-62106993D01*
X151148105Y-62279991D01*
X151145727Y-62283873D01*
X151093914Y-62330748D01*
X151024984Y-62342169D01*
X150960822Y-62314512D01*
X150934273Y-62283873D01*
X150931894Y-62279991D01*
X150842461Y-62156897D01*
X150806206Y-62106996D01*
X150655004Y-61955794D01*
X150482009Y-61830106D01*
X150482005Y-61830103D01*
X150478132Y-61827730D01*
X150431254Y-61775920D01*
X150419829Y-61706991D01*
X150447483Y-61642827D01*
X150478132Y-61616270D01*
X150482005Y-61613896D01*
X150482004Y-61613896D01*
X150482009Y-61613894D01*
X150655004Y-61488206D01*
X150806206Y-61337004D01*
X150931894Y-61164009D01*
X150931896Y-61164004D01*
X150934270Y-61160132D01*
X150986080Y-61113254D01*
X151055009Y-61101829D01*
X151119173Y-61129483D01*
G37*
%TD.AperFunction*%
%TA.AperFunction,Conductor*%
G36*
X153659173Y-61129483D02*
G01*
X153685730Y-61160132D01*
X153688103Y-61164005D01*
X153688106Y-61164009D01*
X153813794Y-61337004D01*
X153964996Y-61488206D01*
X154128257Y-61606822D01*
X154137991Y-61613894D01*
X154141873Y-61616273D01*
X154188748Y-61668086D01*
X154200169Y-61737016D01*
X154172512Y-61801178D01*
X154141873Y-61827727D01*
X154137991Y-61830105D01*
X153964993Y-61955796D01*
X153813796Y-62106993D01*
X153688105Y-62279991D01*
X153685727Y-62283873D01*
X153633914Y-62330748D01*
X153564984Y-62342169D01*
X153500822Y-62314512D01*
X153474273Y-62283873D01*
X153471894Y-62279991D01*
X153382461Y-62156897D01*
X153346206Y-62106996D01*
X153195004Y-61955794D01*
X153022009Y-61830106D01*
X153022005Y-61830103D01*
X153018132Y-61827730D01*
X152971254Y-61775920D01*
X152959829Y-61706991D01*
X152987483Y-61642827D01*
X153018132Y-61616270D01*
X153022005Y-61613896D01*
X153022004Y-61613896D01*
X153022009Y-61613894D01*
X153195004Y-61488206D01*
X153346206Y-61337004D01*
X153471894Y-61164009D01*
X153471896Y-61164004D01*
X153474270Y-61160132D01*
X153526080Y-61113254D01*
X153595009Y-61101829D01*
X153659173Y-61129483D01*
G37*
%TD.AperFunction*%
%TA.AperFunction,Conductor*%
G36*
X156924075Y-60644993D02*
G01*
X156989901Y-60759007D01*
X157082993Y-60852099D01*
X157197007Y-60917925D01*
X157260590Y-60934962D01*
X156628282Y-61567269D01*
X156628282Y-61567270D01*
X156682449Y-61606624D01*
X156682682Y-61606743D01*
X156682755Y-61606812D01*
X156686604Y-61609171D01*
X156686108Y-61609979D01*
X156733479Y-61654716D01*
X156750275Y-61722537D01*
X156727739Y-61788672D01*
X156682693Y-61827709D01*
X156677994Y-61830103D01*
X156504993Y-61955796D01*
X156353796Y-62106993D01*
X156228105Y-62279991D01*
X156225727Y-62283873D01*
X156173914Y-62330748D01*
X156104984Y-62342169D01*
X156040822Y-62314512D01*
X156014273Y-62283873D01*
X156011894Y-62279991D01*
X155922461Y-62156897D01*
X155886206Y-62106996D01*
X155735004Y-61955794D01*
X155562009Y-61830106D01*
X155562005Y-61830103D01*
X155558132Y-61827730D01*
X155511254Y-61775920D01*
X155499829Y-61706991D01*
X155527483Y-61642827D01*
X155558132Y-61616270D01*
X155562005Y-61613896D01*
X155562004Y-61613896D01*
X155562009Y-61613894D01*
X155735004Y-61488206D01*
X155886206Y-61337004D01*
X156011894Y-61164009D01*
X156014283Y-61159319D01*
X156062254Y-61108522D01*
X156130074Y-61091724D01*
X156196210Y-61114258D01*
X156232196Y-61155783D01*
X156232829Y-61155396D01*
X156235167Y-61159211D01*
X156235251Y-61159308D01*
X156235371Y-61159545D01*
X156235372Y-61159546D01*
X156274728Y-61213716D01*
X156907036Y-60581407D01*
X156924075Y-60644993D01*
G37*
%TD.AperFunction*%
%TA.AperFunction,Conductor*%
G36*
X140959173Y-61129483D02*
G01*
X140985730Y-61160132D01*
X140988103Y-61164005D01*
X140988106Y-61164009D01*
X141113794Y-61337004D01*
X141264996Y-61488206D01*
X141428257Y-61606822D01*
X141437991Y-61613894D01*
X141441873Y-61616273D01*
X141488748Y-61668086D01*
X141500169Y-61737016D01*
X141472512Y-61801178D01*
X141441873Y-61827727D01*
X141437991Y-61830105D01*
X141264993Y-61955796D01*
X141113796Y-62106993D01*
X141113787Y-62107004D01*
X141112863Y-62108276D01*
X141112389Y-62108641D01*
X141110630Y-62110701D01*
X141110196Y-62110331D01*
X141057525Y-62150931D01*
X140987910Y-62156897D01*
X140926122Y-62124279D01*
X140897879Y-62079201D01*
X140897408Y-62079421D01*
X140895636Y-62075621D01*
X140894851Y-62074368D01*
X140894357Y-62072879D01*
X140894356Y-62072875D01*
X140802315Y-61923654D01*
X140678345Y-61799684D01*
X140529124Y-61707643D01*
X140529121Y-61707642D01*
X140527623Y-61707146D01*
X140526729Y-61706527D01*
X140522579Y-61704592D01*
X140522909Y-61703882D01*
X140470178Y-61667373D01*
X140443356Y-61602856D01*
X140455671Y-61534081D01*
X140491570Y-61491687D01*
X140491299Y-61491370D01*
X140493252Y-61489701D01*
X140493743Y-61489121D01*
X140495004Y-61488206D01*
X140646206Y-61337004D01*
X140771894Y-61164009D01*
X140771896Y-61164004D01*
X140774270Y-61160132D01*
X140826080Y-61113254D01*
X140895009Y-61101829D01*
X140959173Y-61129483D01*
G37*
%TD.AperFunction*%
%TA.AperFunction,Conductor*%
G36*
X163943039Y-54705185D02*
G01*
X163988794Y-54757989D01*
X164000000Y-54809500D01*
X164000000Y-60639346D01*
X169980500Y-60639346D01*
X170047539Y-60659031D01*
X170093294Y-60711835D01*
X170104500Y-60763346D01*
X170104500Y-148376000D01*
X170084815Y-148443039D01*
X170032011Y-148488794D01*
X169980500Y-148500000D01*
X164000000Y-148500000D01*
X164000000Y-154410500D01*
X163980315Y-154477539D01*
X163927511Y-154523294D01*
X163876000Y-154534500D01*
X138289000Y-154534500D01*
X138221961Y-154514815D01*
X138176206Y-154462011D01*
X138165000Y-154410500D01*
X138165000Y-151394983D01*
X138165000Y-151394982D01*
X138153506Y-151367233D01*
X138132267Y-151345994D01*
X138104518Y-151334500D01*
X120195018Y-151334500D01*
X102285518Y-151334500D01*
X102255482Y-151334500D01*
X102227731Y-151345995D01*
X102206495Y-151367231D01*
X102195000Y-151394982D01*
X102195000Y-154410500D01*
X102175315Y-154477539D01*
X102122511Y-154523294D01*
X102071000Y-154534500D01*
X76624000Y-154534500D01*
X76556961Y-154514815D01*
X76511206Y-154462011D01*
X76500000Y-154410500D01*
X76500000Y-148500000D01*
X70379500Y-148500000D01*
X70312461Y-148480315D01*
X70266706Y-148427511D01*
X70255500Y-148376000D01*
X70255500Y-144787982D01*
X91699500Y-144787982D01*
X91699500Y-146792982D01*
X91699500Y-146823018D01*
X91710994Y-146850767D01*
X91732233Y-146872006D01*
X91759982Y-146883500D01*
X91759984Y-146883500D01*
X97790016Y-146883500D01*
X97790018Y-146883500D01*
X97817767Y-146872006D01*
X97839006Y-146850767D01*
X97850500Y-146823018D01*
X97850500Y-144787982D01*
X97839006Y-144760233D01*
X97817767Y-144738994D01*
X97806580Y-144734360D01*
X97752178Y-144690520D01*
X97730113Y-144624226D01*
X97747392Y-144556526D01*
X97798530Y-144508916D01*
X97854034Y-144495800D01*
X126642427Y-144495800D01*
X126709466Y-144515485D01*
X126755221Y-144568289D01*
X126764043Y-144595604D01*
X126769559Y-144623334D01*
X126771070Y-144630931D01*
X126832017Y-144778069D01*
X126920495Y-144910487D01*
X126920501Y-144910494D01*
X127033105Y-145023098D01*
X127033112Y-145023104D01*
X127165530Y-145111582D01*
X127165531Y-145111582D01*
X127165532Y-145111583D01*
X127312669Y-145172530D01*
X127468865Y-145203599D01*
X127468869Y-145203600D01*
X127468870Y-145203600D01*
X127628131Y-145203600D01*
X127628132Y-145203599D01*
X127784331Y-145172530D01*
X127931468Y-145111583D01*
X128063889Y-145023103D01*
X128176503Y-144910489D01*
X128258359Y-144787982D01*
X142499500Y-144787982D01*
X142499500Y-146792982D01*
X142499500Y-146823018D01*
X142510994Y-146850767D01*
X142532233Y-146872006D01*
X142559982Y-146883500D01*
X142559984Y-146883500D01*
X148590016Y-146883500D01*
X148590018Y-146883500D01*
X148617767Y-146872006D01*
X148639006Y-146850767D01*
X148650500Y-146823018D01*
X148650500Y-144787982D01*
X148639006Y-144760233D01*
X148617767Y-144738994D01*
X148590018Y-144727500D01*
X142590018Y-144727500D01*
X142559982Y-144727500D01*
X142532231Y-144738995D01*
X142510995Y-144760231D01*
X142510994Y-144760232D01*
X142510994Y-144760233D01*
X142499500Y-144787982D01*
X128258359Y-144787982D01*
X128264983Y-144778068D01*
X128272372Y-144760231D01*
X128285591Y-144728317D01*
X128285591Y-144728316D01*
X128309415Y-144670800D01*
X128325930Y-144630931D01*
X128357000Y-144474730D01*
X128357000Y-144315470D01*
X128325930Y-144159269D01*
X128264983Y-144012132D01*
X128176503Y-143879711D01*
X128176498Y-143879705D01*
X128063894Y-143767101D01*
X128063887Y-143767095D01*
X127931469Y-143678617D01*
X127784331Y-143617670D01*
X127784323Y-143617668D01*
X127674726Y-143595868D01*
X127612815Y-143563484D01*
X127611236Y-143561932D01*
X127419536Y-143370231D01*
X127419532Y-143370228D01*
X127315781Y-143300903D01*
X127315772Y-143300898D01*
X127200485Y-143253145D01*
X127200477Y-143253143D01*
X127078098Y-143228800D01*
X127078094Y-143228800D01*
X95675177Y-143228800D01*
X95608138Y-143209115D01*
X95606287Y-143207903D01*
X95513366Y-143145815D01*
X95366231Y-143084870D01*
X95366223Y-143084868D01*
X95210034Y-143053800D01*
X95210030Y-143053800D01*
X95050770Y-143053800D01*
X95050765Y-143053800D01*
X94894576Y-143084868D01*
X94894568Y-143084870D01*
X94747430Y-143145817D01*
X94615012Y-143234295D01*
X94615005Y-143234301D01*
X94502401Y-143346905D01*
X94502395Y-143346912D01*
X94413917Y-143479330D01*
X94352970Y-143626468D01*
X94352968Y-143626476D01*
X94321900Y-143782665D01*
X94321900Y-143941934D01*
X94352968Y-144098123D01*
X94352970Y-144098131D01*
X94413917Y-144245269D01*
X94502395Y-144377687D01*
X94502401Y-144377694D01*
X94615006Y-144490299D01*
X94615009Y-144490301D01*
X94615011Y-144490303D01*
X94630120Y-144500398D01*
X94674925Y-144554009D01*
X94683632Y-144623334D01*
X94653478Y-144686362D01*
X94594035Y-144723082D01*
X94561229Y-144727500D01*
X91759982Y-144727500D01*
X91732231Y-144738995D01*
X91710995Y-144760231D01*
X91710994Y-144760232D01*
X91710994Y-144760233D01*
X91699500Y-144787982D01*
X70255500Y-144787982D01*
X70255500Y-133211345D01*
X77761500Y-133211345D01*
X77761500Y-135008654D01*
X77768011Y-135069202D01*
X77768011Y-135069204D01*
X77814588Y-135194077D01*
X77819111Y-135206204D01*
X77906739Y-135323261D01*
X78023796Y-135410889D01*
X78144626Y-135455956D01*
X78200557Y-135497827D01*
X78224974Y-135563291D01*
X78210122Y-135631564D01*
X78188972Y-135659818D01*
X78083793Y-135764997D01*
X77958106Y-135937990D01*
X77861027Y-136128516D01*
X77861026Y-136128519D01*
X77794951Y-136331882D01*
X77761500Y-136543084D01*
X77761500Y-136756915D01*
X77794951Y-136968117D01*
X77861026Y-137171480D01*
X77861027Y-137171483D01*
X77953973Y-137353897D01*
X77958106Y-137362009D01*
X78083794Y-137535004D01*
X78234996Y-137686206D01*
X78407991Y-137811894D01*
X78465647Y-137841271D01*
X78598516Y-137908972D01*
X78598519Y-137908973D01*
X78685090Y-137937101D01*
X78801884Y-137975049D01*
X79013084Y-138008500D01*
X79013085Y-138008500D01*
X79226915Y-138008500D01*
X79226916Y-138008500D01*
X79438116Y-137975049D01*
X79641483Y-137908972D01*
X79832009Y-137811894D01*
X79858059Y-137792968D01*
X79872905Y-137782182D01*
X79938711Y-137758702D01*
X79945790Y-137758500D01*
X80834210Y-137758500D01*
X80901249Y-137778185D01*
X80907095Y-137782182D01*
X80930179Y-137798953D01*
X80947991Y-137811894D01*
X81059707Y-137868816D01*
X81138516Y-137908972D01*
X81138519Y-137908973D01*
X81225090Y-137937101D01*
X81341884Y-137975049D01*
X81553084Y-138008500D01*
X81553085Y-138008500D01*
X81766915Y-138008500D01*
X81766916Y-138008500D01*
X81978116Y-137975049D01*
X82181483Y-137908972D01*
X82372009Y-137811894D01*
X82525470Y-137700398D01*
X82591271Y-137676920D01*
X82659325Y-137692745D01*
X82686032Y-137713037D01*
X87611763Y-142638769D01*
X87611767Y-142638772D01*
X87715521Y-142708099D01*
X87715523Y-142708099D01*
X87715525Y-142708101D01*
X87797047Y-142741868D01*
X87830815Y-142755855D01*
X87830817Y-142755855D01*
X87830822Y-142755857D01*
X87953201Y-142780199D01*
X87953205Y-142780200D01*
X87953206Y-142780200D01*
X120796795Y-142780200D01*
X120796796Y-142780199D01*
X120919185Y-142755855D01*
X121034475Y-142708100D01*
X121138233Y-142638771D01*
X121722928Y-142054075D01*
X121784249Y-142020592D01*
X121853940Y-142025576D01*
X121883487Y-142041436D01*
X122007991Y-142131894D01*
X122101438Y-142179507D01*
X122198516Y-142228972D01*
X122198519Y-142228973D01*
X122300200Y-142262010D01*
X122401884Y-142295049D01*
X122613084Y-142328500D01*
X122613085Y-142328500D01*
X122826915Y-142328500D01*
X122826916Y-142328500D01*
X123038116Y-142295049D01*
X123241483Y-142228972D01*
X123432009Y-142131894D01*
X123545910Y-142049139D01*
X123611713Y-142025661D01*
X123679767Y-142041486D01*
X123706474Y-142061778D01*
X124292663Y-142647968D01*
X124292667Y-142647971D01*
X124396418Y-142717296D01*
X124396424Y-142717299D01*
X124396425Y-142717300D01*
X124511715Y-142765055D01*
X124634101Y-142789399D01*
X124634105Y-142789400D01*
X124634106Y-142789400D01*
X130945595Y-142789400D01*
X130945596Y-142789399D01*
X131067985Y-142765055D01*
X131183275Y-142717300D01*
X131287033Y-142647971D01*
X131881769Y-142053234D01*
X131943090Y-142019751D01*
X132012781Y-142024735D01*
X132042333Y-142040599D01*
X132071484Y-142061778D01*
X132167991Y-142131894D01*
X132292539Y-142195354D01*
X132358516Y-142228972D01*
X132358519Y-142228973D01*
X132460200Y-142262010D01*
X132561884Y-142295049D01*
X132773084Y-142328500D01*
X132773085Y-142328500D01*
X132986915Y-142328500D01*
X132986916Y-142328500D01*
X133198116Y-142295049D01*
X133401483Y-142228972D01*
X133592009Y-142131894D01*
X133765004Y-142006206D01*
X133916206Y-141855004D01*
X134041894Y-141682009D01*
X134041896Y-141682004D01*
X134044270Y-141678132D01*
X134096080Y-141631254D01*
X134165009Y-141619829D01*
X134229173Y-141647483D01*
X134255730Y-141678132D01*
X134258103Y-141682005D01*
X134258105Y-141682008D01*
X134258106Y-141682009D01*
X134383794Y-141855004D01*
X134534996Y-142006206D01*
X134707991Y-142131894D01*
X134801438Y-142179507D01*
X134898516Y-142228972D01*
X134898519Y-142228973D01*
X135000200Y-142262010D01*
X135101884Y-142295049D01*
X135313084Y-142328500D01*
X135313085Y-142328500D01*
X135526915Y-142328500D01*
X135526916Y-142328500D01*
X135738116Y-142295049D01*
X135941483Y-142228972D01*
X136132009Y-142131894D01*
X136305004Y-142006206D01*
X136456206Y-141855004D01*
X136581894Y-141682009D01*
X136584283Y-141677319D01*
X136632254Y-141626522D01*
X136700074Y-141609724D01*
X136766210Y-141632258D01*
X136802201Y-141673788D01*
X136802832Y-141673402D01*
X136805164Y-141677207D01*
X136805251Y-141677308D01*
X136805376Y-141677554D01*
X136930272Y-141849459D01*
X136930276Y-141849464D01*
X137080535Y-141999723D01*
X137080540Y-141999727D01*
X137252442Y-142124620D01*
X137441782Y-142221095D01*
X137643871Y-142286757D01*
X137710000Y-142297231D01*
X137710000Y-141403012D01*
X137767007Y-141435925D01*
X137894174Y-141470000D01*
X138025826Y-141470000D01*
X138152993Y-141435925D01*
X138210000Y-141403012D01*
X138210000Y-142297230D01*
X138276126Y-142286757D01*
X138276129Y-142286757D01*
X138478217Y-142221095D01*
X138667557Y-142124620D01*
X138839459Y-141999727D01*
X138839464Y-141999723D01*
X138989723Y-141849464D01*
X138989727Y-141849459D01*
X139114615Y-141677564D01*
X139114618Y-141677560D01*
X139114738Y-141677326D01*
X139114806Y-141677253D01*
X139117164Y-141673406D01*
X139117972Y-141673901D01*
X139162707Y-141626525D01*
X139230526Y-141609722D01*
X139296663Y-141632253D01*
X139335711Y-141677309D01*
X139338106Y-141682009D01*
X139463794Y-141855004D01*
X139614996Y-142006206D01*
X139787991Y-142131894D01*
X139881438Y-142179507D01*
X139978516Y-142228972D01*
X139978519Y-142228973D01*
X140080200Y-142262010D01*
X140181884Y-142295049D01*
X140393084Y-142328500D01*
X140393085Y-142328500D01*
X140606915Y-142328500D01*
X140606916Y-142328500D01*
X140818116Y-142295049D01*
X141021483Y-142228972D01*
X141212009Y-142131894D01*
X141385004Y-142006206D01*
X141536206Y-141855004D01*
X141661894Y-141682009D01*
X141758972Y-141491483D01*
X141825049Y-141288116D01*
X141858500Y-141076916D01*
X141858500Y-140863084D01*
X141825049Y-140651884D01*
X141758972Y-140448517D01*
X141758972Y-140448516D01*
X141693575Y-140320169D01*
X141661894Y-140257991D01*
X141536206Y-140084996D01*
X141385004Y-139933794D01*
X141212009Y-139808106D01*
X141212005Y-139808104D01*
X141021483Y-139711027D01*
X141021480Y-139711026D01*
X140818117Y-139644951D01*
X140652507Y-139618721D01*
X140606916Y-139611500D01*
X140393084Y-139611500D01*
X140347493Y-139618721D01*
X140181882Y-139644951D01*
X139978519Y-139711026D01*
X139978516Y-139711027D01*
X139787987Y-139808108D01*
X139663492Y-139898559D01*
X139597686Y-139922039D01*
X139529632Y-139906213D01*
X139502926Y-139885922D01*
X138918236Y-139301231D01*
X138918232Y-139301228D01*
X138814481Y-139231903D01*
X138814472Y-139231898D01*
X138699185Y-139184145D01*
X138699177Y-139184143D01*
X138576798Y-139159800D01*
X138576794Y-139159800D01*
X137771067Y-139159800D01*
X137704028Y-139140115D01*
X137683386Y-139123481D01*
X137171086Y-138611181D01*
X136640084Y-138080180D01*
X136606600Y-138018858D01*
X136611584Y-137949166D01*
X136653456Y-137893233D01*
X136718920Y-137868816D01*
X136727766Y-137868500D01*
X159137016Y-137868500D01*
X159137018Y-137868500D01*
X159164767Y-137857006D01*
X159186006Y-137835767D01*
X159197500Y-137808018D01*
X159197500Y-84191982D01*
X159186006Y-84164233D01*
X159164767Y-84142994D01*
X159137018Y-84131500D01*
X159137017Y-84131500D01*
X148331831Y-84131500D01*
X148264792Y-84111815D01*
X148219037Y-84059011D01*
X148209093Y-83989853D01*
X148228728Y-83938610D01*
X148299783Y-83832268D01*
X148360730Y-83685131D01*
X148391800Y-83528930D01*
X148391800Y-83369670D01*
X148360730Y-83213469D01*
X148299783Y-83066332D01*
X148267348Y-83017790D01*
X148246471Y-82951113D01*
X148264956Y-82883733D01*
X148316935Y-82837043D01*
X148370451Y-82824900D01*
X148781123Y-82824900D01*
X148848162Y-82844585D01*
X148850013Y-82845797D01*
X148942933Y-82907884D01*
X148995353Y-82929597D01*
X149090069Y-82968830D01*
X149246265Y-82999899D01*
X149246269Y-82999900D01*
X149246270Y-82999900D01*
X149405531Y-82999900D01*
X149405532Y-82999899D01*
X149561731Y-82968830D01*
X149708868Y-82907883D01*
X149841289Y-82819403D01*
X149953903Y-82706789D01*
X150042383Y-82574368D01*
X150103330Y-82427231D01*
X150134400Y-82271030D01*
X150134400Y-82111770D01*
X150103330Y-81955569D01*
X150042383Y-81808432D01*
X150029743Y-81789515D01*
X149953904Y-81676012D01*
X149953898Y-81676005D01*
X149841294Y-81563401D01*
X149841287Y-81563395D01*
X149708869Y-81474917D01*
X149561731Y-81413970D01*
X149561723Y-81413968D01*
X149405534Y-81382900D01*
X149405530Y-81382900D01*
X149246270Y-81382900D01*
X149246265Y-81382900D01*
X149090076Y-81413968D01*
X149090068Y-81413970D01*
X148942933Y-81474915D01*
X148850013Y-81537003D01*
X148831966Y-81542653D01*
X148816058Y-81552877D01*
X148785097Y-81557328D01*
X148783336Y-81557880D01*
X148781123Y-81557900D01*
X148775366Y-81557900D01*
X148708327Y-81538215D01*
X148662572Y-81485411D01*
X148652628Y-81416253D01*
X148681653Y-81352697D01*
X148687685Y-81346219D01*
X149450889Y-80583016D01*
X150342386Y-79691519D01*
X150403709Y-79658034D01*
X150430067Y-79655200D01*
X151683327Y-79655200D01*
X151750366Y-79674885D01*
X151796121Y-79727689D01*
X151806684Y-79791802D01*
X151806386Y-79794731D01*
X151799500Y-79862121D01*
X151799500Y-80409879D01*
X151809764Y-80510336D01*
X151863697Y-80673098D01*
X151863702Y-80673109D01*
X151953712Y-80819036D01*
X151953715Y-80819040D01*
X152074959Y-80940284D01*
X152074963Y-80940287D01*
X152220890Y-81030297D01*
X152220893Y-81030298D01*
X152220899Y-81030302D01*
X152383664Y-81084236D01*
X152484128Y-81094500D01*
X152484133Y-81094500D01*
X153331867Y-81094500D01*
X153331872Y-81094500D01*
X153432336Y-81084236D01*
X153595101Y-81030302D01*
X153741040Y-80940285D01*
X153862285Y-80819040D01*
X153952302Y-80673101D01*
X154006236Y-80510336D01*
X154016500Y-80409872D01*
X154016500Y-80407971D01*
X154016616Y-80407573D01*
X154016660Y-80406724D01*
X154016820Y-80406732D01*
X154016821Y-80406731D01*
X154016844Y-80406733D01*
X154016863Y-80406734D01*
X154036185Y-80340932D01*
X154088989Y-80295177D01*
X154158147Y-80285233D01*
X154187951Y-80293409D01*
X154291569Y-80336330D01*
X154430174Y-80363900D01*
X154447765Y-80367399D01*
X154447769Y-80367400D01*
X154447770Y-80367400D01*
X154607031Y-80367400D01*
X154607032Y-80367399D01*
X154763231Y-80336330D01*
X154910368Y-80275383D01*
X155042789Y-80186903D01*
X155155403Y-80074289D01*
X155243883Y-79941868D01*
X155304830Y-79794731D01*
X155335900Y-79638530D01*
X155335900Y-79479270D01*
X155304830Y-79323069D01*
X155243883Y-79175932D01*
X155242924Y-79174497D01*
X155155404Y-79043512D01*
X155155398Y-79043505D01*
X155042794Y-78930901D01*
X155042787Y-78930895D01*
X154910369Y-78842417D01*
X154763229Y-78781469D01*
X154757490Y-78779728D01*
X154699055Y-78741426D01*
X154670603Y-78677611D01*
X154681169Y-78608545D01*
X154705811Y-78573392D01*
X157062125Y-76217078D01*
X157123446Y-76183595D01*
X157193138Y-76188579D01*
X157249071Y-76230451D01*
X157258639Y-76245338D01*
X157259110Y-76246201D01*
X157259111Y-76246204D01*
X157346739Y-76363261D01*
X157463796Y-76450889D01*
X157572626Y-76491481D01*
X157598061Y-76500968D01*
X157600799Y-76501989D01*
X157628050Y-76504918D01*
X157661345Y-76508499D01*
X157661362Y-76508500D01*
X162068638Y-76508500D01*
X162068654Y-76508499D01*
X162095692Y-76505591D01*
X162129201Y-76501989D01*
X162131939Y-76500968D01*
X162143768Y-76496555D01*
X162266204Y-76450889D01*
X162383261Y-76363261D01*
X162470889Y-76246204D01*
X162521989Y-76109201D01*
X162525861Y-76073185D01*
X162528499Y-76048654D01*
X162528500Y-76048637D01*
X162528500Y-74881947D01*
X163500000Y-74881947D01*
X163500000Y-75118052D01*
X163536934Y-75351247D01*
X163609897Y-75575802D01*
X163717087Y-75786174D01*
X163777338Y-75869104D01*
X163777340Y-75869105D01*
X164517037Y-75129408D01*
X164534075Y-75192993D01*
X164599901Y-75307007D01*
X164692993Y-75400099D01*
X164807007Y-75465925D01*
X164870589Y-75482962D01*
X164130893Y-76222658D01*
X164213828Y-76282914D01*
X164424197Y-76390102D01*
X164648752Y-76463065D01*
X164648751Y-76463065D01*
X164881948Y-76500000D01*
X165118052Y-76500000D01*
X165351247Y-76463065D01*
X165575799Y-76390103D01*
X165598704Y-76378433D01*
X165667373Y-76365536D01*
X165711296Y-76378433D01*
X165734200Y-76390103D01*
X165958752Y-76463065D01*
X165958751Y-76463065D01*
X166191948Y-76500000D01*
X166560000Y-76500000D01*
X166560000Y-75500000D01*
X167060000Y-75500000D01*
X167060000Y-76500000D01*
X167428052Y-76500000D01*
X167661247Y-76463065D01*
X167885802Y-76390102D01*
X168096171Y-76282914D01*
X168287186Y-76144133D01*
X168454133Y-75977186D01*
X168592914Y-75786171D01*
X168700102Y-75575802D01*
X168773065Y-75351247D01*
X168789102Y-75250000D01*
X167743012Y-75250000D01*
X167775925Y-75192993D01*
X167810000Y-75065826D01*
X167810000Y-74934174D01*
X167775925Y-74807007D01*
X167743012Y-74750000D01*
X168789102Y-74750000D01*
X168773065Y-74648752D01*
X168700102Y-74424197D01*
X168592914Y-74213828D01*
X168454133Y-74022813D01*
X168287186Y-73855866D01*
X168096171Y-73717085D01*
X167885802Y-73609897D01*
X167661247Y-73536934D01*
X167661248Y-73536934D01*
X167428052Y-73500000D01*
X167060000Y-73500000D01*
X167060000Y-74500000D01*
X166560000Y-74500000D01*
X166560000Y-73500000D01*
X166191948Y-73500000D01*
X165958752Y-73536934D01*
X165734196Y-73609897D01*
X165711293Y-73621567D01*
X165642624Y-73634462D01*
X165598707Y-73621567D01*
X165575803Y-73609897D01*
X165351247Y-73536934D01*
X165351248Y-73536934D01*
X165118052Y-73500000D01*
X164881948Y-73500000D01*
X164648752Y-73536934D01*
X164424197Y-73609897D01*
X164213830Y-73717084D01*
X164130894Y-73777340D01*
X164870591Y-74517037D01*
X164807007Y-74534075D01*
X164692993Y-74599901D01*
X164599901Y-74692993D01*
X164534075Y-74807007D01*
X164517037Y-74870591D01*
X163777340Y-74130894D01*
X163717084Y-74213830D01*
X163609897Y-74424197D01*
X163536934Y-74648752D01*
X163500000Y-74881947D01*
X162528500Y-74881947D01*
X162528500Y-73951362D01*
X162528499Y-73951345D01*
X162521989Y-73890798D01*
X162513461Y-73867935D01*
X162513460Y-73867932D01*
X162470889Y-73753796D01*
X162452131Y-73728738D01*
X162383261Y-73636739D01*
X162266204Y-73549111D01*
X162233557Y-73536934D01*
X162129203Y-73498011D01*
X162068654Y-73491500D01*
X162068638Y-73491500D01*
X160758638Y-73491500D01*
X157661362Y-73491500D01*
X157661345Y-73491500D01*
X157600797Y-73498011D01*
X157600795Y-73498011D01*
X157463795Y-73549111D01*
X157346739Y-73636739D01*
X157259111Y-73753795D01*
X157208011Y-73890795D01*
X157208011Y-73890797D01*
X157201500Y-73951345D01*
X157201500Y-74306753D01*
X157181815Y-74373792D01*
X157129011Y-74419547D01*
X157124954Y-74421314D01*
X157083223Y-74438599D01*
X157083222Y-74438600D01*
X156979471Y-74507924D01*
X156979463Y-74507930D01*
X154221883Y-77265511D01*
X154160560Y-77298996D01*
X154090868Y-77294012D01*
X154034935Y-77252140D01*
X154010518Y-77186676D01*
X154010843Y-77165234D01*
X154016500Y-77109872D01*
X154016500Y-76562128D01*
X154006236Y-76461664D01*
X153952302Y-76298899D01*
X153952298Y-76298893D01*
X153952297Y-76298890D01*
X153862287Y-76152963D01*
X153862284Y-76152959D01*
X153741040Y-76031715D01*
X153741036Y-76031712D01*
X153595109Y-75941702D01*
X153595103Y-75941699D01*
X153595101Y-75941698D01*
X153432336Y-75887764D01*
X153331879Y-75877500D01*
X153331872Y-75877500D01*
X152484128Y-75877500D01*
X152484120Y-75877500D01*
X152383663Y-75887764D01*
X152220901Y-75941697D01*
X152220890Y-75941702D01*
X152074963Y-76031712D01*
X152074959Y-76031715D01*
X151953715Y-76152959D01*
X151953712Y-76152963D01*
X151863702Y-76298890D01*
X151863697Y-76298901D01*
X151809764Y-76461663D01*
X151799500Y-76562120D01*
X151799500Y-76728500D01*
X151779815Y-76795539D01*
X151727011Y-76841294D01*
X151675500Y-76852500D01*
X148555524Y-76852500D01*
X148488485Y-76832815D01*
X148449985Y-76793597D01*
X148441231Y-76779404D01*
X148369030Y-76662348D01*
X148243652Y-76536970D01*
X148121561Y-76461663D01*
X148092740Y-76443886D01*
X148092735Y-76443884D01*
X147924427Y-76388113D01*
X147820546Y-76377500D01*
X146819462Y-76377500D01*
X146819446Y-76377501D01*
X146715572Y-76388113D01*
X146547264Y-76443884D01*
X146547259Y-76443886D01*
X146396346Y-76536971D01*
X146270971Y-76662346D01*
X146177886Y-76813259D01*
X146177884Y-76813264D01*
X146122113Y-76981572D01*
X146111500Y-77085447D01*
X146111500Y-77886537D01*
X146111501Y-77886553D01*
X146122113Y-77990427D01*
X146177884Y-78158735D01*
X146177886Y-78158740D01*
X146180674Y-78163260D01*
X146270259Y-78308500D01*
X146270971Y-78309653D01*
X146359637Y-78398319D01*
X146393122Y-78459642D01*
X146388138Y-78529334D01*
X146359637Y-78573681D01*
X146270971Y-78662346D01*
X146268378Y-78666550D01*
X146193230Y-78788385D01*
X146190015Y-78793597D01*
X146138067Y-78840322D01*
X146084476Y-78852500D01*
X141799767Y-78852500D01*
X141732728Y-78832815D01*
X141712086Y-78816181D01*
X139644818Y-76748913D01*
X139611333Y-76687590D01*
X139608499Y-76661232D01*
X139608499Y-75999462D01*
X139608498Y-75999446D01*
X139606224Y-75977186D01*
X139597887Y-75895574D01*
X139542115Y-75727262D01*
X139449030Y-75576348D01*
X139431974Y-75559292D01*
X139398489Y-75497969D01*
X139403473Y-75428277D01*
X139431974Y-75383930D01*
X139665487Y-75150418D01*
X139967672Y-74848233D01*
X140037001Y-74744475D01*
X140084755Y-74629185D01*
X140088512Y-74610300D01*
X140109099Y-74506798D01*
X140109100Y-74506795D01*
X140109100Y-70413205D01*
X140109099Y-70413201D01*
X140094806Y-70341344D01*
X140084755Y-70290815D01*
X140077267Y-70272738D01*
X140037001Y-70175525D01*
X140032889Y-70169371D01*
X139967672Y-70071766D01*
X139967669Y-70071763D01*
X139644818Y-69748913D01*
X139611333Y-69687590D01*
X139608499Y-69661232D01*
X139608499Y-69186200D01*
X139628184Y-69119161D01*
X139680988Y-69073406D01*
X139732499Y-69062200D01*
X149475695Y-69062200D01*
X149475696Y-69062199D01*
X149598085Y-69037855D01*
X149713375Y-68990100D01*
X149817133Y-68920771D01*
X154394353Y-64343549D01*
X154455674Y-64310066D01*
X154520348Y-64313300D01*
X154531884Y-64317049D01*
X154743084Y-64350500D01*
X154743085Y-64350500D01*
X154956915Y-64350500D01*
X154956916Y-64350500D01*
X155168116Y-64317049D01*
X155371483Y-64250972D01*
X155562009Y-64153894D01*
X155735004Y-64028206D01*
X155886206Y-63877004D01*
X156011894Y-63704009D01*
X156011896Y-63704004D01*
X156014270Y-63700132D01*
X156066080Y-63653254D01*
X156135009Y-63641829D01*
X156199173Y-63669483D01*
X156225730Y-63700132D01*
X156228103Y-63704005D01*
X156228106Y-63704009D01*
X156353794Y-63877004D01*
X156504996Y-64028206D01*
X156677991Y-64153894D01*
X156754727Y-64192993D01*
X156868516Y-64250972D01*
X156868519Y-64250973D01*
X156889876Y-64257912D01*
X157071884Y-64317049D01*
X157283084Y-64350500D01*
X157283085Y-64350500D01*
X157496915Y-64350500D01*
X157496916Y-64350500D01*
X157708116Y-64317049D01*
X157911483Y-64250972D01*
X158102009Y-64153894D01*
X158275004Y-64028206D01*
X158426206Y-63877004D01*
X158551894Y-63704009D01*
X158648972Y-63513483D01*
X158715049Y-63310116D01*
X158748500Y-63098916D01*
X158748500Y-62885084D01*
X158715049Y-62673884D01*
X158655952Y-62492000D01*
X158648973Y-62470519D01*
X158648972Y-62470516D01*
X158566420Y-62308500D01*
X158551894Y-62279991D01*
X158426206Y-62106996D01*
X158275004Y-61955794D01*
X158102009Y-61830106D01*
X158102010Y-61830106D01*
X158102008Y-61830105D01*
X158097311Y-61827712D01*
X158046517Y-61779735D01*
X158029724Y-61711914D01*
X158052264Y-61645780D01*
X158093790Y-61609801D01*
X158093402Y-61609168D01*
X158097229Y-61606822D01*
X158097327Y-61606738D01*
X158097556Y-61606621D01*
X158151716Y-61567270D01*
X158151717Y-61567270D01*
X157519408Y-60934962D01*
X157582993Y-60917925D01*
X157697007Y-60852099D01*
X157790099Y-60759007D01*
X157855925Y-60644993D01*
X157872962Y-60581408D01*
X158505270Y-61213717D01*
X158505270Y-61213716D01*
X158544622Y-61159554D01*
X158641095Y-60970217D01*
X158706757Y-60768130D01*
X158706757Y-60768127D01*
X158740000Y-60558246D01*
X158740000Y-60345753D01*
X158706757Y-60135872D01*
X158706757Y-60135869D01*
X158641095Y-59933782D01*
X158544624Y-59744449D01*
X158505270Y-59690282D01*
X158505269Y-59690282D01*
X157872962Y-60322590D01*
X157855925Y-60259007D01*
X157790099Y-60144993D01*
X157697007Y-60051901D01*
X157582993Y-59986075D01*
X157519409Y-59969037D01*
X158151716Y-59336728D01*
X158097550Y-59297375D01*
X157908217Y-59200904D01*
X157706129Y-59135242D01*
X157496246Y-59102000D01*
X157283754Y-59102000D01*
X157073872Y-59135242D01*
X157073869Y-59135242D01*
X156871782Y-59200904D01*
X156682439Y-59297380D01*
X156628282Y-59336727D01*
X156628282Y-59336728D01*
X157260591Y-59969037D01*
X157197007Y-59986075D01*
X157082993Y-60051901D01*
X156989901Y-60144993D01*
X156924075Y-60259007D01*
X156907037Y-60322591D01*
X156274728Y-59690282D01*
X156274727Y-59690282D01*
X156235380Y-59744440D01*
X156235374Y-59744449D01*
X156235246Y-59744702D01*
X156235172Y-59744780D01*
X156232838Y-59748590D01*
X156232036Y-59748099D01*
X156187264Y-59795490D01*
X156119441Y-59812275D01*
X156053309Y-59789728D01*
X156014283Y-59744680D01*
X156011894Y-59739991D01*
X155886206Y-59566996D01*
X155735004Y-59415794D01*
X155562009Y-59290106D01*
X155371483Y-59193027D01*
X155371480Y-59193026D01*
X155168117Y-59126951D01*
X155062516Y-59110225D01*
X154956916Y-59093500D01*
X154743084Y-59093500D01*
X154672684Y-59104650D01*
X154531882Y-59126951D01*
X154328519Y-59193026D01*
X154328516Y-59193027D01*
X154137990Y-59290106D01*
X153964993Y-59415796D01*
X153813796Y-59566993D01*
X153688105Y-59739991D01*
X153685727Y-59743873D01*
X153633914Y-59790748D01*
X153564984Y-59802169D01*
X153500822Y-59774512D01*
X153474273Y-59743873D01*
X153471894Y-59739991D01*
X153454007Y-59715372D01*
X153346206Y-59566996D01*
X153195004Y-59415794D01*
X153022009Y-59290106D01*
X152831483Y-59193027D01*
X152831480Y-59193026D01*
X152628117Y-59126951D01*
X152522516Y-59110225D01*
X152416916Y-59093500D01*
X152203084Y-59093500D01*
X152159223Y-59100447D01*
X151991881Y-59126951D01*
X151980345Y-59130699D01*
X151910503Y-59132690D01*
X151854352Y-59100447D01*
X149375036Y-56621131D01*
X149375032Y-56621128D01*
X149271281Y-56551803D01*
X149271272Y-56551798D01*
X149155985Y-56504045D01*
X149155977Y-56504043D01*
X149033598Y-56479700D01*
X149033594Y-56479700D01*
X141680167Y-56479700D01*
X141613128Y-56460015D01*
X141592486Y-56443381D01*
X141579536Y-56430431D01*
X141579532Y-56430428D01*
X141475781Y-56361103D01*
X141475772Y-56361098D01*
X141360485Y-56313345D01*
X141360477Y-56313343D01*
X141238098Y-56289000D01*
X141238094Y-56289000D01*
X122386661Y-56289000D01*
X122319622Y-56269315D01*
X122286310Y-56236593D01*
X122286163Y-56236715D01*
X122285037Y-56235342D01*
X122283560Y-56233892D01*
X122282303Y-56232011D01*
X122282298Y-56232005D01*
X122169694Y-56119401D01*
X122169687Y-56119395D01*
X122037269Y-56030917D01*
X121890131Y-55969970D01*
X121890123Y-55969968D01*
X121733934Y-55938900D01*
X121733930Y-55938900D01*
X121574670Y-55938900D01*
X121574665Y-55938900D01*
X121418476Y-55969968D01*
X121418468Y-55969970D01*
X121271330Y-56030917D01*
X121138912Y-56119395D01*
X121138905Y-56119401D01*
X121026301Y-56232005D01*
X121026295Y-56232012D01*
X120937817Y-56364430D01*
X120876870Y-56511568D01*
X120876868Y-56511576D01*
X120851146Y-56640891D01*
X120818761Y-56702802D01*
X120758046Y-56737376D01*
X120729529Y-56740700D01*
X117129501Y-56740700D01*
X117007122Y-56765043D01*
X117007114Y-56765045D01*
X116891827Y-56812798D01*
X116891818Y-56812803D01*
X116788067Y-56882128D01*
X116788063Y-56882131D01*
X116545015Y-57125181D01*
X116518087Y-57139884D01*
X116492269Y-57156477D01*
X116486068Y-57157368D01*
X116483692Y-57158666D01*
X116457334Y-57161500D01*
X116298590Y-57161500D01*
X116231551Y-57141815D01*
X116229734Y-57140624D01*
X116143068Y-57082717D01*
X116143069Y-57082717D01*
X116143067Y-57082716D01*
X115995931Y-57021770D01*
X115995923Y-57021768D01*
X115839734Y-56990700D01*
X115839730Y-56990700D01*
X115680470Y-56990700D01*
X115680465Y-56990700D01*
X115524276Y-57021768D01*
X115524268Y-57021770D01*
X115377130Y-57082717D01*
X115244712Y-57171195D01*
X115244705Y-57171201D01*
X115132101Y-57283805D01*
X115132095Y-57283812D01*
X115043617Y-57416230D01*
X114982670Y-57563368D01*
X114982668Y-57563374D01*
X114972256Y-57615720D01*
X114939871Y-57677631D01*
X114898092Y-57706089D01*
X114810630Y-57742317D01*
X114678212Y-57830795D01*
X114678205Y-57830801D01*
X114565601Y-57943405D01*
X114565595Y-57943412D01*
X114477117Y-58075830D01*
X114416170Y-58222968D01*
X114416168Y-58222976D01*
X114390148Y-58353791D01*
X114357764Y-58415702D01*
X114297048Y-58450276D01*
X114268531Y-58453600D01*
X103651101Y-58453600D01*
X103528722Y-58477943D01*
X103528714Y-58477945D01*
X103413427Y-58525698D01*
X103413418Y-58525703D01*
X103309667Y-58595028D01*
X103309663Y-58595031D01*
X97964562Y-63940132D01*
X97903239Y-63973617D01*
X97901072Y-63974068D01*
X97791476Y-63995868D01*
X97791468Y-63995870D01*
X97644330Y-64056817D01*
X97511912Y-64145295D01*
X97511905Y-64145301D01*
X97399301Y-64257905D01*
X97399295Y-64257912D01*
X97310817Y-64390330D01*
X97249870Y-64537468D01*
X97249868Y-64537476D01*
X97218800Y-64693665D01*
X97218800Y-64852934D01*
X97249868Y-65009123D01*
X97249870Y-65009131D01*
X97310817Y-65156269D01*
X97399295Y-65288687D01*
X97399301Y-65288694D01*
X97511905Y-65401298D01*
X97511912Y-65401304D01*
X97644330Y-65489782D01*
X97644331Y-65489782D01*
X97644332Y-65489783D01*
X97791469Y-65550730D01*
X97910885Y-65574483D01*
X97947665Y-65581799D01*
X97947669Y-65581800D01*
X97947670Y-65581800D01*
X98106931Y-65581800D01*
X98106932Y-65581799D01*
X98263131Y-65550730D01*
X98410268Y-65489783D01*
X98542689Y-65401303D01*
X98655303Y-65288689D01*
X98743783Y-65156268D01*
X98804730Y-65009131D01*
X98826531Y-64899522D01*
X98858915Y-64837615D01*
X98860411Y-64836091D01*
X103939585Y-59756919D01*
X104000908Y-59723434D01*
X104027266Y-59720600D01*
X115717934Y-59720600D01*
X115784973Y-59740285D01*
X115830728Y-59793089D01*
X115840672Y-59862247D01*
X115811647Y-59925803D01*
X115805615Y-59932281D01*
X114727715Y-61010181D01*
X114666392Y-61043666D01*
X114640034Y-61046500D01*
X113635677Y-61046500D01*
X113568638Y-61026815D01*
X113566787Y-61025603D01*
X113473866Y-60963515D01*
X113326731Y-60902570D01*
X113326723Y-60902568D01*
X113170534Y-60871500D01*
X113170530Y-60871500D01*
X113011270Y-60871500D01*
X113011265Y-60871500D01*
X112855076Y-60902568D01*
X112855068Y-60902570D01*
X112707930Y-60963517D01*
X112575512Y-61051995D01*
X112575505Y-61052001D01*
X112462901Y-61164605D01*
X112462895Y-61164612D01*
X112374417Y-61297030D01*
X112313470Y-61444168D01*
X112313468Y-61444176D01*
X112282400Y-61600365D01*
X112282400Y-61759631D01*
X112288363Y-61789608D01*
X112282136Y-61859199D01*
X112239274Y-61914377D01*
X112173384Y-61937622D01*
X112166746Y-61937800D01*
X103127201Y-61937800D01*
X103004822Y-61962143D01*
X103004814Y-61962145D01*
X102889527Y-62009898D01*
X102889518Y-62009903D01*
X102785767Y-62079228D01*
X102785763Y-62079231D01*
X98172003Y-66692993D01*
X96647967Y-68217029D01*
X96612330Y-68252666D01*
X96559727Y-68305268D01*
X96490403Y-68409018D01*
X96490398Y-68409027D01*
X96442645Y-68524314D01*
X96442643Y-68524322D01*
X96418300Y-68646701D01*
X96418300Y-72198500D01*
X96398615Y-72265539D01*
X96345811Y-72311294D01*
X96294300Y-72322500D01*
X94345701Y-72322500D01*
X94223322Y-72346843D01*
X94223314Y-72346845D01*
X94124910Y-72387606D01*
X94124909Y-72387606D01*
X94108031Y-72394596D01*
X94108018Y-72394603D01*
X94004267Y-72463928D01*
X94004263Y-72463931D01*
X91317778Y-75150418D01*
X90443267Y-76024929D01*
X90419559Y-76048637D01*
X90355027Y-76113168D01*
X90285703Y-76216918D01*
X90285698Y-76216927D01*
X90237945Y-76332214D01*
X90237943Y-76332222D01*
X90213600Y-76454601D01*
X90213600Y-77527698D01*
X90237943Y-77650077D01*
X90237945Y-77650085D01*
X90285698Y-77765372D01*
X90285703Y-77765381D01*
X90355028Y-77869132D01*
X90355031Y-77869136D01*
X92631729Y-80145833D01*
X92676315Y-80190419D01*
X92719968Y-80234072D01*
X92823718Y-80303396D01*
X92823724Y-80303399D01*
X92823725Y-80303400D01*
X92939015Y-80351155D01*
X93061401Y-80375499D01*
X93061405Y-80375500D01*
X93061406Y-80375500D01*
X96822205Y-80375500D01*
X96889244Y-80395185D01*
X96934999Y-80447989D01*
X96939911Y-80460497D01*
X96957882Y-80514733D01*
X96957884Y-80514737D01*
X96957885Y-80514738D01*
X97050970Y-80665652D01*
X97176348Y-80791030D01*
X97327262Y-80884115D01*
X97495574Y-80939887D01*
X97599455Y-80950500D01*
X98400544Y-80950499D01*
X98504426Y-80939887D01*
X98672738Y-80884115D01*
X98823652Y-80791030D01*
X98912319Y-80702363D01*
X98973642Y-80668878D01*
X99043334Y-80673862D01*
X99087681Y-80702363D01*
X99176348Y-80791030D01*
X99327262Y-80884115D01*
X99495574Y-80939887D01*
X99599455Y-80950500D01*
X100400544Y-80950499D01*
X100504426Y-80939887D01*
X100672738Y-80884115D01*
X100823652Y-80791030D01*
X100949030Y-80665652D01*
X101042115Y-80514738D01*
X101044186Y-80508489D01*
X101060089Y-80460497D01*
X101099861Y-80403052D01*
X101164376Y-80376228D01*
X101177795Y-80375500D01*
X104784395Y-80375500D01*
X104784396Y-80375499D01*
X104906785Y-80351155D01*
X105022075Y-80303400D01*
X105125833Y-80234071D01*
X106152364Y-79207540D01*
X106213687Y-79174055D01*
X106283379Y-79179039D01*
X106339312Y-79220911D01*
X106363729Y-79286375D01*
X106348877Y-79354648D01*
X106343148Y-79364111D01*
X106306115Y-79419533D01*
X106245170Y-79566668D01*
X106245168Y-79566676D01*
X106214100Y-79722865D01*
X106214100Y-79882134D01*
X106245168Y-80038323D01*
X106245170Y-80038331D01*
X106306117Y-80185469D01*
X106394595Y-80317887D01*
X106394601Y-80317894D01*
X106507205Y-80430498D01*
X106507212Y-80430504D01*
X106639630Y-80518982D01*
X106639631Y-80518982D01*
X106639632Y-80518983D01*
X106786769Y-80579930D01*
X106942965Y-80610999D01*
X106942969Y-80611000D01*
X106942970Y-80611000D01*
X107102231Y-80611000D01*
X107102232Y-80610999D01*
X107258431Y-80579930D01*
X107405568Y-80518983D01*
X107498487Y-80456896D01*
X107565164Y-80436020D01*
X107567377Y-80436000D01*
X119333034Y-80436000D01*
X119400073Y-80455685D01*
X119445828Y-80508489D01*
X119455772Y-80577647D01*
X119426747Y-80641203D01*
X119420715Y-80647681D01*
X118232215Y-81836181D01*
X118170892Y-81869666D01*
X118144534Y-81872500D01*
X103310877Y-81872500D01*
X103243838Y-81852815D01*
X103241987Y-81851603D01*
X103149066Y-81789515D01*
X103001931Y-81728570D01*
X103001923Y-81728568D01*
X102845734Y-81697500D01*
X102845730Y-81697500D01*
X102686470Y-81697500D01*
X102686465Y-81697500D01*
X102530276Y-81728568D01*
X102530268Y-81728570D01*
X102383130Y-81789517D01*
X102250712Y-81877995D01*
X102250705Y-81878001D01*
X102138101Y-81990605D01*
X102138095Y-81990612D01*
X102049617Y-82123030D01*
X101988670Y-82270168D01*
X101988668Y-82270176D01*
X101957600Y-82426365D01*
X101957600Y-82585634D01*
X101988668Y-82741823D01*
X101988670Y-82741831D01*
X102049617Y-82888969D01*
X102138095Y-83021387D01*
X102138101Y-83021394D01*
X102250705Y-83133998D01*
X102250712Y-83134004D01*
X102383130Y-83222482D01*
X102383131Y-83222482D01*
X102383132Y-83222483D01*
X102530269Y-83283430D01*
X102686465Y-83314499D01*
X102686469Y-83314500D01*
X102686470Y-83314500D01*
X102845731Y-83314500D01*
X102845732Y-83314499D01*
X103001931Y-83283430D01*
X103149068Y-83222483D01*
X103241987Y-83160396D01*
X103308664Y-83139520D01*
X103310877Y-83139500D01*
X108935000Y-83139500D01*
X109002039Y-83159185D01*
X109047794Y-83211989D01*
X109059000Y-83263500D01*
X109059000Y-83384934D01*
X109090068Y-83541123D01*
X109090070Y-83541131D01*
X109151017Y-83688269D01*
X109239495Y-83820687D01*
X109239501Y-83820694D01*
X109352105Y-83933298D01*
X109352112Y-83933304D01*
X109484530Y-84021782D01*
X109484531Y-84021782D01*
X109484532Y-84021783D01*
X109631669Y-84082730D01*
X109777891Y-84111815D01*
X109787865Y-84113799D01*
X109787869Y-84113800D01*
X109787870Y-84113800D01*
X109947131Y-84113800D01*
X109947132Y-84113799D01*
X110103331Y-84082730D01*
X110250468Y-84021783D01*
X110343387Y-83959696D01*
X110410064Y-83938820D01*
X110412277Y-83938800D01*
X118998901Y-83938800D01*
X119065940Y-83958485D01*
X119111695Y-84011289D01*
X119121639Y-84080447D01*
X119120518Y-84086991D01*
X119099100Y-84194665D01*
X119099100Y-84353934D01*
X119130168Y-84510123D01*
X119130170Y-84510131D01*
X119191117Y-84657269D01*
X119279595Y-84789687D01*
X119279601Y-84789694D01*
X119392205Y-84902298D01*
X119392212Y-84902304D01*
X119524630Y-84990782D01*
X119524631Y-84990782D01*
X119524632Y-84990783D01*
X119671769Y-85051730D01*
X119827965Y-85082799D01*
X119827969Y-85082800D01*
X119827970Y-85082800D01*
X119987231Y-85082800D01*
X119987232Y-85082799D01*
X120143431Y-85051730D01*
X120290568Y-84990783D01*
X120383487Y-84928696D01*
X120450164Y-84907820D01*
X120452377Y-84907800D01*
X120895695Y-84907800D01*
X120895696Y-84907799D01*
X121018085Y-84883455D01*
X121133375Y-84835700D01*
X121237133Y-84766371D01*
X123142285Y-82861219D01*
X123203608Y-82827734D01*
X123229966Y-82824900D01*
X127242745Y-82824900D01*
X127309784Y-82844585D01*
X127355539Y-82897389D01*
X127365483Y-82966547D01*
X127336458Y-83030103D01*
X127330426Y-83036581D01*
X127324801Y-83042205D01*
X127324795Y-83042212D01*
X127236317Y-83174630D01*
X127175370Y-83321768D01*
X127175368Y-83321776D01*
X127144300Y-83477965D01*
X127144300Y-83637234D01*
X127175368Y-83793423D01*
X127175370Y-83793431D01*
X127236317Y-83940569D01*
X127324795Y-84072987D01*
X127324801Y-84072994D01*
X127437405Y-84185598D01*
X127437412Y-84185604D01*
X127569830Y-84274082D01*
X127569831Y-84274082D01*
X127569832Y-84274083D01*
X127716969Y-84335030D01*
X127873165Y-84366099D01*
X127873169Y-84366100D01*
X127873170Y-84366100D01*
X128032431Y-84366100D01*
X128032432Y-84366099D01*
X128188631Y-84335030D01*
X128335768Y-84274083D01*
X128468189Y-84185603D01*
X128580803Y-84072989D01*
X128669283Y-83940568D01*
X128730230Y-83793431D01*
X128730231Y-83793421D01*
X128731999Y-83787599D01*
X128734536Y-83788368D01*
X128743920Y-83770407D01*
X128757124Y-83741497D01*
X128759989Y-83739655D01*
X128761566Y-83736638D01*
X128789168Y-83720903D01*
X128815902Y-83703723D01*
X128820455Y-83703068D01*
X128822265Y-83702037D01*
X128850837Y-83698700D01*
X128876000Y-83698700D01*
X128943039Y-83718385D01*
X128988794Y-83771189D01*
X129000000Y-83822700D01*
X129000000Y-89897101D01*
X135500000Y-89897101D01*
X135500000Y-83822700D01*
X135519685Y-83755661D01*
X135572489Y-83709906D01*
X135624000Y-83698700D01*
X146728637Y-83698700D01*
X146740289Y-83702121D01*
X146752382Y-83700995D01*
X146773189Y-83711782D01*
X146795676Y-83718385D01*
X146805164Y-83728358D01*
X146814412Y-83733153D01*
X146826393Y-83750673D01*
X146836166Y-83760946D01*
X146840141Y-83767868D01*
X146866817Y-83832268D01*
X146940206Y-83942104D01*
X146942298Y-83945746D01*
X146949515Y-83975798D01*
X146958749Y-84005287D01*
X146957602Y-84009466D01*
X146958615Y-84013683D01*
X146948438Y-84042871D01*
X146940264Y-84072667D01*
X146937039Y-84075563D01*
X146935612Y-84079658D01*
X146911269Y-84098711D01*
X146888285Y-84119357D01*
X146883507Y-84120441D01*
X146880592Y-84122723D01*
X146868474Y-84123852D01*
X146834769Y-84131500D01*
X136000982Y-84131500D01*
X135973231Y-84142995D01*
X135951995Y-84164231D01*
X135940500Y-84191982D01*
X135940500Y-136600734D01*
X135920815Y-136667773D01*
X135868011Y-136713528D01*
X135798853Y-136723472D01*
X135735297Y-136694447D01*
X135728819Y-136688415D01*
X126571785Y-127531381D01*
X126538300Y-127470058D01*
X126543284Y-127400366D01*
X126585156Y-127344433D01*
X126650620Y-127320016D01*
X126659466Y-127319700D01*
X127140723Y-127319700D01*
X127207762Y-127339385D01*
X127209613Y-127340597D01*
X127302533Y-127402684D01*
X127376100Y-127433156D01*
X127449669Y-127463630D01*
X127566023Y-127486774D01*
X127605865Y-127494699D01*
X127605869Y-127494700D01*
X127605870Y-127494700D01*
X127765131Y-127494700D01*
X127765132Y-127494699D01*
X127921331Y-127463630D01*
X128068468Y-127402683D01*
X128200889Y-127314203D01*
X128313503Y-127201589D01*
X128401983Y-127069168D01*
X128462930Y-126922031D01*
X128494000Y-126765830D01*
X128494000Y-126606570D01*
X128462930Y-126450369D01*
X128401983Y-126303232D01*
X128317201Y-126176346D01*
X128313504Y-126170812D01*
X128313498Y-126170805D01*
X128200894Y-126058201D01*
X128200887Y-126058195D01*
X128068469Y-125969717D01*
X127921331Y-125908770D01*
X127921323Y-125908768D01*
X127765134Y-125877700D01*
X127765130Y-125877700D01*
X127605870Y-125877700D01*
X127605865Y-125877700D01*
X127449676Y-125908768D01*
X127449668Y-125908770D01*
X127302533Y-125969715D01*
X127209613Y-126031803D01*
X127142936Y-126052680D01*
X127140723Y-126052700D01*
X126148766Y-126052700D01*
X126081727Y-126033015D01*
X126061085Y-126016381D01*
X124655285Y-124610581D01*
X124621800Y-124549258D01*
X124626784Y-124479566D01*
X124668656Y-124423633D01*
X124734120Y-124399216D01*
X124742966Y-124398900D01*
X125626523Y-124398900D01*
X125693562Y-124418585D01*
X125695413Y-124419797D01*
X125788333Y-124481884D01*
X125861900Y-124512356D01*
X125935469Y-124542830D01*
X126091665Y-124573899D01*
X126091669Y-124573900D01*
X126091670Y-124573900D01*
X126250931Y-124573900D01*
X126250932Y-124573899D01*
X126407131Y-124542830D01*
X126554268Y-124481883D01*
X126686689Y-124393403D01*
X126799303Y-124280789D01*
X126887783Y-124148368D01*
X126948730Y-124001231D01*
X126979800Y-123845030D01*
X126979800Y-123685770D01*
X126948730Y-123529569D01*
X126887783Y-123382432D01*
X126884172Y-123377028D01*
X126799304Y-123250012D01*
X126799298Y-123250005D01*
X126686694Y-123137401D01*
X126686687Y-123137395D01*
X126554269Y-123048917D01*
X126407131Y-122987970D01*
X126407123Y-122987968D01*
X126250934Y-122956900D01*
X126250930Y-122956900D01*
X126091670Y-122956900D01*
X126091665Y-122956900D01*
X125935476Y-122987968D01*
X125935468Y-122987970D01*
X125788333Y-123048915D01*
X125695413Y-123111003D01*
X125628736Y-123131880D01*
X125626523Y-123131900D01*
X118594600Y-123131900D01*
X118527561Y-123112215D01*
X118481806Y-123059411D01*
X118470600Y-123007900D01*
X118470600Y-122886469D01*
X118470599Y-122886465D01*
X118459080Y-122828553D01*
X118439530Y-122730269D01*
X118378583Y-122583132D01*
X118290103Y-122450711D01*
X118290098Y-122450705D01*
X118177494Y-122338101D01*
X118177487Y-122338095D01*
X118045069Y-122249617D01*
X117897931Y-122188670D01*
X117897923Y-122188668D01*
X117788327Y-122166868D01*
X117726416Y-122134483D01*
X117724837Y-122132932D01*
X116590336Y-120998431D01*
X116590332Y-120998428D01*
X116486581Y-120929103D01*
X116486572Y-120929098D01*
X116371285Y-120881345D01*
X116371277Y-120881343D01*
X116248898Y-120857000D01*
X116248894Y-120857000D01*
X114362500Y-120857000D01*
X114295461Y-120837315D01*
X114249706Y-120784511D01*
X114238500Y-120733000D01*
X114238499Y-120027462D01*
X114238498Y-120027446D01*
X114238218Y-120024707D01*
X114227887Y-119923574D01*
X114172115Y-119755262D01*
X114079030Y-119604348D01*
X113953652Y-119478970D01*
X113802738Y-119385885D01*
X113802735Y-119385884D01*
X113634427Y-119330113D01*
X113530546Y-119319500D01*
X112529462Y-119319500D01*
X112529446Y-119319501D01*
X112425572Y-119330113D01*
X112257264Y-119385884D01*
X112257259Y-119385886D01*
X112106346Y-119478971D01*
X111980971Y-119604346D01*
X111900015Y-119735597D01*
X111848067Y-119782322D01*
X111794476Y-119794500D01*
X110836524Y-119794500D01*
X110769485Y-119774815D01*
X110730985Y-119735597D01*
X110650030Y-119604348D01*
X110524652Y-119478970D01*
X110373738Y-119385885D01*
X110373735Y-119385884D01*
X110205427Y-119330113D01*
X110101546Y-119319500D01*
X109100462Y-119319500D01*
X109100446Y-119319501D01*
X108996572Y-119330113D01*
X108828264Y-119385884D01*
X108828259Y-119385886D01*
X108677346Y-119478971D01*
X108551971Y-119604346D01*
X108471015Y-119735597D01*
X108419067Y-119782322D01*
X108365476Y-119794500D01*
X107280524Y-119794500D01*
X107213485Y-119774815D01*
X107174985Y-119735597D01*
X107094030Y-119604348D01*
X106968652Y-119478970D01*
X106817738Y-119385885D01*
X106817735Y-119385884D01*
X106649427Y-119330113D01*
X106545546Y-119319500D01*
X105544462Y-119319500D01*
X105544446Y-119319501D01*
X105440572Y-119330113D01*
X105272264Y-119385884D01*
X105272259Y-119385886D01*
X105121346Y-119478971D01*
X104995971Y-119604346D01*
X104915015Y-119735597D01*
X104863067Y-119782322D01*
X104809476Y-119794500D01*
X103851524Y-119794500D01*
X103784485Y-119774815D01*
X103745985Y-119735597D01*
X103665030Y-119604348D01*
X103539652Y-119478970D01*
X103388738Y-119385885D01*
X103388735Y-119385884D01*
X103220427Y-119330113D01*
X103116546Y-119319500D01*
X102115462Y-119319500D01*
X102115446Y-119319501D01*
X102011572Y-119330113D01*
X101843264Y-119385884D01*
X101843259Y-119385886D01*
X101692346Y-119478971D01*
X101566971Y-119604346D01*
X101486015Y-119735597D01*
X101434067Y-119782322D01*
X101380476Y-119794500D01*
X100422524Y-119794500D01*
X100355485Y-119774815D01*
X100316985Y-119735597D01*
X100236030Y-119604348D01*
X100110652Y-119478970D01*
X99959738Y-119385885D01*
X99959735Y-119385884D01*
X99791427Y-119330113D01*
X99687546Y-119319500D01*
X98686462Y-119319500D01*
X98686446Y-119319501D01*
X98582572Y-119330113D01*
X98414264Y-119385884D01*
X98414259Y-119385886D01*
X98263346Y-119478971D01*
X98137971Y-119604346D01*
X98044886Y-119755259D01*
X98044884Y-119755264D01*
X97989113Y-119923572D01*
X97978500Y-120027447D01*
X97978500Y-120828537D01*
X97978501Y-120828553D01*
X97989113Y-120932427D01*
X98044884Y-121100735D01*
X98044886Y-121100740D01*
X98137971Y-121251653D01*
X98226637Y-121340319D01*
X98260122Y-121401642D01*
X98255138Y-121471334D01*
X98226637Y-121515681D01*
X98137971Y-121604346D01*
X98044886Y-121755259D01*
X98044884Y-121755264D01*
X97989113Y-121923572D01*
X97978500Y-122027447D01*
X97978500Y-122828537D01*
X97978501Y-122828553D01*
X97989113Y-122932427D01*
X98044884Y-123100735D01*
X98044886Y-123100740D01*
X98067499Y-123137401D01*
X98137970Y-123251652D01*
X98263348Y-123377030D01*
X98414262Y-123470115D01*
X98582574Y-123525887D01*
X98686455Y-123536500D01*
X99348233Y-123536499D01*
X99415272Y-123556183D01*
X99435914Y-123572818D01*
X103067663Y-127204568D01*
X103067667Y-127204571D01*
X103171418Y-127273896D01*
X103171422Y-127273898D01*
X103171425Y-127273900D01*
X103182704Y-127278571D01*
X103197092Y-127284532D01*
X103251496Y-127328374D01*
X103273560Y-127394668D01*
X103256280Y-127462367D01*
X103237320Y-127486774D01*
X99062315Y-131661781D01*
X99000992Y-131695266D01*
X98974634Y-131698100D01*
X81645001Y-131698100D01*
X81522622Y-131722443D01*
X81522614Y-131722445D01*
X81407327Y-131770198D01*
X81407318Y-131770203D01*
X81303567Y-131839528D01*
X81303563Y-131839531D01*
X80358022Y-132785072D01*
X80296699Y-132818557D01*
X80227007Y-132813573D01*
X80221843Y-132811214D01*
X80079203Y-132758011D01*
X80018654Y-132751500D01*
X80018638Y-132751500D01*
X78221362Y-132751500D01*
X78221345Y-132751500D01*
X78160797Y-132758011D01*
X78160795Y-132758011D01*
X78023795Y-132809111D01*
X77906739Y-132896739D01*
X77819111Y-133013795D01*
X77768011Y-133150795D01*
X77768011Y-133150797D01*
X77761500Y-133211345D01*
X70255500Y-133211345D01*
X70255500Y-100108965D01*
X85480600Y-100108965D01*
X85480600Y-100268234D01*
X85511668Y-100424423D01*
X85511670Y-100424431D01*
X85572617Y-100571569D01*
X85661095Y-100703987D01*
X85661101Y-100703994D01*
X85773705Y-100816598D01*
X85773712Y-100816604D01*
X85906130Y-100905082D01*
X85906131Y-100905082D01*
X85906132Y-100905083D01*
X86053269Y-100966030D01*
X86209465Y-100997099D01*
X86209469Y-100997100D01*
X86209470Y-100997100D01*
X86368731Y-100997100D01*
X86368732Y-100997099D01*
X86524931Y-100966030D01*
X86672068Y-100905083D01*
X86804489Y-100816603D01*
X86917103Y-100703989D01*
X87005583Y-100571568D01*
X87066530Y-100424431D01*
X87088331Y-100314822D01*
X87120715Y-100252915D01*
X87122207Y-100251395D01*
X87770786Y-99602819D01*
X87832109Y-99569334D01*
X87858467Y-99566500D01*
X92998476Y-99566500D01*
X93065515Y-99586185D01*
X93104013Y-99625401D01*
X93184970Y-99756652D01*
X93310348Y-99882030D01*
X93461262Y-99975115D01*
X93629574Y-100030887D01*
X93733455Y-100041500D01*
X94734544Y-100041499D01*
X94838426Y-100030887D01*
X95006738Y-99975115D01*
X95157652Y-99882030D01*
X95268032Y-99771649D01*
X95329351Y-99738167D01*
X95399043Y-99743151D01*
X95403163Y-99744772D01*
X95533669Y-99798830D01*
X95660596Y-99824077D01*
X95689865Y-99829899D01*
X95689869Y-99829900D01*
X95689870Y-99829900D01*
X95849131Y-99829900D01*
X95849132Y-99829899D01*
X96005331Y-99798830D01*
X96145786Y-99740651D01*
X96152466Y-99737884D01*
X96152466Y-99737883D01*
X96152468Y-99737883D01*
X96245387Y-99675796D01*
X96263433Y-99670146D01*
X96279342Y-99659923D01*
X96310302Y-99655471D01*
X96312064Y-99654920D01*
X96314277Y-99654900D01*
X96482002Y-99654900D01*
X96549041Y-99674585D01*
X96587539Y-99713801D01*
X96613970Y-99756652D01*
X96739348Y-99882030D01*
X96890262Y-99975115D01*
X97058574Y-100030887D01*
X97162455Y-100041500D01*
X98163544Y-100041499D01*
X98267426Y-100030887D01*
X98435738Y-99975115D01*
X98586652Y-99882030D01*
X98606976Y-99861705D01*
X98668298Y-99828220D01*
X98718849Y-99827769D01*
X98721668Y-99828329D01*
X98721669Y-99828330D01*
X98877867Y-99859399D01*
X98877869Y-99859400D01*
X98877870Y-99859400D01*
X99037131Y-99859400D01*
X99037132Y-99859399D01*
X99193331Y-99828330D01*
X99340468Y-99767383D01*
X99433387Y-99705296D01*
X99500064Y-99684420D01*
X99502277Y-99684400D01*
X99929198Y-99684400D01*
X99996237Y-99704085D01*
X100034736Y-99743303D01*
X100042970Y-99756652D01*
X100168348Y-99882030D01*
X100319262Y-99975115D01*
X100487574Y-100030887D01*
X100591455Y-100041500D01*
X101416300Y-100041499D01*
X101483339Y-100061183D01*
X101529094Y-100113987D01*
X101540300Y-100165499D01*
X101540300Y-101531433D01*
X101520615Y-101598472D01*
X101503981Y-101619114D01*
X100891162Y-102231932D01*
X100829839Y-102265417D01*
X100827672Y-102265868D01*
X100718076Y-102287668D01*
X100718068Y-102287670D01*
X100570930Y-102348617D01*
X100438512Y-102437095D01*
X100438505Y-102437101D01*
X100325901Y-102549705D01*
X100325895Y-102549712D01*
X100237417Y-102682130D01*
X100176470Y-102829268D01*
X100176468Y-102829276D01*
X100145400Y-102985465D01*
X100145400Y-103144734D01*
X100176468Y-103300923D01*
X100176470Y-103300931D01*
X100237417Y-103448069D01*
X100325895Y-103580487D01*
X100325901Y-103580494D01*
X100438505Y-103693098D01*
X100438512Y-103693104D01*
X100570930Y-103781582D01*
X100570931Y-103781582D01*
X100570932Y-103781583D01*
X100718069Y-103842530D01*
X100874265Y-103873599D01*
X100874269Y-103873600D01*
X100874270Y-103873600D01*
X101033531Y-103873600D01*
X101033532Y-103873599D01*
X101189731Y-103842530D01*
X101336868Y-103781583D01*
X101469289Y-103693103D01*
X101581903Y-103580489D01*
X101670383Y-103448068D01*
X101731330Y-103300931D01*
X101753131Y-103191322D01*
X101785515Y-103129415D01*
X101787009Y-103127893D01*
X102665871Y-102249033D01*
X102735200Y-102145275D01*
X102782955Y-102029985D01*
X102807300Y-101907594D01*
X102807300Y-101782806D01*
X102807300Y-100021956D01*
X102826985Y-99954917D01*
X102879789Y-99909162D01*
X102948947Y-99899218D01*
X102955474Y-99900335D01*
X103079468Y-99924999D01*
X103079469Y-99925000D01*
X103079470Y-99925000D01*
X103238731Y-99925000D01*
X103238732Y-99924999D01*
X103394931Y-99893930D01*
X103484504Y-99856826D01*
X103553972Y-99849357D01*
X103597054Y-99865849D01*
X103748253Y-99959110D01*
X103748256Y-99959111D01*
X103748262Y-99959115D01*
X103916574Y-100014887D01*
X104020455Y-100025500D01*
X105021544Y-100025499D01*
X105125426Y-100014887D01*
X105293738Y-99959115D01*
X105444652Y-99866030D01*
X105570030Y-99740652D01*
X105579958Y-99724555D01*
X105631905Y-99677831D01*
X105700868Y-99666608D01*
X105764950Y-99694451D01*
X105773178Y-99701971D01*
X105831705Y-99760498D01*
X105831712Y-99760504D01*
X105964130Y-99848982D01*
X105964131Y-99848982D01*
X105964132Y-99848983D01*
X106111269Y-99909930D01*
X106243746Y-99936281D01*
X106267465Y-99940999D01*
X106267469Y-99941000D01*
X106267470Y-99941000D01*
X106426731Y-99941000D01*
X106426732Y-99940999D01*
X106582931Y-99909930D01*
X106730068Y-99848983D01*
X106793663Y-99806490D01*
X106860336Y-99785614D01*
X106927716Y-99804098D01*
X106950231Y-99821913D01*
X107026348Y-99898030D01*
X107177262Y-99991115D01*
X107345574Y-100046887D01*
X107449455Y-100057500D01*
X108450544Y-100057499D01*
X108554426Y-100046887D01*
X108722738Y-99991115D01*
X108873652Y-99898030D01*
X108999030Y-99772652D01*
X109012777Y-99750363D01*
X109064722Y-99703639D01*
X109133684Y-99692415D01*
X109187204Y-99712356D01*
X109281532Y-99775383D01*
X109428669Y-99836330D01*
X109584865Y-99867399D01*
X109584869Y-99867400D01*
X109584870Y-99867400D01*
X109744131Y-99867400D01*
X109744132Y-99867399D01*
X109900331Y-99836330D01*
X110047468Y-99775383D01*
X110140387Y-99713296D01*
X110158433Y-99707646D01*
X110174342Y-99697423D01*
X110205302Y-99692971D01*
X110207064Y-99692420D01*
X110209277Y-99692400D01*
X110211263Y-99692400D01*
X110278302Y-99712085D01*
X110316801Y-99751302D01*
X110329968Y-99772650D01*
X110329970Y-99772652D01*
X110455348Y-99898030D01*
X110606262Y-99991115D01*
X110774574Y-100046887D01*
X110857500Y-100055359D01*
X110922191Y-100081755D01*
X110962343Y-100138936D01*
X110965206Y-100208747D01*
X110959458Y-100226170D01*
X110899770Y-100370268D01*
X110899768Y-100370276D01*
X110868700Y-100526465D01*
X110868700Y-100685734D01*
X110899768Y-100841923D01*
X110899770Y-100841931D01*
X110960717Y-100989069D01*
X111049195Y-101121487D01*
X111049201Y-101121494D01*
X111161805Y-101234098D01*
X111161812Y-101234104D01*
X111294230Y-101322582D01*
X111294231Y-101322582D01*
X111294232Y-101322583D01*
X111441369Y-101383530D01*
X111597565Y-101414599D01*
X111597569Y-101414600D01*
X111597570Y-101414600D01*
X111756831Y-101414600D01*
X111756832Y-101414599D01*
X111913031Y-101383530D01*
X112060168Y-101322583D01*
X112153087Y-101260496D01*
X112219764Y-101239620D01*
X112221977Y-101239600D01*
X113197295Y-101239600D01*
X113197296Y-101239599D01*
X113319685Y-101215255D01*
X113434975Y-101167500D01*
X113538733Y-101098171D01*
X114559085Y-100077817D01*
X114620408Y-100044333D01*
X114646766Y-100041499D01*
X114969232Y-100041499D01*
X115036271Y-100061184D01*
X115056913Y-100077818D01*
X115361963Y-100382869D01*
X115361967Y-100382872D01*
X115465721Y-100452199D01*
X115465723Y-100452199D01*
X115465725Y-100452201D01*
X115581015Y-100499955D01*
X115581017Y-100499955D01*
X115581022Y-100499957D01*
X115703401Y-100524299D01*
X115703405Y-100524300D01*
X115703406Y-100524300D01*
X123357895Y-100524300D01*
X123357896Y-100524299D01*
X123480285Y-100499955D01*
X123595575Y-100452200D01*
X123699333Y-100382871D01*
X126168172Y-97914033D01*
X126214085Y-97845319D01*
X126237499Y-97810277D01*
X126237499Y-97810276D01*
X126237500Y-97810275D01*
X126285255Y-97694985D01*
X126309600Y-97572594D01*
X126309600Y-97447806D01*
X126309600Y-96892506D01*
X126285255Y-96770115D01*
X126237500Y-96654825D01*
X126237499Y-96654824D01*
X126237496Y-96654818D01*
X126168172Y-96551068D01*
X126149550Y-96532446D01*
X126079933Y-96462829D01*
X125841701Y-96224597D01*
X125480136Y-95863031D01*
X125379344Y-95795683D01*
X125360555Y-95780262D01*
X125307394Y-95727101D01*
X125307387Y-95727095D01*
X125174969Y-95638617D01*
X125027831Y-95577670D01*
X125027823Y-95577668D01*
X124871634Y-95546600D01*
X124871630Y-95546600D01*
X124712370Y-95546600D01*
X124712365Y-95546600D01*
X124556176Y-95577668D01*
X124556168Y-95577670D01*
X124409030Y-95638617D01*
X124276612Y-95727095D01*
X124276605Y-95727101D01*
X124164001Y-95839705D01*
X124163995Y-95839712D01*
X124075517Y-95972130D01*
X124014570Y-96119268D01*
X124014568Y-96119276D01*
X123983500Y-96275465D01*
X123983500Y-96434734D01*
X124014568Y-96590923D01*
X124014570Y-96590931D01*
X124075517Y-96738069D01*
X124163995Y-96870487D01*
X124164001Y-96870494D01*
X124229533Y-96936026D01*
X124233336Y-96942992D01*
X124239777Y-96947636D01*
X124249843Y-96973222D01*
X124263018Y-96997349D01*
X124263103Y-97006923D01*
X124265358Y-97012654D01*
X124263469Y-97047898D01*
X124250068Y-97115271D01*
X124217684Y-97177182D01*
X124216133Y-97178760D01*
X124131715Y-97263180D01*
X124070393Y-97296666D01*
X124044033Y-97299500D01*
X119569500Y-97299500D01*
X119502461Y-97279815D01*
X119456706Y-97227011D01*
X119445500Y-97175500D01*
X119445499Y-96532462D01*
X119445498Y-96532446D01*
X119435516Y-96434734D01*
X119434887Y-96428574D01*
X119379115Y-96260262D01*
X119286030Y-96109348D01*
X119160652Y-95983970D01*
X119035678Y-95906885D01*
X119009740Y-95890886D01*
X119009735Y-95890884D01*
X119008938Y-95890619D01*
X118974295Y-95879140D01*
X118916851Y-95839368D01*
X118890028Y-95774852D01*
X118889300Y-95761435D01*
X118889300Y-94839177D01*
X118908985Y-94772138D01*
X118910197Y-94770287D01*
X118972284Y-94677366D01*
X118981208Y-94655819D01*
X119033230Y-94530231D01*
X119064300Y-94374030D01*
X119064300Y-94214770D01*
X119033230Y-94058569D01*
X118972283Y-93911432D01*
X118883803Y-93779011D01*
X118883798Y-93779005D01*
X118771194Y-93666401D01*
X118771187Y-93666395D01*
X118638769Y-93577917D01*
X118491631Y-93516970D01*
X118491623Y-93516968D01*
X118335434Y-93485900D01*
X118335430Y-93485900D01*
X118176170Y-93485900D01*
X118176165Y-93485900D01*
X118019976Y-93516968D01*
X118019968Y-93516970D01*
X117872830Y-93577917D01*
X117740412Y-93666395D01*
X117740405Y-93666401D01*
X117627801Y-93779005D01*
X117627795Y-93779012D01*
X117539317Y-93911430D01*
X117478370Y-94058568D01*
X117478368Y-94058576D01*
X117447300Y-94214765D01*
X117447300Y-94374034D01*
X117478368Y-94530223D01*
X117478370Y-94530231D01*
X117539315Y-94677366D01*
X117601403Y-94770287D01*
X117622280Y-94836964D01*
X117622300Y-94839177D01*
X117622300Y-95748975D01*
X117602615Y-95816014D01*
X117549811Y-95861769D01*
X117537305Y-95866681D01*
X117464262Y-95890885D01*
X117464259Y-95890886D01*
X117313346Y-95983971D01*
X117187971Y-96109346D01*
X117181846Y-96119276D01*
X117116884Y-96224597D01*
X117107015Y-96240597D01*
X117055067Y-96287322D01*
X117001476Y-96299500D01*
X116043524Y-96299500D01*
X115976485Y-96279815D01*
X115937985Y-96240597D01*
X115857030Y-96109348D01*
X115731652Y-95983970D01*
X115606678Y-95906885D01*
X115580740Y-95890886D01*
X115580735Y-95890884D01*
X115412427Y-95835113D01*
X115308546Y-95824500D01*
X114307462Y-95824500D01*
X114307446Y-95824501D01*
X114203572Y-95835113D01*
X114035264Y-95890884D01*
X114035259Y-95890886D01*
X113884346Y-95983971D01*
X113758971Y-96109346D01*
X113752846Y-96119276D01*
X113687884Y-96224597D01*
X113678015Y-96240597D01*
X113626067Y-96287322D01*
X113572476Y-96299500D01*
X112604655Y-96299500D01*
X112537616Y-96279815D01*
X112499117Y-96240598D01*
X112428030Y-96125348D01*
X112302652Y-95999970D01*
X112151738Y-95906885D01*
X112151735Y-95906884D01*
X111983427Y-95851113D01*
X111879546Y-95840500D01*
X110878462Y-95840500D01*
X110878446Y-95840501D01*
X110774572Y-95851113D01*
X110606264Y-95906884D01*
X110606259Y-95906886D01*
X110455346Y-95999971D01*
X110329971Y-96125346D01*
X110329970Y-96125348D01*
X110258884Y-96240597D01*
X110249015Y-96256597D01*
X110197067Y-96303322D01*
X110143476Y-96315500D01*
X109185524Y-96315500D01*
X109118485Y-96295815D01*
X109079985Y-96256597D01*
X109072377Y-96244262D01*
X108999030Y-96125348D01*
X108873652Y-95999970D01*
X108722738Y-95906885D01*
X108722735Y-95906884D01*
X108554427Y-95851113D01*
X108450546Y-95840500D01*
X107449462Y-95840500D01*
X107449446Y-95840501D01*
X107345572Y-95851113D01*
X107177264Y-95906884D01*
X107177259Y-95906886D01*
X107026346Y-95999971D01*
X106900971Y-96125346D01*
X106900970Y-96125348D01*
X106839751Y-96224598D01*
X106787805Y-96271321D01*
X106734214Y-96283500D01*
X105756524Y-96283500D01*
X105689485Y-96263815D01*
X105650985Y-96224597D01*
X105612816Y-96162715D01*
X105570030Y-96093348D01*
X105444652Y-95967970D01*
X105319678Y-95890885D01*
X105293740Y-95874886D01*
X105293735Y-95874884D01*
X105125427Y-95819113D01*
X105021546Y-95808500D01*
X104020462Y-95808500D01*
X104020446Y-95808501D01*
X103916572Y-95819113D01*
X103748264Y-95874884D01*
X103748259Y-95874886D01*
X103597346Y-95967971D01*
X103471971Y-96093346D01*
X103471970Y-96093348D01*
X103429185Y-96162714D01*
X103391015Y-96224597D01*
X103339067Y-96271322D01*
X103285476Y-96283500D01*
X102317655Y-96283500D01*
X102250616Y-96263815D01*
X102212117Y-96224598D01*
X102141030Y-96109348D01*
X102015652Y-95983970D01*
X101890678Y-95906885D01*
X101864740Y-95890886D01*
X101864735Y-95890884D01*
X101696427Y-95835113D01*
X101592546Y-95824500D01*
X100591462Y-95824500D01*
X100591446Y-95824501D01*
X100487572Y-95835113D01*
X100319264Y-95890884D01*
X100319259Y-95890886D01*
X100168346Y-95983971D01*
X100042971Y-96109346D01*
X100036846Y-96119276D01*
X99971884Y-96224597D01*
X99962015Y-96240597D01*
X99910067Y-96287322D01*
X99856476Y-96299500D01*
X98898524Y-96299500D01*
X98831485Y-96279815D01*
X98792985Y-96240597D01*
X98712030Y-96109348D01*
X98586652Y-95983970D01*
X98461678Y-95906885D01*
X98435740Y-95890886D01*
X98435735Y-95890884D01*
X98267427Y-95835113D01*
X98163546Y-95824500D01*
X97162462Y-95824500D01*
X97162446Y-95824501D01*
X97058572Y-95835113D01*
X96890264Y-95890884D01*
X96890259Y-95890886D01*
X96739346Y-95983971D01*
X96613971Y-96109346D01*
X96607846Y-96119276D01*
X96542884Y-96224597D01*
X96533015Y-96240597D01*
X96481067Y-96287322D01*
X96427476Y-96299500D01*
X95469524Y-96299500D01*
X95402485Y-96279815D01*
X95363985Y-96240597D01*
X95283030Y-96109348D01*
X95157652Y-95983970D01*
X95032678Y-95906885D01*
X95006740Y-95890886D01*
X95006735Y-95890884D01*
X94831999Y-95832983D01*
X94832433Y-95831671D01*
X94777586Y-95801958D01*
X94743899Y-95740746D01*
X94748652Y-95671038D01*
X94777294Y-95626308D01*
X101333585Y-89070019D01*
X101394908Y-89036534D01*
X101421266Y-89033700D01*
X124923923Y-89033700D01*
X124990962Y-89053385D01*
X124992813Y-89054597D01*
X125085733Y-89116684D01*
X125159300Y-89147156D01*
X125232869Y-89177630D01*
X125389065Y-89208699D01*
X125389069Y-89208700D01*
X125389070Y-89208700D01*
X125548331Y-89208700D01*
X125548332Y-89208699D01*
X125704531Y-89177630D01*
X125851668Y-89116683D01*
X125984089Y-89028203D01*
X126096703Y-88915589D01*
X126185183Y-88783168D01*
X126246130Y-88636031D01*
X126277200Y-88479830D01*
X126277200Y-88320570D01*
X126246130Y-88164369D01*
X126185183Y-88017232D01*
X126112283Y-87908129D01*
X126096704Y-87884812D01*
X126096698Y-87884805D01*
X125984094Y-87772201D01*
X125984087Y-87772195D01*
X125851669Y-87683717D01*
X125704531Y-87622770D01*
X125704523Y-87622768D01*
X125548334Y-87591700D01*
X125548330Y-87591700D01*
X125389070Y-87591700D01*
X125389065Y-87591700D01*
X125232876Y-87622768D01*
X125232868Y-87622770D01*
X125085733Y-87683715D01*
X124992813Y-87745803D01*
X124926136Y-87766680D01*
X124923923Y-87766700D01*
X101045101Y-87766700D01*
X100922722Y-87791043D01*
X100922714Y-87791045D01*
X100807427Y-87838798D01*
X100807418Y-87838803D01*
X100703667Y-87908128D01*
X100703663Y-87908131D01*
X94700366Y-93911430D01*
X92756367Y-95855429D01*
X92732655Y-95879141D01*
X92668127Y-95943668D01*
X92598803Y-96047418D01*
X92598798Y-96047427D01*
X92551045Y-96162714D01*
X92551043Y-96162722D01*
X92526700Y-96285101D01*
X92526700Y-97921598D01*
X92549592Y-98036681D01*
X92551045Y-98043985D01*
X92578119Y-98109348D01*
X92585865Y-98128047D01*
X92593334Y-98197516D01*
X92562059Y-98259996D01*
X92501970Y-98295648D01*
X92471304Y-98299500D01*
X87482301Y-98299500D01*
X87359922Y-98323843D01*
X87359910Y-98323846D01*
X87334391Y-98334417D01*
X87244624Y-98371599D01*
X87244621Y-98371600D01*
X87140867Y-98440927D01*
X87140863Y-98440930D01*
X86226362Y-99355432D01*
X86165039Y-99388917D01*
X86162872Y-99389368D01*
X86053276Y-99411168D01*
X86053268Y-99411170D01*
X85906130Y-99472117D01*
X85773712Y-99560595D01*
X85773705Y-99560601D01*
X85661101Y-99673205D01*
X85661095Y-99673212D01*
X85572617Y-99805630D01*
X85511670Y-99952768D01*
X85511668Y-99952776D01*
X85480600Y-100108965D01*
X70255500Y-100108965D01*
X70255500Y-89733916D01*
X71000000Y-89733916D01*
X77500000Y-89733916D01*
X77500000Y-83233916D01*
X71000000Y-83233916D01*
X71000000Y-89733916D01*
X70255500Y-89733916D01*
X70255500Y-76151345D01*
X87191500Y-76151345D01*
X87191500Y-77848654D01*
X87198011Y-77909202D01*
X87198011Y-77909204D01*
X87235358Y-78009332D01*
X87249111Y-78046204D01*
X87336739Y-78163261D01*
X87453796Y-78250889D01*
X87590799Y-78301989D01*
X87618050Y-78304918D01*
X87651345Y-78308499D01*
X87651362Y-78308500D01*
X89348638Y-78308500D01*
X89348654Y-78308499D01*
X89375692Y-78305591D01*
X89409201Y-78301989D01*
X89546204Y-78250889D01*
X89663261Y-78163261D01*
X89750889Y-78046204D01*
X89801989Y-77909201D01*
X89806760Y-77864827D01*
X89808499Y-77848654D01*
X89808500Y-77848637D01*
X89808500Y-76151362D01*
X89808499Y-76151345D01*
X89804394Y-76113167D01*
X89801989Y-76090799D01*
X89795871Y-76074397D01*
X89777421Y-76024930D01*
X89750889Y-75953796D01*
X89663261Y-75836739D01*
X89546204Y-75749111D01*
X89487631Y-75727264D01*
X89409203Y-75698011D01*
X89348654Y-75691500D01*
X89348638Y-75691500D01*
X87651362Y-75691500D01*
X87651345Y-75691500D01*
X87590797Y-75698011D01*
X87590795Y-75698011D01*
X87453795Y-75749111D01*
X87336739Y-75836739D01*
X87249111Y-75953795D01*
X87198011Y-76090795D01*
X87198011Y-76090797D01*
X87191500Y-76151345D01*
X70255500Y-76151345D01*
X70255500Y-63702155D01*
X83050000Y-63702155D01*
X83050000Y-65250000D01*
X84800000Y-65250000D01*
X84800000Y-65750000D01*
X83050000Y-65750000D01*
X83050000Y-67297844D01*
X83056401Y-67357372D01*
X83056403Y-67357379D01*
X83106645Y-67492086D01*
X83106649Y-67492093D01*
X83192809Y-67607187D01*
X83192812Y-67607190D01*
X83307906Y-67693350D01*
X83307913Y-67693354D01*
X83442620Y-67743596D01*
X83442627Y-67743598D01*
X83502155Y-67749999D01*
X83502172Y-67750000D01*
X85050000Y-67750000D01*
X85050000Y-66933012D01*
X85107007Y-66965925D01*
X85234174Y-67000000D01*
X85365826Y-67000000D01*
X85492993Y-66965925D01*
X85550000Y-66933012D01*
X85550000Y-67750000D01*
X87097828Y-67750000D01*
X87097844Y-67749999D01*
X87157372Y-67743598D01*
X87157379Y-67743596D01*
X87292086Y-67693354D01*
X87292093Y-67693350D01*
X87407187Y-67607190D01*
X87407190Y-67607187D01*
X87493350Y-67492093D01*
X87493355Y-67492084D01*
X87501318Y-67470735D01*
X87543188Y-67414801D01*
X87608652Y-67390383D01*
X87676925Y-67405234D01*
X87726331Y-67454639D01*
X87741500Y-67514067D01*
X87741500Y-70298654D01*
X87748011Y-70359202D01*
X87748011Y-70359204D01*
X87782247Y-70450990D01*
X87799111Y-70496204D01*
X87886739Y-70613261D01*
X88003796Y-70700889D01*
X88103792Y-70738186D01*
X88137447Y-70750739D01*
X88140799Y-70751989D01*
X88168050Y-70754918D01*
X88201345Y-70758499D01*
X88201362Y-70758500D01*
X91798638Y-70758500D01*
X91798654Y-70758499D01*
X91825692Y-70755591D01*
X91859201Y-70751989D01*
X91862553Y-70750739D01*
X91878427Y-70744818D01*
X91996204Y-70700889D01*
X92113261Y-70613261D01*
X92200889Y-70496204D01*
X92251989Y-70359201D01*
X92255591Y-70325692D01*
X92258499Y-70298654D01*
X92258500Y-70298637D01*
X92258500Y-66701362D01*
X92258499Y-66701345D01*
X92255157Y-66670270D01*
X92251989Y-66640799D01*
X92250870Y-66637800D01*
X92216636Y-66546015D01*
X92200889Y-66503796D01*
X92113261Y-66386739D01*
X91996204Y-66299111D01*
X91859203Y-66248011D01*
X91798654Y-66241500D01*
X91798638Y-66241500D01*
X88201362Y-66241500D01*
X88201345Y-66241500D01*
X88140797Y-66248011D01*
X88140795Y-66248011D01*
X88003795Y-66299111D01*
X87886739Y-66386739D01*
X87799111Y-66503795D01*
X87790181Y-66527738D01*
X87748309Y-66583671D01*
X87682845Y-66608087D01*
X87614572Y-66593235D01*
X87565167Y-66543829D01*
X87550000Y-66484403D01*
X87550000Y-65750000D01*
X85800000Y-65750000D01*
X85800000Y-65250000D01*
X87550000Y-65250000D01*
X87550000Y-64491278D01*
X87569685Y-64424239D01*
X87622489Y-64378484D01*
X87691647Y-64368540D01*
X87755203Y-64397565D01*
X87790182Y-64447945D01*
X87806645Y-64492086D01*
X87806649Y-64492093D01*
X87892809Y-64607187D01*
X87892812Y-64607190D01*
X88007906Y-64693350D01*
X88007913Y-64693354D01*
X88142620Y-64743596D01*
X88142627Y-64743598D01*
X88202155Y-64749999D01*
X88202172Y-64750000D01*
X89750000Y-64750000D01*
X89750000Y-63000000D01*
X90250000Y-63000000D01*
X90250000Y-64750000D01*
X91797828Y-64750000D01*
X91797844Y-64749999D01*
X91857372Y-64743598D01*
X91857379Y-64743596D01*
X91992086Y-64693354D01*
X91992093Y-64693350D01*
X92107187Y-64607190D01*
X92107190Y-64607187D01*
X92193350Y-64492093D01*
X92193354Y-64492086D01*
X92243596Y-64357379D01*
X92243598Y-64357372D01*
X92249999Y-64297844D01*
X92250000Y-64297827D01*
X92250000Y-62750000D01*
X91433012Y-62750000D01*
X91465925Y-62692993D01*
X91500000Y-62565826D01*
X91500000Y-62434174D01*
X91465925Y-62307007D01*
X91433012Y-62250000D01*
X92250000Y-62250000D01*
X92250000Y-60702172D01*
X92249999Y-60702155D01*
X92243598Y-60642627D01*
X92243596Y-60642620D01*
X92193354Y-60507913D01*
X92193350Y-60507906D01*
X92107190Y-60392812D01*
X92107187Y-60392809D01*
X91992093Y-60306649D01*
X91992086Y-60306645D01*
X91857379Y-60256403D01*
X91857372Y-60256401D01*
X91797844Y-60250000D01*
X90250000Y-60250000D01*
X90250000Y-62000000D01*
X89750000Y-62000000D01*
X89750000Y-60250000D01*
X88202155Y-60250000D01*
X88142627Y-60256401D01*
X88142620Y-60256403D01*
X88007913Y-60306645D01*
X88007906Y-60306649D01*
X87892812Y-60392809D01*
X87892809Y-60392812D01*
X87806649Y-60507906D01*
X87806645Y-60507913D01*
X87756403Y-60642620D01*
X87756401Y-60642627D01*
X87750000Y-60702155D01*
X87750000Y-62250000D01*
X88566988Y-62250000D01*
X88534075Y-62307007D01*
X88500000Y-62434174D01*
X88500000Y-62565826D01*
X88534075Y-62692993D01*
X88566988Y-62750000D01*
X87750000Y-62750000D01*
X87750000Y-63508721D01*
X87730315Y-63575760D01*
X87677511Y-63621515D01*
X87608353Y-63631459D01*
X87544797Y-63602434D01*
X87509818Y-63552055D01*
X87493353Y-63507911D01*
X87493350Y-63507906D01*
X87407190Y-63392812D01*
X87407187Y-63392809D01*
X87292093Y-63306649D01*
X87292086Y-63306645D01*
X87157379Y-63256403D01*
X87157372Y-63256401D01*
X87097844Y-63250000D01*
X85550000Y-63250000D01*
X85550000Y-64066988D01*
X85492993Y-64034075D01*
X85365826Y-64000000D01*
X85234174Y-64000000D01*
X85107007Y-64034075D01*
X85050000Y-64066988D01*
X85050000Y-63250000D01*
X83502155Y-63250000D01*
X83442627Y-63256401D01*
X83442620Y-63256403D01*
X83307913Y-63306645D01*
X83307906Y-63306649D01*
X83192812Y-63392809D01*
X83192809Y-63392812D01*
X83106649Y-63507906D01*
X83106645Y-63507913D01*
X83056403Y-63642620D01*
X83056401Y-63642627D01*
X83050000Y-63702155D01*
X70255500Y-63702155D01*
X70255500Y-61124000D01*
X70275185Y-61056961D01*
X70327989Y-61011206D01*
X70379500Y-61000000D01*
X76500000Y-61000000D01*
X76500000Y-54809500D01*
X76519685Y-54742461D01*
X76572489Y-54696706D01*
X76624000Y-54685500D01*
X163876000Y-54685500D01*
X163943039Y-54705185D01*
G37*
%TD.AperFunction*%
%TD*%
M02*
