M48
; DRILL file {KiCad 9.0.7} date 2026-02-09T23:27:53+0100
; FORMAT={-:-/ absolute / metric / decimal}
; #@! TF.CreationDate,2026-02-09T23:27:53+01:00
; #@! TF.GenerationSoftware,Kicad,Pcbnew,9.0.7
; #@! TF.FileFunction,Plated,1,2,PTH
FMAT,2
METRIC
; #@! TA.AperFunction,Plated,PTH,ViaDrill
T1C0.400
; #@! TA.AperFunction,Plated,PTH,ComponentDrill
T2C0.800
; #@! TA.AperFunction,Plated,PTH,ComponentDrill
T3C1.000
%
G90
G05
T1
X74.501Y-82.506
X77.448Y-61.876
X98.001Y-78.906
X98.078Y-67.77
X98.953Y-72.621
X100.112Y-64.548
X101.319Y-77.433
X101.55Y-79.56
X101.659Y-73.77
X104.92Y-88.4
X112.813Y-79.559
X113.03Y-91.738
X114.866Y-80.358
X115.03Y-69.043
X115.76Y-70.718
X115.76Y-76.61
X116.067Y-66.024
X116.42Y-132.607
X118.337Y-132.607
X118.586Y-67.52
X118.586Y-79.104
X118.707Y-70.718
X119.345Y-64.75
X119.463Y-85.826
X120.765Y-64.75
X121.059Y-69.872
X121.92Y-88.535
X122.124Y-84.969
X122.156Y-76.99
X122.441Y-72.496
X122.704Y-78.532
X123.685Y-97.242
X123.692Y-82.506
X124.366Y-91.74
X124.472Y-123.765
X125.29Y-80.072
X125.29Y-85.197
X125.564Y-59.977
X126.975Y-78.71
X127.548Y-135.554
X128.651Y-69.881
X129.411Y-78.525
X129.517Y-72.838
X129.96Y-70.718
X129.96Y-76.612
X130.496Y-129.66
X130.991Y-62.572
X132.421Y-91.001
X133.124Y-59.528
X133.206Y-126.712
X133.443Y-129.66
X133.961Y-135.554
X134.082Y-67.369
X134.453Y-75.867
X134.621Y-70.718
X136.001Y-96.49
X136.39Y-128.86
X136.39Y-132.607
X136.39Y-139.3
X137.211Y-131.786
X138.382Y-84.566
X138.953Y-81.495
X138.978Y-73.995
X139.337Y-138.501
X141.082Y-76.612
X141.997Y-92.342
X142.784Y-96.274
X143.002Y-79.486
X143.811Y-85.198
X145.06Y-67.369
X145.188Y-76.612
X146.009Y-81.515
X148.241Y-78.541
X149.183Y-128.691
X150.929Y-76.25
X151.104Y-58.529
X151.392Y-72.726
X154.527Y-79.559
X154.652Y-60.603
X157.019Y-94.294
X157.019Y-123.765
T2
X91.44Y-62.23
X94.94Y-62.23
X114.3Y-63.5
X114.3Y-66.0
X116.4Y-63.5
X118.6Y-66.0
X119.0Y-63.5
X121.1Y-63.5
X121.1Y-66.0
T3
X75.47Y-76.835
X79.45Y-76.835
X112.56Y-140.97
X113.03Y-87.265
X113.03Y-89.805
X115.1Y-140.97
X115.57Y-87.265
X115.57Y-89.805
X117.64Y-140.97
X118.11Y-87.265
X118.11Y-89.805
X120.18Y-140.97
X120.65Y-87.265
X120.65Y-89.805
X122.72Y-140.97
X123.19Y-87.265
X123.19Y-89.805
X125.26Y-140.97
X125.73Y-87.265
X125.73Y-89.805
X127.8Y-140.97
X128.27Y-87.265
X128.27Y-89.805
X130.34Y-140.97
X130.81Y-87.265
X130.81Y-89.805
X132.88Y-140.97
X133.35Y-87.265
X133.35Y-89.805
X135.128Y-60.452
X135.128Y-62.992
X135.42Y-140.97
X135.89Y-87.265
X135.89Y-89.805
X137.668Y-60.452
X137.668Y-62.992
X137.96Y-140.97
X138.43Y-87.265
X138.43Y-89.805
X140.208Y-60.452
X140.208Y-62.992
X140.5Y-140.97
X140.97Y-87.265
X140.97Y-89.805
X142.748Y-60.452
X142.748Y-62.992
X143.51Y-87.265
X143.51Y-89.805
X145.288Y-60.452
X145.288Y-62.992
X146.05Y-87.265
X146.05Y-89.805
X147.828Y-60.452
X147.828Y-62.992
X148.59Y-87.265
X148.59Y-89.805
X150.368Y-60.452
X150.368Y-62.992
X151.13Y-87.265
X151.13Y-89.805
X152.908Y-60.452
X152.908Y-62.992
X153.67Y-87.265
X153.67Y-89.805
X156.21Y-87.265
X156.21Y-89.805
X158.75Y-87.265
X158.75Y-89.805
X161.29Y-87.265
X161.29Y-89.805
T2
X110.95Y-61.2G85X110.95Y-59.8
G05
X117.0Y-59.7G85X118.4Y-59.7
G05
X124.45Y-61.2G85X124.45Y-59.8
G05
T3
X73.16Y-76.835G85X74.16Y-76.835
G05
X78.485Y-64.58G85X78.485Y-66.58
G05
X80.76Y-76.835G85X81.76Y-76.835
G05
X84.185Y-62.58G85X82.185Y-62.58
G05
X84.185Y-68.58G85X82.185Y-68.58
G05
M30
