%TF.GenerationSoftware,KiCad,Pcbnew,9.0.7*%
%TF.CreationDate,2026-02-09T23:27:38+01:00*%
%TF.ProjectId,Pi1551-III Module,50693135-3531-42d4-9949-49204d6f6475,1*%
%TF.SameCoordinates,Original*%
%TF.FileFunction,Copper,L2,Bot*%
%TF.FilePolarity,Positive*%
%FSLAX46Y46*%
G04 Gerber Fmt 4.6, Leading zero omitted, Abs format (unit mm)*
G04 Created by KiCad (PCBNEW 9.0.7) date 2026-02-09 23:27:38*
%MOMM*%
%LPD*%
G01*
G04 APERTURE LIST*
G04 Aperture macros list*
%AMRoundRect*
0 Rectangle with rounded corners*
0 $1 Rounding radius*
0 $2 $3 $4 $5 $6 $7 $8 $9 X,Y pos of 4 corners*
0 Add a 4 corners polygon primitive as box body*
4,1,4,$2,$3,$4,$5,$6,$7,$8,$9,$2,$3,0*
0 Add four circle primitives for the rounded corners*
1,1,$1+$1,$2,$3*
1,1,$1+$1,$4,$5*
1,1,$1+$1,$6,$7*
1,1,$1+$1,$8,$9*
0 Add four rect primitives between the rounded corners*
20,1,$1+$1,$2,$3,$4,$5,0*
20,1,$1+$1,$4,$5,$6,$7,0*
20,1,$1+$1,$6,$7,$8,$9,0*
20,1,$1+$1,$8,$9,$2,$3,0*%
G04 Aperture macros list end*
%TA.AperFunction,WasherPad*%
%ADD10C,3.500000*%
%TD*%
%TA.AperFunction,ComponentPad*%
%ADD11R,1.600000X1.600000*%
%TD*%
%TA.AperFunction,ComponentPad*%
%ADD12C,1.600000*%
%TD*%
%TA.AperFunction,ComponentPad*%
%ADD13R,3.500000X3.500000*%
%TD*%
%TA.AperFunction,ComponentPad*%
%ADD14R,1.700000X1.700000*%
%TD*%
%TA.AperFunction,ComponentPad*%
%ADD15O,1.700000X1.700000*%
%TD*%
%TA.AperFunction,ComponentPad*%
%ADD16R,3.000000X2.000000*%
%TD*%
%TA.AperFunction,ComponentPad*%
%ADD17R,2.000000X2.000000*%
%TD*%
%TA.AperFunction,ComponentPad*%
%ADD18C,2.000000*%
%TD*%
%TA.AperFunction,ComponentPad*%
%ADD19O,3.000000X2.000000*%
%TD*%
%TA.AperFunction,ComponentPad*%
%ADD20RoundRect,0.250000X0.600000X-0.600000X0.600000X0.600000X-0.600000X0.600000X-0.600000X-0.600000X0*%
%TD*%
%TA.AperFunction,ComponentPad*%
%ADD21C,1.700000*%
%TD*%
%TA.AperFunction,ComponentPad*%
%ADD22C,1.200000*%
%TD*%
%TA.AperFunction,ComponentPad*%
%ADD23RoundRect,0.600000X0.000010X-0.700000X0.000010X0.700000X-0.000010X0.700000X-0.000010X-0.700000X0*%
%TD*%
%TA.AperFunction,ComponentPad*%
%ADD24RoundRect,0.600000X-0.700000X-0.000010X0.700000X-0.000010X0.700000X0.000010X-0.700000X0.000010X0*%
%TD*%
%TA.AperFunction,ViaPad*%
%ADD25C,1.000000*%
%TD*%
%TA.AperFunction,ViaPad*%
%ADD26C,0.600000*%
%TD*%
%TA.AperFunction,Conductor*%
%ADD27C,0.400000*%
%TD*%
%TA.AperFunction,Conductor*%
%ADD28C,1.200000*%
%TD*%
%TA.AperFunction,Conductor*%
%ADD29C,0.250000*%
%TD*%
G04 APERTURE END LIST*
D10*
%TO.P,M1,*%
%TO.N,*%
X73355000Y-151435000D03*
%TD*%
D11*
%TO.P,C6,1*%
%TO.N,+5V*%
X91440000Y-62230000D03*
D12*
%TO.P,C6,2*%
%TO.N,GND*%
X94940000Y-62230000D03*
%TD*%
D13*
%TO.P,J1,1*%
%TO.N,+5V*%
X83185000Y-68580000D03*
%TO.P,J1,2*%
%TO.N,GND*%
X83185000Y-62580000D03*
%TO.P,J1,3*%
X78485000Y-65580000D03*
%TD*%
D14*
%TO.P,J8,1,GND*%
%TO.N,GND*%
X112560000Y-140970000D03*
D15*
%TO.P,J8,2,LED_PWR*%
%TO.N,LED_PWR*%
X115100000Y-140970000D03*
%TO.P,J8,3,LED_ACT*%
%TO.N,LED_ACT*%
X117640000Y-140970000D03*
%TO.P,J8,4,SCL*%
%TO.N,I2C_SCL*%
X120180000Y-140970000D03*
%TO.P,J8,5,SDA*%
%TO.N,I2C_SDA*%
X122720000Y-140970000D03*
%TO.P,J8,6,ENTER*%
%TO.N,SW1_ENTER*%
X125260000Y-140970000D03*
%TO.P,J8,7,UP*%
%TO.N,SW2_UP*%
X127800000Y-140970000D03*
%TO.P,J8,8,DOWN*%
%TO.N,SW3_DOWN*%
X130340000Y-140970000D03*
%TO.P,J8,9,BACK*%
%TO.N,SW4_BACK*%
X132880000Y-140970000D03*
%TO.P,J8,10,INSERT*%
%TO.N,SW5_INSERT*%
X135420000Y-140970000D03*
%TO.P,J8,11,GND*%
%TO.N,GND*%
X137960000Y-140970000D03*
%TO.P,J8,12,VCC*%
%TO.N,+3.3V*%
X140500000Y-140970000D03*
%TD*%
D10*
%TO.P,M2,*%
%TO.N,*%
X167005000Y-151435000D03*
%TD*%
%TO.P,M3,*%
%TO.N,*%
X167005000Y-57785000D03*
%TD*%
%TO.P,M4,*%
%TO.N,*%
X73355000Y-57785000D03*
%TD*%
D16*
%TO.P,BZ1,1,1*%
%TO.N,Net-(A1-PWM1{slash}GPIO13)*%
X73660000Y-76835000D03*
D17*
X75470000Y-76835000D03*
D18*
%TO.P,BZ1,2,2*%
%TO.N,GND*%
X79450000Y-76835000D03*
D19*
X81260000Y-76835000D03*
%TD*%
D10*
%TO.P,A1,*%
%TO.N,*%
X166160000Y-137535000D03*
X108160000Y-137535000D03*
D14*
%TO.P,A1,1,3V3*%
%TO.N,+3.3V*%
X161290000Y-89805000D03*
D15*
%TO.P,A1,2,5V*%
%TO.N,+5V*%
X161290000Y-87265000D03*
%TO.P,A1,3,SDA/GPIO2*%
%TO.N,I2C_SDA*%
X158750000Y-89805000D03*
%TO.P,A1,4,5V*%
%TO.N,+5V*%
X158750000Y-87265000D03*
%TO.P,A1,5,SCL/GPIO3*%
%TO.N,I2C_SCL*%
X156210000Y-89805000D03*
%TO.P,A1,6,GND*%
%TO.N,GND*%
X156210000Y-87265000D03*
%TO.P,A1,7,GCLK0/GPIO4*%
%TO.N,SW4_BACK*%
X153670000Y-89805000D03*
%TO.P,A1,8,GPIO14/TXD*%
%TO.N,/DIO1*%
X153670000Y-87265000D03*
%TO.P,A1,9,GND*%
%TO.N,GND*%
X151130000Y-89805000D03*
%TO.P,A1,10,GPIO15/RXD*%
%TO.N,/DIO2*%
X151130000Y-87265000D03*
%TO.P,A1,11,GPIO17*%
%TO.N,SW3_DOWN*%
X148590000Y-89805000D03*
%TO.P,A1,12,GPIO18/PWM0*%
%TO.N,/DIO3*%
X148590000Y-87265000D03*
%TO.P,A1,13,GPIO27*%
%TO.N,SW1_ENTER*%
X146050000Y-89805000D03*
%TO.P,A1,14,GND*%
%TO.N,GND*%
X146050000Y-87265000D03*
%TO.P,A1,15,GPIO22*%
%TO.N,SW2_UP*%
X143510000Y-89805000D03*
%TO.P,A1,16,GPIO23*%
%TO.N,/DIO4*%
X143510000Y-87265000D03*
%TO.P,A1,17,3V3*%
%TO.N,+3.3V*%
X140970000Y-89805000D03*
%TO.P,A1,18,GPIO24*%
%TO.N,/DIO5*%
X140970000Y-87265000D03*
%TO.P,A1,19,MOSI0/GPIO10*%
%TO.N,RPI_LED*%
X138430000Y-89805000D03*
%TO.P,A1,20,GND*%
%TO.N,GND*%
X138430000Y-87265000D03*
%TO.P,A1,21,MISO0/GPIO9*%
%TO.N,/DEV*%
X135890000Y-89805000D03*
%TO.P,A1,22,GPIO25*%
%TO.N,/DIO6*%
X135890000Y-87265000D03*
%TO.P,A1,23,SCLK0/GPIO11*%
%TO.N,/~{RESET_3V3}*%
X133350000Y-89805000D03*
%TO.P,A1,24,~{CE0}/GPIO8*%
%TO.N,/DIO7*%
X133350000Y-87265000D03*
%TO.P,A1,25,GND*%
%TO.N,GND*%
X130810000Y-89805000D03*
%TO.P,A1,26,~{CE1}/GPIO7*%
%TO.N,/DIO8*%
X130810000Y-87265000D03*
%TO.P,A1,27,ID_SD/GPIO0*%
%TO.N,/TAP_SENSE*%
X128270000Y-89805000D03*
%TO.P,A1,28,ID_SC/GPIO1*%
%TO.N,unconnected-(A1-ID_SC{slash}GPIO1-Pad28)*%
X128270000Y-87265000D03*
%TO.P,A1,29,GCLK1/GPIO5*%
%TO.N,SW5_INSERT*%
X125730000Y-89805000D03*
%TO.P,A1,30,GND*%
%TO.N,GND*%
X125730000Y-87265000D03*
%TO.P,A1,31,GCLK2/GPIO6*%
%TO.N,/TAP_MOTOR*%
X123190000Y-89805000D03*
%TO.P,A1,32,PWM0/GPIO12*%
%TO.N,/DAV*%
X123190000Y-87265000D03*
%TO.P,A1,33,PWM1/GPIO13*%
%TO.N,Net-(A1-PWM1{slash}GPIO13)*%
X120650000Y-89805000D03*
%TO.P,A1,34,GND*%
%TO.N,GND*%
X120650000Y-87265000D03*
%TO.P,A1,35,GPIO19/MISO1*%
%TO.N,/TAP_READ*%
X118110000Y-89805000D03*
%TO.P,A1,36,GPIO16*%
%TO.N,/STATUS0*%
X118110000Y-87265000D03*
%TO.P,A1,37,GPIO26*%
%TO.N,/TAP_WRITE*%
X115570000Y-89805000D03*
%TO.P,A1,38,GPIO20/MOSI1*%
%TO.N,/ACK*%
X115570000Y-87265000D03*
%TO.P,A1,39,GND*%
%TO.N,GND*%
X113030000Y-89805000D03*
%TO.P,A1,40,GPIO21/SCLK1*%
%TO.N,/STATUS1*%
X113030000Y-87265000D03*
%TD*%
D20*
%TO.P,J3,1,Pin_1*%
%TO.N,GND*%
X135128000Y-62992000D03*
D21*
%TO.P,J3,2,Pin_2*%
%TO.N,/DEV*%
X135128000Y-60452000D03*
%TO.P,J3,3,Pin_3*%
%TO.N,/DIO1*%
X137668000Y-62992000D03*
%TO.P,J3,4,Pin_4*%
%TO.N,/DIO2*%
X137668000Y-60452000D03*
%TO.P,J3,5,Pin_5*%
%TO.N,/DIO3*%
X140208000Y-62992000D03*
%TO.P,J3,6,Pin_6*%
%TO.N,/DIO4*%
X140208000Y-60452000D03*
%TO.P,J3,7,Pin_7*%
%TO.N,/DIO5*%
X142748000Y-62992000D03*
%TO.P,J3,8,Pin_8*%
%TO.N,/DIO6*%
X142748000Y-60452000D03*
%TO.P,J3,9,Pin_9*%
%TO.N,/DIO7*%
X145288000Y-62992000D03*
%TO.P,J3,10,Pin_10*%
%TO.N,/DIO8*%
X145288000Y-60452000D03*
%TO.P,J3,11,Pin_11*%
%TO.N,/DAV*%
X147828000Y-62992000D03*
%TO.P,J3,12,Pin_12*%
%TO.N,/STATUS0*%
X147828000Y-60452000D03*
%TO.P,J3,13,Pin_13*%
%TO.N,/ACK*%
X150368000Y-62992000D03*
%TO.P,J3,14,Pin_14*%
%TO.N,/STATUS1*%
X150368000Y-60452000D03*
%TO.P,J3,15,Pin_15*%
%TO.N,/~{RESET}*%
X152908000Y-62992000D03*
%TO.P,J3,16,Pin_16*%
%TO.N,GND*%
X152908000Y-60452000D03*
%TD*%
D22*
%TO.P,J4,1*%
%TO.N,GND*%
X116400000Y-63500000D03*
%TO.P,J4,2*%
%TO.N,/VCC_5V*%
X119000000Y-63500000D03*
%TO.P,J4,3*%
%TO.N,/CAS_MOTOR*%
X114300000Y-63500000D03*
%TO.P,J4,4*%
%TO.N,/CAS_READ*%
X121100000Y-63500000D03*
%TO.P,J4,5*%
%TO.N,/CAS_WRITE*%
X114300000Y-66000000D03*
%TO.P,J4,6*%
%TO.N,/CAS_SENSE*%
X118600000Y-66000000D03*
%TO.P,J4,7*%
%TO.N,GND*%
X121100000Y-66000000D03*
D23*
%TO.P,J4,SH*%
%TO.N,N/C*%
X110950000Y-60500000D03*
D24*
X117700000Y-59700000D03*
D23*
X124450000Y-60500000D03*
%TD*%
D25*
%TO.N,GND*%
X122704300Y-78532400D03*
X129960500Y-70717600D03*
X100111700Y-64548100D03*
X101658600Y-73769700D03*
X118707200Y-70717600D03*
X113030000Y-91737900D03*
X130990900Y-62571800D03*
X138381700Y-84565600D03*
X101549600Y-79560500D03*
X154652000Y-60603400D03*
X122124400Y-84968700D03*
X118585800Y-67520500D03*
X77447800Y-61876300D03*
X125290300Y-85197300D03*
X129960500Y-76611800D03*
D26*
%TO.N,I2C_SCL*%
X157019500Y-94294400D03*
X123684600Y-97241500D03*
%TO.N,I2C_SDA*%
X124472300Y-123765400D03*
X157019500Y-123765400D03*
%TO.N,SW5_INSERT*%
X136389800Y-128860300D03*
X130495600Y-129659600D03*
%TO.N,SW4_BACK*%
X149183400Y-128691000D03*
X133442700Y-129659600D03*
%TO.N,RPI_LED*%
X133206100Y-126712500D03*
X132421300Y-91000700D03*
%TO.N,SW1_ENTER*%
X124366000Y-91739900D03*
%TO.N,SW3_DOWN*%
X139336900Y-138500900D03*
%TO.N,SW2_UP*%
X142784100Y-96273700D03*
X127548500Y-135553800D03*
X133960600Y-135553800D03*
X136001000Y-96490400D03*
%TO.N,LED_ACT*%
X118337300Y-132606700D03*
%TO.N,LED_PWR*%
X116420300Y-132606700D03*
%TO.N,Net-(A1-PWM1{slash}GPIO13)*%
X74500700Y-82506000D03*
X119463200Y-85826500D03*
%TO.N,+3.3V*%
X141996800Y-92341900D03*
X137210700Y-131785800D03*
X134621200Y-70717600D03*
X134453400Y-75866800D03*
X136389800Y-139300200D03*
X143002000Y-79486000D03*
X136389800Y-132606700D03*
%TO.N,/TAP_WRITE*%
X118585800Y-79104400D03*
X129411000Y-78525400D03*
X126975000Y-78710000D03*
%TO.N,/~{RESET_3V3}*%
X143811000Y-85198500D03*
X145188300Y-76611800D03*
%TO.N,/DIO2*%
X150929000Y-76249600D03*
X138977800Y-73994700D03*
%TO.N,/TAP_READ*%
X101319200Y-77432600D03*
X104919600Y-88400200D03*
%TO.N,/DIO8*%
X133123600Y-59528300D03*
%TO.N,/TAP_MOTOR*%
X122440500Y-72495600D03*
%TO.N,/DIO1*%
X138952900Y-81495300D03*
%TO.N,/DIO7*%
X145060200Y-67369000D03*
X134082400Y-67369000D03*
%TO.N,/STATUS0*%
X120764700Y-64750000D03*
%TO.N,/ACK*%
X115760100Y-76610200D03*
X151392000Y-72726100D03*
%TO.N,/STATUS1*%
X125563600Y-59976600D03*
X125290300Y-80071600D03*
X112813000Y-79558900D03*
X151103900Y-58528800D03*
%TO.N,/TAP_SENSE*%
X121920000Y-88535000D03*
X121058800Y-69872000D03*
%TO.N,/DIO3*%
X148240600Y-78541200D03*
X141081700Y-76611800D03*
%TO.N,/DAV*%
X123691700Y-82506000D03*
X146009000Y-81514800D03*
%TO.N,/~{RESET}*%
X154527400Y-79558900D03*
%TO.N,/CAS_SENSE*%
X115760100Y-70717600D03*
X116066800Y-66024200D03*
%TO.N,/CAS_READ*%
X122155800Y-76989600D03*
%TO.N,/VCC_5V*%
X98077500Y-67770500D03*
X98952800Y-72621300D03*
X98001500Y-78906200D03*
X119344800Y-64750000D03*
%TO.N,/CAS_WRITE*%
X114865800Y-80358200D03*
%TO.N,/CAS_MOTOR*%
X129517200Y-72837800D03*
X128650600Y-69880800D03*
X115030100Y-69043300D03*
%TD*%
D27*
%TO.N,GND*%
X112560000Y-140970000D02*
X112560000Y-139718300D01*
X100579600Y-73769700D02*
X100579600Y-65016000D01*
X78485000Y-66655800D02*
X78485000Y-67731700D01*
X154652000Y-60603400D02*
X154652000Y-78010100D01*
X77447800Y-65618600D02*
X77447800Y-61876300D01*
X78485000Y-66655800D02*
X77447800Y-65618600D01*
X122124400Y-84968700D02*
X122124400Y-79112300D01*
X100579600Y-78590500D02*
X100579600Y-73769700D01*
X125290300Y-85573600D02*
X125290300Y-85197300D01*
X101549600Y-79560500D02*
X100579600Y-78590500D01*
X138381700Y-84565600D02*
X138430000Y-84613900D01*
X129960500Y-76611800D02*
X130229500Y-76342800D01*
X138430000Y-84613900D02*
X138430000Y-87265000D01*
X118585800Y-67520500D02*
X118707200Y-67641900D01*
X78485000Y-65580000D02*
X78485000Y-66655800D01*
X129960500Y-63602200D02*
X129960500Y-70717600D01*
X156210000Y-79568100D02*
X156210000Y-87265000D01*
X130229500Y-70986600D02*
X129960500Y-70717600D01*
X118707200Y-67641900D02*
X118707200Y-70717600D01*
X154652000Y-78010100D02*
X156210000Y-79568100D01*
X130229500Y-76342800D02*
X130229500Y-70986600D01*
X79450000Y-68696700D02*
X78485000Y-67731700D01*
X116400000Y-65334700D02*
X118585800Y-67520500D01*
X122124400Y-79112300D02*
X122704300Y-78532400D01*
X79450000Y-76835000D02*
X79450000Y-68696700D01*
X116400000Y-63500000D02*
X116400000Y-65334700D01*
X100579600Y-73769700D02*
X101658600Y-73769700D01*
X130990900Y-62571800D02*
X129960500Y-63602200D01*
X100579600Y-65016000D02*
X100111700Y-64548100D01*
X113030000Y-139248300D02*
X113030000Y-91737900D01*
X112560000Y-139718300D02*
X113030000Y-139248300D01*
X125730000Y-87265000D02*
X125730000Y-86013300D01*
X125730000Y-86013300D02*
X125290300Y-85573600D01*
X113030000Y-91737900D02*
X113030000Y-89805000D01*
D28*
%TO.N,+5V*%
X103500000Y-55500000D02*
X99500000Y-58500000D01*
X99500000Y-58500000D02*
X95170000Y-58500000D01*
X161290000Y-87265000D02*
X161290000Y-57790000D01*
X161290000Y-87265000D02*
X158750000Y-87265000D01*
X159000000Y-55500000D02*
X103500000Y-55500000D01*
X95170000Y-58500000D02*
X91440000Y-62230000D01*
X161290000Y-57790000D02*
X159000000Y-55500000D01*
D29*
%TO.N,I2C_SCL*%
X123684600Y-97241500D02*
X123684600Y-136288700D01*
X123684600Y-136288700D02*
X120180000Y-139793300D01*
X156210000Y-90981700D02*
X157019500Y-91791200D01*
X156210000Y-89805000D02*
X156210000Y-90981700D01*
X120180000Y-140970000D02*
X120180000Y-139793300D01*
X157019500Y-91791200D02*
X157019500Y-94294400D01*
%TO.N,I2C_SDA*%
X124472300Y-123765400D02*
X124472300Y-138041000D01*
X158750000Y-89805000D02*
X158750000Y-122034900D01*
X124472300Y-138041000D02*
X122720000Y-139793300D01*
X158750000Y-122034900D02*
X157019500Y-123765400D01*
X122720000Y-140970000D02*
X122720000Y-139793300D01*
%TO.N,SW5_INSERT*%
X135420000Y-129830100D02*
X136389800Y-128860300D01*
X130495600Y-129659600D02*
X125730000Y-124894000D01*
X135420000Y-140970000D02*
X135420000Y-129830100D01*
X125730000Y-124894000D02*
X125730000Y-89805000D01*
%TO.N,SW4_BACK*%
X149183400Y-128691000D02*
X149183400Y-95468300D01*
X132880000Y-140970000D02*
X132880000Y-130222300D01*
X149183400Y-95468300D02*
X153670000Y-90981700D01*
X153670000Y-89805000D02*
X153670000Y-90981700D01*
X132880000Y-130222300D02*
X133442700Y-129659600D01*
%TO.N,RPI_LED*%
X132421300Y-125927700D02*
X132421300Y-91000700D01*
X133206100Y-126712500D02*
X132421300Y-125927700D01*
%TO.N,SW1_ENTER*%
X124366000Y-91739900D02*
X125260000Y-92633900D01*
X125260000Y-92633900D02*
X125260000Y-140970000D01*
%TO.N,SW3_DOWN*%
X139336900Y-138500900D02*
X139336900Y-100607200D01*
X139336900Y-100607200D02*
X148590000Y-91354100D01*
X148590000Y-91354100D02*
X148590000Y-89805000D01*
%TO.N,SW2_UP*%
X134568100Y-97923300D02*
X134568100Y-134946300D01*
X142784100Y-91707600D02*
X142784100Y-96273700D01*
X127800000Y-135805300D02*
X127800000Y-140970000D01*
X127548500Y-135553800D02*
X127800000Y-135805300D01*
X143510000Y-90981700D02*
X142784100Y-91707600D01*
X136001000Y-96490400D02*
X134568100Y-97923300D01*
X134568100Y-134946300D02*
X133960600Y-135553800D01*
X143510000Y-89805000D02*
X143510000Y-90981700D01*
%TO.N,LED_ACT*%
X117640000Y-140970000D02*
X117640000Y-139793300D01*
X118337300Y-132606700D02*
X118337300Y-139096000D01*
X118337300Y-139096000D02*
X117640000Y-139793300D01*
%TO.N,LED_PWR*%
X115100000Y-133927000D02*
X115100000Y-140970000D01*
X116420300Y-132606700D02*
X115100000Y-133927000D01*
%TO.N,Net-(A1-PWM1{slash}GPIO13)*%
X119463200Y-87809200D02*
X119463200Y-85826500D01*
X75470000Y-76835000D02*
X75470000Y-81536700D01*
X120650000Y-89805000D02*
X120650000Y-88628300D01*
X75470000Y-81536700D02*
X74500700Y-82506000D01*
X120282300Y-88628300D02*
X119463200Y-87809200D01*
X120650000Y-88628300D02*
X120282300Y-88628300D01*
%TO.N,+3.3V*%
X143002000Y-79486000D02*
X143002000Y-84056300D01*
X134621200Y-70717600D02*
X134621200Y-75699000D01*
X141996800Y-92341900D02*
X140970000Y-91315100D01*
X134621200Y-75699000D02*
X134453400Y-75866800D01*
X136389800Y-139300200D02*
X136389800Y-132606700D01*
X137210700Y-131785800D02*
X137210700Y-94741000D01*
X142240000Y-92098700D02*
X141996800Y-92341900D01*
X140970000Y-89805000D02*
X140970000Y-90981700D01*
X140970000Y-91315100D02*
X140970000Y-90981700D01*
X143002000Y-84056300D02*
X142240000Y-84818300D01*
X137210700Y-94741000D02*
X140970000Y-90981700D01*
X142240000Y-84818300D02*
X142240000Y-92098700D01*
%TO.N,/TAP_WRITE*%
X115570000Y-89805000D02*
X115570000Y-88628300D01*
X129226400Y-78710000D02*
X129411000Y-78525400D01*
X126975000Y-78710000D02*
X129226400Y-78710000D01*
X115570000Y-88628300D02*
X115937800Y-88628300D01*
X116746700Y-80943500D02*
X118585800Y-79104400D01*
X115937800Y-88628300D02*
X116746700Y-87819400D01*
X116746700Y-87819400D02*
X116746700Y-80943500D01*
%TO.N,/~{RESET_3V3}*%
X145188300Y-83821200D02*
X145188300Y-76611800D01*
X143811000Y-85198500D02*
X145188300Y-83821200D01*
%TO.N,/DIO6*%
X141708400Y-80069800D02*
X135890000Y-85888200D01*
X141478000Y-76121800D02*
X141708400Y-76352200D01*
X141478000Y-61722000D02*
X141478000Y-76121800D01*
X141708400Y-76352200D02*
X141708400Y-80069800D01*
X135890000Y-85888200D02*
X135890000Y-87265000D01*
X142748000Y-60452000D02*
X141478000Y-61722000D01*
%TO.N,/DIO2*%
X151130000Y-87265000D02*
X151130000Y-86088300D01*
X137668000Y-60452000D02*
X138977800Y-61761800D01*
X150929000Y-76249600D02*
X150929000Y-85887300D01*
X150929000Y-85887300D02*
X151130000Y-86088300D01*
X138977800Y-61761800D02*
X138977800Y-73994700D01*
%TO.N,/TAP_READ*%
X104919600Y-81033000D02*
X104919600Y-88400200D01*
X101319200Y-77432600D02*
X104919600Y-81033000D01*
%TO.N,/DIO8*%
X130810000Y-86088300D02*
X133123600Y-83774700D01*
X130810000Y-87265000D02*
X130810000Y-86088300D01*
X133123600Y-83774700D02*
X133123600Y-59528300D01*
%TO.N,/TAP_MOTOR*%
X123190000Y-88628300D02*
X123557700Y-88628300D01*
X124380600Y-74435700D02*
X122440500Y-72495600D01*
X124380600Y-87805400D02*
X124380600Y-74435700D01*
X123557700Y-88628300D02*
X124380600Y-87805400D01*
X123190000Y-89805000D02*
X123190000Y-88628300D01*
%TO.N,/DIO4*%
X140208000Y-60452000D02*
X141454400Y-59205600D01*
X143133400Y-85711700D02*
X143510000Y-86088300D01*
X143942500Y-59920700D02*
X143942500Y-83888900D01*
X143942500Y-83888900D02*
X143133400Y-84698000D01*
X141454400Y-59205600D02*
X143227400Y-59205600D01*
X143227400Y-59205600D02*
X143942500Y-59920700D01*
X143510000Y-87265000D02*
X143510000Y-86088300D01*
X143133400Y-84698000D02*
X143133400Y-85711700D01*
%TO.N,/DIO1*%
X137668000Y-80210400D02*
X137668000Y-62992000D01*
X138952900Y-81495300D02*
X137668000Y-80210400D01*
%TO.N,/DEV*%
X133937400Y-65299700D02*
X133937400Y-61642600D01*
X135272800Y-66635100D02*
X133937400Y-65299700D01*
X134677400Y-77102700D02*
X135272800Y-76507300D01*
X134677400Y-87783400D02*
X134677400Y-77102700D01*
X135272800Y-76507300D02*
X135272800Y-66635100D01*
X135522300Y-88628300D02*
X134677400Y-87783400D01*
X135890000Y-89805000D02*
X135890000Y-88628300D01*
X135890000Y-88628300D02*
X135522300Y-88628300D01*
X133937400Y-61642600D02*
X135128000Y-60452000D01*
%TO.N,/DIO5*%
X142748000Y-62992000D02*
X142236900Y-63503100D01*
X142236900Y-63503100D02*
X142236900Y-84182600D01*
X142236900Y-84182600D02*
X140970000Y-85449500D01*
X140970000Y-85449500D02*
X140970000Y-87265000D01*
%TO.N,/DIO7*%
X133770600Y-85667700D02*
X133770600Y-67680800D01*
X133350000Y-87265000D02*
X133350000Y-86088300D01*
X133770600Y-67680800D02*
X134082400Y-67369000D01*
X145060200Y-67369000D02*
X145060200Y-63219800D01*
X145060200Y-63219800D02*
X145288000Y-62992000D01*
X133350000Y-86088300D02*
X133770600Y-85667700D01*
%TO.N,/STATUS0*%
X120063000Y-84135300D02*
X118110000Y-86088300D01*
X120764700Y-64750000D02*
X120063000Y-65451700D01*
X120063000Y-65451700D02*
X120063000Y-84135300D01*
X118110000Y-87265000D02*
X118110000Y-86088300D01*
%TO.N,/ACK*%
X115570000Y-76800300D02*
X115760100Y-76610200D01*
X150368000Y-71702100D02*
X150368000Y-62992000D01*
X115570000Y-87265000D02*
X115570000Y-76800300D01*
X151392000Y-72726100D02*
X150368000Y-71702100D01*
%TO.N,/STATUS1*%
X125290300Y-80071600D02*
X125563600Y-79798300D01*
X113030000Y-87265000D02*
X113030000Y-86088300D01*
X112813000Y-85871300D02*
X112813000Y-79558900D01*
X150368000Y-59264700D02*
X150368000Y-60452000D01*
X151103900Y-58528800D02*
X150368000Y-59264700D01*
X125563600Y-79798300D02*
X125563600Y-59976600D01*
X113030000Y-86088300D02*
X112813000Y-85871300D01*
%TO.N,/TAP_SENSE*%
X121920000Y-86870800D02*
X121920000Y-88535000D01*
X121058800Y-86009600D02*
X121920000Y-86870800D01*
X121058800Y-69872000D02*
X121058800Y-86009600D01*
%TO.N,/DIO3*%
X148590000Y-87265000D02*
X148590000Y-86088300D01*
X148240600Y-85738900D02*
X148240600Y-78541200D01*
X141081700Y-76611800D02*
X140208000Y-75738100D01*
X140208000Y-75738100D02*
X140208000Y-62992000D01*
X148590000Y-86088300D02*
X148240600Y-85738900D01*
%TO.N,/DAV*%
X146009000Y-81514800D02*
X146009000Y-64811000D01*
X123190000Y-83007700D02*
X123190000Y-87265000D01*
X123691700Y-82506000D02*
X123190000Y-83007700D01*
X146009000Y-64811000D02*
X147828000Y-62992000D01*
%TO.N,/~{RESET}*%
X154527400Y-79558900D02*
X152908000Y-77939500D01*
X152908000Y-77939500D02*
X152908000Y-62992000D01*
%TO.N,/CAS_SENSE*%
X115760100Y-70717600D02*
X115760100Y-66330900D01*
X115760100Y-66330900D02*
X116066800Y-66024200D01*
%TO.N,/CAS_READ*%
X121813700Y-72095600D02*
X121813700Y-76647500D01*
X121813700Y-76647500D02*
X122155800Y-76989600D01*
X122029500Y-64429500D02*
X122029500Y-71879800D01*
X121100000Y-63500000D02*
X122029500Y-64429500D01*
X122029500Y-71879800D02*
X121813700Y-72095600D01*
%TO.N,/VCC_5V*%
X98952800Y-72621300D02*
X98952800Y-68645800D01*
X119344800Y-64750000D02*
X119344800Y-63844800D01*
X119344800Y-63844800D02*
X119000000Y-63500000D01*
X98001500Y-78906200D02*
X98952800Y-77954900D01*
X98952800Y-77954900D02*
X98952800Y-72621300D01*
X98952800Y-68645800D02*
X98077500Y-67770500D01*
%TO.N,/CAS_WRITE*%
X114300000Y-66000000D02*
X114300000Y-79792400D01*
X114300000Y-79792400D02*
X114865800Y-80358200D01*
%TO.N,/CAS_MOTOR*%
X115030100Y-69043300D02*
X115226700Y-68846700D01*
X115226700Y-68846700D02*
X115226700Y-64426700D01*
X128650600Y-71971200D02*
X128650600Y-69880800D01*
X115226700Y-64426700D02*
X114300000Y-63500000D01*
X129517200Y-72837800D02*
X128650600Y-71971200D01*
%TD*%
%TA.AperFunction,Conductor*%
%TO.N,GND*%
G36*
X102433539Y-54705185D02*
G01*
X102479294Y-54757989D01*
X102489238Y-54827147D01*
X102460213Y-54890703D01*
X102440900Y-54908700D01*
X99562018Y-57067862D01*
X99163567Y-57366700D01*
X99098125Y-57391176D01*
X99089167Y-57391500D01*
X95257242Y-57391500D01*
X95082759Y-57391500D01*
X95048292Y-57396959D01*
X94910422Y-57418795D01*
X94744488Y-57472709D01*
X94744477Y-57472713D01*
X94589017Y-57551926D01*
X94447867Y-57654477D01*
X94447862Y-57654481D01*
X91217163Y-60885181D01*
X91155840Y-60918666D01*
X91129482Y-60921500D01*
X90591345Y-60921500D01*
X90530797Y-60928011D01*
X90530795Y-60928011D01*
X90393795Y-60979111D01*
X90276739Y-61066739D01*
X90189111Y-61183795D01*
X90138011Y-61320795D01*
X90138011Y-61320797D01*
X90131500Y-61381345D01*
X90131500Y-63078654D01*
X90138011Y-63139202D01*
X90138011Y-63139204D01*
X90175766Y-63240426D01*
X90189111Y-63276204D01*
X90276739Y-63393261D01*
X90393796Y-63480889D01*
X90530799Y-63531989D01*
X90558050Y-63534918D01*
X90591345Y-63538499D01*
X90591362Y-63538500D01*
X92288638Y-63538500D01*
X92288654Y-63538499D01*
X92315692Y-63535591D01*
X92349201Y-63531989D01*
X92486204Y-63480889D01*
X92603261Y-63393261D01*
X92690889Y-63276204D01*
X92704234Y-63240426D01*
X92712270Y-63218881D01*
X92712270Y-63218880D01*
X92741988Y-63139204D01*
X92741988Y-63139203D01*
X92741989Y-63139201D01*
X92745591Y-63105692D01*
X92748499Y-63078654D01*
X92748500Y-63078637D01*
X92748500Y-62540518D01*
X92768185Y-62473479D01*
X92784819Y-62452837D01*
X93130663Y-62106993D01*
X93480032Y-61757623D01*
X93541353Y-61724140D01*
X93611044Y-61729124D01*
X93666978Y-61770995D01*
X93691395Y-61836460D01*
X93685642Y-61883623D01*
X93672011Y-61925574D01*
X93672010Y-61925581D01*
X93640000Y-62127682D01*
X93640000Y-62332317D01*
X93672009Y-62534417D01*
X93735244Y-62729031D01*
X93828141Y-62911350D01*
X93828147Y-62911359D01*
X93860523Y-62955921D01*
X93860524Y-62955922D01*
X94540000Y-62276446D01*
X94540000Y-62282661D01*
X94567259Y-62384394D01*
X94619920Y-62475606D01*
X94694394Y-62550080D01*
X94785606Y-62602741D01*
X94887339Y-62630000D01*
X94893553Y-62630000D01*
X94214076Y-63309474D01*
X94258650Y-63341859D01*
X94440968Y-63434755D01*
X94635582Y-63497990D01*
X94837683Y-63530000D01*
X95042317Y-63530000D01*
X95244417Y-63497990D01*
X95439031Y-63434755D01*
X95621349Y-63341859D01*
X95665921Y-63309474D01*
X94986447Y-62630000D01*
X94992661Y-62630000D01*
X95094394Y-62602741D01*
X95185606Y-62550080D01*
X95260080Y-62475606D01*
X95312741Y-62384394D01*
X95340000Y-62282661D01*
X95340000Y-62276447D01*
X96019474Y-62955921D01*
X96051859Y-62911349D01*
X96144755Y-62729031D01*
X96207990Y-62534417D01*
X96240000Y-62332317D01*
X96240000Y-62127682D01*
X96207990Y-61925582D01*
X96144755Y-61730968D01*
X96051859Y-61548650D01*
X96019474Y-61504077D01*
X96019474Y-61504076D01*
X95340000Y-62183551D01*
X95340000Y-62177339D01*
X95312741Y-62075606D01*
X95260080Y-61984394D01*
X95185606Y-61909920D01*
X95094394Y-61857259D01*
X94992661Y-61830000D01*
X94986446Y-61830000D01*
X95665922Y-61150524D01*
X95665921Y-61150523D01*
X95621359Y-61118147D01*
X95621350Y-61118141D01*
X95439031Y-61025244D01*
X95244417Y-60962009D01*
X95042317Y-60930000D01*
X94837683Y-60930000D01*
X94635581Y-60962010D01*
X94635574Y-60962011D01*
X94593623Y-60975642D01*
X94523781Y-60977637D01*
X94463949Y-60941556D01*
X94433122Y-60878854D01*
X94441087Y-60809440D01*
X94467622Y-60770033D01*
X95522297Y-59715359D01*
X109841500Y-59715359D01*
X109841500Y-59715369D01*
X109841500Y-59715371D01*
X109841500Y-61284627D01*
X109841500Y-61284629D01*
X109841501Y-61284640D01*
X109844333Y-61332199D01*
X109844334Y-61332203D01*
X109889330Y-61539048D01*
X109889335Y-61539063D01*
X109972664Y-61733657D01*
X109972666Y-61733661D01*
X109972668Y-61733664D01*
X110091326Y-61908981D01*
X110241019Y-62058674D01*
X110416336Y-62177332D01*
X110416340Y-62177333D01*
X110416342Y-62177335D01*
X110469899Y-62200269D01*
X110610942Y-62260667D01*
X110817801Y-62305667D01*
X110865359Y-62308500D01*
X111034640Y-62308499D01*
X111082199Y-62305667D01*
X111289058Y-62260667D01*
X111483664Y-62177332D01*
X111658981Y-62058674D01*
X111808674Y-61908981D01*
X111927332Y-61733664D01*
X112010667Y-61539058D01*
X112055667Y-61332199D01*
X112058500Y-61284641D01*
X112058499Y-59715360D01*
X112055667Y-59667801D01*
X112044261Y-59615371D01*
X112044258Y-59615359D01*
X115891500Y-59615359D01*
X115891500Y-59615369D01*
X115891500Y-59615371D01*
X115891500Y-59784627D01*
X115891500Y-59784629D01*
X115891501Y-59784640D01*
X115894333Y-59832199D01*
X115894334Y-59832203D01*
X115939330Y-60039048D01*
X115939335Y-60039063D01*
X116022664Y-60233657D01*
X116022666Y-60233661D01*
X116022668Y-60233664D01*
X116141326Y-60408981D01*
X116291019Y-60558674D01*
X116466336Y-60677332D01*
X116466340Y-60677333D01*
X116466342Y-60677335D01*
X116563639Y-60718999D01*
X116660942Y-60760667D01*
X116867801Y-60805667D01*
X116915359Y-60808500D01*
X118484640Y-60808499D01*
X118532199Y-60805667D01*
X118739058Y-60760667D01*
X118933664Y-60677332D01*
X119108981Y-60558674D01*
X119258674Y-60408981D01*
X119377332Y-60233664D01*
X119460667Y-60039058D01*
X119505667Y-59832199D01*
X119508500Y-59784641D01*
X119508499Y-59615360D01*
X119505667Y-59567801D01*
X119460667Y-59360942D01*
X119392135Y-59200904D01*
X119377335Y-59166342D01*
X119377333Y-59166340D01*
X119377332Y-59166336D01*
X119258674Y-58991019D01*
X119108981Y-58841326D01*
X118933664Y-58722668D01*
X118933661Y-58722666D01*
X118933657Y-58722664D01*
X118739063Y-58639335D01*
X118739061Y-58639334D01*
X118739058Y-58639333D01*
X118739053Y-58639331D01*
X118739047Y-58639330D01*
X118532204Y-58594334D01*
X118532203Y-58594333D01*
X118532199Y-58594333D01*
X118484641Y-58591500D01*
X118484628Y-58591500D01*
X116915372Y-58591500D01*
X116915369Y-58591500D01*
X116915360Y-58591501D01*
X116867801Y-58594333D01*
X116867796Y-58594333D01*
X116867796Y-58594334D01*
X116660951Y-58639330D01*
X116660936Y-58639335D01*
X116466342Y-58722664D01*
X116291021Y-58841324D01*
X116291016Y-58841328D01*
X116141328Y-58991016D01*
X116141324Y-58991021D01*
X116022664Y-59166342D01*
X115939335Y-59360936D01*
X115939330Y-59360952D01*
X115894508Y-59566996D01*
X115894333Y-59567801D01*
X115891500Y-59615359D01*
X112044258Y-59615359D01*
X112018064Y-59494946D01*
X112010667Y-59460942D01*
X111956411Y-59334241D01*
X111927335Y-59266342D01*
X111927333Y-59266340D01*
X111927332Y-59266336D01*
X111808674Y-59091019D01*
X111658981Y-58941326D01*
X111483664Y-58822668D01*
X111483661Y-58822666D01*
X111483657Y-58822664D01*
X111289063Y-58739335D01*
X111289061Y-58739334D01*
X111289058Y-58739333D01*
X111289053Y-58739331D01*
X111289047Y-58739330D01*
X111082204Y-58694334D01*
X111082203Y-58694333D01*
X111082199Y-58694333D01*
X111034641Y-58691500D01*
X111034628Y-58691500D01*
X110865372Y-58691500D01*
X110865369Y-58691500D01*
X110865360Y-58691501D01*
X110817801Y-58694333D01*
X110817796Y-58694333D01*
X110817796Y-58694334D01*
X110610951Y-58739330D01*
X110610936Y-58739335D01*
X110416342Y-58822664D01*
X110241021Y-58941324D01*
X110241016Y-58941328D01*
X110091328Y-59091016D01*
X110091324Y-59091021D01*
X109972664Y-59266342D01*
X109889335Y-59460936D01*
X109889330Y-59460952D01*
X109849332Y-59644819D01*
X109844333Y-59667801D01*
X109841500Y-59715359D01*
X95522297Y-59715359D01*
X95592837Y-59644819D01*
X95654160Y-59611334D01*
X95680518Y-59608500D01*
X99421220Y-59608500D01*
X99429599Y-59609697D01*
X99508432Y-59608500D01*
X99587241Y-59608500D01*
X99587244Y-59608499D01*
X99590769Y-59608221D01*
X99600691Y-59607364D01*
X99604050Y-59607048D01*
X99604060Y-59607048D01*
X99680873Y-59593682D01*
X99682671Y-59593385D01*
X99697471Y-59591041D01*
X99733747Y-59585295D01*
X99759574Y-59581205D01*
X99759579Y-59581203D01*
X99762929Y-59580399D01*
X99772664Y-59577984D01*
X99775944Y-59577142D01*
X99775960Y-59577140D01*
X99849788Y-59551904D01*
X99851327Y-59551391D01*
X99925516Y-59527288D01*
X99933062Y-59523442D01*
X99941064Y-59520708D01*
X100010728Y-59483869D01*
X100080981Y-59448074D01*
X100080988Y-59448068D01*
X100083914Y-59446276D01*
X100092410Y-59440980D01*
X100095301Y-59439147D01*
X100095307Y-59439145D01*
X100099985Y-59435637D01*
X100157620Y-59392410D01*
X100158379Y-59391840D01*
X100222139Y-59345517D01*
X100228123Y-59339532D01*
X103836433Y-56633299D01*
X103901875Y-56608824D01*
X103910833Y-56608500D01*
X158489482Y-56608500D01*
X158556521Y-56628185D01*
X158577163Y-56644819D01*
X160145181Y-58212837D01*
X160178666Y-58274160D01*
X160181500Y-58300518D01*
X160181500Y-86032500D01*
X160161815Y-86099539D01*
X160109011Y-86145294D01*
X160057500Y-86156500D01*
X159575790Y-86156500D01*
X159508751Y-86136815D01*
X159502905Y-86132818D01*
X159462012Y-86103108D01*
X159462011Y-86103107D01*
X159462009Y-86103106D01*
X159369741Y-86056093D01*
X159271483Y-86006027D01*
X159271480Y-86006026D01*
X159068117Y-85939951D01*
X158910475Y-85914983D01*
X158856916Y-85906500D01*
X158643084Y-85906500D01*
X158589525Y-85914983D01*
X158431882Y-85939951D01*
X158228519Y-86006026D01*
X158228516Y-86006027D01*
X158037990Y-86103106D01*
X157864993Y-86228796D01*
X157713796Y-86379993D01*
X157588103Y-86552994D01*
X157585709Y-86557693D01*
X157537731Y-86608485D01*
X157469908Y-86625275D01*
X157403775Y-86602732D01*
X157367800Y-86561210D01*
X157367168Y-86561598D01*
X157364829Y-86557781D01*
X157364743Y-86557682D01*
X157364620Y-86557441D01*
X157239727Y-86385540D01*
X157239723Y-86385535D01*
X157089464Y-86235276D01*
X157089459Y-86235272D01*
X156917557Y-86110379D01*
X156728215Y-86013903D01*
X156526124Y-85948241D01*
X156460000Y-85937768D01*
X156460000Y-86831988D01*
X156402993Y-86799075D01*
X156275826Y-86765000D01*
X156144174Y-86765000D01*
X156017007Y-86799075D01*
X155960000Y-86831988D01*
X155960000Y-85937768D01*
X155959999Y-85937768D01*
X155893875Y-85948241D01*
X155691784Y-86013903D01*
X155502442Y-86110379D01*
X155330540Y-86235272D01*
X155330535Y-86235276D01*
X155180276Y-86385535D01*
X155180272Y-86385540D01*
X155055376Y-86557446D01*
X155055374Y-86557448D01*
X155055246Y-86557701D01*
X155055172Y-86557779D01*
X155052832Y-86561598D01*
X155052029Y-86561106D01*
X155007264Y-86608489D01*
X154939441Y-86625274D01*
X154873309Y-86602727D01*
X154834285Y-86557683D01*
X154831895Y-86552992D01*
X154778500Y-86479500D01*
X154706206Y-86379996D01*
X154555004Y-86228794D01*
X154382009Y-86103106D01*
X154365315Y-86094600D01*
X154191483Y-86006027D01*
X154191480Y-86006026D01*
X153988117Y-85939951D01*
X153830475Y-85914983D01*
X153776916Y-85906500D01*
X153563084Y-85906500D01*
X153509525Y-85914983D01*
X153351882Y-85939951D01*
X153148519Y-86006026D01*
X153148516Y-86006027D01*
X152957990Y-86103106D01*
X152784993Y-86228796D01*
X152633796Y-86379993D01*
X152508105Y-86552991D01*
X152505727Y-86556873D01*
X152453914Y-86603748D01*
X152384984Y-86615169D01*
X152320822Y-86587512D01*
X152294273Y-86556873D01*
X152291894Y-86552991D01*
X152262181Y-86512095D01*
X152166206Y-86379996D01*
X152015004Y-86228794D01*
X151842009Y-86103106D01*
X151842008Y-86103105D01*
X151842006Y-86103104D01*
X151825319Y-86094601D01*
X151774525Y-86046626D01*
X151760000Y-86008309D01*
X151748341Y-85949698D01*
X151739155Y-85903515D01*
X151691400Y-85788225D01*
X151691399Y-85788224D01*
X151691396Y-85788218D01*
X151622071Y-85684467D01*
X151622068Y-85684463D01*
X151598819Y-85661214D01*
X151565334Y-85599891D01*
X151562500Y-85573533D01*
X151562500Y-76794377D01*
X151582185Y-76727338D01*
X151583397Y-76725487D01*
X151617441Y-76674536D01*
X151645483Y-76632568D01*
X151706430Y-76485431D01*
X151737500Y-76329230D01*
X151737500Y-76169970D01*
X151706430Y-76013769D01*
X151645483Y-75866632D01*
X151639590Y-75857813D01*
X151557004Y-75734212D01*
X151556998Y-75734205D01*
X151444394Y-75621601D01*
X151444387Y-75621595D01*
X151311969Y-75533117D01*
X151164831Y-75472170D01*
X151164823Y-75472168D01*
X151008634Y-75441100D01*
X151008630Y-75441100D01*
X150849370Y-75441100D01*
X150849365Y-75441100D01*
X150693176Y-75472168D01*
X150693168Y-75472170D01*
X150546030Y-75533117D01*
X150413612Y-75621595D01*
X150413605Y-75621601D01*
X150301001Y-75734205D01*
X150300995Y-75734212D01*
X150212517Y-75866630D01*
X150151570Y-76013768D01*
X150151568Y-76013776D01*
X150120500Y-76169965D01*
X150120500Y-76329234D01*
X150151568Y-76485423D01*
X150151570Y-76485431D01*
X150212515Y-76632566D01*
X150274603Y-76725487D01*
X150295480Y-76792164D01*
X150295500Y-76794377D01*
X150295500Y-85949698D01*
X150321033Y-86078060D01*
X150319724Y-86078320D01*
X150320287Y-86141357D01*
X150283037Y-86200469D01*
X150273892Y-86207799D01*
X150260307Y-86217670D01*
X150244996Y-86228794D01*
X150244994Y-86228796D01*
X150244993Y-86228796D01*
X150093796Y-86379993D01*
X149968105Y-86552991D01*
X149965727Y-86556873D01*
X149913914Y-86603748D01*
X149844984Y-86615169D01*
X149780822Y-86587512D01*
X149754273Y-86556873D01*
X149751894Y-86552991D01*
X149722181Y-86512095D01*
X149626206Y-86379996D01*
X149475004Y-86228794D01*
X149302009Y-86103106D01*
X149302008Y-86103105D01*
X149302006Y-86103104D01*
X149285319Y-86094601D01*
X149234525Y-86046626D01*
X149220000Y-86008309D01*
X149208341Y-85949698D01*
X149199155Y-85903515D01*
X149151400Y-85788225D01*
X149151399Y-85788224D01*
X149151396Y-85788218D01*
X149082072Y-85684468D01*
X149039000Y-85641396D01*
X148993833Y-85596229D01*
X148910419Y-85512815D01*
X148876934Y-85451492D01*
X148874100Y-85425134D01*
X148874100Y-79085977D01*
X148893785Y-79018938D01*
X148894997Y-79017087D01*
X148957084Y-78924166D01*
X148980113Y-78868569D01*
X149018030Y-78777031D01*
X149049100Y-78620830D01*
X149049100Y-78461570D01*
X149018030Y-78305369D01*
X148957083Y-78158232D01*
X148950969Y-78149082D01*
X148868604Y-78025812D01*
X148868598Y-78025805D01*
X148755994Y-77913201D01*
X148755987Y-77913195D01*
X148623569Y-77824717D01*
X148476431Y-77763770D01*
X148476423Y-77763768D01*
X148320234Y-77732700D01*
X148320230Y-77732700D01*
X148160970Y-77732700D01*
X148160965Y-77732700D01*
X148004776Y-77763768D01*
X148004768Y-77763770D01*
X147857630Y-77824717D01*
X147725212Y-77913195D01*
X147725205Y-77913201D01*
X147612601Y-78025805D01*
X147612595Y-78025812D01*
X147524117Y-78158230D01*
X147463170Y-78305368D01*
X147463168Y-78305376D01*
X147432100Y-78461565D01*
X147432100Y-78620834D01*
X147463168Y-78777023D01*
X147463170Y-78777031D01*
X147524115Y-78924166D01*
X147586203Y-79017087D01*
X147607080Y-79083764D01*
X147607100Y-79085977D01*
X147607100Y-85801298D01*
X147631443Y-85923677D01*
X147631445Y-85923685D01*
X147679198Y-86038972D01*
X147679203Y-86038981D01*
X147709025Y-86083612D01*
X147729903Y-86150289D01*
X147711419Y-86217670D01*
X147693605Y-86240184D01*
X147553793Y-86379996D01*
X147428103Y-86552994D01*
X147425709Y-86557693D01*
X147377731Y-86608485D01*
X147309908Y-86625275D01*
X147243775Y-86602732D01*
X147207800Y-86561210D01*
X147207168Y-86561598D01*
X147204829Y-86557781D01*
X147204743Y-86557682D01*
X147204620Y-86557441D01*
X147079727Y-86385540D01*
X147079723Y-86385535D01*
X146929464Y-86235276D01*
X146929459Y-86235272D01*
X146757557Y-86110379D01*
X146568215Y-86013903D01*
X146366124Y-85948241D01*
X146300000Y-85937768D01*
X146300000Y-86831988D01*
X146242993Y-86799075D01*
X146115826Y-86765000D01*
X145984174Y-86765000D01*
X145857007Y-86799075D01*
X145800000Y-86831988D01*
X145800000Y-85937768D01*
X145799999Y-85937768D01*
X145733875Y-85948241D01*
X145531784Y-86013903D01*
X145342442Y-86110379D01*
X145170540Y-86235272D01*
X145170535Y-86235276D01*
X145020276Y-86385535D01*
X145020272Y-86385540D01*
X144895376Y-86557446D01*
X144895374Y-86557448D01*
X144895246Y-86557701D01*
X144895172Y-86557779D01*
X144892832Y-86561598D01*
X144892029Y-86561106D01*
X144847264Y-86608489D01*
X144779441Y-86625274D01*
X144713309Y-86602727D01*
X144674285Y-86557683D01*
X144671895Y-86552992D01*
X144618500Y-86479500D01*
X144546206Y-86379996D01*
X144395004Y-86228794D01*
X144222009Y-86103106D01*
X144222008Y-86103105D01*
X144218067Y-86100242D01*
X144219382Y-86098431D01*
X144178754Y-86053428D01*
X144167404Y-85984487D01*
X144195129Y-85920353D01*
X144221579Y-85896533D01*
X144326389Y-85826503D01*
X144439003Y-85713889D01*
X144527483Y-85581468D01*
X144588430Y-85434331D01*
X144610231Y-85324722D01*
X144642615Y-85262815D01*
X144644110Y-85261292D01*
X145680371Y-84225033D01*
X145749700Y-84121275D01*
X145797455Y-84005985D01*
X145821800Y-83883594D01*
X145821800Y-83758807D01*
X145821800Y-82447300D01*
X145841485Y-82380261D01*
X145894289Y-82334506D01*
X145945800Y-82323300D01*
X146088631Y-82323300D01*
X146088632Y-82323299D01*
X146244831Y-82292230D01*
X146391968Y-82231283D01*
X146524389Y-82142803D01*
X146637003Y-82030189D01*
X146725483Y-81897768D01*
X146786430Y-81750631D01*
X146817500Y-81594430D01*
X146817500Y-81435170D01*
X146786430Y-81278969D01*
X146725483Y-81131832D01*
X146663397Y-81038912D01*
X146642520Y-80972234D01*
X146642500Y-80970022D01*
X146642500Y-65124765D01*
X146662185Y-65057726D01*
X146678815Y-65037088D01*
X147372353Y-64343549D01*
X147433674Y-64310066D01*
X147498348Y-64313300D01*
X147509884Y-64317049D01*
X147721084Y-64350500D01*
X147721085Y-64350500D01*
X147934915Y-64350500D01*
X147934916Y-64350500D01*
X148146116Y-64317049D01*
X148349483Y-64250972D01*
X148540009Y-64153894D01*
X148713004Y-64028206D01*
X148864206Y-63877004D01*
X148989894Y-63704009D01*
X148989896Y-63704004D01*
X148992270Y-63700132D01*
X149044080Y-63653254D01*
X149113009Y-63641829D01*
X149177173Y-63669483D01*
X149203730Y-63700132D01*
X149206103Y-63704005D01*
X149206106Y-63704009D01*
X149331794Y-63877004D01*
X149482996Y-64028206D01*
X149655991Y-64153894D01*
X149666794Y-64159398D01*
X149717590Y-64207371D01*
X149734500Y-64269883D01*
X149734500Y-71764498D01*
X149758843Y-71886877D01*
X149758845Y-71886885D01*
X149806598Y-72002172D01*
X149806603Y-72002181D01*
X149875928Y-72105932D01*
X149875931Y-72105936D01*
X150558832Y-72788837D01*
X150592317Y-72850160D01*
X150592768Y-72852327D01*
X150614568Y-72961923D01*
X150614570Y-72961931D01*
X150675517Y-73109069D01*
X150763995Y-73241487D01*
X150764001Y-73241494D01*
X150876605Y-73354098D01*
X150876612Y-73354104D01*
X151009030Y-73442582D01*
X151009031Y-73442582D01*
X151009032Y-73442583D01*
X151156169Y-73503530D01*
X151312365Y-73534599D01*
X151312369Y-73534600D01*
X151312370Y-73534600D01*
X151471631Y-73534600D01*
X151471632Y-73534599D01*
X151627831Y-73503530D01*
X151774968Y-73442583D01*
X151907389Y-73354103D01*
X152020003Y-73241489D01*
X152047399Y-73200487D01*
X152101009Y-73155684D01*
X152170334Y-73146975D01*
X152233362Y-73177130D01*
X152270081Y-73236572D01*
X152274500Y-73269379D01*
X152274500Y-78001898D01*
X152298843Y-78124277D01*
X152298845Y-78124285D01*
X152346598Y-78239572D01*
X152346603Y-78239581D01*
X152415928Y-78343332D01*
X152415931Y-78343336D01*
X153694232Y-79621636D01*
X153727717Y-79682959D01*
X153728168Y-79685126D01*
X153749968Y-79794723D01*
X153749970Y-79794731D01*
X153810917Y-79941869D01*
X153899395Y-80074287D01*
X153899401Y-80074294D01*
X154012005Y-80186898D01*
X154012012Y-80186904D01*
X154144430Y-80275382D01*
X154144431Y-80275382D01*
X154144432Y-80275383D01*
X154291569Y-80336330D01*
X154439440Y-80365743D01*
X154447765Y-80367399D01*
X154447769Y-80367400D01*
X154447770Y-80367400D01*
X154607031Y-80367400D01*
X154607032Y-80367399D01*
X154763231Y-80336330D01*
X154910368Y-80275383D01*
X155042789Y-80186903D01*
X155155403Y-80074289D01*
X155243883Y-79941868D01*
X155304830Y-79794731D01*
X155335900Y-79638530D01*
X155335900Y-79479270D01*
X155304830Y-79323069D01*
X155243883Y-79175932D01*
X155228830Y-79153404D01*
X155155404Y-79043512D01*
X155155398Y-79043505D01*
X155042794Y-78930901D01*
X155042787Y-78930895D01*
X154910369Y-78842417D01*
X154763231Y-78781470D01*
X154763223Y-78781468D01*
X154653626Y-78759668D01*
X154591715Y-78727284D01*
X154590136Y-78725732D01*
X153577819Y-77713415D01*
X153544334Y-77652092D01*
X153541500Y-77625734D01*
X153541500Y-64269883D01*
X153561185Y-64202844D01*
X153609204Y-64159398D01*
X153620009Y-64153894D01*
X153793004Y-64028206D01*
X153944206Y-63877004D01*
X154069894Y-63704009D01*
X154166972Y-63513483D01*
X154233049Y-63310116D01*
X154266500Y-63098916D01*
X154266500Y-62885084D01*
X154233049Y-62673884D01*
X154200010Y-62572200D01*
X154166973Y-62470519D01*
X154166972Y-62470516D01*
X154084420Y-62308500D01*
X154069894Y-62279991D01*
X153944206Y-62106996D01*
X153793004Y-61955794D01*
X153620009Y-61830106D01*
X153620010Y-61830106D01*
X153620008Y-61830105D01*
X153615311Y-61827712D01*
X153564517Y-61779735D01*
X153547724Y-61711914D01*
X153570264Y-61645780D01*
X153611790Y-61609801D01*
X153611402Y-61609168D01*
X153615229Y-61606822D01*
X153615327Y-61606738D01*
X153615556Y-61606621D01*
X153669716Y-61567270D01*
X153669717Y-61567270D01*
X153037408Y-60934962D01*
X153100993Y-60917925D01*
X153215007Y-60852099D01*
X153308099Y-60759007D01*
X153373925Y-60644993D01*
X153390962Y-60581408D01*
X154023270Y-61213717D01*
X154023270Y-61213716D01*
X154062622Y-61159554D01*
X154159095Y-60970217D01*
X154224757Y-60768130D01*
X154224757Y-60768127D01*
X154258000Y-60558246D01*
X154258000Y-60345753D01*
X154224757Y-60135872D01*
X154224757Y-60135869D01*
X154159095Y-59933782D01*
X154062624Y-59744449D01*
X154023270Y-59690282D01*
X154023269Y-59690282D01*
X153390962Y-60322590D01*
X153373925Y-60259007D01*
X153308099Y-60144993D01*
X153215007Y-60051901D01*
X153100993Y-59986075D01*
X153037409Y-59969037D01*
X153669716Y-59336728D01*
X153615550Y-59297375D01*
X153426217Y-59200904D01*
X153224129Y-59135242D01*
X153014246Y-59102000D01*
X152801754Y-59102000D01*
X152591872Y-59135242D01*
X152591869Y-59135242D01*
X152389782Y-59200904D01*
X152200439Y-59297380D01*
X152146282Y-59336727D01*
X152146282Y-59336728D01*
X152778591Y-59969037D01*
X152715007Y-59986075D01*
X152600993Y-60051901D01*
X152507901Y-60144993D01*
X152442075Y-60259007D01*
X152425037Y-60322591D01*
X151792728Y-59690282D01*
X151792727Y-59690282D01*
X151753380Y-59744440D01*
X151753374Y-59744449D01*
X151753246Y-59744702D01*
X151753172Y-59744780D01*
X151750838Y-59748590D01*
X151750036Y-59748099D01*
X151705264Y-59795490D01*
X151637441Y-59812275D01*
X151571309Y-59789728D01*
X151532283Y-59744680D01*
X151529894Y-59739991D01*
X151404206Y-59566996D01*
X151332156Y-59494946D01*
X151316435Y-59466155D01*
X151299689Y-59437931D01*
X151299770Y-59435637D01*
X151298671Y-59433623D01*
X151301012Y-59400886D01*
X151302183Y-59368106D01*
X151303491Y-59366221D01*
X151303655Y-59363931D01*
X151323321Y-59337660D01*
X151342031Y-59310713D01*
X151344664Y-59309150D01*
X151345527Y-59307998D01*
X151372380Y-59292705D01*
X151486868Y-59245283D01*
X151619289Y-59156803D01*
X151731903Y-59044189D01*
X151820383Y-58911768D01*
X151881330Y-58764631D01*
X151912400Y-58608430D01*
X151912400Y-58449170D01*
X151881330Y-58292969D01*
X151820383Y-58145832D01*
X151731903Y-58013411D01*
X151731898Y-58013405D01*
X151619294Y-57900801D01*
X151619287Y-57900795D01*
X151486869Y-57812317D01*
X151339731Y-57751370D01*
X151339723Y-57751368D01*
X151183534Y-57720300D01*
X151183530Y-57720300D01*
X151024270Y-57720300D01*
X151024265Y-57720300D01*
X150868076Y-57751368D01*
X150868068Y-57751370D01*
X150720930Y-57812317D01*
X150588512Y-57900795D01*
X150588505Y-57900801D01*
X150475901Y-58013405D01*
X150475895Y-58013412D01*
X150387417Y-58145830D01*
X150326470Y-58292968D01*
X150326468Y-58292976D01*
X150304668Y-58402572D01*
X150272283Y-58464483D01*
X150270733Y-58466062D01*
X149964167Y-58772629D01*
X149924979Y-58811817D01*
X149875927Y-58860868D01*
X149806603Y-58964618D01*
X149806598Y-58964627D01*
X149758845Y-59079914D01*
X149758843Y-59079922D01*
X149735653Y-59196505D01*
X149703268Y-59258416D01*
X149670333Y-59282797D01*
X149655995Y-59290102D01*
X149482993Y-59415796D01*
X149331796Y-59566993D01*
X149206105Y-59739991D01*
X149203727Y-59743873D01*
X149151914Y-59790748D01*
X149082984Y-59802169D01*
X149018822Y-59774512D01*
X148992273Y-59743873D01*
X148989894Y-59739991D01*
X148972007Y-59715372D01*
X148864206Y-59566996D01*
X148713004Y-59415794D01*
X148540009Y-59290106D01*
X148525664Y-59282797D01*
X148349483Y-59193027D01*
X148349480Y-59193026D01*
X148146117Y-59126951D01*
X148040516Y-59110225D01*
X147934916Y-59093500D01*
X147721084Y-59093500D01*
X147650684Y-59104650D01*
X147509882Y-59126951D01*
X147306519Y-59193026D01*
X147306516Y-59193027D01*
X147115990Y-59290106D01*
X146942993Y-59415796D01*
X146791796Y-59566993D01*
X146666105Y-59739991D01*
X146663727Y-59743873D01*
X146611914Y-59790748D01*
X146542984Y-59802169D01*
X146478822Y-59774512D01*
X146452273Y-59743873D01*
X146449894Y-59739991D01*
X146432007Y-59715372D01*
X146324206Y-59566996D01*
X146173004Y-59415794D01*
X146000009Y-59290106D01*
X145985664Y-59282797D01*
X145809483Y-59193027D01*
X145809480Y-59193026D01*
X145606117Y-59126951D01*
X145500516Y-59110225D01*
X145394916Y-59093500D01*
X145181084Y-59093500D01*
X145110684Y-59104650D01*
X144969882Y-59126951D01*
X144766519Y-59193026D01*
X144766516Y-59193027D01*
X144575987Y-59290108D01*
X144448422Y-59382789D01*
X144382616Y-59406269D01*
X144314562Y-59390443D01*
X144287856Y-59370152D01*
X143631236Y-58713531D01*
X143631232Y-58713528D01*
X143527481Y-58644203D01*
X143527472Y-58644198D01*
X143412185Y-58596445D01*
X143412177Y-58596443D01*
X143289798Y-58572100D01*
X143289794Y-58572100D01*
X141516794Y-58572100D01*
X141392006Y-58572100D01*
X141392001Y-58572100D01*
X141269622Y-58596442D01*
X141269613Y-58596445D01*
X141154324Y-58644199D01*
X141154321Y-58644200D01*
X141050567Y-58713527D01*
X141050563Y-58713530D01*
X140663646Y-59100447D01*
X140602323Y-59133932D01*
X140537651Y-59130698D01*
X140526126Y-59126953D01*
X140526109Y-59126949D01*
X140346781Y-59098547D01*
X140314916Y-59093500D01*
X140101084Y-59093500D01*
X140030684Y-59104650D01*
X139889882Y-59126951D01*
X139686519Y-59193026D01*
X139686516Y-59193027D01*
X139495990Y-59290106D01*
X139322993Y-59415796D01*
X139171796Y-59566993D01*
X139046105Y-59739991D01*
X139043727Y-59743873D01*
X138991914Y-59790748D01*
X138922984Y-59802169D01*
X138858822Y-59774512D01*
X138832273Y-59743873D01*
X138829894Y-59739991D01*
X138812007Y-59715372D01*
X138704206Y-59566996D01*
X138553004Y-59415794D01*
X138380009Y-59290106D01*
X138365664Y-59282797D01*
X138189483Y-59193027D01*
X138189480Y-59193026D01*
X137986117Y-59126951D01*
X137880516Y-59110225D01*
X137774916Y-59093500D01*
X137561084Y-59093500D01*
X137490684Y-59104650D01*
X137349882Y-59126951D01*
X137146519Y-59193026D01*
X137146516Y-59193027D01*
X136955990Y-59290106D01*
X136782993Y-59415796D01*
X136631796Y-59566993D01*
X136506105Y-59739991D01*
X136503727Y-59743873D01*
X136451914Y-59790748D01*
X136382984Y-59802169D01*
X136318822Y-59774512D01*
X136292273Y-59743873D01*
X136289894Y-59739991D01*
X136272007Y-59715372D01*
X136164206Y-59566996D01*
X136013004Y-59415794D01*
X135840009Y-59290106D01*
X135825664Y-59282797D01*
X135649483Y-59193027D01*
X135649480Y-59193026D01*
X135446117Y-59126951D01*
X135340516Y-59110225D01*
X135234916Y-59093500D01*
X135021084Y-59093500D01*
X134950684Y-59104650D01*
X134809882Y-59126951D01*
X134606519Y-59193026D01*
X134606516Y-59193027D01*
X134415990Y-59290106D01*
X134242997Y-59415793D01*
X134142266Y-59516524D01*
X134080943Y-59550008D01*
X134011251Y-59545024D01*
X133955318Y-59503152D01*
X133932968Y-59453033D01*
X133920909Y-59392410D01*
X133901030Y-59292469D01*
X133840083Y-59145332D01*
X133827801Y-59126951D01*
X133751604Y-59012912D01*
X133751598Y-59012905D01*
X133638994Y-58900301D01*
X133638987Y-58900295D01*
X133506569Y-58811817D01*
X133359431Y-58750870D01*
X133359423Y-58750868D01*
X133203234Y-58719800D01*
X133203230Y-58719800D01*
X133043970Y-58719800D01*
X133043965Y-58719800D01*
X132887776Y-58750868D01*
X132887768Y-58750870D01*
X132740630Y-58811817D01*
X132608212Y-58900295D01*
X132608205Y-58900301D01*
X132495601Y-59012905D01*
X132495595Y-59012912D01*
X132407117Y-59145330D01*
X132346170Y-59292468D01*
X132346168Y-59292476D01*
X132315100Y-59448665D01*
X132315100Y-59607934D01*
X132346168Y-59764123D01*
X132346170Y-59764131D01*
X132407115Y-59911266D01*
X132469203Y-60004187D01*
X132490080Y-60070864D01*
X132490100Y-60073077D01*
X132490100Y-83460934D01*
X132470415Y-83527973D01*
X132453781Y-83548615D01*
X130406167Y-85596229D01*
X130377500Y-85624896D01*
X130317927Y-85684468D01*
X130248603Y-85788218D01*
X130248598Y-85788227D01*
X130200845Y-85903514D01*
X130200843Y-85903520D01*
X130179999Y-86008310D01*
X130147614Y-86070221D01*
X130114682Y-86094600D01*
X130097993Y-86103104D01*
X129924993Y-86228796D01*
X129773796Y-86379993D01*
X129648105Y-86552991D01*
X129645727Y-86556873D01*
X129593914Y-86603748D01*
X129524984Y-86615169D01*
X129460822Y-86587512D01*
X129434273Y-86556873D01*
X129431894Y-86552991D01*
X129402181Y-86512095D01*
X129306206Y-86379996D01*
X129155004Y-86228794D01*
X128982009Y-86103106D01*
X128965315Y-86094600D01*
X128791483Y-86006027D01*
X128791480Y-86006026D01*
X128588117Y-85939951D01*
X128430475Y-85914983D01*
X128376916Y-85906500D01*
X128163084Y-85906500D01*
X128109525Y-85914983D01*
X127951882Y-85939951D01*
X127748519Y-86006026D01*
X127748516Y-86006027D01*
X127557990Y-86103106D01*
X127384993Y-86228796D01*
X127233796Y-86379993D01*
X127108103Y-86552994D01*
X127105709Y-86557693D01*
X127057731Y-86608485D01*
X126989908Y-86625275D01*
X126923775Y-86602732D01*
X126887800Y-86561210D01*
X126887168Y-86561598D01*
X126884829Y-86557781D01*
X126884743Y-86557682D01*
X126884620Y-86557441D01*
X126759727Y-86385540D01*
X126759723Y-86385535D01*
X126609464Y-86235276D01*
X126609459Y-86235272D01*
X126437557Y-86110379D01*
X126248215Y-86013903D01*
X126046124Y-85948241D01*
X125980000Y-85937768D01*
X125980000Y-86831988D01*
X125922993Y-86799075D01*
X125795826Y-86765000D01*
X125664174Y-86765000D01*
X125537007Y-86799075D01*
X125480000Y-86831988D01*
X125480000Y-85937768D01*
X125479999Y-85937768D01*
X125413875Y-85948241D01*
X125211784Y-86013903D01*
X125194395Y-86022764D01*
X125125726Y-86035660D01*
X125060985Y-86009384D01*
X125020728Y-85952277D01*
X125014100Y-85912279D01*
X125014100Y-80992094D01*
X125033785Y-80925055D01*
X125086589Y-80879300D01*
X125155747Y-80869356D01*
X125162287Y-80870476D01*
X125210668Y-80880099D01*
X125210669Y-80880100D01*
X125210670Y-80880100D01*
X125369931Y-80880100D01*
X125369932Y-80880099D01*
X125526131Y-80849030D01*
X125673268Y-80788083D01*
X125805689Y-80699603D01*
X125918303Y-80586989D01*
X126006783Y-80454568D01*
X126067730Y-80307431D01*
X126097853Y-80155988D01*
X126106766Y-80128475D01*
X126110880Y-80119507D01*
X126125001Y-80098375D01*
X126165173Y-80001389D01*
X126172755Y-79983085D01*
X126197100Y-79860694D01*
X126197100Y-79374855D01*
X126216785Y-79307816D01*
X126269589Y-79262061D01*
X126338747Y-79252117D01*
X126402303Y-79281142D01*
X126408781Y-79287174D01*
X126459605Y-79337998D01*
X126459612Y-79338004D01*
X126592030Y-79426482D01*
X126592031Y-79426482D01*
X126592032Y-79426483D01*
X126739169Y-79487430D01*
X126895365Y-79518499D01*
X126895369Y-79518500D01*
X126895370Y-79518500D01*
X127054631Y-79518500D01*
X127054632Y-79518499D01*
X127210831Y-79487430D01*
X127357968Y-79426483D01*
X127450887Y-79364396D01*
X127517564Y-79343520D01*
X127519777Y-79343500D01*
X129288795Y-79343500D01*
X129288795Y-79343499D01*
X129325077Y-79336282D01*
X129349268Y-79333900D01*
X129490631Y-79333900D01*
X129490632Y-79333899D01*
X129646831Y-79302830D01*
X129793968Y-79241883D01*
X129926389Y-79153403D01*
X130039003Y-79040789D01*
X130127483Y-78908368D01*
X130188430Y-78761231D01*
X130219500Y-78605030D01*
X130219500Y-78445770D01*
X130188430Y-78289569D01*
X130127483Y-78142432D01*
X130125642Y-78139677D01*
X130039004Y-78010012D01*
X130038998Y-78010005D01*
X129926394Y-77897401D01*
X129926387Y-77897395D01*
X129793969Y-77808917D01*
X129646831Y-77747970D01*
X129646823Y-77747968D01*
X129490634Y-77716900D01*
X129490630Y-77716900D01*
X129331370Y-77716900D01*
X129331365Y-77716900D01*
X129175176Y-77747968D01*
X129175168Y-77747970D01*
X129028030Y-77808917D01*
X128895612Y-77897395D01*
X128895605Y-77897401D01*
X128782999Y-78010007D01*
X128775392Y-78021393D01*
X128721779Y-78066197D01*
X128672291Y-78076500D01*
X127519777Y-78076500D01*
X127452738Y-78056815D01*
X127450887Y-78055603D01*
X127448474Y-78053991D01*
X127439677Y-78048113D01*
X127357966Y-77993515D01*
X127210831Y-77932570D01*
X127210823Y-77932568D01*
X127054634Y-77901500D01*
X127054630Y-77901500D01*
X126895370Y-77901500D01*
X126895365Y-77901500D01*
X126739176Y-77932568D01*
X126739168Y-77932570D01*
X126592030Y-77993517D01*
X126459612Y-78081995D01*
X126459605Y-78082001D01*
X126408781Y-78132826D01*
X126347458Y-78166311D01*
X126277766Y-78161327D01*
X126221833Y-78119455D01*
X126197416Y-78053991D01*
X126197100Y-78045145D01*
X126197100Y-69801165D01*
X127842100Y-69801165D01*
X127842100Y-69960434D01*
X127873168Y-70116623D01*
X127873170Y-70116631D01*
X127934115Y-70263766D01*
X127996203Y-70356687D01*
X128017080Y-70423364D01*
X128017100Y-70425577D01*
X128017100Y-72033598D01*
X128041443Y-72155977D01*
X128041445Y-72155985D01*
X128089198Y-72271272D01*
X128089203Y-72271281D01*
X128158528Y-72375032D01*
X128158531Y-72375036D01*
X128684032Y-72900536D01*
X128717517Y-72961859D01*
X128717968Y-72964026D01*
X128739768Y-73073623D01*
X128739770Y-73073631D01*
X128800717Y-73220769D01*
X128889195Y-73353187D01*
X128889201Y-73353194D01*
X129001805Y-73465798D01*
X129001812Y-73465804D01*
X129134230Y-73554282D01*
X129134231Y-73554282D01*
X129134232Y-73554283D01*
X129281369Y-73615230D01*
X129437565Y-73646299D01*
X129437569Y-73646300D01*
X129437570Y-73646300D01*
X129596831Y-73646300D01*
X129596832Y-73646299D01*
X129753031Y-73615230D01*
X129900168Y-73554283D01*
X130032589Y-73465803D01*
X130145203Y-73353189D01*
X130233683Y-73220768D01*
X130294630Y-73073631D01*
X130325700Y-72917430D01*
X130325700Y-72758170D01*
X130294630Y-72601969D01*
X130233683Y-72454832D01*
X130187341Y-72385476D01*
X130145204Y-72322412D01*
X130145198Y-72322405D01*
X130032594Y-72209801D01*
X130032587Y-72209795D01*
X129900169Y-72121317D01*
X129753031Y-72060370D01*
X129753023Y-72060368D01*
X129643426Y-72038568D01*
X129581515Y-72006184D01*
X129579936Y-72004632D01*
X129320419Y-71745115D01*
X129286934Y-71683792D01*
X129284100Y-71657434D01*
X129284100Y-70425577D01*
X129303785Y-70358538D01*
X129304997Y-70356687D01*
X129319733Y-70334633D01*
X129367083Y-70263768D01*
X129428030Y-70116631D01*
X129459100Y-69960430D01*
X129459100Y-69801170D01*
X129428030Y-69644969D01*
X129367083Y-69497832D01*
X129278603Y-69365411D01*
X129278598Y-69365405D01*
X129165994Y-69252801D01*
X129165987Y-69252795D01*
X129033569Y-69164317D01*
X128886431Y-69103370D01*
X128886423Y-69103368D01*
X128730234Y-69072300D01*
X128730230Y-69072300D01*
X128570970Y-69072300D01*
X128570965Y-69072300D01*
X128414776Y-69103368D01*
X128414768Y-69103370D01*
X128267630Y-69164317D01*
X128135212Y-69252795D01*
X128135205Y-69252801D01*
X128022601Y-69365405D01*
X128022595Y-69365412D01*
X127934117Y-69497830D01*
X127873170Y-69644968D01*
X127873168Y-69644976D01*
X127842100Y-69801165D01*
X126197100Y-69801165D01*
X126197100Y-60521377D01*
X126216785Y-60454338D01*
X126217997Y-60452487D01*
X126247065Y-60408983D01*
X126280083Y-60359568D01*
X126285806Y-60345753D01*
X126321737Y-60259007D01*
X126341030Y-60212431D01*
X126372100Y-60056230D01*
X126372100Y-59896970D01*
X126341030Y-59740769D01*
X126280083Y-59593632D01*
X126269627Y-59577984D01*
X126191604Y-59461212D01*
X126191598Y-59461205D01*
X126078994Y-59348601D01*
X126078987Y-59348595D01*
X125946569Y-59260117D01*
X125799431Y-59199170D01*
X125799423Y-59199168D01*
X125643234Y-59168100D01*
X125643230Y-59168100D01*
X125483970Y-59168100D01*
X125456191Y-59173625D01*
X125386599Y-59167396D01*
X125331423Y-59124532D01*
X125329312Y-59121510D01*
X125308681Y-59091028D01*
X125308675Y-59091021D01*
X125308674Y-59091019D01*
X125158981Y-58941326D01*
X124983664Y-58822668D01*
X124983661Y-58822666D01*
X124983657Y-58822664D01*
X124789063Y-58739335D01*
X124789061Y-58739334D01*
X124789058Y-58739333D01*
X124789053Y-58739331D01*
X124789047Y-58739330D01*
X124582204Y-58694334D01*
X124582203Y-58694333D01*
X124582199Y-58694333D01*
X124534641Y-58691500D01*
X124534628Y-58691500D01*
X124365372Y-58691500D01*
X124365369Y-58691500D01*
X124365360Y-58691501D01*
X124317801Y-58694333D01*
X124317796Y-58694333D01*
X124317796Y-58694334D01*
X124110951Y-58739330D01*
X124110936Y-58739335D01*
X123916342Y-58822664D01*
X123741021Y-58941324D01*
X123741016Y-58941328D01*
X123591328Y-59091016D01*
X123591324Y-59091021D01*
X123472664Y-59266342D01*
X123389335Y-59460936D01*
X123389330Y-59460952D01*
X123349332Y-59644819D01*
X123344333Y-59667801D01*
X123341500Y-59715359D01*
X123341500Y-59715369D01*
X123341500Y-59715371D01*
X123341500Y-61284627D01*
X123341500Y-61284629D01*
X123341501Y-61284640D01*
X123344333Y-61332199D01*
X123344334Y-61332203D01*
X123389330Y-61539048D01*
X123389335Y-61539063D01*
X123472664Y-61733657D01*
X123472666Y-61733661D01*
X123472668Y-61733664D01*
X123591326Y-61908981D01*
X123741019Y-62058674D01*
X123916336Y-62177332D01*
X123916340Y-62177333D01*
X123916342Y-62177335D01*
X123969899Y-62200269D01*
X124110942Y-62260667D01*
X124317801Y-62305667D01*
X124365359Y-62308500D01*
X124534640Y-62308499D01*
X124582199Y-62305667D01*
X124732397Y-62272993D01*
X124779742Y-62262694D01*
X124849433Y-62267678D01*
X124905367Y-62309550D01*
X124929784Y-62375014D01*
X124930100Y-62383860D01*
X124930100Y-73789932D01*
X124910415Y-73856971D01*
X124857611Y-73902726D01*
X124788453Y-73912670D01*
X124724897Y-73883645D01*
X124718419Y-73877613D01*
X123273668Y-72432863D01*
X123240183Y-72371540D01*
X123239732Y-72369373D01*
X123220220Y-72271281D01*
X123217930Y-72259769D01*
X123156983Y-72112632D01*
X123152506Y-72105932D01*
X123068504Y-71980212D01*
X123068498Y-71980205D01*
X122955894Y-71867601D01*
X122955887Y-71867595D01*
X122823469Y-71779117D01*
X122739547Y-71744355D01*
X122685143Y-71700513D01*
X122663079Y-71634219D01*
X122663000Y-71629794D01*
X122663000Y-64367105D01*
X122662999Y-64367101D01*
X122638657Y-64244722D01*
X122638655Y-64244719D01*
X122638655Y-64244715D01*
X122620898Y-64201845D01*
X122590901Y-64129425D01*
X122590899Y-64129423D01*
X122590899Y-64129421D01*
X122521572Y-64025667D01*
X122521569Y-64025663D01*
X122236035Y-63740130D01*
X122202550Y-63678807D01*
X122201243Y-63633056D01*
X122208500Y-63587241D01*
X122208500Y-63412759D01*
X122181205Y-63240426D01*
X122150000Y-63144385D01*
X122127289Y-63074486D01*
X122127288Y-63074483D01*
X122079196Y-62980099D01*
X122048074Y-62919019D01*
X121983398Y-62830000D01*
X121945522Y-62777867D01*
X121945518Y-62777862D01*
X121822137Y-62654481D01*
X121822132Y-62654477D01*
X121680984Y-62551928D01*
X121680983Y-62551927D01*
X121680981Y-62551926D01*
X121630246Y-62526075D01*
X121525516Y-62472711D01*
X121525513Y-62472710D01*
X121359575Y-62418795D01*
X121273407Y-62405147D01*
X121187241Y-62391500D01*
X121012759Y-62391500D01*
X120959092Y-62400000D01*
X120840424Y-62418795D01*
X120674486Y-62472710D01*
X120674483Y-62472711D01*
X120519015Y-62551928D01*
X120377867Y-62654477D01*
X120377862Y-62654481D01*
X120254481Y-62777862D01*
X120254477Y-62777867D01*
X120150318Y-62921231D01*
X120094988Y-62963897D01*
X120025375Y-62969876D01*
X119963580Y-62937271D01*
X119949682Y-62921231D01*
X119845522Y-62777867D01*
X119845518Y-62777862D01*
X119722137Y-62654481D01*
X119722132Y-62654477D01*
X119580984Y-62551928D01*
X119580983Y-62551927D01*
X119580981Y-62551926D01*
X119530246Y-62526075D01*
X119425516Y-62472711D01*
X119425513Y-62472710D01*
X119259575Y-62418795D01*
X119173407Y-62405147D01*
X119087241Y-62391500D01*
X118912759Y-62391500D01*
X118859092Y-62400000D01*
X118740424Y-62418795D01*
X118574486Y-62472710D01*
X118574483Y-62472711D01*
X118419015Y-62551928D01*
X118277867Y-62654477D01*
X118277862Y-62654481D01*
X118154481Y-62777862D01*
X118154477Y-62777867D01*
X118051928Y-62919015D01*
X117972711Y-63074483D01*
X117972710Y-63074486D01*
X117918795Y-63240424D01*
X117902136Y-63345606D01*
X117891500Y-63412759D01*
X117891500Y-63587241D01*
X117902136Y-63654394D01*
X117918795Y-63759575D01*
X117972710Y-63925513D01*
X117972711Y-63925516D01*
X118021700Y-64021659D01*
X118051426Y-64080000D01*
X118051928Y-64080984D01*
X118154477Y-64222132D01*
X118154481Y-64222137D01*
X118277862Y-64345518D01*
X118277867Y-64345522D01*
X118419017Y-64448073D01*
X118482021Y-64480176D01*
X118496183Y-64493552D01*
X118513292Y-64502865D01*
X118521059Y-64517046D01*
X118532816Y-64528150D01*
X118537498Y-64547058D01*
X118546857Y-64564144D01*
X118547063Y-64585683D01*
X118549611Y-64595971D01*
X118549420Y-64599345D01*
X118548870Y-64607172D01*
X118536300Y-64670370D01*
X118536300Y-64786206D01*
X118535995Y-64790550D01*
X118525281Y-64819389D01*
X118516615Y-64848904D01*
X118513226Y-64851840D01*
X118511664Y-64856046D01*
X118487053Y-64874518D01*
X118463811Y-64894659D01*
X118457814Y-64896466D01*
X118455785Y-64897990D01*
X118451795Y-64898280D01*
X118431699Y-64904338D01*
X118340424Y-64918795D01*
X118174486Y-64972710D01*
X118174483Y-64972711D01*
X118019015Y-65051928D01*
X117877867Y-65154477D01*
X117877862Y-65154481D01*
X117754481Y-65277862D01*
X117754477Y-65277867D01*
X117651928Y-65419015D01*
X117572711Y-65574483D01*
X117572710Y-65574486D01*
X117518795Y-65740424D01*
X117511200Y-65788376D01*
X117491500Y-65912759D01*
X117491500Y-66087241D01*
X117494128Y-66103831D01*
X117518795Y-66259575D01*
X117572710Y-66425513D01*
X117572711Y-66425516D01*
X117585351Y-66450322D01*
X117647709Y-66572705D01*
X117651928Y-66580984D01*
X117754477Y-66722132D01*
X117754481Y-66722137D01*
X117877862Y-66845518D01*
X117877867Y-66845522D01*
X117956849Y-66902905D01*
X118019019Y-66948074D01*
X118107324Y-66993068D01*
X118174483Y-67027288D01*
X118174486Y-67027289D01*
X118256749Y-67054017D01*
X118340426Y-67081205D01*
X118512759Y-67108500D01*
X118512760Y-67108500D01*
X118687240Y-67108500D01*
X118687241Y-67108500D01*
X118859574Y-67081205D01*
X119025516Y-67027288D01*
X119180981Y-66948074D01*
X119232615Y-66910559D01*
X119298420Y-66887080D01*
X119366474Y-66902905D01*
X119415169Y-66953011D01*
X119429500Y-67010878D01*
X119429500Y-78505345D01*
X119409815Y-78572384D01*
X119357011Y-78618139D01*
X119287853Y-78628083D01*
X119224297Y-78599058D01*
X119217819Y-78593026D01*
X119101194Y-78476401D01*
X119101187Y-78476395D01*
X118968769Y-78387917D01*
X118821631Y-78326970D01*
X118821623Y-78326968D01*
X118665434Y-78295900D01*
X118665430Y-78295900D01*
X118506170Y-78295900D01*
X118506165Y-78295900D01*
X118349976Y-78326968D01*
X118349968Y-78326970D01*
X118202830Y-78387917D01*
X118070412Y-78476395D01*
X118070405Y-78476401D01*
X117957801Y-78589005D01*
X117957795Y-78589012D01*
X117869317Y-78721430D01*
X117808370Y-78868568D01*
X117808368Y-78868576D01*
X117786568Y-78978172D01*
X117754183Y-79040083D01*
X117752632Y-79041662D01*
X116415181Y-80379114D01*
X116353858Y-80412599D01*
X116284166Y-80407615D01*
X116228233Y-80365743D01*
X116203816Y-80300279D01*
X116203500Y-80291433D01*
X116203500Y-77352583D01*
X116223185Y-77285544D01*
X116258609Y-77249481D01*
X116275489Y-77238203D01*
X116388103Y-77125589D01*
X116476583Y-76993168D01*
X116537530Y-76846031D01*
X116568600Y-76689830D01*
X116568600Y-76530570D01*
X116537530Y-76374369D01*
X116476583Y-76227232D01*
X116438321Y-76169969D01*
X116388104Y-76094812D01*
X116388098Y-76094805D01*
X116275494Y-75982201D01*
X116275487Y-75982195D01*
X116143069Y-75893717D01*
X115995931Y-75832770D01*
X115995923Y-75832768D01*
X115839734Y-75801700D01*
X115839730Y-75801700D01*
X115680470Y-75801700D01*
X115680465Y-75801700D01*
X115524276Y-75832768D01*
X115524268Y-75832770D01*
X115377130Y-75893717D01*
X115244712Y-75982195D01*
X115244705Y-75982201D01*
X115145181Y-76081726D01*
X115083858Y-76115211D01*
X115014166Y-76110227D01*
X114958233Y-76068355D01*
X114933816Y-76002891D01*
X114933500Y-75994045D01*
X114933500Y-71333755D01*
X114953185Y-71266716D01*
X115005989Y-71220961D01*
X115075147Y-71211017D01*
X115138703Y-71240042D01*
X115145181Y-71246074D01*
X115244705Y-71345598D01*
X115244712Y-71345604D01*
X115377130Y-71434082D01*
X115377131Y-71434082D01*
X115377132Y-71434083D01*
X115524269Y-71495030D01*
X115680465Y-71526099D01*
X115680469Y-71526100D01*
X115680470Y-71526100D01*
X115839731Y-71526100D01*
X115839732Y-71526099D01*
X115995931Y-71495030D01*
X116143068Y-71434083D01*
X116275489Y-71345603D01*
X116388103Y-71232989D01*
X116476583Y-71100568D01*
X116537530Y-70953431D01*
X116568600Y-70797230D01*
X116568600Y-70637970D01*
X116537530Y-70481769D01*
X116476583Y-70334632D01*
X116414497Y-70241712D01*
X116393620Y-70175034D01*
X116393600Y-70172822D01*
X116393600Y-66844492D01*
X116413285Y-66777453D01*
X116448710Y-66741389D01*
X116449764Y-66740684D01*
X116449768Y-66740683D01*
X116582189Y-66652203D01*
X116694803Y-66539589D01*
X116783283Y-66407168D01*
X116844230Y-66260031D01*
X116875300Y-66103830D01*
X116875300Y-65944570D01*
X116844230Y-65788369D01*
X116783283Y-65641232D01*
X116738685Y-65574486D01*
X116694804Y-65508812D01*
X116694798Y-65508805D01*
X116582194Y-65396201D01*
X116582187Y-65396195D01*
X116449769Y-65307717D01*
X116302631Y-65246770D01*
X116302623Y-65246768D01*
X116146434Y-65215700D01*
X116146430Y-65215700D01*
X115987170Y-65215700D01*
X115984200Y-65215700D01*
X115917161Y-65196015D01*
X115871406Y-65143211D01*
X115860200Y-65091700D01*
X115860200Y-64651887D01*
X115879885Y-64584848D01*
X115932689Y-64539093D01*
X116001847Y-64529149D01*
X116022519Y-64533956D01*
X116142415Y-64572914D01*
X116313429Y-64600000D01*
X116486571Y-64600000D01*
X116657584Y-64572914D01*
X116822257Y-64519408D01*
X116976525Y-64440803D01*
X116982736Y-64436289D01*
X116446446Y-63900000D01*
X116452661Y-63900000D01*
X116554394Y-63872741D01*
X116645606Y-63820080D01*
X116720080Y-63745606D01*
X116772741Y-63654394D01*
X116800000Y-63552661D01*
X116800000Y-63546448D01*
X117336289Y-64082737D01*
X117336289Y-64082736D01*
X117340803Y-64076525D01*
X117419408Y-63922257D01*
X117472914Y-63757584D01*
X117500000Y-63586571D01*
X117500000Y-63413428D01*
X117472914Y-63242415D01*
X117419408Y-63077742D01*
X117340801Y-62923471D01*
X117336290Y-62917262D01*
X117336289Y-62917261D01*
X116800000Y-63453551D01*
X116800000Y-63447339D01*
X116772741Y-63345606D01*
X116720080Y-63254394D01*
X116645606Y-63179920D01*
X116554394Y-63127259D01*
X116452661Y-63100000D01*
X116446447Y-63100000D01*
X116982737Y-62563709D01*
X116976525Y-62559196D01*
X116822259Y-62480592D01*
X116657584Y-62427085D01*
X116486571Y-62400000D01*
X116313429Y-62400000D01*
X116142415Y-62427085D01*
X115977740Y-62480592D01*
X115823480Y-62559193D01*
X115823463Y-62559203D01*
X115817261Y-62563708D01*
X115817261Y-62563709D01*
X116353554Y-63100000D01*
X116347339Y-63100000D01*
X116245606Y-63127259D01*
X116154394Y-63179920D01*
X116079920Y-63254394D01*
X116027259Y-63345606D01*
X116000000Y-63447339D01*
X116000000Y-63453553D01*
X115463709Y-62917261D01*
X115463708Y-62917261D01*
X115456335Y-62927413D01*
X115454827Y-62926317D01*
X115408899Y-62967858D01*
X115339968Y-62979270D01*
X115275809Y-62951604D01*
X115250971Y-62922935D01*
X115250938Y-62922960D01*
X115250650Y-62922564D01*
X115249271Y-62920972D01*
X115248076Y-62919024D01*
X115248074Y-62919019D01*
X115183398Y-62830000D01*
X115145522Y-62777867D01*
X115145518Y-62777862D01*
X115022137Y-62654481D01*
X115022132Y-62654477D01*
X114880984Y-62551928D01*
X114880983Y-62551927D01*
X114880981Y-62551926D01*
X114830246Y-62526075D01*
X114725516Y-62472711D01*
X114725513Y-62472710D01*
X114559575Y-62418795D01*
X114473407Y-62405147D01*
X114387241Y-62391500D01*
X114212759Y-62391500D01*
X114159092Y-62400000D01*
X114040424Y-62418795D01*
X113874486Y-62472710D01*
X113874483Y-62472711D01*
X113719015Y-62551928D01*
X113577867Y-62654477D01*
X113577862Y-62654481D01*
X113454481Y-62777862D01*
X113454477Y-62777867D01*
X113351928Y-62919015D01*
X113272711Y-63074483D01*
X113272710Y-63074486D01*
X113218795Y-63240424D01*
X113202136Y-63345606D01*
X113191500Y-63412759D01*
X113191500Y-63587241D01*
X113202136Y-63654394D01*
X113218795Y-63759575D01*
X113272710Y-63925513D01*
X113272711Y-63925516D01*
X113321700Y-64021659D01*
X113351426Y-64080000D01*
X113351928Y-64080984D01*
X113454477Y-64222132D01*
X113454481Y-64222137D01*
X113577862Y-64345518D01*
X113577867Y-64345522D01*
X113634967Y-64387007D01*
X113719019Y-64448074D01*
X113808274Y-64493552D01*
X113874483Y-64527288D01*
X113874486Y-64527289D01*
X113957455Y-64554246D01*
X114040426Y-64581205D01*
X114212759Y-64608500D01*
X114212760Y-64608500D01*
X114387240Y-64608500D01*
X114387241Y-64608500D01*
X114433051Y-64601244D01*
X114438473Y-64601944D01*
X114443599Y-64600033D01*
X114472754Y-64606374D01*
X114502344Y-64610198D01*
X114507946Y-64614029D01*
X114511873Y-64614883D01*
X114540128Y-64636033D01*
X114556879Y-64652783D01*
X114590365Y-64714105D01*
X114593200Y-64740467D01*
X114593200Y-64778935D01*
X114573515Y-64845974D01*
X114520711Y-64891729D01*
X114451553Y-64901673D01*
X114449804Y-64901409D01*
X114445777Y-64900771D01*
X114387241Y-64891500D01*
X114212759Y-64891500D01*
X114171783Y-64897990D01*
X114040424Y-64918795D01*
X113874486Y-64972710D01*
X113874483Y-64972711D01*
X113719015Y-65051928D01*
X113577867Y-65154477D01*
X113577862Y-65154481D01*
X113454481Y-65277862D01*
X113454477Y-65277867D01*
X113351928Y-65419015D01*
X113272711Y-65574483D01*
X113272710Y-65574486D01*
X113218795Y-65740424D01*
X113211200Y-65788376D01*
X113191500Y-65912759D01*
X113191500Y-66087241D01*
X113194128Y-66103831D01*
X113218795Y-66259575D01*
X113272710Y-66425513D01*
X113272711Y-66425516D01*
X113285351Y-66450322D01*
X113347709Y-66572705D01*
X113351928Y-66580984D01*
X113454477Y-66722132D01*
X113454481Y-66722137D01*
X113454483Y-66722139D01*
X113577861Y-66845517D01*
X113615385Y-66872779D01*
X113658050Y-66928107D01*
X113666500Y-66973097D01*
X113666500Y-78972218D01*
X113646815Y-79039257D01*
X113594011Y-79085012D01*
X113524853Y-79094956D01*
X113461297Y-79065931D01*
X113445328Y-79047832D01*
X113444863Y-79048215D01*
X113440998Y-79043505D01*
X113328394Y-78930901D01*
X113328387Y-78930895D01*
X113195969Y-78842417D01*
X113048831Y-78781470D01*
X113048823Y-78781468D01*
X112892634Y-78750400D01*
X112892630Y-78750400D01*
X112733370Y-78750400D01*
X112733365Y-78750400D01*
X112577176Y-78781468D01*
X112577168Y-78781470D01*
X112430030Y-78842417D01*
X112297612Y-78930895D01*
X112297605Y-78930901D01*
X112185001Y-79043505D01*
X112184995Y-79043512D01*
X112096517Y-79175930D01*
X112035570Y-79323068D01*
X112035568Y-79323076D01*
X112004500Y-79479265D01*
X112004500Y-79638534D01*
X112035568Y-79794723D01*
X112035570Y-79794731D01*
X112096515Y-79941866D01*
X112158603Y-80034787D01*
X112179480Y-80101464D01*
X112179500Y-80103677D01*
X112179500Y-85933698D01*
X112203843Y-86056077D01*
X112203847Y-86056093D01*
X112207813Y-86065667D01*
X112215280Y-86135136D01*
X112184003Y-86197615D01*
X112166139Y-86213432D01*
X112144999Y-86228791D01*
X112144993Y-86228796D01*
X111993796Y-86379993D01*
X111868106Y-86552990D01*
X111771027Y-86743516D01*
X111771026Y-86743519D01*
X111704951Y-86946882D01*
X111671500Y-87158084D01*
X111671500Y-87371915D01*
X111704951Y-87583117D01*
X111771026Y-87786480D01*
X111771027Y-87786483D01*
X111863917Y-87968788D01*
X111868106Y-87977009D01*
X111993794Y-88150004D01*
X112144996Y-88301206D01*
X112265337Y-88388639D01*
X112317992Y-88426895D01*
X112322683Y-88429285D01*
X112373480Y-88477259D01*
X112390275Y-88545080D01*
X112367738Y-88611215D01*
X112326212Y-88647202D01*
X112326598Y-88647832D01*
X112322803Y-88650157D01*
X112322701Y-88650246D01*
X112322448Y-88650374D01*
X112322446Y-88650376D01*
X112150540Y-88775272D01*
X112150535Y-88775276D01*
X112000276Y-88925535D01*
X112000272Y-88925540D01*
X111875379Y-89097442D01*
X111778904Y-89286782D01*
X111713242Y-89488870D01*
X111713242Y-89488873D01*
X111702769Y-89555000D01*
X112596988Y-89555000D01*
X112564075Y-89612007D01*
X112530000Y-89739174D01*
X112530000Y-89870826D01*
X112564075Y-89997993D01*
X112596988Y-90055000D01*
X111702769Y-90055000D01*
X111713242Y-90121126D01*
X111713242Y-90121129D01*
X111778904Y-90323217D01*
X111875379Y-90512557D01*
X112000272Y-90684459D01*
X112000276Y-90684464D01*
X112150535Y-90834723D01*
X112150540Y-90834727D01*
X112322442Y-90959620D01*
X112511782Y-91056095D01*
X112713871Y-91121757D01*
X112780000Y-91132231D01*
X112780000Y-90238012D01*
X112837007Y-90270925D01*
X112964174Y-90305000D01*
X113095826Y-90305000D01*
X113222993Y-90270925D01*
X113280000Y-90238012D01*
X113280000Y-91132230D01*
X113346126Y-91121757D01*
X113346129Y-91121757D01*
X113548217Y-91056095D01*
X113737557Y-90959620D01*
X113909459Y-90834727D01*
X113909464Y-90834723D01*
X114059723Y-90684464D01*
X114059727Y-90684459D01*
X114184619Y-90512560D01*
X114184738Y-90512327D01*
X114184808Y-90512252D01*
X114187168Y-90508402D01*
X114187976Y-90508897D01*
X114232707Y-90461526D01*
X114300526Y-90444723D01*
X114366663Y-90467254D01*
X114405712Y-90512311D01*
X114408105Y-90517008D01*
X114450002Y-90574674D01*
X114533794Y-90690004D01*
X114684996Y-90841206D01*
X114857991Y-90966894D01*
X114936499Y-91006896D01*
X115048516Y-91063972D01*
X115048519Y-91063973D01*
X115120400Y-91087328D01*
X115251884Y-91130049D01*
X115463084Y-91163500D01*
X115463085Y-91163500D01*
X115676915Y-91163500D01*
X115676916Y-91163500D01*
X115888116Y-91130049D01*
X116091483Y-91063972D01*
X116282009Y-90966894D01*
X116455004Y-90841206D01*
X116606206Y-90690004D01*
X116731894Y-90517009D01*
X116731896Y-90517004D01*
X116734270Y-90513132D01*
X116786080Y-90466254D01*
X116855009Y-90454829D01*
X116919173Y-90482483D01*
X116945730Y-90513132D01*
X116948103Y-90517005D01*
X116948105Y-90517008D01*
X116948106Y-90517009D01*
X117073794Y-90690004D01*
X117224996Y-90841206D01*
X117397991Y-90966894D01*
X117476499Y-91006896D01*
X117588516Y-91063972D01*
X117588519Y-91063973D01*
X117660400Y-91087328D01*
X117791884Y-91130049D01*
X118003084Y-91163500D01*
X118003085Y-91163500D01*
X118216915Y-91163500D01*
X118216916Y-91163500D01*
X118428116Y-91130049D01*
X118631483Y-91063972D01*
X118822009Y-90966894D01*
X118995004Y-90841206D01*
X119146206Y-90690004D01*
X119271894Y-90517009D01*
X119271896Y-90517004D01*
X119274270Y-90513132D01*
X119326080Y-90466254D01*
X119395009Y-90454829D01*
X119459173Y-90482483D01*
X119485730Y-90513132D01*
X119488103Y-90517005D01*
X119488105Y-90517008D01*
X119488106Y-90517009D01*
X119613794Y-90690004D01*
X119764996Y-90841206D01*
X119937991Y-90966894D01*
X120016499Y-91006896D01*
X120128516Y-91063972D01*
X120128519Y-91063973D01*
X120200400Y-91087328D01*
X120331884Y-91130049D01*
X120543084Y-91163500D01*
X120543085Y-91163500D01*
X120756915Y-91163500D01*
X120756916Y-91163500D01*
X120968116Y-91130049D01*
X121171483Y-91063972D01*
X121362009Y-90966894D01*
X121535004Y-90841206D01*
X121686206Y-90690004D01*
X121811894Y-90517009D01*
X121811896Y-90517004D01*
X121814270Y-90513132D01*
X121866080Y-90466254D01*
X121935009Y-90454829D01*
X121999173Y-90482483D01*
X122025730Y-90513132D01*
X122028103Y-90517005D01*
X122028105Y-90517008D01*
X122028106Y-90517009D01*
X122153794Y-90690004D01*
X122304996Y-90841206D01*
X122477991Y-90966894D01*
X122556499Y-91006896D01*
X122668516Y-91063972D01*
X122668519Y-91063973D01*
X122740400Y-91087328D01*
X122871884Y-91130049D01*
X123083084Y-91163500D01*
X123083085Y-91163500D01*
X123296915Y-91163500D01*
X123296916Y-91163500D01*
X123508116Y-91130049D01*
X123542282Y-91118947D01*
X123612121Y-91116952D01*
X123671954Y-91153032D01*
X123702783Y-91215733D01*
X123694819Y-91285147D01*
X123683702Y-91305768D01*
X123649517Y-91356930D01*
X123588570Y-91504068D01*
X123588568Y-91504076D01*
X123557500Y-91660265D01*
X123557500Y-91819534D01*
X123588568Y-91975723D01*
X123588570Y-91975731D01*
X123649517Y-92122869D01*
X123737995Y-92255287D01*
X123738001Y-92255294D01*
X123850605Y-92367898D01*
X123850612Y-92367904D01*
X123983030Y-92456382D01*
X123983031Y-92456382D01*
X123983032Y-92456383D01*
X124130169Y-92517330D01*
X124164566Y-92524171D01*
X124239774Y-92539132D01*
X124301685Y-92571516D01*
X124303264Y-92573068D01*
X124590181Y-92859985D01*
X124623666Y-92921308D01*
X124626500Y-92947666D01*
X124626500Y-96787119D01*
X124606815Y-96854158D01*
X124554011Y-96899913D01*
X124484853Y-96909857D01*
X124421297Y-96880832D01*
X124399398Y-96856010D01*
X124312601Y-96726108D01*
X124199994Y-96613501D01*
X124199987Y-96613495D01*
X124067569Y-96525017D01*
X123920431Y-96464070D01*
X123920423Y-96464068D01*
X123764234Y-96433000D01*
X123764230Y-96433000D01*
X123604970Y-96433000D01*
X123604965Y-96433000D01*
X123448776Y-96464068D01*
X123448768Y-96464070D01*
X123301630Y-96525017D01*
X123169212Y-96613495D01*
X123169205Y-96613501D01*
X123056601Y-96726105D01*
X123056595Y-96726112D01*
X122968117Y-96858530D01*
X122907170Y-97005668D01*
X122907168Y-97005676D01*
X122876100Y-97161865D01*
X122876100Y-97321134D01*
X122907168Y-97477323D01*
X122907170Y-97477331D01*
X122968115Y-97624466D01*
X123030203Y-97717387D01*
X123051080Y-97784064D01*
X123051100Y-97786277D01*
X123051100Y-135974934D01*
X123031415Y-136041973D01*
X123014781Y-136062615D01*
X119776167Y-139301229D01*
X119732047Y-139345349D01*
X119687927Y-139389468D01*
X119618603Y-139493218D01*
X119618598Y-139493227D01*
X119570845Y-139608514D01*
X119570843Y-139608520D01*
X119549999Y-139713310D01*
X119517614Y-139775221D01*
X119484682Y-139799600D01*
X119467993Y-139808104D01*
X119294993Y-139933796D01*
X119143796Y-140084993D01*
X119018105Y-140257991D01*
X119015727Y-140261873D01*
X118963914Y-140308748D01*
X118894984Y-140320169D01*
X118830822Y-140292512D01*
X118804273Y-140261873D01*
X118801894Y-140257991D01*
X118801893Y-140257990D01*
X118676206Y-140084996D01*
X118547887Y-139956677D01*
X118514402Y-139895354D01*
X118519386Y-139825662D01*
X118547882Y-139781320D01*
X118829371Y-139499833D01*
X118898700Y-139396075D01*
X118946455Y-139280785D01*
X118970800Y-139158394D01*
X118970800Y-139033606D01*
X118970800Y-133151477D01*
X118990485Y-133084438D01*
X118991697Y-133082587D01*
X119053784Y-132989666D01*
X119062708Y-132968119D01*
X119114730Y-132842531D01*
X119145800Y-132686330D01*
X119145800Y-132527070D01*
X119114730Y-132370869D01*
X119053783Y-132223732D01*
X119017058Y-132168769D01*
X118965304Y-132091312D01*
X118965298Y-132091305D01*
X118852694Y-131978701D01*
X118852687Y-131978695D01*
X118720269Y-131890217D01*
X118573131Y-131829270D01*
X118573123Y-131829268D01*
X118416934Y-131798200D01*
X118416930Y-131798200D01*
X118257670Y-131798200D01*
X118257665Y-131798200D01*
X118101476Y-131829268D01*
X118101468Y-131829270D01*
X117954330Y-131890217D01*
X117821912Y-131978695D01*
X117821905Y-131978701D01*
X117709301Y-132091305D01*
X117709295Y-132091312D01*
X117620817Y-132223730D01*
X117559870Y-132370868D01*
X117559868Y-132370876D01*
X117528800Y-132527065D01*
X117528800Y-132686334D01*
X117559868Y-132842523D01*
X117559870Y-132842531D01*
X117620815Y-132989666D01*
X117682903Y-133082587D01*
X117703780Y-133149264D01*
X117703800Y-133151477D01*
X117703800Y-138782234D01*
X117684115Y-138849273D01*
X117667481Y-138869915D01*
X117236167Y-139301229D01*
X117192047Y-139345349D01*
X117147927Y-139389468D01*
X117078603Y-139493218D01*
X117078598Y-139493227D01*
X117030845Y-139608514D01*
X117030843Y-139608520D01*
X117009999Y-139713310D01*
X116977614Y-139775221D01*
X116944682Y-139799600D01*
X116927993Y-139808104D01*
X116754993Y-139933796D01*
X116603796Y-140084993D01*
X116478105Y-140257991D01*
X116475727Y-140261873D01*
X116423914Y-140308748D01*
X116354984Y-140320169D01*
X116290822Y-140292512D01*
X116264273Y-140261873D01*
X116261894Y-140257991D01*
X116261893Y-140257990D01*
X116136206Y-140084996D01*
X115985004Y-139933794D01*
X115812009Y-139808106D01*
X115812008Y-139808105D01*
X115812006Y-139808104D01*
X115801204Y-139802600D01*
X115750408Y-139754625D01*
X115733500Y-139692116D01*
X115733500Y-134240765D01*
X115753185Y-134173726D01*
X115769815Y-134153088D01*
X116483037Y-133439865D01*
X116544358Y-133406382D01*
X116546422Y-133405951D01*
X116656131Y-133384130D01*
X116803268Y-133323183D01*
X116935689Y-133234703D01*
X117048303Y-133122089D01*
X117136783Y-132989668D01*
X117197730Y-132842531D01*
X117228800Y-132686330D01*
X117228800Y-132527070D01*
X117197730Y-132370869D01*
X117136783Y-132223732D01*
X117100058Y-132168769D01*
X117048304Y-132091312D01*
X117048298Y-132091305D01*
X116935694Y-131978701D01*
X116935687Y-131978695D01*
X116803269Y-131890217D01*
X116656131Y-131829270D01*
X116656123Y-131829268D01*
X116499934Y-131798200D01*
X116499930Y-131798200D01*
X116340670Y-131798200D01*
X116340665Y-131798200D01*
X116184476Y-131829268D01*
X116184468Y-131829270D01*
X116037330Y-131890217D01*
X115904912Y-131978695D01*
X115904905Y-131978701D01*
X115792301Y-132091305D01*
X115792295Y-132091312D01*
X115703817Y-132223730D01*
X115642870Y-132370868D01*
X115642868Y-132370876D01*
X115621068Y-132480472D01*
X115588683Y-132542383D01*
X115587132Y-132543962D01*
X114896398Y-133234698D01*
X114696167Y-133434929D01*
X114652047Y-133479049D01*
X114607927Y-133523168D01*
X114538603Y-133626918D01*
X114538598Y-133626927D01*
X114490845Y-133742214D01*
X114490843Y-133742222D01*
X114466500Y-133864601D01*
X114466500Y-139692116D01*
X114446815Y-139759155D01*
X114398796Y-139802600D01*
X114387993Y-139808104D01*
X114214997Y-139933793D01*
X114103211Y-140045579D01*
X114041888Y-140079063D01*
X113972196Y-140074079D01*
X113916263Y-140032207D01*
X113899348Y-140001230D01*
X113853354Y-139877913D01*
X113853350Y-139877906D01*
X113767190Y-139762812D01*
X113767187Y-139762809D01*
X113652093Y-139676649D01*
X113652086Y-139676645D01*
X113517379Y-139626403D01*
X113517372Y-139626401D01*
X113457844Y-139620000D01*
X112810000Y-139620000D01*
X112810000Y-140536988D01*
X112752993Y-140504075D01*
X112625826Y-140470000D01*
X112494174Y-140470000D01*
X112367007Y-140504075D01*
X112310000Y-140536988D01*
X112310000Y-139620000D01*
X111662155Y-139620000D01*
X111602627Y-139626401D01*
X111602620Y-139626403D01*
X111467913Y-139676645D01*
X111467906Y-139676649D01*
X111352812Y-139762809D01*
X111352809Y-139762812D01*
X111266649Y-139877906D01*
X111266645Y-139877913D01*
X111240182Y-139948866D01*
X111198311Y-140004800D01*
X111132846Y-140029217D01*
X111064574Y-140014365D01*
X111015168Y-139964960D01*
X111000000Y-139905533D01*
X111000000Y-134000000D01*
X104593500Y-134000000D01*
X104526461Y-133980315D01*
X104480706Y-133927511D01*
X104469500Y-133876000D01*
X104469500Y-89274455D01*
X104489185Y-89207416D01*
X104541989Y-89161661D01*
X104611147Y-89151717D01*
X104640952Y-89159894D01*
X104683769Y-89177630D01*
X104833515Y-89207416D01*
X104839965Y-89208699D01*
X104839969Y-89208700D01*
X104839970Y-89208700D01*
X104999231Y-89208700D01*
X104999232Y-89208699D01*
X105155431Y-89177630D01*
X105302568Y-89116683D01*
X105434989Y-89028203D01*
X105547603Y-88915589D01*
X105636083Y-88783168D01*
X105697030Y-88636031D01*
X105728100Y-88479830D01*
X105728100Y-88320570D01*
X105697030Y-88164369D01*
X105636083Y-88017232D01*
X105573997Y-87924312D01*
X105553120Y-87857634D01*
X105553100Y-87855422D01*
X105553100Y-80970605D01*
X105553099Y-80970601D01*
X105533802Y-80873589D01*
X105528755Y-80848215D01*
X105511393Y-80806300D01*
X105503847Y-80788083D01*
X105496197Y-80769612D01*
X105481001Y-80732925D01*
X105433699Y-80662132D01*
X105411672Y-80629166D01*
X105411669Y-80629163D01*
X102152368Y-77369863D01*
X102118883Y-77308540D01*
X102118432Y-77306373D01*
X102096631Y-77196776D01*
X102096630Y-77196769D01*
X102035683Y-77049632D01*
X102021224Y-77027993D01*
X101947204Y-76917212D01*
X101947198Y-76917205D01*
X101834594Y-76804601D01*
X101834587Y-76804595D01*
X101702169Y-76716117D01*
X101555031Y-76655170D01*
X101555023Y-76655168D01*
X101398834Y-76624100D01*
X101398830Y-76624100D01*
X101239570Y-76624100D01*
X101239565Y-76624100D01*
X101083376Y-76655168D01*
X101083368Y-76655170D01*
X100936230Y-76716117D01*
X100803812Y-76804595D01*
X100803805Y-76804601D01*
X100691201Y-76917205D01*
X100691195Y-76917212D01*
X100602717Y-77049630D01*
X100541770Y-77196768D01*
X100541768Y-77196776D01*
X100510700Y-77352965D01*
X100510700Y-77512234D01*
X100541768Y-77668423D01*
X100541770Y-77668431D01*
X100602717Y-77815569D01*
X100691195Y-77947987D01*
X100691201Y-77947994D01*
X100803805Y-78060598D01*
X100803812Y-78060604D01*
X100936230Y-78149082D01*
X100936231Y-78149082D01*
X100936232Y-78149083D01*
X101083369Y-78210030D01*
X101117766Y-78216871D01*
X101192974Y-78231832D01*
X101254885Y-78264216D01*
X101256464Y-78265768D01*
X104249781Y-81259085D01*
X104283266Y-81320408D01*
X104286100Y-81346766D01*
X104286100Y-85922500D01*
X104266415Y-85989539D01*
X104213611Y-86035294D01*
X104162100Y-86046500D01*
X81303018Y-86046500D01*
X81272982Y-86046500D01*
X81249823Y-86056093D01*
X81245231Y-86057995D01*
X81223995Y-86079231D01*
X81223994Y-86079232D01*
X81223994Y-86079233D01*
X81212500Y-86106982D01*
X81212500Y-139692982D01*
X81212500Y-139723018D01*
X81223994Y-139750767D01*
X81245233Y-139772006D01*
X81272982Y-139783500D01*
X81272984Y-139783500D01*
X104376000Y-139783500D01*
X104443039Y-139803185D01*
X104488794Y-139855989D01*
X104500000Y-139907500D01*
X104500000Y-140500000D01*
X111001398Y-140500000D01*
X111059642Y-140468196D01*
X111129334Y-140473180D01*
X111185267Y-140515052D01*
X111209684Y-140580516D01*
X111210000Y-140589362D01*
X111210000Y-140720000D01*
X112126988Y-140720000D01*
X112094075Y-140777007D01*
X112060000Y-140904174D01*
X112060000Y-141035826D01*
X112094075Y-141162993D01*
X112126988Y-141220000D01*
X111210000Y-141220000D01*
X111210000Y-141867844D01*
X111216401Y-141927372D01*
X111216403Y-141927379D01*
X111266645Y-142062086D01*
X111266649Y-142062093D01*
X111352809Y-142177187D01*
X111352812Y-142177190D01*
X111467906Y-142263350D01*
X111467913Y-142263354D01*
X111602620Y-142313596D01*
X111602627Y-142313598D01*
X111662155Y-142319999D01*
X111662172Y-142320000D01*
X112310000Y-142320000D01*
X112310000Y-141403012D01*
X112367007Y-141435925D01*
X112494174Y-141470000D01*
X112625826Y-141470000D01*
X112752993Y-141435925D01*
X112810000Y-141403012D01*
X112810000Y-142320000D01*
X113457828Y-142320000D01*
X113457844Y-142319999D01*
X113517372Y-142313598D01*
X113517379Y-142313596D01*
X113652086Y-142263354D01*
X113652093Y-142263350D01*
X113767187Y-142177190D01*
X113767190Y-142177187D01*
X113853350Y-142062093D01*
X113853355Y-142062084D01*
X113899348Y-141938770D01*
X113941219Y-141882836D01*
X114006683Y-141858418D01*
X114074956Y-141873269D01*
X114103211Y-141894421D01*
X114214996Y-142006206D01*
X114387991Y-142131894D01*
X114476883Y-142177187D01*
X114578516Y-142228972D01*
X114578519Y-142228973D01*
X114680200Y-142262010D01*
X114781884Y-142295049D01*
X114993084Y-142328500D01*
X114993085Y-142328500D01*
X115206915Y-142328500D01*
X115206916Y-142328500D01*
X115418116Y-142295049D01*
X115621483Y-142228972D01*
X115812009Y-142131894D01*
X115985004Y-142006206D01*
X116136206Y-141855004D01*
X116261894Y-141682009D01*
X116261896Y-141682004D01*
X116264270Y-141678132D01*
X116316080Y-141631254D01*
X116385009Y-141619829D01*
X116449173Y-141647483D01*
X116475730Y-141678132D01*
X116478103Y-141682005D01*
X116478105Y-141682008D01*
X116478106Y-141682009D01*
X116603794Y-141855004D01*
X116754996Y-142006206D01*
X116927991Y-142131894D01*
X117016883Y-142177187D01*
X117118516Y-142228972D01*
X117118519Y-142228973D01*
X117220200Y-142262010D01*
X117321884Y-142295049D01*
X117533084Y-142328500D01*
X117533085Y-142328500D01*
X117746915Y-142328500D01*
X117746916Y-142328500D01*
X117958116Y-142295049D01*
X118161483Y-142228972D01*
X118352009Y-142131894D01*
X118525004Y-142006206D01*
X118676206Y-141855004D01*
X118801894Y-141682009D01*
X118801896Y-141682004D01*
X118804270Y-141678132D01*
X118856080Y-141631254D01*
X118925009Y-141619829D01*
X118989173Y-141647483D01*
X119015730Y-141678132D01*
X119018103Y-141682005D01*
X119018105Y-141682008D01*
X119018106Y-141682009D01*
X119143794Y-141855004D01*
X119294996Y-142006206D01*
X119467991Y-142131894D01*
X119556883Y-142177187D01*
X119658516Y-142228972D01*
X119658519Y-142228973D01*
X119760200Y-142262010D01*
X119861884Y-142295049D01*
X120073084Y-142328500D01*
X120073085Y-142328500D01*
X120286915Y-142328500D01*
X120286916Y-142328500D01*
X120498116Y-142295049D01*
X120701483Y-142228972D01*
X120892009Y-142131894D01*
X121065004Y-142006206D01*
X121216206Y-141855004D01*
X121341894Y-141682009D01*
X121341896Y-141682004D01*
X121344270Y-141678132D01*
X121396080Y-141631254D01*
X121465009Y-141619829D01*
X121529173Y-141647483D01*
X121555730Y-141678132D01*
X121558103Y-141682005D01*
X121558105Y-141682008D01*
X121558106Y-141682009D01*
X121683794Y-141855004D01*
X121834996Y-142006206D01*
X122007991Y-142131894D01*
X122096883Y-142177187D01*
X122198516Y-142228972D01*
X122198519Y-142228973D01*
X122300200Y-142262010D01*
X122401884Y-142295049D01*
X122613084Y-142328500D01*
X122613085Y-142328500D01*
X122826915Y-142328500D01*
X122826916Y-142328500D01*
X123038116Y-142295049D01*
X123241483Y-142228972D01*
X123432009Y-142131894D01*
X123605004Y-142006206D01*
X123756206Y-141855004D01*
X123881894Y-141682009D01*
X123881896Y-141682004D01*
X123884270Y-141678132D01*
X123936080Y-141631254D01*
X124005009Y-141619829D01*
X124069173Y-141647483D01*
X124095730Y-141678132D01*
X124098103Y-141682005D01*
X124098105Y-141682008D01*
X124098106Y-141682009D01*
X124223794Y-141855004D01*
X124374996Y-142006206D01*
X124547991Y-142131894D01*
X124636883Y-142177187D01*
X124738516Y-142228972D01*
X124738519Y-142228973D01*
X124840200Y-142262010D01*
X124941884Y-142295049D01*
X125153084Y-142328500D01*
X125153085Y-142328500D01*
X125366915Y-142328500D01*
X125366916Y-142328500D01*
X125578116Y-142295049D01*
X125781483Y-142228972D01*
X125972009Y-142131894D01*
X126145004Y-142006206D01*
X126296206Y-141855004D01*
X126421894Y-141682009D01*
X126421896Y-141682004D01*
X126424270Y-141678132D01*
X126476080Y-141631254D01*
X126545009Y-141619829D01*
X126609173Y-141647483D01*
X126635730Y-141678132D01*
X126638103Y-141682005D01*
X126638105Y-141682008D01*
X126638106Y-141682009D01*
X126763794Y-141855004D01*
X126914996Y-142006206D01*
X127087991Y-142131894D01*
X127176883Y-142177187D01*
X127278516Y-142228972D01*
X127278519Y-142228973D01*
X127380200Y-142262010D01*
X127481884Y-142295049D01*
X127693084Y-142328500D01*
X127693085Y-142328500D01*
X127906915Y-142328500D01*
X127906916Y-142328500D01*
X128118116Y-142295049D01*
X128321483Y-142228972D01*
X128512009Y-142131894D01*
X128685004Y-142006206D01*
X128836206Y-141855004D01*
X128961894Y-141682009D01*
X128961896Y-141682004D01*
X128964270Y-141678132D01*
X129016080Y-141631254D01*
X129085009Y-141619829D01*
X129149173Y-141647483D01*
X129175730Y-141678132D01*
X129178103Y-141682005D01*
X129178105Y-141682008D01*
X129178106Y-141682009D01*
X129303794Y-141855004D01*
X129454996Y-142006206D01*
X129627991Y-142131894D01*
X129716883Y-142177187D01*
X129818516Y-142228972D01*
X129818519Y-142228973D01*
X129920200Y-142262010D01*
X130021884Y-142295049D01*
X130233084Y-142328500D01*
X130233085Y-142328500D01*
X130446915Y-142328500D01*
X130446916Y-142328500D01*
X130658116Y-142295049D01*
X130861483Y-142228972D01*
X131052009Y-142131894D01*
X131225004Y-142006206D01*
X131376206Y-141855004D01*
X131501894Y-141682009D01*
X131501896Y-141682004D01*
X131504270Y-141678132D01*
X131556080Y-141631254D01*
X131625009Y-141619829D01*
X131689173Y-141647483D01*
X131715730Y-141678132D01*
X131718103Y-141682005D01*
X131718105Y-141682008D01*
X131718106Y-141682009D01*
X131843794Y-141855004D01*
X131994996Y-142006206D01*
X132167991Y-142131894D01*
X132256883Y-142177187D01*
X132358516Y-142228972D01*
X132358519Y-142228973D01*
X132460200Y-142262010D01*
X132561884Y-142295049D01*
X132773084Y-142328500D01*
X132773085Y-142328500D01*
X132986915Y-142328500D01*
X132986916Y-142328500D01*
X133198116Y-142295049D01*
X133401483Y-142228972D01*
X133592009Y-142131894D01*
X133765004Y-142006206D01*
X133916206Y-141855004D01*
X134041894Y-141682009D01*
X134041896Y-141682004D01*
X134044270Y-141678132D01*
X134096080Y-141631254D01*
X134165009Y-141619829D01*
X134229173Y-141647483D01*
X134255730Y-141678132D01*
X134258103Y-141682005D01*
X134258105Y-141682008D01*
X134258106Y-141682009D01*
X134383794Y-141855004D01*
X134534996Y-142006206D01*
X134707991Y-142131894D01*
X134796883Y-142177187D01*
X134898516Y-142228972D01*
X134898519Y-142228973D01*
X135000200Y-142262010D01*
X135101884Y-142295049D01*
X135313084Y-142328500D01*
X135313085Y-142328500D01*
X135526915Y-142328500D01*
X135526916Y-142328500D01*
X135738116Y-142295049D01*
X135941483Y-142228972D01*
X136132009Y-142131894D01*
X136305004Y-142006206D01*
X136456206Y-141855004D01*
X136581894Y-141682009D01*
X136584283Y-141677319D01*
X136632254Y-141626522D01*
X136700074Y-141609724D01*
X136766210Y-141632258D01*
X136802201Y-141673788D01*
X136802832Y-141673402D01*
X136805164Y-141677207D01*
X136805251Y-141677308D01*
X136805376Y-141677554D01*
X136930272Y-141849459D01*
X136930276Y-141849464D01*
X137080535Y-141999723D01*
X137080540Y-141999727D01*
X137252442Y-142124620D01*
X137441782Y-142221095D01*
X137643871Y-142286757D01*
X137710000Y-142297231D01*
X137710000Y-141403012D01*
X137767007Y-141435925D01*
X137894174Y-141470000D01*
X138025826Y-141470000D01*
X138152993Y-141435925D01*
X138210000Y-141403012D01*
X138210000Y-142297230D01*
X138276126Y-142286757D01*
X138276129Y-142286757D01*
X138478217Y-142221095D01*
X138667557Y-142124620D01*
X138839459Y-141999727D01*
X138839464Y-141999723D01*
X138989723Y-141849464D01*
X138989727Y-141849459D01*
X139114619Y-141677560D01*
X139114738Y-141677327D01*
X139114808Y-141677252D01*
X139117168Y-141673402D01*
X139117976Y-141673897D01*
X139162707Y-141626526D01*
X139230526Y-141609723D01*
X139296663Y-141632254D01*
X139335712Y-141677311D01*
X139338105Y-141682008D01*
X139380002Y-141739674D01*
X139463794Y-141855004D01*
X139614996Y-142006206D01*
X139787991Y-142131894D01*
X139876883Y-142177187D01*
X139978516Y-142228972D01*
X139978519Y-142228973D01*
X140080200Y-142262010D01*
X140181884Y-142295049D01*
X140393084Y-142328500D01*
X140393085Y-142328500D01*
X140606915Y-142328500D01*
X140606916Y-142328500D01*
X140818116Y-142295049D01*
X141021483Y-142228972D01*
X141212009Y-142131894D01*
X141385004Y-142006206D01*
X141536206Y-141855004D01*
X141661894Y-141682009D01*
X141758972Y-141491483D01*
X141825049Y-141288116D01*
X141858500Y-141076916D01*
X141858500Y-141000000D01*
X163000000Y-141000000D01*
X169500000Y-141000000D01*
X169500000Y-134500000D01*
X163000000Y-134500000D01*
X163000000Y-141000000D01*
X141858500Y-141000000D01*
X141858500Y-140863084D01*
X141825049Y-140651884D01*
X141770000Y-140482458D01*
X141758973Y-140448519D01*
X141758972Y-140448516D01*
X141709507Y-140351438D01*
X141661894Y-140257991D01*
X141536206Y-140084996D01*
X141385004Y-139933794D01*
X141212009Y-139808106D01*
X141181471Y-139792546D01*
X141021483Y-139711027D01*
X141021480Y-139711026D01*
X140818117Y-139644951D01*
X140700997Y-139626401D01*
X140606916Y-139611500D01*
X140393084Y-139611500D01*
X140322684Y-139622650D01*
X140181882Y-139644951D01*
X139978519Y-139711026D01*
X139978516Y-139711027D01*
X139787990Y-139808106D01*
X139614993Y-139933796D01*
X139463796Y-140084993D01*
X139338103Y-140257994D01*
X139335709Y-140262693D01*
X139287731Y-140313485D01*
X139219908Y-140330275D01*
X139153775Y-140307732D01*
X139117800Y-140266210D01*
X139117168Y-140266598D01*
X139114829Y-140262781D01*
X139114743Y-140262682D01*
X139114620Y-140262441D01*
X138989727Y-140090540D01*
X138989723Y-140090535D01*
X138839464Y-139940276D01*
X138839459Y-139940272D01*
X138667557Y-139815379D01*
X138478215Y-139718903D01*
X138276124Y-139653241D01*
X138210000Y-139642768D01*
X138210000Y-140536988D01*
X138152993Y-140504075D01*
X138025826Y-140470000D01*
X137894174Y-140470000D01*
X137767007Y-140504075D01*
X137710000Y-140536988D01*
X137710000Y-139642768D01*
X137709999Y-139642768D01*
X137643875Y-139653241D01*
X137441784Y-139718903D01*
X137297253Y-139792546D01*
X137228584Y-139805442D01*
X137163843Y-139779166D01*
X137123586Y-139722059D01*
X137120594Y-139652254D01*
X137126393Y-139634617D01*
X137167230Y-139536031D01*
X137198300Y-139379830D01*
X137198300Y-139220570D01*
X137167230Y-139064369D01*
X137106283Y-138917232D01*
X137044197Y-138824312D01*
X137023320Y-138757634D01*
X137023300Y-138755422D01*
X137023300Y-133151477D01*
X137042985Y-133084438D01*
X137044197Y-133082587D01*
X137106284Y-132989666D01*
X137115208Y-132968119D01*
X137167230Y-132842531D01*
X137197405Y-132690831D01*
X137229789Y-132628920D01*
X137290505Y-132594346D01*
X137294831Y-132593405D01*
X137345391Y-132583347D01*
X137446531Y-132563230D01*
X137593668Y-132502283D01*
X137726089Y-132413803D01*
X137838703Y-132301189D01*
X137927183Y-132168768D01*
X137988130Y-132021631D01*
X138019200Y-131865430D01*
X138019200Y-131706170D01*
X137988130Y-131549969D01*
X137927183Y-131402832D01*
X137865097Y-131309912D01*
X137844220Y-131243234D01*
X137844200Y-131241022D01*
X137844200Y-95054766D01*
X137863885Y-94987727D01*
X137880519Y-94967085D01*
X140715619Y-92131985D01*
X140776942Y-92098500D01*
X140846634Y-92103484D01*
X140890981Y-92131985D01*
X141163632Y-92404636D01*
X141197117Y-92465959D01*
X141197568Y-92468126D01*
X141219368Y-92577723D01*
X141219370Y-92577731D01*
X141280317Y-92724869D01*
X141368795Y-92857287D01*
X141368801Y-92857294D01*
X141481405Y-92969898D01*
X141481412Y-92969904D01*
X141613830Y-93058382D01*
X141613831Y-93058382D01*
X141613832Y-93058383D01*
X141760969Y-93119330D01*
X141917165Y-93150399D01*
X141917169Y-93150400D01*
X142026600Y-93150400D01*
X142093639Y-93170085D01*
X142139394Y-93222889D01*
X142150600Y-93274400D01*
X142150600Y-95728922D01*
X142130915Y-95795961D01*
X142129703Y-95797812D01*
X142067616Y-95890733D01*
X142006670Y-96037868D01*
X142006668Y-96037876D01*
X141975600Y-96194065D01*
X141975600Y-96353334D01*
X142006668Y-96509523D01*
X142006670Y-96509531D01*
X142067616Y-96656667D01*
X142140819Y-96766223D01*
X142161697Y-96832901D01*
X142143212Y-96900281D01*
X142125398Y-96922795D01*
X138933067Y-100115129D01*
X138888947Y-100159249D01*
X138844827Y-100203368D01*
X138775503Y-100307118D01*
X138775498Y-100307127D01*
X138727745Y-100422414D01*
X138727743Y-100422422D01*
X138703400Y-100544801D01*
X138703400Y-137956122D01*
X138683715Y-138023161D01*
X138682503Y-138025012D01*
X138620416Y-138117933D01*
X138559470Y-138265068D01*
X138559468Y-138265076D01*
X138528400Y-138421265D01*
X138528400Y-138580534D01*
X138559468Y-138736723D01*
X138559470Y-138736731D01*
X138620417Y-138883869D01*
X138708895Y-139016287D01*
X138708901Y-139016294D01*
X138821505Y-139128898D01*
X138821512Y-139128904D01*
X138953930Y-139217382D01*
X138953931Y-139217382D01*
X138953932Y-139217383D01*
X139101069Y-139278330D01*
X139257265Y-139309399D01*
X139257269Y-139309400D01*
X139257270Y-139309400D01*
X139416531Y-139309400D01*
X139416532Y-139309399D01*
X139572731Y-139278330D01*
X139719868Y-139217383D01*
X139852289Y-139128903D01*
X139964903Y-139016289D01*
X140053383Y-138883868D01*
X140114330Y-138736731D01*
X140145400Y-138580530D01*
X140145400Y-138421270D01*
X140114330Y-138265069D01*
X140053383Y-138117932D01*
X139991297Y-138025012D01*
X139970420Y-137958334D01*
X139970400Y-137956122D01*
X139970400Y-100920966D01*
X139990085Y-100853927D01*
X140006719Y-100833285D01*
X149082069Y-91757936D01*
X149082072Y-91757933D01*
X149151399Y-91654178D01*
X149151399Y-91654177D01*
X149151401Y-91654175D01*
X149199155Y-91538884D01*
X149202352Y-91522815D01*
X149205327Y-91507862D01*
X149223499Y-91416498D01*
X149223500Y-91416495D01*
X149223500Y-91082883D01*
X149243185Y-91015844D01*
X149291204Y-90972398D01*
X149302009Y-90966894D01*
X149475004Y-90841206D01*
X149626206Y-90690004D01*
X149751894Y-90517009D01*
X149754283Y-90512319D01*
X149802254Y-90461522D01*
X149870074Y-90444724D01*
X149936210Y-90467258D01*
X149972201Y-90508788D01*
X149972832Y-90508402D01*
X149975164Y-90512207D01*
X149975251Y-90512308D01*
X149975376Y-90512554D01*
X150100272Y-90684459D01*
X150100276Y-90684464D01*
X150250535Y-90834723D01*
X150250540Y-90834727D01*
X150422442Y-90959620D01*
X150611782Y-91056095D01*
X150813871Y-91121757D01*
X150880000Y-91132231D01*
X150880000Y-90238012D01*
X150937007Y-90270925D01*
X151064174Y-90305000D01*
X151195826Y-90305000D01*
X151322993Y-90270925D01*
X151380000Y-90238012D01*
X151380000Y-91132230D01*
X151446126Y-91121757D01*
X151446129Y-91121757D01*
X151648217Y-91056095D01*
X151837557Y-90959620D01*
X152009459Y-90834727D01*
X152009464Y-90834723D01*
X152159723Y-90684464D01*
X152159727Y-90684459D01*
X152284619Y-90512560D01*
X152284738Y-90512327D01*
X152284808Y-90512252D01*
X152287168Y-90508402D01*
X152287976Y-90508897D01*
X152332707Y-90461526D01*
X152400526Y-90444723D01*
X152466663Y-90467254D01*
X152505712Y-90512311D01*
X152508105Y-90517008D01*
X152550002Y-90574674D01*
X152633794Y-90690004D01*
X152633796Y-90690006D01*
X152762111Y-90818321D01*
X152795596Y-90879644D01*
X152790612Y-90949336D01*
X152762111Y-90993683D01*
X151738510Y-92017285D01*
X148779567Y-94976229D01*
X148752392Y-95003404D01*
X148691327Y-95064468D01*
X148622003Y-95168218D01*
X148621998Y-95168227D01*
X148574245Y-95283514D01*
X148574243Y-95283522D01*
X148549900Y-95405901D01*
X148549900Y-128146222D01*
X148530215Y-128213261D01*
X148529003Y-128215112D01*
X148466916Y-128308033D01*
X148405970Y-128455168D01*
X148405968Y-128455176D01*
X148374900Y-128611365D01*
X148374900Y-128770634D01*
X148405968Y-128926823D01*
X148405970Y-128926831D01*
X148466917Y-129073969D01*
X148555395Y-129206387D01*
X148555401Y-129206394D01*
X148668005Y-129318998D01*
X148668012Y-129319004D01*
X148800430Y-129407482D01*
X148800431Y-129407482D01*
X148800432Y-129407483D01*
X148947569Y-129468430D01*
X149103765Y-129499499D01*
X149103769Y-129499500D01*
X149103770Y-129499500D01*
X149263031Y-129499500D01*
X149263032Y-129499499D01*
X149419231Y-129468430D01*
X149566368Y-129407483D01*
X149698789Y-129319003D01*
X149811403Y-129206389D01*
X149899883Y-129073968D01*
X149960830Y-128926831D01*
X149991900Y-128770630D01*
X149991900Y-128611370D01*
X149960830Y-128455169D01*
X149899883Y-128308032D01*
X149837797Y-128215112D01*
X149816920Y-128148434D01*
X149816900Y-128146222D01*
X149816900Y-95782066D01*
X149836585Y-95715027D01*
X149853219Y-95694385D01*
X154162069Y-91385536D01*
X154162072Y-91385533D01*
X154163319Y-91383666D01*
X154231401Y-91281775D01*
X154274178Y-91178500D01*
X154279155Y-91166485D01*
X154300417Y-91059592D01*
X154300898Y-91057544D01*
X154317132Y-91028935D01*
X154332384Y-90999778D01*
X154334615Y-90998126D01*
X154335381Y-90996777D01*
X154339016Y-90994868D01*
X154365321Y-90975396D01*
X154382009Y-90966894D01*
X154555004Y-90841206D01*
X154706206Y-90690004D01*
X154831894Y-90517009D01*
X154831896Y-90517004D01*
X154834270Y-90513132D01*
X154886080Y-90466254D01*
X154955009Y-90454829D01*
X155019173Y-90482483D01*
X155045730Y-90513132D01*
X155048103Y-90517005D01*
X155048105Y-90517008D01*
X155048106Y-90517009D01*
X155173794Y-90690004D01*
X155324996Y-90841206D01*
X155497991Y-90966894D01*
X155514676Y-90975395D01*
X155565472Y-91023368D01*
X155579999Y-91061689D01*
X155600843Y-91166477D01*
X155600845Y-91166485D01*
X155648598Y-91281772D01*
X155648603Y-91281781D01*
X155717928Y-91385532D01*
X155717931Y-91385536D01*
X156349681Y-92017285D01*
X156383166Y-92078608D01*
X156386000Y-92104966D01*
X156386000Y-93749622D01*
X156366315Y-93816661D01*
X156365103Y-93818512D01*
X156303016Y-93911433D01*
X156242070Y-94058568D01*
X156242068Y-94058576D01*
X156211000Y-94214765D01*
X156211000Y-94374034D01*
X156242068Y-94530223D01*
X156242070Y-94530231D01*
X156303017Y-94677369D01*
X156391495Y-94809787D01*
X156391501Y-94809794D01*
X156504105Y-94922398D01*
X156504112Y-94922404D01*
X156636530Y-95010882D01*
X156636531Y-95010882D01*
X156636532Y-95010883D01*
X156783669Y-95071830D01*
X156939865Y-95102899D01*
X156939869Y-95102900D01*
X156939870Y-95102900D01*
X157099131Y-95102900D01*
X157099132Y-95102899D01*
X157255331Y-95071830D01*
X157402468Y-95010883D01*
X157534889Y-94922403D01*
X157647503Y-94809789D01*
X157735983Y-94677368D01*
X157796930Y-94530231D01*
X157828000Y-94374030D01*
X157828000Y-94214770D01*
X157796930Y-94058569D01*
X157735983Y-93911432D01*
X157673897Y-93818512D01*
X157653020Y-93751834D01*
X157653000Y-93749622D01*
X157653000Y-91728805D01*
X157652999Y-91728801D01*
X157639366Y-91660265D01*
X157628655Y-91606415D01*
X157580900Y-91491125D01*
X157580899Y-91491124D01*
X157580896Y-91491118D01*
X157511572Y-91387368D01*
X157481134Y-91356930D01*
X157423333Y-91299129D01*
X157117887Y-90993683D01*
X157084403Y-90932361D01*
X157089387Y-90862669D01*
X157117888Y-90818322D01*
X157172009Y-90764201D01*
X157246206Y-90690004D01*
X157371894Y-90517009D01*
X157371896Y-90517004D01*
X157374270Y-90513132D01*
X157426080Y-90466254D01*
X157495009Y-90454829D01*
X157559173Y-90482483D01*
X157585730Y-90513132D01*
X157588103Y-90517005D01*
X157588105Y-90517008D01*
X157588106Y-90517009D01*
X157713794Y-90690004D01*
X157864996Y-90841206D01*
X158037991Y-90966894D01*
X158048794Y-90972398D01*
X158099590Y-91020371D01*
X158116500Y-91082883D01*
X158116500Y-121721133D01*
X158096815Y-121788172D01*
X158080181Y-121808814D01*
X156956762Y-122932232D01*
X156895439Y-122965717D01*
X156893272Y-122966168D01*
X156783676Y-122987968D01*
X156783668Y-122987970D01*
X156636530Y-123048917D01*
X156504112Y-123137395D01*
X156504105Y-123137401D01*
X156391501Y-123250005D01*
X156391495Y-123250012D01*
X156303017Y-123382430D01*
X156242070Y-123529568D01*
X156242068Y-123529576D01*
X156211000Y-123685765D01*
X156211000Y-123845034D01*
X156242068Y-124001223D01*
X156242070Y-124001231D01*
X156303017Y-124148369D01*
X156391495Y-124280787D01*
X156391501Y-124280794D01*
X156504105Y-124393398D01*
X156504112Y-124393404D01*
X156636530Y-124481882D01*
X156636531Y-124481882D01*
X156636532Y-124481883D01*
X156783669Y-124542830D01*
X156939865Y-124573899D01*
X156939869Y-124573900D01*
X156939870Y-124573900D01*
X157099131Y-124573900D01*
X157099132Y-124573899D01*
X157255331Y-124542830D01*
X157402468Y-124481883D01*
X157534889Y-124393403D01*
X157647503Y-124280789D01*
X157735983Y-124148368D01*
X157796930Y-124001231D01*
X157818731Y-123891622D01*
X157851115Y-123829715D01*
X157852609Y-123828193D01*
X159242072Y-122438733D01*
X159311401Y-122334975D01*
X159359155Y-122219684D01*
X159383500Y-122097293D01*
X159383500Y-121972506D01*
X159383500Y-91082883D01*
X159403185Y-91015844D01*
X159451204Y-90972398D01*
X159462009Y-90966894D01*
X159635004Y-90841206D01*
X159740184Y-90736025D01*
X159801503Y-90702543D01*
X159871195Y-90707527D01*
X159927129Y-90749398D01*
X159944043Y-90780375D01*
X159989110Y-90901203D01*
X160011140Y-90930632D01*
X160076739Y-91018261D01*
X160193796Y-91105889D01*
X160330799Y-91156989D01*
X160358050Y-91159918D01*
X160391345Y-91163499D01*
X160391362Y-91163500D01*
X162188638Y-91163500D01*
X162188654Y-91163499D01*
X162215692Y-91160591D01*
X162249201Y-91156989D01*
X162386204Y-91105889D01*
X162503261Y-91018261D01*
X162590889Y-90901204D01*
X162641989Y-90764201D01*
X162646771Y-90719719D01*
X162648499Y-90703654D01*
X162648500Y-90703637D01*
X162648500Y-88906362D01*
X162648499Y-88906345D01*
X162644261Y-88866933D01*
X162641989Y-88845799D01*
X162637824Y-88834633D01*
X162615685Y-88775276D01*
X162590889Y-88708796D01*
X162503261Y-88591739D01*
X162386204Y-88504111D01*
X162386202Y-88504110D01*
X162386204Y-88504110D01*
X162265375Y-88459043D01*
X162209441Y-88417172D01*
X162185025Y-88351707D01*
X162199877Y-88283434D01*
X162221022Y-88255187D01*
X162326206Y-88150004D01*
X162451894Y-87977009D01*
X162548972Y-87786483D01*
X162615049Y-87583116D01*
X162648500Y-87371916D01*
X162648500Y-87158084D01*
X162615049Y-86946884D01*
X162548972Y-86743517D01*
X162548972Y-86743516D01*
X162515354Y-86677539D01*
X162451894Y-86552991D01*
X162422182Y-86512095D01*
X162398702Y-86446289D01*
X162398500Y-86439210D01*
X162398500Y-57702759D01*
X162374610Y-57551926D01*
X162371205Y-57530426D01*
X162341197Y-57438070D01*
X162317288Y-57364483D01*
X162317287Y-57364482D01*
X162317287Y-57364480D01*
X162317286Y-57364477D01*
X162238073Y-57209017D01*
X162135522Y-57067867D01*
X162135518Y-57067862D01*
X159964837Y-54897181D01*
X159931352Y-54835858D01*
X159936336Y-54766166D01*
X159978208Y-54710233D01*
X160043672Y-54685816D01*
X160052518Y-54685500D01*
X163876000Y-54685500D01*
X163943039Y-54705185D01*
X163988794Y-54757989D01*
X164000000Y-54809500D01*
X164000000Y-61000000D01*
X169980500Y-61000000D01*
X170047539Y-61019685D01*
X170093294Y-61072489D01*
X170104500Y-61124000D01*
X170104500Y-148376000D01*
X170084815Y-148443039D01*
X170032011Y-148488794D01*
X169980500Y-148500000D01*
X164000000Y-148500000D01*
X164000000Y-154410500D01*
X163980315Y-154477539D01*
X163927511Y-154523294D01*
X163876000Y-154534500D01*
X138289000Y-154534500D01*
X138221961Y-154514815D01*
X138176206Y-154462011D01*
X138165000Y-154410500D01*
X138165000Y-151394983D01*
X138165000Y-151394982D01*
X138153506Y-151367233D01*
X138132267Y-151345994D01*
X138104518Y-151334500D01*
X120195018Y-151334500D01*
X102285518Y-151334500D01*
X102255482Y-151334500D01*
X102227731Y-151345995D01*
X102206495Y-151367231D01*
X102195000Y-151394982D01*
X102195000Y-154410500D01*
X102175315Y-154477539D01*
X102122511Y-154523294D01*
X102071000Y-154534500D01*
X76624000Y-154534500D01*
X76556961Y-154514815D01*
X76511206Y-154462011D01*
X76500000Y-154410500D01*
X76500000Y-148500000D01*
X70379500Y-148500000D01*
X70312461Y-148480315D01*
X70266706Y-148427511D01*
X70255500Y-148376000D01*
X70255500Y-144787982D01*
X91699500Y-144787982D01*
X91699500Y-146792982D01*
X91699500Y-146823018D01*
X91710994Y-146850767D01*
X91732233Y-146872006D01*
X91759982Y-146883500D01*
X91759984Y-146883500D01*
X97790016Y-146883500D01*
X97790018Y-146883500D01*
X97817767Y-146872006D01*
X97839006Y-146850767D01*
X97850500Y-146823018D01*
X97850500Y-144787982D01*
X142499500Y-144787982D01*
X142499500Y-146792982D01*
X142499500Y-146823018D01*
X142510994Y-146850767D01*
X142532233Y-146872006D01*
X142559982Y-146883500D01*
X142559984Y-146883500D01*
X148590016Y-146883500D01*
X148590018Y-146883500D01*
X148617767Y-146872006D01*
X148639006Y-146850767D01*
X148650500Y-146823018D01*
X148650500Y-144787982D01*
X148639006Y-144760233D01*
X148617767Y-144738994D01*
X148590018Y-144727500D01*
X142590018Y-144727500D01*
X142559982Y-144727500D01*
X142532231Y-144738995D01*
X142510995Y-144760231D01*
X142510994Y-144760232D01*
X142510994Y-144760233D01*
X142499500Y-144787982D01*
X97850500Y-144787982D01*
X97839006Y-144760233D01*
X97817767Y-144738994D01*
X97790018Y-144727500D01*
X91790018Y-144727500D01*
X91759982Y-144727500D01*
X91732231Y-144738995D01*
X91710995Y-144760231D01*
X91710994Y-144760232D01*
X91710994Y-144760233D01*
X91699500Y-144787982D01*
X70255500Y-144787982D01*
X70255500Y-75786345D01*
X71651500Y-75786345D01*
X71651500Y-77883654D01*
X71658011Y-77944202D01*
X71658011Y-77944204D01*
X71706063Y-78073032D01*
X71709111Y-78081204D01*
X71796739Y-78198261D01*
X71913796Y-78285889D01*
X72050799Y-78336989D01*
X72078050Y-78339918D01*
X72111345Y-78343499D01*
X72111362Y-78343500D01*
X74421362Y-78343500D01*
X74712500Y-78343500D01*
X74779539Y-78363185D01*
X74825294Y-78415989D01*
X74836500Y-78467500D01*
X74836500Y-81222933D01*
X74816815Y-81289972D01*
X74800181Y-81310614D01*
X74437962Y-81672832D01*
X74376639Y-81706317D01*
X74374472Y-81706768D01*
X74264876Y-81728568D01*
X74264868Y-81728570D01*
X74117730Y-81789517D01*
X73985312Y-81877995D01*
X73985305Y-81878001D01*
X73872701Y-81990605D01*
X73872695Y-81990612D01*
X73784217Y-82123030D01*
X73723270Y-82270168D01*
X73723268Y-82270176D01*
X73692200Y-82426365D01*
X73692200Y-82585634D01*
X73723268Y-82741823D01*
X73723270Y-82741831D01*
X73784217Y-82888969D01*
X73872695Y-83021387D01*
X73872701Y-83021394D01*
X73985305Y-83133998D01*
X73985312Y-83134004D01*
X74117730Y-83222482D01*
X74117731Y-83222482D01*
X74117732Y-83222483D01*
X74264869Y-83283430D01*
X74421065Y-83314499D01*
X74421069Y-83314500D01*
X74421070Y-83314500D01*
X74580331Y-83314500D01*
X74580332Y-83314499D01*
X74736531Y-83283430D01*
X74883668Y-83222483D01*
X75016089Y-83134003D01*
X75128703Y-83021389D01*
X75217183Y-82888968D01*
X75278130Y-82741831D01*
X75299931Y-82632222D01*
X75332315Y-82570315D01*
X75333809Y-82568793D01*
X75962071Y-81940533D01*
X76031400Y-81836775D01*
X76079155Y-81721485D01*
X76103500Y-81599094D01*
X76103500Y-81474306D01*
X76103500Y-78826565D01*
X97193000Y-78826565D01*
X97193000Y-78985834D01*
X97224068Y-79142023D01*
X97224070Y-79142031D01*
X97285017Y-79289169D01*
X97373495Y-79421587D01*
X97373501Y-79421594D01*
X97486105Y-79534198D01*
X97486112Y-79534204D01*
X97618530Y-79622682D01*
X97618531Y-79622682D01*
X97618532Y-79622683D01*
X97765669Y-79683630D01*
X97921865Y-79714699D01*
X97921869Y-79714700D01*
X97921870Y-79714700D01*
X98081131Y-79714700D01*
X98081132Y-79714699D01*
X98237331Y-79683630D01*
X98384468Y-79622683D01*
X98516889Y-79534203D01*
X98629503Y-79421589D01*
X98717983Y-79289168D01*
X98778930Y-79142031D01*
X98800731Y-79032422D01*
X98833115Y-78970515D01*
X98834609Y-78968993D01*
X99444871Y-78358733D01*
X99514200Y-78254975D01*
X99561955Y-78139685D01*
X99586300Y-78017294D01*
X99586300Y-77892507D01*
X99586300Y-73166077D01*
X99605985Y-73099038D01*
X99607197Y-73097187D01*
X99669283Y-73004268D01*
X99730230Y-72857131D01*
X99761300Y-72700930D01*
X99761300Y-72541670D01*
X99730230Y-72385469D01*
X99669283Y-72238332D01*
X99607197Y-72145412D01*
X99586320Y-72078734D01*
X99586300Y-72076522D01*
X99586300Y-68583405D01*
X99586299Y-68583401D01*
X99583580Y-68569732D01*
X99561955Y-68461015D01*
X99514200Y-68345725D01*
X99514199Y-68345724D01*
X99514196Y-68345718D01*
X99444872Y-68241968D01*
X99412094Y-68209190D01*
X99356633Y-68153729D01*
X98910668Y-67707764D01*
X98877183Y-67646441D01*
X98876732Y-67644274D01*
X98861771Y-67569066D01*
X98854930Y-67534669D01*
X98793983Y-67387532D01*
X98705503Y-67255111D01*
X98705498Y-67255105D01*
X98592894Y-67142501D01*
X98592887Y-67142495D01*
X98460469Y-67054017D01*
X98313331Y-66993070D01*
X98313323Y-66993068D01*
X98157134Y-66962000D01*
X98157130Y-66962000D01*
X97997870Y-66962000D01*
X97997865Y-66962000D01*
X97841676Y-66993068D01*
X97841668Y-66993070D01*
X97694530Y-67054017D01*
X97562112Y-67142495D01*
X97562105Y-67142501D01*
X97449501Y-67255105D01*
X97449495Y-67255112D01*
X97361017Y-67387530D01*
X97300070Y-67534668D01*
X97300068Y-67534676D01*
X97269000Y-67690865D01*
X97269000Y-67850134D01*
X97300068Y-68006323D01*
X97300070Y-68006331D01*
X97361017Y-68153469D01*
X97449495Y-68285887D01*
X97449501Y-68285894D01*
X97562105Y-68398498D01*
X97562112Y-68398504D01*
X97694530Y-68486982D01*
X97694531Y-68486982D01*
X97694532Y-68486983D01*
X97841669Y-68547930D01*
X97876066Y-68554771D01*
X97951274Y-68569732D01*
X98013185Y-68602116D01*
X98014764Y-68603668D01*
X98282981Y-68871885D01*
X98316466Y-68933208D01*
X98319300Y-68959566D01*
X98319300Y-72076522D01*
X98299615Y-72143561D01*
X98298403Y-72145412D01*
X98236316Y-72238333D01*
X98175370Y-72385468D01*
X98175368Y-72385476D01*
X98144300Y-72541665D01*
X98144300Y-72700934D01*
X98175368Y-72857123D01*
X98175370Y-72857131D01*
X98236315Y-73004266D01*
X98298403Y-73097187D01*
X98319280Y-73163864D01*
X98319300Y-73166077D01*
X98319300Y-77641133D01*
X98299615Y-77708172D01*
X98282981Y-77728814D01*
X97938762Y-78073032D01*
X97877439Y-78106517D01*
X97875272Y-78106968D01*
X97765676Y-78128768D01*
X97765668Y-78128770D01*
X97618530Y-78189717D01*
X97486112Y-78278195D01*
X97486105Y-78278201D01*
X97373501Y-78390805D01*
X97373495Y-78390812D01*
X97285017Y-78523230D01*
X97224070Y-78670368D01*
X97224068Y-78670376D01*
X97193000Y-78826565D01*
X76103500Y-78826565D01*
X76103500Y-78467500D01*
X76123185Y-78400461D01*
X76175989Y-78354706D01*
X76227500Y-78343500D01*
X76518638Y-78343500D01*
X76518654Y-78343499D01*
X76545692Y-78340591D01*
X76579201Y-78336989D01*
X76716204Y-78285889D01*
X76833261Y-78198261D01*
X76920889Y-78081204D01*
X76971989Y-77944201D01*
X76976580Y-77901500D01*
X76978499Y-77883654D01*
X76978500Y-77883637D01*
X76978500Y-76716947D01*
X77950000Y-76716947D01*
X77950000Y-76953052D01*
X77986934Y-77186247D01*
X78059897Y-77410802D01*
X78167087Y-77621174D01*
X78227338Y-77704104D01*
X78227340Y-77704105D01*
X78967037Y-76964408D01*
X78984075Y-77027993D01*
X79049901Y-77142007D01*
X79142993Y-77235099D01*
X79257007Y-77300925D01*
X79320589Y-77317962D01*
X78580893Y-78057658D01*
X78663828Y-78117914D01*
X78874197Y-78225102D01*
X79098752Y-78298065D01*
X79098751Y-78298065D01*
X79331948Y-78335000D01*
X79568052Y-78335000D01*
X79801247Y-78298065D01*
X80025799Y-78225103D01*
X80048704Y-78213433D01*
X80117373Y-78200536D01*
X80161296Y-78213433D01*
X80184200Y-78225103D01*
X80408752Y-78298065D01*
X80408751Y-78298065D01*
X80641948Y-78335000D01*
X81010000Y-78335000D01*
X81010000Y-77335000D01*
X81510000Y-77335000D01*
X81510000Y-78335000D01*
X81878052Y-78335000D01*
X82111247Y-78298065D01*
X82335802Y-78225102D01*
X82546171Y-78117914D01*
X82737186Y-77979133D01*
X82904133Y-77812186D01*
X83042914Y-77621171D01*
X83150102Y-77410802D01*
X83223065Y-77186247D01*
X83239102Y-77085000D01*
X82193012Y-77085000D01*
X82225925Y-77027993D01*
X82260000Y-76900826D01*
X82260000Y-76769174D01*
X82225925Y-76642007D01*
X82193012Y-76585000D01*
X83239102Y-76585000D01*
X83223065Y-76483752D01*
X83150102Y-76259197D01*
X83042914Y-76048828D01*
X82904133Y-75857813D01*
X82737186Y-75690866D01*
X82546171Y-75552085D01*
X82335802Y-75444897D01*
X82111247Y-75371934D01*
X82111248Y-75371934D01*
X81878052Y-75335000D01*
X81510000Y-75335000D01*
X81510000Y-76335000D01*
X81010000Y-76335000D01*
X81010000Y-75335000D01*
X80641948Y-75335000D01*
X80408752Y-75371934D01*
X80184196Y-75444897D01*
X80161293Y-75456567D01*
X80092624Y-75469462D01*
X80048707Y-75456567D01*
X80025803Y-75444897D01*
X79801247Y-75371934D01*
X79801248Y-75371934D01*
X79568052Y-75335000D01*
X79331948Y-75335000D01*
X79098752Y-75371934D01*
X78874197Y-75444897D01*
X78663830Y-75552084D01*
X78580894Y-75612340D01*
X79320591Y-76352037D01*
X79257007Y-76369075D01*
X79142993Y-76434901D01*
X79049901Y-76527993D01*
X78984075Y-76642007D01*
X78967037Y-76705591D01*
X78227340Y-75965894D01*
X78167084Y-76048830D01*
X78059897Y-76259197D01*
X77986934Y-76483752D01*
X77950000Y-76716947D01*
X76978500Y-76716947D01*
X76978500Y-75786362D01*
X76978499Y-75786345D01*
X76971989Y-75725798D01*
X76963461Y-75702935D01*
X76963460Y-75702932D01*
X76920889Y-75588796D01*
X76893407Y-75552085D01*
X76833261Y-75471739D01*
X76716204Y-75384111D01*
X76683557Y-75371934D01*
X76579203Y-75333011D01*
X76518654Y-75326500D01*
X76518638Y-75326500D01*
X75208638Y-75326500D01*
X72111362Y-75326500D01*
X72111345Y-75326500D01*
X72050797Y-75333011D01*
X72050795Y-75333011D01*
X71913795Y-75384111D01*
X71796739Y-75471739D01*
X71709111Y-75588795D01*
X71658011Y-75725795D01*
X71658011Y-75725797D01*
X71651500Y-75786345D01*
X70255500Y-75786345D01*
X70255500Y-63782155D01*
X76235000Y-63782155D01*
X76235000Y-65330000D01*
X77985000Y-65330000D01*
X77985000Y-65830000D01*
X76235000Y-65830000D01*
X76235000Y-67377844D01*
X76241401Y-67437372D01*
X76241403Y-67437379D01*
X76291645Y-67572086D01*
X76291649Y-67572093D01*
X76377809Y-67687187D01*
X76377812Y-67687190D01*
X76492906Y-67773350D01*
X76492913Y-67773354D01*
X76627620Y-67823596D01*
X76627627Y-67823598D01*
X76687155Y-67829999D01*
X76687172Y-67830000D01*
X78235000Y-67830000D01*
X78235000Y-67013012D01*
X78292007Y-67045925D01*
X78419174Y-67080000D01*
X78550826Y-67080000D01*
X78677993Y-67045925D01*
X78735000Y-67013012D01*
X78735000Y-67830000D01*
X80282828Y-67830000D01*
X80282844Y-67829999D01*
X80342372Y-67823598D01*
X80342379Y-67823596D01*
X80477086Y-67773354D01*
X80477093Y-67773350D01*
X80592187Y-67687190D01*
X80592190Y-67687187D01*
X80678350Y-67572093D01*
X80678355Y-67572084D01*
X80686318Y-67550735D01*
X80728188Y-67494801D01*
X80793652Y-67470383D01*
X80861925Y-67485234D01*
X80911331Y-67534639D01*
X80926500Y-67594067D01*
X80926500Y-70378654D01*
X80933011Y-70439202D01*
X80933011Y-70439204D01*
X80984111Y-70576204D01*
X81071739Y-70693261D01*
X81188796Y-70780889D01*
X81325799Y-70831989D01*
X81353050Y-70834918D01*
X81386345Y-70838499D01*
X81386362Y-70838500D01*
X84983638Y-70838500D01*
X84983654Y-70838499D01*
X85010692Y-70835591D01*
X85044201Y-70831989D01*
X85181204Y-70780889D01*
X85298261Y-70693261D01*
X85385889Y-70576204D01*
X85436989Y-70439201D01*
X85442498Y-70387962D01*
X85443499Y-70378654D01*
X85443500Y-70378637D01*
X85443500Y-66781362D01*
X85443499Y-66781345D01*
X85440157Y-66750270D01*
X85436989Y-66720799D01*
X85385889Y-66583796D01*
X85298261Y-66466739D01*
X85181204Y-66379111D01*
X85164126Y-66372741D01*
X85044203Y-66328011D01*
X84983654Y-66321500D01*
X84983638Y-66321500D01*
X81386362Y-66321500D01*
X81386345Y-66321500D01*
X81325797Y-66328011D01*
X81325795Y-66328011D01*
X81188795Y-66379111D01*
X81071739Y-66466739D01*
X80984111Y-66583795D01*
X80975181Y-66607738D01*
X80933309Y-66663671D01*
X80867845Y-66688087D01*
X80799572Y-66673235D01*
X80750167Y-66623829D01*
X80735000Y-66564403D01*
X80735000Y-65830000D01*
X78985000Y-65830000D01*
X78985000Y-65330000D01*
X80735000Y-65330000D01*
X80735000Y-64571278D01*
X80754685Y-64504239D01*
X80807489Y-64458484D01*
X80876647Y-64448540D01*
X80940203Y-64477565D01*
X80975182Y-64527945D01*
X80991645Y-64572086D01*
X80991649Y-64572093D01*
X81077809Y-64687187D01*
X81077812Y-64687190D01*
X81192906Y-64773350D01*
X81192913Y-64773354D01*
X81327620Y-64823596D01*
X81327627Y-64823598D01*
X81387155Y-64829999D01*
X81387172Y-64830000D01*
X82935000Y-64830000D01*
X82935000Y-63080000D01*
X83435000Y-63080000D01*
X83435000Y-64830000D01*
X84982828Y-64830000D01*
X84982844Y-64829999D01*
X85042372Y-64823598D01*
X85042379Y-64823596D01*
X85177086Y-64773354D01*
X85177093Y-64773350D01*
X85292187Y-64687190D01*
X85292190Y-64687187D01*
X85378350Y-64572093D01*
X85378354Y-64572086D01*
X85428596Y-64437379D01*
X85428598Y-64437372D01*
X85434999Y-64377844D01*
X85435000Y-64377827D01*
X85435000Y-62830000D01*
X84618012Y-62830000D01*
X84650925Y-62772993D01*
X84685000Y-62645826D01*
X84685000Y-62514174D01*
X84650925Y-62387007D01*
X84618012Y-62330000D01*
X85435000Y-62330000D01*
X85435000Y-60782172D01*
X85434999Y-60782155D01*
X85428598Y-60722627D01*
X85428596Y-60722620D01*
X85378354Y-60587913D01*
X85378350Y-60587906D01*
X85292190Y-60472812D01*
X85292187Y-60472809D01*
X85177093Y-60386649D01*
X85177086Y-60386645D01*
X85042379Y-60336403D01*
X85042372Y-60336401D01*
X84982844Y-60330000D01*
X83435000Y-60330000D01*
X83435000Y-62080000D01*
X82935000Y-62080000D01*
X82935000Y-60330000D01*
X81387155Y-60330000D01*
X81327627Y-60336401D01*
X81327620Y-60336403D01*
X81192913Y-60386645D01*
X81192906Y-60386649D01*
X81077812Y-60472809D01*
X81077809Y-60472812D01*
X80991649Y-60587906D01*
X80991645Y-60587913D01*
X80941403Y-60722620D01*
X80941401Y-60722627D01*
X80935000Y-60782155D01*
X80935000Y-62330000D01*
X81751988Y-62330000D01*
X81719075Y-62387007D01*
X81685000Y-62514174D01*
X81685000Y-62645826D01*
X81719075Y-62772993D01*
X81751988Y-62830000D01*
X80935000Y-62830000D01*
X80935000Y-63588721D01*
X80915315Y-63655760D01*
X80862511Y-63701515D01*
X80793353Y-63711459D01*
X80729797Y-63682434D01*
X80694818Y-63632055D01*
X80678353Y-63587911D01*
X80678350Y-63587906D01*
X80592190Y-63472812D01*
X80592187Y-63472809D01*
X80477093Y-63386649D01*
X80477086Y-63386645D01*
X80342379Y-63336403D01*
X80342372Y-63336401D01*
X80282844Y-63330000D01*
X78735000Y-63330000D01*
X78735000Y-64146988D01*
X78677993Y-64114075D01*
X78550826Y-64080000D01*
X78419174Y-64080000D01*
X78292007Y-64114075D01*
X78235000Y-64146988D01*
X78235000Y-63330000D01*
X76687155Y-63330000D01*
X76627627Y-63336401D01*
X76627620Y-63336403D01*
X76492913Y-63386645D01*
X76492906Y-63386649D01*
X76377812Y-63472809D01*
X76377809Y-63472812D01*
X76291649Y-63587906D01*
X76291645Y-63587913D01*
X76241403Y-63722620D01*
X76241401Y-63722627D01*
X76235000Y-63782155D01*
X70255500Y-63782155D01*
X70255500Y-61124000D01*
X70275185Y-61056961D01*
X70327989Y-61011206D01*
X70379500Y-61000000D01*
X76000000Y-61000000D01*
X76000000Y-54809500D01*
X76019685Y-54742461D01*
X76072489Y-54696706D01*
X76124000Y-54685500D01*
X102366500Y-54685500D01*
X102433539Y-54705185D01*
G37*
%TD.AperFunction*%
%TA.AperFunction,Conductor*%
G36*
X131060000Y-91132230D02*
G01*
X131126126Y-91121757D01*
X131126129Y-91121757D01*
X131328219Y-91056094D01*
X131436278Y-91001035D01*
X131504947Y-90988138D01*
X131569688Y-91014414D01*
X131609945Y-91071520D01*
X131614191Y-91087328D01*
X131643868Y-91236523D01*
X131643870Y-91236531D01*
X131704815Y-91383666D01*
X131766903Y-91476587D01*
X131787780Y-91543264D01*
X131787800Y-91545477D01*
X131787800Y-125990098D01*
X131812143Y-126112477D01*
X131812145Y-126112485D01*
X131859898Y-126227772D01*
X131859903Y-126227781D01*
X131929228Y-126331532D01*
X131929231Y-126331536D01*
X132372932Y-126775236D01*
X132406417Y-126836559D01*
X132406868Y-126838726D01*
X132428668Y-126948323D01*
X132428670Y-126948331D01*
X132489617Y-127095469D01*
X132578095Y-127227887D01*
X132578101Y-127227894D01*
X132690705Y-127340498D01*
X132690712Y-127340504D01*
X132823130Y-127428982D01*
X132823131Y-127428982D01*
X132823132Y-127428983D01*
X132970269Y-127489930D01*
X133126465Y-127520999D01*
X133126469Y-127521000D01*
X133126470Y-127521000D01*
X133285731Y-127521000D01*
X133285732Y-127520999D01*
X133441931Y-127489930D01*
X133589068Y-127428983D01*
X133721489Y-127340503D01*
X133721494Y-127340498D01*
X133722919Y-127339074D01*
X133723850Y-127338565D01*
X133726204Y-127336634D01*
X133726570Y-127337080D01*
X133784242Y-127305589D01*
X133853934Y-127310573D01*
X133909867Y-127352445D01*
X133934284Y-127417909D01*
X133934600Y-127426755D01*
X133934600Y-128802658D01*
X133914915Y-128869697D01*
X133862111Y-128915452D01*
X133792953Y-128925396D01*
X133763148Y-128917219D01*
X133678535Y-128882171D01*
X133678523Y-128882168D01*
X133522334Y-128851100D01*
X133522330Y-128851100D01*
X133363070Y-128851100D01*
X133363065Y-128851100D01*
X133206876Y-128882168D01*
X133206868Y-128882170D01*
X133059730Y-128943117D01*
X132927312Y-129031595D01*
X132927305Y-129031601D01*
X132814701Y-129144205D01*
X132814695Y-129144212D01*
X132726217Y-129276630D01*
X132665270Y-129423768D01*
X132665268Y-129423774D01*
X132643468Y-129533372D01*
X132634703Y-129550126D01*
X132630684Y-129568606D01*
X132611936Y-129593649D01*
X132611083Y-129595282D01*
X132609533Y-129596861D01*
X132476167Y-129730229D01*
X132476164Y-129730230D01*
X132387931Y-129818463D01*
X132387928Y-129818467D01*
X132318603Y-129922218D01*
X132318598Y-129922227D01*
X132270845Y-130037514D01*
X132270843Y-130037522D01*
X132246500Y-130159901D01*
X132246500Y-139692116D01*
X132226815Y-139759155D01*
X132178796Y-139802600D01*
X132167993Y-139808104D01*
X131994993Y-139933796D01*
X131843796Y-140084993D01*
X131718105Y-140257991D01*
X131715727Y-140261873D01*
X131663914Y-140308748D01*
X131594984Y-140320169D01*
X131530822Y-140292512D01*
X131504273Y-140261873D01*
X131501894Y-140257991D01*
X131501893Y-140257990D01*
X131376206Y-140084996D01*
X131225004Y-139933794D01*
X131052009Y-139808106D01*
X131021471Y-139792546D01*
X130861483Y-139711027D01*
X130861480Y-139711026D01*
X130658117Y-139644951D01*
X130540997Y-139626401D01*
X130446916Y-139611500D01*
X130233084Y-139611500D01*
X130162684Y-139622650D01*
X130021882Y-139644951D01*
X129818519Y-139711026D01*
X129818516Y-139711027D01*
X129627990Y-139808106D01*
X129454993Y-139933796D01*
X129303796Y-140084993D01*
X129178105Y-140257991D01*
X129175727Y-140261873D01*
X129123914Y-140308748D01*
X129054984Y-140320169D01*
X128990822Y-140292512D01*
X128964273Y-140261873D01*
X128961894Y-140257991D01*
X128961893Y-140257990D01*
X128836206Y-140084996D01*
X128685004Y-139933794D01*
X128512009Y-139808106D01*
X128512008Y-139808105D01*
X128512006Y-139808104D01*
X128501204Y-139802600D01*
X128450408Y-139754625D01*
X128433500Y-139692116D01*
X128433500Y-135742905D01*
X128433499Y-135742901D01*
X128413654Y-135643135D01*
X128409155Y-135620515D01*
X128382206Y-135555455D01*
X128382205Y-135555451D01*
X128366438Y-135517383D01*
X128359020Y-135480090D01*
X128357597Y-135480231D01*
X128357000Y-135474175D01*
X128357000Y-135474170D01*
X128325930Y-135317969D01*
X128264983Y-135170832D01*
X128176503Y-135038411D01*
X128176498Y-135038405D01*
X128063894Y-134925801D01*
X128063887Y-134925795D01*
X127931469Y-134837317D01*
X127784331Y-134776370D01*
X127784323Y-134776368D01*
X127628134Y-134745300D01*
X127628130Y-134745300D01*
X127468870Y-134745300D01*
X127468865Y-134745300D01*
X127312676Y-134776368D01*
X127312668Y-134776370D01*
X127165530Y-134837317D01*
X127033112Y-134925795D01*
X127033105Y-134925801D01*
X126920501Y-135038405D01*
X126920495Y-135038412D01*
X126832017Y-135170830D01*
X126771070Y-135317968D01*
X126771068Y-135317976D01*
X126740000Y-135474165D01*
X126740000Y-135633434D01*
X126771068Y-135789623D01*
X126771070Y-135789631D01*
X126832017Y-135936769D01*
X126920495Y-136069187D01*
X126920501Y-136069194D01*
X127033105Y-136181798D01*
X127033110Y-136181802D01*
X127033111Y-136181803D01*
X127111391Y-136234107D01*
X127156195Y-136287716D01*
X127166500Y-136337208D01*
X127166500Y-139692116D01*
X127146815Y-139759155D01*
X127098796Y-139802600D01*
X127087993Y-139808104D01*
X126914993Y-139933796D01*
X126763796Y-140084993D01*
X126638105Y-140257991D01*
X126635727Y-140261873D01*
X126583914Y-140308748D01*
X126514984Y-140320169D01*
X126450822Y-140292512D01*
X126424273Y-140261873D01*
X126421894Y-140257991D01*
X126421893Y-140257990D01*
X126296206Y-140084996D01*
X126145004Y-139933794D01*
X125972009Y-139808106D01*
X125972008Y-139808105D01*
X125972006Y-139808104D01*
X125961204Y-139802600D01*
X125910408Y-139754625D01*
X125893500Y-139692116D01*
X125893500Y-126252766D01*
X125913185Y-126185727D01*
X125965989Y-126139972D01*
X126035147Y-126130028D01*
X126098703Y-126159053D01*
X126105181Y-126165085D01*
X129662432Y-129722336D01*
X129695917Y-129783659D01*
X129696368Y-129785826D01*
X129718168Y-129895423D01*
X129718170Y-129895431D01*
X129779117Y-130042569D01*
X129867595Y-130174987D01*
X129867601Y-130174994D01*
X129980205Y-130287598D01*
X129980212Y-130287604D01*
X130112630Y-130376082D01*
X130112631Y-130376082D01*
X130112632Y-130376083D01*
X130259769Y-130437030D01*
X130406262Y-130466169D01*
X130415965Y-130468099D01*
X130415969Y-130468100D01*
X130415970Y-130468100D01*
X130575231Y-130468100D01*
X130575232Y-130468099D01*
X130731431Y-130437030D01*
X130878568Y-130376083D01*
X131010989Y-130287603D01*
X131123603Y-130174989D01*
X131212083Y-130042568D01*
X131273030Y-129895431D01*
X131304100Y-129739230D01*
X131304100Y-129579970D01*
X131273030Y-129423769D01*
X131212083Y-129276632D01*
X131165147Y-129206387D01*
X131123604Y-129144212D01*
X131123598Y-129144205D01*
X131010994Y-129031601D01*
X131010987Y-129031595D01*
X130878569Y-128943117D01*
X130731431Y-128882170D01*
X130731423Y-128882168D01*
X130621826Y-128860368D01*
X130559915Y-128827984D01*
X130558336Y-128826432D01*
X126399819Y-124667915D01*
X126366334Y-124606592D01*
X126363500Y-124580234D01*
X126363500Y-91082883D01*
X126383185Y-91015844D01*
X126431204Y-90972398D01*
X126442009Y-90966894D01*
X126615004Y-90841206D01*
X126766206Y-90690004D01*
X126891894Y-90517009D01*
X126891896Y-90517004D01*
X126894270Y-90513132D01*
X126946080Y-90466254D01*
X127015009Y-90454829D01*
X127079173Y-90482483D01*
X127105730Y-90513132D01*
X127108103Y-90517005D01*
X127108105Y-90517008D01*
X127108106Y-90517009D01*
X127233794Y-90690004D01*
X127384996Y-90841206D01*
X127557991Y-90966894D01*
X127636499Y-91006896D01*
X127748516Y-91063972D01*
X127748519Y-91063973D01*
X127820400Y-91087328D01*
X127951884Y-91130049D01*
X128163084Y-91163500D01*
X128163085Y-91163500D01*
X128376915Y-91163500D01*
X128376916Y-91163500D01*
X128588116Y-91130049D01*
X128791483Y-91063972D01*
X128982009Y-90966894D01*
X129155004Y-90841206D01*
X129306206Y-90690004D01*
X129431894Y-90517009D01*
X129434283Y-90512319D01*
X129482254Y-90461522D01*
X129550074Y-90444724D01*
X129616210Y-90467258D01*
X129652201Y-90508788D01*
X129652832Y-90508402D01*
X129655164Y-90512207D01*
X129655251Y-90512308D01*
X129655376Y-90512554D01*
X129780272Y-90684459D01*
X129780276Y-90684464D01*
X129930535Y-90834723D01*
X129930540Y-90834727D01*
X130102442Y-90959620D01*
X130291782Y-91056095D01*
X130493871Y-91121757D01*
X130560000Y-91132231D01*
X130560000Y-90238012D01*
X130617007Y-90270925D01*
X130744174Y-90305000D01*
X130875826Y-90305000D01*
X131002993Y-90270925D01*
X131060000Y-90238012D01*
X131060000Y-91132230D01*
G37*
%TD.AperFunction*%
%TA.AperFunction,Conductor*%
G36*
X141522734Y-81253883D02*
G01*
X141578667Y-81295755D01*
X141603084Y-81361219D01*
X141603400Y-81370065D01*
X141603400Y-83868834D01*
X141583715Y-83935873D01*
X141567081Y-83956515D01*
X140566167Y-84957429D01*
X140522047Y-85001549D01*
X140477927Y-85045668D01*
X140408603Y-85149418D01*
X140408598Y-85149427D01*
X140360845Y-85264714D01*
X140360843Y-85264722D01*
X140336500Y-85387101D01*
X140336500Y-85987116D01*
X140316815Y-86054155D01*
X140268796Y-86097600D01*
X140257993Y-86103104D01*
X140084993Y-86228796D01*
X139933796Y-86379993D01*
X139808103Y-86552994D01*
X139805709Y-86557693D01*
X139757731Y-86608485D01*
X139689908Y-86625275D01*
X139623775Y-86602732D01*
X139587800Y-86561210D01*
X139587168Y-86561598D01*
X139584829Y-86557781D01*
X139584743Y-86557682D01*
X139584620Y-86557441D01*
X139459727Y-86385540D01*
X139459723Y-86385535D01*
X139309464Y-86235276D01*
X139309459Y-86235272D01*
X139137557Y-86110379D01*
X138948215Y-86013903D01*
X138746124Y-85948241D01*
X138680000Y-85937768D01*
X138680000Y-86831988D01*
X138622993Y-86799075D01*
X138495826Y-86765000D01*
X138364174Y-86765000D01*
X138237007Y-86799075D01*
X138180000Y-86831988D01*
X138180000Y-85937768D01*
X138179999Y-85937768D01*
X138113875Y-85948241D01*
X137911784Y-86013903D01*
X137722442Y-86110379D01*
X137550540Y-86235272D01*
X137550535Y-86235276D01*
X137400276Y-86385535D01*
X137400272Y-86385540D01*
X137275376Y-86557446D01*
X137275374Y-86557448D01*
X137275246Y-86557701D01*
X137275172Y-86557779D01*
X137272832Y-86561598D01*
X137272029Y-86561106D01*
X137227264Y-86608489D01*
X137159441Y-86625274D01*
X137093309Y-86602727D01*
X137054285Y-86557683D01*
X137051895Y-86552992D01*
X136998500Y-86479500D01*
X136926206Y-86379996D01*
X136775004Y-86228794D01*
X136748404Y-86209468D01*
X136701504Y-86175393D01*
X136658838Y-86120063D01*
X136652859Y-86050450D01*
X136685465Y-85988655D01*
X136686637Y-85987465D01*
X141391721Y-81282382D01*
X141453042Y-81248899D01*
X141522734Y-81253883D01*
G37*
%TD.AperFunction*%
%TA.AperFunction,Conductor*%
G36*
X122652403Y-73603853D02*
G01*
X122658881Y-73609885D01*
X123710781Y-74661785D01*
X123744266Y-74723108D01*
X123747100Y-74749466D01*
X123747100Y-81573500D01*
X123727415Y-81640539D01*
X123674611Y-81686294D01*
X123623100Y-81697500D01*
X123612065Y-81697500D01*
X123455876Y-81728568D01*
X123455868Y-81728570D01*
X123308730Y-81789517D01*
X123176312Y-81877995D01*
X123176305Y-81878001D01*
X123063701Y-81990605D01*
X123063695Y-81990612D01*
X122975217Y-82123030D01*
X122914270Y-82270168D01*
X122914268Y-82270174D01*
X122892468Y-82379772D01*
X122883703Y-82396527D01*
X122879684Y-82415005D01*
X122860938Y-82440046D01*
X122860083Y-82441682D01*
X122858533Y-82443260D01*
X122786167Y-82515628D01*
X122786166Y-82515629D01*
X122697931Y-82603863D01*
X122697928Y-82603867D01*
X122628603Y-82707618D01*
X122628598Y-82707627D01*
X122580845Y-82822914D01*
X122580843Y-82822922D01*
X122556500Y-82945301D01*
X122556500Y-85987116D01*
X122536815Y-86054155D01*
X122503904Y-86088494D01*
X122496673Y-86093586D01*
X122477991Y-86103106D01*
X122314059Y-86222208D01*
X122313263Y-86222770D01*
X122281012Y-86233745D01*
X122248937Y-86245190D01*
X122248014Y-86244975D01*
X122247119Y-86245280D01*
X122214082Y-86237084D01*
X122180884Y-86229364D01*
X122179877Y-86228598D01*
X122179305Y-86228457D01*
X122178328Y-86227422D01*
X122154178Y-86209073D01*
X121728619Y-85783514D01*
X121695134Y-85722191D01*
X121692300Y-85695833D01*
X121692300Y-77858305D01*
X121711985Y-77791266D01*
X121764789Y-77745511D01*
X121833947Y-77735567D01*
X121863751Y-77743743D01*
X121919969Y-77767030D01*
X122041813Y-77791266D01*
X122076165Y-77798099D01*
X122076169Y-77798100D01*
X122076170Y-77798100D01*
X122235431Y-77798100D01*
X122235432Y-77798099D01*
X122391631Y-77767030D01*
X122538768Y-77706083D01*
X122671189Y-77617603D01*
X122783803Y-77504989D01*
X122872283Y-77372568D01*
X122933230Y-77225431D01*
X122964300Y-77069230D01*
X122964300Y-76909970D01*
X122933230Y-76753769D01*
X122872283Y-76606632D01*
X122783803Y-76474211D01*
X122783798Y-76474205D01*
X122671191Y-76361598D01*
X122538774Y-76273120D01*
X122538766Y-76273116D01*
X122523745Y-76266894D01*
X122469342Y-76223052D01*
X122447279Y-76156757D01*
X122447200Y-76152334D01*
X122447200Y-73697566D01*
X122466885Y-73630527D01*
X122519689Y-73584772D01*
X122588847Y-73574828D01*
X122652403Y-73603853D01*
G37*
%TD.AperFunction*%
%TA.AperFunction,Conductor*%
G36*
X135378000Y-64341999D02*
G01*
X135777972Y-64341999D01*
X135777986Y-64341998D01*
X135880697Y-64331505D01*
X136047119Y-64276358D01*
X136047124Y-64276356D01*
X136196345Y-64184315D01*
X136320315Y-64060345D01*
X136412355Y-63911124D01*
X136412849Y-63909636D01*
X136413464Y-63908746D01*
X136415408Y-63904579D01*
X136416119Y-63904910D01*
X136452616Y-63852187D01*
X136517129Y-63825357D01*
X136585906Y-63837666D01*
X136628313Y-63873568D01*
X136628630Y-63873299D01*
X136630288Y-63875240D01*
X136630870Y-63875733D01*
X136631668Y-63876830D01*
X136631794Y-63877004D01*
X136782996Y-64028206D01*
X136955991Y-64153894D01*
X136966794Y-64159398D01*
X137017590Y-64207371D01*
X137034500Y-64269883D01*
X137034500Y-80272798D01*
X137058843Y-80395177D01*
X137058845Y-80395185D01*
X137106598Y-80510472D01*
X137106603Y-80510481D01*
X137175928Y-80614232D01*
X137175931Y-80614236D01*
X138119732Y-81558036D01*
X138153217Y-81619359D01*
X138153668Y-81621526D01*
X138175468Y-81731123D01*
X138175470Y-81731131D01*
X138236417Y-81878269D01*
X138324895Y-82010687D01*
X138324901Y-82010694D01*
X138437506Y-82123299D01*
X138437509Y-82123301D01*
X138437511Y-82123303D01*
X138504595Y-82168127D01*
X138549399Y-82221737D01*
X138558107Y-82291062D01*
X138527953Y-82354090D01*
X138523385Y-82358909D01*
X135522581Y-85359714D01*
X135461258Y-85393199D01*
X135391566Y-85388215D01*
X135335633Y-85346343D01*
X135311216Y-85280879D01*
X135310900Y-85272033D01*
X135310900Y-77416466D01*
X135330585Y-77349427D01*
X135347219Y-77328785D01*
X135548811Y-77127194D01*
X135764872Y-76911133D01*
X135834201Y-76807375D01*
X135881955Y-76692085D01*
X135882404Y-76689831D01*
X135906299Y-76569698D01*
X135906300Y-76569695D01*
X135906300Y-66572705D01*
X135906299Y-66572701D01*
X135881957Y-66450322D01*
X135881954Y-66450313D01*
X135871682Y-66425513D01*
X135834201Y-66335025D01*
X135834199Y-66335023D01*
X135834199Y-66335021D01*
X135764872Y-66231267D01*
X135764869Y-66231263D01*
X134607219Y-65073613D01*
X134573734Y-65012290D01*
X134570900Y-64985932D01*
X134570900Y-64465999D01*
X134590585Y-64398960D01*
X134643389Y-64353205D01*
X134694900Y-64341999D01*
X134878000Y-64341999D01*
X134878000Y-63425012D01*
X134935007Y-63457925D01*
X135062174Y-63492000D01*
X135193826Y-63492000D01*
X135320993Y-63457925D01*
X135378000Y-63425012D01*
X135378000Y-64341999D01*
G37*
%TD.AperFunction*%
%TA.AperFunction,Conductor*%
G36*
X152442075Y-60644993D02*
G01*
X152507901Y-60759007D01*
X152600993Y-60852099D01*
X152715007Y-60917925D01*
X152778590Y-60934962D01*
X152146282Y-61567269D01*
X152146282Y-61567270D01*
X152200449Y-61606624D01*
X152200682Y-61606743D01*
X152200755Y-61606812D01*
X152204604Y-61609171D01*
X152204108Y-61609979D01*
X152251479Y-61654716D01*
X152268275Y-61722537D01*
X152245739Y-61788672D01*
X152200693Y-61827709D01*
X152195994Y-61830103D01*
X152022993Y-61955796D01*
X151871796Y-62106993D01*
X151746105Y-62279991D01*
X151743727Y-62283873D01*
X151691914Y-62330748D01*
X151622984Y-62342169D01*
X151558822Y-62314512D01*
X151532273Y-62283873D01*
X151529894Y-62279991D01*
X151493573Y-62229999D01*
X151404206Y-62106996D01*
X151253004Y-61955794D01*
X151080009Y-61830106D01*
X151080005Y-61830103D01*
X151076132Y-61827730D01*
X151029254Y-61775920D01*
X151017829Y-61706991D01*
X151045483Y-61642827D01*
X151076132Y-61616270D01*
X151080005Y-61613896D01*
X151080004Y-61613896D01*
X151080009Y-61613894D01*
X151253004Y-61488206D01*
X151404206Y-61337004D01*
X151529894Y-61164009D01*
X151532283Y-61159319D01*
X151580254Y-61108522D01*
X151648074Y-61091724D01*
X151714210Y-61114258D01*
X151750196Y-61155783D01*
X151750829Y-61155396D01*
X151753167Y-61159211D01*
X151753251Y-61159308D01*
X151753371Y-61159545D01*
X151753373Y-61159547D01*
X151792728Y-61213716D01*
X152425036Y-60581407D01*
X152442075Y-60644993D01*
G37*
%TD.AperFunction*%
%TD*%
M02*
