%TF.GenerationSoftware,KiCad,Pcbnew,9.0.7*%
%TF.CreationDate,2026-02-09T23:27:38+01:00*%
%TF.ProjectId,Pi1551-III Module,50693135-3531-42d4-9949-49204d6f6475,1*%
%TF.SameCoordinates,Original*%
%TF.FileFunction,Copper,L1,Top*%
%TF.FilePolarity,Positive*%
%FSLAX46Y46*%
G04 Gerber Fmt 4.6, Leading zero omitted, Abs format (unit mm)*
G04 Created by KiCad (PCBNEW 9.0.7) date 2026-02-09 23:27:38*
%MOMM*%
%LPD*%
G01*
G04 APERTURE LIST*
G04 Aperture macros list*
%AMRoundRect*
0 Rectangle with rounded corners*
0 $1 Rounding radius*
0 $2 $3 $4 $5 $6 $7 $8 $9 X,Y pos of 4 corners*
0 Add a 4 corners polygon primitive as box body*
4,1,4,$2,$3,$4,$5,$6,$7,$8,$9,$2,$3,0*
0 Add four circle primitives for the rounded corners*
1,1,$1+$1,$2,$3*
1,1,$1+$1,$4,$5*
1,1,$1+$1,$6,$7*
1,1,$1+$1,$8,$9*
0 Add four rect primitives between the rounded corners*
20,1,$1+$1,$2,$3,$4,$5,0*
20,1,$1+$1,$4,$5,$6,$7,0*
20,1,$1+$1,$6,$7,$8,$9,0*
20,1,$1+$1,$8,$9,$2,$3,0*%
%AMFreePoly0*
4,1,23,0.550000,-0.750000,0.000000,-0.750000,0.000000,-0.745722,-0.065263,-0.745722,-0.191342,-0.711940,-0.304381,-0.646677,-0.396677,-0.554381,-0.461940,-0.441342,-0.495722,-0.315263,-0.495722,-0.250000,-0.500000,-0.250000,-0.500000,0.250000,-0.495722,0.250000,-0.495722,0.315263,-0.461940,0.441342,-0.396677,0.554381,-0.304381,0.646677,-0.191342,0.711940,-0.065263,0.745722,0.000000,0.745722,
0.000000,0.750000,0.550000,0.750000,0.550000,-0.750000,0.550000,-0.750000,$1*%
%AMFreePoly1*
4,1,23,0.000000,0.745722,0.065263,0.745722,0.191342,0.711940,0.304381,0.646677,0.396677,0.554381,0.461940,0.441342,0.495722,0.315263,0.495722,0.250000,0.500000,0.250000,0.500000,-0.250000,0.495722,-0.250000,0.495722,-0.315263,0.461940,-0.441342,0.396677,-0.554381,0.304381,-0.646677,0.191342,-0.711940,0.065263,-0.745722,0.000000,-0.745722,0.000000,-0.750000,-0.550000,-0.750000,
-0.550000,0.750000,0.000000,0.750000,0.000000,0.745722,0.000000,0.745722,$1*%
G04 Aperture macros list end*
%TA.AperFunction,EtchedComponent*%
%ADD10C,0.000000*%
%TD*%
%TA.AperFunction,WasherPad*%
%ADD11C,3.500000*%
%TD*%
%TA.AperFunction,ComponentPad*%
%ADD12R,1.600000X1.600000*%
%TD*%
%TA.AperFunction,ComponentPad*%
%ADD13C,1.600000*%
%TD*%
%TA.AperFunction,ComponentPad*%
%ADD14R,3.500000X3.500000*%
%TD*%
%TA.AperFunction,ComponentPad*%
%ADD15R,1.700000X1.700000*%
%TD*%
%TA.AperFunction,ComponentPad*%
%ADD16O,1.700000X1.700000*%
%TD*%
%TA.AperFunction,ComponentPad*%
%ADD17R,3.000000X2.000000*%
%TD*%
%TA.AperFunction,ComponentPad*%
%ADD18R,2.000000X2.000000*%
%TD*%
%TA.AperFunction,ComponentPad*%
%ADD19C,2.000000*%
%TD*%
%TA.AperFunction,ComponentPad*%
%ADD20O,3.000000X2.000000*%
%TD*%
%TA.AperFunction,SMDPad,CuDef*%
%ADD21RoundRect,0.250000X-0.350000X-0.450000X0.350000X-0.450000X0.350000X0.450000X-0.350000X0.450000X0*%
%TD*%
%TA.AperFunction,SMDPad,CuDef*%
%ADD22RoundRect,0.250000X-0.450000X0.350000X-0.450000X-0.350000X0.450000X-0.350000X0.450000X0.350000X0*%
%TD*%
%TA.AperFunction,SMDPad,CuDef*%
%ADD23RoundRect,0.225000X0.375000X-0.225000X0.375000X0.225000X-0.375000X0.225000X-0.375000X-0.225000X0*%
%TD*%
%TA.AperFunction,ComponentPad*%
%ADD24RoundRect,0.250000X0.600000X-0.600000X0.600000X0.600000X-0.600000X0.600000X-0.600000X-0.600000X0*%
%TD*%
%TA.AperFunction,ComponentPad*%
%ADD25C,1.700000*%
%TD*%
%TA.AperFunction,SMDPad,CuDef*%
%ADD26RoundRect,0.250000X0.350000X0.450000X-0.350000X0.450000X-0.350000X-0.450000X0.350000X-0.450000X0*%
%TD*%
%TA.AperFunction,ComponentPad*%
%ADD27C,1.200000*%
%TD*%
%TA.AperFunction,ComponentPad*%
%ADD28RoundRect,0.600000X0.000010X-0.700000X0.000010X0.700000X-0.000010X0.700000X-0.000010X-0.700000X0*%
%TD*%
%TA.AperFunction,ComponentPad*%
%ADD29RoundRect,0.600000X-0.700000X-0.000010X0.700000X-0.000010X0.700000X0.000010X-0.700000X0.000010X0*%
%TD*%
%TA.AperFunction,SMDPad,CuDef*%
%ADD30FreePoly0,270.000000*%
%TD*%
%TA.AperFunction,SMDPad,CuDef*%
%ADD31R,1.500000X1.000000*%
%TD*%
%TA.AperFunction,SMDPad,CuDef*%
%ADD32FreePoly1,270.000000*%
%TD*%
%TA.AperFunction,SMDPad,CuDef*%
%ADD33FreePoly0,90.000000*%
%TD*%
%TA.AperFunction,SMDPad,CuDef*%
%ADD34FreePoly1,90.000000*%
%TD*%
%TA.AperFunction,SMDPad,CuDef*%
%ADD35RoundRect,0.250000X0.450000X-0.350000X0.450000X0.350000X-0.450000X0.350000X-0.450000X-0.350000X0*%
%TD*%
%TA.AperFunction,SMDPad,CuDef*%
%ADD36RoundRect,0.200000X-0.750000X-0.200000X0.750000X-0.200000X0.750000X0.200000X-0.750000X0.200000X0*%
%TD*%
%TA.AperFunction,SMDPad,CuDef*%
%ADD37RoundRect,0.200000X0.750000X0.200000X-0.750000X0.200000X-0.750000X-0.200000X0.750000X-0.200000X0*%
%TD*%
%TA.AperFunction,ViaPad*%
%ADD38C,1.000000*%
%TD*%
%TA.AperFunction,ViaPad*%
%ADD39C,0.600000*%
%TD*%
%TA.AperFunction,Conductor*%
%ADD40C,0.400000*%
%TD*%
%TA.AperFunction,Conductor*%
%ADD41C,1.200000*%
%TD*%
%TA.AperFunction,Conductor*%
%ADD42C,0.250000*%
%TD*%
G04 APERTURE END LIST*
D10*
%TA.AperFunction,EtchedComponent*%
%TO.C,JP1*%
G36*
X110800000Y-71893000D02*
G01*
X110200000Y-71893000D01*
X110200000Y-71393000D01*
X110800000Y-71393000D01*
X110800000Y-71893000D01*
G37*
%TD.AperFunction*%
%TA.AperFunction,EtchedComponent*%
%TO.C,JP2*%
G36*
X121300000Y-73200000D02*
G01*
X120700000Y-73200000D01*
X120700000Y-72700000D01*
X121300000Y-72700000D01*
X121300000Y-73200000D01*
G37*
%TD.AperFunction*%
%TD*%
D11*
%TO.P,M1,*%
%TO.N,*%
X73355000Y-151435000D03*
%TD*%
D12*
%TO.P,C6,1*%
%TO.N,+5V*%
X91440000Y-62230000D03*
D13*
%TO.P,C6,2*%
%TO.N,GND*%
X94940000Y-62230000D03*
%TD*%
D14*
%TO.P,J1,1*%
%TO.N,+5V*%
X83185000Y-68580000D03*
%TO.P,J1,2*%
%TO.N,GND*%
X83185000Y-62580000D03*
%TO.P,J1,3*%
X78485000Y-65580000D03*
%TD*%
D15*
%TO.P,J8,1,GND*%
%TO.N,GND*%
X112560000Y-140970000D03*
D16*
%TO.P,J8,2,LED_PWR*%
%TO.N,LED_PWR*%
X115100000Y-140970000D03*
%TO.P,J8,3,LED_ACT*%
%TO.N,LED_ACT*%
X117640000Y-140970000D03*
%TO.P,J8,4,SCL*%
%TO.N,I2C_SCL*%
X120180000Y-140970000D03*
%TO.P,J8,5,SDA*%
%TO.N,I2C_SDA*%
X122720000Y-140970000D03*
%TO.P,J8,6,ENTER*%
%TO.N,SW1_ENTER*%
X125260000Y-140970000D03*
%TO.P,J8,7,UP*%
%TO.N,SW2_UP*%
X127800000Y-140970000D03*
%TO.P,J8,8,DOWN*%
%TO.N,SW3_DOWN*%
X130340000Y-140970000D03*
%TO.P,J8,9,BACK*%
%TO.N,SW4_BACK*%
X132880000Y-140970000D03*
%TO.P,J8,10,INSERT*%
%TO.N,SW5_INSERT*%
X135420000Y-140970000D03*
%TO.P,J8,11,GND*%
%TO.N,GND*%
X137960000Y-140970000D03*
%TO.P,J8,12,VCC*%
%TO.N,+3.3V*%
X140500000Y-140970000D03*
%TD*%
D11*
%TO.P,M2,*%
%TO.N,*%
X167005000Y-151435000D03*
%TD*%
%TO.P,M3,*%
%TO.N,*%
X167005000Y-57785000D03*
%TD*%
%TO.P,M4,*%
%TO.N,*%
X73355000Y-57785000D03*
%TD*%
D17*
%TO.P,BZ1,1,1*%
%TO.N,Net-(A1-PWM1{slash}GPIO13)*%
X73660000Y-76835000D03*
D18*
X75470000Y-76835000D03*
D19*
%TO.P,BZ1,2,2*%
%TO.N,GND*%
X79450000Y-76835000D03*
D20*
X81260000Y-76835000D03*
%TD*%
D11*
%TO.P,A1,*%
%TO.N,*%
X166160000Y-137535000D03*
X108160000Y-137535000D03*
D15*
%TO.P,A1,1,3V3*%
%TO.N,+3.3V*%
X161290000Y-89805000D03*
D16*
%TO.P,A1,2,5V*%
%TO.N,+5V*%
X161290000Y-87265000D03*
%TO.P,A1,3,SDA/GPIO2*%
%TO.N,I2C_SDA*%
X158750000Y-89805000D03*
%TO.P,A1,4,5V*%
%TO.N,+5V*%
X158750000Y-87265000D03*
%TO.P,A1,5,SCL/GPIO3*%
%TO.N,I2C_SCL*%
X156210000Y-89805000D03*
%TO.P,A1,6,GND*%
%TO.N,GND*%
X156210000Y-87265000D03*
%TO.P,A1,7,GCLK0/GPIO4*%
%TO.N,SW4_BACK*%
X153670000Y-89805000D03*
%TO.P,A1,8,GPIO14/TXD*%
%TO.N,/DIO1*%
X153670000Y-87265000D03*
%TO.P,A1,9,GND*%
%TO.N,GND*%
X151130000Y-89805000D03*
%TO.P,A1,10,GPIO15/RXD*%
%TO.N,/DIO2*%
X151130000Y-87265000D03*
%TO.P,A1,11,GPIO17*%
%TO.N,SW3_DOWN*%
X148590000Y-89805000D03*
%TO.P,A1,12,GPIO18/PWM0*%
%TO.N,/DIO3*%
X148590000Y-87265000D03*
%TO.P,A1,13,GPIO27*%
%TO.N,SW1_ENTER*%
X146050000Y-89805000D03*
%TO.P,A1,14,GND*%
%TO.N,GND*%
X146050000Y-87265000D03*
%TO.P,A1,15,GPIO22*%
%TO.N,SW2_UP*%
X143510000Y-89805000D03*
%TO.P,A1,16,GPIO23*%
%TO.N,/DIO4*%
X143510000Y-87265000D03*
%TO.P,A1,17,3V3*%
%TO.N,+3.3V*%
X140970000Y-89805000D03*
%TO.P,A1,18,GPIO24*%
%TO.N,/DIO5*%
X140970000Y-87265000D03*
%TO.P,A1,19,MOSI0/GPIO10*%
%TO.N,RPI_LED*%
X138430000Y-89805000D03*
%TO.P,A1,20,GND*%
%TO.N,GND*%
X138430000Y-87265000D03*
%TO.P,A1,21,MISO0/GPIO9*%
%TO.N,/DEV*%
X135890000Y-89805000D03*
%TO.P,A1,22,GPIO25*%
%TO.N,/DIO6*%
X135890000Y-87265000D03*
%TO.P,A1,23,SCLK0/GPIO11*%
%TO.N,/~{RESET_3V3}*%
X133350000Y-89805000D03*
%TO.P,A1,24,~{CE0}/GPIO8*%
%TO.N,/DIO7*%
X133350000Y-87265000D03*
%TO.P,A1,25,GND*%
%TO.N,GND*%
X130810000Y-89805000D03*
%TO.P,A1,26,~{CE1}/GPIO7*%
%TO.N,/DIO8*%
X130810000Y-87265000D03*
%TO.P,A1,27,ID_SD/GPIO0*%
%TO.N,/TAP_SENSE*%
X128270000Y-89805000D03*
%TO.P,A1,28,ID_SC/GPIO1*%
%TO.N,unconnected-(A1-ID_SC{slash}GPIO1-Pad28)*%
X128270000Y-87265000D03*
%TO.P,A1,29,GCLK1/GPIO5*%
%TO.N,SW5_INSERT*%
X125730000Y-89805000D03*
%TO.P,A1,30,GND*%
%TO.N,GND*%
X125730000Y-87265000D03*
%TO.P,A1,31,GCLK2/GPIO6*%
%TO.N,/TAP_MOTOR*%
X123190000Y-89805000D03*
%TO.P,A1,32,PWM0/GPIO12*%
%TO.N,/DAV*%
X123190000Y-87265000D03*
%TO.P,A1,33,PWM1/GPIO13*%
%TO.N,Net-(A1-PWM1{slash}GPIO13)*%
X120650000Y-89805000D03*
%TO.P,A1,34,GND*%
%TO.N,GND*%
X120650000Y-87265000D03*
%TO.P,A1,35,GPIO19/MISO1*%
%TO.N,/TAP_READ*%
X118110000Y-89805000D03*
%TO.P,A1,36,GPIO16*%
%TO.N,/STATUS0*%
X118110000Y-87265000D03*
%TO.P,A1,37,GPIO26*%
%TO.N,/TAP_WRITE*%
X115570000Y-89805000D03*
%TO.P,A1,38,GPIO20/MOSI1*%
%TO.N,/ACK*%
X115570000Y-87265000D03*
%TO.P,A1,39,GND*%
%TO.N,GND*%
X113030000Y-89805000D03*
%TO.P,A1,40,GPIO21/SCLK1*%
%TO.N,/STATUS1*%
X113030000Y-87265000D03*
%TD*%
D21*
%TO.P,R7,1*%
%TO.N,/VCC_5V*%
X98000000Y-80428000D03*
%TO.P,R7,2*%
%TO.N,/CAS_READ*%
X100000000Y-80428000D03*
%TD*%
%TO.P,R6,1*%
%TO.N,Net-(Q2-B)*%
X98008000Y-77126000D03*
%TO.P,R6,2*%
%TO.N,/TAP_READ*%
X100008000Y-77126000D03*
%TD*%
D22*
%TO.P,R3,1*%
%TO.N,RPI_LED*%
X120142000Y-130318000D03*
%TO.P,R3,2*%
%TO.N,LED_ACT*%
X120142000Y-132318000D03*
%TD*%
D23*
%TO.P,D2,1,K*%
%TO.N,/~{RESET}*%
X152908000Y-80136000D03*
%TO.P,D2,2,A*%
%TO.N,/~{RESET_3V3}*%
X152908000Y-76836000D03*
%TD*%
D24*
%TO.P,J3,1,Pin_1*%
%TO.N,GND*%
X135128000Y-62992000D03*
D25*
%TO.P,J3,2,Pin_2*%
%TO.N,/DEV*%
X135128000Y-60452000D03*
%TO.P,J3,3,Pin_3*%
%TO.N,/DIO1*%
X137668000Y-62992000D03*
%TO.P,J3,4,Pin_4*%
%TO.N,/DIO2*%
X137668000Y-60452000D03*
%TO.P,J3,5,Pin_5*%
%TO.N,/DIO3*%
X140208000Y-62992000D03*
%TO.P,J3,6,Pin_6*%
%TO.N,/DIO4*%
X140208000Y-60452000D03*
%TO.P,J3,7,Pin_7*%
%TO.N,/DIO5*%
X142748000Y-62992000D03*
%TO.P,J3,8,Pin_8*%
%TO.N,/DIO6*%
X142748000Y-60452000D03*
%TO.P,J3,9,Pin_9*%
%TO.N,/DIO7*%
X145288000Y-62992000D03*
%TO.P,J3,10,Pin_10*%
%TO.N,/DIO8*%
X145288000Y-60452000D03*
%TO.P,J3,11,Pin_11*%
%TO.N,/DAV*%
X147828000Y-62992000D03*
%TO.P,J3,12,Pin_12*%
%TO.N,/STATUS0*%
X147828000Y-60452000D03*
%TO.P,J3,13,Pin_13*%
%TO.N,/ACK*%
X150368000Y-62992000D03*
%TO.P,J3,14,Pin_14*%
%TO.N,/STATUS1*%
X150368000Y-60452000D03*
%TO.P,J3,15,Pin_15*%
%TO.N,/~{RESET}*%
X152908000Y-62992000D03*
%TO.P,J3,16,Pin_16*%
%TO.N,GND*%
X152908000Y-60452000D03*
%TD*%
D26*
%TO.P,R11,1*%
%TO.N,+3.3V*%
X133500000Y-70186000D03*
%TO.P,R11,2*%
%TO.N,Net-(JP2-A)*%
X131500000Y-70186000D03*
%TD*%
D27*
%TO.P,J4,1*%
%TO.N,GND*%
X116400000Y-63500000D03*
%TO.P,J4,2*%
%TO.N,/VCC_5V*%
X119000000Y-63500000D03*
%TO.P,J4,3*%
%TO.N,/CAS_MOTOR*%
X114300000Y-63500000D03*
%TO.P,J4,4*%
%TO.N,/CAS_READ*%
X121100000Y-63500000D03*
%TO.P,J4,5*%
%TO.N,/CAS_WRITE*%
X114300000Y-66000000D03*
%TO.P,J4,6*%
%TO.N,/CAS_SENSE*%
X118600000Y-66000000D03*
%TO.P,J4,7*%
%TO.N,GND*%
X121100000Y-66000000D03*
D28*
%TO.P,J4,SH*%
%TO.N,N/C*%
X110950000Y-60500000D03*
D29*
X117700000Y-59700000D03*
D28*
X124450000Y-60500000D03*
%TD*%
D30*
%TO.P,JP1,1,A*%
%TO.N,Net-(JP1-A)*%
X110500000Y-70993000D03*
D31*
%TO.P,JP1,2,C*%
%TO.N,/CAS_SENSE*%
X110500000Y-72293000D03*
D32*
%TO.P,JP1,3,B*%
%TO.N,GND*%
X110500000Y-73593000D03*
%TD*%
D33*
%TO.P,JP2,1,A*%
%TO.N,Net-(JP2-A)*%
X121000000Y-73600000D03*
D31*
%TO.P,JP2,2,C*%
%TO.N,/TAP_MOTOR*%
X121000000Y-72300000D03*
D34*
%TO.P,JP2,3,B*%
%TO.N,GND*%
X121000000Y-71000000D03*
%TD*%
D35*
%TO.P,R2,1*%
%TO.N,LED_PWR*%
X114906000Y-132318000D03*
%TO.P,R2,2*%
%TO.N,+3.3V*%
X114906000Y-130318000D03*
%TD*%
D21*
%TO.P,R4,1*%
%TO.N,Net-(Q1-B)*%
X98008000Y-70150000D03*
%TO.P,R4,2*%
%TO.N,/TAP_SENSE*%
X100008000Y-70150000D03*
%TD*%
D35*
%TO.P,R1,1*%
%TO.N,+3.3V*%
X147320000Y-79486000D03*
%TO.P,R1,2*%
%TO.N,/~{RESET_3V3}*%
X147320000Y-77486000D03*
%TD*%
D26*
%TO.P,R9,1*%
%TO.N,+3.3V*%
X133500000Y-77186000D03*
%TO.P,R9,2*%
%TO.N,/TAP_WRITE*%
X131500000Y-77186000D03*
%TD*%
D36*
%TO.P,Q1,1,B*%
%TO.N,Net-(Q1-B)*%
X103500000Y-71356000D03*
%TO.P,Q1,2,E*%
%TO.N,GND*%
X103500000Y-73256000D03*
%TO.P,Q1,3,C*%
%TO.N,Net-(JP1-A)*%
X106500000Y-72306000D03*
%TD*%
D26*
%TO.P,R10,1*%
%TO.N,Net-(Q4-B)*%
X133500000Y-73776000D03*
%TO.P,R10,2*%
%TO.N,/CAS_MOTOR*%
X131500000Y-73776000D03*
%TD*%
%TO.P,R8,1*%
%TO.N,Net-(Q3-B)*%
X133500000Y-80686000D03*
%TO.P,R8,2*%
%TO.N,/CAS_WRITE*%
X131500000Y-80686000D03*
%TD*%
D36*
%TO.P,Q2,1,B*%
%TO.N,Net-(Q2-B)*%
X103500000Y-77700000D03*
%TO.P,Q2,2,E*%
%TO.N,GND*%
X103500000Y-79600000D03*
%TO.P,Q2,3,C*%
%TO.N,/CAS_READ*%
X106500000Y-78650000D03*
%TD*%
D37*
%TO.P,Q4,1,B*%
%TO.N,Net-(Q4-B)*%
X128000000Y-73136000D03*
%TO.P,Q4,2,E*%
%TO.N,GND*%
X128000000Y-71236000D03*
%TO.P,Q4,3,C*%
%TO.N,Net-(JP2-A)*%
X125000000Y-72186000D03*
%TD*%
%TO.P,Q3,1,B*%
%TO.N,Net-(Q3-B)*%
X128000000Y-79660000D03*
%TO.P,Q3,2,E*%
%TO.N,GND*%
X128000000Y-77760000D03*
%TO.P,Q3,3,C*%
%TO.N,/TAP_WRITE*%
X125000000Y-78710000D03*
%TD*%
D21*
%TO.P,R5,1*%
%TO.N,/VCC_5V*%
X98008000Y-73642000D03*
%TO.P,R5,2*%
%TO.N,Net-(JP1-A)*%
X100008000Y-73642000D03*
%TD*%
D38*
%TO.N,GND*%
X122704300Y-78532400D03*
X129960500Y-70717600D03*
X100111700Y-64548100D03*
X101658600Y-73769700D03*
X118707200Y-70717600D03*
X113030000Y-91737900D03*
X130990900Y-62571800D03*
X138381700Y-84565600D03*
X101549600Y-79560500D03*
X154652000Y-60603400D03*
X122124400Y-84968700D03*
X118585800Y-67520500D03*
X77447800Y-61876300D03*
X125290300Y-85197300D03*
X129960500Y-76611800D03*
D39*
%TO.N,I2C_SCL*%
X157019500Y-94294400D03*
X123684600Y-97241500D03*
%TO.N,I2C_SDA*%
X124472300Y-123765400D03*
X157019500Y-123765400D03*
%TO.N,SW5_INSERT*%
X136389800Y-128860300D03*
X130495600Y-129659600D03*
%TO.N,SW4_BACK*%
X149183400Y-128691000D03*
X133442700Y-129659600D03*
%TO.N,RPI_LED*%
X133206100Y-126712500D03*
X132421300Y-91000700D03*
%TO.N,SW1_ENTER*%
X124366000Y-91739900D03*
%TO.N,SW3_DOWN*%
X139336900Y-138500900D03*
%TO.N,SW2_UP*%
X142784100Y-96273700D03*
X127548500Y-135553800D03*
X133960600Y-135553800D03*
X136001000Y-96490400D03*
%TO.N,LED_ACT*%
X118337300Y-132606700D03*
%TO.N,LED_PWR*%
X116420300Y-132606700D03*
%TO.N,Net-(A1-PWM1{slash}GPIO13)*%
X74500700Y-82506000D03*
X119463200Y-85826500D03*
%TO.N,+3.3V*%
X141996800Y-92341900D03*
X137210700Y-131785800D03*
X134621200Y-70717600D03*
X134453400Y-75866800D03*
X136389800Y-139300200D03*
X143002000Y-79486000D03*
X136389800Y-132606700D03*
%TO.N,/TAP_WRITE*%
X118585800Y-79104400D03*
X129411000Y-78525400D03*
X126975000Y-78710000D03*
%TO.N,/~{RESET_3V3}*%
X143811000Y-85198500D03*
X145188300Y-76611800D03*
%TO.N,/DIO2*%
X150929000Y-76249600D03*
X138977800Y-73994700D03*
%TO.N,/TAP_READ*%
X101319200Y-77432600D03*
X104919600Y-88400200D03*
%TO.N,/DIO8*%
X133123600Y-59528300D03*
%TO.N,/TAP_MOTOR*%
X122440500Y-72495600D03*
%TO.N,/DIO1*%
X138952900Y-81495300D03*
%TO.N,/DIO7*%
X145060200Y-67369000D03*
X134082400Y-67369000D03*
%TO.N,/STATUS0*%
X120764700Y-64750000D03*
%TO.N,/ACK*%
X115760100Y-76610200D03*
X151392000Y-72726100D03*
%TO.N,/STATUS1*%
X125563600Y-59976600D03*
X125290300Y-80071600D03*
X112813000Y-79558900D03*
X151103900Y-58528800D03*
%TO.N,/TAP_SENSE*%
X121920000Y-88535000D03*
X121058800Y-69872000D03*
%TO.N,/DIO3*%
X148240600Y-78541200D03*
X141081700Y-76611800D03*
%TO.N,/DAV*%
X123691700Y-82506000D03*
X146009000Y-81514800D03*
%TO.N,/~{RESET}*%
X154527400Y-79558900D03*
%TO.N,/CAS_SENSE*%
X115760100Y-70717600D03*
X116066800Y-66024200D03*
%TO.N,/CAS_READ*%
X122155800Y-76989600D03*
%TO.N,/VCC_5V*%
X98077500Y-67770500D03*
X98952800Y-72621300D03*
X98001500Y-78906200D03*
X119344800Y-64750000D03*
%TO.N,/CAS_WRITE*%
X114865800Y-80358200D03*
%TO.N,/CAS_MOTOR*%
X129517200Y-72837800D03*
X128650600Y-69880800D03*
X115030100Y-69043300D03*
%TD*%
D40*
%TO.N,GND*%
X156210000Y-87265000D02*
X154958300Y-87265000D01*
X123780900Y-90984300D02*
X124603000Y-90984300D01*
X151130000Y-89805000D02*
X152381700Y-89805000D01*
X123476700Y-77760000D02*
X128000000Y-77760000D01*
X128518400Y-70717600D02*
X128000000Y-71236000D01*
X120650000Y-87265000D02*
X120650000Y-88516700D01*
X118757400Y-91737900D02*
X119380000Y-91115300D01*
X121100000Y-66000000D02*
X119579500Y-67520500D01*
X113811700Y-141517600D02*
X114567500Y-142273400D01*
X123649900Y-91115300D02*
X123780900Y-90984300D01*
X83185000Y-62580000D02*
X85336700Y-62580000D01*
X154254300Y-88516700D02*
X153151300Y-88516700D01*
X103460500Y-79560500D02*
X103500000Y-79600000D01*
X114567500Y-142273400D02*
X135923600Y-142273400D01*
X119380000Y-91115300D02*
X119380000Y-89268000D01*
X137750000Y-85197300D02*
X138381700Y-84565600D01*
X135923600Y-142273400D02*
X136708300Y-141488700D01*
X153151300Y-88516700D02*
X152381700Y-89286300D01*
X93738300Y-61028300D02*
X86888400Y-61028300D01*
X139681700Y-87265000D02*
X139681700Y-87812600D01*
X102172300Y-73256000D02*
X103500000Y-73256000D01*
X121901700Y-87265000D02*
X121901700Y-85648600D01*
X139681700Y-87812600D02*
X140404100Y-88535000D01*
X120131300Y-88516700D02*
X120650000Y-88516700D01*
X110500000Y-73593000D02*
X115831800Y-73593000D01*
X101658600Y-73769700D02*
X102172300Y-73256000D01*
X152908000Y-60452000D02*
X154500600Y-60452000D01*
X129960500Y-70717600D02*
X128518400Y-70717600D01*
X121000000Y-70874100D02*
X121000000Y-71000000D01*
X154958300Y-87265000D02*
X154958300Y-87812700D01*
X151630400Y-88535000D02*
X152381700Y-89286300D01*
X103500000Y-73256000D02*
X110163000Y-73256000D01*
X140404100Y-88535000D02*
X144798300Y-88535000D01*
X122353000Y-85197300D02*
X122124400Y-84968700D01*
X100111700Y-64548100D02*
X97793600Y-62230000D01*
X77447800Y-61876300D02*
X80329600Y-61876300D01*
X135128000Y-62992000D02*
X131411100Y-62992000D01*
X131411100Y-62992000D02*
X130990900Y-62571800D01*
X110163000Y-73256000D02*
X110500000Y-73593000D01*
X94940000Y-62230000D02*
X93738300Y-61028300D01*
X154500600Y-60452000D02*
X154652000Y-60603400D01*
X129960500Y-76611800D02*
X129148200Y-76611800D01*
X125290300Y-85197300D02*
X122353000Y-85197300D01*
X97793600Y-62230000D02*
X94940000Y-62230000D01*
X130810000Y-89805000D02*
X129558300Y-89805000D01*
X119380000Y-89268000D02*
X120131300Y-88516700D01*
X113030000Y-91737900D02*
X118757400Y-91737900D01*
X119579500Y-67520500D02*
X118585800Y-67520500D01*
X121901700Y-85648600D02*
X122353000Y-85197300D01*
X154958300Y-87812700D02*
X154254300Y-88516700D01*
X113811700Y-140970000D02*
X113811700Y-141517600D01*
X124741300Y-91122600D02*
X128759400Y-91122600D01*
X112560000Y-140970000D02*
X113811700Y-140970000D01*
X128361900Y-70874100D02*
X128518400Y-70717600D01*
X79450000Y-76835000D02*
X81260000Y-76835000D01*
X152381700Y-89286300D02*
X152381700Y-89805000D01*
X129558300Y-90323700D02*
X129558300Y-89805000D01*
X120650000Y-87265000D02*
X121901700Y-87265000D01*
X122704300Y-78532400D02*
X123476700Y-77760000D01*
X144798300Y-88535000D02*
X151630400Y-88535000D01*
X80329600Y-61876300D02*
X81033300Y-62580000D01*
X115831800Y-73593000D02*
X118707200Y-70717600D01*
X86888400Y-61028300D02*
X85336700Y-62580000D01*
X137960000Y-140970000D02*
X136708300Y-140970000D01*
X118707200Y-70717600D02*
X120843500Y-70717600D01*
X128759400Y-91122600D02*
X129558300Y-90323700D01*
X101549600Y-79560500D02*
X103460500Y-79560500D01*
X83185000Y-62580000D02*
X81033300Y-62580000D01*
X119380000Y-91115300D02*
X123649900Y-91115300D01*
X125290300Y-85197300D02*
X137750000Y-85197300D01*
X146050000Y-87265000D02*
X144798300Y-87265000D01*
X124603000Y-90984300D02*
X124741300Y-91122600D01*
X144798300Y-88535000D02*
X144798300Y-87265000D01*
X121000000Y-70874100D02*
X128361900Y-70874100D01*
X120843500Y-70717600D02*
X121000000Y-70874100D01*
X136708300Y-141488700D02*
X136708300Y-140970000D01*
X138430000Y-87265000D02*
X139681700Y-87265000D01*
X129148200Y-76611800D02*
X128000000Y-77760000D01*
D41*
%TO.N,+5V*%
X91440000Y-67440000D02*
X91440000Y-62230000D01*
X90420000Y-68580000D02*
X91500000Y-67500000D01*
X83185000Y-68580000D02*
X90420000Y-68580000D01*
D42*
%TO.N,I2C_SCL*%
X157019500Y-94294400D02*
X154072400Y-97241500D01*
X154072400Y-97241500D02*
X123684600Y-97241500D01*
%TO.N,I2C_SDA*%
X157019500Y-123765400D02*
X124472300Y-123765400D01*
%TO.N,SW5_INSERT*%
X136389800Y-128860300D02*
X131294900Y-128860300D01*
X131294900Y-128860300D02*
X130495600Y-129659600D01*
%TO.N,SW4_BACK*%
X133442700Y-129659600D02*
X148214800Y-129659600D01*
X148214800Y-129659600D02*
X149183400Y-128691000D01*
%TO.N,RPI_LED*%
X123747500Y-126712500D02*
X120142000Y-130318000D01*
X133206100Y-126712500D02*
X123747500Y-126712500D01*
X137253300Y-90172800D02*
X136425400Y-91000700D01*
X138430000Y-89805000D02*
X137253300Y-89805000D01*
X136425400Y-91000700D02*
X132421300Y-91000700D01*
X137253300Y-89805000D02*
X137253300Y-90172800D01*
%TO.N,SW1_ENTER*%
X124366000Y-91739900D02*
X124390700Y-91715200D01*
X124390700Y-91715200D02*
X143288600Y-91715200D01*
X143288600Y-91715200D02*
X144873300Y-90130500D01*
X146050000Y-89805000D02*
X144873300Y-89805000D01*
X144873300Y-90130500D02*
X144873300Y-89805000D01*
%TO.N,SW3_DOWN*%
X131516700Y-140970000D02*
X131516700Y-140602300D01*
X133618100Y-138500900D02*
X139336900Y-138500900D01*
X131516700Y-140602300D02*
X133618100Y-138500900D01*
X130340000Y-140970000D02*
X131516700Y-140970000D01*
%TO.N,SW2_UP*%
X133960600Y-135553800D02*
X127548500Y-135553800D01*
X142784100Y-96273700D02*
X136217700Y-96273700D01*
X136217700Y-96273700D02*
X136001000Y-96490400D01*
%TO.N,LED_ACT*%
X118337300Y-132606700D02*
X119853300Y-132606700D01*
X119853300Y-132606700D02*
X120142000Y-132318000D01*
%TO.N,LED_PWR*%
X116420300Y-132606700D02*
X115194700Y-132606700D01*
X115194700Y-132606700D02*
X114906000Y-132318000D01*
%TO.N,Net-(A1-PWM1{slash}GPIO13)*%
X119463200Y-85826500D02*
X116142700Y-82506000D01*
X73660000Y-76835000D02*
X75470000Y-76835000D01*
X116142700Y-82506000D02*
X74500700Y-82506000D01*
%TO.N,+3.3V*%
X161290000Y-89805000D02*
X160113300Y-89805000D01*
X135800000Y-79486000D02*
X143002000Y-79486000D01*
X160113300Y-89805000D02*
X160113300Y-90172700D01*
X160113300Y-90172700D02*
X157944100Y-92341900D01*
X136389800Y-132606700D02*
X137210700Y-131785800D01*
X133500000Y-77186000D02*
X135800000Y-79486000D01*
X134453400Y-75866800D02*
X133500000Y-76820200D01*
X157944100Y-92341900D02*
X141996800Y-92341900D01*
X139323300Y-140970000D02*
X139323300Y-140602300D01*
X115906000Y-131318000D02*
X114906000Y-130318000D01*
X138021200Y-139300200D02*
X136389800Y-139300200D01*
X136389800Y-132606700D02*
X135101100Y-131318000D01*
X134031600Y-70717600D02*
X133500000Y-70186000D01*
X134621200Y-70717600D02*
X134031600Y-70717600D01*
X147320000Y-79486000D02*
X143002000Y-79486000D01*
X139323300Y-140602300D02*
X138021200Y-139300200D01*
X135101100Y-131318000D02*
X115906000Y-131318000D01*
X133500000Y-76820200D02*
X133500000Y-77186000D01*
X140500000Y-140970000D02*
X139323300Y-140970000D01*
%TO.N,/TAP_WRITE*%
X130160600Y-78525400D02*
X131500000Y-77186000D01*
X129411000Y-78525400D02*
X130160600Y-78525400D01*
X126975000Y-78710000D02*
X125000000Y-78710000D01*
X122107200Y-79104400D02*
X122361900Y-79359100D01*
X118585800Y-79104400D02*
X122107200Y-79104400D01*
X122361900Y-79359100D02*
X124350900Y-79359100D01*
X124350900Y-79359100D02*
X125000000Y-78710000D01*
%TO.N,/~{RESET_3V3}*%
X137160000Y-86808800D02*
X138576500Y-85392300D01*
X137160000Y-87733300D02*
X137160000Y-86808800D01*
X146445800Y-76611800D02*
X147320000Y-77486000D01*
X134526700Y-89805000D02*
X134526700Y-89437200D01*
X147320000Y-77486000D02*
X152258000Y-77486000D01*
X138576500Y-85392300D02*
X143617200Y-85392300D01*
X152258000Y-77486000D02*
X152908000Y-76836000D01*
X145188300Y-76611800D02*
X146445800Y-76611800D01*
X135335600Y-88628300D02*
X136265000Y-88628300D01*
X134526700Y-89437200D02*
X135335600Y-88628300D01*
X133350000Y-89805000D02*
X134526700Y-89805000D01*
X136265000Y-88628300D02*
X137160000Y-87733300D01*
X143617200Y-85392300D02*
X143811000Y-85198500D01*
%TO.N,/DIO2*%
X138977800Y-73994700D02*
X148674100Y-73994700D01*
X148674100Y-73994700D02*
X150929000Y-76249600D01*
%TO.N,/TAP_READ*%
X100314600Y-77432600D02*
X100008000Y-77126000D01*
X104919600Y-88400200D02*
X105147700Y-88628300D01*
X116124400Y-88628300D02*
X116933300Y-89437200D01*
X116933300Y-89437200D02*
X116933300Y-89805000D01*
X105147700Y-88628300D02*
X116124400Y-88628300D01*
X101319200Y-77432600D02*
X100314600Y-77432600D01*
X118110000Y-89805000D02*
X116933300Y-89805000D01*
%TO.N,/DIO8*%
X145288000Y-59430900D02*
X145288000Y-60452000D01*
X134006300Y-58645600D02*
X144502700Y-58645600D01*
X144502700Y-58645600D02*
X145288000Y-59430900D01*
X133123600Y-59528300D02*
X134006300Y-58645600D01*
%TO.N,/TAP_MOTOR*%
X122272300Y-72495600D02*
X122076700Y-72300000D01*
X121000000Y-72300000D02*
X122076700Y-72300000D01*
X122440500Y-72495600D02*
X122272300Y-72495600D01*
%TO.N,/DIO1*%
X152493300Y-86897300D02*
X152493300Y-87265000D01*
X148728700Y-83132700D02*
X152493300Y-86897300D01*
X138952900Y-81495300D02*
X138568900Y-81879300D01*
X123432200Y-83132700D02*
X148728700Y-83132700D01*
X123065000Y-82765500D02*
X123432200Y-83132700D01*
X153670000Y-87265000D02*
X152493300Y-87265000D01*
X123432200Y-81879300D02*
X123065000Y-82246500D01*
X123065000Y-82246500D02*
X123065000Y-82765500D01*
X138568900Y-81879300D02*
X123432200Y-81879300D01*
%TO.N,/DIO7*%
X134335800Y-67115600D02*
X144806800Y-67115600D01*
X144806800Y-67115600D02*
X145060200Y-67369000D01*
X134082400Y-67369000D02*
X134335800Y-67115600D01*
%TO.N,/STATUS0*%
X146611300Y-61668700D02*
X129960900Y-61668700D01*
X129960900Y-61668700D02*
X126879600Y-64750000D01*
X126879600Y-64750000D02*
X120764700Y-64750000D01*
X147828000Y-60452000D02*
X146611300Y-61668700D01*
%TO.N,/ACK*%
X116601500Y-75768800D02*
X133576400Y-75768800D01*
X136619100Y-72726100D02*
X151392000Y-72726100D01*
X115760100Y-76610200D02*
X116601500Y-75768800D01*
X133576400Y-75768800D02*
X136619100Y-72726100D01*
%TO.N,/STATUS1*%
X112813000Y-79558900D02*
X112985200Y-79731100D01*
X112985200Y-79731100D02*
X122095100Y-79731100D01*
X122435600Y-80071600D02*
X125290300Y-80071600D01*
X150718300Y-58143200D02*
X127397000Y-58143200D01*
X151103900Y-58528800D02*
X150718300Y-58143200D01*
X127397000Y-58143200D02*
X125563600Y-59976600D01*
X122095100Y-79731100D02*
X122435600Y-80071600D01*
%TO.N,/TAP_SENSE*%
X128270000Y-89805000D02*
X127093300Y-89805000D01*
X127093300Y-89437300D02*
X127093300Y-89805000D01*
X121920000Y-88535000D02*
X126191000Y-88535000D01*
X100008000Y-70150000D02*
X100286000Y-69872000D01*
X100286000Y-69872000D02*
X121058800Y-69872000D01*
X126191000Y-88535000D02*
X127093300Y-89437300D01*
%TO.N,/DIO3*%
X141081700Y-76611800D02*
X143011100Y-78541200D01*
X143011100Y-78541200D02*
X148240600Y-78541200D01*
%TO.N,/DAV*%
X146009000Y-81514800D02*
X145017800Y-82506000D01*
X145017800Y-82506000D02*
X123691700Y-82506000D01*
%TO.N,/~{RESET}*%
X153485100Y-79558900D02*
X152908000Y-80136000D01*
X154527400Y-79558900D02*
X153485100Y-79558900D01*
%TO.N,/CAS_SENSE*%
X115760100Y-70717600D02*
X114184700Y-72293000D01*
X114184700Y-72293000D02*
X110500000Y-72293000D01*
X116066800Y-66024200D02*
X118575800Y-66024200D01*
X118575800Y-66024200D02*
X118600000Y-66000000D01*
%TO.N,Net-(JP1-A)*%
X100008000Y-73642000D02*
X101344000Y-72306000D01*
X101344000Y-72306000D02*
X106500000Y-72306000D01*
X107813000Y-70993000D02*
X110500000Y-70993000D01*
X106500000Y-72306000D02*
X107813000Y-70993000D01*
%TO.N,Net-(JP2-A)*%
X129767000Y-72186000D02*
X125000000Y-72186000D01*
X131500000Y-70453000D02*
X129767000Y-72186000D01*
X123586000Y-73600000D02*
X121000000Y-73600000D01*
X131500000Y-70186000D02*
X131500000Y-70453000D01*
X125000000Y-72186000D02*
X123586000Y-73600000D01*
%TO.N,Net-(Q1-B)*%
X99077000Y-71219000D02*
X98008000Y-70150000D01*
X102861600Y-70717600D02*
X103500000Y-71356000D01*
X101553600Y-70717600D02*
X101052200Y-71219000D01*
X101553600Y-70717600D02*
X102861600Y-70717600D01*
X101052200Y-71219000D02*
X99077000Y-71219000D01*
%TO.N,/CAS_READ*%
X100000000Y-79893600D02*
X101243600Y-78650000D01*
X101243600Y-78650000D02*
X106500000Y-78650000D01*
X120667700Y-78477700D02*
X106672300Y-78477700D01*
X122155800Y-76989600D02*
X120667700Y-78477700D01*
X106672300Y-78477700D02*
X106500000Y-78650000D01*
X100000000Y-80428000D02*
X100000000Y-79893600D01*
%TO.N,Net-(Q2-B)*%
X99036300Y-76097700D02*
X98008000Y-77126000D01*
X103500000Y-77700000D02*
X101897700Y-76097700D01*
X101897700Y-76097700D02*
X99036300Y-76097700D01*
%TO.N,Net-(Q3-B)*%
X128000000Y-79660000D02*
X128071200Y-79588800D01*
X132402800Y-79588800D02*
X133500000Y-80686000D01*
X128071200Y-79588800D02*
X132402800Y-79588800D01*
%TO.N,Net-(Q4-B)*%
X129715000Y-74851000D02*
X132425000Y-74851000D01*
X132425000Y-74851000D02*
X133500000Y-73776000D01*
X128000000Y-73136000D02*
X129715000Y-74851000D01*
%TO.N,/VCC_5V*%
X98952800Y-72621300D02*
X98008000Y-73566100D01*
X98000000Y-78907700D02*
X98000000Y-80428000D01*
X101098000Y-64750000D02*
X119344800Y-64750000D01*
X98001500Y-78906200D02*
X98000000Y-78907700D01*
X98008000Y-73566100D02*
X98008000Y-73642000D01*
X98077500Y-67770500D02*
X101098000Y-64750000D01*
%TO.N,/CAS_WRITE*%
X114865800Y-80358200D02*
X115235900Y-80728300D01*
X115235900Y-80728300D02*
X131457700Y-80728300D01*
X131457700Y-80728300D02*
X131500000Y-80686000D01*
%TO.N,/CAS_MOTOR*%
X115194100Y-69207300D02*
X115030100Y-69043300D01*
X129517200Y-72837800D02*
X130561800Y-72837800D01*
X130561800Y-72837800D02*
X131500000Y-73776000D01*
X127977100Y-69207300D02*
X115194100Y-69207300D01*
X128650600Y-69880800D02*
X127977100Y-69207300D01*
%TD*%
%TA.AperFunction,Conductor*%
%TO.N,GND*%
G36*
X151380000Y-91132230D02*
G01*
X151446126Y-91121757D01*
X151446129Y-91121757D01*
X151648217Y-91056095D01*
X151837557Y-90959620D01*
X152009459Y-90834727D01*
X152009464Y-90834723D01*
X152159723Y-90684464D01*
X152159727Y-90684459D01*
X152284619Y-90512560D01*
X152284738Y-90512327D01*
X152284808Y-90512252D01*
X152287168Y-90508402D01*
X152287976Y-90508897D01*
X152332707Y-90461526D01*
X152400526Y-90444723D01*
X152466663Y-90467254D01*
X152505712Y-90512311D01*
X152508105Y-90517008D01*
X152550002Y-90574674D01*
X152633794Y-90690004D01*
X152784996Y-90841206D01*
X152957991Y-90966894D01*
X153004756Y-90990722D01*
X153148516Y-91063972D01*
X153148519Y-91063973D01*
X153222185Y-91087908D01*
X153351884Y-91130049D01*
X153563084Y-91163500D01*
X153563085Y-91163500D01*
X153776915Y-91163500D01*
X153776916Y-91163500D01*
X153988116Y-91130049D01*
X154191483Y-91063972D01*
X154382009Y-90966894D01*
X154555004Y-90841206D01*
X154706206Y-90690004D01*
X154831894Y-90517009D01*
X154831896Y-90517004D01*
X154834270Y-90513132D01*
X154886080Y-90466254D01*
X154955009Y-90454829D01*
X155019173Y-90482483D01*
X155045730Y-90513132D01*
X155048103Y-90517005D01*
X155048105Y-90517008D01*
X155048106Y-90517009D01*
X155173794Y-90690004D01*
X155324996Y-90841206D01*
X155497991Y-90966894D01*
X155544756Y-90990722D01*
X155688516Y-91063972D01*
X155688519Y-91063973D01*
X155762185Y-91087908D01*
X155891884Y-91130049D01*
X156103084Y-91163500D01*
X156103085Y-91163500D01*
X156316915Y-91163500D01*
X156316916Y-91163500D01*
X156528116Y-91130049D01*
X156731483Y-91063972D01*
X156922009Y-90966894D01*
X157095004Y-90841206D01*
X157246206Y-90690004D01*
X157371894Y-90517009D01*
X157371896Y-90517004D01*
X157374270Y-90513132D01*
X157426080Y-90466254D01*
X157495009Y-90454829D01*
X157559173Y-90482483D01*
X157585730Y-90513132D01*
X157588103Y-90517005D01*
X157588105Y-90517008D01*
X157588106Y-90517009D01*
X157713794Y-90690004D01*
X157864996Y-90841206D01*
X157963416Y-90912712D01*
X158037992Y-90966895D01*
X158084756Y-90990722D01*
X158141107Y-91019434D01*
X158191904Y-91067408D01*
X158208699Y-91135229D01*
X158186162Y-91201364D01*
X158172494Y-91217600D01*
X157718015Y-91672081D01*
X157656692Y-91705566D01*
X157630334Y-91708400D01*
X144490666Y-91708400D01*
X144423627Y-91688715D01*
X144377872Y-91635911D01*
X144367928Y-91566753D01*
X144396953Y-91503197D01*
X144402985Y-91496719D01*
X144698340Y-91201364D01*
X145028428Y-90871275D01*
X145089749Y-90837792D01*
X145159440Y-90842776D01*
X145188988Y-90858637D01*
X145337991Y-90966894D01*
X145384756Y-90990722D01*
X145528516Y-91063972D01*
X145528519Y-91063973D01*
X145602185Y-91087908D01*
X145731884Y-91130049D01*
X145943084Y-91163500D01*
X145943085Y-91163500D01*
X146156915Y-91163500D01*
X146156916Y-91163500D01*
X146368116Y-91130049D01*
X146571483Y-91063972D01*
X146762009Y-90966894D01*
X146935004Y-90841206D01*
X147086206Y-90690004D01*
X147211894Y-90517009D01*
X147211896Y-90517004D01*
X147214270Y-90513132D01*
X147266080Y-90466254D01*
X147335009Y-90454829D01*
X147399173Y-90482483D01*
X147425730Y-90513132D01*
X147428103Y-90517005D01*
X147428105Y-90517008D01*
X147428106Y-90517009D01*
X147553794Y-90690004D01*
X147704996Y-90841206D01*
X147877991Y-90966894D01*
X147924756Y-90990722D01*
X148068516Y-91063972D01*
X148068519Y-91063973D01*
X148142185Y-91087908D01*
X148271884Y-91130049D01*
X148483084Y-91163500D01*
X148483085Y-91163500D01*
X148696915Y-91163500D01*
X148696916Y-91163500D01*
X148908116Y-91130049D01*
X149111483Y-91063972D01*
X149302009Y-90966894D01*
X149475004Y-90841206D01*
X149626206Y-90690004D01*
X149751894Y-90517009D01*
X149754283Y-90512319D01*
X149802254Y-90461522D01*
X149870074Y-90444724D01*
X149936210Y-90467258D01*
X149972201Y-90508788D01*
X149972832Y-90508402D01*
X149975164Y-90512207D01*
X149975251Y-90512308D01*
X149975376Y-90512554D01*
X150100272Y-90684459D01*
X150100276Y-90684464D01*
X150250535Y-90834723D01*
X150250540Y-90834727D01*
X150422442Y-90959620D01*
X150611782Y-91056095D01*
X150813871Y-91121757D01*
X150880000Y-91132231D01*
X150880000Y-90238012D01*
X150937007Y-90270925D01*
X151064174Y-90305000D01*
X151195826Y-90305000D01*
X151322993Y-90270925D01*
X151380000Y-90238012D01*
X151380000Y-91132230D01*
G37*
%TD.AperFunction*%
%TA.AperFunction,Conductor*%
G36*
X127079168Y-90482478D02*
G01*
X127105734Y-90513137D01*
X127108104Y-90517005D01*
X127108106Y-90517009D01*
X127233794Y-90690004D01*
X127384996Y-90841206D01*
X127407261Y-90857383D01*
X127449926Y-90912712D01*
X127455905Y-90982326D01*
X127423299Y-91044121D01*
X127362460Y-91078478D01*
X127334375Y-91081700D01*
X126665625Y-91081700D01*
X126598586Y-91062015D01*
X126552831Y-91009211D01*
X126542887Y-90940053D01*
X126571912Y-90876497D01*
X126592736Y-90857384D01*
X126615004Y-90841206D01*
X126766206Y-90690004D01*
X126891894Y-90517009D01*
X126891900Y-90516995D01*
X126894266Y-90513137D01*
X126946074Y-90466256D01*
X127015002Y-90454827D01*
X127079168Y-90482478D01*
G37*
%TD.AperFunction*%
%TA.AperFunction,Conductor*%
G36*
X129616210Y-90467258D02*
G01*
X129652201Y-90508788D01*
X129652832Y-90508402D01*
X129655164Y-90512207D01*
X129655251Y-90512308D01*
X129655376Y-90512554D01*
X129780272Y-90684459D01*
X129780276Y-90684464D01*
X129930533Y-90834721D01*
X129961722Y-90857381D01*
X130004388Y-90912711D01*
X130010367Y-90982324D01*
X129977762Y-91044120D01*
X129916924Y-91078477D01*
X129888837Y-91081700D01*
X129205625Y-91081700D01*
X129138586Y-91062015D01*
X129092831Y-91009211D01*
X129082887Y-90940053D01*
X129111912Y-90876497D01*
X129132736Y-90857384D01*
X129155004Y-90841206D01*
X129306206Y-90690004D01*
X129431894Y-90517009D01*
X129434283Y-90512319D01*
X129482254Y-90461522D01*
X129550074Y-90444724D01*
X129616210Y-90467258D01*
G37*
%TD.AperFunction*%
%TA.AperFunction,Conductor*%
G36*
X124539173Y-90482483D02*
G01*
X124565730Y-90513132D01*
X124568103Y-90517005D01*
X124568105Y-90517008D01*
X124568106Y-90517009D01*
X124693794Y-90690004D01*
X124693796Y-90690006D01*
X124783147Y-90779357D01*
X124816632Y-90840680D01*
X124811648Y-90910372D01*
X124769776Y-90966305D01*
X124704312Y-90990722D01*
X124648014Y-90981599D01*
X124601835Y-90962471D01*
X124601823Y-90962468D01*
X124445634Y-90931400D01*
X124445630Y-90931400D01*
X124286370Y-90931400D01*
X124284172Y-90931400D01*
X124217133Y-90911715D01*
X124171378Y-90858911D01*
X124161434Y-90789753D01*
X124190459Y-90726197D01*
X124196491Y-90719719D01*
X124226206Y-90690004D01*
X124351894Y-90517009D01*
X124351896Y-90517004D01*
X124354270Y-90513132D01*
X124406080Y-90466254D01*
X124475009Y-90454829D01*
X124539173Y-90482483D01*
G37*
%TD.AperFunction*%
%TA.AperFunction,Conductor*%
G36*
X152479168Y-87942478D02*
G01*
X152505734Y-87973137D01*
X152508103Y-87977004D01*
X152508106Y-87977009D01*
X152633794Y-88150004D01*
X152784996Y-88301206D01*
X152948248Y-88419815D01*
X152957991Y-88426894D01*
X152961873Y-88429273D01*
X153008748Y-88481086D01*
X153020169Y-88550016D01*
X152992512Y-88614178D01*
X152961873Y-88640727D01*
X152957991Y-88643105D01*
X152784993Y-88768796D01*
X152633796Y-88919993D01*
X152508103Y-89092994D01*
X152505709Y-89097693D01*
X152457731Y-89148485D01*
X152389908Y-89165275D01*
X152323775Y-89142732D01*
X152287800Y-89101210D01*
X152287168Y-89101598D01*
X152284829Y-89097781D01*
X152284743Y-89097682D01*
X152284620Y-89097441D01*
X152159727Y-88925540D01*
X152159723Y-88925535D01*
X152009464Y-88775276D01*
X152009459Y-88775272D01*
X151837553Y-88650376D01*
X151837554Y-88650376D01*
X151837308Y-88650251D01*
X151837231Y-88650178D01*
X151833402Y-88647832D01*
X151833895Y-88647027D01*
X151786515Y-88602274D01*
X151769724Y-88534451D01*
X151792266Y-88468318D01*
X151837319Y-88429283D01*
X151842009Y-88426894D01*
X152015004Y-88301206D01*
X152166206Y-88150004D01*
X152291894Y-87977009D01*
X152291900Y-87976995D01*
X152294266Y-87973137D01*
X152346074Y-87926256D01*
X152415002Y-87914827D01*
X152479168Y-87942478D01*
G37*
%TD.AperFunction*%
%TA.AperFunction,Conductor*%
G36*
X149939173Y-87942483D02*
G01*
X149965730Y-87973132D01*
X149968103Y-87977005D01*
X149968105Y-87977008D01*
X149968106Y-87977009D01*
X150093794Y-88150004D01*
X150244996Y-88301206D01*
X150314505Y-88351707D01*
X150417992Y-88426895D01*
X150422683Y-88429285D01*
X150473480Y-88477259D01*
X150490275Y-88545080D01*
X150467738Y-88611215D01*
X150426212Y-88647202D01*
X150426598Y-88647832D01*
X150422803Y-88650157D01*
X150422701Y-88650246D01*
X150422448Y-88650374D01*
X150422446Y-88650376D01*
X150250540Y-88775272D01*
X150250535Y-88775276D01*
X150100276Y-88925535D01*
X150100272Y-88925540D01*
X149975376Y-89097446D01*
X149975374Y-89097448D01*
X149975246Y-89097701D01*
X149975172Y-89097779D01*
X149972832Y-89101598D01*
X149972029Y-89101106D01*
X149927264Y-89148489D01*
X149859441Y-89165274D01*
X149793309Y-89142727D01*
X149754285Y-89097683D01*
X149751895Y-89092992D01*
X149642550Y-88942492D01*
X149626206Y-88919996D01*
X149475004Y-88768794D01*
X149302009Y-88643106D01*
X149302005Y-88643103D01*
X149298132Y-88640730D01*
X149251254Y-88588920D01*
X149239829Y-88519991D01*
X149267483Y-88455827D01*
X149298132Y-88429270D01*
X149302005Y-88426896D01*
X149302004Y-88426896D01*
X149302009Y-88426894D01*
X149475004Y-88301206D01*
X149626206Y-88150004D01*
X149751894Y-87977009D01*
X149751896Y-87977004D01*
X149754270Y-87973132D01*
X149806080Y-87926254D01*
X149875009Y-87914829D01*
X149939173Y-87942483D01*
G37*
%TD.AperFunction*%
%TA.AperFunction,Conductor*%
G36*
X119456210Y-87927258D02*
G01*
X119492201Y-87968788D01*
X119492832Y-87968402D01*
X119495164Y-87972207D01*
X119495251Y-87972308D01*
X119495376Y-87972554D01*
X119620272Y-88144459D01*
X119620276Y-88144464D01*
X119770535Y-88294723D01*
X119770540Y-88294727D01*
X119942441Y-88419620D01*
X119942682Y-88419743D01*
X119942758Y-88419815D01*
X119946598Y-88422168D01*
X119946103Y-88422974D01*
X119993479Y-88467716D01*
X120010275Y-88535537D01*
X119987739Y-88601672D01*
X119942693Y-88640709D01*
X119937994Y-88643103D01*
X119764993Y-88768796D01*
X119613796Y-88919993D01*
X119488105Y-89092991D01*
X119485727Y-89096873D01*
X119433914Y-89143748D01*
X119364984Y-89155169D01*
X119300822Y-89127512D01*
X119274273Y-89096873D01*
X119271894Y-89092991D01*
X119162550Y-88942492D01*
X119146206Y-88919996D01*
X118995004Y-88768794D01*
X118822009Y-88643106D01*
X118822005Y-88643103D01*
X118818132Y-88640730D01*
X118771254Y-88588920D01*
X118759829Y-88519991D01*
X118787483Y-88455827D01*
X118818132Y-88429270D01*
X118822005Y-88426896D01*
X118822004Y-88426896D01*
X118822009Y-88426894D01*
X118995004Y-88301206D01*
X119146206Y-88150004D01*
X119271894Y-87977009D01*
X119274283Y-87972319D01*
X119322254Y-87921522D01*
X119390074Y-87904724D01*
X119456210Y-87927258D01*
G37*
%TD.AperFunction*%
%TA.AperFunction,Conductor*%
G36*
X139766663Y-87927254D02*
G01*
X139805712Y-87972311D01*
X139808105Y-87977008D01*
X139816216Y-87988172D01*
X139933794Y-88150004D01*
X140084996Y-88301206D01*
X140248248Y-88419815D01*
X140257991Y-88426894D01*
X140261873Y-88429273D01*
X140308748Y-88481086D01*
X140320169Y-88550016D01*
X140292512Y-88614178D01*
X140261873Y-88640727D01*
X140257991Y-88643105D01*
X140084993Y-88768796D01*
X139933796Y-88919993D01*
X139808105Y-89092991D01*
X139805727Y-89096873D01*
X139753914Y-89143748D01*
X139684984Y-89155169D01*
X139620822Y-89127512D01*
X139594273Y-89096873D01*
X139591894Y-89092991D01*
X139482550Y-88942492D01*
X139466206Y-88919996D01*
X139315004Y-88768794D01*
X139199674Y-88685002D01*
X139142008Y-88643105D01*
X139137311Y-88640712D01*
X139086517Y-88592735D01*
X139069724Y-88524914D01*
X139092264Y-88458780D01*
X139133790Y-88422801D01*
X139133402Y-88422168D01*
X139137229Y-88419822D01*
X139137327Y-88419738D01*
X139137560Y-88419619D01*
X139309459Y-88294727D01*
X139309464Y-88294723D01*
X139459723Y-88144464D01*
X139459727Y-88144459D01*
X139584619Y-87972560D01*
X139584738Y-87972327D01*
X139584808Y-87972252D01*
X139587168Y-87968402D01*
X139587976Y-87968897D01*
X139632707Y-87921526D01*
X139700526Y-87904723D01*
X139766663Y-87927254D01*
G37*
%TD.AperFunction*%
%TA.AperFunction,Conductor*%
G36*
X142319173Y-87942483D02*
G01*
X142345730Y-87973132D01*
X142348103Y-87977005D01*
X142348105Y-87977008D01*
X142348106Y-87977009D01*
X142473794Y-88150004D01*
X142624996Y-88301206D01*
X142788248Y-88419815D01*
X142797991Y-88426894D01*
X142801873Y-88429273D01*
X142848748Y-88481086D01*
X142860169Y-88550016D01*
X142832512Y-88614178D01*
X142801873Y-88640727D01*
X142797991Y-88643105D01*
X142624993Y-88768796D01*
X142473796Y-88919993D01*
X142348105Y-89092991D01*
X142345727Y-89096873D01*
X142293914Y-89143748D01*
X142224984Y-89155169D01*
X142160822Y-89127512D01*
X142134273Y-89096873D01*
X142131894Y-89092991D01*
X142022550Y-88942492D01*
X142006206Y-88919996D01*
X141855004Y-88768794D01*
X141682009Y-88643106D01*
X141682005Y-88643103D01*
X141678132Y-88640730D01*
X141631254Y-88588920D01*
X141619829Y-88519991D01*
X141647483Y-88455827D01*
X141678132Y-88429270D01*
X141682005Y-88426896D01*
X141682004Y-88426896D01*
X141682009Y-88426894D01*
X141855004Y-88301206D01*
X142006206Y-88150004D01*
X142131894Y-87977009D01*
X142131896Y-87977004D01*
X142134270Y-87973132D01*
X142186080Y-87926254D01*
X142255009Y-87914829D01*
X142319173Y-87942483D01*
G37*
%TD.AperFunction*%
%TA.AperFunction,Conductor*%
G36*
X144856210Y-87927258D02*
G01*
X144892201Y-87968788D01*
X144892832Y-87968402D01*
X144895164Y-87972207D01*
X144895251Y-87972308D01*
X144895376Y-87972554D01*
X145020272Y-88144459D01*
X145020276Y-88144464D01*
X145170535Y-88294723D01*
X145170540Y-88294727D01*
X145342441Y-88419620D01*
X145342682Y-88419743D01*
X145342758Y-88419815D01*
X145346598Y-88422168D01*
X145346103Y-88422974D01*
X145393479Y-88467716D01*
X145410275Y-88535537D01*
X145387739Y-88601672D01*
X145342693Y-88640709D01*
X145337994Y-88643103D01*
X145164993Y-88768796D01*
X145013796Y-88919993D01*
X144888105Y-89092991D01*
X144885727Y-89096873D01*
X144833914Y-89143748D01*
X144764984Y-89155169D01*
X144700822Y-89127512D01*
X144674273Y-89096873D01*
X144671894Y-89092991D01*
X144562550Y-88942492D01*
X144546206Y-88919996D01*
X144395004Y-88768794D01*
X144222009Y-88643106D01*
X144222005Y-88643103D01*
X144218132Y-88640730D01*
X144171254Y-88588920D01*
X144159829Y-88519991D01*
X144187483Y-88455827D01*
X144218132Y-88429270D01*
X144222005Y-88426896D01*
X144222004Y-88426896D01*
X144222009Y-88426894D01*
X144395004Y-88301206D01*
X144546206Y-88150004D01*
X144671894Y-87977009D01*
X144674283Y-87972319D01*
X144722254Y-87921522D01*
X144790074Y-87904724D01*
X144856210Y-87927258D01*
G37*
%TD.AperFunction*%
%TA.AperFunction,Conductor*%
G36*
X147386663Y-87927254D02*
G01*
X147425712Y-87972311D01*
X147428105Y-87977008D01*
X147436216Y-87988172D01*
X147553794Y-88150004D01*
X147704996Y-88301206D01*
X147868248Y-88419815D01*
X147877991Y-88426894D01*
X147881873Y-88429273D01*
X147928748Y-88481086D01*
X147940169Y-88550016D01*
X147912512Y-88614178D01*
X147881873Y-88640727D01*
X147877991Y-88643105D01*
X147704993Y-88768796D01*
X147553796Y-88919993D01*
X147428105Y-89092991D01*
X147425727Y-89096873D01*
X147373914Y-89143748D01*
X147304984Y-89155169D01*
X147240822Y-89127512D01*
X147214273Y-89096873D01*
X147211894Y-89092991D01*
X147102550Y-88942492D01*
X147086206Y-88919996D01*
X146935004Y-88768794D01*
X146819674Y-88685002D01*
X146762008Y-88643105D01*
X146757311Y-88640712D01*
X146706517Y-88592735D01*
X146689724Y-88524914D01*
X146712264Y-88458780D01*
X146753790Y-88422801D01*
X146753402Y-88422168D01*
X146757229Y-88419822D01*
X146757327Y-88419738D01*
X146757560Y-88419619D01*
X146929459Y-88294727D01*
X146929464Y-88294723D01*
X147079723Y-88144464D01*
X147079727Y-88144459D01*
X147204619Y-87972560D01*
X147204738Y-87972327D01*
X147204808Y-87972252D01*
X147207168Y-87968402D01*
X147207976Y-87968897D01*
X147252707Y-87921526D01*
X147320526Y-87904723D01*
X147386663Y-87927254D01*
G37*
%TD.AperFunction*%
%TA.AperFunction,Conductor*%
G36*
X155016210Y-87927258D02*
G01*
X155052201Y-87968788D01*
X155052832Y-87968402D01*
X155055164Y-87972207D01*
X155055251Y-87972308D01*
X155055376Y-87972554D01*
X155180272Y-88144459D01*
X155180276Y-88144464D01*
X155330535Y-88294723D01*
X155330540Y-88294727D01*
X155502441Y-88419620D01*
X155502682Y-88419743D01*
X155502758Y-88419815D01*
X155506598Y-88422168D01*
X155506103Y-88422974D01*
X155553479Y-88467716D01*
X155570275Y-88535537D01*
X155547739Y-88601672D01*
X155502693Y-88640709D01*
X155497994Y-88643103D01*
X155324993Y-88768796D01*
X155173796Y-88919993D01*
X155048105Y-89092991D01*
X155045727Y-89096873D01*
X154993914Y-89143748D01*
X154924984Y-89155169D01*
X154860822Y-89127512D01*
X154834273Y-89096873D01*
X154831894Y-89092991D01*
X154722550Y-88942492D01*
X154706206Y-88919996D01*
X154555004Y-88768794D01*
X154382009Y-88643106D01*
X154382005Y-88643103D01*
X154378132Y-88640730D01*
X154331254Y-88588920D01*
X154319829Y-88519991D01*
X154347483Y-88455827D01*
X154378132Y-88429270D01*
X154382005Y-88426896D01*
X154382004Y-88426896D01*
X154382009Y-88426894D01*
X154555004Y-88301206D01*
X154706206Y-88150004D01*
X154831894Y-87977009D01*
X154834283Y-87972319D01*
X154882254Y-87921522D01*
X154950074Y-87904724D01*
X155016210Y-87927258D01*
G37*
%TD.AperFunction*%
%TA.AperFunction,Conductor*%
G36*
X112004789Y-79130885D02*
G01*
X112050544Y-79183689D01*
X112060488Y-79252847D01*
X112052311Y-79282653D01*
X112035570Y-79323068D01*
X112035568Y-79323076D01*
X112004500Y-79479265D01*
X112004500Y-79638534D01*
X112035568Y-79794723D01*
X112035570Y-79794731D01*
X112096517Y-79941869D01*
X112184995Y-80074287D01*
X112185001Y-80074294D01*
X112297605Y-80186898D01*
X112297612Y-80186904D01*
X112430030Y-80275382D01*
X112430031Y-80275382D01*
X112430032Y-80275383D01*
X112577169Y-80336330D01*
X112731279Y-80366984D01*
X112733365Y-80367399D01*
X112733369Y-80367400D01*
X112733370Y-80367400D01*
X112892629Y-80367400D01*
X112892630Y-80367400D01*
X112894721Y-80366983D01*
X112918917Y-80364600D01*
X112922806Y-80364600D01*
X112922807Y-80364600D01*
X113047594Y-80364600D01*
X113940969Y-80364600D01*
X114008008Y-80384285D01*
X114053763Y-80437089D01*
X114062586Y-80464409D01*
X114088368Y-80594023D01*
X114088370Y-80594031D01*
X114149317Y-80741169D01*
X114237795Y-80873587D01*
X114237801Y-80873594D01*
X114350405Y-80986198D01*
X114350412Y-80986204D01*
X114482830Y-81074682D01*
X114482831Y-81074682D01*
X114482832Y-81074683D01*
X114629969Y-81135630D01*
X114739574Y-81157431D01*
X114801483Y-81189815D01*
X114803010Y-81191314D01*
X114832067Y-81220371D01*
X114832068Y-81220372D01*
X114935818Y-81289696D01*
X114935824Y-81289699D01*
X114935825Y-81289700D01*
X115051115Y-81337455D01*
X115138707Y-81354878D01*
X115173501Y-81361799D01*
X115173505Y-81361800D01*
X115173506Y-81361800D01*
X122754434Y-81361800D01*
X122821473Y-81381485D01*
X122867228Y-81434289D01*
X122877172Y-81503447D01*
X122848147Y-81567003D01*
X122842115Y-81573481D01*
X122661167Y-81754429D01*
X122626081Y-81789515D01*
X122572927Y-81842668D01*
X122503603Y-81946418D01*
X122503598Y-81946427D01*
X122455845Y-82061714D01*
X122455843Y-82061722D01*
X122431500Y-82184101D01*
X122431500Y-82827898D01*
X122455843Y-82950277D01*
X122455845Y-82950285D01*
X122503598Y-83065572D01*
X122503603Y-83065581D01*
X122572928Y-83169332D01*
X122572931Y-83169336D01*
X123028363Y-83624768D01*
X123028367Y-83624771D01*
X123132118Y-83694096D01*
X123132124Y-83694099D01*
X123132125Y-83694100D01*
X123247415Y-83741855D01*
X123369801Y-83766199D01*
X123369805Y-83766200D01*
X123369806Y-83766200D01*
X123494594Y-83766200D01*
X148414934Y-83766200D01*
X148481973Y-83785885D01*
X148502615Y-83802519D01*
X150552494Y-85852398D01*
X150585979Y-85913721D01*
X150580995Y-85983413D01*
X150539123Y-86039346D01*
X150521109Y-86050563D01*
X150417993Y-86103104D01*
X150244993Y-86228796D01*
X150093796Y-86379993D01*
X149968105Y-86552991D01*
X149965727Y-86556873D01*
X149913914Y-86603748D01*
X149844984Y-86615169D01*
X149780822Y-86587512D01*
X149754273Y-86556873D01*
X149751894Y-86552991D01*
X149680338Y-86454503D01*
X149626206Y-86379996D01*
X149475004Y-86228794D01*
X149302009Y-86103106D01*
X149247810Y-86075490D01*
X149111483Y-86006027D01*
X149111480Y-86006026D01*
X148908117Y-85939951D01*
X148742507Y-85913721D01*
X148696916Y-85906500D01*
X148483084Y-85906500D01*
X148437493Y-85913721D01*
X148271882Y-85939951D01*
X148068519Y-86006026D01*
X148068516Y-86006027D01*
X147877990Y-86103106D01*
X147704993Y-86228796D01*
X147553796Y-86379993D01*
X147428103Y-86552994D01*
X147425709Y-86557693D01*
X147377731Y-86608485D01*
X147309908Y-86625275D01*
X147243775Y-86602732D01*
X147207800Y-86561210D01*
X147207168Y-86561598D01*
X147204829Y-86557781D01*
X147204743Y-86557682D01*
X147204620Y-86557441D01*
X147079727Y-86385540D01*
X147079723Y-86385535D01*
X146929464Y-86235276D01*
X146929459Y-86235272D01*
X146757557Y-86110379D01*
X146568215Y-86013903D01*
X146366124Y-85948241D01*
X146300000Y-85937768D01*
X146300000Y-86831988D01*
X146242993Y-86799075D01*
X146115826Y-86765000D01*
X145984174Y-86765000D01*
X145857007Y-86799075D01*
X145800000Y-86831988D01*
X145800000Y-85937768D01*
X145799999Y-85937768D01*
X145733875Y-85948241D01*
X145531784Y-86013903D01*
X145342442Y-86110379D01*
X145170540Y-86235272D01*
X145170535Y-86235276D01*
X145020276Y-86385535D01*
X145020272Y-86385540D01*
X144895376Y-86557446D01*
X144895374Y-86557448D01*
X144895246Y-86557701D01*
X144895172Y-86557779D01*
X144892832Y-86561598D01*
X144892029Y-86561106D01*
X144847264Y-86608489D01*
X144779441Y-86625274D01*
X144713309Y-86602727D01*
X144674285Y-86557683D01*
X144671895Y-86552992D01*
X144600338Y-86454503D01*
X144546206Y-86379996D01*
X144395004Y-86228794D01*
X144222009Y-86103106D01*
X144222008Y-86103105D01*
X144218067Y-86100242D01*
X144219382Y-86098431D01*
X144178754Y-86053428D01*
X144167404Y-85984487D01*
X144195129Y-85920353D01*
X144221579Y-85896533D01*
X144326389Y-85826503D01*
X144439003Y-85713889D01*
X144527483Y-85581468D01*
X144588430Y-85434331D01*
X144619500Y-85278130D01*
X144619500Y-85118870D01*
X144588430Y-84962669D01*
X144527483Y-84815532D01*
X144513542Y-84794668D01*
X144439004Y-84683112D01*
X144438998Y-84683105D01*
X144326394Y-84570501D01*
X144326387Y-84570495D01*
X144193969Y-84482017D01*
X144046831Y-84421070D01*
X144046823Y-84421068D01*
X143890634Y-84390000D01*
X143890630Y-84390000D01*
X143731370Y-84390000D01*
X143731365Y-84390000D01*
X143575176Y-84421068D01*
X143575168Y-84421070D01*
X143428030Y-84482017D01*
X143295612Y-84570495D01*
X143295605Y-84570501D01*
X143182998Y-84683108D01*
X143169246Y-84703691D01*
X143115633Y-84748496D01*
X143066144Y-84758800D01*
X138514101Y-84758800D01*
X138391722Y-84783143D01*
X138391719Y-84783144D01*
X138391718Y-84783144D01*
X138391715Y-84783145D01*
X138363899Y-84794667D01*
X138363897Y-84794668D01*
X138363897Y-84794667D01*
X138276432Y-84830895D01*
X138276419Y-84830902D01*
X138172666Y-84900227D01*
X136889910Y-86182983D01*
X136828587Y-86216468D01*
X136758895Y-86211484D01*
X136729346Y-86195621D01*
X136602009Y-86103106D01*
X136547810Y-86075490D01*
X136411483Y-86006027D01*
X136411480Y-86006026D01*
X136208117Y-85939951D01*
X136042507Y-85913721D01*
X135996916Y-85906500D01*
X135783084Y-85906500D01*
X135737493Y-85913721D01*
X135571882Y-85939951D01*
X135368519Y-86006026D01*
X135368516Y-86006027D01*
X135177990Y-86103106D01*
X135004993Y-86228796D01*
X134853796Y-86379993D01*
X134728105Y-86552991D01*
X134725727Y-86556873D01*
X134673914Y-86603748D01*
X134604984Y-86615169D01*
X134540822Y-86587512D01*
X134514273Y-86556873D01*
X134511894Y-86552991D01*
X134440338Y-86454503D01*
X134386206Y-86379996D01*
X134235004Y-86228794D01*
X134062009Y-86103106D01*
X134007810Y-86075490D01*
X133871483Y-86006027D01*
X133871480Y-86006026D01*
X133668117Y-85939951D01*
X133502507Y-85913721D01*
X133456916Y-85906500D01*
X133243084Y-85906500D01*
X133197493Y-85913721D01*
X133031882Y-85939951D01*
X132828519Y-86006026D01*
X132828516Y-86006027D01*
X132637990Y-86103106D01*
X132464993Y-86228796D01*
X132313796Y-86379993D01*
X132188105Y-86552991D01*
X132185727Y-86556873D01*
X132133914Y-86603748D01*
X132064984Y-86615169D01*
X132000822Y-86587512D01*
X131974273Y-86556873D01*
X131971894Y-86552991D01*
X131900338Y-86454503D01*
X131846206Y-86379996D01*
X131695004Y-86228794D01*
X131522009Y-86103106D01*
X131467810Y-86075490D01*
X131331483Y-86006027D01*
X131331480Y-86006026D01*
X131128117Y-85939951D01*
X130962507Y-85913721D01*
X130916916Y-85906500D01*
X130703084Y-85906500D01*
X130657493Y-85913721D01*
X130491882Y-85939951D01*
X130288519Y-86006026D01*
X130288516Y-86006027D01*
X130097990Y-86103106D01*
X129924993Y-86228796D01*
X129773796Y-86379993D01*
X129648105Y-86552991D01*
X129645727Y-86556873D01*
X129593914Y-86603748D01*
X129524984Y-86615169D01*
X129460822Y-86587512D01*
X129434273Y-86556873D01*
X129431894Y-86552991D01*
X129360338Y-86454503D01*
X129306206Y-86379996D01*
X129155004Y-86228794D01*
X128982009Y-86103106D01*
X128927810Y-86075490D01*
X128791483Y-86006027D01*
X128791480Y-86006026D01*
X128588117Y-85939951D01*
X128422507Y-85913721D01*
X128376916Y-85906500D01*
X128163084Y-85906500D01*
X128117493Y-85913721D01*
X127951882Y-85939951D01*
X127748519Y-86006026D01*
X127748516Y-86006027D01*
X127557990Y-86103106D01*
X127384993Y-86228796D01*
X127233796Y-86379993D01*
X127108103Y-86552994D01*
X127105709Y-86557693D01*
X127057731Y-86608485D01*
X126989908Y-86625275D01*
X126923775Y-86602732D01*
X126887800Y-86561210D01*
X126887168Y-86561598D01*
X126884829Y-86557781D01*
X126884743Y-86557682D01*
X126884620Y-86557441D01*
X126759727Y-86385540D01*
X126759723Y-86385535D01*
X126609464Y-86235276D01*
X126609459Y-86235272D01*
X126437557Y-86110379D01*
X126248215Y-86013903D01*
X126046124Y-85948241D01*
X125980000Y-85937768D01*
X125980000Y-86831988D01*
X125922993Y-86799075D01*
X125795826Y-86765000D01*
X125664174Y-86765000D01*
X125537007Y-86799075D01*
X125480000Y-86831988D01*
X125480000Y-85937768D01*
X125479999Y-85937768D01*
X125413875Y-85948241D01*
X125211784Y-86013903D01*
X125022442Y-86110379D01*
X124850540Y-86235272D01*
X124850535Y-86235276D01*
X124700276Y-86385535D01*
X124700272Y-86385540D01*
X124575376Y-86557446D01*
X124575374Y-86557448D01*
X124575246Y-86557701D01*
X124575172Y-86557779D01*
X124572832Y-86561598D01*
X124572029Y-86561106D01*
X124527264Y-86608489D01*
X124459441Y-86625274D01*
X124393309Y-86602727D01*
X124354285Y-86557683D01*
X124351895Y-86552992D01*
X124280338Y-86454503D01*
X124226206Y-86379996D01*
X124075004Y-86228794D01*
X123902009Y-86103106D01*
X123847810Y-86075490D01*
X123711483Y-86006027D01*
X123711480Y-86006026D01*
X123508117Y-85939951D01*
X123342507Y-85913721D01*
X123296916Y-85906500D01*
X123083084Y-85906500D01*
X123037493Y-85913721D01*
X122871882Y-85939951D01*
X122668519Y-86006026D01*
X122668516Y-86006027D01*
X122477990Y-86103106D01*
X122304993Y-86228796D01*
X122153796Y-86379993D01*
X122028103Y-86552994D01*
X122025709Y-86557693D01*
X121977731Y-86608485D01*
X121909908Y-86625275D01*
X121843775Y-86602732D01*
X121807800Y-86561210D01*
X121807168Y-86561598D01*
X121804829Y-86557781D01*
X121804743Y-86557682D01*
X121804620Y-86557441D01*
X121679727Y-86385540D01*
X121679723Y-86385535D01*
X121529464Y-86235276D01*
X121529459Y-86235272D01*
X121357557Y-86110379D01*
X121168215Y-86013903D01*
X120966124Y-85948241D01*
X120900000Y-85937768D01*
X120900000Y-86831988D01*
X120842993Y-86799075D01*
X120715826Y-86765000D01*
X120584174Y-86765000D01*
X120457007Y-86799075D01*
X120400000Y-86831988D01*
X120400000Y-85937768D01*
X120394007Y-85932650D01*
X120345804Y-85926421D01*
X120292352Y-85881425D01*
X120271713Y-85814673D01*
X120271700Y-85812903D01*
X120271700Y-85746869D01*
X120271699Y-85746865D01*
X120240631Y-85590676D01*
X120240630Y-85590669D01*
X120179683Y-85443532D01*
X120091203Y-85311111D01*
X120091198Y-85311105D01*
X119978594Y-85198501D01*
X119978587Y-85198495D01*
X119846169Y-85110017D01*
X119699031Y-85049070D01*
X119699023Y-85049068D01*
X119589426Y-85027268D01*
X119527515Y-84994884D01*
X119525936Y-84993332D01*
X116546536Y-82013931D01*
X116546532Y-82013928D01*
X116442781Y-81944603D01*
X116442772Y-81944598D01*
X116327485Y-81896845D01*
X116327477Y-81896843D01*
X116205098Y-81872500D01*
X116205094Y-81872500D01*
X100524029Y-81872500D01*
X100456990Y-81852815D01*
X100411235Y-81800011D01*
X100401291Y-81730853D01*
X100430316Y-81667297D01*
X100489094Y-81629523D01*
X100498075Y-81627246D01*
X100504417Y-81625887D01*
X100504426Y-81625887D01*
X100672738Y-81570115D01*
X100823652Y-81477030D01*
X100949030Y-81351652D01*
X101042115Y-81200738D01*
X101097887Y-81032426D01*
X101108500Y-80928545D01*
X101108499Y-79927456D01*
X101101259Y-79856582D01*
X102050001Y-79856582D01*
X102056408Y-79927102D01*
X102056409Y-79927107D01*
X102106981Y-80089396D01*
X102194927Y-80234877D01*
X102315122Y-80355072D01*
X102460604Y-80443019D01*
X102460603Y-80443019D01*
X102622894Y-80493590D01*
X102622893Y-80493590D01*
X102693427Y-80499999D01*
X103249999Y-80499999D01*
X103750000Y-80499999D01*
X104306581Y-80499999D01*
X104377102Y-80493591D01*
X104377107Y-80493590D01*
X104539396Y-80443018D01*
X104684877Y-80355072D01*
X104805072Y-80234877D01*
X104893019Y-80089395D01*
X104943590Y-79927106D01*
X104950000Y-79856572D01*
X104950000Y-79850000D01*
X103750000Y-79850000D01*
X103750000Y-80499999D01*
X103249999Y-80499999D01*
X103250000Y-80499998D01*
X103250000Y-79850000D01*
X102050001Y-79850000D01*
X102050001Y-79856582D01*
X101101259Y-79856582D01*
X101097887Y-79823574D01*
X101088700Y-79795850D01*
X101088344Y-79794698D01*
X101087858Y-79760938D01*
X101086699Y-79727235D01*
X101087357Y-79726079D01*
X101087340Y-79724836D01*
X101096006Y-79710915D01*
X101119124Y-79670378D01*
X101469685Y-79319819D01*
X101531008Y-79286334D01*
X101557366Y-79283500D01*
X101932138Y-79283500D01*
X101999177Y-79303185D01*
X102019819Y-79319819D01*
X102050000Y-79350000D01*
X104949999Y-79350000D01*
X104980180Y-79319819D01*
X105007107Y-79305115D01*
X105032926Y-79288523D01*
X105039126Y-79287631D01*
X105041503Y-79286334D01*
X105067861Y-79283500D01*
X105130167Y-79283500D01*
X105197206Y-79303185D01*
X105217843Y-79319814D01*
X105309845Y-79411816D01*
X105457087Y-79500827D01*
X105621351Y-79552013D01*
X105692735Y-79558500D01*
X107307264Y-79558499D01*
X107307271Y-79558499D01*
X107378644Y-79552014D01*
X107378647Y-79552013D01*
X107378649Y-79552013D01*
X107542913Y-79500827D01*
X107690155Y-79411816D01*
X107811816Y-79290155D01*
X107883818Y-79171048D01*
X107935345Y-79123863D01*
X107989934Y-79111200D01*
X111937750Y-79111200D01*
X112004789Y-79130885D01*
G37*
%TD.AperFunction*%
%TA.AperFunction,Conductor*%
G36*
X130356837Y-76421985D02*
G01*
X130402592Y-76474789D01*
X130412536Y-76543947D01*
X130407504Y-76565304D01*
X130402113Y-76581572D01*
X130391500Y-76685447D01*
X130391500Y-77347232D01*
X130371815Y-77414271D01*
X130355181Y-77434913D01*
X129978150Y-77811944D01*
X129916827Y-77845429D01*
X129847135Y-77840445D01*
X129821579Y-77827366D01*
X129798498Y-77811944D01*
X129793968Y-77808917D01*
X129791725Y-77807988D01*
X129646831Y-77747970D01*
X129646825Y-77747968D01*
X129549807Y-77728670D01*
X129487896Y-77696285D01*
X129453322Y-77635569D01*
X129449999Y-77607053D01*
X129449999Y-77503417D01*
X129443591Y-77432897D01*
X129443590Y-77432892D01*
X129393018Y-77270603D01*
X129305072Y-77125122D01*
X129184877Y-77004927D01*
X129039395Y-76916980D01*
X129039396Y-76916980D01*
X128877105Y-76866409D01*
X128877106Y-76866409D01*
X128806572Y-76860000D01*
X128250000Y-76860000D01*
X128250000Y-77636000D01*
X128230315Y-77703039D01*
X128177511Y-77748794D01*
X128126000Y-77760000D01*
X128000000Y-77760000D01*
X128000000Y-77886000D01*
X127980315Y-77953039D01*
X127927511Y-77998794D01*
X127876000Y-78010000D01*
X127419866Y-78010000D01*
X127361411Y-77995357D01*
X127357969Y-77993517D01*
X127210831Y-77932570D01*
X127210823Y-77932568D01*
X127054634Y-77901500D01*
X127054630Y-77901500D01*
X126895370Y-77901500D01*
X126895365Y-77901500D01*
X126739176Y-77932568D01*
X126739168Y-77932570D01*
X126592981Y-77993123D01*
X126592977Y-77993125D01*
X126592032Y-77993517D01*
X126505818Y-78051122D01*
X126504901Y-78051733D01*
X126504899Y-78051736D01*
X126499125Y-78055595D01*
X126432450Y-78076480D01*
X126430223Y-78076500D01*
X126369833Y-78076500D01*
X126302794Y-78056815D01*
X126282156Y-78040185D01*
X126190155Y-77948184D01*
X126042913Y-77859173D01*
X125878649Y-77807987D01*
X125878647Y-77807986D01*
X125878645Y-77807986D01*
X125828667Y-77803444D01*
X125807265Y-77801500D01*
X125807262Y-77801500D01*
X124192727Y-77801500D01*
X124121355Y-77807985D01*
X124121344Y-77807988D01*
X123957090Y-77859171D01*
X123809841Y-77948186D01*
X123688186Y-78069841D01*
X123599173Y-78217086D01*
X123547986Y-78381354D01*
X123545657Y-78406987D01*
X123541500Y-78452735D01*
X123541500Y-78546180D01*
X123541501Y-78601599D01*
X123521817Y-78668639D01*
X123469013Y-78714394D01*
X123417501Y-78725600D01*
X122675666Y-78725600D01*
X122608627Y-78705915D01*
X122587989Y-78689285D01*
X122511033Y-78612329D01*
X122511032Y-78612328D01*
X122511031Y-78612327D01*
X122407281Y-78543003D01*
X122407272Y-78542998D01*
X122291985Y-78495245D01*
X122291977Y-78495243D01*
X122169598Y-78470900D01*
X122169594Y-78470900D01*
X121869766Y-78470900D01*
X121802727Y-78451215D01*
X121756972Y-78398411D01*
X121747028Y-78329253D01*
X121776053Y-78265697D01*
X121782085Y-78259219D01*
X121883275Y-78158027D01*
X122218537Y-77822765D01*
X122279858Y-77789282D01*
X122281922Y-77788851D01*
X122391631Y-77767030D01*
X122538768Y-77706083D01*
X122671189Y-77617603D01*
X122783803Y-77504989D01*
X122784847Y-77503427D01*
X126550000Y-77503427D01*
X126550000Y-77510000D01*
X127750000Y-77510000D01*
X127750000Y-76860000D01*
X127193417Y-76860000D01*
X127122897Y-76866408D01*
X127122892Y-76866409D01*
X126960603Y-76916981D01*
X126815122Y-77004927D01*
X126694927Y-77125122D01*
X126606980Y-77270604D01*
X126556409Y-77432893D01*
X126550000Y-77503427D01*
X122784847Y-77503427D01*
X122872283Y-77372568D01*
X122933230Y-77225431D01*
X122964300Y-77069230D01*
X122964300Y-76909970D01*
X122933230Y-76753769D01*
X122883026Y-76632568D01*
X122872283Y-76606631D01*
X122864639Y-76595192D01*
X122843760Y-76528515D01*
X122862244Y-76461135D01*
X122914222Y-76414444D01*
X122967740Y-76402300D01*
X130289798Y-76402300D01*
X130356837Y-76421985D01*
G37*
%TD.AperFunction*%
%TA.AperFunction,Conductor*%
G36*
X152442075Y-60644993D02*
G01*
X152507901Y-60759007D01*
X152600993Y-60852099D01*
X152715007Y-60917925D01*
X152778590Y-60934962D01*
X152146282Y-61567269D01*
X152146282Y-61567270D01*
X152200449Y-61606624D01*
X152200682Y-61606743D01*
X152200755Y-61606812D01*
X152204604Y-61609171D01*
X152204108Y-61609979D01*
X152251479Y-61654716D01*
X152268275Y-61722537D01*
X152245739Y-61788672D01*
X152200693Y-61827709D01*
X152195994Y-61830103D01*
X152022993Y-61955796D01*
X151871796Y-62106993D01*
X151746105Y-62279991D01*
X151743727Y-62283873D01*
X151691914Y-62330748D01*
X151622984Y-62342169D01*
X151558822Y-62314512D01*
X151532273Y-62283873D01*
X151529894Y-62279991D01*
X151419235Y-62127682D01*
X151404206Y-62106996D01*
X151253004Y-61955794D01*
X151080009Y-61830106D01*
X151080005Y-61830103D01*
X151076132Y-61827730D01*
X151029254Y-61775920D01*
X151017829Y-61706991D01*
X151045483Y-61642827D01*
X151076132Y-61616270D01*
X151080005Y-61613896D01*
X151080004Y-61613896D01*
X151080009Y-61613894D01*
X151253004Y-61488206D01*
X151404206Y-61337004D01*
X151529894Y-61164009D01*
X151532283Y-61159319D01*
X151580254Y-61108522D01*
X151648074Y-61091724D01*
X151714210Y-61114258D01*
X151750196Y-61155783D01*
X151750829Y-61155396D01*
X151753167Y-61159211D01*
X151753251Y-61159308D01*
X151753371Y-61159545D01*
X151753373Y-61159547D01*
X151792728Y-61213716D01*
X152425036Y-60581407D01*
X152442075Y-60644993D01*
G37*
%TD.AperFunction*%
%TA.AperFunction,Conductor*%
G36*
X163943039Y-54705185D02*
G01*
X163988794Y-54757989D01*
X164000000Y-54809500D01*
X164000000Y-61000000D01*
X169980500Y-61000000D01*
X170047539Y-61019685D01*
X170093294Y-61072489D01*
X170104500Y-61124000D01*
X170104500Y-148376000D01*
X170084815Y-148443039D01*
X170032011Y-148488794D01*
X169980500Y-148500000D01*
X164000000Y-148500000D01*
X164000000Y-154410500D01*
X163980315Y-154477539D01*
X163927511Y-154523294D01*
X163876000Y-154534500D01*
X138289000Y-154534500D01*
X138221961Y-154514815D01*
X138176206Y-154462011D01*
X138165000Y-154410500D01*
X138165000Y-151394983D01*
X138165000Y-151394982D01*
X138153506Y-151367233D01*
X138132267Y-151345994D01*
X138104518Y-151334500D01*
X120195018Y-151334500D01*
X102285518Y-151334500D01*
X102255482Y-151334500D01*
X102227731Y-151345995D01*
X102206495Y-151367231D01*
X102195000Y-151394982D01*
X102195000Y-154410500D01*
X102175315Y-154477539D01*
X102122511Y-154523294D01*
X102071000Y-154534500D01*
X76624000Y-154534500D01*
X76556961Y-154514815D01*
X76511206Y-154462011D01*
X76500000Y-154410500D01*
X76500000Y-148500000D01*
X70379500Y-148500000D01*
X70312461Y-148480315D01*
X70266706Y-148427511D01*
X70255500Y-148376000D01*
X70255500Y-144787982D01*
X91699500Y-144787982D01*
X91699500Y-146792982D01*
X91699500Y-146823018D01*
X91710994Y-146850767D01*
X91732233Y-146872006D01*
X91759982Y-146883500D01*
X91759984Y-146883500D01*
X97790016Y-146883500D01*
X97790018Y-146883500D01*
X97817767Y-146872006D01*
X97839006Y-146850767D01*
X97850500Y-146823018D01*
X97850500Y-144787982D01*
X142499500Y-144787982D01*
X142499500Y-146792982D01*
X142499500Y-146823018D01*
X142510994Y-146850767D01*
X142532233Y-146872006D01*
X142559982Y-146883500D01*
X142559984Y-146883500D01*
X148590016Y-146883500D01*
X148590018Y-146883500D01*
X148617767Y-146872006D01*
X148639006Y-146850767D01*
X148650500Y-146823018D01*
X148650500Y-144787982D01*
X148639006Y-144760233D01*
X148617767Y-144738994D01*
X148590018Y-144727500D01*
X142590018Y-144727500D01*
X142559982Y-144727500D01*
X142532231Y-144738995D01*
X142510995Y-144760231D01*
X142510994Y-144760232D01*
X142510994Y-144760233D01*
X142499500Y-144787982D01*
X97850500Y-144787982D01*
X97839006Y-144760233D01*
X97817767Y-144738994D01*
X97790018Y-144727500D01*
X91790018Y-144727500D01*
X91759982Y-144727500D01*
X91732231Y-144738995D01*
X91710995Y-144760231D01*
X91710994Y-144760232D01*
X91710994Y-144760233D01*
X91699500Y-144787982D01*
X70255500Y-144787982D01*
X70255500Y-82426365D01*
X73692200Y-82426365D01*
X73692200Y-82585634D01*
X73723268Y-82741823D01*
X73723270Y-82741831D01*
X73784217Y-82888969D01*
X73872695Y-83021387D01*
X73872701Y-83021394D01*
X73985305Y-83133998D01*
X73985312Y-83134004D01*
X74117730Y-83222482D01*
X74117731Y-83222482D01*
X74117732Y-83222483D01*
X74264869Y-83283430D01*
X74421065Y-83314499D01*
X74421069Y-83314500D01*
X74421070Y-83314500D01*
X74580331Y-83314500D01*
X74580332Y-83314499D01*
X74736531Y-83283430D01*
X74883668Y-83222483D01*
X74976587Y-83160396D01*
X75043264Y-83139520D01*
X75045477Y-83139500D01*
X115828934Y-83139500D01*
X115895973Y-83159185D01*
X115916615Y-83175819D01*
X118458435Y-85717639D01*
X118491920Y-85778962D01*
X118486936Y-85848654D01*
X118445064Y-85904587D01*
X118379600Y-85929004D01*
X118351356Y-85927793D01*
X118260036Y-85913329D01*
X118216916Y-85906500D01*
X118003084Y-85906500D01*
X117957493Y-85913721D01*
X117791882Y-85939951D01*
X117588519Y-86006026D01*
X117588516Y-86006027D01*
X117397990Y-86103106D01*
X117224993Y-86228796D01*
X117073796Y-86379993D01*
X116948105Y-86552991D01*
X116945727Y-86556873D01*
X116893914Y-86603748D01*
X116824984Y-86615169D01*
X116760822Y-86587512D01*
X116734273Y-86556873D01*
X116731894Y-86552991D01*
X116660338Y-86454503D01*
X116606206Y-86379996D01*
X116455004Y-86228794D01*
X116282009Y-86103106D01*
X116227810Y-86075490D01*
X116091483Y-86006027D01*
X116091480Y-86006026D01*
X115888117Y-85939951D01*
X115722507Y-85913721D01*
X115676916Y-85906500D01*
X115463084Y-85906500D01*
X115417493Y-85913721D01*
X115251882Y-85939951D01*
X115048519Y-86006026D01*
X115048516Y-86006027D01*
X114857990Y-86103106D01*
X114684993Y-86228796D01*
X114533796Y-86379993D01*
X114408105Y-86552991D01*
X114405727Y-86556873D01*
X114353914Y-86603748D01*
X114284984Y-86615169D01*
X114220822Y-86587512D01*
X114194273Y-86556873D01*
X114191894Y-86552991D01*
X114120338Y-86454503D01*
X114066206Y-86379996D01*
X113915004Y-86228794D01*
X113742009Y-86103106D01*
X113687810Y-86075490D01*
X113551483Y-86006027D01*
X113551480Y-86006026D01*
X113348117Y-85939951D01*
X113182507Y-85913721D01*
X113136916Y-85906500D01*
X112923084Y-85906500D01*
X112877493Y-85913721D01*
X112711882Y-85939951D01*
X112508519Y-86006026D01*
X112508516Y-86006027D01*
X112317990Y-86103106D01*
X112144993Y-86228796D01*
X111993796Y-86379993D01*
X111868106Y-86552990D01*
X111771027Y-86743516D01*
X111771026Y-86743519D01*
X111704951Y-86946882D01*
X111671500Y-87158084D01*
X111671500Y-87371915D01*
X111704951Y-87583117D01*
X111771026Y-87786480D01*
X111771032Y-87786493D01*
X111785305Y-87814505D01*
X111798202Y-87883174D01*
X111771926Y-87947914D01*
X111714820Y-87988172D01*
X111674821Y-87994800D01*
X105687375Y-87994800D01*
X105620336Y-87975115D01*
X105584273Y-87939691D01*
X105547603Y-87884811D01*
X105547600Y-87884807D01*
X105434994Y-87772201D01*
X105434987Y-87772195D01*
X105302569Y-87683717D01*
X105155431Y-87622770D01*
X105155423Y-87622768D01*
X104999234Y-87591700D01*
X104999230Y-87591700D01*
X104839970Y-87591700D01*
X104839965Y-87591700D01*
X104683776Y-87622768D01*
X104683764Y-87622771D01*
X104640952Y-87640505D01*
X104571483Y-87647974D01*
X104509004Y-87616699D01*
X104473352Y-87556610D01*
X104469500Y-87525944D01*
X104469500Y-86106983D01*
X104469500Y-86106982D01*
X104458006Y-86079233D01*
X104436767Y-86057994D01*
X104409018Y-86046500D01*
X81303018Y-86046500D01*
X81272982Y-86046500D01*
X81256257Y-86053428D01*
X81245231Y-86057995D01*
X81223995Y-86079231D01*
X81223994Y-86079232D01*
X81223994Y-86079233D01*
X81212500Y-86106982D01*
X81212500Y-139692982D01*
X81212500Y-139723018D01*
X81223994Y-139750767D01*
X81245233Y-139772006D01*
X81272982Y-139783500D01*
X81272984Y-139783500D01*
X104376000Y-139783500D01*
X104443039Y-139803185D01*
X104488794Y-139855989D01*
X104500000Y-139907500D01*
X104500000Y-140500000D01*
X111001398Y-140500000D01*
X111059642Y-140468196D01*
X111129334Y-140473180D01*
X111185267Y-140515052D01*
X111209684Y-140580516D01*
X111210000Y-140589362D01*
X111210000Y-140720000D01*
X112126988Y-140720000D01*
X112094075Y-140777007D01*
X112060000Y-140904174D01*
X112060000Y-141035826D01*
X112094075Y-141162993D01*
X112126988Y-141220000D01*
X111210000Y-141220000D01*
X111210000Y-141867844D01*
X111216401Y-141927372D01*
X111216403Y-141927379D01*
X111266645Y-142062086D01*
X111266649Y-142062093D01*
X111352809Y-142177187D01*
X111352812Y-142177190D01*
X111467906Y-142263350D01*
X111467913Y-142263354D01*
X111602620Y-142313596D01*
X111602627Y-142313598D01*
X111662155Y-142319999D01*
X111662172Y-142320000D01*
X112310000Y-142320000D01*
X112310000Y-141403012D01*
X112367007Y-141435925D01*
X112494174Y-141470000D01*
X112625826Y-141470000D01*
X112752993Y-141435925D01*
X112810000Y-141403012D01*
X112810000Y-142320000D01*
X113457828Y-142320000D01*
X113457844Y-142319999D01*
X113517372Y-142313598D01*
X113517379Y-142313596D01*
X113652086Y-142263354D01*
X113652093Y-142263350D01*
X113767187Y-142177190D01*
X113767190Y-142177187D01*
X113853350Y-142062093D01*
X113853355Y-142062084D01*
X113899348Y-141938770D01*
X113941219Y-141882836D01*
X114006683Y-141858418D01*
X114074956Y-141873269D01*
X114103211Y-141894421D01*
X114214996Y-142006206D01*
X114387991Y-142131894D01*
X114476883Y-142177187D01*
X114578516Y-142228972D01*
X114578519Y-142228973D01*
X114680200Y-142262010D01*
X114781884Y-142295049D01*
X114993084Y-142328500D01*
X114993085Y-142328500D01*
X115206915Y-142328500D01*
X115206916Y-142328500D01*
X115418116Y-142295049D01*
X115621483Y-142228972D01*
X115812009Y-142131894D01*
X115985004Y-142006206D01*
X116136206Y-141855004D01*
X116261894Y-141682009D01*
X116261898Y-141682001D01*
X116264270Y-141678132D01*
X116316080Y-141631254D01*
X116385009Y-141619829D01*
X116449173Y-141647483D01*
X116475730Y-141678132D01*
X116478103Y-141682005D01*
X116478105Y-141682008D01*
X116478106Y-141682009D01*
X116603794Y-141855004D01*
X116754996Y-142006206D01*
X116927991Y-142131894D01*
X117016883Y-142177187D01*
X117118516Y-142228972D01*
X117118519Y-142228973D01*
X117220200Y-142262010D01*
X117321884Y-142295049D01*
X117533084Y-142328500D01*
X117533085Y-142328500D01*
X117746915Y-142328500D01*
X117746916Y-142328500D01*
X117958116Y-142295049D01*
X118161483Y-142228972D01*
X118352009Y-142131894D01*
X118525004Y-142006206D01*
X118676206Y-141855004D01*
X118801894Y-141682009D01*
X118801898Y-141682001D01*
X118804270Y-141678132D01*
X118856080Y-141631254D01*
X118925009Y-141619829D01*
X118989173Y-141647483D01*
X119015730Y-141678132D01*
X119018103Y-141682005D01*
X119018105Y-141682008D01*
X119018106Y-141682009D01*
X119143794Y-141855004D01*
X119294996Y-142006206D01*
X119467991Y-142131894D01*
X119556883Y-142177187D01*
X119658516Y-142228972D01*
X119658519Y-142228973D01*
X119760200Y-142262010D01*
X119861884Y-142295049D01*
X120073084Y-142328500D01*
X120073085Y-142328500D01*
X120286915Y-142328500D01*
X120286916Y-142328500D01*
X120498116Y-142295049D01*
X120701483Y-142228972D01*
X120892009Y-142131894D01*
X121065004Y-142006206D01*
X121216206Y-141855004D01*
X121341894Y-141682009D01*
X121341898Y-141682001D01*
X121344270Y-141678132D01*
X121396080Y-141631254D01*
X121465009Y-141619829D01*
X121529173Y-141647483D01*
X121555730Y-141678132D01*
X121558103Y-141682005D01*
X121558105Y-141682008D01*
X121558106Y-141682009D01*
X121683794Y-141855004D01*
X121834996Y-142006206D01*
X122007991Y-142131894D01*
X122096883Y-142177187D01*
X122198516Y-142228972D01*
X122198519Y-142228973D01*
X122300200Y-142262010D01*
X122401884Y-142295049D01*
X122613084Y-142328500D01*
X122613085Y-142328500D01*
X122826915Y-142328500D01*
X122826916Y-142328500D01*
X123038116Y-142295049D01*
X123241483Y-142228972D01*
X123432009Y-142131894D01*
X123605004Y-142006206D01*
X123756206Y-141855004D01*
X123881894Y-141682009D01*
X123881898Y-141682001D01*
X123884270Y-141678132D01*
X123936080Y-141631254D01*
X124005009Y-141619829D01*
X124069173Y-141647483D01*
X124095730Y-141678132D01*
X124098103Y-141682005D01*
X124098105Y-141682008D01*
X124098106Y-141682009D01*
X124223794Y-141855004D01*
X124374996Y-142006206D01*
X124547991Y-142131894D01*
X124636883Y-142177187D01*
X124738516Y-142228972D01*
X124738519Y-142228973D01*
X124840200Y-142262010D01*
X124941884Y-142295049D01*
X125153084Y-142328500D01*
X125153085Y-142328500D01*
X125366915Y-142328500D01*
X125366916Y-142328500D01*
X125578116Y-142295049D01*
X125781483Y-142228972D01*
X125972009Y-142131894D01*
X126145004Y-142006206D01*
X126296206Y-141855004D01*
X126421894Y-141682009D01*
X126421898Y-141682001D01*
X126424270Y-141678132D01*
X126476080Y-141631254D01*
X126545009Y-141619829D01*
X126609173Y-141647483D01*
X126635730Y-141678132D01*
X126638103Y-141682005D01*
X126638105Y-141682008D01*
X126638106Y-141682009D01*
X126763794Y-141855004D01*
X126914996Y-142006206D01*
X127087991Y-142131894D01*
X127176883Y-142177187D01*
X127278516Y-142228972D01*
X127278519Y-142228973D01*
X127380200Y-142262010D01*
X127481884Y-142295049D01*
X127693084Y-142328500D01*
X127693085Y-142328500D01*
X127906915Y-142328500D01*
X127906916Y-142328500D01*
X128118116Y-142295049D01*
X128321483Y-142228972D01*
X128512009Y-142131894D01*
X128685004Y-142006206D01*
X128836206Y-141855004D01*
X128961894Y-141682009D01*
X128961898Y-141682001D01*
X128964270Y-141678132D01*
X129016080Y-141631254D01*
X129085009Y-141619829D01*
X129149173Y-141647483D01*
X129175730Y-141678132D01*
X129178103Y-141682005D01*
X129178105Y-141682008D01*
X129178106Y-141682009D01*
X129303794Y-141855004D01*
X129454996Y-142006206D01*
X129627991Y-142131894D01*
X129716883Y-142177187D01*
X129818516Y-142228972D01*
X129818519Y-142228973D01*
X129920200Y-142262010D01*
X130021884Y-142295049D01*
X130233084Y-142328500D01*
X130233085Y-142328500D01*
X130446915Y-142328500D01*
X130446916Y-142328500D01*
X130658116Y-142295049D01*
X130861483Y-142228972D01*
X131052009Y-142131894D01*
X131225004Y-142006206D01*
X131376206Y-141855004D01*
X131501894Y-141682009D01*
X131501901Y-141681994D01*
X131504263Y-141678141D01*
X131556069Y-141631259D01*
X131624997Y-141619827D01*
X131689163Y-141647476D01*
X131715723Y-141678122D01*
X131718100Y-141682001D01*
X131718105Y-141682008D01*
X131718106Y-141682009D01*
X131843794Y-141855004D01*
X131994996Y-142006206D01*
X132167991Y-142131894D01*
X132256883Y-142177187D01*
X132358516Y-142228972D01*
X132358519Y-142228973D01*
X132460200Y-142262010D01*
X132561884Y-142295049D01*
X132773084Y-142328500D01*
X132773085Y-142328500D01*
X132986915Y-142328500D01*
X132986916Y-142328500D01*
X133198116Y-142295049D01*
X133401483Y-142228972D01*
X133592009Y-142131894D01*
X133765004Y-142006206D01*
X133916206Y-141855004D01*
X134041894Y-141682009D01*
X134041898Y-141682001D01*
X134044270Y-141678132D01*
X134096080Y-141631254D01*
X134165009Y-141619829D01*
X134229173Y-141647483D01*
X134255730Y-141678132D01*
X134258103Y-141682005D01*
X134258105Y-141682008D01*
X134258106Y-141682009D01*
X134383794Y-141855004D01*
X134534996Y-142006206D01*
X134707991Y-142131894D01*
X134796883Y-142177187D01*
X134898516Y-142228972D01*
X134898519Y-142228973D01*
X135000200Y-142262010D01*
X135101884Y-142295049D01*
X135313084Y-142328500D01*
X135313085Y-142328500D01*
X135526915Y-142328500D01*
X135526916Y-142328500D01*
X135738116Y-142295049D01*
X135941483Y-142228972D01*
X136132009Y-142131894D01*
X136305004Y-142006206D01*
X136456206Y-141855004D01*
X136581894Y-141682009D01*
X136584283Y-141677319D01*
X136632254Y-141626522D01*
X136700074Y-141609724D01*
X136766210Y-141632258D01*
X136802201Y-141673788D01*
X136802832Y-141673402D01*
X136805164Y-141677207D01*
X136805251Y-141677308D01*
X136805376Y-141677554D01*
X136930272Y-141849459D01*
X136930276Y-141849464D01*
X137080535Y-141999723D01*
X137080540Y-141999727D01*
X137252442Y-142124620D01*
X137441782Y-142221095D01*
X137643871Y-142286757D01*
X137710000Y-142297231D01*
X137710000Y-141403012D01*
X137767007Y-141435925D01*
X137894174Y-141470000D01*
X138025826Y-141470000D01*
X138152993Y-141435925D01*
X138210000Y-141403012D01*
X138210000Y-142297230D01*
X138276126Y-142286757D01*
X138276129Y-142286757D01*
X138478217Y-142221095D01*
X138667557Y-142124620D01*
X138839459Y-141999727D01*
X138839464Y-141999723D01*
X138989723Y-141849464D01*
X138989727Y-141849459D01*
X139114615Y-141677564D01*
X139114618Y-141677560D01*
X139114738Y-141677326D01*
X139114806Y-141677253D01*
X139117164Y-141673406D01*
X139117972Y-141673901D01*
X139162707Y-141626525D01*
X139230526Y-141609722D01*
X139296663Y-141632253D01*
X139335711Y-141677309D01*
X139338106Y-141682009D01*
X139463794Y-141855004D01*
X139614996Y-142006206D01*
X139787991Y-142131894D01*
X139876883Y-142177187D01*
X139978516Y-142228972D01*
X139978519Y-142228973D01*
X140080200Y-142262010D01*
X140181884Y-142295049D01*
X140393084Y-142328500D01*
X140393085Y-142328500D01*
X140606915Y-142328500D01*
X140606916Y-142328500D01*
X140818116Y-142295049D01*
X141021483Y-142228972D01*
X141212009Y-142131894D01*
X141385004Y-142006206D01*
X141536206Y-141855004D01*
X141661894Y-141682009D01*
X141758972Y-141491483D01*
X141825049Y-141288116D01*
X141858500Y-141076916D01*
X141858500Y-141000000D01*
X163000000Y-141000000D01*
X169500000Y-141000000D01*
X169500000Y-134500000D01*
X163000000Y-134500000D01*
X163000000Y-141000000D01*
X141858500Y-141000000D01*
X141858500Y-140863084D01*
X141825049Y-140651884D01*
X141770000Y-140482458D01*
X141758973Y-140448519D01*
X141758972Y-140448516D01*
X141661893Y-140257990D01*
X141536206Y-140084996D01*
X141385004Y-139933794D01*
X141212009Y-139808106D01*
X141202351Y-139803185D01*
X141021483Y-139711027D01*
X141021480Y-139711026D01*
X140818117Y-139644951D01*
X140700997Y-139626401D01*
X140606916Y-139611500D01*
X140393084Y-139611500D01*
X140322684Y-139622650D01*
X140181882Y-139644951D01*
X139978519Y-139711026D01*
X139978516Y-139711027D01*
X139787987Y-139808108D01*
X139663434Y-139898601D01*
X139597628Y-139922081D01*
X139529574Y-139906255D01*
X139502868Y-139885964D01*
X139133170Y-139516266D01*
X139099685Y-139454943D01*
X139104669Y-139385251D01*
X139146541Y-139329318D01*
X139212005Y-139304901D01*
X139245043Y-139306968D01*
X139257268Y-139309399D01*
X139257269Y-139309400D01*
X139257270Y-139309400D01*
X139416531Y-139309400D01*
X139416532Y-139309399D01*
X139572731Y-139278330D01*
X139719868Y-139217383D01*
X139852289Y-139128903D01*
X139964903Y-139016289D01*
X140053383Y-138883868D01*
X140114330Y-138736731D01*
X140145400Y-138580530D01*
X140145400Y-138421270D01*
X140114330Y-138265069D01*
X140053383Y-138117932D01*
X139980483Y-138008829D01*
X139964904Y-137985512D01*
X139964898Y-137985505D01*
X139852294Y-137872901D01*
X139852287Y-137872895D01*
X139719869Y-137784417D01*
X139572731Y-137723470D01*
X139572723Y-137723468D01*
X139416534Y-137692400D01*
X139416530Y-137692400D01*
X139257270Y-137692400D01*
X139257265Y-137692400D01*
X139101076Y-137723468D01*
X139101068Y-137723470D01*
X138953933Y-137784415D01*
X138861013Y-137846503D01*
X138794336Y-137867380D01*
X138792123Y-137867400D01*
X133555701Y-137867400D01*
X133433322Y-137891743D01*
X133433314Y-137891745D01*
X133318027Y-137939498D01*
X133318018Y-137939503D01*
X133214267Y-138008828D01*
X133214263Y-138008831D01*
X131337131Y-139885964D01*
X131275808Y-139919449D01*
X131206116Y-139914465D01*
X131176567Y-139898602D01*
X131052009Y-139808106D01*
X131042351Y-139803185D01*
X130861483Y-139711027D01*
X130861480Y-139711026D01*
X130658117Y-139644951D01*
X130540997Y-139626401D01*
X130446916Y-139611500D01*
X130233084Y-139611500D01*
X130162684Y-139622650D01*
X130021882Y-139644951D01*
X129818519Y-139711026D01*
X129818516Y-139711027D01*
X129627990Y-139808106D01*
X129454993Y-139933796D01*
X129303796Y-140084993D01*
X129178105Y-140257991D01*
X129175727Y-140261873D01*
X129123914Y-140308748D01*
X129054984Y-140320169D01*
X128990822Y-140292512D01*
X128964273Y-140261873D01*
X128961894Y-140257991D01*
X128961893Y-140257990D01*
X128836206Y-140084996D01*
X128685004Y-139933794D01*
X128512009Y-139808106D01*
X128502351Y-139803185D01*
X128321483Y-139711027D01*
X128321480Y-139711026D01*
X128118117Y-139644951D01*
X128000997Y-139626401D01*
X127906916Y-139611500D01*
X127693084Y-139611500D01*
X127622684Y-139622650D01*
X127481882Y-139644951D01*
X127278519Y-139711026D01*
X127278516Y-139711027D01*
X127087990Y-139808106D01*
X126914993Y-139933796D01*
X126763796Y-140084993D01*
X126638105Y-140257991D01*
X126635727Y-140261873D01*
X126583914Y-140308748D01*
X126514984Y-140320169D01*
X126450822Y-140292512D01*
X126424273Y-140261873D01*
X126421894Y-140257991D01*
X126421893Y-140257990D01*
X126296206Y-140084996D01*
X126145004Y-139933794D01*
X125972009Y-139808106D01*
X125962351Y-139803185D01*
X125781483Y-139711027D01*
X125781480Y-139711026D01*
X125578117Y-139644951D01*
X125460997Y-139626401D01*
X125366916Y-139611500D01*
X125153084Y-139611500D01*
X125082684Y-139622650D01*
X124941882Y-139644951D01*
X124738519Y-139711026D01*
X124738516Y-139711027D01*
X124547990Y-139808106D01*
X124374993Y-139933796D01*
X124223796Y-140084993D01*
X124098105Y-140257991D01*
X124095727Y-140261873D01*
X124043914Y-140308748D01*
X123974984Y-140320169D01*
X123910822Y-140292512D01*
X123884273Y-140261873D01*
X123881894Y-140257991D01*
X123881893Y-140257990D01*
X123756206Y-140084996D01*
X123605004Y-139933794D01*
X123432009Y-139808106D01*
X123422351Y-139803185D01*
X123241483Y-139711027D01*
X123241480Y-139711026D01*
X123038117Y-139644951D01*
X122920997Y-139626401D01*
X122826916Y-139611500D01*
X122613084Y-139611500D01*
X122542684Y-139622650D01*
X122401882Y-139644951D01*
X122198519Y-139711026D01*
X122198516Y-139711027D01*
X122007990Y-139808106D01*
X121834993Y-139933796D01*
X121683796Y-140084993D01*
X121558105Y-140257991D01*
X121555727Y-140261873D01*
X121503914Y-140308748D01*
X121434984Y-140320169D01*
X121370822Y-140292512D01*
X121344273Y-140261873D01*
X121341894Y-140257991D01*
X121341893Y-140257990D01*
X121216206Y-140084996D01*
X121065004Y-139933794D01*
X120892009Y-139808106D01*
X120882351Y-139803185D01*
X120701483Y-139711027D01*
X120701480Y-139711026D01*
X120498117Y-139644951D01*
X120380997Y-139626401D01*
X120286916Y-139611500D01*
X120073084Y-139611500D01*
X120002684Y-139622650D01*
X119861882Y-139644951D01*
X119658519Y-139711026D01*
X119658516Y-139711027D01*
X119467990Y-139808106D01*
X119294993Y-139933796D01*
X119143796Y-140084993D01*
X119018105Y-140257991D01*
X119015727Y-140261873D01*
X118963914Y-140308748D01*
X118894984Y-140320169D01*
X118830822Y-140292512D01*
X118804273Y-140261873D01*
X118801894Y-140257991D01*
X118801893Y-140257990D01*
X118676206Y-140084996D01*
X118525004Y-139933794D01*
X118352009Y-139808106D01*
X118342351Y-139803185D01*
X118161483Y-139711027D01*
X118161480Y-139711026D01*
X117958117Y-139644951D01*
X117840997Y-139626401D01*
X117746916Y-139611500D01*
X117533084Y-139611500D01*
X117462684Y-139622650D01*
X117321882Y-139644951D01*
X117118519Y-139711026D01*
X117118516Y-139711027D01*
X116927990Y-139808106D01*
X116754993Y-139933796D01*
X116603796Y-140084993D01*
X116478105Y-140257991D01*
X116475727Y-140261873D01*
X116423914Y-140308748D01*
X116354984Y-140320169D01*
X116290822Y-140292512D01*
X116264273Y-140261873D01*
X116261894Y-140257991D01*
X116261893Y-140257990D01*
X116136206Y-140084996D01*
X115985004Y-139933794D01*
X115812009Y-139808106D01*
X115802351Y-139803185D01*
X115621483Y-139711027D01*
X115621480Y-139711026D01*
X115418117Y-139644951D01*
X115300997Y-139626401D01*
X115206916Y-139611500D01*
X114993084Y-139611500D01*
X114922684Y-139622650D01*
X114781882Y-139644951D01*
X114578519Y-139711026D01*
X114578516Y-139711027D01*
X114387990Y-139808106D01*
X114214997Y-139933793D01*
X114103211Y-140045579D01*
X114041888Y-140079063D01*
X113972196Y-140074079D01*
X113916263Y-140032207D01*
X113899348Y-140001230D01*
X113853354Y-139877913D01*
X113853350Y-139877906D01*
X113767190Y-139762812D01*
X113767187Y-139762809D01*
X113652093Y-139676649D01*
X113652086Y-139676645D01*
X113517379Y-139626403D01*
X113517372Y-139626401D01*
X113457844Y-139620000D01*
X112810000Y-139620000D01*
X112810000Y-140536988D01*
X112752993Y-140504075D01*
X112625826Y-140470000D01*
X112494174Y-140470000D01*
X112367007Y-140504075D01*
X112310000Y-140536988D01*
X112310000Y-139620000D01*
X111662155Y-139620000D01*
X111602627Y-139626401D01*
X111602620Y-139626403D01*
X111467913Y-139676645D01*
X111467906Y-139676649D01*
X111352812Y-139762809D01*
X111352809Y-139762812D01*
X111266649Y-139877906D01*
X111266645Y-139877913D01*
X111240182Y-139948866D01*
X111198311Y-140004800D01*
X111132846Y-140029217D01*
X111064574Y-140014365D01*
X111015168Y-139964960D01*
X111000000Y-139905533D01*
X111000000Y-135474165D01*
X126740000Y-135474165D01*
X126740000Y-135633434D01*
X126771068Y-135789623D01*
X126771070Y-135789631D01*
X126832017Y-135936769D01*
X126920495Y-136069187D01*
X126920501Y-136069194D01*
X127033105Y-136181798D01*
X127033112Y-136181804D01*
X127165530Y-136270282D01*
X127165531Y-136270282D01*
X127165532Y-136270283D01*
X127312669Y-136331230D01*
X127468865Y-136362299D01*
X127468869Y-136362300D01*
X127468870Y-136362300D01*
X127628131Y-136362300D01*
X127628132Y-136362299D01*
X127784331Y-136331230D01*
X127931468Y-136270283D01*
X128024387Y-136208196D01*
X128091064Y-136187320D01*
X128093277Y-136187300D01*
X133415823Y-136187300D01*
X133482862Y-136206985D01*
X133484713Y-136208197D01*
X133577633Y-136270284D01*
X133651200Y-136300756D01*
X133724769Y-136331230D01*
X133880965Y-136362299D01*
X133880969Y-136362300D01*
X133880970Y-136362300D01*
X134040231Y-136362300D01*
X134040232Y-136362299D01*
X134196431Y-136331230D01*
X134343568Y-136270283D01*
X134475989Y-136181803D01*
X134588603Y-136069189D01*
X134677083Y-135936768D01*
X134738030Y-135789631D01*
X134769100Y-135633430D01*
X134769100Y-135474170D01*
X134738030Y-135317969D01*
X134677083Y-135170832D01*
X134588603Y-135038411D01*
X134588598Y-135038405D01*
X134475994Y-134925801D01*
X134475987Y-134925795D01*
X134343569Y-134837317D01*
X134196431Y-134776370D01*
X134196423Y-134776368D01*
X134040234Y-134745300D01*
X134040230Y-134745300D01*
X133880970Y-134745300D01*
X133880965Y-134745300D01*
X133724776Y-134776368D01*
X133724768Y-134776370D01*
X133577633Y-134837315D01*
X133484713Y-134899403D01*
X133418036Y-134920280D01*
X133415823Y-134920300D01*
X128093277Y-134920300D01*
X128026238Y-134900615D01*
X128024387Y-134899403D01*
X127931466Y-134837315D01*
X127784331Y-134776370D01*
X127784323Y-134776368D01*
X127628134Y-134745300D01*
X127628130Y-134745300D01*
X127468870Y-134745300D01*
X127468865Y-134745300D01*
X127312676Y-134776368D01*
X127312668Y-134776370D01*
X127165530Y-134837317D01*
X127033112Y-134925795D01*
X127033105Y-134925801D01*
X126920501Y-135038405D01*
X126920495Y-135038412D01*
X126832017Y-135170830D01*
X126771070Y-135317968D01*
X126771068Y-135317976D01*
X126740000Y-135474165D01*
X111000000Y-135474165D01*
X111000000Y-134000000D01*
X104593500Y-134000000D01*
X104526461Y-133980315D01*
X104480706Y-133927511D01*
X104469500Y-133876000D01*
X104469500Y-129917447D01*
X113697500Y-129917447D01*
X113697500Y-130718537D01*
X113697501Y-130718553D01*
X113708113Y-130822427D01*
X113763884Y-130990735D01*
X113763886Y-130990740D01*
X113856971Y-131141653D01*
X113945637Y-131230319D01*
X113979122Y-131291642D01*
X113974138Y-131361334D01*
X113945637Y-131405681D01*
X113856971Y-131494346D01*
X113763886Y-131645259D01*
X113763884Y-131645264D01*
X113708113Y-131813572D01*
X113697500Y-131917447D01*
X113697500Y-132718537D01*
X113697501Y-132718553D01*
X113708113Y-132822427D01*
X113763530Y-132989668D01*
X113763885Y-132990738D01*
X113856970Y-133141652D01*
X113982348Y-133267030D01*
X114133262Y-133360115D01*
X114301574Y-133415887D01*
X114405455Y-133426500D01*
X115406544Y-133426499D01*
X115510426Y-133415887D01*
X115678738Y-133360115D01*
X115826169Y-133269178D01*
X115893559Y-133250738D01*
X115960153Y-133271614D01*
X116037332Y-133323183D01*
X116184469Y-133384130D01*
X116340665Y-133415199D01*
X116340669Y-133415200D01*
X116340670Y-133415200D01*
X116499931Y-133415200D01*
X116499932Y-133415199D01*
X116656131Y-133384130D01*
X116803268Y-133323183D01*
X116935689Y-133234703D01*
X117048303Y-133122089D01*
X117136783Y-132989668D01*
X117197730Y-132842531D01*
X117228800Y-132686330D01*
X117228800Y-132527070D01*
X117197730Y-132370869D01*
X117136783Y-132223732D01*
X117083768Y-132144389D01*
X117062891Y-132077713D01*
X117081376Y-132010333D01*
X117133354Y-131963643D01*
X117186871Y-131951500D01*
X117570729Y-131951500D01*
X117637768Y-131971185D01*
X117683523Y-132023989D01*
X117693467Y-132093147D01*
X117673831Y-132144389D01*
X117657542Y-132168768D01*
X117620816Y-132223732D01*
X117559870Y-132370868D01*
X117559868Y-132370876D01*
X117528800Y-132527065D01*
X117528800Y-132686334D01*
X117559868Y-132842523D01*
X117559870Y-132842531D01*
X117620817Y-132989669D01*
X117709295Y-133122087D01*
X117709301Y-133122094D01*
X117821905Y-133234698D01*
X117821912Y-133234704D01*
X117954330Y-133323182D01*
X117954331Y-133323182D01*
X117954332Y-133323183D01*
X118101469Y-133384130D01*
X118257665Y-133415199D01*
X118257669Y-133415200D01*
X118257670Y-133415200D01*
X118416931Y-133415200D01*
X118416932Y-133415199D01*
X118573131Y-133384130D01*
X118720268Y-133323183D01*
X118813187Y-133261096D01*
X118879864Y-133240220D01*
X118882077Y-133240200D01*
X119141316Y-133240200D01*
X119208355Y-133259885D01*
X119218230Y-133266936D01*
X119218344Y-133267026D01*
X119218348Y-133267030D01*
X119369262Y-133360115D01*
X119537574Y-133415887D01*
X119641455Y-133426500D01*
X120642544Y-133426499D01*
X120746426Y-133415887D01*
X120914738Y-133360115D01*
X121065652Y-133267030D01*
X121191030Y-133141652D01*
X121284115Y-132990738D01*
X121339887Y-132822426D01*
X121350500Y-132718545D01*
X121350499Y-132075499D01*
X121370183Y-132008461D01*
X121422987Y-131962706D01*
X121474499Y-131951500D01*
X134787334Y-131951500D01*
X134854373Y-131971185D01*
X134875015Y-131987819D01*
X135556632Y-132669436D01*
X135590117Y-132730759D01*
X135590568Y-132732926D01*
X135612368Y-132842523D01*
X135612370Y-132842531D01*
X135673317Y-132989669D01*
X135761795Y-133122087D01*
X135761801Y-133122094D01*
X135874405Y-133234698D01*
X135874412Y-133234704D01*
X136006830Y-133323182D01*
X136006831Y-133323182D01*
X136006832Y-133323183D01*
X136153969Y-133384130D01*
X136310165Y-133415199D01*
X136310169Y-133415200D01*
X136310170Y-133415200D01*
X136469431Y-133415200D01*
X136469432Y-133415199D01*
X136625631Y-133384130D01*
X136772768Y-133323183D01*
X136905189Y-133234703D01*
X137017803Y-133122089D01*
X137106283Y-132989668D01*
X137167230Y-132842531D01*
X137189031Y-132732922D01*
X137197796Y-132716167D01*
X137201816Y-132697689D01*
X137220558Y-132672652D01*
X137221415Y-132671015D01*
X137222911Y-132669491D01*
X137273437Y-132618965D01*
X137334758Y-132585482D01*
X137336822Y-132585051D01*
X137446531Y-132563230D01*
X137593668Y-132502283D01*
X137726089Y-132413803D01*
X137838703Y-132301189D01*
X137927183Y-132168768D01*
X137988130Y-132021631D01*
X138019200Y-131865430D01*
X138019200Y-131706170D01*
X137988130Y-131549969D01*
X137927183Y-131402832D01*
X137927180Y-131402828D01*
X137838704Y-131270412D01*
X137838698Y-131270405D01*
X137726094Y-131157801D01*
X137726087Y-131157795D01*
X137593669Y-131069317D01*
X137446531Y-131008370D01*
X137446523Y-131008368D01*
X137290334Y-130977300D01*
X137290330Y-130977300D01*
X137131070Y-130977300D01*
X137131065Y-130977300D01*
X136974876Y-131008368D01*
X136974868Y-131008370D01*
X136827730Y-131069317D01*
X136695312Y-131157795D01*
X136695305Y-131157801D01*
X136582701Y-131270405D01*
X136582695Y-131270412D01*
X136494218Y-131402828D01*
X136444450Y-131522977D01*
X136400608Y-131577380D01*
X136334314Y-131599444D01*
X136266614Y-131582164D01*
X136242208Y-131563204D01*
X135504936Y-130825931D01*
X135504932Y-130825928D01*
X135401181Y-130756603D01*
X135401172Y-130756598D01*
X135285885Y-130708845D01*
X135285877Y-130708843D01*
X135163498Y-130684500D01*
X135163494Y-130684500D01*
X133693409Y-130684500D01*
X133626370Y-130664815D01*
X133580615Y-130612011D01*
X133570671Y-130542853D01*
X133599696Y-130479297D01*
X133658474Y-130441523D01*
X133669218Y-130438883D01*
X133673692Y-130437992D01*
X133678531Y-130437030D01*
X133825668Y-130376083D01*
X133918587Y-130313996D01*
X133985264Y-130293120D01*
X133987477Y-130293100D01*
X148277195Y-130293100D01*
X148277196Y-130293099D01*
X148399585Y-130268755D01*
X148514875Y-130221000D01*
X148618633Y-130151671D01*
X149246137Y-129524165D01*
X149307458Y-129490682D01*
X149309522Y-129490251D01*
X149419231Y-129468430D01*
X149566368Y-129407483D01*
X149698789Y-129319003D01*
X149811403Y-129206389D01*
X149899883Y-129073968D01*
X149960830Y-128926831D01*
X149991900Y-128770630D01*
X149991900Y-128611370D01*
X149960830Y-128455169D01*
X149899883Y-128308032D01*
X149893783Y-128298903D01*
X149811404Y-128175612D01*
X149811398Y-128175605D01*
X149698794Y-128063001D01*
X149698787Y-128062995D01*
X149566369Y-127974517D01*
X149419231Y-127913570D01*
X149419223Y-127913568D01*
X149263034Y-127882500D01*
X149263030Y-127882500D01*
X149103770Y-127882500D01*
X149103765Y-127882500D01*
X148947576Y-127913568D01*
X148947568Y-127913570D01*
X148800430Y-127974517D01*
X148668012Y-128062995D01*
X148668005Y-128063001D01*
X148555401Y-128175605D01*
X148555395Y-128175612D01*
X148466917Y-128308030D01*
X148405970Y-128455168D01*
X148405968Y-128455176D01*
X148384168Y-128564772D01*
X148351783Y-128626683D01*
X148350232Y-128628262D01*
X147988715Y-128989781D01*
X147927392Y-129023266D01*
X147901034Y-129026100D01*
X137322300Y-129026100D01*
X137255261Y-129006415D01*
X137209506Y-128953611D01*
X137198300Y-128902100D01*
X137198300Y-128780669D01*
X137198299Y-128780665D01*
X137167231Y-128624476D01*
X137167230Y-128624469D01*
X137106283Y-128477332D01*
X137091474Y-128455169D01*
X137017804Y-128344912D01*
X137017798Y-128344905D01*
X136905194Y-128232301D01*
X136905187Y-128232295D01*
X136772769Y-128143817D01*
X136625631Y-128082870D01*
X136625623Y-128082868D01*
X136469434Y-128051800D01*
X136469430Y-128051800D01*
X136310170Y-128051800D01*
X136310165Y-128051800D01*
X136153976Y-128082868D01*
X136153968Y-128082870D01*
X136006833Y-128143815D01*
X135913913Y-128205903D01*
X135847236Y-128226780D01*
X135845023Y-128226800D01*
X131232501Y-128226800D01*
X131110122Y-128251143D01*
X131110114Y-128251145D01*
X130994827Y-128298898D01*
X130994818Y-128298903D01*
X130891067Y-128368228D01*
X130891063Y-128368231D01*
X130432862Y-128826432D01*
X130371539Y-128859917D01*
X130369372Y-128860368D01*
X130259776Y-128882168D01*
X130259768Y-128882170D01*
X130112630Y-128943117D01*
X129980212Y-129031595D01*
X129980205Y-129031601D01*
X129867601Y-129144205D01*
X129867595Y-129144212D01*
X129779117Y-129276630D01*
X129718170Y-129423768D01*
X129718168Y-129423776D01*
X129687100Y-129579965D01*
X129687100Y-129739234D01*
X129718168Y-129895423D01*
X129718170Y-129895431D01*
X129779117Y-130042569D01*
X129867595Y-130174987D01*
X129867601Y-130174994D01*
X129980205Y-130287598D01*
X129980212Y-130287604D01*
X130112630Y-130376082D01*
X130112631Y-130376082D01*
X130112632Y-130376083D01*
X130259769Y-130437030D01*
X130263660Y-130437804D01*
X130269082Y-130438883D01*
X130330993Y-130471268D01*
X130365567Y-130531984D01*
X130361828Y-130601753D01*
X130320961Y-130658425D01*
X130255943Y-130684006D01*
X130244891Y-130684500D01*
X121474500Y-130684500D01*
X121407461Y-130664815D01*
X121361706Y-130612011D01*
X121350500Y-130560500D01*
X121350499Y-130056765D01*
X121370183Y-129989726D01*
X121386813Y-129969089D01*
X123973585Y-127382319D01*
X124034908Y-127348834D01*
X124061266Y-127346000D01*
X132661323Y-127346000D01*
X132728362Y-127365685D01*
X132730213Y-127366897D01*
X132823133Y-127428984D01*
X132896700Y-127459456D01*
X132970269Y-127489930D01*
X133126465Y-127520999D01*
X133126469Y-127521000D01*
X133126470Y-127521000D01*
X133285731Y-127521000D01*
X133285732Y-127520999D01*
X133441931Y-127489930D01*
X133589068Y-127428983D01*
X133721489Y-127340503D01*
X133834103Y-127227889D01*
X133922583Y-127095468D01*
X133983530Y-126948331D01*
X134014600Y-126792130D01*
X134014600Y-126632870D01*
X133983530Y-126476669D01*
X133922583Y-126329532D01*
X133849683Y-126220429D01*
X133834104Y-126197112D01*
X133834098Y-126197105D01*
X133721494Y-126084501D01*
X133721487Y-126084495D01*
X133589069Y-125996017D01*
X133441931Y-125935070D01*
X133441923Y-125935068D01*
X133285734Y-125904000D01*
X133285730Y-125904000D01*
X133126470Y-125904000D01*
X133126465Y-125904000D01*
X132970276Y-125935068D01*
X132970268Y-125935070D01*
X132823133Y-125996015D01*
X132730213Y-126058103D01*
X132663536Y-126078980D01*
X132661323Y-126079000D01*
X123685101Y-126079000D01*
X123562722Y-126103343D01*
X123562714Y-126103345D01*
X123447427Y-126151098D01*
X123447418Y-126151103D01*
X123343667Y-126220428D01*
X123343663Y-126220431D01*
X120390913Y-129173181D01*
X120329590Y-129206666D01*
X120303232Y-129209500D01*
X119641462Y-129209500D01*
X119641446Y-129209501D01*
X119537572Y-129220113D01*
X119369264Y-129275884D01*
X119369259Y-129275886D01*
X119218346Y-129368971D01*
X119092971Y-129494346D01*
X118999886Y-129645259D01*
X118999884Y-129645264D01*
X118944113Y-129813572D01*
X118933500Y-129917447D01*
X118933500Y-129917455D01*
X118933500Y-130293120D01*
X118933501Y-130560500D01*
X118913817Y-130627539D01*
X118861013Y-130673294D01*
X118809501Y-130684500D01*
X116238499Y-130684500D01*
X116171460Y-130664815D01*
X116125705Y-130612011D01*
X116114499Y-130560500D01*
X116114499Y-129917462D01*
X116114498Y-129917446D01*
X116112248Y-129895423D01*
X116103887Y-129813574D01*
X116048115Y-129645262D01*
X115955030Y-129494348D01*
X115829652Y-129368970D01*
X115678738Y-129275885D01*
X115678735Y-129275884D01*
X115510427Y-129220113D01*
X115406546Y-129209500D01*
X114405462Y-129209500D01*
X114405446Y-129209501D01*
X114301572Y-129220113D01*
X114133264Y-129275884D01*
X114133259Y-129275886D01*
X113982346Y-129368971D01*
X113856971Y-129494346D01*
X113763886Y-129645259D01*
X113763884Y-129645264D01*
X113708113Y-129813572D01*
X113697500Y-129917447D01*
X104469500Y-129917447D01*
X104469500Y-123685765D01*
X123663800Y-123685765D01*
X123663800Y-123845034D01*
X123694868Y-124001223D01*
X123694870Y-124001231D01*
X123755817Y-124148369D01*
X123844295Y-124280787D01*
X123844301Y-124280794D01*
X123956905Y-124393398D01*
X123956912Y-124393404D01*
X124089330Y-124481882D01*
X124089331Y-124481882D01*
X124089332Y-124481883D01*
X124236469Y-124542830D01*
X124392665Y-124573899D01*
X124392669Y-124573900D01*
X124392670Y-124573900D01*
X124551931Y-124573900D01*
X124551932Y-124573899D01*
X124708131Y-124542830D01*
X124855268Y-124481883D01*
X124948187Y-124419796D01*
X125014864Y-124398920D01*
X125017077Y-124398900D01*
X156474723Y-124398900D01*
X156541762Y-124418585D01*
X156543613Y-124419797D01*
X156636533Y-124481884D01*
X156710100Y-124512356D01*
X156783669Y-124542830D01*
X156939865Y-124573899D01*
X156939869Y-124573900D01*
X156939870Y-124573900D01*
X157099131Y-124573900D01*
X157099132Y-124573899D01*
X157255331Y-124542830D01*
X157402468Y-124481883D01*
X157534889Y-124393403D01*
X157647503Y-124280789D01*
X157735983Y-124148368D01*
X157796930Y-124001231D01*
X157828000Y-123845030D01*
X157828000Y-123685770D01*
X157796930Y-123529569D01*
X157735983Y-123382432D01*
X157647503Y-123250011D01*
X157647498Y-123250005D01*
X157534894Y-123137401D01*
X157534887Y-123137395D01*
X157402469Y-123048917D01*
X157255331Y-122987970D01*
X157255323Y-122987968D01*
X157099134Y-122956900D01*
X157099130Y-122956900D01*
X156939870Y-122956900D01*
X156939865Y-122956900D01*
X156783676Y-122987968D01*
X156783668Y-122987970D01*
X156636533Y-123048915D01*
X156543613Y-123111003D01*
X156476936Y-123131880D01*
X156474723Y-123131900D01*
X125017077Y-123131900D01*
X124950038Y-123112215D01*
X124948187Y-123111003D01*
X124855266Y-123048915D01*
X124708131Y-122987970D01*
X124708123Y-122987968D01*
X124551934Y-122956900D01*
X124551930Y-122956900D01*
X124392670Y-122956900D01*
X124392665Y-122956900D01*
X124236476Y-122987968D01*
X124236468Y-122987970D01*
X124089330Y-123048917D01*
X123956912Y-123137395D01*
X123956905Y-123137401D01*
X123844301Y-123250005D01*
X123844295Y-123250012D01*
X123755817Y-123382430D01*
X123694870Y-123529568D01*
X123694868Y-123529576D01*
X123663800Y-123685765D01*
X104469500Y-123685765D01*
X104469500Y-97161865D01*
X122876100Y-97161865D01*
X122876100Y-97321134D01*
X122907168Y-97477323D01*
X122907170Y-97477331D01*
X122968117Y-97624469D01*
X123056595Y-97756887D01*
X123056601Y-97756894D01*
X123169205Y-97869498D01*
X123169212Y-97869504D01*
X123301630Y-97957982D01*
X123301631Y-97957982D01*
X123301632Y-97957983D01*
X123448769Y-98018930D01*
X123604965Y-98049999D01*
X123604969Y-98050000D01*
X123604970Y-98050000D01*
X123764231Y-98050000D01*
X123764232Y-98049999D01*
X123920431Y-98018930D01*
X124067568Y-97957983D01*
X124160487Y-97895896D01*
X124227164Y-97875020D01*
X124229377Y-97875000D01*
X154134795Y-97875000D01*
X154134796Y-97874999D01*
X154257185Y-97850655D01*
X154372475Y-97802900D01*
X154476233Y-97733571D01*
X157082237Y-95127566D01*
X157143558Y-95094083D01*
X157145725Y-95093632D01*
X157203498Y-95082139D01*
X157255331Y-95071830D01*
X157402468Y-95010883D01*
X157534889Y-94922403D01*
X157647503Y-94809789D01*
X157735983Y-94677368D01*
X157796930Y-94530231D01*
X157828000Y-94374030D01*
X157828000Y-94214770D01*
X157796930Y-94058569D01*
X157735983Y-93911432D01*
X157647503Y-93779011D01*
X157647498Y-93779005D01*
X157534894Y-93666401D01*
X157534887Y-93666395D01*
X157402469Y-93577917D01*
X157255331Y-93516970D01*
X157255323Y-93516968D01*
X157099134Y-93485900D01*
X157099130Y-93485900D01*
X156939870Y-93485900D01*
X156939865Y-93485900D01*
X156783676Y-93516968D01*
X156783668Y-93516970D01*
X156636530Y-93577917D01*
X156504112Y-93666395D01*
X156504105Y-93666401D01*
X156391501Y-93779005D01*
X156391495Y-93779012D01*
X156303017Y-93911430D01*
X156242070Y-94058568D01*
X156242068Y-94058574D01*
X156220268Y-94168172D01*
X156187883Y-94230082D01*
X156186332Y-94231661D01*
X153846315Y-96571681D01*
X153784992Y-96605166D01*
X153758634Y-96608000D01*
X143693038Y-96608000D01*
X143625999Y-96588315D01*
X143580244Y-96535511D01*
X143570300Y-96466353D01*
X143571421Y-96459809D01*
X143592599Y-96353334D01*
X143592600Y-96353331D01*
X143592600Y-96194069D01*
X143592599Y-96194065D01*
X143561531Y-96037876D01*
X143561530Y-96037869D01*
X143500583Y-95890732D01*
X143481650Y-95862397D01*
X143412104Y-95758312D01*
X143412098Y-95758305D01*
X143299494Y-95645701D01*
X143299487Y-95645695D01*
X143167069Y-95557217D01*
X143019931Y-95496270D01*
X143019923Y-95496268D01*
X142863734Y-95465200D01*
X142863730Y-95465200D01*
X142704470Y-95465200D01*
X142704465Y-95465200D01*
X142548276Y-95496268D01*
X142548268Y-95496270D01*
X142401133Y-95557215D01*
X142308213Y-95619303D01*
X142241536Y-95640180D01*
X142239323Y-95640200D01*
X136155301Y-95640200D01*
X136032922Y-95664543D01*
X136032914Y-95664545D01*
X136021015Y-95669473D01*
X136013803Y-95672461D01*
X135966352Y-95681900D01*
X135921365Y-95681900D01*
X135765176Y-95712968D01*
X135765168Y-95712970D01*
X135618030Y-95773917D01*
X135485612Y-95862395D01*
X135485605Y-95862401D01*
X135373001Y-95975005D01*
X135372995Y-95975012D01*
X135284517Y-96107430D01*
X135223570Y-96254568D01*
X135223568Y-96254576D01*
X135192500Y-96410765D01*
X135192500Y-96484000D01*
X135172815Y-96551039D01*
X135120011Y-96596794D01*
X135068500Y-96608000D01*
X124229377Y-96608000D01*
X124162338Y-96588315D01*
X124160487Y-96587103D01*
X124067566Y-96525015D01*
X123920431Y-96464070D01*
X123920423Y-96464068D01*
X123764234Y-96433000D01*
X123764230Y-96433000D01*
X123604970Y-96433000D01*
X123604965Y-96433000D01*
X123448776Y-96464068D01*
X123448768Y-96464070D01*
X123301630Y-96525017D01*
X123169212Y-96613495D01*
X123169205Y-96613501D01*
X123056601Y-96726105D01*
X123056595Y-96726112D01*
X122968117Y-96858530D01*
X122907170Y-97005668D01*
X122907168Y-97005676D01*
X122876100Y-97161865D01*
X104469500Y-97161865D01*
X104469500Y-89274455D01*
X104489185Y-89207416D01*
X104541989Y-89161661D01*
X104611147Y-89151717D01*
X104640952Y-89159894D01*
X104683769Y-89177630D01*
X104833515Y-89207416D01*
X104839965Y-89208699D01*
X104839969Y-89208700D01*
X104839970Y-89208700D01*
X104868830Y-89208700D01*
X104916282Y-89218138D01*
X104962915Y-89237455D01*
X105085301Y-89261799D01*
X105085305Y-89261800D01*
X105085306Y-89261800D01*
X111616351Y-89261800D01*
X111683390Y-89281485D01*
X111729145Y-89334289D01*
X111739089Y-89403447D01*
X111734282Y-89424118D01*
X111713242Y-89488870D01*
X111713242Y-89488873D01*
X111702769Y-89555000D01*
X112596988Y-89555000D01*
X112564075Y-89612007D01*
X112530000Y-89739174D01*
X112530000Y-89870826D01*
X112564075Y-89997993D01*
X112596988Y-90055000D01*
X111702769Y-90055000D01*
X111713242Y-90121126D01*
X111713242Y-90121129D01*
X111778904Y-90323217D01*
X111875379Y-90512557D01*
X112000272Y-90684459D01*
X112000276Y-90684464D01*
X112150535Y-90834723D01*
X112150540Y-90834727D01*
X112322442Y-90959620D01*
X112511782Y-91056095D01*
X112713871Y-91121757D01*
X112780000Y-91132231D01*
X112780000Y-90238012D01*
X112837007Y-90270925D01*
X112964174Y-90305000D01*
X113095826Y-90305000D01*
X113222993Y-90270925D01*
X113280000Y-90238012D01*
X113280000Y-91132230D01*
X113346126Y-91121757D01*
X113346129Y-91121757D01*
X113548217Y-91056095D01*
X113737557Y-90959620D01*
X113909459Y-90834727D01*
X113909464Y-90834723D01*
X114059723Y-90684464D01*
X114059727Y-90684459D01*
X114184619Y-90512560D01*
X114184738Y-90512327D01*
X114184808Y-90512252D01*
X114187168Y-90508402D01*
X114187976Y-90508897D01*
X114232707Y-90461526D01*
X114300526Y-90444723D01*
X114366663Y-90467254D01*
X114405712Y-90512311D01*
X114408105Y-90517008D01*
X114450002Y-90574674D01*
X114533794Y-90690004D01*
X114684996Y-90841206D01*
X114857991Y-90966894D01*
X114904756Y-90990722D01*
X115048516Y-91063972D01*
X115048519Y-91063973D01*
X115122185Y-91087908D01*
X115251884Y-91130049D01*
X115463084Y-91163500D01*
X115463085Y-91163500D01*
X115676915Y-91163500D01*
X115676916Y-91163500D01*
X115888116Y-91130049D01*
X116091483Y-91063972D01*
X116282009Y-90966894D01*
X116455004Y-90841206D01*
X116606206Y-90690004D01*
X116731894Y-90517009D01*
X116731900Y-90516995D01*
X116734266Y-90513137D01*
X116786074Y-90466256D01*
X116855002Y-90454827D01*
X116919168Y-90482478D01*
X116945734Y-90513137D01*
X116948104Y-90517005D01*
X116948106Y-90517009D01*
X117073794Y-90690004D01*
X117224996Y-90841206D01*
X117397991Y-90966894D01*
X117444756Y-90990722D01*
X117588516Y-91063972D01*
X117588519Y-91063973D01*
X117662185Y-91087908D01*
X117791884Y-91130049D01*
X118003084Y-91163500D01*
X118003085Y-91163500D01*
X118216915Y-91163500D01*
X118216916Y-91163500D01*
X118428116Y-91130049D01*
X118631483Y-91063972D01*
X118822009Y-90966894D01*
X118995004Y-90841206D01*
X119146206Y-90690004D01*
X119271894Y-90517009D01*
X119271896Y-90517004D01*
X119274270Y-90513132D01*
X119326080Y-90466254D01*
X119395009Y-90454829D01*
X119459173Y-90482483D01*
X119485730Y-90513132D01*
X119488103Y-90517005D01*
X119488105Y-90517008D01*
X119488106Y-90517009D01*
X119613794Y-90690004D01*
X119764996Y-90841206D01*
X119937991Y-90966894D01*
X119984756Y-90990722D01*
X120128516Y-91063972D01*
X120128519Y-91063973D01*
X120202185Y-91087908D01*
X120331884Y-91130049D01*
X120543084Y-91163500D01*
X120543085Y-91163500D01*
X120756915Y-91163500D01*
X120756916Y-91163500D01*
X120968116Y-91130049D01*
X121171483Y-91063972D01*
X121362009Y-90966894D01*
X121535004Y-90841206D01*
X121686206Y-90690004D01*
X121811894Y-90517009D01*
X121811896Y-90517004D01*
X121814270Y-90513132D01*
X121866080Y-90466254D01*
X121935009Y-90454829D01*
X121999173Y-90482483D01*
X122025730Y-90513132D01*
X122028103Y-90517005D01*
X122028105Y-90517008D01*
X122028106Y-90517009D01*
X122153794Y-90690004D01*
X122304996Y-90841206D01*
X122477991Y-90966894D01*
X122524756Y-90990722D01*
X122668516Y-91063972D01*
X122668519Y-91063973D01*
X122742185Y-91087908D01*
X122871884Y-91130049D01*
X123083084Y-91163500D01*
X123083085Y-91163500D01*
X123296915Y-91163500D01*
X123296916Y-91163500D01*
X123508116Y-91130049D01*
X123542282Y-91118947D01*
X123612121Y-91116952D01*
X123671954Y-91153032D01*
X123702783Y-91215733D01*
X123694819Y-91285147D01*
X123683702Y-91305768D01*
X123649517Y-91356930D01*
X123588570Y-91504068D01*
X123588568Y-91504076D01*
X123557500Y-91660265D01*
X123557500Y-91819534D01*
X123588568Y-91975723D01*
X123588570Y-91975731D01*
X123649517Y-92122869D01*
X123737995Y-92255287D01*
X123738001Y-92255294D01*
X123850605Y-92367898D01*
X123850612Y-92367904D01*
X123983030Y-92456382D01*
X123983031Y-92456382D01*
X123983032Y-92456383D01*
X124130169Y-92517330D01*
X124286365Y-92548399D01*
X124286369Y-92548400D01*
X124286370Y-92548400D01*
X124445631Y-92548400D01*
X124445632Y-92548399D01*
X124601831Y-92517330D01*
X124748968Y-92456383D01*
X124748969Y-92456382D01*
X124748970Y-92456382D01*
X124878853Y-92369598D01*
X124945530Y-92348720D01*
X124947743Y-92348700D01*
X141072049Y-92348700D01*
X141139088Y-92368385D01*
X141184843Y-92421189D01*
X141193666Y-92448509D01*
X141219368Y-92577723D01*
X141219370Y-92577731D01*
X141280317Y-92724869D01*
X141368795Y-92857287D01*
X141368801Y-92857294D01*
X141481405Y-92969898D01*
X141481412Y-92969904D01*
X141613830Y-93058382D01*
X141613831Y-93058382D01*
X141613832Y-93058383D01*
X141760969Y-93119330D01*
X141917165Y-93150399D01*
X141917169Y-93150400D01*
X141917170Y-93150400D01*
X142076431Y-93150400D01*
X142076432Y-93150399D01*
X142232631Y-93119330D01*
X142379768Y-93058383D01*
X142472687Y-92996296D01*
X142539364Y-92975420D01*
X142541577Y-92975400D01*
X158006495Y-92975400D01*
X158006496Y-92975399D01*
X158128885Y-92951055D01*
X158244175Y-92903300D01*
X158347933Y-92833971D01*
X160051977Y-91129925D01*
X160113298Y-91096442D01*
X160182989Y-91101426D01*
X160188155Y-91103784D01*
X160193793Y-91105887D01*
X160193796Y-91105889D01*
X160330799Y-91156989D01*
X160358050Y-91159918D01*
X160391345Y-91163499D01*
X160391362Y-91163500D01*
X162188638Y-91163500D01*
X162188654Y-91163499D01*
X162215692Y-91160591D01*
X162249201Y-91156989D01*
X162386204Y-91105889D01*
X162503261Y-91018261D01*
X162590889Y-90901204D01*
X162641989Y-90764201D01*
X162646771Y-90719719D01*
X162648499Y-90703654D01*
X162648500Y-90703637D01*
X162648500Y-88906362D01*
X162648499Y-88906345D01*
X162644870Y-88872600D01*
X162641989Y-88845799D01*
X162639379Y-88838802D01*
X162615685Y-88775276D01*
X162590889Y-88708796D01*
X162503261Y-88591739D01*
X162386204Y-88504111D01*
X162386202Y-88504110D01*
X162386204Y-88504110D01*
X162265375Y-88459043D01*
X162209441Y-88417172D01*
X162185025Y-88351707D01*
X162199877Y-88283434D01*
X162221022Y-88255187D01*
X162326206Y-88150004D01*
X162451894Y-87977009D01*
X162548972Y-87786483D01*
X162615049Y-87583116D01*
X162648500Y-87371916D01*
X162648500Y-87158084D01*
X162615049Y-86946884D01*
X162548972Y-86743517D01*
X162548972Y-86743516D01*
X162493680Y-86635000D01*
X162451894Y-86552991D01*
X162326206Y-86379996D01*
X162175004Y-86228794D01*
X162002009Y-86103106D01*
X161947810Y-86075490D01*
X161811483Y-86006027D01*
X161811480Y-86006026D01*
X161608117Y-85939951D01*
X161442507Y-85913721D01*
X161396916Y-85906500D01*
X161183084Y-85906500D01*
X161137493Y-85913721D01*
X160971882Y-85939951D01*
X160768519Y-86006026D01*
X160768516Y-86006027D01*
X160577990Y-86103106D01*
X160404993Y-86228796D01*
X160253796Y-86379993D01*
X160128105Y-86552991D01*
X160125727Y-86556873D01*
X160073914Y-86603748D01*
X160004984Y-86615169D01*
X159940822Y-86587512D01*
X159914273Y-86556873D01*
X159911894Y-86552991D01*
X159840338Y-86454503D01*
X159786206Y-86379996D01*
X159635004Y-86228794D01*
X159462009Y-86103106D01*
X159407810Y-86075490D01*
X159271483Y-86006027D01*
X159271480Y-86006026D01*
X159068117Y-85939951D01*
X158902507Y-85913721D01*
X158856916Y-85906500D01*
X158643084Y-85906500D01*
X158597493Y-85913721D01*
X158431882Y-85939951D01*
X158228519Y-86006026D01*
X158228516Y-86006027D01*
X158037990Y-86103106D01*
X157864993Y-86228796D01*
X157713796Y-86379993D01*
X157588103Y-86552994D01*
X157585709Y-86557693D01*
X157537731Y-86608485D01*
X157469908Y-86625275D01*
X157403775Y-86602732D01*
X157367800Y-86561210D01*
X157367168Y-86561598D01*
X157364829Y-86557781D01*
X157364743Y-86557682D01*
X157364620Y-86557441D01*
X157239727Y-86385540D01*
X157239723Y-86385535D01*
X157089464Y-86235276D01*
X157089459Y-86235272D01*
X156917557Y-86110379D01*
X156728215Y-86013903D01*
X156526124Y-85948241D01*
X156460000Y-85937768D01*
X156460000Y-86831988D01*
X156402993Y-86799075D01*
X156275826Y-86765000D01*
X156144174Y-86765000D01*
X156017007Y-86799075D01*
X155960000Y-86831988D01*
X155960000Y-85937768D01*
X155959999Y-85937768D01*
X155893875Y-85948241D01*
X155691784Y-86013903D01*
X155502442Y-86110379D01*
X155330540Y-86235272D01*
X155330535Y-86235276D01*
X155180276Y-86385535D01*
X155180272Y-86385540D01*
X155055376Y-86557446D01*
X155055374Y-86557448D01*
X155055246Y-86557701D01*
X155055172Y-86557779D01*
X155052832Y-86561598D01*
X155052029Y-86561106D01*
X155007264Y-86608489D01*
X154939441Y-86625274D01*
X154873309Y-86602727D01*
X154834285Y-86557683D01*
X154831895Y-86552992D01*
X154760338Y-86454503D01*
X154706206Y-86379996D01*
X154555004Y-86228794D01*
X154382009Y-86103106D01*
X154327810Y-86075490D01*
X154191483Y-86006027D01*
X154191480Y-86006026D01*
X153988117Y-85939951D01*
X153822507Y-85913721D01*
X153776916Y-85906500D01*
X153563084Y-85906500D01*
X153517493Y-85913721D01*
X153351882Y-85939951D01*
X153148519Y-86006026D01*
X153148516Y-86006027D01*
X152957987Y-86103108D01*
X152833434Y-86193601D01*
X152767628Y-86217081D01*
X152699574Y-86201255D01*
X152672868Y-86180964D01*
X149132536Y-82640631D01*
X149132532Y-82640628D01*
X149028781Y-82571303D01*
X149028772Y-82571298D01*
X148913485Y-82523545D01*
X148913477Y-82523543D01*
X148791098Y-82499200D01*
X148791094Y-82499200D01*
X146368550Y-82499200D01*
X146301511Y-82479515D01*
X146255756Y-82426711D01*
X146245812Y-82357553D01*
X146274837Y-82293997D01*
X146321097Y-82260639D01*
X146391968Y-82231283D01*
X146524389Y-82142803D01*
X146637003Y-82030189D01*
X146725483Y-81897768D01*
X146786430Y-81750631D01*
X146817500Y-81594430D01*
X146817500Y-81435170D01*
X146786430Y-81278969D01*
X146725483Y-81131832D01*
X146712452Y-81112330D01*
X146637004Y-80999412D01*
X146636998Y-80999405D01*
X146524394Y-80886801D01*
X146524387Y-80886795D01*
X146391969Y-80798317D01*
X146244831Y-80737370D01*
X146244823Y-80737368D01*
X146088634Y-80706300D01*
X146088630Y-80706300D01*
X145929370Y-80706300D01*
X145929365Y-80706300D01*
X145773176Y-80737368D01*
X145773168Y-80737370D01*
X145626030Y-80798317D01*
X145493612Y-80886795D01*
X145493605Y-80886801D01*
X145381001Y-80999405D01*
X145380995Y-80999412D01*
X145292517Y-81131830D01*
X145231570Y-81278968D01*
X145231568Y-81278976D01*
X145209768Y-81388572D01*
X145177383Y-81450483D01*
X145175832Y-81452062D01*
X144791715Y-81836181D01*
X144730392Y-81869666D01*
X144704034Y-81872500D01*
X139853304Y-81872500D01*
X139786265Y-81852815D01*
X139740510Y-81800011D01*
X139730566Y-81730853D01*
X139731687Y-81724309D01*
X139750541Y-81629523D01*
X139761400Y-81574930D01*
X139761400Y-81415670D01*
X139730330Y-81259469D01*
X139669383Y-81112332D01*
X139657467Y-81094499D01*
X139580904Y-80979912D01*
X139580898Y-80979905D01*
X139468294Y-80867301D01*
X139468287Y-80867295D01*
X139335869Y-80778817D01*
X139188731Y-80717870D01*
X139188723Y-80717868D01*
X139032534Y-80686800D01*
X139032530Y-80686800D01*
X138873270Y-80686800D01*
X138873265Y-80686800D01*
X138717076Y-80717868D01*
X138717068Y-80717870D01*
X138569930Y-80778817D01*
X138437512Y-80867295D01*
X138437505Y-80867301D01*
X138324901Y-80979905D01*
X138324895Y-80979912D01*
X138236417Y-81112330D01*
X138212839Y-81169253D01*
X138168998Y-81223657D01*
X138102703Y-81245721D01*
X138098278Y-81245800D01*
X134732500Y-81245800D01*
X134665461Y-81226115D01*
X134619706Y-81173311D01*
X134608500Y-81121800D01*
X134608499Y-80185462D01*
X134608498Y-80185446D01*
X134608218Y-80182707D01*
X134597887Y-80081574D01*
X134542115Y-79913262D01*
X134449030Y-79762348D01*
X134323652Y-79636970D01*
X134185916Y-79552013D01*
X134172740Y-79543886D01*
X134172735Y-79543884D01*
X134004427Y-79488113D01*
X133900552Y-79477500D01*
X133900545Y-79477500D01*
X133238766Y-79477500D01*
X133171727Y-79457815D01*
X133151085Y-79441181D01*
X132806636Y-79096731D01*
X132806632Y-79096728D01*
X132702881Y-79027403D01*
X132702872Y-79027398D01*
X132587585Y-78979645D01*
X132587577Y-78979643D01*
X132465198Y-78955300D01*
X132465194Y-78955300D01*
X130925966Y-78955300D01*
X130858927Y-78935615D01*
X130813172Y-78882811D01*
X130803228Y-78813653D01*
X130832253Y-78750097D01*
X130838285Y-78743619D01*
X131151085Y-78430818D01*
X131212408Y-78397333D01*
X131238766Y-78394499D01*
X131900537Y-78394499D01*
X131900544Y-78394499D01*
X132004426Y-78383887D01*
X132172738Y-78328115D01*
X132323652Y-78235030D01*
X132412319Y-78146363D01*
X132473642Y-78112878D01*
X132543334Y-78117862D01*
X132587681Y-78146363D01*
X132676348Y-78235030D01*
X132827262Y-78328115D01*
X132995574Y-78383887D01*
X133099455Y-78394500D01*
X133761233Y-78394499D01*
X133828272Y-78414183D01*
X133848914Y-78430818D01*
X135396163Y-79978068D01*
X135396167Y-79978071D01*
X135499918Y-80047396D01*
X135499924Y-80047399D01*
X135499925Y-80047400D01*
X135615215Y-80095155D01*
X135737601Y-80119499D01*
X135737605Y-80119500D01*
X135737606Y-80119500D01*
X135862394Y-80119500D01*
X142457223Y-80119500D01*
X142524262Y-80139185D01*
X142526113Y-80140397D01*
X142619033Y-80202484D01*
X142692600Y-80232956D01*
X142766169Y-80263430D01*
X142916890Y-80293410D01*
X142922365Y-80294499D01*
X142922369Y-80294500D01*
X142922370Y-80294500D01*
X143081631Y-80294500D01*
X143081632Y-80294499D01*
X143237831Y-80263430D01*
X143384968Y-80202483D01*
X143477887Y-80140396D01*
X143544564Y-80119520D01*
X143546777Y-80119500D01*
X146084476Y-80119500D01*
X146151515Y-80139185D01*
X146190013Y-80178401D01*
X146270970Y-80309652D01*
X146396348Y-80435030D01*
X146547262Y-80528115D01*
X146715574Y-80583887D01*
X146819455Y-80594500D01*
X147820544Y-80594499D01*
X147924426Y-80583887D01*
X148092738Y-80528115D01*
X148243652Y-80435030D01*
X148369030Y-80309652D01*
X148462115Y-80158738D01*
X148517887Y-79990426D01*
X148528500Y-79886545D01*
X148528500Y-79862120D01*
X151799500Y-79862120D01*
X151799500Y-80409879D01*
X151809764Y-80510336D01*
X151863697Y-80673098D01*
X151863702Y-80673109D01*
X151953712Y-80819036D01*
X151953715Y-80819040D01*
X152074959Y-80940284D01*
X152074963Y-80940287D01*
X152220890Y-81030297D01*
X152220893Y-81030298D01*
X152220899Y-81030302D01*
X152383664Y-81084236D01*
X152484128Y-81094500D01*
X152484133Y-81094500D01*
X153331867Y-81094500D01*
X153331872Y-81094500D01*
X153432336Y-81084236D01*
X153595101Y-81030302D01*
X153741040Y-80940285D01*
X153862285Y-80819040D01*
X153952302Y-80673101D01*
X154006236Y-80510336D01*
X154016500Y-80409872D01*
X154016500Y-80407971D01*
X154016616Y-80407573D01*
X154016660Y-80406724D01*
X154016820Y-80406732D01*
X154016821Y-80406731D01*
X154016844Y-80406733D01*
X154016863Y-80406734D01*
X154036185Y-80340932D01*
X154088989Y-80295177D01*
X154158147Y-80285233D01*
X154187951Y-80293409D01*
X154291569Y-80336330D01*
X154445679Y-80366984D01*
X154447765Y-80367399D01*
X154447769Y-80367400D01*
X154447770Y-80367400D01*
X154607031Y-80367400D01*
X154607032Y-80367399D01*
X154763231Y-80336330D01*
X154910368Y-80275383D01*
X155042789Y-80186903D01*
X155155403Y-80074289D01*
X155243883Y-79941868D01*
X155304830Y-79794731D01*
X155335900Y-79638530D01*
X155335900Y-79479270D01*
X155304830Y-79323069D01*
X155243883Y-79175932D01*
X155221231Y-79142031D01*
X155155404Y-79043512D01*
X155155398Y-79043505D01*
X155042794Y-78930901D01*
X155042787Y-78930895D01*
X154910369Y-78842417D01*
X154763231Y-78781470D01*
X154763223Y-78781468D01*
X154607034Y-78750400D01*
X154607030Y-78750400D01*
X154447770Y-78750400D01*
X154447765Y-78750400D01*
X154291576Y-78781468D01*
X154291568Y-78781470D01*
X154144433Y-78842415D01*
X154051513Y-78904503D01*
X153984836Y-78925380D01*
X153982623Y-78925400D01*
X153422702Y-78925400D01*
X153300319Y-78949743D01*
X153300314Y-78949745D01*
X153266548Y-78963729D01*
X153266549Y-78963730D01*
X153185026Y-78997498D01*
X153185022Y-78997500D01*
X153081271Y-79066824D01*
X153081269Y-79066825D01*
X153051367Y-79096728D01*
X153006912Y-79141182D01*
X152945592Y-79174666D01*
X152919233Y-79177500D01*
X152484120Y-79177500D01*
X152383663Y-79187764D01*
X152220901Y-79241697D01*
X152220890Y-79241702D01*
X152074963Y-79331712D01*
X152074959Y-79331715D01*
X151953715Y-79452959D01*
X151953712Y-79452963D01*
X151863702Y-79598890D01*
X151863697Y-79598901D01*
X151809764Y-79761663D01*
X151799500Y-79862120D01*
X148528500Y-79862120D01*
X148528499Y-79379915D01*
X148548183Y-79312877D01*
X148600987Y-79267122D01*
X148605047Y-79265355D01*
X148613191Y-79261981D01*
X148623568Y-79257683D01*
X148755989Y-79169203D01*
X148868603Y-79056589D01*
X148957083Y-78924168D01*
X149018030Y-78777031D01*
X149049100Y-78620830D01*
X149049100Y-78461570D01*
X149018030Y-78305369D01*
X149012058Y-78290953D01*
X149004589Y-78221486D01*
X149035862Y-78159006D01*
X149095950Y-78123352D01*
X149126619Y-78119500D01*
X152320395Y-78119500D01*
X152320396Y-78119499D01*
X152442785Y-78095155D01*
X152558075Y-78047400D01*
X152661833Y-77978071D01*
X152809086Y-77830817D01*
X152870408Y-77797334D01*
X152896766Y-77794500D01*
X153331867Y-77794500D01*
X153331872Y-77794500D01*
X153432336Y-77784236D01*
X153595101Y-77730302D01*
X153741040Y-77640285D01*
X153862285Y-77519040D01*
X153952302Y-77373101D01*
X154006236Y-77210336D01*
X154016500Y-77109872D01*
X154016500Y-76562128D01*
X154006236Y-76461664D01*
X153952302Y-76298899D01*
X153952298Y-76298893D01*
X153952297Y-76298890D01*
X153862287Y-76152963D01*
X153862284Y-76152959D01*
X153741040Y-76031715D01*
X153741036Y-76031712D01*
X153595109Y-75941702D01*
X153595103Y-75941699D01*
X153595101Y-75941698D01*
X153432336Y-75887764D01*
X153331879Y-75877500D01*
X153331872Y-75877500D01*
X152484128Y-75877500D01*
X152484120Y-75877500D01*
X152383663Y-75887764D01*
X152220901Y-75941697D01*
X152220890Y-75941702D01*
X152074963Y-76031712D01*
X152074959Y-76031715D01*
X151953715Y-76152959D01*
X151953712Y-76152963D01*
X151953269Y-76153682D01*
X151952837Y-76154070D01*
X151949234Y-76158627D01*
X151948454Y-76158010D01*
X151901315Y-76200400D01*
X151832351Y-76211614D01*
X151768272Y-76183762D01*
X151729423Y-76125689D01*
X151726123Y-76112774D01*
X151706430Y-76013769D01*
X151645483Y-75866632D01*
X151639590Y-75857813D01*
X151557004Y-75734212D01*
X151556998Y-75734205D01*
X151444394Y-75621601D01*
X151444387Y-75621595D01*
X151311969Y-75533117D01*
X151164831Y-75472170D01*
X151164823Y-75472168D01*
X151055226Y-75450368D01*
X150993315Y-75417984D01*
X150991736Y-75416432D01*
X149146586Y-73571281D01*
X149113101Y-73509958D01*
X149118085Y-73440266D01*
X149159957Y-73384333D01*
X149225421Y-73359916D01*
X149234267Y-73359600D01*
X150847223Y-73359600D01*
X150914262Y-73379285D01*
X150916113Y-73380497D01*
X151009033Y-73442584D01*
X151078360Y-73471300D01*
X151156169Y-73503530D01*
X151312365Y-73534599D01*
X151312369Y-73534600D01*
X151312370Y-73534600D01*
X151471631Y-73534600D01*
X151471632Y-73534599D01*
X151627831Y-73503530D01*
X151774968Y-73442583D01*
X151907389Y-73354103D01*
X152020003Y-73241489D01*
X152108483Y-73109068D01*
X152169430Y-72961931D01*
X152200500Y-72805730D01*
X152200500Y-72646470D01*
X152169430Y-72490269D01*
X152108483Y-72343132D01*
X152054715Y-72262662D01*
X152020004Y-72210712D01*
X152019998Y-72210705D01*
X151907394Y-72098101D01*
X151907387Y-72098095D01*
X151774969Y-72009617D01*
X151627831Y-71948670D01*
X151627823Y-71948668D01*
X151471634Y-71917600D01*
X151471630Y-71917600D01*
X151312370Y-71917600D01*
X151312365Y-71917600D01*
X151156176Y-71948668D01*
X151156168Y-71948670D01*
X151009033Y-72009615D01*
X150916113Y-72071703D01*
X150849436Y-72092580D01*
X150847223Y-72092600D01*
X136556701Y-72092600D01*
X136434322Y-72116943D01*
X136434310Y-72116946D01*
X136404658Y-72129229D01*
X136319032Y-72164695D01*
X136319019Y-72164702D01*
X136215266Y-72234027D01*
X136215263Y-72234030D01*
X134820180Y-73629114D01*
X134758857Y-73662599D01*
X134689165Y-73657615D01*
X134633232Y-73615743D01*
X134608815Y-73550279D01*
X134608499Y-73541433D01*
X134608499Y-73275462D01*
X134608498Y-73275446D01*
X134605274Y-73243888D01*
X134597887Y-73171574D01*
X134542115Y-73003262D01*
X134449030Y-72852348D01*
X134323652Y-72726970D01*
X134229898Y-72669142D01*
X134172740Y-72633886D01*
X134172735Y-72633884D01*
X134004427Y-72578113D01*
X133900546Y-72567500D01*
X133099462Y-72567500D01*
X133099446Y-72567501D01*
X132995572Y-72578113D01*
X132827264Y-72633884D01*
X132827259Y-72633886D01*
X132676346Y-72726971D01*
X132587681Y-72815637D01*
X132526358Y-72849122D01*
X132456666Y-72844138D01*
X132412319Y-72815637D01*
X132323653Y-72726971D01*
X132323652Y-72726970D01*
X132229898Y-72669142D01*
X132172740Y-72633886D01*
X132172735Y-72633884D01*
X132004427Y-72578113D01*
X131900552Y-72567500D01*
X131900545Y-72567500D01*
X131238766Y-72567500D01*
X131171727Y-72547815D01*
X131151085Y-72531181D01*
X130965636Y-72345731D01*
X130965632Y-72345728D01*
X130861881Y-72276403D01*
X130861876Y-72276401D01*
X130861875Y-72276400D01*
X130828709Y-72262662D01*
X130774306Y-72218820D01*
X130752242Y-72152526D01*
X130769522Y-72084827D01*
X130788478Y-72060424D01*
X131418085Y-71430818D01*
X131479408Y-71397333D01*
X131505766Y-71394499D01*
X131900537Y-71394499D01*
X131900544Y-71394499D01*
X132004426Y-71383887D01*
X132172738Y-71328115D01*
X132323652Y-71235030D01*
X132412319Y-71146363D01*
X132473642Y-71112878D01*
X132543334Y-71117862D01*
X132587681Y-71146363D01*
X132676348Y-71235030D01*
X132827262Y-71328115D01*
X132995574Y-71383887D01*
X133099455Y-71394500D01*
X133900544Y-71394499D01*
X134004426Y-71383887D01*
X134052986Y-71367795D01*
X134122812Y-71365393D01*
X134160880Y-71382399D01*
X134238230Y-71434082D01*
X134238231Y-71434082D01*
X134238232Y-71434083D01*
X134385369Y-71495030D01*
X134531862Y-71524169D01*
X134541565Y-71526099D01*
X134541569Y-71526100D01*
X134541570Y-71526100D01*
X134700831Y-71526100D01*
X134700832Y-71526099D01*
X134857031Y-71495030D01*
X135004168Y-71434083D01*
X135136589Y-71345603D01*
X135249203Y-71232989D01*
X135337683Y-71100568D01*
X135398630Y-70953431D01*
X135429700Y-70797230D01*
X135429700Y-70637970D01*
X135398630Y-70481769D01*
X135337683Y-70334632D01*
X135312202Y-70296497D01*
X135249204Y-70202212D01*
X135249198Y-70202205D01*
X135136594Y-70089601D01*
X135136587Y-70089595D01*
X135004169Y-70001117D01*
X134857031Y-69940170D01*
X134857025Y-69940168D01*
X134708307Y-69910586D01*
X134646396Y-69878201D01*
X134611822Y-69817485D01*
X134608499Y-69788969D01*
X134608499Y-69685462D01*
X134608498Y-69685446D01*
X134608218Y-69682707D01*
X134597887Y-69581574D01*
X134542115Y-69413262D01*
X134449030Y-69262348D01*
X134323652Y-69136970D01*
X134172738Y-69043885D01*
X134172735Y-69043884D01*
X134004427Y-68988113D01*
X133900546Y-68977500D01*
X133099462Y-68977500D01*
X133099446Y-68977501D01*
X132995572Y-68988113D01*
X132827264Y-69043884D01*
X132827259Y-69043886D01*
X132676346Y-69136971D01*
X132587681Y-69225637D01*
X132526358Y-69259122D01*
X132456666Y-69254138D01*
X132412319Y-69225637D01*
X132323653Y-69136971D01*
X132323652Y-69136970D01*
X132172738Y-69043885D01*
X132172735Y-69043884D01*
X132004427Y-68988113D01*
X131900546Y-68977500D01*
X131099462Y-68977500D01*
X131099446Y-68977501D01*
X130995572Y-68988113D01*
X130827264Y-69043884D01*
X130827259Y-69043886D01*
X130676346Y-69136971D01*
X130550971Y-69262346D01*
X130457886Y-69413259D01*
X130457884Y-69413264D01*
X130402113Y-69581572D01*
X130391500Y-69685447D01*
X130391500Y-70614233D01*
X130371815Y-70681272D01*
X130355181Y-70701914D01*
X129598228Y-71458866D01*
X129536905Y-71492351D01*
X129467213Y-71487367D01*
X129465086Y-71486000D01*
X126550001Y-71486000D01*
X126519820Y-71516181D01*
X126492892Y-71530884D01*
X126467074Y-71547477D01*
X126460873Y-71548368D01*
X126458497Y-71549666D01*
X126432139Y-71552500D01*
X126369833Y-71552500D01*
X126302794Y-71532815D01*
X126282156Y-71516185D01*
X126190155Y-71424184D01*
X126042913Y-71335173D01*
X125878649Y-71283987D01*
X125878647Y-71283986D01*
X125878645Y-71283986D01*
X125828667Y-71279444D01*
X125807265Y-71277500D01*
X125807262Y-71277500D01*
X124192727Y-71277500D01*
X124121355Y-71283985D01*
X124121344Y-71283988D01*
X123957090Y-71335171D01*
X123809841Y-71424186D01*
X123688186Y-71545841D01*
X123599173Y-71693086D01*
X123547986Y-71857354D01*
X123542796Y-71914466D01*
X123541841Y-71924989D01*
X123541500Y-71928737D01*
X123541500Y-72443272D01*
X123547985Y-72514645D01*
X123547986Y-72514650D01*
X123579725Y-72616504D01*
X123580875Y-72686364D01*
X123549020Y-72741074D01*
X123417796Y-72872298D01*
X123356473Y-72905783D01*
X123286781Y-72900799D01*
X123230848Y-72858927D01*
X123206431Y-72793463D01*
X123215557Y-72737158D01*
X123217930Y-72731431D01*
X123249000Y-72575230D01*
X123249000Y-72415970D01*
X123217930Y-72259769D01*
X123156983Y-72112632D01*
X123152492Y-72105911D01*
X123068504Y-71980212D01*
X123068498Y-71980205D01*
X122955894Y-71867601D01*
X122955887Y-71867595D01*
X122823469Y-71779117D01*
X122676331Y-71718170D01*
X122676323Y-71718168D01*
X122520134Y-71687100D01*
X122520130Y-71687100D01*
X122360870Y-71687100D01*
X122360869Y-71687100D01*
X122354807Y-71687697D01*
X122354669Y-71686301D01*
X122292119Y-71680699D01*
X122236946Y-71637832D01*
X122221348Y-71608647D01*
X122200889Y-71553796D01*
X122199919Y-71552500D01*
X122113261Y-71436739D01*
X121996204Y-71349111D01*
X121992920Y-71347886D01*
X121859203Y-71298011D01*
X121798654Y-71291500D01*
X121798638Y-71291500D01*
X120201362Y-71291500D01*
X120201345Y-71291500D01*
X120140797Y-71298011D01*
X120140795Y-71298011D01*
X120003795Y-71349111D01*
X119886739Y-71436739D01*
X119799111Y-71553795D01*
X119748011Y-71690795D01*
X119748011Y-71690797D01*
X119741500Y-71751345D01*
X119741500Y-72848654D01*
X119748010Y-72909198D01*
X119748033Y-72909293D01*
X119748041Y-72909485D01*
X119748840Y-72916911D01*
X119748375Y-72916960D01*
X119750093Y-72955448D01*
X119736500Y-73049997D01*
X119736500Y-73665833D01*
X119751616Y-73780643D01*
X119753998Y-73798732D01*
X119785171Y-73915070D01*
X119788074Y-73925902D01*
X119839366Y-74049734D01*
X119839374Y-74049750D01*
X119905192Y-74163749D01*
X119905204Y-74163767D01*
X119986802Y-74270106D01*
X119986810Y-74270115D01*
X120079885Y-74363190D01*
X120079893Y-74363197D01*
X120186232Y-74444795D01*
X120186236Y-74444797D01*
X120186243Y-74444803D01*
X120186250Y-74444807D01*
X120300249Y-74510625D01*
X120300265Y-74510633D01*
X120382819Y-74544827D01*
X120424101Y-74561927D01*
X120551268Y-74596002D01*
X120684174Y-74613500D01*
X120684181Y-74613500D01*
X121315819Y-74613500D01*
X121315826Y-74613500D01*
X121448732Y-74596002D01*
X121575899Y-74561927D01*
X121667006Y-74524189D01*
X121699734Y-74510633D01*
X121699737Y-74510631D01*
X121699743Y-74510629D01*
X121813757Y-74444803D01*
X121920106Y-74363198D01*
X121920110Y-74363193D01*
X121920115Y-74363190D01*
X122013486Y-74269819D01*
X122074809Y-74236334D01*
X122101167Y-74233500D01*
X123648395Y-74233500D01*
X123648396Y-74233499D01*
X123770785Y-74209155D01*
X123886075Y-74161400D01*
X123989833Y-74092071D01*
X124951085Y-73130817D01*
X125012408Y-73097333D01*
X125038766Y-73094499D01*
X125807271Y-73094499D01*
X125878644Y-73088014D01*
X125878647Y-73088013D01*
X125878649Y-73088013D01*
X126042913Y-73036827D01*
X126190155Y-72947816D01*
X126282153Y-72855817D01*
X126309084Y-72841111D01*
X126334898Y-72824523D01*
X126341097Y-72823631D01*
X126343474Y-72822334D01*
X126369833Y-72819500D01*
X126417500Y-72819500D01*
X126484539Y-72839185D01*
X126530294Y-72891989D01*
X126541500Y-72943500D01*
X126541500Y-73393272D01*
X126547985Y-73464645D01*
X126547988Y-73464655D01*
X126599171Y-73628909D01*
X126599172Y-73628911D01*
X126599173Y-73628913D01*
X126688184Y-73776155D01*
X126688186Y-73776158D01*
X126809841Y-73897813D01*
X126809843Y-73897814D01*
X126809845Y-73897816D01*
X126957087Y-73986827D01*
X127121351Y-74038013D01*
X127192735Y-74044500D01*
X127961233Y-74044499D01*
X128028272Y-74064183D01*
X128048914Y-74080818D01*
X128891715Y-74923619D01*
X128925200Y-74984942D01*
X128920216Y-75054634D01*
X128878344Y-75110567D01*
X128812880Y-75134984D01*
X128804034Y-75135300D01*
X116539101Y-75135300D01*
X116416722Y-75159643D01*
X116416714Y-75159645D01*
X116301427Y-75207398D01*
X116301418Y-75207403D01*
X116197667Y-75276728D01*
X116197663Y-75276731D01*
X115697362Y-75777032D01*
X115636039Y-75810517D01*
X115633872Y-75810968D01*
X115524276Y-75832768D01*
X115524268Y-75832770D01*
X115377130Y-75893717D01*
X115244712Y-75982195D01*
X115244705Y-75982201D01*
X115132101Y-76094805D01*
X115132095Y-76094812D01*
X115043617Y-76227230D01*
X114982670Y-76374368D01*
X114982668Y-76374376D01*
X114951600Y-76530565D01*
X114951600Y-76689834D01*
X114982668Y-76846023D01*
X114982670Y-76846031D01*
X115043617Y-76993169D01*
X115132095Y-77125587D01*
X115132101Y-77125594D01*
X115244705Y-77238198D01*
X115244712Y-77238204D01*
X115377130Y-77326682D01*
X115377131Y-77326682D01*
X115377132Y-77326683D01*
X115524269Y-77387630D01*
X115640764Y-77410802D01*
X115680465Y-77418699D01*
X115680469Y-77418700D01*
X115680470Y-77418700D01*
X115839731Y-77418700D01*
X115839732Y-77418699D01*
X115995931Y-77387630D01*
X116143068Y-77326683D01*
X116275489Y-77238203D01*
X116388103Y-77125589D01*
X116476583Y-76993168D01*
X116537530Y-76846031D01*
X116559331Y-76736422D01*
X116591715Y-76674515D01*
X116593155Y-76673047D01*
X116827586Y-76438616D01*
X116888908Y-76405134D01*
X116915266Y-76402300D01*
X121343860Y-76402300D01*
X121410899Y-76421985D01*
X121456654Y-76474789D01*
X121466598Y-76543947D01*
X121446961Y-76595192D01*
X121439316Y-76606631D01*
X121378370Y-76753768D01*
X121378368Y-76753776D01*
X121356568Y-76863372D01*
X121324183Y-76925283D01*
X121322632Y-76926862D01*
X120441615Y-77807881D01*
X120380292Y-77841366D01*
X120353934Y-77844200D01*
X107651965Y-77844200D01*
X107587816Y-77826317D01*
X107542915Y-77799174D01*
X107542914Y-77799173D01*
X107542913Y-77799173D01*
X107378649Y-77747987D01*
X107378647Y-77747986D01*
X107378645Y-77747986D01*
X107328667Y-77743444D01*
X107307265Y-77741500D01*
X107307262Y-77741500D01*
X105692727Y-77741500D01*
X105621355Y-77747985D01*
X105621344Y-77747988D01*
X105457090Y-77799171D01*
X105309843Y-77888185D01*
X105265461Y-77932568D01*
X105217846Y-77980182D01*
X105190915Y-77994888D01*
X105165102Y-78011477D01*
X105158902Y-78012368D01*
X105156526Y-78013666D01*
X105130167Y-78016500D01*
X105082500Y-78016500D01*
X105015461Y-77996815D01*
X104969706Y-77944011D01*
X104958500Y-77892500D01*
X104958499Y-77442727D01*
X104952014Y-77371354D01*
X104952011Y-77371344D01*
X104900828Y-77207090D01*
X104900827Y-77207089D01*
X104900827Y-77207087D01*
X104811816Y-77059845D01*
X104811814Y-77059843D01*
X104811813Y-77059841D01*
X104690158Y-76938186D01*
X104542913Y-76849173D01*
X104514621Y-76840357D01*
X104378649Y-76797987D01*
X104378647Y-76797986D01*
X104378645Y-76797986D01*
X104328667Y-76793444D01*
X104307265Y-76791500D01*
X104307262Y-76791500D01*
X103538766Y-76791500D01*
X103471727Y-76771815D01*
X103451085Y-76755181D01*
X102301536Y-75605631D01*
X102301532Y-75605628D01*
X102197781Y-75536303D01*
X102197772Y-75536298D01*
X102082485Y-75488545D01*
X102082477Y-75488543D01*
X101960098Y-75464200D01*
X101960094Y-75464200D01*
X99098694Y-75464200D01*
X98973906Y-75464200D01*
X98973901Y-75464200D01*
X98851522Y-75488543D01*
X98851514Y-75488545D01*
X98736223Y-75536300D01*
X98736222Y-75536300D01*
X98632468Y-75605626D01*
X98632461Y-75605632D01*
X98356913Y-75881181D01*
X98295590Y-75914666D01*
X98269232Y-75917500D01*
X97607462Y-75917500D01*
X97607446Y-75917501D01*
X97503572Y-75928113D01*
X97335264Y-75983884D01*
X97335259Y-75983886D01*
X97184346Y-76076971D01*
X97058971Y-76202346D01*
X96965886Y-76353259D01*
X96965884Y-76353264D01*
X96910113Y-76521572D01*
X96899500Y-76625447D01*
X96899500Y-77626537D01*
X96899501Y-77626553D01*
X96910113Y-77730427D01*
X96965884Y-77898735D01*
X96965886Y-77898740D01*
X96971413Y-77907700D01*
X97058970Y-78049652D01*
X97184348Y-78175030D01*
X97310947Y-78253117D01*
X97357670Y-78305064D01*
X97368893Y-78374027D01*
X97348952Y-78427545D01*
X97285016Y-78523233D01*
X97224070Y-78670368D01*
X97224068Y-78670376D01*
X97193000Y-78826565D01*
X97193000Y-78985834D01*
X97224068Y-79142023D01*
X97224071Y-79142035D01*
X97252120Y-79209751D01*
X97259589Y-79279220D01*
X97228314Y-79341699D01*
X97202660Y-79362739D01*
X97176348Y-79378969D01*
X97050969Y-79504349D01*
X96957886Y-79655259D01*
X96957884Y-79655264D01*
X96902113Y-79823572D01*
X96891500Y-79927447D01*
X96891500Y-80928537D01*
X96891501Y-80928553D01*
X96902113Y-81032427D01*
X96957884Y-81200735D01*
X96957886Y-81200740D01*
X96973538Y-81226115D01*
X97050970Y-81351652D01*
X97176348Y-81477030D01*
X97327262Y-81570115D01*
X97495574Y-81625887D01*
X97495575Y-81625887D01*
X97501925Y-81627247D01*
X97563359Y-81660528D01*
X97597048Y-81721740D01*
X97592295Y-81791447D01*
X97550610Y-81847520D01*
X97485227Y-81872154D01*
X97475970Y-81872500D01*
X75045477Y-81872500D01*
X74978438Y-81852815D01*
X74976587Y-81851603D01*
X74883666Y-81789515D01*
X74736531Y-81728570D01*
X74736523Y-81728568D01*
X74580334Y-81697500D01*
X74580330Y-81697500D01*
X74421070Y-81697500D01*
X74421065Y-81697500D01*
X74264876Y-81728568D01*
X74264868Y-81728570D01*
X74117730Y-81789517D01*
X73985312Y-81877995D01*
X73985305Y-81878001D01*
X73872701Y-81990605D01*
X73872695Y-81990612D01*
X73784217Y-82123030D01*
X73723270Y-82270168D01*
X73723268Y-82270176D01*
X73692200Y-82426365D01*
X70255500Y-82426365D01*
X70255500Y-75786345D01*
X71651500Y-75786345D01*
X71651500Y-77883654D01*
X71658011Y-77944202D01*
X71658011Y-77944204D01*
X71697343Y-78049653D01*
X71709111Y-78081204D01*
X71796739Y-78198261D01*
X71913796Y-78285889D01*
X72050799Y-78336989D01*
X72078050Y-78339918D01*
X72111345Y-78343499D01*
X72111362Y-78343500D01*
X76518638Y-78343500D01*
X76518654Y-78343499D01*
X76545692Y-78340591D01*
X76579201Y-78336989D01*
X76716204Y-78285889D01*
X76833261Y-78198261D01*
X76920889Y-78081204D01*
X76971989Y-77944201D01*
X76976580Y-77901500D01*
X76978499Y-77883654D01*
X76978500Y-77883637D01*
X76978500Y-76716947D01*
X77950000Y-76716947D01*
X77950000Y-76953052D01*
X77986934Y-77186247D01*
X78059897Y-77410802D01*
X78167087Y-77621174D01*
X78227338Y-77704104D01*
X78227340Y-77704105D01*
X78967037Y-76964408D01*
X78984075Y-77027993D01*
X79049901Y-77142007D01*
X79142993Y-77235099D01*
X79257007Y-77300925D01*
X79320589Y-77317962D01*
X78580893Y-78057658D01*
X78663828Y-78117914D01*
X78874197Y-78225102D01*
X79098752Y-78298065D01*
X79098751Y-78298065D01*
X79331948Y-78335000D01*
X79568052Y-78335000D01*
X79801247Y-78298065D01*
X80025799Y-78225103D01*
X80048704Y-78213433D01*
X80117373Y-78200536D01*
X80161296Y-78213433D01*
X80184200Y-78225103D01*
X80408752Y-78298065D01*
X80408751Y-78298065D01*
X80641948Y-78335000D01*
X81010000Y-78335000D01*
X81010000Y-77335000D01*
X81510000Y-77335000D01*
X81510000Y-78335000D01*
X81878052Y-78335000D01*
X82111247Y-78298065D01*
X82335802Y-78225102D01*
X82546171Y-78117914D01*
X82737186Y-77979133D01*
X82904133Y-77812186D01*
X83042914Y-77621171D01*
X83150102Y-77410802D01*
X83223065Y-77186247D01*
X83239102Y-77085000D01*
X82193012Y-77085000D01*
X82225925Y-77027993D01*
X82260000Y-76900826D01*
X82260000Y-76769174D01*
X82225925Y-76642007D01*
X82193012Y-76585000D01*
X83239102Y-76585000D01*
X83223065Y-76483752D01*
X83150102Y-76259197D01*
X83042914Y-76048828D01*
X82904133Y-75857813D01*
X82737186Y-75690866D01*
X82546171Y-75552085D01*
X82335802Y-75444897D01*
X82111247Y-75371934D01*
X82111248Y-75371934D01*
X81878052Y-75335000D01*
X81510000Y-75335000D01*
X81510000Y-76335000D01*
X81010000Y-76335000D01*
X81010000Y-75335000D01*
X80641948Y-75335000D01*
X80408752Y-75371934D01*
X80184196Y-75444897D01*
X80161293Y-75456567D01*
X80092624Y-75469462D01*
X80048707Y-75456567D01*
X80025803Y-75444897D01*
X79801247Y-75371934D01*
X79801248Y-75371934D01*
X79568052Y-75335000D01*
X79331948Y-75335000D01*
X79098752Y-75371934D01*
X78874197Y-75444897D01*
X78663830Y-75552084D01*
X78580894Y-75612340D01*
X79320591Y-76352037D01*
X79257007Y-76369075D01*
X79142993Y-76434901D01*
X79049901Y-76527993D01*
X78984075Y-76642007D01*
X78967037Y-76705591D01*
X78227340Y-75965894D01*
X78167084Y-76048830D01*
X78059897Y-76259197D01*
X77986934Y-76483752D01*
X77950000Y-76716947D01*
X76978500Y-76716947D01*
X76978500Y-75786362D01*
X76978499Y-75786345D01*
X76971989Y-75725798D01*
X76963461Y-75702935D01*
X76963460Y-75702932D01*
X76920889Y-75588796D01*
X76893407Y-75552085D01*
X76833261Y-75471739D01*
X76716204Y-75384111D01*
X76683557Y-75371934D01*
X76579203Y-75333011D01*
X76518654Y-75326500D01*
X76518638Y-75326500D01*
X75208638Y-75326500D01*
X72111362Y-75326500D01*
X72111345Y-75326500D01*
X72050797Y-75333011D01*
X72050795Y-75333011D01*
X71913795Y-75384111D01*
X71796739Y-75471739D01*
X71709111Y-75588795D01*
X71658011Y-75725795D01*
X71658011Y-75725797D01*
X71651500Y-75786345D01*
X70255500Y-75786345D01*
X70255500Y-63782155D01*
X76235000Y-63782155D01*
X76235000Y-65330000D01*
X77985000Y-65330000D01*
X77985000Y-65830000D01*
X76235000Y-65830000D01*
X76235000Y-67377844D01*
X76241401Y-67437372D01*
X76241403Y-67437379D01*
X76291645Y-67572086D01*
X76291649Y-67572093D01*
X76377809Y-67687187D01*
X76377812Y-67687190D01*
X76492906Y-67773350D01*
X76492913Y-67773354D01*
X76627620Y-67823596D01*
X76627627Y-67823598D01*
X76687155Y-67829999D01*
X76687172Y-67830000D01*
X78235000Y-67830000D01*
X78235000Y-67013012D01*
X78292007Y-67045925D01*
X78419174Y-67080000D01*
X78550826Y-67080000D01*
X78677993Y-67045925D01*
X78735000Y-67013012D01*
X78735000Y-67830000D01*
X80282828Y-67830000D01*
X80282844Y-67829999D01*
X80342372Y-67823598D01*
X80342379Y-67823596D01*
X80477086Y-67773354D01*
X80477093Y-67773350D01*
X80592187Y-67687190D01*
X80592190Y-67687187D01*
X80678350Y-67572093D01*
X80678355Y-67572084D01*
X80686318Y-67550735D01*
X80728188Y-67494801D01*
X80793652Y-67470383D01*
X80861925Y-67485234D01*
X80911331Y-67534639D01*
X80926500Y-67594067D01*
X80926500Y-70378654D01*
X80933011Y-70439202D01*
X80933011Y-70439204D01*
X80971822Y-70543257D01*
X80984111Y-70576204D01*
X81071739Y-70693261D01*
X81188796Y-70780889D01*
X81325799Y-70831989D01*
X81353050Y-70834918D01*
X81386345Y-70838499D01*
X81386362Y-70838500D01*
X84983638Y-70838500D01*
X84983654Y-70838499D01*
X85010692Y-70835591D01*
X85044201Y-70831989D01*
X85181204Y-70780889D01*
X85298261Y-70693261D01*
X85385889Y-70576204D01*
X85436989Y-70439201D01*
X85441613Y-70396189D01*
X85443499Y-70378654D01*
X85443500Y-70378637D01*
X85443500Y-69812500D01*
X85463185Y-69745461D01*
X85515989Y-69699706D01*
X85567500Y-69688500D01*
X90507240Y-69688500D01*
X90507241Y-69688500D01*
X90679574Y-69661205D01*
X90715762Y-69649447D01*
X96899500Y-69649447D01*
X96899500Y-70650537D01*
X96899501Y-70650553D01*
X96910113Y-70754427D01*
X96924297Y-70797231D01*
X96965885Y-70922738D01*
X97058970Y-71073652D01*
X97184348Y-71199030D01*
X97335262Y-71292115D01*
X97503574Y-71347887D01*
X97607455Y-71358500D01*
X98269233Y-71358499D01*
X98336272Y-71378183D01*
X98356914Y-71394818D01*
X98648675Y-71686579D01*
X98682160Y-71747902D01*
X98677176Y-71817594D01*
X98635304Y-71873527D01*
X98608449Y-71888820D01*
X98569832Y-71904816D01*
X98569830Y-71904817D01*
X98437412Y-71993295D01*
X98437405Y-71993301D01*
X98324801Y-72105905D01*
X98324795Y-72105912D01*
X98236318Y-72238328D01*
X98187181Y-72356954D01*
X98143339Y-72411357D01*
X98077045Y-72433421D01*
X98072620Y-72433500D01*
X97607462Y-72433500D01*
X97607446Y-72433501D01*
X97503572Y-72444113D01*
X97335264Y-72499884D01*
X97335259Y-72499886D01*
X97184346Y-72592971D01*
X97058971Y-72718346D01*
X96965886Y-72869259D01*
X96965884Y-72869264D01*
X96910113Y-73037572D01*
X96899500Y-73141447D01*
X96899500Y-74142537D01*
X96899501Y-74142553D01*
X96910113Y-74246427D01*
X96948804Y-74363190D01*
X96965885Y-74414738D01*
X97058970Y-74565652D01*
X97184348Y-74691030D01*
X97335262Y-74784115D01*
X97503574Y-74839887D01*
X97607455Y-74850500D01*
X98408544Y-74850499D01*
X98512426Y-74839887D01*
X98680738Y-74784115D01*
X98831652Y-74691030D01*
X98920319Y-74602363D01*
X98981642Y-74568878D01*
X99051334Y-74573862D01*
X99095681Y-74602363D01*
X99184348Y-74691030D01*
X99335262Y-74784115D01*
X99503574Y-74839887D01*
X99607455Y-74850500D01*
X100408544Y-74850499D01*
X100512426Y-74839887D01*
X100680738Y-74784115D01*
X100831652Y-74691030D01*
X100957030Y-74565652D01*
X101050115Y-74414738D01*
X101105887Y-74246426D01*
X101116500Y-74142545D01*
X101116499Y-73512582D01*
X102050001Y-73512582D01*
X102056408Y-73583102D01*
X102056409Y-73583107D01*
X102106981Y-73745396D01*
X102194927Y-73890877D01*
X102315122Y-74011072D01*
X102460604Y-74099019D01*
X102460603Y-74099019D01*
X102622894Y-74149590D01*
X102622893Y-74149590D01*
X102693427Y-74155999D01*
X103249999Y-74155999D01*
X103750000Y-74155999D01*
X104306581Y-74155999D01*
X104377102Y-74149591D01*
X104377107Y-74149590D01*
X104539396Y-74099018D01*
X104684877Y-74011072D01*
X104805072Y-73890877D01*
X104893019Y-73745395D01*
X104943590Y-73583106D01*
X104950000Y-73512572D01*
X104950000Y-73506000D01*
X103750000Y-73506000D01*
X103750000Y-74155999D01*
X103249999Y-74155999D01*
X103250000Y-74155998D01*
X103250000Y-73506000D01*
X102050001Y-73506000D01*
X102050001Y-73512582D01*
X101116499Y-73512582D01*
X101116499Y-73480765D01*
X101125145Y-73451319D01*
X101131667Y-73421339D01*
X101135419Y-73416325D01*
X101136183Y-73413727D01*
X101152818Y-73393085D01*
X101178946Y-73366957D01*
X101374330Y-73171574D01*
X101570085Y-72975819D01*
X101631408Y-72942334D01*
X101657766Y-72939500D01*
X101932138Y-72939500D01*
X101999177Y-72959185D01*
X102019819Y-72975819D01*
X102050000Y-73006000D01*
X104949999Y-73006000D01*
X104980180Y-72975819D01*
X105007107Y-72961115D01*
X105032926Y-72944523D01*
X105039126Y-72943631D01*
X105041503Y-72942334D01*
X105067861Y-72939500D01*
X105130167Y-72939500D01*
X105197206Y-72959185D01*
X105217843Y-72975814D01*
X105309845Y-73067816D01*
X105457087Y-73156827D01*
X105621351Y-73208013D01*
X105692735Y-73214500D01*
X107307264Y-73214499D01*
X107307271Y-73214499D01*
X107378644Y-73208014D01*
X107378647Y-73208013D01*
X107378649Y-73208013D01*
X107542913Y-73156827D01*
X107690155Y-73067816D01*
X107811816Y-72946155D01*
X107900827Y-72798913D01*
X107952013Y-72634649D01*
X107958500Y-72563265D01*
X107958499Y-72048736D01*
X107958499Y-72048727D01*
X107952014Y-71977354D01*
X107952012Y-71977347D01*
X107929411Y-71904817D01*
X107920273Y-71875495D01*
X107920035Y-71861017D01*
X107914975Y-71847450D01*
X107919470Y-71826783D01*
X107919122Y-71805636D01*
X107927023Y-71792066D01*
X107929827Y-71779177D01*
X107950975Y-71750928D01*
X108039086Y-71662818D01*
X108100409Y-71629333D01*
X108126766Y-71626500D01*
X109117500Y-71626500D01*
X109184539Y-71646185D01*
X109230294Y-71698989D01*
X109241500Y-71750500D01*
X109241500Y-72841654D01*
X109248011Y-72902202D01*
X109248011Y-72902204D01*
X109275469Y-72975819D01*
X109299111Y-73039204D01*
X109386739Y-73156261D01*
X109503796Y-73243889D01*
X109640799Y-73294989D01*
X109668050Y-73297918D01*
X109701345Y-73301499D01*
X109701362Y-73301500D01*
X111298638Y-73301500D01*
X111298654Y-73301499D01*
X111325692Y-73298591D01*
X111359201Y-73294989D01*
X111496204Y-73243889D01*
X111613261Y-73156261D01*
X111700889Y-73039204D01*
X111712839Y-73007166D01*
X111754710Y-72951232D01*
X111820175Y-72926816D01*
X111829020Y-72926500D01*
X114247095Y-72926500D01*
X114247096Y-72926499D01*
X114369485Y-72902155D01*
X114484775Y-72854400D01*
X114588533Y-72785071D01*
X115822837Y-71550765D01*
X115884158Y-71517282D01*
X115886222Y-71516851D01*
X115995931Y-71495030D01*
X116143068Y-71434083D01*
X116275489Y-71345603D01*
X116388103Y-71232989D01*
X116476583Y-71100568D01*
X116537530Y-70953431D01*
X116568600Y-70797230D01*
X116568600Y-70637970D01*
X116568600Y-70637969D01*
X116568600Y-70631878D01*
X116570815Y-70631878D01*
X116581987Y-70572998D01*
X116630056Y-70522292D01*
X116692366Y-70505500D01*
X120514023Y-70505500D01*
X120581062Y-70525185D01*
X120582913Y-70526397D01*
X120675833Y-70588484D01*
X120737997Y-70614233D01*
X120822969Y-70649430D01*
X120979165Y-70680499D01*
X120979169Y-70680500D01*
X120979170Y-70680500D01*
X121138431Y-70680500D01*
X121138432Y-70680499D01*
X121294631Y-70649430D01*
X121441768Y-70588483D01*
X121574189Y-70500003D01*
X121686803Y-70387389D01*
X121775283Y-70254968D01*
X121836230Y-70107831D01*
X121857457Y-70001117D01*
X121868489Y-69945655D01*
X121869908Y-69945937D01*
X121893361Y-69887858D01*
X121950396Y-69847500D01*
X121990603Y-69840800D01*
X127663334Y-69840800D01*
X127692774Y-69849444D01*
X127722761Y-69855968D01*
X127727776Y-69859722D01*
X127730373Y-69860485D01*
X127751015Y-69877119D01*
X127817432Y-69943536D01*
X127850917Y-70004859D01*
X127851368Y-70007026D01*
X127871419Y-70107831D01*
X127873170Y-70116631D01*
X127890564Y-70158625D01*
X127893018Y-70164548D01*
X127900486Y-70234018D01*
X127869210Y-70296497D01*
X127809121Y-70332149D01*
X127778456Y-70336000D01*
X127193417Y-70336000D01*
X127122897Y-70342408D01*
X127122892Y-70342409D01*
X126960603Y-70392981D01*
X126815122Y-70480927D01*
X126694927Y-70601122D01*
X126606980Y-70746604D01*
X126556409Y-70908893D01*
X126550000Y-70979427D01*
X126550000Y-70986000D01*
X129449999Y-70986000D01*
X129449999Y-70979417D01*
X129443591Y-70908897D01*
X129443590Y-70908892D01*
X129393018Y-70746603D01*
X129305072Y-70601122D01*
X129277052Y-70573102D01*
X129243567Y-70511779D01*
X129248551Y-70442087D01*
X129274924Y-70401052D01*
X129274738Y-70400899D01*
X129276054Y-70399294D01*
X129277057Y-70397734D01*
X129278603Y-70396189D01*
X129367083Y-70263768D01*
X129428030Y-70116631D01*
X129459100Y-69960430D01*
X129459100Y-69801170D01*
X129428030Y-69644969D01*
X129367083Y-69497832D01*
X129318767Y-69425522D01*
X129278604Y-69365412D01*
X129278598Y-69365405D01*
X129165994Y-69252801D01*
X129165987Y-69252795D01*
X129033569Y-69164317D01*
X128886431Y-69103370D01*
X128886423Y-69103368D01*
X128776826Y-69081568D01*
X128714915Y-69049184D01*
X128713336Y-69047632D01*
X128380936Y-68715231D01*
X128380932Y-68715228D01*
X128277181Y-68645903D01*
X128277172Y-68645898D01*
X128161885Y-68598145D01*
X128161877Y-68598143D01*
X128039498Y-68573800D01*
X128039494Y-68573800D01*
X115754411Y-68573800D01*
X115687372Y-68554115D01*
X115662582Y-68532046D01*
X115662411Y-68532218D01*
X115659457Y-68529264D01*
X115658556Y-68528462D01*
X115658103Y-68527910D01*
X115545494Y-68415301D01*
X115545487Y-68415295D01*
X115413069Y-68326817D01*
X115265931Y-68265870D01*
X115265923Y-68265868D01*
X115109734Y-68234800D01*
X115109730Y-68234800D01*
X114950470Y-68234800D01*
X114950465Y-68234800D01*
X114794276Y-68265868D01*
X114794268Y-68265870D01*
X114647130Y-68326817D01*
X114514712Y-68415295D01*
X114514705Y-68415301D01*
X114402101Y-68527905D01*
X114402095Y-68527912D01*
X114313617Y-68660330D01*
X114252670Y-68807468D01*
X114252668Y-68807476D01*
X114221600Y-68963665D01*
X114221600Y-69114500D01*
X114201915Y-69181539D01*
X114149111Y-69227294D01*
X114097600Y-69238500D01*
X101020545Y-69238500D01*
X100953506Y-69218815D01*
X100932864Y-69202182D01*
X100894999Y-69164317D01*
X100831652Y-69100970D01*
X100680738Y-69007885D01*
X100621069Y-68988113D01*
X100512427Y-68952113D01*
X100408546Y-68941500D01*
X99607462Y-68941500D01*
X99607446Y-68941501D01*
X99503572Y-68952113D01*
X99335264Y-69007884D01*
X99335259Y-69007886D01*
X99184346Y-69100971D01*
X99095681Y-69189637D01*
X99034358Y-69223122D01*
X98964666Y-69218138D01*
X98920319Y-69189637D01*
X98831653Y-69100971D01*
X98831652Y-69100970D01*
X98680738Y-69007885D01*
X98621069Y-68988113D01*
X98512427Y-68952113D01*
X98408546Y-68941500D01*
X97607462Y-68941500D01*
X97607446Y-68941501D01*
X97503572Y-68952113D01*
X97335264Y-69007884D01*
X97335259Y-69007886D01*
X97184346Y-69100971D01*
X97058971Y-69226346D01*
X96965886Y-69377259D01*
X96965884Y-69377264D01*
X96910113Y-69545572D01*
X96899500Y-69649447D01*
X90715762Y-69649447D01*
X90845517Y-69607288D01*
X91000981Y-69528074D01*
X91142139Y-69425517D01*
X92345517Y-68222139D01*
X92448074Y-68080981D01*
X92490866Y-67996998D01*
X92527286Y-67925522D01*
X92527290Y-67925511D01*
X92581204Y-67759577D01*
X92581203Y-67759577D01*
X92581205Y-67759574D01*
X92592087Y-67690865D01*
X97269000Y-67690865D01*
X97269000Y-67850134D01*
X97300068Y-68006323D01*
X97300070Y-68006331D01*
X97361017Y-68153469D01*
X97449495Y-68285887D01*
X97449501Y-68285894D01*
X97562105Y-68398498D01*
X97562112Y-68398504D01*
X97694530Y-68486982D01*
X97694531Y-68486982D01*
X97694532Y-68486983D01*
X97841669Y-68547930D01*
X97971728Y-68573800D01*
X97997865Y-68578999D01*
X97997869Y-68579000D01*
X97997870Y-68579000D01*
X98157131Y-68579000D01*
X98157132Y-68578999D01*
X98313331Y-68547930D01*
X98460468Y-68486983D01*
X98592889Y-68398503D01*
X98705503Y-68285889D01*
X98793983Y-68153468D01*
X98854930Y-68006331D01*
X98876731Y-67896722D01*
X98909115Y-67834815D01*
X98910610Y-67833292D01*
X99454537Y-67289365D01*
X133273900Y-67289365D01*
X133273900Y-67448634D01*
X133304968Y-67604823D01*
X133304970Y-67604831D01*
X133365917Y-67751969D01*
X133454395Y-67884387D01*
X133454401Y-67884394D01*
X133567005Y-67996998D01*
X133567012Y-67997004D01*
X133699430Y-68085482D01*
X133699431Y-68085482D01*
X133699432Y-68085483D01*
X133846569Y-68146430D01*
X134002765Y-68177499D01*
X134002769Y-68177500D01*
X134002770Y-68177500D01*
X134162031Y-68177500D01*
X134162032Y-68177499D01*
X134318231Y-68146430D01*
X134465368Y-68085483D01*
X134597789Y-67997003D01*
X134710403Y-67884389D01*
X134763977Y-67804208D01*
X134817589Y-67759404D01*
X134867079Y-67749100D01*
X144275521Y-67749100D01*
X144342560Y-67768785D01*
X144378623Y-67804209D01*
X144432198Y-67884391D01*
X144544805Y-67996998D01*
X144544812Y-67997004D01*
X144677230Y-68085482D01*
X144677231Y-68085482D01*
X144677232Y-68085483D01*
X144824369Y-68146430D01*
X144980565Y-68177499D01*
X144980569Y-68177500D01*
X144980570Y-68177500D01*
X145139831Y-68177500D01*
X145139832Y-68177499D01*
X145296031Y-68146430D01*
X145443168Y-68085483D01*
X145575589Y-67997003D01*
X145688203Y-67884389D01*
X145776683Y-67751968D01*
X145837630Y-67604831D01*
X145868700Y-67448630D01*
X145868700Y-67289370D01*
X145837630Y-67133169D01*
X145776683Y-66986032D01*
X145746462Y-66940803D01*
X145688204Y-66853612D01*
X145688198Y-66853605D01*
X145575594Y-66741001D01*
X145575587Y-66740995D01*
X145443169Y-66652517D01*
X145296031Y-66591570D01*
X145296023Y-66591568D01*
X145139828Y-66560499D01*
X145134845Y-66560008D01*
X145099555Y-66551167D01*
X144991589Y-66506446D01*
X144991577Y-66506443D01*
X144869198Y-66482100D01*
X144869194Y-66482100D01*
X134273406Y-66482100D01*
X134273401Y-66482100D01*
X134151022Y-66506443D01*
X134151010Y-66506446D01*
X134127292Y-66516271D01*
X134043041Y-66551168D01*
X134007745Y-66560010D01*
X134002764Y-66560500D01*
X133846576Y-66591568D01*
X133846568Y-66591570D01*
X133699430Y-66652517D01*
X133567012Y-66740995D01*
X133567005Y-66741001D01*
X133454401Y-66853605D01*
X133454395Y-66853612D01*
X133365917Y-66986030D01*
X133304970Y-67133168D01*
X133304968Y-67133176D01*
X133273900Y-67289365D01*
X99454537Y-67289365D01*
X101324085Y-65419819D01*
X101385408Y-65386334D01*
X101411766Y-65383500D01*
X113167673Y-65383500D01*
X113234712Y-65403185D01*
X113280467Y-65455989D01*
X113290411Y-65525147D01*
X113278158Y-65563794D01*
X113272714Y-65574477D01*
X113272710Y-65574486D01*
X113218795Y-65740424D01*
X113191500Y-65912759D01*
X113191500Y-66087240D01*
X113218795Y-66259575D01*
X113272710Y-66425513D01*
X113272711Y-66425516D01*
X113313948Y-66506446D01*
X113351068Y-66579298D01*
X113351928Y-66580984D01*
X113454477Y-66722132D01*
X113454481Y-66722137D01*
X113577862Y-66845518D01*
X113577867Y-66845522D01*
X113634967Y-66887007D01*
X113719019Y-66948074D01*
X113807324Y-66993068D01*
X113874483Y-67027288D01*
X113874486Y-67027289D01*
X113942791Y-67049482D01*
X114040426Y-67081205D01*
X114212759Y-67108500D01*
X114212760Y-67108500D01*
X114387240Y-67108500D01*
X114387241Y-67108500D01*
X114559574Y-67081205D01*
X114725516Y-67027288D01*
X114880981Y-66948074D01*
X115022139Y-66845517D01*
X115145517Y-66722139D01*
X115248074Y-66580981D01*
X115248932Y-66579296D01*
X115249429Y-66578769D01*
X115250619Y-66576829D01*
X115251026Y-66577078D01*
X115296898Y-66528496D01*
X115364717Y-66511691D01*
X115430855Y-66534220D01*
X115447104Y-66547897D01*
X115551405Y-66652198D01*
X115551412Y-66652204D01*
X115683830Y-66740682D01*
X115683831Y-66740682D01*
X115683832Y-66740683D01*
X115830969Y-66801630D01*
X115987165Y-66832699D01*
X115987169Y-66832700D01*
X115987170Y-66832700D01*
X116146431Y-66832700D01*
X116146432Y-66832699D01*
X116302631Y-66801630D01*
X116428219Y-66749608D01*
X116449766Y-66740684D01*
X116449766Y-66740683D01*
X116449768Y-66740683D01*
X116542687Y-66678596D01*
X116609364Y-66657720D01*
X116611577Y-66657700D01*
X117644484Y-66657700D01*
X117711523Y-66677385D01*
X117744801Y-66708813D01*
X117754482Y-66722138D01*
X117877862Y-66845518D01*
X117877867Y-66845522D01*
X117934967Y-66887007D01*
X118019019Y-66948074D01*
X118107324Y-66993068D01*
X118174483Y-67027288D01*
X118174486Y-67027289D01*
X118242791Y-67049482D01*
X118340426Y-67081205D01*
X118512759Y-67108500D01*
X118512760Y-67108500D01*
X118687240Y-67108500D01*
X118687241Y-67108500D01*
X118859574Y-67081205D01*
X119025516Y-67027288D01*
X119180981Y-66948074D01*
X119322139Y-66845517D01*
X119445517Y-66722139D01*
X119548074Y-66580981D01*
X119627288Y-66425516D01*
X119681205Y-66259574D01*
X119708500Y-66087241D01*
X119708500Y-65912759D01*
X119681205Y-65740426D01*
X119661546Y-65679920D01*
X119643699Y-65624990D01*
X119641704Y-65555149D01*
X119677785Y-65495317D01*
X119714176Y-65472112D01*
X119727768Y-65466483D01*
X119860189Y-65378003D01*
X119963570Y-65274621D01*
X120024891Y-65241138D01*
X120094583Y-65246122D01*
X120150517Y-65287993D01*
X120174934Y-65353457D01*
X120160722Y-65418784D01*
X120161408Y-65419134D01*
X120080591Y-65577742D01*
X120027085Y-65742415D01*
X120000000Y-65913428D01*
X120000000Y-66086571D01*
X120027085Y-66257584D01*
X120080592Y-66422259D01*
X120159196Y-66576525D01*
X120163709Y-66582736D01*
X120163709Y-66582737D01*
X120700000Y-66046446D01*
X120700000Y-66052661D01*
X120727259Y-66154394D01*
X120779920Y-66245606D01*
X120854394Y-66320080D01*
X120945606Y-66372741D01*
X121047339Y-66400000D01*
X121053553Y-66400000D01*
X120517261Y-66936289D01*
X120517262Y-66936290D01*
X120523471Y-66940801D01*
X120677742Y-67019408D01*
X120842415Y-67072914D01*
X121013429Y-67100000D01*
X121186571Y-67100000D01*
X121357584Y-67072914D01*
X121522257Y-67019408D01*
X121676525Y-66940803D01*
X121682736Y-66936289D01*
X121682737Y-66936289D01*
X121146448Y-66400000D01*
X121152661Y-66400000D01*
X121254394Y-66372741D01*
X121345606Y-66320080D01*
X121420080Y-66245606D01*
X121472741Y-66154394D01*
X121500000Y-66052661D01*
X121500000Y-66046447D01*
X122036289Y-66582736D01*
X122040803Y-66576525D01*
X122119408Y-66422257D01*
X122172914Y-66257584D01*
X122200000Y-66086571D01*
X122200000Y-65913428D01*
X122172914Y-65742415D01*
X122119407Y-65577740D01*
X122112302Y-65563796D01*
X122099405Y-65495127D01*
X122125681Y-65430386D01*
X122182787Y-65390129D01*
X122222786Y-65383500D01*
X126941995Y-65383500D01*
X126941996Y-65383499D01*
X127064385Y-65359155D01*
X127179675Y-65311400D01*
X127283433Y-65242071D01*
X130186985Y-62338519D01*
X130248308Y-62305034D01*
X130274666Y-62302200D01*
X133654000Y-62302200D01*
X133721039Y-62321885D01*
X133766794Y-62374689D01*
X133778000Y-62426200D01*
X133778000Y-62742000D01*
X134694988Y-62742000D01*
X134662075Y-62799007D01*
X134628000Y-62926174D01*
X134628000Y-63057826D01*
X134662075Y-63184993D01*
X134694988Y-63242000D01*
X133778001Y-63242000D01*
X133778001Y-63641986D01*
X133788494Y-63744697D01*
X133843641Y-63911119D01*
X133843643Y-63911124D01*
X133935684Y-64060345D01*
X134059654Y-64184315D01*
X134208875Y-64276356D01*
X134208880Y-64276358D01*
X134375302Y-64331505D01*
X134375309Y-64331506D01*
X134478019Y-64341999D01*
X134877999Y-64341999D01*
X134878000Y-64341998D01*
X134878000Y-63425012D01*
X134935007Y-63457925D01*
X135062174Y-63492000D01*
X135193826Y-63492000D01*
X135320993Y-63457925D01*
X135378000Y-63425012D01*
X135378000Y-64341999D01*
X135777972Y-64341999D01*
X135777986Y-64341998D01*
X135880697Y-64331505D01*
X136047119Y-64276358D01*
X136047124Y-64276356D01*
X136196345Y-64184315D01*
X136320315Y-64060345D01*
X136412355Y-63911124D01*
X136412849Y-63909636D01*
X136413464Y-63908746D01*
X136415408Y-63904579D01*
X136416119Y-63904910D01*
X136452616Y-63852187D01*
X136517129Y-63825357D01*
X136585906Y-63837666D01*
X136628313Y-63873568D01*
X136628630Y-63873299D01*
X136630288Y-63875240D01*
X136630870Y-63875733D01*
X136631668Y-63876830D01*
X136631794Y-63877004D01*
X136782996Y-64028206D01*
X136955991Y-64153894D01*
X137024111Y-64188603D01*
X137146516Y-64250972D01*
X137146519Y-64250973D01*
X137224642Y-64276356D01*
X137349884Y-64317049D01*
X137561084Y-64350500D01*
X137561085Y-64350500D01*
X137774915Y-64350500D01*
X137774916Y-64350500D01*
X137986116Y-64317049D01*
X138189483Y-64250972D01*
X138380009Y-64153894D01*
X138553004Y-64028206D01*
X138704206Y-63877004D01*
X138829894Y-63704009D01*
X138829896Y-63704004D01*
X138832270Y-63700132D01*
X138884080Y-63653254D01*
X138953009Y-63641829D01*
X139017173Y-63669483D01*
X139043730Y-63700132D01*
X139046103Y-63704005D01*
X139046106Y-63704009D01*
X139171794Y-63877004D01*
X139322996Y-64028206D01*
X139495991Y-64153894D01*
X139564111Y-64188603D01*
X139686516Y-64250972D01*
X139686519Y-64250973D01*
X139764642Y-64276356D01*
X139889884Y-64317049D01*
X140101084Y-64350500D01*
X140101085Y-64350500D01*
X140314915Y-64350500D01*
X140314916Y-64350500D01*
X140526116Y-64317049D01*
X140729483Y-64250972D01*
X140920009Y-64153894D01*
X141093004Y-64028206D01*
X141244206Y-63877004D01*
X141369894Y-63704009D01*
X141369896Y-63704004D01*
X141372270Y-63700132D01*
X141424080Y-63653254D01*
X141493009Y-63641829D01*
X141557173Y-63669483D01*
X141583730Y-63700132D01*
X141586103Y-63704005D01*
X141586106Y-63704009D01*
X141711794Y-63877004D01*
X141862996Y-64028206D01*
X142035991Y-64153894D01*
X142104111Y-64188603D01*
X142226516Y-64250972D01*
X142226519Y-64250973D01*
X142304642Y-64276356D01*
X142429884Y-64317049D01*
X142641084Y-64350500D01*
X142641085Y-64350500D01*
X142854915Y-64350500D01*
X142854916Y-64350500D01*
X143066116Y-64317049D01*
X143269483Y-64250972D01*
X143460009Y-64153894D01*
X143633004Y-64028206D01*
X143784206Y-63877004D01*
X143909894Y-63704009D01*
X143909896Y-63704004D01*
X143912270Y-63700132D01*
X143964080Y-63653254D01*
X144033009Y-63641829D01*
X144097173Y-63669483D01*
X144123730Y-63700132D01*
X144126103Y-63704005D01*
X144126106Y-63704009D01*
X144251794Y-63877004D01*
X144402996Y-64028206D01*
X144575991Y-64153894D01*
X144644111Y-64188603D01*
X144766516Y-64250972D01*
X144766519Y-64250973D01*
X144844642Y-64276356D01*
X144969884Y-64317049D01*
X145181084Y-64350500D01*
X145181085Y-64350500D01*
X145394915Y-64350500D01*
X145394916Y-64350500D01*
X145606116Y-64317049D01*
X145809483Y-64250972D01*
X146000009Y-64153894D01*
X146173004Y-64028206D01*
X146324206Y-63877004D01*
X146449894Y-63704009D01*
X146449896Y-63704004D01*
X146452270Y-63700132D01*
X146504080Y-63653254D01*
X146573009Y-63641829D01*
X146637173Y-63669483D01*
X146663730Y-63700132D01*
X146666103Y-63704005D01*
X146666106Y-63704009D01*
X146791794Y-63877004D01*
X146942996Y-64028206D01*
X147115991Y-64153894D01*
X147184111Y-64188603D01*
X147306516Y-64250972D01*
X147306519Y-64250973D01*
X147384642Y-64276356D01*
X147509884Y-64317049D01*
X147721084Y-64350500D01*
X147721085Y-64350500D01*
X147934915Y-64350500D01*
X147934916Y-64350500D01*
X148146116Y-64317049D01*
X148349483Y-64250972D01*
X148540009Y-64153894D01*
X148713004Y-64028206D01*
X148864206Y-63877004D01*
X148989894Y-63704009D01*
X148989896Y-63704004D01*
X148992270Y-63700132D01*
X149044080Y-63653254D01*
X149113009Y-63641829D01*
X149177173Y-63669483D01*
X149203730Y-63700132D01*
X149206103Y-63704005D01*
X149206106Y-63704009D01*
X149331794Y-63877004D01*
X149482996Y-64028206D01*
X149655991Y-64153894D01*
X149724111Y-64188603D01*
X149846516Y-64250972D01*
X149846519Y-64250973D01*
X149924642Y-64276356D01*
X150049884Y-64317049D01*
X150261084Y-64350500D01*
X150261085Y-64350500D01*
X150474915Y-64350500D01*
X150474916Y-64350500D01*
X150686116Y-64317049D01*
X150889483Y-64250972D01*
X151080009Y-64153894D01*
X151253004Y-64028206D01*
X151404206Y-63877004D01*
X151529894Y-63704009D01*
X151529896Y-63704004D01*
X151532270Y-63700132D01*
X151584080Y-63653254D01*
X151653009Y-63641829D01*
X151717173Y-63669483D01*
X151743730Y-63700132D01*
X151746103Y-63704005D01*
X151746106Y-63704009D01*
X151871794Y-63877004D01*
X152022996Y-64028206D01*
X152195991Y-64153894D01*
X152264111Y-64188603D01*
X152386516Y-64250972D01*
X152386519Y-64250973D01*
X152464642Y-64276356D01*
X152589884Y-64317049D01*
X152801084Y-64350500D01*
X152801085Y-64350500D01*
X153014915Y-64350500D01*
X153014916Y-64350500D01*
X153226116Y-64317049D01*
X153429483Y-64250972D01*
X153620009Y-64153894D01*
X153793004Y-64028206D01*
X153944206Y-63877004D01*
X154069894Y-63704009D01*
X154166972Y-63513483D01*
X154233049Y-63310116D01*
X154266500Y-63098916D01*
X154266500Y-62885084D01*
X154233049Y-62673884D01*
X154200010Y-62572200D01*
X154166973Y-62470519D01*
X154166972Y-62470516D01*
X154101575Y-62342169D01*
X154069894Y-62279991D01*
X153944206Y-62106996D01*
X153793004Y-61955794D01*
X153620009Y-61830106D01*
X153620010Y-61830106D01*
X153620008Y-61830105D01*
X153615311Y-61827712D01*
X153564517Y-61779735D01*
X153547724Y-61711914D01*
X153570264Y-61645780D01*
X153611790Y-61609801D01*
X153611402Y-61609168D01*
X153615229Y-61606822D01*
X153615327Y-61606738D01*
X153615556Y-61606621D01*
X153669716Y-61567270D01*
X153669717Y-61567270D01*
X153037408Y-60934962D01*
X153100993Y-60917925D01*
X153215007Y-60852099D01*
X153308099Y-60759007D01*
X153373925Y-60644993D01*
X153390962Y-60581408D01*
X154023270Y-61213717D01*
X154023270Y-61213716D01*
X154062622Y-61159554D01*
X154159095Y-60970217D01*
X154224757Y-60768130D01*
X154224757Y-60768127D01*
X154258000Y-60558246D01*
X154258000Y-60345753D01*
X154224757Y-60135872D01*
X154224757Y-60135869D01*
X154159095Y-59933782D01*
X154062624Y-59744449D01*
X154023270Y-59690282D01*
X154023269Y-59690282D01*
X153390962Y-60322590D01*
X153373925Y-60259007D01*
X153308099Y-60144993D01*
X153215007Y-60051901D01*
X153100993Y-59986075D01*
X153037409Y-59969037D01*
X153669716Y-59336728D01*
X153615550Y-59297375D01*
X153426217Y-59200904D01*
X153224129Y-59135242D01*
X153014246Y-59102000D01*
X152801754Y-59102000D01*
X152591872Y-59135242D01*
X152591869Y-59135242D01*
X152389782Y-59200904D01*
X152200439Y-59297380D01*
X152146282Y-59336727D01*
X152146282Y-59336728D01*
X152778591Y-59969037D01*
X152715007Y-59986075D01*
X152600993Y-60051901D01*
X152507901Y-60144993D01*
X152442075Y-60259007D01*
X152425037Y-60322591D01*
X151792728Y-59690282D01*
X151792727Y-59690282D01*
X151753380Y-59744440D01*
X151753374Y-59744449D01*
X151753246Y-59744702D01*
X151753172Y-59744780D01*
X151750838Y-59748590D01*
X151750036Y-59748099D01*
X151705264Y-59795490D01*
X151637441Y-59812275D01*
X151571309Y-59789728D01*
X151532283Y-59744680D01*
X151529894Y-59739991D01*
X151404206Y-59566996D01*
X151332156Y-59494946D01*
X151316435Y-59466155D01*
X151299689Y-59437931D01*
X151299770Y-59435637D01*
X151298671Y-59433623D01*
X151301012Y-59400886D01*
X151302183Y-59368106D01*
X151303491Y-59366221D01*
X151303655Y-59363931D01*
X151323321Y-59337660D01*
X151342031Y-59310713D01*
X151344664Y-59309150D01*
X151345527Y-59307998D01*
X151372380Y-59292705D01*
X151486868Y-59245283D01*
X151619289Y-59156803D01*
X151731903Y-59044189D01*
X151820383Y-58911768D01*
X151881330Y-58764631D01*
X151912400Y-58608430D01*
X151912400Y-58449170D01*
X151881330Y-58292969D01*
X151820383Y-58145832D01*
X151731903Y-58013411D01*
X151731898Y-58013405D01*
X151619294Y-57900801D01*
X151619287Y-57900795D01*
X151486869Y-57812317D01*
X151339731Y-57751370D01*
X151339723Y-57751368D01*
X151230126Y-57729568D01*
X151168215Y-57697184D01*
X151166635Y-57695631D01*
X151122136Y-57651131D01*
X151122132Y-57651128D01*
X151018381Y-57581803D01*
X151018372Y-57581798D01*
X150903085Y-57534045D01*
X150903077Y-57534043D01*
X150780698Y-57509700D01*
X150780694Y-57509700D01*
X127459394Y-57509700D01*
X127334606Y-57509700D01*
X127334601Y-57509700D01*
X127212222Y-57534043D01*
X127212214Y-57534045D01*
X127096927Y-57581798D01*
X127096918Y-57581803D01*
X126993167Y-57651128D01*
X126993163Y-57651131D01*
X125513597Y-59130697D01*
X125452274Y-59164182D01*
X125382582Y-59159198D01*
X125326649Y-59117326D01*
X125323224Y-59112517D01*
X125308674Y-59091019D01*
X125158981Y-58941326D01*
X124983664Y-58822668D01*
X124983661Y-58822666D01*
X124983657Y-58822664D01*
X124789063Y-58739335D01*
X124789061Y-58739334D01*
X124789058Y-58739333D01*
X124789053Y-58739331D01*
X124789047Y-58739330D01*
X124582204Y-58694334D01*
X124582203Y-58694333D01*
X124582199Y-58694333D01*
X124534641Y-58691500D01*
X124534628Y-58691500D01*
X124365372Y-58691500D01*
X124365369Y-58691500D01*
X124365360Y-58691501D01*
X124317801Y-58694333D01*
X124317796Y-58694333D01*
X124317796Y-58694334D01*
X124110951Y-58739330D01*
X124110936Y-58739335D01*
X123916342Y-58822664D01*
X123741021Y-58941324D01*
X123741016Y-58941328D01*
X123591328Y-59091016D01*
X123591324Y-59091021D01*
X123472664Y-59266342D01*
X123389335Y-59460936D01*
X123389330Y-59460952D01*
X123344334Y-59667795D01*
X123344333Y-59667801D01*
X123341500Y-59715359D01*
X123341500Y-59715369D01*
X123341500Y-59715371D01*
X123341500Y-61284627D01*
X123341500Y-61284629D01*
X123341501Y-61284640D01*
X123344333Y-61332199D01*
X123344334Y-61332203D01*
X123389330Y-61539048D01*
X123389335Y-61539063D01*
X123472664Y-61733657D01*
X123472666Y-61733661D01*
X123472668Y-61733664D01*
X123591326Y-61908981D01*
X123741019Y-62058674D01*
X123916336Y-62177332D01*
X123916340Y-62177333D01*
X123916342Y-62177335D01*
X124013639Y-62218999D01*
X124110942Y-62260667D01*
X124317801Y-62305667D01*
X124365359Y-62308500D01*
X124534640Y-62308499D01*
X124582199Y-62305667D01*
X124789058Y-62260667D01*
X124983664Y-62177332D01*
X125158981Y-62058674D01*
X125308674Y-61908981D01*
X125427332Y-61733664D01*
X125510667Y-61539058D01*
X125555667Y-61332199D01*
X125558500Y-61284641D01*
X125558500Y-60903718D01*
X125578185Y-60836679D01*
X125630989Y-60790924D01*
X125658309Y-60782101D01*
X125718560Y-60770116D01*
X125799431Y-60754030D01*
X125946568Y-60693083D01*
X126078989Y-60604603D01*
X126191603Y-60491989D01*
X126280083Y-60359568D01*
X126341030Y-60212431D01*
X126362831Y-60102822D01*
X126395215Y-60040915D01*
X126396710Y-60039392D01*
X127623085Y-58813019D01*
X127684408Y-58779534D01*
X127710766Y-58776700D01*
X132432445Y-58776700D01*
X132499484Y-58796385D01*
X132545239Y-58849189D01*
X132555183Y-58918347D01*
X132526158Y-58981903D01*
X132520126Y-58988381D01*
X132495601Y-59012905D01*
X132495595Y-59012912D01*
X132407117Y-59145330D01*
X132346170Y-59292468D01*
X132346168Y-59292476D01*
X132315100Y-59448665D01*
X132315100Y-59607934D01*
X132346168Y-59764123D01*
X132346170Y-59764131D01*
X132407117Y-59911269D01*
X132495595Y-60043687D01*
X132495601Y-60043694D01*
X132608205Y-60156298D01*
X132608212Y-60156304D01*
X132740630Y-60244782D01*
X132740631Y-60244782D01*
X132740632Y-60244783D01*
X132887769Y-60305730D01*
X133009784Y-60330000D01*
X133043965Y-60336799D01*
X133043969Y-60336800D01*
X133043970Y-60336800D01*
X133203231Y-60336800D01*
X133203232Y-60336799D01*
X133359431Y-60305730D01*
X133506568Y-60244783D01*
X133582677Y-60193929D01*
X133649351Y-60173052D01*
X133716731Y-60191536D01*
X133763422Y-60243515D01*
X133774598Y-60312485D01*
X133774041Y-60316409D01*
X133769500Y-60345084D01*
X133769500Y-60345088D01*
X133769500Y-60558915D01*
X133802951Y-60770117D01*
X133836341Y-60872882D01*
X133838336Y-60942723D01*
X133802255Y-61002556D01*
X133739554Y-61033384D01*
X133718410Y-61035200D01*
X129898501Y-61035200D01*
X129776122Y-61059543D01*
X129776114Y-61059545D01*
X129660827Y-61107298D01*
X129660818Y-61107303D01*
X129557067Y-61176628D01*
X129557063Y-61176631D01*
X126653515Y-64080181D01*
X126592192Y-64113666D01*
X126565834Y-64116500D01*
X122232327Y-64116500D01*
X122165288Y-64096815D01*
X122119533Y-64044011D01*
X122109589Y-63974853D01*
X122121842Y-63936206D01*
X122127285Y-63925522D01*
X122127289Y-63925513D01*
X122134091Y-63904579D01*
X122181205Y-63759574D01*
X122208500Y-63587241D01*
X122208500Y-63412759D01*
X122181205Y-63240426D01*
X122150000Y-63144385D01*
X122127289Y-63074486D01*
X122127288Y-63074483D01*
X122079196Y-62980099D01*
X122048074Y-62919019D01*
X121972129Y-62814489D01*
X121945522Y-62777867D01*
X121945518Y-62777862D01*
X121822137Y-62654481D01*
X121822132Y-62654477D01*
X121680984Y-62551928D01*
X121680983Y-62551927D01*
X121680981Y-62551926D01*
X121630246Y-62526075D01*
X121525516Y-62472711D01*
X121525513Y-62472710D01*
X121359575Y-62418795D01*
X121273407Y-62405147D01*
X121187241Y-62391500D01*
X121012759Y-62391500D01*
X120959092Y-62400000D01*
X120840424Y-62418795D01*
X120674486Y-62472710D01*
X120674483Y-62472711D01*
X120519015Y-62551928D01*
X120377867Y-62654477D01*
X120377862Y-62654481D01*
X120254481Y-62777862D01*
X120254477Y-62777867D01*
X120150318Y-62921231D01*
X120094988Y-62963897D01*
X120025375Y-62969876D01*
X119963580Y-62937271D01*
X119949682Y-62921231D01*
X119845522Y-62777867D01*
X119845518Y-62777862D01*
X119722137Y-62654481D01*
X119722132Y-62654477D01*
X119580984Y-62551928D01*
X119580983Y-62551927D01*
X119580981Y-62551926D01*
X119530246Y-62526075D01*
X119425516Y-62472711D01*
X119425513Y-62472710D01*
X119259575Y-62418795D01*
X119173407Y-62405147D01*
X119087241Y-62391500D01*
X118912759Y-62391500D01*
X118859092Y-62400000D01*
X118740424Y-62418795D01*
X118574486Y-62472710D01*
X118574483Y-62472711D01*
X118419015Y-62551928D01*
X118277867Y-62654477D01*
X118277862Y-62654481D01*
X118154481Y-62777862D01*
X118154477Y-62777867D01*
X118051928Y-62919015D01*
X117972711Y-63074483D01*
X117972710Y-63074486D01*
X117918795Y-63240424D01*
X117902136Y-63345606D01*
X117891500Y-63412759D01*
X117891500Y-63587241D01*
X117902136Y-63654394D01*
X117918795Y-63759575D01*
X117972710Y-63925513D01*
X117972714Y-63925522D01*
X117978158Y-63936206D01*
X117991054Y-64004875D01*
X117964777Y-64069616D01*
X117907670Y-64109872D01*
X117867673Y-64116500D01*
X117522786Y-64116500D01*
X117455747Y-64096815D01*
X117409992Y-64044011D01*
X117400048Y-63974853D01*
X117412302Y-63936204D01*
X117419407Y-63922259D01*
X117472914Y-63757584D01*
X117500000Y-63586571D01*
X117500000Y-63413428D01*
X117472914Y-63242415D01*
X117419408Y-63077742D01*
X117340801Y-62923471D01*
X117336290Y-62917262D01*
X117336289Y-62917261D01*
X116800000Y-63453551D01*
X116800000Y-63447339D01*
X116772741Y-63345606D01*
X116720080Y-63254394D01*
X116645606Y-63179920D01*
X116554394Y-63127259D01*
X116452661Y-63100000D01*
X116446447Y-63100000D01*
X116982737Y-62563709D01*
X116976525Y-62559196D01*
X116822259Y-62480592D01*
X116657584Y-62427085D01*
X116486571Y-62400000D01*
X116313429Y-62400000D01*
X116142415Y-62427085D01*
X115977740Y-62480592D01*
X115823480Y-62559193D01*
X115823463Y-62559203D01*
X115817261Y-62563708D01*
X115817261Y-62563709D01*
X116353554Y-63100000D01*
X116347339Y-63100000D01*
X116245606Y-63127259D01*
X116154394Y-63179920D01*
X116079920Y-63254394D01*
X116027259Y-63345606D01*
X116000000Y-63447339D01*
X116000000Y-63453552D01*
X115463709Y-62917261D01*
X115463708Y-62917261D01*
X115456335Y-62927413D01*
X115454827Y-62926317D01*
X115408899Y-62967858D01*
X115339968Y-62979270D01*
X115275809Y-62951604D01*
X115250971Y-62922935D01*
X115250938Y-62922960D01*
X115250650Y-62922564D01*
X115249271Y-62920972D01*
X115248076Y-62919024D01*
X115248074Y-62919019D01*
X115172129Y-62814489D01*
X115145522Y-62777867D01*
X115145518Y-62777862D01*
X115022137Y-62654481D01*
X115022132Y-62654477D01*
X114880984Y-62551928D01*
X114880983Y-62551927D01*
X114880981Y-62551926D01*
X114830246Y-62526075D01*
X114725516Y-62472711D01*
X114725513Y-62472710D01*
X114559575Y-62418795D01*
X114473407Y-62405147D01*
X114387241Y-62391500D01*
X114212759Y-62391500D01*
X114159092Y-62400000D01*
X114040424Y-62418795D01*
X113874486Y-62472710D01*
X113874483Y-62472711D01*
X113719015Y-62551928D01*
X113577867Y-62654477D01*
X113577862Y-62654481D01*
X113454481Y-62777862D01*
X113454477Y-62777867D01*
X113351928Y-62919015D01*
X113272711Y-63074483D01*
X113272710Y-63074486D01*
X113218795Y-63240424D01*
X113202136Y-63345606D01*
X113191500Y-63412759D01*
X113191500Y-63587241D01*
X113202136Y-63654394D01*
X113218795Y-63759575D01*
X113272710Y-63925513D01*
X113272714Y-63925522D01*
X113278158Y-63936206D01*
X113291054Y-64004875D01*
X113264777Y-64069616D01*
X113207670Y-64109872D01*
X113167673Y-64116500D01*
X101035601Y-64116500D01*
X100913222Y-64140843D01*
X100913214Y-64140845D01*
X100797927Y-64188598D01*
X100797918Y-64188603D01*
X100694167Y-64257928D01*
X100694163Y-64257931D01*
X98014762Y-66937332D01*
X97953439Y-66970817D01*
X97951272Y-66971268D01*
X97841676Y-66993068D01*
X97841668Y-66993070D01*
X97694530Y-67054017D01*
X97562112Y-67142495D01*
X97562105Y-67142501D01*
X97449501Y-67255105D01*
X97449495Y-67255112D01*
X97361017Y-67387530D01*
X97300070Y-67534668D01*
X97300068Y-67534676D01*
X97269000Y-67690865D01*
X92592087Y-67690865D01*
X92608500Y-67587241D01*
X92608500Y-67412758D01*
X92581205Y-67240426D01*
X92554568Y-67158446D01*
X92548500Y-67120129D01*
X92548500Y-63496324D01*
X92568185Y-63429285D01*
X92598195Y-63397053D01*
X92603261Y-63393261D01*
X92690889Y-63276204D01*
X92704234Y-63240426D01*
X92712270Y-63218881D01*
X92712270Y-63218880D01*
X92741988Y-63139204D01*
X92741988Y-63139203D01*
X92741989Y-63139201D01*
X92745591Y-63105692D01*
X92748499Y-63078654D01*
X92748500Y-63078637D01*
X92748500Y-62127682D01*
X93640000Y-62127682D01*
X93640000Y-62332317D01*
X93672009Y-62534417D01*
X93735244Y-62729031D01*
X93828141Y-62911350D01*
X93828147Y-62911359D01*
X93860523Y-62955921D01*
X93860524Y-62955922D01*
X94540000Y-62276446D01*
X94540000Y-62282661D01*
X94567259Y-62384394D01*
X94619920Y-62475606D01*
X94694394Y-62550080D01*
X94785606Y-62602741D01*
X94887339Y-62630000D01*
X94893553Y-62630000D01*
X94214076Y-63309474D01*
X94258650Y-63341859D01*
X94440968Y-63434755D01*
X94635582Y-63497990D01*
X94837683Y-63530000D01*
X95042317Y-63530000D01*
X95244417Y-63497990D01*
X95439031Y-63434755D01*
X95621349Y-63341859D01*
X95665921Y-63309474D01*
X94986447Y-62630000D01*
X94992661Y-62630000D01*
X95094394Y-62602741D01*
X95185606Y-62550080D01*
X95260080Y-62475606D01*
X95312741Y-62384394D01*
X95340000Y-62282661D01*
X95340000Y-62276447D01*
X96019474Y-62955921D01*
X96051859Y-62911349D01*
X96144755Y-62729031D01*
X96207990Y-62534417D01*
X96240000Y-62332317D01*
X96240000Y-62127682D01*
X96207990Y-61925582D01*
X96144755Y-61730968D01*
X96051859Y-61548650D01*
X96019474Y-61504077D01*
X96019474Y-61504076D01*
X95340000Y-62183551D01*
X95340000Y-62177339D01*
X95312741Y-62075606D01*
X95260080Y-61984394D01*
X95185606Y-61909920D01*
X95094394Y-61857259D01*
X94992661Y-61830000D01*
X94986446Y-61830000D01*
X95665922Y-61150524D01*
X95665921Y-61150523D01*
X95621359Y-61118147D01*
X95621350Y-61118141D01*
X95439031Y-61025244D01*
X95244417Y-60962009D01*
X95042317Y-60930000D01*
X94837683Y-60930000D01*
X94635582Y-60962009D01*
X94440968Y-61025244D01*
X94258644Y-61118143D01*
X94214077Y-61150523D01*
X94214077Y-61150524D01*
X94893554Y-61830000D01*
X94887339Y-61830000D01*
X94785606Y-61857259D01*
X94694394Y-61909920D01*
X94619920Y-61984394D01*
X94567259Y-62075606D01*
X94540000Y-62177339D01*
X94540000Y-62183553D01*
X93860524Y-61504077D01*
X93860523Y-61504077D01*
X93828143Y-61548644D01*
X93735244Y-61730968D01*
X93672009Y-61925582D01*
X93640000Y-62127682D01*
X92748500Y-62127682D01*
X92748500Y-61381362D01*
X92748499Y-61381345D01*
X92743215Y-61332203D01*
X92741989Y-61320799D01*
X92690889Y-61183796D01*
X92685525Y-61176631D01*
X92665981Y-61150523D01*
X92603261Y-61066739D01*
X92486204Y-60979111D01*
X92462359Y-60970217D01*
X92349203Y-60928011D01*
X92288654Y-60921500D01*
X92288638Y-60921500D01*
X90591362Y-60921500D01*
X90591345Y-60921500D01*
X90530797Y-60928011D01*
X90530795Y-60928011D01*
X90393795Y-60979111D01*
X90276739Y-61066739D01*
X90189111Y-61183795D01*
X90138011Y-61320795D01*
X90138011Y-61320797D01*
X90131500Y-61381345D01*
X90131500Y-63078654D01*
X90138011Y-63139202D01*
X90138011Y-63139204D01*
X90175766Y-63240426D01*
X90189111Y-63276204D01*
X90276739Y-63393261D01*
X90281805Y-63397053D01*
X90323679Y-63452984D01*
X90331500Y-63496324D01*
X90331500Y-67049482D01*
X90311815Y-67116521D01*
X90295181Y-67137163D01*
X89997163Y-67435181D01*
X89935840Y-67468666D01*
X89909482Y-67471500D01*
X85567500Y-67471500D01*
X85500461Y-67451815D01*
X85454706Y-67399011D01*
X85443500Y-67347500D01*
X85443500Y-66781362D01*
X85443499Y-66781345D01*
X85439127Y-66740684D01*
X85436989Y-66720799D01*
X85432518Y-66708813D01*
X85414522Y-66660564D01*
X85385889Y-66583796D01*
X85298261Y-66466739D01*
X85181204Y-66379111D01*
X85164126Y-66372741D01*
X85044203Y-66328011D01*
X84983654Y-66321500D01*
X84983638Y-66321500D01*
X81386362Y-66321500D01*
X81386345Y-66321500D01*
X81325797Y-66328011D01*
X81325795Y-66328011D01*
X81188795Y-66379111D01*
X81071739Y-66466739D01*
X80984111Y-66583795D01*
X80975181Y-66607738D01*
X80933309Y-66663671D01*
X80867845Y-66688087D01*
X80799572Y-66673235D01*
X80750167Y-66623829D01*
X80735000Y-66564403D01*
X80735000Y-65830000D01*
X78985000Y-65830000D01*
X78985000Y-65330000D01*
X80735000Y-65330000D01*
X80735000Y-64571278D01*
X80754685Y-64504239D01*
X80807489Y-64458484D01*
X80876647Y-64448540D01*
X80940203Y-64477565D01*
X80975182Y-64527945D01*
X80991645Y-64572086D01*
X80991649Y-64572093D01*
X81077809Y-64687187D01*
X81077812Y-64687190D01*
X81192906Y-64773350D01*
X81192913Y-64773354D01*
X81327620Y-64823596D01*
X81327627Y-64823598D01*
X81387155Y-64829999D01*
X81387172Y-64830000D01*
X82935000Y-64830000D01*
X82935000Y-63080000D01*
X83435000Y-63080000D01*
X83435000Y-64830000D01*
X84982828Y-64830000D01*
X84982844Y-64829999D01*
X85042372Y-64823598D01*
X85042379Y-64823596D01*
X85177086Y-64773354D01*
X85177093Y-64773350D01*
X85292187Y-64687190D01*
X85292190Y-64687187D01*
X85378350Y-64572093D01*
X85378354Y-64572086D01*
X85428596Y-64437379D01*
X85428598Y-64437372D01*
X85434999Y-64377844D01*
X85435000Y-64377827D01*
X85435000Y-62830000D01*
X84618012Y-62830000D01*
X84650925Y-62772993D01*
X84685000Y-62645826D01*
X84685000Y-62514174D01*
X84650925Y-62387007D01*
X84618012Y-62330000D01*
X85435000Y-62330000D01*
X85435000Y-60782172D01*
X85434999Y-60782155D01*
X85428598Y-60722627D01*
X85428596Y-60722620D01*
X85378354Y-60587913D01*
X85378350Y-60587906D01*
X85292190Y-60472812D01*
X85292187Y-60472809D01*
X85177093Y-60386649D01*
X85177086Y-60386645D01*
X85042379Y-60336403D01*
X85042372Y-60336401D01*
X84982844Y-60330000D01*
X83435000Y-60330000D01*
X83435000Y-62080000D01*
X82935000Y-62080000D01*
X82935000Y-60330000D01*
X81387155Y-60330000D01*
X81327627Y-60336401D01*
X81327620Y-60336403D01*
X81192913Y-60386645D01*
X81192906Y-60386649D01*
X81077812Y-60472809D01*
X81077809Y-60472812D01*
X80991649Y-60587906D01*
X80991645Y-60587913D01*
X80941403Y-60722620D01*
X80941401Y-60722627D01*
X80935000Y-60782155D01*
X80935000Y-62330000D01*
X81751988Y-62330000D01*
X81719075Y-62387007D01*
X81685000Y-62514174D01*
X81685000Y-62645826D01*
X81719075Y-62772993D01*
X81751988Y-62830000D01*
X80935000Y-62830000D01*
X80935000Y-63588721D01*
X80915315Y-63655760D01*
X80862511Y-63701515D01*
X80793353Y-63711459D01*
X80729797Y-63682434D01*
X80694818Y-63632055D01*
X80678353Y-63587911D01*
X80678350Y-63587906D01*
X80592190Y-63472812D01*
X80592187Y-63472809D01*
X80477093Y-63386649D01*
X80477086Y-63386645D01*
X80342379Y-63336403D01*
X80342372Y-63336401D01*
X80282844Y-63330000D01*
X78735000Y-63330000D01*
X78735000Y-64146988D01*
X78677993Y-64114075D01*
X78550826Y-64080000D01*
X78419174Y-64080000D01*
X78292007Y-64114075D01*
X78235000Y-64146988D01*
X78235000Y-63330000D01*
X76687155Y-63330000D01*
X76627627Y-63336401D01*
X76627620Y-63336403D01*
X76492913Y-63386645D01*
X76492906Y-63386649D01*
X76377812Y-63472809D01*
X76377809Y-63472812D01*
X76291649Y-63587906D01*
X76291645Y-63587913D01*
X76241403Y-63722620D01*
X76241401Y-63722627D01*
X76235000Y-63782155D01*
X70255500Y-63782155D01*
X70255500Y-61124000D01*
X70275185Y-61056961D01*
X70327989Y-61011206D01*
X70379500Y-61000000D01*
X76000000Y-61000000D01*
X76000000Y-59715359D01*
X109841500Y-59715359D01*
X109841500Y-59715369D01*
X109841500Y-59715371D01*
X109841500Y-61284627D01*
X109841500Y-61284629D01*
X109841501Y-61284640D01*
X109844333Y-61332199D01*
X109844334Y-61332203D01*
X109889330Y-61539048D01*
X109889335Y-61539063D01*
X109972664Y-61733657D01*
X109972666Y-61733661D01*
X109972668Y-61733664D01*
X110091326Y-61908981D01*
X110241019Y-62058674D01*
X110416336Y-62177332D01*
X110416340Y-62177333D01*
X110416342Y-62177335D01*
X110513639Y-62218999D01*
X110610942Y-62260667D01*
X110817801Y-62305667D01*
X110865359Y-62308500D01*
X111034640Y-62308499D01*
X111082199Y-62305667D01*
X111289058Y-62260667D01*
X111483664Y-62177332D01*
X111658981Y-62058674D01*
X111808674Y-61908981D01*
X111927332Y-61733664D01*
X112010667Y-61539058D01*
X112055667Y-61332199D01*
X112058500Y-61284641D01*
X112058499Y-59715360D01*
X112055667Y-59667801D01*
X112044261Y-59615371D01*
X112044258Y-59615359D01*
X115891500Y-59615359D01*
X115891500Y-59615369D01*
X115891500Y-59615371D01*
X115891500Y-59784627D01*
X115891500Y-59784629D01*
X115891501Y-59784640D01*
X115894333Y-59832199D01*
X115894334Y-59832203D01*
X115939330Y-60039048D01*
X115939335Y-60039063D01*
X116022664Y-60233657D01*
X116022666Y-60233661D01*
X116022668Y-60233664D01*
X116141326Y-60408981D01*
X116291019Y-60558674D01*
X116466336Y-60677332D01*
X116466340Y-60677333D01*
X116466342Y-60677335D01*
X116503118Y-60693083D01*
X116660942Y-60760667D01*
X116867801Y-60805667D01*
X116915359Y-60808500D01*
X118484640Y-60808499D01*
X118532199Y-60805667D01*
X118739058Y-60760667D01*
X118933664Y-60677332D01*
X119108981Y-60558674D01*
X119258674Y-60408981D01*
X119377332Y-60233664D01*
X119460667Y-60039058D01*
X119505667Y-59832199D01*
X119508500Y-59784641D01*
X119508499Y-59615360D01*
X119505667Y-59567801D01*
X119460667Y-59360942D01*
X119406927Y-59235447D01*
X119377335Y-59166342D01*
X119377333Y-59166340D01*
X119377332Y-59166336D01*
X119258674Y-58991019D01*
X119108981Y-58841326D01*
X118933664Y-58722668D01*
X118933661Y-58722666D01*
X118933657Y-58722664D01*
X118739063Y-58639335D01*
X118739061Y-58639334D01*
X118739058Y-58639333D01*
X118739053Y-58639331D01*
X118739047Y-58639330D01*
X118532204Y-58594334D01*
X118532203Y-58594333D01*
X118532199Y-58594333D01*
X118484641Y-58591500D01*
X118484628Y-58591500D01*
X116915372Y-58591500D01*
X116915369Y-58591500D01*
X116915360Y-58591501D01*
X116867801Y-58594333D01*
X116867796Y-58594333D01*
X116867796Y-58594334D01*
X116660951Y-58639330D01*
X116660936Y-58639335D01*
X116466342Y-58722664D01*
X116291021Y-58841324D01*
X116291016Y-58841328D01*
X116141328Y-58991016D01*
X116141324Y-58991021D01*
X116022664Y-59166342D01*
X115939335Y-59360936D01*
X115939330Y-59360952D01*
X115894508Y-59566996D01*
X115894333Y-59567801D01*
X115891500Y-59615359D01*
X112044258Y-59615359D01*
X112010669Y-59460952D01*
X112010667Y-59460942D01*
X111948351Y-59315419D01*
X111927335Y-59266342D01*
X111927333Y-59266340D01*
X111927332Y-59266336D01*
X111808674Y-59091019D01*
X111658981Y-58941326D01*
X111483664Y-58822668D01*
X111483661Y-58822666D01*
X111483657Y-58822664D01*
X111289063Y-58739335D01*
X111289061Y-58739334D01*
X111289058Y-58739333D01*
X111289053Y-58739331D01*
X111289047Y-58739330D01*
X111082204Y-58694334D01*
X111082203Y-58694333D01*
X111082199Y-58694333D01*
X111034641Y-58691500D01*
X111034628Y-58691500D01*
X110865372Y-58691500D01*
X110865369Y-58691500D01*
X110865360Y-58691501D01*
X110817801Y-58694333D01*
X110817796Y-58694333D01*
X110817796Y-58694334D01*
X110610951Y-58739330D01*
X110610936Y-58739335D01*
X110416342Y-58822664D01*
X110241021Y-58941324D01*
X110241016Y-58941328D01*
X110091328Y-59091016D01*
X110091324Y-59091021D01*
X109972664Y-59266342D01*
X109889335Y-59460936D01*
X109889330Y-59460952D01*
X109844334Y-59667795D01*
X109844333Y-59667801D01*
X109841500Y-59715359D01*
X76000000Y-59715359D01*
X76000000Y-54809500D01*
X76019685Y-54742461D01*
X76072489Y-54696706D01*
X76124000Y-54685500D01*
X163876000Y-54685500D01*
X163943039Y-54705185D01*
G37*
%TD.AperFunction*%
%TD*%
M02*
