%TF.GenerationSoftware,KiCad,Pcbnew,9.0.7*%
%TF.CreationDate,2026-02-09T23:27:39+01:00*%
%TF.ProjectId,Pi1551-III Module,50693135-3531-42d4-9949-49204d6f6475,1*%
%TF.SameCoordinates,Original*%
%TF.FileFunction,Soldermask,Top*%
%TF.FilePolarity,Negative*%
%FSLAX46Y46*%
G04 Gerber Fmt 4.6, Leading zero omitted, Abs format (unit mm)*
G04 Created by KiCad (PCBNEW 9.0.7) date 2026-02-09 23:27:39*
%MOMM*%
%LPD*%
G01*
G04 APERTURE LIST*
G04 Aperture macros list*
%AMRoundRect*
0 Rectangle with rounded corners*
0 $1 Rounding radius*
0 $2 $3 $4 $5 $6 $7 $8 $9 X,Y pos of 4 corners*
0 Add a 4 corners polygon primitive as box body*
4,1,4,$2,$3,$4,$5,$6,$7,$8,$9,$2,$3,0*
0 Add four circle primitives for the rounded corners*
1,1,$1+$1,$2,$3*
1,1,$1+$1,$4,$5*
1,1,$1+$1,$6,$7*
1,1,$1+$1,$8,$9*
0 Add four rect primitives between the rounded corners*
20,1,$1+$1,$2,$3,$4,$5,0*
20,1,$1+$1,$4,$5,$6,$7,0*
20,1,$1+$1,$6,$7,$8,$9,0*
20,1,$1+$1,$8,$9,$2,$3,0*%
%AMFreePoly0*
4,1,23,0.550000,-0.750000,0.000000,-0.750000,0.000000,-0.745722,-0.065263,-0.745722,-0.191342,-0.711940,-0.304381,-0.646677,-0.396677,-0.554381,-0.461940,-0.441342,-0.495722,-0.315263,-0.495722,-0.250000,-0.500000,-0.250000,-0.500000,0.250000,-0.495722,0.250000,-0.495722,0.315263,-0.461940,0.441342,-0.396677,0.554381,-0.304381,0.646677,-0.191342,0.711940,-0.065263,0.745722,0.000000,0.745722,
0.000000,0.750000,0.550000,0.750000,0.550000,-0.750000,0.550000,-0.750000,$1*%
%AMFreePoly1*
4,1,23,0.000000,0.745722,0.065263,0.745722,0.191342,0.711940,0.304381,0.646677,0.396677,0.554381,0.461940,0.441342,0.495722,0.315263,0.495722,0.250000,0.500000,0.250000,0.500000,-0.250000,0.495722,-0.250000,0.495722,-0.315263,0.461940,-0.441342,0.396677,-0.554381,0.304381,-0.646677,0.191342,-0.711940,0.065263,-0.745722,0.000000,-0.745722,0.000000,-0.750000,-0.550000,-0.750000,
-0.550000,0.750000,0.000000,0.750000,0.000000,0.745722,0.000000,0.745722,$1*%
G04 Aperture macros list end*
%ADD10C,5.100000*%
%ADD11R,1.600000X1.600000*%
%ADD12C,1.600000*%
%ADD13R,3.500000X3.500000*%
%ADD14R,1.700000X1.700000*%
%ADD15O,1.700000X1.700000*%
%ADD16R,3.000000X2.000000*%
%ADD17R,2.000000X2.000000*%
%ADD18C,2.000000*%
%ADD19O,3.000000X2.000000*%
%ADD20RoundRect,0.250000X-0.350000X-0.450000X0.350000X-0.450000X0.350000X0.450000X-0.350000X0.450000X0*%
%ADD21RoundRect,0.250000X-0.450000X0.350000X-0.450000X-0.350000X0.450000X-0.350000X0.450000X0.350000X0*%
%ADD22RoundRect,0.225000X0.375000X-0.225000X0.375000X0.225000X-0.375000X0.225000X-0.375000X-0.225000X0*%
%ADD23RoundRect,0.250000X0.600000X-0.600000X0.600000X0.600000X-0.600000X0.600000X-0.600000X-0.600000X0*%
%ADD24C,1.700000*%
%ADD25RoundRect,0.250000X0.350000X0.450000X-0.350000X0.450000X-0.350000X-0.450000X0.350000X-0.450000X0*%
%ADD26C,1.200000*%
%ADD27RoundRect,0.600000X0.000010X-0.700000X0.000010X0.700000X-0.000010X0.700000X-0.000010X-0.700000X0*%
%ADD28RoundRect,0.600000X-0.700000X-0.000010X0.700000X-0.000010X0.700000X0.000010X-0.700000X0.000010X0*%
%ADD29FreePoly0,270.000000*%
%ADD30R,1.500000X1.000000*%
%ADD31FreePoly1,270.000000*%
%ADD32FreePoly0,90.000000*%
%ADD33FreePoly1,90.000000*%
%ADD34RoundRect,0.250000X0.450000X-0.350000X0.450000X0.350000X-0.450000X0.350000X-0.450000X-0.350000X0*%
%ADD35RoundRect,0.200000X-0.750000X-0.200000X0.750000X-0.200000X0.750000X0.200000X-0.750000X0.200000X0*%
%ADD36RoundRect,0.200000X0.750000X0.200000X-0.750000X0.200000X-0.750000X-0.200000X0.750000X-0.200000X0*%
G04 APERTURE END LIST*
%TO.C,JP1*%
G36*
X111250000Y-71543000D02*
G01*
X109750000Y-71543000D01*
X109750000Y-73043000D01*
X111250000Y-73043000D01*
X111250000Y-71543000D01*
G37*
%TO.C,JP2*%
G36*
X120250000Y-73050000D02*
G01*
X121750000Y-73050000D01*
X121750000Y-71550000D01*
X120250000Y-71550000D01*
X120250000Y-73050000D01*
G37*
%TD*%
D10*
%TO.C,M1*%
X73355000Y-151435000D03*
%TD*%
D11*
%TO.C,C6*%
X91440000Y-62230000D03*
D12*
X94940000Y-62230000D03*
%TD*%
D13*
%TO.C,J1*%
X83185000Y-68580000D03*
X83185000Y-62580000D03*
X78485000Y-65580000D03*
%TD*%
D14*
%TO.C,J8*%
X112560000Y-140970000D03*
D15*
X115100000Y-140970000D03*
X117640000Y-140970000D03*
X120180000Y-140970000D03*
X122720000Y-140970000D03*
X125260000Y-140970000D03*
X127800000Y-140970000D03*
X130340000Y-140970000D03*
X132880000Y-140970000D03*
X135420000Y-140970000D03*
X137960000Y-140970000D03*
X140500000Y-140970000D03*
%TD*%
D10*
%TO.C,M2*%
X167005000Y-151435000D03*
%TD*%
%TO.C,M3*%
X167005000Y-57785000D03*
%TD*%
%TO.C,M4*%
X73355000Y-57785000D03*
%TD*%
D16*
%TO.C,BZ1*%
X73660000Y-76835000D03*
D17*
X75470000Y-76835000D03*
D18*
X79450000Y-76835000D03*
D19*
X81260000Y-76835000D03*
%TD*%
D10*
%TO.C,A1*%
X166160000Y-137535000D03*
X108160000Y-137535000D03*
D14*
X161290000Y-89805000D03*
D15*
X161290000Y-87265000D03*
X158750000Y-89805000D03*
X158750000Y-87265000D03*
X156210000Y-89805000D03*
X156210000Y-87265000D03*
X153670000Y-89805000D03*
X153670000Y-87265000D03*
X151130000Y-89805000D03*
X151130000Y-87265000D03*
X148590000Y-89805000D03*
X148590000Y-87265000D03*
X146050000Y-89805000D03*
X146050000Y-87265000D03*
X143510000Y-89805000D03*
X143510000Y-87265000D03*
X140970000Y-89805000D03*
X140970000Y-87265000D03*
X138430000Y-89805000D03*
X138430000Y-87265000D03*
X135890000Y-89805000D03*
X135890000Y-87265000D03*
X133350000Y-89805000D03*
X133350000Y-87265000D03*
X130810000Y-89805000D03*
X130810000Y-87265000D03*
X128270000Y-89805000D03*
X128270000Y-87265000D03*
X125730000Y-89805000D03*
X125730000Y-87265000D03*
X123190000Y-89805000D03*
X123190000Y-87265000D03*
X120650000Y-89805000D03*
X120650000Y-87265000D03*
X118110000Y-89805000D03*
X118110000Y-87265000D03*
X115570000Y-89805000D03*
X115570000Y-87265000D03*
X113030000Y-89805000D03*
X113030000Y-87265000D03*
%TD*%
D20*
%TO.C,R7*%
X98000000Y-80428000D03*
X100000000Y-80428000D03*
%TD*%
%TO.C,R6*%
X98008000Y-77126000D03*
X100008000Y-77126000D03*
%TD*%
D21*
%TO.C,R3*%
X120142000Y-130318000D03*
X120142000Y-132318000D03*
%TD*%
D22*
%TO.C,D2*%
X152908000Y-80136000D03*
X152908000Y-76836000D03*
%TD*%
D23*
%TO.C,J3*%
X135128000Y-62992000D03*
D24*
X135128000Y-60452000D03*
X137668000Y-62992000D03*
X137668000Y-60452000D03*
X140208000Y-62992000D03*
X140208000Y-60452000D03*
X142748000Y-62992000D03*
X142748000Y-60452000D03*
X145288000Y-62992000D03*
X145288000Y-60452000D03*
X147828000Y-62992000D03*
X147828000Y-60452000D03*
X150368000Y-62992000D03*
X150368000Y-60452000D03*
X152908000Y-62992000D03*
X152908000Y-60452000D03*
%TD*%
D25*
%TO.C,R11*%
X133500000Y-70186000D03*
X131500000Y-70186000D03*
%TD*%
D26*
%TO.C,J4*%
X116400000Y-63500000D03*
X119000000Y-63500000D03*
X114300000Y-63500000D03*
X121100000Y-63500000D03*
X114300000Y-66000000D03*
X118600000Y-66000000D03*
X121100000Y-66000000D03*
D27*
X110950000Y-60500000D03*
D28*
X117700000Y-59700000D03*
D27*
X124450000Y-60500000D03*
%TD*%
D29*
%TO.C,JP1*%
X110500000Y-70993000D03*
D30*
X110500000Y-72293000D03*
D31*
X110500000Y-73593000D03*
%TD*%
D32*
%TO.C,JP2*%
X121000000Y-73600000D03*
D30*
X121000000Y-72300000D03*
D33*
X121000000Y-71000000D03*
%TD*%
D34*
%TO.C,R2*%
X114906000Y-132318000D03*
X114906000Y-130318000D03*
%TD*%
D20*
%TO.C,R4*%
X98008000Y-70150000D03*
X100008000Y-70150000D03*
%TD*%
D34*
%TO.C,R1*%
X147320000Y-79486000D03*
X147320000Y-77486000D03*
%TD*%
D25*
%TO.C,R9*%
X133500000Y-77186000D03*
X131500000Y-77186000D03*
%TD*%
D35*
%TO.C,Q1*%
X103500000Y-71356000D03*
X103500000Y-73256000D03*
X106500000Y-72306000D03*
%TD*%
D25*
%TO.C,R10*%
X133500000Y-73776000D03*
X131500000Y-73776000D03*
%TD*%
%TO.C,R8*%
X133500000Y-80686000D03*
X131500000Y-80686000D03*
%TD*%
D35*
%TO.C,Q2*%
X103500000Y-77700000D03*
X103500000Y-79600000D03*
X106500000Y-78650000D03*
%TD*%
D36*
%TO.C,Q4*%
X128000000Y-73136000D03*
X128000000Y-71236000D03*
X125000000Y-72186000D03*
%TD*%
%TO.C,Q3*%
X128000000Y-79660000D03*
X128000000Y-77760000D03*
X125000000Y-78710000D03*
%TD*%
D20*
%TO.C,R5*%
X98008000Y-73642000D03*
X100008000Y-73642000D03*
%TD*%
M02*
